<?xml version="1.0" encoding="UTF-8"?>
<svg id="Layer_2" xmlns="http://www.w3.org/2000/svg" viewBox="0 0 40.39 32.68">
  <defs>
    <style>
      .cls-1 {
        fill: #2c489e;
      }
    </style>
  </defs>
  <g id="Layer_1-2" data-name="Layer_1">
    <g>
      <path class="cls-1" d="M10.21,12.38c.12-.57.27-1.14.44-1.69.18-.59.41-1.16.61-1.74.24-.73.53-.84,1.06-.43.27.21.63.09.65-.19.08-.84.44-1.64.35-2.5-.05-.47-.03-.95-.11-1.41-.08-.44-.26-.87-.38-1.31-.16-.55-.54-.84-1.07-.92-.58-.09-1.16-.14-1.74-.17-.6-.04-1.07-.46-1.16-1.05-.03-.2-.13-.4-.23-.59-.11-.19-.32-.22-.47-.1-.16.13-.33.31-.4.51-.28.78-.38,1.6-.42,2.43-.06,1.01-.19,2.02.19,2.99.09.25.24.51.44.67.45.36.94.66,1.41.98.19.13.39.24.26.53-.27.56-.54,1.12-.8,1.68-.13.29-.26.58-.38.87-.2.47-.41,1.39-.61,1.86-.03,0-.07.01-.1.02-.06-.1-.14-.2-.18-.31-.2-.57-.38-1.6-.58-2.16-.44-1.19-.9-2.38-1.34-3.57-.31-.85-.6-1.71-.89-2.57-.25-.74-.49-1.49-.74-2.23-.08-.26-.2-.52-.24-.78-.05-.36-.19-.62-.58-.79-.18.17-.39.35-.56.55-.35.42-.75.82-1.02,1.29-.61,1.09-.78,2.31-.74,3.52.02.72.22,1.44.42,2.14.23.85.56,1.67.8,2.51.24.83.68,1.59.83,2.46.08.48.31.94.46,1.42.03.09-.02.26-.08.31-.35.25-.72.45-1.07.69-.54.37-1.04.76-1.35,1.38-.41.83-.69,1.68-.79,2.6-.16,1.44-.1,2.86.3,4.26.11.37.25.74.34,1.11.18.71.37,1.41.5,2.13.12.61.22,1.23.25,1.85.03.78-.33,1.27-1.04,1.53-.31.11-.44.29-.42.62.03.4.03.81.05,1.21.01.24.38.57.49.44.22-.24.42-.03.67.17.05.04.14-.23.22-.23.46.02.91.05,1.37.07.21,0,.44.03.63-.03.37-.12.73-.06,1.1-.02.27.02.55-.03.81-.09.1-.02.22-.14.27-.25.41-.98.56-2.02.35-3.06-.22-1.1-.52-2.18-.84-3.25-.3-1.02-.66-2.02-1-3.02-.29-.87-.8-1.74-1.06-2.63-.18-.61-.33-1.24-.43-1.87-.12-.8.31-1.48,1.01-1.97.27-.19.4-.19.52.13.28.74.56,1.49.83,2.24.3.81.61,1.63.9,2.44.16.46.31.92.47,1.38.2.58.38,1.17.59,1.74.37,1.02.76,2.04,1.14,3.06.22.6.44,1.19.66,1.79.05.14.13.27.17.41.28.93.55,1.87.84,2.81.09.28.37.4.61.24.68-.45,1.45-.79,1.88-1.56.46-.81.77-1.66.7-2.6-.05-.67-.18-1.34-.32-2.01-.14-.66-.3-1.32-.52-1.97-.38-1.15-.82-2.27-1.21-3.42-.38-1.15-.78-2.29-1.07-3.47-.24-.96-.23-1.96-.08-2.94.11-.73.26-1.46.42-2.18ZM11.17,7.13c.12.04.23.07.35.11-.01.05-.03.09-.04.14-.12-.04-.23-.07-.34-.12,0,0,.02-.08.04-.13ZM9.42,3.47c-.1-.08-.19-.15-.29-.23.04-.05.09-.1.13-.15.09.08.18.16.27.25-.04.04-.07.08-.11.13ZM2.12,7.01s0-.06,0-.09c.16-.05.31-.16.47.09h-.46ZM3.71,10.66s-.05.12-.08.17c-.13-.09-.27-.18-.4-.26.27-.21.39-.07.48.09ZM3.55,1.97h-.57c.17-.15.35-.35.57,0ZM3.73,11.61c-.2-.07-.41-.14-.61-.2-.01-.03-.02-.07-.03-.1.1-.07.19-.15.3-.2.04-.02.11.04.16.07-.02.05-.05.1-.09.16.09.05.2.12.31.18-.01.03-.03.06-.04.09ZM5.6,11.93c.04-.13.06-.23.11-.31.07-.12.16-.23.26-.33.04-.05.11-.09.18-.1.02,0,.08.06.1.1.06.12.1.24.17.42-.21.06-.47.13-.81.23Z"/>
      <path class="cls-1" d="M23.54,12.38c.12-.57.21-1.14.38-1.69.18-.59.41-1.16.61-1.74.23-.69.73-.83,1.24-.49,0,0,.03.02.08.06-.03-.02-.05-.04-.08-.06-.03,0,.67.53.74-.14.08-.84.44-1.64.35-2.5-.05-.47-.03-.95-.11-1.41-.08-.44-.26-.87-.38-1.31-.15-.55-.54-.84-1.07-.92-.58-.09-1.16-.14-1.74-.17-.6-.04-1.07-.65-1.16-1.25-.03-.2-.13-.4-.23-.59-.11-.19-.32-.22-.47-.1-.16.13-.33.31-.4.51-.28.78-.38,1.79-.42,2.63-.06,1.01-.19,2.02.19,2.99.1.25.24.51.44.67.44.36.94.66,1.41.98.19.13.39.24.26.53-.27.56-.54,1.12-.8,1.68-.13.29-.26.58-.38.87-.2.47-.41.95-.61,1.42-.03,0-.07.01-.1.01-.06-.1-.14-.2-.18-.31-.2-.57-.38-1.15-.59-1.72-.44-1.19-1.03-2.38-1.47-3.57-.31-.85-.6-1.71-.89-2.57-.25-.74-.37-1.49-.61-2.23-.09-.26-.2-.52-.24-.78-.05-.36-.19-.62-.58-.79-.18.17-.39.35-.56.55-.35.42-.75.82-1.02,1.29-.61,1.09-.78,2.31-.74,3.52.02.72.22,1.44.42,2.14.23.85.56,1.67.8,2.51.24.83.68,1.59.83,2.46.08.48.31.94.46,1.42.03.09-.01.26-.08.31-.34.25-.72.45-1.07.69-.54.37-1.04.76-1.35,1.38-.41.83-.69,1.68-.79,2.6-.16,1.44-.1,2.86.31,4.26.11.37.25.74.34,1.11.18.71.37,1.41.5,2.13.12.61.22,1.23.25,1.85.03.78-.33,1.27-1.04,1.53-.31.11-.44.29-.42.62.03.4.03.81.05,1.21.01.24.38.57.49.44.22-.24.42-.28.67-.08.05.04.14.02.22.03.46.02.91.05,1.37.07.21,0,.44.03.63-.03.37-.12.73-.06,1.1-.02.27.02.54-.03.81-.09.1-.02.22-.14.27-.25.41-.98.56-2.02.35-3.06-.22-1.1-.52-2.18-.84-3.25-.3-1.02-.66-2.02-1-3.02-.29-.87-.61-1.74-.87-2.63-.18-.61-.33-1.24-.43-1.87-.12-.8.12-1.48.82-1.97.27-.19.4-.19.52.13.28.74.55,1.49.83,2.24.3.81.6,1.63.9,2.44.16.46.31.92.47,1.38.2.58.38,1.17.59,1.74.37,1.02.76,2.04,1.14,3.06.22.6.44,1.19.66,1.79.05.14.13.27.17.41.28.93.36,1.87.65,2.81.08.28.37.4.61.24.68-.45,1.64-.79,2.08-1.56.46-.81.77-1.66.7-2.6-.05-.67-.18-1.34-.32-2.01-.14-.66-.3-1.32-.52-1.97-.38-1.15-.82-2.27-1.21-3.42-.38-1.15-.78-2.29-1.07-3.47-.24-.96-.23-1.96-.08-2.94.11-.73.07-1.46.23-2.18ZM24.7,7.13c.12.04.23.07.35.11-.01.05-.03.09-.04.14-.12-.04-.23-.07-.34-.12,0,0,.02-.08.04-.13ZM22.95,3.47c-.1-.08-.19-.15-.29-.23.04-.05.09-.1.13-.15.09.08.18.16.26.25-.03.04-.07.08-.11.13ZM18.96,14.19c-.06.13-.13.25-.21.36-.04.05-.1.1-.16.12-.02,0-.09-.05-.11-.08-.07-.11-.13-.23-.23-.39.2-.09.45-.19.78-.33-.03.14-.03.24-.07.32ZM21.07,14.87s.04-.12.06-.18c.14.07.29.14.43.21-.24.24-.38.12-.49-.03ZM21.33,14.39s-.11-.03-.17-.04c.02-.05.04-.1.06-.17-.1-.04-.21-.09-.33-.14,0-.03.02-.06.03-.1.21.04.42.08.63.12.02.03.03.06.05.09-.09.08-.17.17-.27.24ZM22.39,23.47c.22-.03.39-.05.56-.08-.15.17-.3.39-.56.08ZM22.67,18.35c.15-.02.31-.04.46-.06,0,.03,0,.06.01.09-.15.07-.29.19-.48-.03Z"/>
      <path class="cls-1" d="M39.71,26.34c-.14-.66-.3-1.32-.52-1.97-.38-1.15-.82-2.27-1.21-3.42-.38-1.15-.78-2.29-1.07-3.47-.24-.96-.23-1.96-.08-2.94.11-.73.26-1.46.42-2.18.12-.57.27-1.14.44-1.69.18-.59.41-1.16.61-1.74.24-.73.53-.84,1.06-.43.27.21.63.09.65-.19.08-.84.44-1.64.35-2.5-.05-.47-.03-.95-.11-1.41-.08-.44-.26-.87-.38-1.31-.15-.55-.54-.84-1.07-.92-.58-.09-1.16-.14-1.74-.17-.6-.04-1.07-.46-1.16-1.05-.03-.2-.13-.4-.23-.59-.11-.19-.32-.22-.47-.1-.16.13-.33.31-.4.51-.28.78-.38,1.6-.42,2.43-.06,1.01-.19,2.02.19,2.99.09.25.24.51.44.67.45.36.94.66,1.41.98.19.13.39.24.26.53-.27.56-.54,1.12-.8,1.68-.13.29-.26.58-.38.87-.2.47-.41.95-.61,1.42-.03,0-.07.01-.1.01-.06-.1-.14-.2-.18-.31-.2-.57-.38-1.15-.59-1.72-.44-1.19-.9-2.38-1.34-3.57-.31-.85-.6-1.71-.89-2.57-.25-.74-.49-1.49-.74-2.23-.09-.26-.2-.52-.24-.78-.05-.36-.19-.62-.58-.79-.18.17-.39.35-.56.55-.35.42-.75.82-1.02,1.29-.61,1.09-.78,2.31-.74,3.52.02.72.22,1.44.41,2.14.23.85.56,1.67.8,2.51.24.83.68,1.59.83,2.46.08.48.31.94.46,1.42.03.09-.02.26-.08.31-.35.25-.72.45-1.07.69-.54.37-1.04.76-1.35,1.38-.41.83-.69,1.68-.79,2.6-.16,1.44-.1,2.86.31,4.26.11.37.24.74.34,1.11.18.71.37,1.41.5,2.13.12.61.22,1.23.25,1.85.03.78-.07,1.27-.78,1.53-.31.11-.7.29-.67.62.03.4.03.81.06,1.21.01.24.38.63.49.51.22-.24.42-.28.67-.08.05.04.14-.04.22-.03.45.02.91.05,1.37.07.21,0,.44.03.63-.03.37-.12.73-.06,1.09-.02.27.02.55-.03.81-.09.1-.02.22-.14.27-.25.41-.98.56-2.02.35-3.06-.22-1.1-.53-2.18-.84-3.25-.3-1.02-.66-2.02-1-3.02-.29-.87-.61-1.74-.87-2.63-.18-.61-.33-1.24-.43-1.87-.12-.8.12-1.48.82-1.97.27-.19.4-.19.52.13.28.74.55,1.49.83,2.24.3.81.61,1.63.9,2.44.16.46.31.92.47,1.38.19.58.38,1.17.59,1.74.37,1.02.76,2.04,1.14,3.06.22.6.44,1.19.66,1.79.05.14.13.27.17.41.28.93.55,1.87.84,2.81.08.28.37.53.61.37.68-.45,1.58-.79,2.01-1.56.46-.81.65-1.79.57-2.73-.05-.67-.18-1.34-.32-2.01ZM38.22,7.13c.12.04.23.07.35.11-.02.05-.03.09-.04.14-.11-.04-.23-.07-.34-.12,0,0,.02-.08.04-.13ZM38.37,8.33h-.57c.17-.15.34-.34.57,0ZM37.51,9.19c.09.08.18.17.27.25-.04.04-.07.08-.11.13-.1-.08-.19-.15-.29-.23.04-.05.09-.1.13-.15ZM29.17,7.01s0-.06,0-.09c.16-.05.31-.16.47.09h-.47ZM31.07,10.53c-.13-.09-.27-.18-.4-.26.27-.21.39-.07.48.09.02.03-.05.12-.08.17ZM36.5,27.28c-.2-.07-.41-.13-.61-.2-.01-.03-.02-.07-.03-.1.1-.07.19-.15.3-.2.04-.02.11.04.16.07-.03.05-.05.1-.08.16.09.05.2.12.31.19-.01.03-.03.06-.04.09ZM37.98,27.9c.04-.13.45-.53.5-.61.07-.12-.23.07-.14-.03.04-.05.11-.09.18-.1.02,0,.08.06.1.1.06.12.1.24.17.42-.21.06-.47.13-.81.23Z"/>
    </g>
  </g>
</svg>