<?xml version="1.0" encoding="UTF-8"?>
<svg id="Layer_2" xmlns="http://www.w3.org/2000/svg" viewBox="0 0 34.52 41.49">
  <defs>
    <style>
      .cls-1 {
        fill: #2c489e;
      }
    </style>
  </defs>
  <g id="Layer_1-2" data-name="Layer_1">
    <g>
      <path class="cls-1" d="M.21,36.37c0,.1,0,.21,0,.31.02,1.37.05,2.74.06,4.11,0,.51.09.67.55.7.58.04.78-.11.8-.62l.05-4.61c0-.19-.1-.47-.25-.56-.56-.36-1.2.02-1.21.68Z"/>
      <path class="cls-1" d="M25.16,33.38c.6-.01.8-.35.54-.9-.08-.16-.18-.32-.29-.45-.23-.27-.68-.72-.88-1-.1-.14-.17-.16-.11-.3.04-.11.88-.06.97-.06.33-.02.39-.33.41-.45.06-.42.03-.84.02-1.27,0-.07-.09-.25-.33-.25-.36,0-.56-.06-.9.03-.13.03-.39.13-.39.55,0,.11.02.9-.1.93-.15.04-.33.02-.65-.34-.05-.06-.71-.67-.76-.73-.4-.44-.47-.48-.89-.49-.16,0-.52-.01-.73,0-.4,0-.56.2-.57.58-.01.36.07.56.37.59.02,0,.28,0,.3,0,.34.02.38-.04.63.19.38.34,1.1,1.26,1.41,1.67.11.15.27.33.24.45-.02.1-.08.08-.28.1-.42.04-1.54.01-1.97.02-.53,0-.58.14-.59.55,0,.43.06.59.6.6.63,0,1.38,0,2.01,0s1.29.01,1.94,0Z"/>
      <path class="cls-1" d="M.72,22.29c.71.56,1.33,1.15,2.07,1.67,3,2.12,5.38,3.48,8.45,3.65,2.15.12,3.87-.26,5.71-.81,1.33-.4,2.59-.98,3.75-1.74,1.45-.95,2.88-1.93,4.34-2.86.85-.54,1.71-1.09,2.63-1.47.76-.31,1.54-.52,1.57-.53.19-.04,1.35-.04,1.54.01.99.26,1.7.89,2.24,1.74.39.61.77,1.22,1.16,1.83.04.07.11.12.25.29.03-.32.06-.53.06-.73.01-2.81.02-5.61.02-8.42,0-.23-.04-.47-.14-.67-.5-1.04-1.34-1.67-2.45-1.95-.94-.24-1.86.02-2.75.23-1.63.4-3.08,1.26-4.5,2.13-1.15.7-2.27,1.45-3.4,2.17-1.96,1.26-4.08,2.19-6.35,2.69-.99.22-2.76,1.05-6.57-.05-.75-.22-1.47-.56-2.19-.89-1.38-.64-2.6-1.54-3.75-2.52-.68-.58-1.24-1.16-1.91-1.74-.08-.07-.23-.13-.3-.1-.07.03-.1.19-.13.29-.02.07,0,.15,0,.23.06,2.16.12,4.31.16,6.47,0,.45.14.8.49,1.08Z"/>
      <path class="cls-1" d="M2.3,7.59c.21.18.27.32.49.47.56.38,1.1.82,1.71,1.12.73.36,1.49.65,2.27.88.89.25,1.8.48,2.71.56,1.06.1,2.15.08,3.22,0,1.27-.09,2.53-.32,3.73-.8,1.8-.73,3.39-1.82,5-2.86,2.47-1.6,4.98-3.11,7.93-3.65.92-.17,1.8-.03,2.63.39.91.47,1.47,1.28,2.01,2.11.09.13.19.25.29.38.04-.01.08-.02.12-.03.02-.15.07-.29.07-.44,0-1.49.02-3.25.01-4.74,0-.53-.31-.9-.84-.92-.83-.03-1.79-.05-2.48-.04-1.06,0-4.66.19-9.03.2-7.09,0-14.1.36-21.19.32-.07,0-.14,0-.21,0-.59,0-.72.12-.72.69C.01,2.37-.01,3.87,0,5.03c0,.25.08.58.24.74.66.63,1.36,1.22,2.05,1.81Z"/>
      <path class="cls-1" d="M19.88,12.87c.14-.29.04-.45-.27-.48-.18-.02-.97-.04-1.15-.03-.56.03-.54.12-.9-.58-.06-.12-.31-.61-.37-.72-.17-.35-.34-.37-.55-.04-.19.3-.36.62-.55.93-.22.36-.16.5-.58.48-.18,0-.75,0-.93,0-.18.02-.41-.06-.54.12-.05.13.05.38.15.53.16.25.36.51.46.67.23.37.3.39.13.74-.1.2-.35.58-.63.94-.03.04-.06.09-.08.13-.14.3-.06.48.27.52.31.03.85.02,1.16.02.34,0,.38.12.57.39.13.19.24.4.37.59.15.21.35.67.5.61.19-.02.4-.36.49-.6.36-.94.41-.91,1.19-.9.17,0,.71-.01.88,0,.43.02.53-.12.33-.5-.16-.31-.43-.78-.61-1.08-.24-.39-.14-.57.15-.94.2-.25.36-.54.5-.83Z"/>
      <path class="cls-1" d="M30.91,32.74c0-.54-.02-1.66-.02-2.2,0-.76.16-.81,1.47-.76.43.02.66-.09.7.35.02.3,0,1.37,0,1.67,0,.44-.04.41-.73.44-.38.02-.47.32-.46.65.01.34.23.48.54.49.52.01,1.03.02,1.55,0,.42,0,.56-.16.56-.57,0-1.19,0-2.38,0-3.57,0-.5-.12-.62-.62-.62-.72,0-1.45,0-2.17,0h0c-.77,0-1.55,0-2.33.01-.51.01-.74.35-.6.84.04.13.1.29.21.36.18.12.39-.06.39.34,0,.61,0,1.93,0,2.54,0,.53.13.66.7.68.63.02.81-.11.82-.65Z"/>
      <path class="cls-1" d="M28.52,35.79c-.7,0-3.49.05-4.19.05-.6,0-.7.11-.69.7,0,1.14.01,2.27,0,3.41,0,.47.09.61.6.64.61.03.77-.08.77-.58,0-.72,0-1.79-.02-2.51-.01-.57-.14-.48.43-.5.36-.02,1.06-.01,1.43,0,.69.01.93-.1.94.6,0,.7-.01,1.74,0,2.43,0,.42.16.55.61.56.52.01.72-.11.73-.53.03-1.23.05-2.45.05-3.68,0-.46-.18-.59-.63-.59Z"/>
      <path class="cls-1" d="M19.81,35.84c-.72,0-1.79.01-2.51,0-.8,0-.74.08-.74-.83,0-.38-.34-.49-.86-.45-.36.03-.54.21-.55.57,0,.37,0,.75,0,1.12,0,.61.1.73.71.73.72,0,1.79,0,2.51,0,.64,0,.52.22.55.86.01.3.02.59,0,.89-.02.47-.22.68-.69.72-.3.02-.59,0-.89.01-.46.01-.64.18-.65.59,0,.38.15.52.64.53.84.02,1,.04,1.84.04s1.2-.59,1.23-1.89c.01-.61,0-.49,0-.5,0,0,.02-1.16.03-1.74,0-.5-.12-.65-.63-.65Z"/>
      <path class="cls-1" d="M12.25,35.78c-.78,0-2.07-.01-2.85-.02-.2,0-.3-.01-.29-.72,0-.47-.18-.57-.61-.55-.7.03-.88.15-.89.65,0,.32.02.65,0,.97-.02.67.08.77.74.77.74,0,1.47,0,2.21.03.68.02.9.26.92.93,0,.25.01.49,0,.74-.01.61-.26.87-.88.88-.3,0-.59-.04-.89-.03-.35.01-.44.26-.45.56,0,.29.03.59.39.6.89.02.76-.02,1.65,0,.66.01,1.56-.19,1.59-1.83.02-.89.08-1.64.09-2.21,0-.63-.11-.74-.74-.75Z"/>
      <path class="cls-1" d="M34.5,36.26c0-.43-.15-.54-.58-.52-.26.02-.51.02-.77.02-.9,0-1.81-.02-2.71,0-.47,0-.67.22-.66.62.01.41.22.58.7.58.59,0,1.53,0,2.12-.02.53,0,.42.06.44.59.01.27,0,1.02,0,1.3,0,.72.13.57-.59.57-.62,0-1.58.03-2.2.06-.33.01-.49.19-.5.52-.01.41.17.59.63.6,1.18,0,2.35,0,3.53,0,.47,0,.6-.14.61-.6,0-.62,0-3.1-.01-3.72Z"/>
      <path class="cls-1" d="M7.47,39.3c-.22-.02-.18-.02-.18-.02-.27-.03-.34-.04-.33-.52.01-.57-.07-1.66-.1-2.48-.02-.41-.12-.57-.54-.59-.48-.02-.96-.01-1.43-.02-.58,0-1.16-.02-1.74-.02-.41,0-.61.2-.62.58,0,.36.17.53.59.55.25.01,1.63.03,1.94.04.51,0,.66,0,.52,1.79,0,.1.05.55.02.65-.06.17-.42.15-.74.17-.55.02-1.11.04-1.66.03-.49-.01-.67.14-.63.62.03.39.19.52.66.52,1.34-.01,2.68-.03,4.02-.04.32,0,.48-.16.51-.46.04-.33-.05-.76-.28-.79Z"/>
      <path class="cls-1" d="M17.69,29.77c.49,0,.5.28.5.44,0,.69,0,1.84,0,2.52,0,.53.15.65.73.66.64,0,.79-.11.8-.66l-.04-3.41c-.01-.61-.13-.69-.76-.7-1.07-.01-2.14-.03-3.22-.06-.5-.02-.68.1-.71.53-.03.47.14.66.63.67.56.01,1.5.01,2.06.01Z"/>
      <path class="cls-1" d="M21.92,35.84c-.48.02-.63.14-.64.58-.01.6-.03,3.04-.02,3.63,0,.34.17.53.52.54.14,0,.28,0,.43,0,.38,0,.59-.19.59-.56,0-1.22,0-2.45-.02-3.67,0-.44-.22-.54-.85-.52Z"/>
      <path class="cls-1" d="M27.33,28.61c-.4.02-.54.15-.56.53-.05,1.2-.11,2.4-.16,3.6-.02.5.13.64.68.65.57.01.74-.12.74-.63l-.04-3.64c-.01-.39-.21-.52-.67-.5Z"/>
    </g>
  </g>
</svg>