<?xml version="1.0" encoding="UTF-8"?>
<svg id="Layer_2" xmlns="http://www.w3.org/2000/svg" viewBox="0 0 54.36 12.15">
  <defs>
    <style>
      .cls-1 {
        fill: #2c489e;
      }
    </style>
  </defs>
  <g id="Layer_1-2" data-name="Layer_1">
    <g>
      <path class="cls-1" d="M54.36,11.92c-.01-.19-.04-.38-.05-.57-.04-1.55-.09-3.11-.11-4.66-.02-2.03,0-4.05,0-6.08,0-.2,0-.39,0-.61-.12.03-.19.04-.25.06-.71.24-1.4.53-2.12.72-1.11.29-2.23.52-3.36.74-1.11.21-2.22.4-3.34.54-1.53.2-3.07.37-4.61.52-.93.09-1.87.14-2.8.19-1.72.1-3.45.21-5.17.28-1.53.07-3.05.13-4.58.13-1.63,0-3.26-.08-4.9-.15-1.37-.05-2.74-.13-4.11-.21-1.47-.08-2.94-.12-4.4-.25-1.88-.16-3.77-.35-5.64-.59-1.36-.17-2.72-.4-4.07-.67-1.13-.23-2.25-.54-3.37-.83-.46-.12-.91-.25-1.46-.39.04,4.01.07,7.94.11,11.9.08,0,.12,0,.15,0,1.52-.34,3.04-.68,4.56-1.04,1.55-.36,3.12-.53,4.7-.7,1.1-.12,2.2-.23,3.31-.33,1.38-.12,2.76-.25,4.14-.35,1.13-.08,2.27-.14,3.4-.19,1.55-.08,3.11-.18,4.66-.2,2.21-.03,4.43,0,6.64.02.81,0,1.62,0,2.44.05,1.58.08,3.16.18,4.74.29,1.34.1,2.69.21,4.03.34.59.06,1.17.14,1.76.22,1.07.15,2.14.29,3.2.46.81.13,1.61.34,2.42.48,1.31.23,2.57.62,3.83,1.05.19.07.27.01.26-.2ZM52.61,10.93c-1.4-.31-2.8-.63-4.2-.9-2.3-.45-4.64-.64-6.97-.84-1.37-.12-2.74-.18-4.12-.27-1.27-.08-2.53-.22-3.8-.24-2.58-.05-5.16-.08-7.74-.04-2.63.05-5.25.17-7.87.31-1.92.1-3.83.27-5.74.45-1.83.17-3.65.35-5.47.63-1.63.25-3.24.64-4.86.97-.39.08-.78.19-1.26.31-.05-3.53-.1-7-.16-10.51.12.02.21.03.29.05,1.09.27,2.17.57,3.26.81.7.16,1.41.24,2.12.36.85.14,1.69.3,2.54.42.8.11,1.61.2,2.42.28,1.32.13,2.64.26,3.97.34,2.3.14,4.6.23,6.9.35,1.03.06,2.06.16,3.09.21.96.04,1.91.05,2.87.03,1.92-.03,3.84-.07,5.75-.15,1.56-.06,3.11-.14,4.66-.25,1.98-.15,3.96-.31,5.94-.52.97-.1,1.92-.31,2.88-.47,1.09-.19,2.19-.35,3.27-.58,1.08-.24,2.14-.55,3.27-.85.04,3.43.09,6.92.13,10.43-.4-.12-.77-.25-1.16-.34Z"/>
      <path class="cls-1" d="M50.71,2.5c-1.03.1-2.06.27-3.09.41-1.26.16-2.52.32-3.78.48-.15.02-.22.07-.21.25.03.45.04.9.07,1.35.01.21.1.3.32.28.23-.03.47-.04.76-.06-.06.13-.08.19-.11.25-.34.49-.38,1.03-.3,1.61.1.76.34.99,1.07.98,2-.02,3.99-.04,5.98-.07.2,0,.43,0,.58-.1.68-.44,1.16-1.06,1.25-1.91.05-.49.03-1-.02-1.49-.15-1.47-1.2-2.09-2.53-1.97ZM51,5.92c-.2.09-.41.17-.63.18-.91.06-1.81.09-2.77.13-.16,0-.37,0-.58,0-.36-.02-.57-.24-.58-.6,0-.28.25-.55.55-.58.7-.07,1.41-.13,2.11-.19.53-.05,1.06-.09,1.6-.12.27-.02.59.22.65.44.06.25-.1.63-.36.75Z"/>
      <path class="cls-1" d="M8.35,3.31c-.88-.32-1.83-.47-2.76-.63-1.24-.21-2.5-.35-3.7-.79-.08-.03-.17-.04-.2-.05-.1.43-.19.81-.28,1.2-.08.38-.19.76-.22,1.14-.06.82.27,1.3,1.05,1.39,1.08.13,2.17.18,3.25.26.47.03.51,0,.7-.51-.05,0-.09-.02-.13-.03-.54-.03-1.09-.04-1.63-.11-.33-.04-.66-.17-.98-.27-.06-.02-.13-.14-.13-.2,0-.06.1-.14.17-.16.12-.04.26-.08.39-.07,1.12.14,2.23.29,3.34.45.25.04.51.09.75.19.21.09.36.28.32.55-.04.25-.15.47-.42.5-.32.03-.64.06-.97.06-1.85-.03-3.7-.08-5.56-.13-.22,0-.29.06-.28.28.01.46,0,.92,0,1.45.82.02,1.61.05,2.4.07,1.5.04,3,.05,4.5.11.61.02,1.08-.22,1.35-.76.21-.41.34-.89.43-1.35.27-1.4-.31-2.2-1.39-2.59Z"/>
      <path class="cls-1" d="M33.3,4.2c-.77-.06-1.54.06-2.31.09-.62.02-1.23.08-1.7.65-.03-.31-.11-.56-.41-.57-.45-.02-.89,0-1.34,0,0,.11-.02.12-.02.14,0,.27-.02.54-.03.81q-.02.52.47.56s.05.03.02.01c-.02.66-.05,1.29-.06,1.92,0,.08.09.22.15.22.41.02.81,0,1.21,0,.03-.51.05-.94.09-1.36.05-.58.29-.82.84-.87.63-.05,1.26-.08,1.89-.1.17,0,.34,0,.51.04.31.06.4.28.21.53-.1.12-.28.2-.43.24-.15.04-.32.02-.49.02-.63,0-1.26,0-1.91,0,0,.44,0,.81,0,1.18,0,.21.06.28.26.28.91-.01,1.82-.03,2.72,0,.7.02,1.53-.65,1.57-1.45.01-.28.05-.56.06-.84.02-.85-.47-1.43-1.3-1.49Z"/>
      <path class="cls-1" d="M25.77,4.41c-1.39-.05-2.78-.11-4.18-.17-.35-.01-.7,0-1.06,0-.02.52-.05,1-.07,1.52h.75c-.1.41-.25.78-.27,1.15-.03.73.35,1.08,1.03,1.07,1.21,0,2.42,0,3.64,0,.8,0,1.54-.79,1.51-1.63,0-.3-.05-.6-.11-.89-.13-.62-.63-1.02-1.24-1.05ZM25.22,6.59c-.39.03-.78.01-1.17.01,0,0,0,.01,0,.02-.3,0-.61,0-.91,0-.26,0-.46-.19-.46-.42,0-.24.16-.36.46-.36.6,0,1.2,0,1.8.02.11,0,.25,0,.33.07.11.1.24.25.24.38,0,.09-.18.27-.29.28Z"/>
      <path class="cls-1" d="M18.27,4.03c-1.21,0-2.42-.13-3.63-.19-.49-.02-.99,0-1.53,0v1.65c.1,0,.21.02.33.03,1.48.06,2.96.12,4.44.18.21,0,.44.02.45.33,0,.22-.18.38-.46.39-.07,0-.13,0-.2,0-.67,0-1.34,0-2.01-.01-.13,0-.25,0-.25.19,0,.45,0,.9,0,1.38.12,0,.19.02.27.02.96,0,1.91,0,2.87-.02.72,0,1.29-.48,1.43-1.22.05-.23.05-.48.07-.72.09-1-.84-2.01-1.79-2.01Z"/>
      <path class="cls-1" d="M39.18,4.33c-.74-.58-1.58-.46-2.42-.41,0,.42.02.81,0,1.2-.02.33.11.41.4.4.26-.01.54,0,.79.07.13.04.26.23.3.37.06.21-.1.33-.28.38-.1.03-.2.05-.31.06-.63.03-1.26.04-1.89.06-.18,0-.36,0-.57,0,0,.43.01.81,0,1.19-.01.25.07.33.31.33.95-.02,1.91-.02,2.86-.04.53,0,1.16-.44,1.28-.97.12-.49.17-1.01.15-1.51-.02-.45-.25-.85-.62-1.14Z"/>
      <path class="cls-1" d="M11.96,3.71c-.4-.25-.83-.36-1.29-.26-.08.02-.18.14-.19.22-.04.42-.04.84-.08,1.26-.03.29.03.44.34.4.12-.01.29-.04.31.16.03.29.09.59.05.86-.1.53-.26,1.05-.41,1.63.31,0,.67-.01,1.02,0,.21.01.33-.06.4-.28.32-.96.48-1.94.33-2.95-.06-.4-.1-.81-.47-1.05Z"/>
      <path class="cls-1" d="M42.23,3.66c-.6-.17-1.2-.04-1.79,0-.06,0-.16.13-.17.21-.02.45,0,.9,0,1.35,0,.16.06.21.21.2.18-.01.36-.02.54,0,.28.02.42.24.33.52-.04.11-.09.21-.15.35.51,0,.98,0,1.45,0,.06,0,.14-.1.17-.17.11-.3.23-.6.31-.9.18-.68-.24-1.36-.89-1.54Z"/>
      <path class="cls-1" d="M13.51,6.48c-.05.02-.1.14-.1.21,0,.73,0,1.46,0,2.24.42-.17.79-.31,1.15-.47.06-.03.13-.11.13-.17,0-.72,0-1.43,0-2.19-.4.12-.79.23-1.18.37Z"/>
      <path class="cls-1" d="M31.75,8.28c-.18-.01-.36,0-.54,0h0c-.16,0-.32-.01-.48,0-.06,0-.11.07-.16.11.05.04.09.1.14.1.35,0,.7,0,1.06,0,.04,0,.08-.06.12-.09-.04-.04-.08-.12-.12-.12Z"/>
      <path class="cls-1" d="M7.31,5.57c-.12-.11-.22-.21-.33-.32-.11.11-.2.2-.32.32.12.12.22.21.33.33.11-.11.21-.21.32-.32Z"/>
      <path class="cls-1" d="M9.73,3.27c.09.09.16.16.24.24.12-.11.21-.19.32-.29-.1-.09-.16-.16-.26-.25-.11.11-.2.2-.31.3Z"/>
    </g>
  </g>
</svg>