<?xml version="1.0" encoding="UTF-8"?>
<svg id="Layer_2" xmlns="http://www.w3.org/2000/svg" viewBox="0 0 47.46 23.34">
  <defs>
    <style>
      .cls-1 {
        fill: #2c489e;
      }
    </style>
  </defs>
  <g id="Layer_1-2" data-name="Layer_1">
    <g>
      <path class="cls-1" d="M47.37,2.18c-.05-.15-.09-.32-.07-.47.08-.54-.2-.9-.54-1.25-.46-.48-1.07-.51-1.64-.42-.55.09-1.08.34-1.62.52-.23.07-.46.13-.69.19-.3.08-.67.06-.88.24-.39.34-.7.77-.99,1.19-.23.34-.36.76-.76.98-.14.08-.26.06-.31-.06-.1-.23-.17-.48-.22-.72-.06-.25.13-.61-.15-.74-.36-.17-.75-.27-1.19-.14-.78.23-1.58.42-2.38.58-.36.07-.84.52-.87.87-.04.53-.07,1.06-.2,1.57-.1.36.06.66.04.99,0,.05.11.14.17.15.3.02.61.03.92.02.23-.01.62.15.61.34-.02.37-.08.73-.15,1.09-.07.37-.07.6-.15.96-.01.06-.05.28.02.39-.03.2.1.47-.03.81-.04.09-.09.22-.09.33-.01.5,0,1.01-.03,1.51-.04.59.38,1,.96.88.19-.04.4-.03.58-.08.34-.11.69-.22,1-.38.12-.06.2-.27.24-.42.06-.25.06-.52.1-.77.03-.2.14-.4.11-.58-.04-.25.03-.42.18-.6.02-.02,0-.07,0-.11,0-.19,0-.38,0-.57,0-.16.03-.31.06-.46.03-.23.07-.46.11-.68.01-.08.05-.16.06-.24.05-.52.07-1.04.15-1.55.08-.53.34-.76.87-.84.52-.07,1.05-.14,1.54-.34.3-.13.61-.22.92-.32.43-.14.87-.23,1.25.12.08.07.14.22.13.32-.01.33-.12.66-.09.98.05.5-.05.97-.12,1.45-.05.31-.22.44-.5.48-.49.06-.98.11-1.47.2-.22.04-.53.12-.63.28-.26.44-.72.81-.64,1.41,0,.02-.01.04-.01.05-.1.47-.21.93-.3,1.41,0,.05.07.17.11.17.53.03,1.06.05,1.57-.15.2-.08.44-.09.66-.14.19-.04.38-.08.55-.16.19-.09.36-.17.58-.09.13.04.29,0,.43-.04.17-.04.32-.15.49-.18.27-.04.54-.04.81-.06.79-.07,1.32-.77,1.2-1.54-.02-.13-.01-.26,0-.39.04-.55.08-1.1.13-1.65.02-.2,0-.4.06-.59.03-.12,0-.4.07-.72.05-.25.07-.51.08-.76.01-.32-.03-.64.02-.95.07-.44.11-.87-.03-1.3Z"/>
      <path class="cls-1" d="M33.9,3.36s0-.07,0-.11c.03-.26-.21-.56-.46-.53-.35.04-.69.14-1.03.21-.14.03-.28.07-.41.07-.7-.03-1.3.66-1.21,1.36.05.36.05.74.03,1.11-.02.41-.1.81-.16,1.22-.03.22-.24.34-.44.2-.26-.18-.61-.27-.67-.66,0-.05-.08-.1-.13-.14-.2-.16-.42-.29-.59-.47-.38-.39-.72-.8-1.09-1.19-.28-.29-.62-.31-.98-.16-.1.04-.22.05-.33.06-.39.03-.78.04-1.17.1-.21.03-.49.11-.6.26-.16.21-.22.5-.27.77-.03.21.08.46.03.66-.13.48-.13.94-.05,1.41.07.43.21.55.62.38.44-.18.89-.07,1.33-.07.06,0,.12.08.17.13.28.25.55.5.83.74.33.29.66.58.99.86.08.07.15.15.25.17.34.08.51.33.64.62.1.23,0,.43-.18.5-.31.12-.64.19-.98.23-.35.04-.71-.12-1.06.09-.1.06-.26.02-.39.02-.11,0-.23-.02-.33,0-.37.09-.74.2-1.1.3,0,0,0,0,0-.01-.04.01-.07.02-.11.03-.84.13-1.06.61-1.07,1.27,0,.29.03.62-.08.87-.12.26.05.46,0,.7-.02.08.1.24.19.27.37.15.75.22,1.14.04.12-.06.27-.07.4-.1.44-.11.89-.21,1.33-.32.09-.02.18-.07.27-.06.41.04.75-.16,1.08-.33.25-.14.5-.17.78-.17.19,0,.38-.06.56-.12.22-.08.42-.18.69-.16.34.02.75-.01,1.02-.19.24-.16.44-.08.66-.13.35-.08.8-.17,1-.42.32-.42.39-.99.37-1.52-.02-.52-.16-1.01-.5-1.42-.17-.2-.41-.35-.6-.54-.18-.17-.34-.36-.51-.55-.13-.14-.37-.56-.23-.7.1-.1.47-.2.81-.14.7.13,1.1-.31,1.27-.99.14-.58.3-1.16.18-1.77-.01-.05.03-.11.03-.16,0-.5.26-.99.04-1.49Z"/>
      <path class="cls-1" d="M10.34,8.01c-.24-.25-.68-.3-1-.13-.15.08-.33.13-.49.17-.22.05-.45.1-.68.1-.7.02-1.36.17-2,.43-.21.08-.42.16-.63.21-.32.07-.53.33-.52.66,0,.26,0,.52,0,.78-.02.45-.04.9-.06,1.35,0,.15-.02.3,0,.44.01.09.08.23.12.23.45-.03.91-.08,1.36-.14.3-.04.61.05.67.34.04.19.12.37.16.56.03.14.07.29.05.43-.07.75-.16,1.49-.25,2.24-.1.9-.21,1.8-.31,2.7-.02.17-.03.35-.03.53,0,.62.12,1.27-.01,1.87-.15.72-.13,1.4-.08,2.11.02.29.17.43.44.44.31.01.63-.01.89-.02.41-.12.77-.2,1.11-.34.15-.06.32-.19.39-.34.25-.52.12-1.1.16-1.65.01-.2-.05-.43.02-.6.21-.51.13-1.04.22-1.56.08-.49.11-1,.15-1.5.03-.44.04-.89.05-1.33,0-.29-.02-.59,0-.88.03-.34.21-.66.09-1.01-.02-.06,0-.13,0-.19.02-.27.04-.55.06-.83.02-.32-.03-.65.06-.94.15-.45.03-.9.1-1.34.07-.5.03-1.02.15-1.51.1-.41-.01-.76-.1-1.14-.01-.05-.05-.1-.09-.14Z"/>
      <path class="cls-1" d="M21.95,5.01c-.58.18-1.15.41-1.74.59-.23.07-.49.04-.73.1-.34.08-.7.01-1.02.22-.28.18-.32.48-.38.75-.09.4-.16.8-.18,1.21-.02.33.05.67.05,1.01,0,.22.1.35.33.33.09,0,.18,0,.26.01.16.02.32.09.48.08.61-.05.99.41.82.99-.06.2-.07.4-.1.61-.05.31-.1.62-.14.93-.01.09,0,.19.03.27.09.18.07.3-.07.44-.27.27-.29.64-.1.98.04.07.06.18.03.25-.18.45-.23.9-.11,1.39.08.1.14.24.24.28.31.14.66.13.95-.03.23-.13.42-.11.66-.09.22.02.48.01.68-.08.35-.16.68-1,.64-1.39-.03-.27-.03-.56,0-.83.02-.41.04-.83.12-1.24.09-.49.08-.96-.03-1.44,0-.04,0-.1.02-.13.36-.49-.06-1.11.28-1.59,0-.01,0-.04,0-.06-.11-.3-.02-.59.04-.88.06-.29.13-.58.13-.87,0-.35-.06-.7-.1-1.06-.04-.43-.63-.88-1.03-.75Z"/>
      <path class="cls-1" d="M2.82,4.74c-.07.02-.15,0-.22.02-.27.06-.55.09-.81.18-.2.08-.39.21-.56.35-.11.08-.23.2-.25.32-.09.57-.14,1.15-.21,1.72-.04.33-.12.65-.16.98-.02.15.04.31,0,.44-.12.46-.14.91-.09,1.38.02.13,0,.26-.04.39-.04.19-.18.4-.15.58.08.4.16.79.12,1.21-.05.43-.08.85-.11,1.28-.01.22-.02.44,0,.66.02.19.16.27.36.33.46.13.88-.04,1.32-.09.89-.18.83-.23,1.08-1.08.14-.47.15-.97.22-1.46.05-.43.1-.87.14-1.3,0-.05-.03-.11-.04-.16-.01-.08-.02-.16-.01-.24.03-.38.12-.76.09-1.13-.06-.73.09-1.44.16-2.15.05-.54.07-1.09.03-1.64-.03-.45-.42-.68-.87-.58Z"/>
      <path class="cls-1" d="M16.36,6.6c-.47-.06-.94-.14-1.42,0-.39.12-.8.15-1.2.25-.34.08-.67.19-1,.3-.15.05-.29.14-.43.18-.34.1-.59.39-.52.73.07.34-.05.63-.13.93-.13.51-.19,1,0,1.51.08.19.18.27.37.27.22,0,.45,0,.67,0,.41-.02.55.08.58.5.02.41.03.83-.03,1.23-.11.68.21.7.69.74.22.02.46-.05.69-.11.36-.09.72-.2,1.08-.29,0,0,0,0,0,0,.09-.03.18-.05.27-.08.51-.22.76-.83.57-1.44-.15-.48-.13-.95,0-1.42.05-.2.1-.4.13-.6.08-.61.15-1.21.23-1.82.04-.32-.23-.83-.53-.86Z"/>
      <path class="cls-1" d="M2.26,16.02c-.3-.12-.63-.21-.94-.19-.27.02-.52.22-.78.34-.05.02-.08.08-.11.12-.33.48-.58.98-.3,1.58.04.09.05.2.08.36.05.42.27.81.67,1.05.73.44,1.92-.33,1.93-1.03,0-.37.07-.75.02-1.11-.05-.43-.07-.93-.57-1.13Z"/>
    </g>
  </g>
</svg>