<svg version="1.1" id="Layer_1" xmlns="http://www.w3.org/2000/svg" xmlns:xlink="http://www.w3.org/1999/xlink" x="0px" y="0px"
	 width="100%" viewBox="0 0 247 175" enable-background="new 0 0 247 175" xml:space="preserve">
<path fill="#FDFDFD" opacity="1.000000" stroke="none" 
	d="
M155.000000,176.000000 
	C103.333336,176.000000 52.166672,176.000000 1.000007,176.000000 
	C1.000005,117.666672 1.000005,59.333347 1.000002,1.000015 
	C83.333321,1.000010 165.666641,1.000010 247.999969,1.000005 
	C247.999985,59.333317 247.999985,117.666634 248.000000,175.999969 
	C217.166672,176.000000 186.333328,176.000000 155.000000,176.000000 
M113.177391,76.362938 
	C113.968895,78.848778 114.760391,81.334618 115.547562,83.806877 
	C119.753601,83.806877 123.684891,83.806877 127.665512,83.806877 
	C127.665512,61.097298 127.665512,38.588650 127.665512,16.254675 
	C124.051071,16.254675 120.779526,16.254675 117.057587,16.254675 
	C117.057587,28.473639 117.057587,40.440788 117.057587,52.407932 
	C112.926918,41.450554 109.662010,30.382734 106.217499,19.371096 
	C105.816086,18.087852 104.493576,16.234575 103.475006,16.151308 
	C99.099533,15.793620 94.678055,15.998633 90.360046,15.998633 
	C90.360046,39.027683 90.360046,61.279228 90.360046,83.757759 
	C93.945679,83.757759 97.326424,83.757759 101.114471,83.757759 
	C101.114471,68.384224 101.114471,53.253754 101.114471,38.123287 
	C101.339287,38.099297 101.564095,38.075306 101.788910,38.051315 
	C105.518715,50.559635 109.248512,63.067955 113.177391,76.362938 
M28.827854,63.426819 
	C28.765739,65.420349 28.810829,67.424271 28.618914,69.405228 
	C28.234114,73.377167 26.033016,75.333824 21.966324,75.161308 
	C18.041815,74.994820 16.149061,72.691803 16.114458,69.086662 
	C15.993027,56.435097 15.999937,43.781097 16.106335,31.129269 
	C16.138693,27.281357 18.102581,24.913328 22.265949,24.835976 
	C26.447758,24.758280 28.348408,27.083157 28.626053,30.925810 
	C28.812586,33.507458 28.661562,36.113503 28.661562,38.640900 
	C32.864670,38.640900 36.408142,38.640900 40.002125,38.640900 
	C40.002125,35.615055 40.066307,32.949722 39.990032,30.288412 
	C39.765301,22.447199 35.497440,16.818970 27.828934,15.430314 
	C15.754113,13.243740 3.133669,16.533094 3.898387,34.043350 
	C4.413682,45.842407 3.912371,57.682972 4.025807,69.503433 
	C4.107491,78.015068 9.055448,83.527496 17.433760,84.840637 
	C29.292007,86.699188 38.533531,82.119759 39.567638,72.673141 
	C40.514366,64.024712 39.768536,55.191002 39.768536,46.475994 
	C33.986473,46.475994 28.587240,46.475994 23.187513,46.475994 
	C23.187513,49.745258 23.187513,52.696323 23.187513,55.868061 
	C25.090763,55.970161 26.820656,56.062962 28.827854,56.170639 
	C28.827854,58.551495 28.827854,60.522976 28.827854,63.426819 
M54.569504,15.825916 
	C52.805523,15.825916 51.041546,15.825916 49.315338,15.825916 
	C49.315338,38.933720 49.315338,61.496475 49.315338,83.905655 
	C60.241722,83.905655 70.846283,83.905655 81.509048,83.905655 
	C81.509048,80.576736 81.509048,77.526741 81.509048,74.119377 
	C74.589478,74.119377 67.993736,74.119377 61.282166,74.119377 
	C61.282166,67.518936 61.282166,61.288582 61.282166,54.785286 
	C66.673401,54.785286 71.792320,54.785286 77.210487,54.785286 
	C77.210487,51.441631 77.210487,48.373207 77.210487,44.883816 
	C71.754562,44.883816 66.500984,44.883816 61.228401,44.883816 
	C61.228401,38.372837 61.228401,32.282948 61.228401,25.661919 
	C68.163872,25.661919 74.891388,25.661919 81.621689,25.661919 
	C81.621689,22.184811 81.621689,19.245506 81.621689,15.825914 
	C72.790672,15.825914 64.171669,15.825914 54.569504,15.825916 
M226.665863,15.993353 
	C223.918518,16.297386 221.171188,16.601419 216.891525,17.075027 
	C219.680420,21.238852 221.942429,24.218513 223.738556,27.456596 
	C224.713272,29.213800 225.690140,31.580576 225.305847,33.382259 
	C222.709885,45.552437 219.683395,57.630264 216.997040,69.782356 
	C216.681152,71.211296 217.047852,73.530472 218.020660,74.377754 
	C222.374817,78.170120 227.063187,81.578789 231.749435,85.218025 
	C235.537827,81.884811 239.023895,78.551895 242.800018,75.588615 
	C245.315796,73.614365 245.512848,71.718727 244.566559,68.784271 
	C240.748520,56.944424 237.310623,44.982285 233.530197,33.129780 
	C232.674622,30.447323 232.927475,28.664513 234.814682,26.439718 
	C236.916916,23.961445 238.207870,20.795017 240.564148,16.686342 
	C235.104721,16.394648 231.349335,16.194000 226.665863,15.993353 
M153.441544,84.001747 
	C154.881058,83.938644 156.320572,83.875542 158.090485,83.797951 
	C158.090485,64.375351 158.090485,45.280807 158.090485,25.658489 
	C162.482483,25.658489 166.541977,25.658489 170.616608,25.658489 
	C170.616608,22.184414 170.616608,19.245747 170.616608,16.230133 
	C158.035248,16.230133 145.678894,16.230133 133.443085,16.230133 
	C133.443085,19.567049 133.443085,22.498535 133.443085,25.967260 
	C137.754501,25.967260 141.805786,25.967260 146.185181,25.967260 
	C146.185181,45.603779 146.185181,64.689468 146.185181,84.001740 
	C148.525421,84.001740 150.501266,84.001740 153.441544,84.001747 
M176.999878,78.424622 
	C176.999878,80.212479 176.999878,82.000336 176.999878,83.859253 
	C187.787064,83.859253 198.150482,83.859253 208.466187,83.859253 
	C208.466187,80.494774 208.466187,77.452118 208.466187,74.064163 
	C201.851440,74.064163 195.599792,74.064163 188.870605,74.064163 
	C188.870605,54.525440 188.870605,35.338638 188.870605,16.308184 
	C184.638123,16.308184 180.901947,16.308184 176.999878,16.308184 
	C176.999878,36.891460 176.999878,57.166946 176.999878,78.424622 
M68.113274,119.499992 
	C68.113335,131.822479 68.136719,144.145035 68.093414,156.467377 
	C68.084930,158.880615 68.097771,160.993454 72.040588,159.451660 
	C72.040588,141.887161 72.040588,124.148941 72.040588,106.410728 
	C78.024376,122.962830 83.177330,139.587753 88.202057,156.251358 
	C89.086037,159.182922 90.101036,161.194000 93.885361,159.426666 
	C93.885361,138.906540 93.922134,118.277168 93.773254,97.649147 
	C93.766060,96.651665 92.125885,95.665962 91.246147,94.674774 
	C90.822067,95.019897 90.397995,95.365021 89.973915,95.710144 
	C89.973915,112.557755 89.973915,129.405365 89.973915,146.252975 
	C89.728416,146.293686 89.482925,146.334396 89.237427,146.375092 
	C83.915428,129.336151 78.593430,112.297195 73.273323,95.264313 
	C71.466049,95.264313 69.921509,95.264313 68.113274,95.264313 
	C68.113274,103.215996 68.113274,110.858002 68.113274,119.499992 
M182.066162,124.352219 
	C185.085526,117.305260 184.576797,110.047768 183.013123,102.847519 
	C181.984726,98.111969 178.626633,95.396324 173.803284,95.096832 
	C169.383392,94.822403 164.933044,95.038574 160.150131,95.038574 
	C160.150131,116.107895 160.109634,136.699493 160.265900,157.289612 
	C160.273987,158.355515 161.963074,159.408676 162.869537,160.467758 
	C163.294022,160.150940 163.718491,159.834122 164.142975,159.517303 
	C164.142975,150.103455 164.142975,140.689590 164.142975,131.316422 
	C177.874634,130.279953 180.114731,132.351761 180.170303,145.526382 
	C180.186386,149.339432 180.197769,153.189926 180.753799,156.942886 
	C180.947403,158.249481 182.776520,159.313766 184.023926,160.668121 
	C184.023926,154.880936 183.919479,150.273972 184.048798,145.673584 
	C184.235229,139.041718 183.898712,132.676880 177.391556,129.035919 
	C179.029419,127.500954 180.347412,126.265770 182.066162,124.352219 
M129.981720,144.321960 
	C130.419769,147.272369 130.488403,150.339523 131.375946,153.147873 
	C133.014404,158.332214 137.053757,161.009918 142.282501,161.016876 
	C148.655884,161.025360 153.664261,156.929306 153.900177,149.751907 
	C154.474472,132.279266 154.362579,114.782944 154.372208,97.296066 
	C154.372711,96.381699 152.936188,95.466545 152.168686,94.551758 
	C150.981705,111.432152 151.038757,127.573517 150.927170,143.713699 
	C150.907928,146.498016 150.958481,149.798096 149.554276,151.917374 
	C148.051041,154.186096 144.872513,156.610260 142.412857,156.623184 
	C139.962738,156.636093 136.757217,154.234558 135.254013,151.978210 
	C133.848572,149.868591 133.918320,146.563232 133.897186,143.779892 
	C133.783218,128.784424 133.827438,113.787590 133.858673,98.791306 
	C133.863907,96.279320 133.935104,93.915115 129.981705,95.514038 
	C129.981705,111.415726 129.981705,127.390282 129.981720,144.321960 
M222.901474,156.476578 
	C225.843231,160.750702 230.095932,161.699219 234.795609,160.728058 
	C239.544479,159.746735 241.956619,156.289764 243.129715,151.776215 
	C245.368881,143.160797 243.697937,135.635208 237.087021,129.421448 
	C233.939072,126.462616 230.626968,123.650169 227.721466,120.468040 
	C222.929977,115.220352 222.618927,108.865677 225.262054,102.765511 
	C226.192291,100.618584 229.667328,98.372528 231.986252,98.366386 
	C234.314163,98.360237 237.106583,100.704666 238.824875,102.750229 
	C240.023941,104.177681 240.079712,106.839233 240.067703,108.946236 
	C240.049606,112.120346 241.382736,112.471756 244.314758,111.553993 
	C243.793121,108.244637 243.591949,105.070145 242.753967,102.073746 
	C241.307037,96.899780 237.205063,93.987480 232.066620,93.974380 
	C226.826660,93.961021 222.769379,96.733925 221.216431,101.877182 
	C218.508118,110.846977 219.769272,119.001015 226.860306,125.695473 
	C229.762329,128.435211 232.827164,131.010391 235.626999,133.848785 
	C240.769043,139.061584 241.543991,145.479935 238.847473,151.834732 
	C237.876480,154.122986 234.473007,156.064941 231.808609,156.777328 
	C228.381348,157.693680 225.713104,155.395142 224.760178,151.945038 
	C224.061630,149.415878 224.034180,146.707092 223.432617,144.142883 
	C223.146820,142.924606 222.219208,141.856903 221.582367,140.720978 
	C220.790726,141.026230 219.999100,141.331482 219.207474,141.636734 
	C220.284927,146.380280 221.362366,151.123825 222.901474,156.476578 
M20.683191,145.934509 
	C20.061243,148.014481 19.439295,150.094467 18.548595,153.073227 
	C14.886088,134.022034 11.478797,116.037827 7.875775,98.092918 
	C7.611562,96.776993 5.932690,95.745110 4.911512,94.581177 
	C4.482462,94.938141 4.053412,95.295097 3.624362,95.652061 
	C7.748351,117.018372 11.872340,138.384674 15.996170,159.750153 
	C18.040472,159.750153 19.799509,159.750153 21.671122,159.750153 
	C25.781017,138.155167 29.844692,116.803040 33.908363,95.450920 
	C33.448036,95.151596 32.987709,94.852264 32.527382,94.552940 
	C31.643215,95.722069 30.216234,96.782684 29.957521,98.076843 
	C26.826576,113.738907 23.867979,129.435410 20.683191,145.934509 
M46.688000,155.982544 
	C45.798260,155.202301 44.154232,154.439850 44.135342,153.639069 
	C43.944221,145.537903 44.018784,137.430481 44.018784,129.016922 
	C48.451145,129.016922 52.420254,128.889862 56.376980,129.056641 
	C59.611675,129.192978 60.021744,127.810234 58.888226,124.802811 
	C53.989929,124.802811 49.082329,124.802811 44.337151,124.802811 
	C44.337151,115.960915 44.337151,107.561295 44.337151,98.864365 
	C50.602486,98.864365 56.551376,98.864365 63.989719,98.864365 
	C62.525829,96.977264 61.782623,95.147575 60.979679,95.120972 
	C54.081448,94.892433 47.172424,94.989731 40.378700,94.989731 
	C40.378700,117.041290 40.378700,138.302277 40.378700,159.789154 
	C47.849972,159.789154 55.102192,159.789154 62.354416,159.789154 
	C62.659798,159.426743 62.965179,159.064346 63.270565,158.701935 
	C62.229603,157.795807 61.241119,156.190826 60.138336,156.108002 
	C55.998325,155.797150 51.821011,155.983078 46.688000,155.982544 
M196.758392,124.922516 
	C196.758392,116.410866 196.758392,107.899216 196.758392,99.016693 
	C201.563354,99.016693 206.690262,98.901100 211.808777,99.058403 
	C215.076279,99.158821 215.266754,97.696198 214.502319,95.271591 
	C206.974487,95.271591 199.730133,95.271591 192.447815,95.271591 
	C192.447815,116.947174 192.447815,138.332764 192.447815,160.016464 
	C199.205460,160.016464 205.682480,160.139496 212.145584,159.894699 
	C213.215988,159.854141 214.225510,158.206207 215.263168,157.301086 
	C214.963348,156.818161 214.663528,156.335251 214.363724,155.852325 
	C208.299042,155.852325 202.234375,155.852325 196.340347,155.852325 
	C196.340347,146.619247 196.340347,137.885651 196.340347,128.902435 
	C201.446747,128.902435 206.233139,128.902435 211.019531,128.902435 
	C211.316864,128.483765 211.614212,128.065109 211.911545,127.646446 
	C210.844925,126.758736 209.838608,125.209236 208.700546,125.105545 
	C205.066727,124.774445 201.384003,124.980080 196.758392,124.922516 
M108.546005,94.980110 
	C106.217163,94.980202 103.881523,95.093216 101.561119,94.953308 
	C98.263779,94.754501 97.997826,96.287613 99.134087,99.229866 
	C102.703476,99.229866 106.272446,99.229866 110.139641,99.229866 
	C110.139641,119.739540 110.139641,139.816376 110.139641,159.717575 
	C114.529518,161.001160 113.840836,158.112457 113.841705,155.842194 
	C113.848373,138.542191 113.839867,121.242188 113.854630,103.942207 
	C113.855980,102.358162 113.986885,100.774231 114.069489,98.924637 
	C117.942932,98.924637 121.387383,98.924637 125.168053,98.924637 
	C125.053703,97.433319 124.964409,96.268845 124.865585,94.980110 
	C119.492233,94.980110 114.512215,94.980110 108.546005,94.980110 
z"/>
<path fill="#050505" opacity="1.000000" stroke="none" 
	d="
M113.077850,75.969604 
	C109.248512,63.067955 105.518715,50.559635 101.788910,38.051315 
	C101.564095,38.075306 101.339287,38.099297 101.114471,38.123287 
	C101.114471,53.253754 101.114471,68.384224 101.114471,83.757759 
	C97.326424,83.757759 93.945679,83.757759 90.360046,83.757759 
	C90.360046,61.279228 90.360046,39.027683 90.360046,15.998633 
	C94.678055,15.998633 99.099533,15.793620 103.475006,16.151308 
	C104.493576,16.234575 105.816086,18.087852 106.217499,19.371096 
	C109.662010,30.382734 112.926918,41.450554 117.057587,52.407932 
	C117.057587,40.440788 117.057587,28.473639 117.057587,16.254675 
	C120.779526,16.254675 124.051071,16.254675 127.665512,16.254675 
	C127.665512,38.588650 127.665512,61.097298 127.665512,83.806877 
	C123.684891,83.806877 119.753601,83.806877 115.547562,83.806877 
	C114.760391,81.334618 113.968895,78.848778 113.077850,75.969604 
z"/>
<path fill="#040404" opacity="1.000000" stroke="none" 
	d="
M28.827854,62.960636 
	C28.827854,60.522976 28.827854,58.551495 28.827854,56.170639 
	C26.820656,56.062962 25.090763,55.970161 23.187513,55.868061 
	C23.187513,52.696323 23.187513,49.745258 23.187513,46.475994 
	C28.587240,46.475994 33.986473,46.475994 39.768536,46.475994 
	C39.768536,55.191002 40.514366,64.024712 39.567638,72.673141 
	C38.533531,82.119759 29.292007,86.699188 17.433760,84.840637 
	C9.055448,83.527496 4.107491,78.015068 4.025807,69.503433 
	C3.912371,57.682972 4.413682,45.842407 3.898387,34.043350 
	C3.133669,16.533094 15.754113,13.243740 27.828934,15.430314 
	C35.497440,16.818970 39.765301,22.447199 39.990032,30.288412 
	C40.066307,32.949722 40.002125,35.615055 40.002125,38.640900 
	C36.408142,38.640900 32.864670,38.640900 28.661562,38.640900 
	C28.661562,36.113503 28.812586,33.507458 28.626053,30.925810 
	C28.348408,27.083157 26.447758,24.758280 22.265949,24.835976 
	C18.102581,24.913328 16.138693,27.281357 16.106335,31.129269 
	C15.999937,43.781097 15.993027,56.435097 16.114458,69.086662 
	C16.149061,72.691803 18.041815,74.994820 21.966324,75.161308 
	C26.033016,75.333824 28.234114,73.377167 28.618914,69.405228 
	C28.810829,67.424271 28.765739,65.420349 28.827854,62.960636 
z"/>
<path fill="#040404" opacity="1.000000" stroke="none" 
	d="
M55.061089,15.825915 
	C64.171669,15.825914 72.790672,15.825914 81.621689,15.825914 
	C81.621689,19.245506 81.621689,22.184811 81.621689,25.661919 
	C74.891388,25.661919 68.163872,25.661919 61.228401,25.661919 
	C61.228401,32.282948 61.228401,38.372837 61.228401,44.883816 
	C66.500984,44.883816 71.754562,44.883816 77.210487,44.883816 
	C77.210487,48.373207 77.210487,51.441631 77.210487,54.785286 
	C71.792320,54.785286 66.673401,54.785286 61.282166,54.785286 
	C61.282166,61.288582 61.282166,67.518936 61.282166,74.119377 
	C67.993736,74.119377 74.589478,74.119377 81.509048,74.119377 
	C81.509048,77.526741 81.509048,80.576736 81.509048,83.905655 
	C70.846283,83.905655 60.241722,83.905655 49.315338,83.905655 
	C49.315338,61.496475 49.315338,38.933720 49.315338,15.825916 
	C51.041546,15.825916 52.805523,15.825916 55.061089,15.825915 
z"/>
<path fill="#050505" opacity="1.000000" stroke="none" 
	d="
M227.129898,15.993351 
	C231.349335,16.194000 235.104721,16.394648 240.564148,16.686342 
	C238.207870,20.795017 236.916916,23.961445 234.814682,26.439718 
	C232.927475,28.664513 232.674622,30.447323 233.530197,33.129780 
	C237.310623,44.982285 240.748520,56.944424 244.566559,68.784271 
	C245.512848,71.718727 245.315796,73.614365 242.800018,75.588615 
	C239.023895,78.551895 235.537827,81.884811 231.749435,85.218025 
	C227.063187,81.578789 222.374817,78.170120 218.020660,74.377754 
	C217.047852,73.530472 216.681152,71.211296 216.997040,69.782356 
	C219.683395,57.630264 222.709885,45.552437 225.305847,33.382259 
	C225.690140,31.580576 224.713272,29.213800 223.738556,27.456596 
	C221.942429,24.218513 219.680420,21.238852 216.891525,17.075027 
	C221.171188,16.601419 223.918518,16.297386 227.129898,15.993351 
z"/>
<path fill="#030303" opacity="1.000000" stroke="none" 
	d="
M152.959335,84.001740 
	C150.501266,84.001740 148.525421,84.001740 146.185181,84.001740 
	C146.185181,64.689468 146.185181,45.603779 146.185181,25.967260 
	C141.805786,25.967260 137.754501,25.967260 133.443085,25.967260 
	C133.443085,22.498535 133.443085,19.567049 133.443085,16.230133 
	C145.678894,16.230133 158.035248,16.230133 170.616608,16.230133 
	C170.616608,19.245747 170.616608,22.184414 170.616608,25.658489 
	C166.541977,25.658489 162.482483,25.658489 158.090485,25.658489 
	C158.090485,45.280807 158.090485,64.375351 158.090485,83.797951 
	C156.320572,83.875542 154.881058,83.938644 152.959335,84.001740 
z"/>
<path fill="#020202" opacity="1.000000" stroke="none" 
	d="
M176.999878,77.933525 
	C176.999878,57.166946 176.999878,36.891460 176.999878,16.308184 
	C180.901947,16.308184 184.638123,16.308184 188.870605,16.308184 
	C188.870605,35.338638 188.870605,54.525440 188.870605,74.064163 
	C195.599792,74.064163 201.851440,74.064163 208.466187,74.064163 
	C208.466187,77.452118 208.466187,80.494774 208.466187,83.859253 
	C198.150482,83.859253 187.787064,83.859253 176.999878,83.859253 
	C176.999878,82.000336 176.999878,80.212479 176.999878,77.933525 
z"/>
<path fill="#1B1B1B" opacity="1.000000" stroke="none" 
	d="
M68.113274,119.000000 
	C68.113274,110.858002 68.113274,103.215996 68.113274,95.264313 
	C69.921509,95.264313 71.466049,95.264313 73.273323,95.264313 
	C78.593430,112.297195 83.915428,129.336151 89.237427,146.375092 
	C89.482925,146.334396 89.728416,146.293686 89.973915,146.252975 
	C89.973915,129.405365 89.973915,112.557755 89.973915,95.710144 
	C90.397995,95.365021 90.822067,95.019897 91.246147,94.674774 
	C92.125885,95.665962 93.766060,96.651665 93.773254,97.649147 
	C93.922134,118.277168 93.885361,138.906540 93.885361,159.426666 
	C90.101036,161.194000 89.086037,159.182922 88.202057,156.251358 
	C83.177330,139.587753 78.024376,122.962830 72.040588,106.410728 
	C72.040588,124.148941 72.040588,141.887161 72.040588,159.451660 
	C68.097771,160.993454 68.084930,158.880615 68.093414,156.467377 
	C68.136719,144.145035 68.113335,131.822479 68.113274,119.000000 
z"/>
<path fill="#0E0E0E" opacity="1.000000" stroke="none" 
	d="
M181.865784,124.691406 
	C180.347412,126.265770 179.029419,127.500954 177.391556,129.035919 
	C183.898712,132.676880 184.235229,139.041718 184.048798,145.673584 
	C183.919479,150.273972 184.023926,154.880936 184.023926,160.668121 
	C182.776520,159.313766 180.947403,158.249481 180.753799,156.942886 
	C180.197769,153.189926 180.186386,149.339432 180.170303,145.526382 
	C180.114731,132.351761 177.874634,130.279953 164.142975,131.316422 
	C164.142975,140.689590 164.142975,150.103455 164.142975,159.517303 
	C163.718491,159.834122 163.294022,160.150940 162.869537,160.467758 
	C161.963074,159.408676 160.273987,158.355515 160.265900,157.289612 
	C160.109634,136.699493 160.150131,116.107895 160.150131,95.038574 
	C164.933044,95.038574 169.383392,94.822403 173.803284,95.096832 
	C178.626633,95.396324 181.984726,98.111969 183.013123,102.847519 
	C184.576797,110.047768 185.085526,117.305260 181.865784,124.691406 
M168.401001,126.977058 
	C176.237793,126.903305 179.346176,125.143181 179.877136,119.654564 
	C180.306107,115.220360 180.278946,110.678139 179.851562,106.241882 
	C179.365768,101.199501 176.632904,99.130699 171.468323,99.031044 
	C169.048569,98.984352 166.627182,99.023041 164.023132,99.023041 
	C164.023132,107.730247 164.186829,115.849365 163.938889,123.955887 
	C163.845657,127.004501 165.275497,127.181793 168.401001,126.977058 
z"/>
<path fill="#0B0B0B" opacity="1.000000" stroke="none" 
	d="
M129.981720,143.843399 
	C129.981705,127.390282 129.981705,111.415726 129.981705,95.514038 
	C133.935104,93.915115 133.863907,96.279320 133.858673,98.791306 
	C133.827438,113.787590 133.783218,128.784424 133.897186,143.779892 
	C133.918320,146.563232 133.848572,149.868591 135.254013,151.978210 
	C136.757217,154.234558 139.962738,156.636093 142.412857,156.623184 
	C144.872513,156.610260 148.051041,154.186096 149.554276,151.917374 
	C150.958481,149.798096 150.907928,146.498016 150.927170,143.713699 
	C151.038757,127.573517 150.981705,111.432152 152.168686,94.551758 
	C152.936188,95.466545 154.372711,96.381699 154.372208,97.296066 
	C154.362579,114.782944 154.474472,132.279266 153.900177,149.751907 
	C153.664261,156.929306 148.655884,161.025360 142.282501,161.016876 
	C137.053757,161.009918 133.014404,158.332214 131.375946,153.147873 
	C130.488403,150.339523 130.419769,147.272369 129.981720,143.843399 
z"/>
<path fill="#101010" opacity="1.000000" stroke="none" 
	d="
M222.670654,156.171967 
	C221.362366,151.123825 220.284927,146.380280 219.207474,141.636734 
	C219.999100,141.331482 220.790726,141.026230 221.582367,140.720978 
	C222.219208,141.856903 223.146820,142.924606 223.432617,144.142883 
	C224.034180,146.707092 224.061630,149.415878 224.760178,151.945038 
	C225.713104,155.395142 228.381348,157.693680 231.808609,156.777328 
	C234.473007,156.064941 237.876480,154.122986 238.847473,151.834732 
	C241.543991,145.479935 240.769043,139.061584 235.626999,133.848785 
	C232.827164,131.010391 229.762329,128.435211 226.860306,125.695473 
	C219.769272,119.001015 218.508118,110.846977 221.216431,101.877182 
	C222.769379,96.733925 226.826660,93.961021 232.066620,93.974380 
	C237.205063,93.987480 241.307037,96.899780 242.753967,102.073746 
	C243.591949,105.070145 243.793121,108.244637 244.314758,111.553993 
	C241.382736,112.471756 240.049606,112.120346 240.067703,108.946236 
	C240.079712,106.839233 240.023941,104.177681 238.824875,102.750229 
	C237.106583,100.704666 234.314163,98.360237 231.986252,98.366386 
	C229.667328,98.372528 226.192291,100.618584 225.262054,102.765511 
	C222.618927,108.865677 222.929977,115.220352 227.721466,120.468040 
	C230.626968,123.650169 233.939072,126.462616 237.087021,129.421448 
	C243.697937,135.635208 245.368881,143.160797 243.129715,151.776215 
	C241.956619,156.289764 239.544479,159.746735 234.795609,160.728058 
	C230.095932,161.699219 225.843231,160.750702 222.670654,156.171967 
z"/>
<path fill="#0E0E0E" opacity="1.000000" stroke="none" 
	d="
M20.773859,145.528732 
	C23.867979,129.435410 26.826576,113.738907 29.957521,98.076843 
	C30.216234,96.782684 31.643215,95.722069 32.527382,94.552940 
	C32.987709,94.852264 33.448036,95.151596 33.908363,95.450920 
	C29.844692,116.803040 25.781017,138.155167 21.671122,159.750153 
	C19.799509,159.750153 18.040472,159.750153 15.996170,159.750153 
	C11.872340,138.384674 7.748351,117.018372 3.624362,95.652061 
	C4.053412,95.295097 4.482462,94.938141 4.911512,94.581177 
	C5.932690,95.745110 7.611562,96.776993 7.875775,98.092918 
	C11.478797,116.037827 14.886088,134.022034 18.548595,153.073227 
	C19.439295,150.094467 20.061243,148.014481 20.773859,145.528732 
z"/>
<path fill="#0B0B0B" opacity="1.000000" stroke="none" 
	d="
M47.172836,155.982697 
	C51.821011,155.983078 55.998325,155.797150 60.138336,156.108002 
	C61.241119,156.190826 62.229603,157.795807 63.270565,158.701935 
	C62.965179,159.064346 62.659798,159.426743 62.354416,159.789154 
	C55.102192,159.789154 47.849972,159.789154 40.378700,159.789154 
	C40.378700,138.302277 40.378700,117.041290 40.378700,94.989731 
	C47.172424,94.989731 54.081448,94.892433 60.979679,95.120972 
	C61.782623,95.147575 62.525829,96.977264 63.989719,98.864365 
	C56.551376,98.864365 50.602486,98.864365 44.337151,98.864365 
	C44.337151,107.561295 44.337151,115.960915 44.337151,124.802811 
	C49.082329,124.802811 53.989929,124.802811 58.888226,124.802811 
	C60.021744,127.810234 59.611675,129.192978 56.376980,129.056641 
	C52.420254,128.889862 48.451145,129.016922 44.018784,129.016922 
	C44.018784,137.430481 43.944221,145.537903 44.135342,153.639069 
	C44.154232,154.439850 45.798260,155.202301 47.172836,155.982697 
z"/>
<path fill="#0B0B0B" opacity="1.000000" stroke="none" 
	d="
M197.239273,124.950485 
	C201.384003,124.980080 205.066727,124.774445 208.700546,125.105545 
	C209.838608,125.209236 210.844925,126.758736 211.911545,127.646446 
	C211.614212,128.065109 211.316864,128.483765 211.019531,128.902435 
	C206.233139,128.902435 201.446747,128.902435 196.340347,128.902435 
	C196.340347,137.885651 196.340347,146.619247 196.340347,155.852325 
	C202.234375,155.852325 208.299042,155.852325 214.363724,155.852325 
	C214.663528,156.335251 214.963348,156.818161 215.263168,157.301086 
	C214.225510,158.206207 213.215988,159.854141 212.145584,159.894699 
	C205.682480,160.139496 199.205460,160.016464 192.447815,160.016464 
	C192.447815,138.332764 192.447815,116.947174 192.447815,95.271591 
	C199.730133,95.271591 206.974487,95.271591 214.502319,95.271591 
	C215.266754,97.696198 215.076279,99.158821 211.808777,99.058403 
	C206.690262,98.901100 201.563354,99.016693 196.758392,99.016693 
	C196.758392,107.899216 196.758392,116.410866 197.239273,124.950485 
z"/>
<path fill="#0C0C0C" opacity="1.000000" stroke="none" 
	d="
M109.039108,94.980110 
	C114.512215,94.980110 119.492233,94.980110 124.865585,94.980110 
	C124.964409,96.268845 125.053703,97.433319 125.168053,98.924637 
	C121.387383,98.924637 117.942932,98.924637 114.069489,98.924637 
	C113.986885,100.774231 113.855980,102.358162 113.854630,103.942207 
	C113.839867,121.242188 113.848373,138.542191 113.841705,155.842194 
	C113.840836,158.112457 114.529518,161.001160 110.139641,159.717575 
	C110.139641,139.816376 110.139641,119.739540 110.139641,99.229866 
	C106.272446,99.229866 102.703476,99.229866 99.134087,99.229866 
	C97.997826,96.287613 98.263779,94.754501 101.561119,94.953308 
	C103.881523,95.093216 106.217163,94.980202 109.039108,94.980110 
z"/>
<path fill="#FDFDFD" opacity="1.000000" stroke="none" 
	d="
M167.943176,126.977043 
	C165.275497,127.181793 163.845657,127.004501 163.938889,123.955887 
	C164.186829,115.849365 164.023132,107.730247 164.023132,99.023041 
	C166.627182,99.023041 169.048569,98.984352 171.468323,99.031044 
	C176.632904,99.130699 179.365768,101.199501 179.851562,106.241882 
	C180.278946,110.678139 180.306107,115.220360 179.877136,119.654564 
	C179.346176,125.143181 176.237793,126.903305 167.943176,126.977043 
z"/>
</svg>