<?xml version="1.0" encoding="UTF-8"?>
<svg id="Layer_2" xmlns="http://www.w3.org/2000/svg" viewBox="0 0 55.69 16.88">
  <defs>
    <style>
      .cls-1 {
        fill: #2c489e;
      }
    </style>
  </defs>
  <g id="Layer_1-2" data-name="Layer_1">
    <g>
      <path class="cls-1" d="M53.11,4.78s0,0-.01,0c0,0,0,0,0,0l.02-.02Z"/>
      <path class="cls-1" d="M22.42,8.6s1.74.38,1.73-1.47c-.02-1.85-1.07-1.49-1.07-1.49-1.76.02-1.71,2.88-1.71,2.88l1.05.09Z"/>
      <path class="cls-1" d="M30.58,5.84c-.21.28-.64,4.06-.64,4.06h2.56l-1.07-2.46c-.49-1.09-.85-1.6-.85-1.6Z"/>
      <path class="cls-1" d="M52.77,11.52c.34-.62.68-1.2.96-1.8.41-.86.76-1.95,1.19-2.8.18-.36.49-.64.77-.98-.13-.02-.34-.11-.51-.06-.59.16-1.16.36-1.74.57-.46.17-.89.44-1.36.56-.68.18-1.39.29-1.94-.42-.02.42-.04.82.02,1.2.23,1.45.16,1.85.15,2.22-.09-.05-.1.02-.1-.02.03-1.04-.08-1.08-.25-3.16-.08-.98.4-1.66,1.34-1.77.6-.07,1.23.12,1.79-.28.32-.72.17-1.04-.57-1.06-1.13-.04-2.26-.02-3.39-.03-1.33,0-2.65-.03-3.98-.02-3.03.02-3.31.07-6.34.07-1.71,0-.67-.05-2.38-.07-1.48-.01-2.95,0-4.43-.01-2.71-.01-2.68.19-5.4.16-2.63-.03-3.43-.06-6.06-.14-.66-.02-1.33.15-2-.12-.36-.14-.84.09-1.27.1-1.46.03-2.92.05-4.38.04-.73,0-1.46-.07-2.19-.1-.37-.01-.75.01-1.12.01-.53,0-1.06-.03-1.58,0-.7.03-1.4.17-2.09.13-.72-.05-1.52.03-2.1-.59-.19-.2-.37-.43-.55-.64-.04.01-.08.02-.12.03.03.45.08.91.08,1.36,0,2.11,0,4.21-.02,6.32,0,.76-.09,1.52-.03,2.27.11,1.27.43,1.68,1.54,1.65.53-.02,1.06.03,1.58.03,1.35.01,2.71.02,4.06.03,1.02,0,2.04,0,3.05.02.79.02,1.6.16,2.34-.32.04-.03.12,0,.3,0-.24.13-.37.2-.5.27,1.96.1,3.9.12,5.84.11,1.95,0,2.06-.05,4-.05,1.13,0,2.25.07,3.38.07,2.54,0,2.32-.04,4.86-.06,2.74-.02,2.73-.06,5.48-.08,4.04-.02,5.33,0,9.37-.06.48,0,1.14.38,1.47-.45-.08.39-.19.75-.29,1.12-.26.95.1,1.61.98,1.94,1.07.4,2.02-.04,3-.43.46-.19.96-.26,1.44-.39.08-.02.17-.05.27-.08-.17-.27-.34-.52-.48-.77-.71-1.21-.93-2.76-2.11-3.52ZM10.4,12.57h-5.55v-.21s1.41-.07,1.82-.85c0,0,.11-4.63-.53-5.44,0,0-.18-.53-1.6-.64v-.43l5.66.21v.32s-1.21-.2-1.28.75l-.11,4.06s-.07,1.6,1.07,1.82c0,0,.41.09.53.11v.32ZM17.5,10.43c-.12,1.92-1.94,2.94-3.31,2.67-1.37-.27-2.99-.64-2.99-.64,0,0,.04.56.21,1.07.03.08-.5.07-.53-.21l-.43-4.06s0-.87.43-.11c.43.76,1.73,3.38,4.06,3.42,2.33.04,1.01-1.62.21-2.03-.8-.41-4.7-1.42-3.95-4.16.75-2.74,5.55-.75,5.55-.75l.32.11v-.96h.32s.03,2.32,0,3.1c0,.12-.12.59-.43-.21-.3-.8-1.51-1.99-3.42-2.14-1.9-.14-1,1.35.11,1.6,1.1.25,3.97,1.39,3.84,3.31ZM25.74,12.88c-1.62.07-1.91-.96-1.91-.96,0,0-.71-2.19-2.03-2.35h-.43v2.24s.12.62.96.64l.43.11v.21s-3.65-.04-5.02.21v-.32s1.26-.3,1.5-.64l.21-5.45s.02-1.12-1.5-.96c-.21.02-.24-.47.11-.43l5.66-.11s2.78-.34,2.67,1.92c-.11,2.26-3.84,1.92-3.84,1.92h-1.17v.32h2.35s1.81.03,2.14,1.92c.28,1.59,1.17,0,1.17,0,0,0,.43-.75.21-1.6-.02-.08.09-.52.32.11.23.62-.2,3.13-1.81,3.2ZM36.98,12.99l-4.38-.11-.11-.21s-.18-.16.85-.21c0,0,.18-.85-.75-2.03h-2.78s-.25,1.58.11,1.71c.36.12.6.16,1.71.21.28.01.32.45,0,.43l-4.67-.1v-.21l.82-.11s1.81-4.29,2.02-6.65c.04-.39-.03-.57-1.59-.61v-.32s4.29.04,5.66.21c.31.04.21.32,0,.32l-1.28-.07.53,1.25s1.98,5.32,3.31,5.98c0,0,.59.27.96.32.37.05.07.3-.43.21ZM39.08,12.03s3.24.45,4.34-1.9c.04-.02-.12-.25.25-.23,0,0,.23.04.11.96l-.11,2.03-.43-.11v-.43s-4,.68-5.23.11c0,0-2.76-.53-2.35-3.63.41-3.1,2.7-3.88,3.74-3.84,2.24.08,3.66.68,3.66.68l-.03-1s.27-.34.32.32v2.14s.02.66-.32,0c0,0-.34-1.62-3.52-1.6,0,0-1.25-.06-1.39,2.88l5.77-.32.11,1.39s-6.01-.44-5.98-.43c.04.02-.18,2.77,1.07,2.99ZM50.2,14.1c.18.27.32.51.49.74.15.21.32.4.45.56-.54-.2-1.01-.8-.94-1.29ZM50.32,13.67c.32.37.63.73.95,1.1-.44-.26-.86-.53-.95-1.1ZM51.23,12.67c.02.09.28.62-.32.21-.61-.41-2.35-.32-2.35-.32-2.65-.02-3.84.11-3.84.11-.8.02-.75-.21-.43-.21s.96-.32.96-.32c.5-2.03,0-6.3,0-6.3-.18-.32-1.18-.32-1.18-.32-.27-.07,0-.21,0-.21.63.1,4.2-.09,4.91-.21.71-.12.55.21.43.21-3.42.16-1.92,6.51-1.92,6.51.48.09,1.71-.11,1.71-.11,1.73-.57,1.6-2.99,1.6-2.99.05-.64.52-.41.53-.11.02.66-.3,3.06-.11,4.06Z"/>
      <path class="cls-1" d="M3.09,5.02c-.05-.55-.05-.56-.42-.73-.92-.42-1.42-1.28-1.92-2.03.49-.08.96-.16,1.42-.24.01.03.02.06.03.09-.31.15-.61.3-.95.46.39.45.85.2,1.32.27-.27.13-.55.26-.82.39,0,.04-.02.09-.02.13.24.05.48.1.72.15.39.09.53-.05.56-.46.03-.44.04-.92.22-1.3.28-.6.96-.66,1.63-.25.48.3.97.58,1.56.35.18-.37.37-.71.2-1.16-.21-.55-.7-.57-1.11-.64-.97-.17-1.84.28-2.7.69-.84.4-1.63.96-2.62.72-.05-.01-.12.07-.18.12.52,1.66,1.59,2.71,3.09,3.45Z"/>
      <path class="cls-1" d="M6.41,1.83s0,0,0,0c0,0,0,0,0,.01l.02-.02Z"/>
      <path class="cls-1" d="M.2,12.99c.11-.05.22-.07.27-.14.59-.87,1.42-1.4,2.3-1.87.12-.06.25-.25.26-.39.07-.95.1-1.9.14-2.86,0-.1-.05-.2-.08-.31C1.44,8.9.27,10.6.2,12.99ZM.9,11.75c-.1-.65.33-1.76.88-2.13-.12.24-.21.42-.3.6.02.02.04.03.05.05.14-.1.28-.19.43-.29.02.02.05.04.07.06-.14.19-.28.37-.48.62.22-.08.38-.15.55-.21.02.03.04.06.06.09-.42.4-.83.79-1.25,1.19Z"/>
      <path class="cls-1" d="M5.34,2.03c-.41-.24-.85-.44-1.3-.58-.26-.09-.55.05-.61.36-.04.22.01.5.12.7.33.61.91.85,1.52.97.93.18,1.15.03,1.55-.89.11-.25.21-.5.28-.76.03-.11,0-.25,0-.42-.2.18-.34.31-.48.43-.31.43-.61.46-1.07.19Z"/>
      <polygon class="cls-1" points="6.41 1.83 6.4 1.85 6.41 1.84 6.41 1.83"/>
      <path class="cls-1" d="M51.99,5.2c-.39.04-.78.06-1.16.15-.33.09-.59.37-.54.74.04.24.24.5.44.63.53.36,1.63.22,2.11-.2.07-.06.13-.15.15-.23.1-.38.21-.77.28-1.16.02-.09-.11-.21-.17-.32-.26.47-.71.35-1.1.39Z"/>
      <path class="cls-1" d="M53.09,4.81s0-.01.01-.02l-.02.02s0,0,0,0Z"/>
    </g>
  </g>
</svg>