<?xml version="1.0" encoding="UTF-8"?>
<svg id="Layer_2" xmlns="http://www.w3.org/2000/svg" viewBox="0 0 41.71 34.79">
  <defs>
    <style>
      .cls-1 {
        fill: #2c489e;
      }
    </style>
  </defs>
  <g id="Layer_1-2" data-name="Layer_1">
    <g>
      <path class="cls-1" d="M39.54,18.63c.41-.77.69-1.61.99-2.43.17-.47.33-.94.43-1.43.09-.46.14-.94.14-1.4,0-.83.03-1.66-.08-2.48-.1-.78-.29-1.56-.54-2.31-.24-.73-.57-1.42-.91-2.11-.26-.51-.59-.98-.91-1.46-.21-.32-.41-.65-.68-.91-.38-.37-.8-.71-1.23-1.02-.99-.73-1.99-1.44-3.17-1.86-.71-.25-1.42-.4-2.17-.45-.83-.06-1.65-.17-2.48-.26-.1-.01-.21.03-.32.05,0-.02-.01-.04-.02-.07-.14.03-.28.07-.52.12.15-.07.2-.1.28-.14-.5-.18-.95-.1-1.1.16.02-.08.04-.16.07-.29-.2.06-.38.11-.56.16.03-.02.05-.05.1-.1-.1-.01-.17-.02-.24-.03-.21-.02-.42-.04-.63-.05-.04,0-.08.06-.12.09.03.02.06.04.09.06-.05.03-.11.01-.12,0-.04-.35-.26-.12-.41-.14-.07,0-.14-.02-.21-.02-.11,0-.22-.01-.35-.02,0,.02-.01-.02-.05-.09-.04.08-.07.13-.11.22-.05-.09-.08-.16-.13-.24-.09.08-.18.16-.27.24-.01-.01-.03-.03-.04-.04l.06-.07s-.02-.04-.03-.05c-.1.05-.2.09-.37.17.13.05.17.07.21.08-.02.02-.03.04-.05.05-.04-.02-.07-.04-.11-.06-.04.06-.08.12-.1.15,0-.11.02-.24.02-.37h-.52s.02-.04.03-.07c-.01-.01-.03-.03-.04-.04-.09.07-.19.15-.28.22-.04-.05-.08-.11-.11-.16-.14.1-.21.37-.45.18,0,0-.08.07-.12.11-.03.04-.06.08-.1.14-.02-.08-.04-.12-.05-.17-.18.03-.34.06-.5.08,0,.02,0,.05,0,.08-.07,0-.14.01-.27.02.18-.13.33-.23.49-.34-.05-.04-.1-.07-.14-.1-.08.07-.15.14-.26.23.04-.11.05-.15.09-.27-.17.15-.28.24-.39.34-.31-.27-.45-.29-.53-.02.06-.03.11-.06.17-.09v.18c.05-.07.09-.1.12-.15.02.06.03.09.04.13,0,.03.02.07.03.1-.3-.27-.07.32-.28.13,0-.06.02-.14.02-.19-.07-.03-.13-.05-.21-.08,0,0-.05.03-.17.09.11-.15.17-.22.24-.32-.24.06-.45.11-.68.17,0,.05.03.17.04.26.06.04.11.07.08.05-.15.06-.32.13-.49.2,0,0,0,0,0,0,0,0,0,0,0,0,0,.06-.01.13-.02.19.06,0,.13,0,.19-.02.02,0,.02-.07.03-.09.04.03.08.08.12.12.04-.05.08-.13.13-.15.09-.02.2-.02.29,0,.12.02.24.07.37.1.02-.08.03-.15.05-.23.05,0,.11-.02.29-.05-.12.12-.18.17-.32.3.17-.06.26-.09.37-.12,0,0,.01.02.03.04.04-.07.07-.13.11-.19.02.02.04.04.06.06-.01.03-.02.07-.07.21.26-.15.45-.26.64-.37,0,.01.01.02.01.03-.04.02-.08.03-.23.1.23.07.37.12.49.16.05-.1.07-.15.1-.2.04.03.07.05.11.08.01-.02.02-.04.04-.06-.07-.05-.15-.09-.25-.16.16.01.3.03.45.04-.04.07-.1.14-.21.31.25-.07.41-.12.57-.17-.02-.09-.04-.16-.05-.21.08-.04.15-.08.23-.12-.07.15-.13.29-.2.47.31,0,.64.01.97,0,.17,0,.34-.07.51-.11.04,0,.08-.02.11-.03v.12h1.97s.01.04.03.1c.03-.04.06-.09.07-.11.1.05.2.13.31.14.52.05,1.03.08,1.55.05.84.17,1.67.34,2.53.51,0,0,.02-.04.01-.03.15.09.28.2.43.27.52.23,1.07.41,1.56.68.5.28.97.62,1.43.98.85.66,1.5,1.49,2.09,2.38.33.5.73.95.97,1.49.32.73.54,1.51.74,2.29.15.61.24,1.24.26,1.86.03.86.07,1.73-.19,2.57-.21.67-.35,1.37-.58,2.03-.18.54-.44,1.06-.69,1.57-.5,1.01-1.26,1.82-2.07,2.59-.41.39-.78.82-1.24,1.13-.56.37-1.19.64-1.8.94-.49.24-.98.49-1.49.66-.54.17-1.11.27-1.67.37-.5.08-1,.14-1.51.16-.5.02-1.01-.03-1.52-.04-.28,0-.57.04-.85.04-.65,0-1.31-.03-1.96-.05-.66-.02-1.33.01-1.99-.05-.76-.07-1.52-.19-2.27-.35-.61-.13-1.21-.32-1.8-.53-.33-.12-.65-.31-.95-.51-.63-.4-1.27-.79-1.85-1.26-.44-.36-.79-.84-1.19-1.25-.66-.67-1.15-1.45-1.59-2.27-.49-.93-.8-1.93-1-2.95-.14-.75-.18-1.52-.19-2.28-.01-.6.08-1.19.13-1.79.03-.27.05-.55.13-.81.1-.35.22-.71.37-1.04.35-.76.67-1.53,1.1-2.25.36-.62.84-1.17,1.29-1.74.14-.18.33-.33.51-.5-.05-.04-.08-.07-.04-.03.35-.28.71-.56,1.08-.85-.06-.04-.09-.06-.14-.09.15-.03.29-.05.51-.1-.12-.07-.16-.09-.23-.13.08,0,.12,0,.19-.01-.02-.05-.04-.09-.06-.13,0,0,.02-.01.03-.02.03.03.05.07.09.1.04-.08.08-.16.1-.21.06.03.12.08.16.07.09-.02.17-.08.32-.15-.03,0,.04,0,.12.01-.07-.11-.12-.18-.18-.27-.06,0-.16.02-.25.03.03-.04.05-.08.1-.16-.1-.02-.19-.03-.27-.05-.04,0-.07-.04-.09-.07-.01-.02,0-.08.01-.09.03-.02.09-.04.11-.02.24.25.52.23.81.1.02.11.03.22.05.34,0,0,.06,0,.09-.03.13-.11.27-.23.4-.35,0,.04,0,.09,0,.13.06-.17.49-.05.31-.4.08-.03.17-.06.25-.09,0,.03.01.05.02.08-.05.01-.1.03-.15.04.03.04.06.08.07.09.36-.1.71-.19,1.07-.29-.05-.08-.1-.15-.17-.27.09-.02.2-.05.39-.1.03.01.14.05.19.06-.1.08-.2.15-.29.22,0,0,.01.05.02.08.02-.04.05-.07.05-.08.22-.01.44-.03.65-.04-.01-.02-.02-.04-.03-.06.07-.06.14-.12.23-.19.02.08.03.13.07.24.03-.12.04-.17.05-.22.08.03.15.06.23.08,0-.05-.01-.1-.02-.15.06-.02.12-.04.18-.07h0s0,0,0,0c.06-.11.12-.22.19-.34-.05,0-.1,0-.14.01-.01-.02-.03-.04-.04-.06.08-.07.15-.14.24-.22h-.32v.22s-.04,0-.06,0c.02.04.05.07.06.09-.08.03-.14.05-.2.07.02.04.05.08.08.13-.03.04-.07.1-.1.15-.02-.06-.04-.15-.07-.16-.09-.01-.18.01-.32.03-.06-.14-.13-.33-.21-.51-.03.02-.05.03-.08.05.04.07.09.15.14.24-.06.07-.13.15-.19.22.02.06.04.11.04.12-.1,0-.18,0-.26-.01.07-.04.13-.08.2-.11-.14-.06-.25-.12-.35-.17.03-.07.04-.12.06-.18-.01,0-.03-.01-.05-.02-.04.08-.08.15-.14.27v-.27c-.08.06-.14.1-.21.15-.02-.02-.07-.06-.16-.13-.15.03-.37.07-.58.13-.05.01-.08.09-.12.13.05,0,.09.01.14.02-.11.02-.2-.02-.29-.02-.08,0-.16.06-.24.09,0,.02.01.04.02.06.06-.01.13-.02.2-.04-.02.06-.03.11-.04.16-.02-.03-.04-.05-.06-.08,0,.03-.02.06-.03.09-.07-.01-.13-.02-.2-.03-.05,0-.1-.03-.14-.03-.01,0-.02.02-.03.04.02,0,.04,0,.06.01-.03,0-.05.02-.08.02h0s-.01.09-.02.14c-.05-.01-.1-.03-.24-.06.11-.03.16-.05.26-.08,0-.01,0-.02.01-.03-.24-.04-.41-.07-.52-.09.05.12.17.26.14.34-.03.06-.06.11-.09.16,0,0,.01,0,.02,0-.03.04-.05.08-.08.11,0,0-.02,0-.03,0-.06.07-.12.13-.17.2-.04.05-.09.1-.13.14-.02-.06-.03-.13-.05-.19,0,0-.02,0-.03,0,0,0,0,0,0,0h.25c-.07-.09-.17-.12-.25-.16-.01,0,0-.12.02-.13.05-.03.12-.02.24-.03-.08.07-.11.08-.14.11.1.03.18.05.26.07.03-.04.06-.07.09-.11-.08-.03-.17-.06-.28-.1.14-.08.2-.11.31-.17-.13-.04-.21-.07-.3-.1.03.03.07.07.1.1-.08.03-.17.09-.26.08-.04,0-.09-.1-.12-.14-.11.08-.22.17-.41.32.01,0,.03,0,.04.01.1-.01.16-.01.21-.03.04-.02.07-.06.11-.09,0,.08.02.16.03.21-.12-.03-.23-.06-.34-.09-.02,0-.04,0-.06,0,0,0,.01-.01.02-.02-.07-.02-.15-.04-.23-.06,0,0,0,0,0,0,.06.08.08.11.17.22-.14-.07-.18-.1-.24-.13.03-.03.05-.06.07-.09,0,0,0,0,0,0,0,0,0,0,0,0,.03-.03.05-.06.07-.09,0-.01-.02-.02-.02-.04-.23.13-.47.26-.75.41.21.06.37.11.56.16-.04-.07-.07-.11-.14-.21.15.12.24.19.37.3-.23-.02-.43-.03-.59-.04-.08-.07-.14-.12-.18-.15-.2.1-.37.18-.55.27,0,.07-.04.04-.07.05-.14.07-.27.15-.4.22.16.1.31.19.47.29,0,0,0-.01,0-.02.06.04.11.08.22.15-.25-.05-.43-.09-.63-.13-.02.06-.06.14-.1.23-.08-.07-.14-.13-.19-.17.02-.08.04-.14.05-.2-.02-.01-.04-.02-.06-.03-.06.05-.12.11-.21.18-.37-.03-2.65,2.22-2.67,2.54-.26.42-.44.71-.65,1.05,0,0,0,0,0,0,0,0,0,0,0,0-.01,0-.05,0-.06.03-.2.4-.43.79-.59,1.2-.2.5-.38,1-.51,1.52-.16.58-.27,1.18-.38,1.78-.06.33-.14.66-.13.99.01.56.07,1.12.13,1.68.08.63.16,1.26.3,1.88.12.54.29,1.08.51,1.59.28.64.59,1.28.96,1.88.3.48.68.92,1.06,1.35.45.51.89,1.03,1.4,1.46.46.38,1.01.66,1.55.94.67.35,1.35.67,2.05.95.53.21,1.1.36,1.65.51.32.09.65.18.98.21.65.07,1.31.08,1.97.15.76.08,1.51.21,2.26.27.51.04,1.02.01,1.53.01.57,0,1.14,0,1.7-.01.47-.01.94-.06,1.41-.09,1.02-.06,2.05-.11,3.07-.19.47-.04.93-.15,1.39-.26.54-.12,1.09-.22,1.6-.41.62-.24,1.21-.56,1.81-.86.43-.22.87-.44,1.28-.71.43-.29.82-.63,1.21-.97.34-.3.62-.68.98-.93.56-.39.85-.99,1.14-1.54ZM17.42,1.02h0s0,0,0,0c.09-.07.18-.14.28-.21.07.13.1.2.15.29-.14-.03-.28-.05-.43-.08,0,0,0,0,0,0,0,0,0,0,0,0,0,.03-.01.06-.02.1.04-.01.08-.02.15-.04-.06.08-.1.12-.15.18.09.03.16.05.24.07,0,.03-.02.05-.03.08-.18-.09-.35-.19-.53-.28-.01.02-.03.05-.04.07-.02-.07-.04-.15-.06-.24.16.02.3.04.44.05ZM16.39,1.44c.14.06.24.1.34.15-.01.02-.04.06-.08.11.07-.01.11-.02.17-.04-.12.14-.35.06-.53-.18.05-.03.1-.05.09-.05ZM14.04,3.12s.06-.04.1-.06c.07.09.11.16.18.26-.13-.02-.25-.03-.37-.04-.06,0-.13.02-.17,0-.04-.02-.05-.1-.07-.15h.33Z"/>
      <path class="cls-1" d="M7.5,25.62c-.78-.01-1.56-.08-2.34-.13-.18-.01-.37-.04-.55-.01-.35.05-.42.01-.41-.36.02-.61.06-1.23.07-1.84.02-.69.01-1.38.02-2.07,0-1.23,0-2.46.01-3.69.01-1.08.06-2.16.08-3.24,0-.48-.01-.97-.02-1.45,0-.27-.03-.54-.01-.81.03-.53.1-1.06.11-1.59.03-.98.03-1.96.04-2.94,0-.21-.02-.42-.03-.56.12-.61.04-1.17.03-1.72,0-.18-.03-.37-.06-.59,0,0,.03-.03.03-.06.02-.45.04-.9.05-1.35,0-.1-.09-.21-.06-.29.11-.26.14-.51.02-.76.02,0,.06.02.14.04-.06-.6-.13-1.17-.19-1.75,0,0,.05,0,.12-.01-.06-.15-.12-.29-.18-.44-.1.08-.21.13-.27.21-.11.18-.18.38-.28.57-.1.19-.22.38-.34.57-.24.37-.48.74-.72,1.11-.08.13-.16.27-.22.38.01.03-.01-.03-.03-.06-.14.17-.29.36-.44.53-.23.26-.47.5-.7.76-.18.2-.34.42-.53.62-.27.28-.55.54-.81.82-.05.05-.04.17-.01.25,0,.03.15.05.2.02.55-.33,1.09-.67,1.63-1,.07-.05.18-.05.26-.07,0,.08.02.16.02.24,0,.26,0,.51,0,.72-.03.11-.07.16-.07.21.02.71.06,1.43.06,2.14,0,.63-.04,1.25-.06,1.88,0,.1.02.19.02.29-.03.71-.07,1.41-.1,2.12-.02.43,0,.86-.02,1.29-.01.34-.06.69-.05,1.03,0,.46.08.92.08,1.38,0,.85-.05,1.69-.06,2.54-.01.9,0,1.81-.01,2.72-.01.92-.04,1.85-.06,2.77,0,.56.01,1.13,0,1.69-.01.57-.05,1.14-.07,1.72-.02.54.23.76.77.67.04,0,.09,0,.13,0,.8.01,1.6.02,2.4.04.39,0,.78-.01,1.15.08.16.04.33.31.36.5.04.24-.04.51-.1.75-.07.29-.14.58-.25.85-.23.56-.49,1.11-.71,1.67-.03.07.06.21.12.3.01.02.15,0,.19-.04.17-.2.31-.42.47-.63.38-.5.73-1.03,1.16-1.49.66-.71,1.16-1.52,1.53-2.41.16-.37.29-.79.1-1.17-.33-.65-.89-.93-1.62-.94Z"/>
      <path class="cls-1" d="M36.68,27.22c-.51-.35-.95-.76-1.09-1.4-.02-.09-.15-.19-.25-.23-.05-.02-.17.06-.23.13-.07.08-.1.19-.15.28-.19.39-.38.79-.57,1.18-.19.38-.41.78-.07,1.17.24.28.56.48.81.75.56.6.5.99-.2,1.41-.29.17-.66.23-1,.32-.63.17-1.26.34-1.89.5-.49.13-.98.24-1.46.39-.24.07-.38,0-.37-.21.01-.24.07-.5.18-.71.47-.89,1.09-1.63,2.08-1.99.29-.1.54-.25.63-.61.18-.69.39-1.37.59-2.06.03-.11.01-.24.02-.36-.16,0-.33-.05-.47,0-.39.14-.78.3-1.15.49-.73.38-1.31.91-1.61,1.69-.16.43-.29.88-.45,1.32-.03.07-.13.11-.19.16-.04-.08-.1-.15-.12-.23-.11-.41-.2-.82-.32-1.23-.1-.34-.22-.68-.35-1.02-.14-.38-.29-.77-.47-1.13-.05-.09-.27-.17-.38-.14-.15.04-.3.17-.41.29-.32.38-.64.77-.92,1.18-.2.29-.3.6-.07.95.19.29.37.59.51.91.24.56.48,1.12.65,1.71.34,1.11.64,2.23.93,3.36.12.48.39.69.78.52.41-.17.82-.34,1.24-.5.47-.18.94-.35,1.42-.52.65-.22,1.3-.41,1.94-.66.28-.11.52-.32.75-.52.12-.1.18-.27.27-.41.3-.45.61-.89.91-1.34.21-.31.38-.66.62-.94.31-.38.36-.82.44-1.27-.11-.45-.13-.94-.58-1.24Z"/>
      <path class="cls-1" d="M17.41,29.68c.2-.23.38-.49.59-.72.2-.21.35-.88.29-1.16-.13-.58-.52-.95-.95-1.31-.27-.23-.5-.52-.74-.79-.09-.09-.17-.19-.25-.29-.1.09-.23.16-.3.27-.28.44-.53.89-.81,1.33-.16.26-.19.65,0,.82.21.2.44.39.68.56.42.29.58.69.56,1.17,0,.21-.23.31-.4.19-.42-.3-.84-.59-1.25-.91-.57-.44-1.12-.89-1.67-1.35-.22-.18-.44-.38-.64-.58-.45-.45-.64-1.03-.73-1.64-.01-.07-.09-.19-.14-.18-.08,0-.2.06-.24.13-.34.54-.67,1.08-1.01,1.62-.15.24-.28.47-.17.79.17.44.28.91.36,1.17-.1.74-.15,1.27-.24,1.79-.12.67-.27,1.33-.42,1.99-.09.37-.23.73-.34,1.1-.04.14-.09.3-.06.43.04.17.13.39.37.2.15-.11.27-.27.41-.39.12-.1.29-.17.38-.29.26-.36.48-.76.73-1.12.45-.65.72-1.37.87-2.13.02-.09.05-.18.07-.26.1.04.22.06.3.13.99.78,1.98,1.57,2.98,2.33.79.61,1.45,1.34,2.06,2.13.06.08.2.12.3.11.07,0,.19-.12.19-.2.03-.3.04-.61.03-.92,0-.3-.05-.6-.08-.9-.04-.41-.06-.82-.16-1.22-.12-.5-.63-.66-.95-.99-.19-.2-.15-.33,0-.49.12-.13.26-.25.38-.39Z"/>
      <path class="cls-1" d="M25.25,27.41c-.12-.47-.42-.8-.86-.94-.45-.14-.93-.19-1.4-.27-.48-.08-.97-.2-1.46-.21-.47-.01-.8-.21-1.1-.52-.21-.22-.37-.2-.51.08-.23.46-.45.93-.69,1.39-.17.33-.13.65.15.89.47.41,1.04.63,1.64.76.61.13,1.21.18,1.84.11.22-.03.56.05.61.38.08.52.15,1.04.18,1.56.05.74.06,1.48.08,2.22,0,.37-.02.73,0,1.1.01.16.1.33.19.47.02.03.29-.05.34-.13.29-.48.65-.95.8-1.48.23-.78.34-1.61.45-2.43.06-.5.01-1.02.01-1.53.02,0,.04-.01.06-.02-.11-.48-.23-.95-.35-1.43Z"/>
      <path class="cls-1" d="M40.71,26.52c-.37-.17-.74-.38-1.06-.63-.28-.22-.47-.23-.66.09-.27.46-.54.92-.79,1.39-.11.22-.33.48-.06.71.3.25.64.47.97.69.22.14.58.11.63.45.03.21-.01.44-.05.65-.03.15-.1.3-.17.49.06.09.11.23.21.29.07.04.25,0,.31-.06.24-.25.46-.51.67-.78.13-.17.22-.38.36-.54.37-.38.63-.78.63-1.33,0-1.06-.31-1.08-1.01-1.4Z"/>
      <path class="cls-1" d="M31.29,10.74c-.38.37-.83.67-1.26.98-.31.22-.61.47-.95.62-.77.33-1.55.65-2.35.9-.53.16-1.09.26-1.65.28-.67.03-1.35-.02-2.02-.1-.62-.08-1.23-.21-1.82-.39-.45-.14-.85-.43-1.29-.61-.74-.3-1.37-.76-1.97-1.28-.23-.2-.46-.38-.65-.54-.03-.07-.04-.12-.07-.15-.08-.09-.18-.16-.26-.25-.55-.61-.96-1.31-1.31-2.05-.08-.16-.2-.3-.46-.17.1.03.15.05.2.06,0,.02,0,.03,0,.05-.09,0-.18,0-.27,0-.03,0-.08,0-.09.01-.19.28-.41.55-.57.84-.26.49-.49,1-.73,1.5-.18.37-.17.75.04.94.37.32.73.66,1.12.94.56.39,1.14.75,1.73,1.11.29.18.59.33.9.47.44.2.88.4,1.33.57.46.18.92.37,1.39.48.68.16,1.38.24,2.07.36.22.04.43.09.65.1.23,0,.27.12.26.31-.01.27-.03.53-.03.8,0,.34.03.67.01,1.01,0,.07-.13.21-.2.21-.47-.01-.93-.06-1.4-.08-.73-.03-1.47-.05-2.2-.07-.34,0-.7-.08-.83.39-.17.63-.38,1.25-.55,1.88-.03.11.04.3.13.36.31.21.63.38.97.54.07.03.27-.05.3-.12.12-.32.2-.66.31-.99.03-.09.14-.22.21-.21.66.01,1.31.06,1.97.08.46.02.93,0,1.39.02,1,.04,2,.1,3.01.13.73.02,1.46.02,2.19.03.06,0,.14.07.16.12.07.28.13.57.16.85.05.37.45.58.75.38.23-.16.46-.32.66-.51.08-.07.16-.21.14-.31-.1-.62-.21-1.24-.36-1.85-.06-.24-.18-.51-.54-.51-.74,0-1.48-.02-2.22-.04-.53-.01-1.07-.06-1.6-.06-.36,0-.43-.2-.42-.48.01-.54.03-1.07.07-1.61,0-.08.14-.22.23-.23.68-.09,1.37-.14,2.05-.25.38-.06.75-.17,1.11-.31.79-.31,1.57-.64,2.36-.97,1.29-.54,2.41-1.36,3.52-2.19.24-.18.41-.44.31-.79-.2-.72-.42-1.43-.89-2.04-.16-.21-.31-.44-.49-.63-.07-.07-.28-.12-.33-.07-.12.09-.17.27-.26.4-.24.33-.48.66-.73.98-.31.4-.6.82-.97,1.17Z"/>
      <path class="cls-1" d="M18.81,5.46c-.01-.15-.11-.4-.35-.31-.32.13-.61.32-.92.49-.3.25-.61.46-.92.67,0,0,0,.02.01.04.04,0,.08-.01.12-.02,0,.02.01.04.02.06-.04.01-.09.03-.13.03-.25,0-.52.31-.49.56.07.62.39,1.13.76,1.59.48.59.98,1.18,1.55,1.68.61.53,1.28,1.03,2,1.41.6.32,1.29.49,1.95.67.82.23,1.66.32,2.51.21.45-.06.91-.06,1.34-.18.66-.18,1.33-.38,1.95-.67.58-.26,1.14-.6,1.63-.99.58-.47,1.14-.99,1.61-1.56.44-.53.75-1.16,1.09-1.76.07-.12.07-.36-.01-.46-.28-.34-.59-.66-.94-.93-.33-.25-.7-.45-1.07-.63-.43-.21-.56-.11-.68.35-.11.44-.26.87-.41,1.29-.09.26-.18.52-.31.76-.2.37-.4.74-.65,1.07-.2.25-.48.45-.74.65-.32.24-.64.53-1.01.67-.66.25-1.32.5-2.05.55-.97.06-1.89-.04-2.75-.51-.46-.25-.96-.5-1.32-.88-.55-.57-1.03-1.21-1.35-1.97-.26-.62-.39-1.23-.45-1.88Z"/>
      <path class="cls-1" d="M19.84,6.06c.07.26.11.54.23.78.29.61.57,1.23,1.14,1.64.38.28.75.6,1.18.78.76.32,1.55.56,2.4.32.54-.15,1.12-.24,1.61-.49.46-.23.88-.6,1.23-.98.34-.37.65-.8.85-1.25.21-.47.27-1.01.39-1.52.09-.4-.05-.62-.45-.7-.23-.05-.48-.03-.72-.06-.44-.05-.87-.12-1.31-.16-.29-.03-.5.06-.49.4,0,.06.06.13.05.18-.07.28-.16.56-.23.81.09.04.14.05.11.04-.07.21-.14.39-.18.57-.05.22-.02.48-.13.66-.15.25-.4.44-.61.65-.07.07-.15.14-.2.18-.73.1-1.34-.11-1.74-.73-.08-.34-.17-.7-.27-1.12,0,0,0,0,0,0,0,0,0,0,0,0,0,0,.01-.03.01-.06-.06-.48-.1-.95-.18-1.43-.04-.23-.22-.31-.44-.27-.13.03-.25.11-.38.12-.19.01-.38-.03-.57-.02-.18.01-.37.06-.55.1-.24.05-.48.1-.63.13-.04.19-.07.29-.09.4-.02,0-.03,0-.05-.01.01-.07.03-.15.04-.22-.04,0-.07,0-.11,0,.02.35.03.7.05,1.06.08.06.05.14.07.2Z"/>
      <path class="cls-1" d="M23.35,5.96c-.02.42.22.8.64.88.38.07.8-.15.84-.42.08-.5.19-.99.25-1.5.02-.18-.04-.42-.16-.56-.08-.09-.31-.07-.47-.07-.14,0-.27.04-.41.05-.12.02-.24.02-.36.03,0,.04,0,0,0-.07-.28,0-.38.17-.37.4,0,.42.07.84.05,1.26Z"/>
    </g>
  </g>
</svg>