<?xml version="1.0" encoding="UTF-8"?>
<svg id="Layer_2" xmlns="http://www.w3.org/2000/svg" viewBox="0 0 42.52 31.93">
  <defs>
    <style>
      .cls-1 {
        fill: #2c489e;
      }
    </style>
  </defs>
  <g id="Layer_1-2" data-name="Layer_1">
    <path class="cls-1" d="M42.47,14.68c-.01-.14-.01-.29-.03-.43-.02-.14-.07-.28-.08-.42,0-.19-.02-.39-.07-.57-.07-.27-.1-.54-.19-.81-.08-.26-.14-.52-.24-.77-.02-.05-.03-.1-.04-.15-.06-.37-.21-.71-.32-1.06-.02-.05-.06-.1-.08-.16-.08-.22-.16-.45-.24-.67-.02-.05-.06-.09-.08-.13-.06-.12-.12-.24-.18-.36-.02-.05-.04-.09-.07-.14-.13-.23-.31-.42-.39-.69-.01-.04-.04-.07-.06-.1-.26-.36-.56-.68-.78-1.07-.06-.11-.17-.18-.26-.28-.21-.24-.42-.48-.63-.73-.27-.32-.58-.6-.9-.85-.04-.03-.08-.06-.12-.09-.24-.21-.47-.43-.7-.65-.02-.02-.04-.04-.06-.05-.28-.12-.49-.33-.72-.52-.09-.07-.17-.15-.29-.17-.03,0-.06-.03-.08-.04-.23-.16-.43-.38-.71-.46-.02,0-.05-.02-.07-.04-.13-.12-.27-.21-.44-.28-.17-.07-.33-.18-.5-.27-.09-.05-.18-.11-.27-.17-.04-.02-.08-.06-.11-.06-.12,0-.21-.08-.31-.13-.08-.04-.15-.1-.23-.13-.25-.11-.5-.22-.76-.33-.18-.07-.36-.15-.54-.21-.19-.07-.41-.09-.58-.2-.19-.11-.39-.13-.58-.18-.3-.08-.58-.21-.89-.24-.22-.02-.44-.08-.65-.15-.34-.11-.69-.16-1.04-.22-.27-.05-.55-.09-.82-.15-.16-.04-.33-.06-.49-.08-.12-.01-.23-.04-.35-.05-.21-.02-.42-.01-.63-.08-.1-.04-.22-.03-.33-.04-.14-.01-.29,0-.42-.03-.25-.08-.51-.08-.77-.11-.23-.02-.45-.02-.68-.03-.36-.03-.72-.06-1.07-.09-.11-.01-.22-.02-.33-.02-.31,0-.63,0-.94,0-.2,0-.41-.01-.61,0-.39.02-.78.06-1.17.09-.28.02-.56.06-.84.05-.11,0-.22.02-.33.03-.25.03-.5.09-.76.1-.28,0-.56.04-.84.1-.13.02-.26.02-.4.06-.2.05-.42-.01-.61.12-.01,0-.04,0-.05,0-.19-.01-.37.03-.55.09-.05.02-.1.02-.15.03-.14.02-.28.02-.41.06-.28.08-.57.1-.84.21-.01,0-.02.01-.04.01-.3,0-.56.14-.84.21-.22.05-.46.06-.66.21,0,0-.02,0-.04,0-.32.1-.64.2-.96.31-.22.07-.44.15-.65.24-.24.1-.49.14-.71.29-.03.02-.07.03-.1.04-.05.02-.11.03-.15.05-.07.03-.13.08-.2.11-.29.09-.54.26-.82.37-.24.1-.47.24-.69.38-.2.12-.39.25-.58.38-.07.05-.13.11-.2.13-.16.05-.29.15-.41.26-.12.1-.23.22-.37.3-.2.11-.38.24-.55.4-.19.18-.39.35-.58.53-.24.22-.48.43-.72.64-.27.24-.53.49-.74.8-.14.21-.29.41-.45.6-.24.25-.46.51-.65.81-.05.08-.08.17-.14.25-.33.4-.53.88-.82,1.31,0,.02-.02.03-.03.05-.03.27-.28.44-.29.71,0,.01-.01.02-.02.03-.1.13-.14.29-.21.44-.08.19-.18.38-.26.58-.07.17-.11.34-.17.51-.07.19-.14.37-.2.56-.08.26-.1.55-.22.8,0,.02-.01.04-.01.06,0,.19-.03.37-.06.55-.07.35-.1.7-.14,1.05-.02.12-.02.24-.03.37-.01.19-.03.38-.04.56,0,.09-.02.18-.02.27,0,.14.02.29.01.43,0,.2-.02.4.05.59.01.03.02.06.02.09,0,.17.01.34.03.51.01.14.05.28.06.42.02.22.04.43.09.64.01.05.02.1.03.15.03.16.06.33.1.49.05.23.1.47.17.7.05.19.07.38.17.56.1.18.15.38.22.58,0,.02,0,.05.02.08.02.05.03.11.06.16.05.11.13.21.16.33.06.2.15.37.27.54.02.03.04.06.04.09,0,.12.06.21.12.3.07.11.14.23.21.35.1.18.2.36.31.54.09.14.17.28.25.43.07.14.18.27.27.4.15.22.31.44.46.66.04.05.06.12.1.16.38.41.73.86,1.16,1.22.12.1.25.19.37.29.24.21.47.43.7.64.04.04.09.06.14.09.06.03.13.06.18.1.15.12.31.25.46.37.04.03.08.08.12.09.22.05.36.22.54.35.07.05.13.13.2.14.29.07.5.29.77.4.31.14.6.34.9.51.03.02.06.03.08.04.22.09.45.18.66.28.19.08.37.18.55.28.03.01.06.03.09.03.13,0,.22.08.33.13.06.03.12.06.19.08.15.05.31.09.46.14.13.05.27.1.4.16.14.06.27.11.43.13.09,0,.17.08.26.11.22.06.45.11.67.18.22.07.46.07.68.18.02,0,.04,0,.06,0,.19.03.38.06.57.1.27.05.55.11.82.16.18.03.37.06.55.09.2.03.4.05.61.06.13,0,.27,0,.41,0,.37.04.74.09,1.1.14.1.01.2.02.3.02.32,0,.63,0,.95.02.36.01.71.05,1.07.06.41,0,.81,0,1.22-.01.11,0,.22,0,.33,0,.24,0,.47-.01.7-.02.03,0,.06,0,.09,0,.27-.02.54-.03.81-.05.23-.02.45-.04.68-.06.17-.01.34-.02.52-.02.28,0,.56-.13.84-.1.09.01.19,0,.28-.02.19-.03.37-.06.55-.09.09-.02.18-.04.27-.05.16-.02.33-.01.48-.06.17-.06.34-.03.5-.09.08-.03.17-.03.26-.04,0,0,0,.01,0,.02.17-.04.35-.08.52-.11.1-.02.2-.03.29-.05.2-.05.4-.11.59-.17.23-.07.47-.15.7-.19.34-.07.65-.24.99-.31.21-.05.41-.15.62-.22.16-.06.32-.11.48-.17.1-.04.21-.09.31-.13.03-.01.06-.05.08-.04.12.03.2-.06.29-.11.19-.1.4-.17.59-.29.06-.04.15-.03.21-.07.27-.15.54-.3.81-.45.09-.05.2-.08.29-.13.39-.23.76-.51,1.18-.7.03-.02.06-.04.09-.07.21-.15.43-.3.63-.45.11-.08.22-.17.33-.26.11-.09.2-.2.32-.27.2-.11.36-.26.52-.41.36-.36.73-.71,1.08-1.08.23-.24.43-.49.64-.74.13-.16.25-.34.37-.51.1-.15.2-.3.3-.45.13-.18.26-.35.35-.55.05-.12.12-.23.19-.34.1-.16.23-.29.3-.49.09-.25.32-.44.35-.72,0-.01.01-.02.02-.03.28-.39.38-.87.59-1.29.11-.21.16-.45.24-.68.09-.26.2-.52.26-.79.1-.44.23-.88.27-1.34.03-.28.09-.55.12-.83.02-.21,0-.43.01-.64,0-.24.02-.48.03-.72,0-.11,0-.22,0-.33,0-.17-.02-.34-.03-.51ZM9.49,26.86c-.12.17-.25.33-.35.51-.07.13-.13.27-.23.37-.11.11-.22.23-.34.29-.1.05-.24.04-.36.05-.05,0-.1,0-.15,0-.32-.04-.65-.05-.97-.27.05-.08.08-.14.13-.19.07-.09.15-.17.23-.26.09-.1.13-.11.22-.02.13.12.29.13.43.14.15,0,.32,0,.45-.14.1-.11.12-.24.16-.37.02-.07-.07-.18-.17-.21-.16-.04-.29-.14-.43-.24-.1-.07-.21-.12-.31-.18-.07-.05-.14-.1-.21-.14,0-.04,0-.05,0-.06.24-.28.34-.66.57-.95.08-.11.17-.2.3-.25.17-.06.17-.1.11-.28-.03-.1-.04-.21-.05-.32,0-.03.02-.06.04-.09.08-.11.2-.16.33-.16.1,0,.24.13.23.26,0,.11.03.18.08.27.08.14.07.21-.04.33-.05.05-.1.1-.16.13-.26.14-.36.42-.53.65-.02.03-.02.1,0,.14.04.07.1.13.16.18.15.12.31.24.49.32.12.05.23.15.34.24.1.08.09.13.02.24ZM12.85,28.68c-.12.07-.25.12-.37.19-.07.04-.14.1-.22.16.03.06.06.09.08.13.04.07.08.13.11.2.08.21.04.3-.14.39-.11.06-.22.1-.35.16-.24-.37-.48-.72-.71-1.07-.07-.1-.13-.21-.2-.31-.04-.04-.11-.09-.15-.08-.06.01-.15.04-.15.15,0,.05-.03.1-.04.14.06.2.3.14.38.34-.04.06-.08.14-.13.21-.1.14-.21.21-.39.11-.17-.09-.38-.1-.55-.22-.08-.06-.09-.11-.08-.21.04-.22.17-.37.31-.52.12-.12.25-.23.38-.35.1-.09.11-.13.04-.25-.04-.07-.09-.14-.13-.21.08-.1.15-.19.27-.21.08-.02.16-.07.23-.12.08-.05.15-.05.2.03.12.18.25.34.34.55.08.21.24.4.38.58.09.12.15.1.23-.03.01-.02.02-.05.04-.08-.03-.05-.06-.11-.09-.17-.09-.16-.09-.27.05-.39.13-.12.28-.22.42-.34.1.07.16.14.16.25,0,.04,0,.09.02.11.1.15.12.34.19.5.07.16.04.26-.11.34ZM16.17,29.03c-.11.19-.12.39-.13.6,0,.12-.03.24-.05.37-.03.2-.07.4-.09.6,0,.09-.04.13-.12.15-.18.03-.35.1-.53-.04.05-.28.11-.53.15-.78.02-.16.06-.32.16-.45.04-.05.07-.11.02-.18-.04-.07-.1-.1-.17-.08-.03,0-.08.03-.11.01-.28-.15-.59-.09-.87-.17-.14-.04-.28-.1-.42-.16-.06-.03-.09-.18-.04-.25.1-.14.22-.27.33-.4.05-.05.1-.04.15,0,.2.16.44.15.66.25.07.03.15.06.23.08.16.04.33.07.49.1.12.03.25.03.33.16.04.07.06.13.01.2ZM21.01,29.06c-.13.21-.17.44-.24.67-.02.07-.05.15-.07.22-.03.11-.05.23-.09.34-.08.27-.28.42-.5.55-.04.03-.11,0-.16.02-.22.08-.45.11-.68.15-.16.02-.33.06-.49.08-.11.02-.2-.01-.27-.11-.13-.19-.29-.36-.36-.59-.03-.1-.12-.17-.16-.26-.07-.14-.13-.29-.2-.44-.03-.08-.05-.16.01-.24.04-.05.02-.1-.03-.14-.02-.02-.05-.04-.07-.06-.2-.18-.21-.23-.07-.46.06-.09.13-.17.2-.26.02-.03.06-.05.07-.06.17.08.32.14.47.22.15.07.16.11.1.27,0,0,0,.01,0,.02-.15.27-.13.52.09.74.04.04.06.11.09.17.05.1.12.12.19.04.05-.05.1-.11.11-.18.03-.12.08-.22.17-.29.07-.06.08-.13,0-.2-.02-.02-.04-.05-.06-.07-.06-.06-.15-.09-.12-.22.04-.17.07-.35.24-.44.04-.02.11,0,.16.02.11.04.22.09.33.12.13.04.17.12.18.27,0,.16-.05.29-.14.41-.02.02-.03.04-.04.07-.07.32-.28.53-.49.75-.04.05-.09.09-.12.15-.02.03-.01.09,0,.12.01.02.07.04.1.03.19-.05.38-.12.57-.18.04-.01.07-.05.1-.04.17.01.24-.13.33-.23.02-.02.04-.06.03-.09-.04-.18.06-.3.16-.42.1-.11.08-.18-.04-.24-.14-.07-.18-.19-.1-.33.05-.1.11-.19.17-.28.03-.04.08-.08.12-.07.15.04.3.08.44.15.13.07.15.17.07.3ZM23.25,29.41c-.19.31-.43.56-.75.74-.06.03-.11.03-.15-.02-.03-.04-.06-.09-.1-.15.08-.08.14-.15.21-.21.13-.12.14-.21.02-.35-.05-.06-.11-.1-.17-.15-.22-.19-.14-.26-.05-.46,0-.02.03-.03.04-.04.09-.1.18-.19.29-.3.05.04.09.08.13.13.13.14.27.27.4.41.04.04.07.09.11.13.06.09.06.18,0,.27ZM27.95,30.1s-.1.08-.15.11c-.1.07-.22.05-.29-.06-.03-.05-.06-.11-.06-.16-.01-.15-.05-.29-.11-.43-.04-.08-.03-.19-.03-.29,0-.12.01-.25.02-.37.01-.13-.07-.2-.18-.15-.19.08-.4.09-.6.13-.15.03-.28.1-.44.09-.12,0-.25.01-.38.02-.08-.28,0-.5.09-.69.27-.02.51-.03.75-.05.16-.01.33-.02.49-.04.15-.02.3-.08.45-.11.19-.04.26.06.25.26,0,.16-.02.32.04.48.06.16.08.34.13.51.03.1.06.2.1.29.1.2.07.33-.09.48ZM32.09,28.7c-.01.15-.08.27-.18.38-.05.06-.11.08-.18.05-.17-.08-.34-.16-.51-.23-.06-.03-.12-.05-.19-.08-.05-.02-.09-.04-.14-.06-.21-.1-.41-.2-.62-.31-.11-.05-.2-.02-.27.08-.09.12-.1.25-.02.39.09.06.19.06.29.02.05-.02.1-.03.15-.04.14-.02.18.03.18.18,0,.02,0,.04,0,.06.06.39-.14.47-.44.52-.06.01-.13.04-.19.05-.11.01-.22.04-.32.01-.06-.02-.13-.13-.14-.21-.02-.24-.03-.49-.02-.73,0-.13.04-.27.07-.4.04-.15.04-.16-.09-.25-.16-.1-.16-.13-.08-.31.03-.06.05-.12.06-.18.02-.12.08-.2.2-.26.04.02.08.05.12.07.29.14.58.27.86.41.1.05.2.1.3.16.06.04.11.05.17,0,.06-.06.04-.12,0-.17-.02-.04-.05-.07-.09-.1-.06-.05-.13-.1-.19-.15-.16-.14-.16-.18-.05-.36.04-.06.08-.13.11-.2.04-.07.08-.13.13-.23.07.06.14.11.2.15.12.08.23.18.36.24.26.11.27.3.2.55-.03.11-.11.2-.17.3-.08.12-.07.2.04.28.1.07.21.12.32.16.14.06.13.06.12.22ZM34.71,27.57c-.06.05-.11.05-.16-.02-.1-.13-.19-.25-.23-.42-.03-.14-.13-.26-.19-.4-.02-.04-.03-.09-.04-.14-.02-.09-.03-.19-.04-.27-.16-.04-.27.04-.38.09-.05.02-.09.06-.14.1-.1.08-.2.15-.34.18-.14.03-.26.15-.39.23-.02,0-.03.02-.06.03-.11-.06-.18-.11-.14-.26.03-.12,0-.25,0-.38,0-.13.08-.24.2-.26.07-.01.13-.03.19-.05.11-.03.22-.06.32-.1.11-.05.21-.14.33-.19.25-.1.47-.29.71-.41.04-.02.11,0,.15.02.15.11.18.39.06.55-.06.08-.09.17-.04.27.14.27.28.54.42.8.03.06.07.11.11.17-.07.18-.2.32-.35.45ZM37.88,24.54c-.1-.04-.22-.04-.33-.03-.21.02-.41-.07-.61-.08-.2,0-.35-.13-.55-.13-.13,0-.27-.07-.4-.13-.19-.08-.4-.16-.56-.29-.31-.23-.65-.42-.92-.7-.25-.26-.52-.51-.76-.79-.38-.43-.75-.87-1.19-1.21-.15-.12-.36-.18-.54-.25-.24-.08-.49-.07-.73-.07-.32,0-.63.04-.94.05-.43.02-.86.02-1.28-.03-.26-.03-.52,0-.77-.05-.27-.04-.54-.06-.8-.13-.29-.09-.55-.24-.79-.42-.16-.12-.29-.28-.35-.49-.02-.09-.09-.16-.12-.25-.09-.31-.07-.63,0-.95.06-.23.15-.44.22-.66.02-.07.05-.15.06-.22.04-.2-.12-.35-.31-.29-.2.06-.39.13-.58.2-.19.07-.38.13-.58.2-.19.07-.37.15-.56.21-.19.07-.39.13-.58.2-.08.03-.15.05-.23.08-.08.03-.15.1-.24.06-.02,0-.05,0-.07.01-.34.14-.69.24-1.05.31,0,0-.01,0-.02,0-.28.11-.57.15-.86.22-.27.06-.55.09-.83.13-.26.04-.53.07-.79.11-.13.02-.26.06-.38.07-.12,0-.2.07-.27.16-.16.2-.34.38-.57.5-.1.05-.21.05-.31.09-.1.04-.2.08-.32.08-.24,0-.47.07-.71.09-.35.03-.7.11-1.06.08-.24-.02-.48.04-.72.07-.16.02-.31.04-.47.02-.1,0-.21,0-.31,0-.22,0-.44.03-.66.03-.3,0-.6-.01-.91-.01-.33,0-.65,0-.98,0-.23,0-.45.05-.68.09-.23.03-.44.12-.65.19-.4.12-.74.35-1.11.52-.28.13-.51.36-.81.45-.06.02-.11.08-.17.11-.12.07-.24.13-.36.21-.14.09-.27.19-.39.3-.21.18-.41.36-.64.5-.13.08-.25.2-.37.3-.17.16-.33.33-.5.47-.09.08-.21.16-.32.19-.28.08-.41.29-.52.54-.05.11-.11.2-.17.3-.04.07-.11.09-.19.09-.17.01-.33.05-.49.08-.12.02-.24.01-.36.07-.05.02-.13-.02-.22-.04.03-.08.05-.15.08-.19.27-.33.53-.66.82-.97.19-.2.42-.37.66-.5.2-.1.36-.24.54-.36.07-.05.16-.07.23-.12.11-.08.23-.16.33-.25.15-.13.3-.24.49-.31.13-.05.24-.17.35-.26.17-.14.33-.32.53-.41.25-.12.42-.32.63-.48.07-.05.16-.09.24-.13.03-.02.07-.03.1-.06.37-.28.73-.57,1.11-.83.22-.15.47-.25.74-.28.17-.02.34-.07.51-.12.02,0,.04-.02.05-.02.13.07.22-.05.33-.08.13-.04.27-.06.41-.08.04,0,.09,0,.13-.01.19-.06.39-.13.58-.2.18-.05.35-.1.53-.15,0,0,.01,0,.02,0,.18-.07.35-.15.53-.22.1-.04.17-.12.29-.11.06,0,.12-.08.2-.13-.06-.08-.1-.15-.16-.21-.18-.19-.34-.38-.45-.62-.08-.18-.22-.33-.32-.51-.11-.2-.21-.4-.29-.61-.05-.14-.06-.3-.09-.45-.01-.05-.02-.1-.03-.15-.05-.17-.05-.35-.04-.53,0-.12-.02-.24.01-.36.02-.07.03-.15.04-.22.03-.18.07-.35.1-.53,0-.02,0-.04,0-.06.08-.22.16-.44.23-.66.06-.2.18-.37.26-.56.1-.26.27-.48.39-.73.1-.21.22-.39.33-.59.14-.26.23-.54.36-.81.13-.28.23-.58.3-.88.03-.14.08-.27.12-.41.06-.22-.05-.39-.26-.42-.05,0-.09-.02-.14-.04-.11-.05-.22-.1-.32-.15-.12-.07-.24-.14-.35-.22-.18-.13-.38-.17-.6-.15-.18.02-.36.02-.53-.05-.11-.05-.19-.11-.2-.26-.01-.18-.06-.36-.08-.54-.01-.1-.02-.21-.02-.31,0-.12.17-.25.3-.26.17,0,.33-.04.5-.03.24.01.46-.07.68-.13.18-.05.37-.04.55-.05.22-.02.45-.04.67-.04.29,0,.55-.07.8-.22.21-.13.42-.15.66-.15.29,0,.58.04.86.08.14.02.27,0,.39-.1.1-.09.21-.14.34-.16.24-.04.33-.24.41-.44.06-.15.11-.29.22-.41.18-.19.38-.26.64-.22.15.02.27.08.4.13.15.06.31.11.45-.04.19-.2.45-.26.68-.34.23-.09.49-.06.74-.09.1-.01.2-.01.3-.03.1-.03.13-.13.16-.22.02-.06.05-.12.08-.19.02,0,.03,0,.05,0,.01.1.03.21.03.31,0,.12.05.19.16.19.26,0,.5-.08.75-.12.22-.03.39-.17.58-.24.19-.07.32-.2.47-.31.15-.11.3-.22.47-.3.11-.05.2-.16.31-.22.24-.13.48-.23.72-.35.21-.11.46-.11.67-.23.01,0,.02-.02.03-.01.22.03.33-.15.46-.28.11-.11.19-.24.29-.36.25-.28.52-.51.89-.62.25-.07.51-.14.77-.13.18,0,.37,0,.55,0,.09,0,.19.04.29.03.06,0,.13.03.15.14-.1.01-.2.04-.29.03-.18-.03-.34.04-.52.04-.14,0-.28.08-.42.06-.22-.04-.38.11-.56.18-.22.08-.41.25-.45.53-.02.17,0,.33.1.46.07.1.15.19.24.28.16.16.37.21.58.26.05.01.11.02.16.04.15.07.32.06.47.06.24.01.49,0,.73,0,.04,0,.08,0,.11-.02.11-.06.21-.11.33-.09.06,0,.12-.04.22-.07-.09.19-.23.23-.35.28-.17.07-.35.12-.53.17-.13.04-.26.07-.39.08-.15.02-.31.03-.47.03-.4,0-.77-.1-1.13-.28-.16-.08-.32-.16-.48-.21-.12-.04-.25-.06-.38-.06-.31.02-.6.13-.89.23-.14.05-.28.09-.4.19-.02.01-.05.02-.07.02-.07.02-.16.03-.22.08-.15.1-.29.19-.45.26-.16.07-.3.18-.45.28-.1.06-.19.12-.28.18-.04.03-.08.06-.12.09-.08.06-.14.14-.13.24,0,.08.18.21.26.23.05,0,.11.02.16.05.16.11.34.07.5.1.1.02.21,0,.31-.02.36-.04.69-.2,1.03-.39-.02.11-.08.18-.14.24-.23.24-.5.4-.82.49-.09.03-.19.03-.29.03-.26,0-.52,0-.78-.02-.1,0-.19-.04-.29-.07-.21-.07-.42-.16-.63-.23-.07-.02-.15,0-.21-.04-.14-.07-.28-.11-.43-.12-.11,0-.22-.02-.33-.02-.04,0-.08.04-.11.07-.06.08-.12.17-.16.26-.1.23-.25.37-.47.47-.34.15-.65.05-.96-.07-.12-.05-.24-.1-.37-.13-.1-.03-.17.02-.21.11-.03.08,0,.14.1.2.07.05.15.08.23.12.05.02.1.04.16.06.14.06.29.11.43.18.15.07.3.12.46.13.13,0,.27,0,.4,0,.31,0,.53-.19.75-.38.04-.04.09-.08.14-.1.04-.02.09,0,.14,0,0,.04,0,.1-.02.12-.13.15-.26.3-.41.42-.33.26-.72.35-1.13.3-.25-.03-.49-.08-.73-.18-.13-.05-.27-.12-.4-.14-.33-.04-.64-.19-.98-.16-.08,0-.16.03-.24.05-.07.02-.12.06-.16.15-.04.12-.11.23-.28.2-.07-.01-.16.01-.24.02-.09.01-.15.11-.13.21.02.09.07.12.17.09.27-.08.56-.08.84-.07.09,0,.17.04.28.06-.1.31-.32.48-.56.63-.14.09-.46.1-.81.03-.03.14-.07.27-.09.41-.02.16-.01.32-.05.48-.07.31-.16.62-.24.92-.05.19-.09.38-.14.58,0,.03,0,.05-.02.08-.07.12-.09.25-.12.38-.04.17-.07.34-.11.5-.04.19-.08.38-.09.57,0,.21,0,.43.05.63.08.32.21.65.5.82.21.12.42.23.67.27.31.06.62.06.94.09.5.04,1.01.05,1.51,0,.13-.01.27,0,.4,0,.1,0,.2-.02.29-.02.23-.01.46-.04.7-.03.27.01.53-.03.79-.04.2,0,.39,0,.59,0,.21,0,.42-.03.63-.04.22,0,.45-.01.67-.02.1,0,.2-.02.29-.02.32-.01.64-.04.96-.02.2.01.4,0,.59-.03.36-.04.71,0,1.06.04.15.01.31,0,.46.02.08,0,.15.06.23.08.34.06.62.25.9.45.22.16.4.36.52.61.07.14.13.28.17.43.04.15.05.31.05.46,0,.2-.16.41-.36.43-.21.03-.31.15-.35.35,0,.02,0,.04-.01.06-.14.19-.18.43-.29.63-.13.27-.25.54-.33.83-.01.06-.04.11-.05.17-.01.05-.01.11-.01.16,0,.01.01.02.01.04-.04.38.24.56.47.75.1.09.24.14.37.2.2.08.4.16.61.2.25.05.51.07.77.1.15.02.3.05.45.07.14.02.28.06.42.07.14,0,.26.07.35.17.24.26.46.53.7.8.12.13.25.26.35.41.16.21.3.43.45.64.08.11.17.21.26.31.12.14.26.27.38.4.17.19.37.33.58.45.06.03.13.06.18.11.17.16.37.14.58.16.2.02.41,0,.57.17.05.05.14.07.22.07.15.01.3.01.45-.08.06-.04.17,0,.26,0,.2.31.4.6.6.91-.08.09-.14.16-.27.1Z"/>
  </g>
</svg>