<?xml version="1.0" encoding="UTF-8"?>
<svg id="Layer_2" xmlns="http://www.w3.org/2000/svg" viewBox="0 0 38.81 37.83">
  <defs>
    <style>
      .cls-1 {
        fill: #2c489e;
      }
    </style>
  </defs>
  <g id="Layer_1-2" data-name="Layer_1">
    <g>
      <path class="cls-1" d="M1.25,22.35c.12,0,.24-.04.36-.04.44-.01.88-.02,1.32-.02.17,0,.34.01.5.05.27.06.38-.03.39-.31,0-.05.03-.09.03-.13.01-.15.03-.31.03-.46,0-.12-.03-.24-.03-.37-.02-.5-.03-1-.06-1.5-.02-.26-.1-.52-.11-.77-.01-.3.06-.6.03-.89-.04-.41-.07-.8.04-1.2.01-.04,0-.09,0-.14,0-.34,0-.68-.02-1.02-.02-.34-.03-.69-.09-1.03-.02-.09-.19-.22-.29-.22-.71,0-1.41,0-2.12.04-.23.01-.49,0-.64.15.05.45.1.86.13,1.26.04.53.07,1.07.1,1.6.03.55.07,1.1.08,1.65,0,.3-.02.6-.03.9,0,.2,0,.4-.01.61,0,.1,0,.2-.02.3,0,.07-.04.14-.04.22-.01.27.07.53-.01.81-.1.33.11.55.46.54Z"/>
      <path class="cls-1" d="M17.32,28.94c-.27.05-.27.23-.3.51.04.08.08.24.18.36.15.18.31.11.47-.03.3-.25.67-.42.91-.76.28-.4.25-.63-.18-.84-.13-.06-.24-.16-.34-.26-.03-.02-.03-.11-.01-.14.04-.07.11-.12.15-.19.06-.12.16-.26.12-.36-.04-.1-.2-.18-.32-.21-.25-.07-.79.25-.87.49-.04.13-.08.26-.07.39.02.27.17.48.35.67.15.16.12.32-.09.36Z"/>
      <path class="cls-1" d="M5.98,14.82c-.15.07-.25.13-.17.31-.54.14-.55.66-.76,1.03-.1.19-.05.44-.09.63-.05.2-.05.31.1.39-.02.12-.05.3-.04.3.22.07.19.3.3.43.12.16.3.29.38.47.1.22.28.29.47.36.14.05.28.11.42.17.11.04.22.09.34.12.66.2,1.33.39,1.99.59.07.02.12.15.15.23.02.08,0,.17,0,.25.03.23-.12.4-.28.46-.18.07-.4.06-.59.03-.22-.04-.42-.16-.64-.22-.42-.12-.83-.23-1.25-.35-.01,0-.03-.02-.04-.02-.21-.04-.41-.09-.62-.11-.06,0-.16.08-.19.15-.23.49-.44.99-.66,1.49.02,0,.05,0,.07-.01.04.13.08.26.13.39.02.05.07.12.12.13.38.07.76.14,1.14.19.28.03.56.02.84.05.32.03.63.16.96.09.21-.05.43-.1.65-.1.25,0,.43-.12.63-.23.08-.05.15-.11.23-.15.63-.32.98-.86,1.25-1.49.06-.14.17-.27.18-.42.03-.55.05-1.1-.15-1.62-.07-.19-.19-.38-.33-.51-.18-.17-.41-.29-.63-.4-.18-.1-.37-.18-.57-.23-.21-.06-.43-.08-.65-.12-.17-.03-.34-.06-.51-.11-.27-.08-.56-.13-.81-.26-.17-.08-.35-.24-.42-.41-.08-.18.13-.29.28-.36.47-.24.93-.12,1.39.04.26.09.46.32.77.31.15,0,.34.05.45.15.25.22.58.18.73-.11.03-.06.06-.13.1-.18.21-.3.29-.64.34-.99,0-.08,0-.19-.05-.23-.17-.14-.34-.31-.53-.38-.76-.27-1.55-.34-2.34-.42-.33-.03-.69-.03-1.01.17-.33.2-.68.36-1.04.52Z"/>
      <path class="cls-1" d="M16.72,5.17c.12.1.3.15.46.18.22.04.45.04.67.04.29,0,.59-.02.88,0,.28,0,.57.05.85.07.32.02.65.02.97.02.17,0,.34-.02.5-.03,0,0,0-.01,0-.02.16.02.31.04.47.05.09,0,.12.05.14.13.03.12.03.24.01.37-.02.16.01.33.01.49,0,.18-.03.37,0,.55.02.18.02.34-.05.5,0,.02-.01.04-.01.07,0,.24.02.47,0,.71,0,.21-.04.42-.07.63-.01.09-.04.18-.03.27.02.17.01.34-.08.49-.02.03,0,.09,0,.13,0,.13.03.26-.03.39-.06.14-.05.3.04.34.05.02.12.03.17.02.37-.11.75-.21,1.12-.34.18-.06.34-.17.51-.27.04-.02.08-.07.08-.11.02-.18.04-.35.04-.53,0-.2,0-.39-.03-.59-.03-.25.1-.48.03-.74-.07-.26.03-.55-.07-.82,0-.01.01-.04.01-.05,0-.19,0-.37-.01-.55,0,0,0-.02,0-.03,0-.06,0-.12,0-.18,0-.07.02-.14.01-.21-.01-.16-.03-.33-.05-.49,0,0,0-.02,0-.02.03-.21.06-.42.08-.62.01-.19-.09-.38-.02-.58,0-.03-.02-.07-.02-.1-.03-.17,0-.35-.05-.52,0-.03.02-.08.01-.1-.08-.12-.16-.24-.24-.36-.03-.04-.08-.07-.1-.12-.1-.19-.27-.26-.46-.31-.2-.05-.41-.08-.62-.11-.17-.02-.35-.03-.52-.03-.3,0-.6.02-.89.03-.26,0-.52,0-.77,0-.3,0-.6,0-.9-.04-.23-.03-.45-.11-.67-.19-.21-.08-.41-.18-.62-.27-.05-.02-.15-.02-.17.02-.09.11-.2.24-.22.38-.05.38-.22.72-.31,1.09-.07.3-.16.6-.21.9-.04.2.03.4.18.52Z"/>
      <path class="cls-1" d="M7.99,10.82c.16-.07.32-.01.48-.03.19-.02.38-.01.57-.02.07,0,.14,0,.22,0,.29,0,.57-.01.86-.02.13,0,.27,0,.4,0,.09,0,.19.04.22-.11.03-.17.08-.34.12-.51.02-.07.02-.14.03-.21.02-.2.04-.41.06-.61,0,0,0,0,0-.01.04-.17.09-.34.13-.52.04-.17-.09-.36-.25-.38-.28-.04-.56-.07-.85-.1-.18-.02-.37-.02-.53-.15-.19-.14-.32-.33-.33-.58-.01-.26,0-.53.02-.79,0-.03,0-.06.02-.08.07-.06.04-.11,0-.18-.05-.12.04-.25.16-.26.09-.01.13.03.18.09.1.09.23.16.33.25.12.1.22.21.34.31.15.13.34.21.44.39.01.02.06.02.09.04.15.11.29.22.43.33.05.04.1.1.15.14.09.07.22.11.26.2.07.16.22.19.33.28.18.15.38.27.58.4.06.04.13.07.23.13.05.16.16.3.38.3.02,0,.04.04.07.06.03.03.06.05.09.08.06.05.13.11.19.16.04.04.08.08.13.1.14.07.28.13.41.2.17.1.32.22.49.32.08.04.16.06.19.16.01.04.08.06.12.09.04.02.08.04.11.06.07.07.27.13.34.07.07-.05.12-.14.16-.22.07-.11.13-.22.2-.33.07-.1.15-.19.23-.3.06-.09.14-.17.15-.27.02-.17.11-.31.17-.45.04-.1.12-.18.15-.28.05-.16.08-.34.12-.54-.07-.04-.17-.08-.26-.13-.08-.04-.18-.07-.24-.14-.15-.16-.32-.29-.53-.35-.06-.02-.11-.07-.16-.11-.22-.19-.42-.39-.64-.55-.2-.15-.43-.25-.61-.43-.01-.01-.04,0-.05-.01-.04-.02-.08-.04-.1-.07-.12-.16.02-.56.22-.6.25-.05.5-.09.77-.05.23.03.46.02.68-.1.18-.09.29-.31.27-.51,0-.03,0-.08,0-.09.09-.11.08-.2-.02-.27.04-.08.08-.14.1-.21.02-.07,0-.15.01-.22.02-.1.08-.21.07-.3-.02-.19.09-.33.14-.49.01-.06.03-.12.01-.17-.06-.19-.22-.28-.41-.27-.26.01-.51,0-.77,0-.02,0-.03,0-.05-.01-.14-.04-.28-.07-.41-.11-.2-.06-.42-.06-.59-.23-.06-.06-.14-.09-.21-.15-.03-.02-.06-.05-.08-.09-.11-.2-.14-.21-.36-.15-.17.05-.24.25-.13.4.1.13.12.27.08.43,0,.03-.01.08,0,.09.13.13.07.3.08.45.01.19.03.39-.02.59-.05.18-.02.38-.03.57,0,.05,0,.1-.02.15-.03.14-.07.27-.11.41-.02.05-.04.13-.08.15-.05.02-.13,0-.18-.03-.08-.05-.13-.13-.2-.19-.23-.2-.46-.39-.69-.59-.08-.07-.15-.14-.22-.21-.12-.12-.24-.25-.37-.36-.12-.11-.26-.21-.38-.32-.11-.1-.18-.26-.35-.3-.02,0-.04-.05-.06-.07-.08-.08-.15-.17-.23-.25-.07-.06-.16-.11-.23-.17-.09-.08-.19-.15-.25-.24-.06-.11-.15-.1-.22-.09-.06.01-.12.07-.16.13-.07.09-.11.2-.17.3-.13.2-.26.4-.38.59-.01.02-.02.04-.04.06-.12.12-.23.24-.35.36-.05.05-.13.09-.16.15-.1.18-.2.37-.26.57-.05.14-.05.3-.06.46,0,.13,0,.26,0,.4,0,.01,0,.02,0,.04.03,0,.06.01.09.02-.02.14-.05.26-.05.38,0,.18.05.36.05.54,0,.54-.03,1.08-.04,1.61,0,.07.03.16,0,.21-.08.15-.05.31-.07.47-.01.14-.01.29-.03.43-.02.15-.05.3-.07.45-.03.22-.02.45-.08.66-.04.15.05.21.09.31,0,.02.07.04.09.03Z"/>
      <path class="cls-1" d="M23.05,20.88c.24-.06.66.14.73.35.1.27.2.54.31.81.02.05.08.11.13.11.35,0,.68.3,1.05.08.02-.01.06,0,.09,0,.3-.01.61,0,.91-.04.27-.03.44-.3.37-.55-.11-.4-.23-.81-.35-1.21-.06-.2-.14-.4-.22-.6-.04-.11-.12-.21-.14-.32-.08-.36-.14-.73-.22-1.1,0-.03-.04-.04-.06-.07-.1-.2-.21-.39-.28-.6-.09-.26-.14-.54-.2-.8-.02-.07,0-.14-.02-.2-.02-.12-.03-.23-.06-.35-.01-.06-.09-.14-.07-.16.15-.22,0-.4-.09-.58-.19-.41-.09-.92-.44-1.28,0,0,0-.03,0-.04-.02-.23-.26-.43-.48-.41-.36.02-.72.06-1.07.06-.6,0-1.21-.05-1.81-.06-.09,0-.25.07-.26.12-.05.28-.06.57-.09.86-.02.27-.02.55-.07.81-.08.42-.22.83-.31,1.25-.08.39-.13.78-.2,1.17-.02.14-.04.27-.07.41-.09.43-.16.86-.27,1.28-.1.4-.23.79-.35,1.19-.06.2-.17.39-.17.59,0,.17.09.35.18.5.1.15.24.06.37,0,.02,0,.05-.01.07,0,.19.2.44.03.62.1.6-.02.66-.08.73-.68.02-.21.05-.43.27-.53.12-.05.25-.06.38-.07.26-.02.52-.02.77-.03.1,0,.21.01.3-.01ZM21.86,18.84c.03-.06.03-.13.04-.19,0-.06,0-.12,0-.18.13-.5.25-1,.39-1.49.02-.07.1-.12.15-.17.05.06.11.12.15.18.08.13.15.26.21.39.04.08.05.17.07.26.03.23-.04.5.2.65.04.02.04.11.06.16.02.1.02.21.07.29.08.13.14.22.02.36-.09.1-.15.19-.31.18-.27,0-.55.03-.82.02-.28-.01-.37-.21-.24-.47Z"/>
      <path class="cls-1" d="M21.92,25.98s.14.02.19,0c.04-.03.07-.12.06-.18-.03-.16-.08-.32-.13-.47-.06-.18-.14-.35-.21-.53-.07-.18-.14-.37-.23-.54-.07-.13-.34-.18-.48-.12-.34.15-.7.27-1.03.45-.14.08-.28.26-.32.42-.05.18,0,.39.01.59.02.19.07.38.08.56.02.26,0,.52.01.77.03.61.05,1.23.09,1.84.03.53.06,1.06.08,1.59.02.42.02.83.07,1.25.08.69,0,1.37-.05,2.05-.03.43-.11.85-.17,1.29.03.07.05.13.08.2.06-.03.14-.05.19-.09.21-.21.41-.43.62-.64.21-.21.31-.48.42-.76.14-.33.07-.73.32-1.02-.06-.35.15-.67.08-1.02-.03-.19.08-.4,0-.61,0-.02.02-.05.02-.08.02-.11.04-.23.04-.34,0-.24-.08-.5-.01-.7.09-.27-.15-.54.05-.79.02-.02-.03-.09-.05-.13-.02-.05-.06-.1-.06-.15.01-.37.07-.74-.01-1.11,0-.03.01-.05.01-.08,0-.12.01-.23.02-.35,0-.06-.01-.13,0-.18.1-.24.02-.47-.09-.67-.09-.17-.02-.29.06-.39.07-.09.19-.15.33-.05Z"/>
      <path class="cls-1" d="M35.45,5.22c.32.13.66.1.99.11.14.03.28.06.42.08.14.02.22.1.22.25,0,.18-.02.36-.04.55,0,.08-.02.16-.03.24-.02.14-.04.28-.05.42,0,.07,0,.14.02.2.01.05.04.11.08.15.02.01.08-.03.12-.05.02,0,.04-.02.06-.04.27-.21.63-.27.87-.54,0-.01.03-.01.05-.02.23-.08.29-.14.28-.38-.01-.24.1-.49-.02-.72,0-.01,0-.04.01-.06,0-.07.01-.13.02-.2,0-.05,0-.1,0-.15.03-.19.08-.38.11-.57.03-.15.06-.31.06-.47,0-.13-.04-.27.03-.39,0,0,0-.03,0-.04-.06-.14-.06-.31-.19-.42-.1-.08-.19-.2-.31-.23-.29-.06-.6-.08-.9-.12-.09-.01-.18-.03-.27-.03-.28-.02-.5-.13-.62-.42-.05-.13-.28-.18-.35-.08-.13.19-.24.39-.29.62-.02.1-.06.19-.09.29-.05.15-.07.32-.15.45-.12.2-.18.41-.22.64-.01.05.01.12,0,.16-.06.15-.08.28-.06.45.03.19.11.28.26.34Z"/>
      <path class="cls-1" d="M38.02,25.27c-.04-.52-.1-1.03-.37-1.51-.09-.16-.16-.17-.3-.11-.49.23-.97.47-1.46.7-.31.14-.35.21-.34.55.02.39.02.78.04,1.16,0,.1.03.2.02.3-.04.39-.03.78.04,1.17.03.15-.08.32.05.47,0,0-.01.02-.01.04-.02.11-.04.23-.04.34.02.28.08.56.08.85,0,.33-.07.66-.01,1,.04.27.03.55.03.82,0,.39-.02.78-.05,1.17-.01.18-.11.36-.1.53.03.43,0,.85-.05,1.27-.04.28-.04.57-.06.85,0,.08.03.16.04.23.09-.04.21-.05.25-.12.17-.27.32-.56.46-.85.19-.42.38-.83.7-1.18.02-.03.03-.07.04-.11.05-.17.11-.33.16-.5.04-.12.14-.25.12-.34-.09-.28.15-.49.1-.76-.03-.15-.01-.32,0-.47.04-.29.11-.59.13-.88.01-.22-.04-.45-.07-.67,0-.03-.02-.07,0-.08.13-.12.07-.26.08-.4.04-.4.1-.79-.07-1.17-.01-.03.02-.08.02-.12.01-.07.04-.15.04-.22,0-.32,0-.64,0-.96h-.06c0-.35.09-.41.44-.34.09.02.22-.1.3-.18.08-.08.08-.18-.02-.27-.06-.06-.13-.14-.13-.22Z"/>
      <path class="cls-1" d="M18.14,34.01c.15-.19.28-.4.41-.6.13-.19.27-.37.39-.57.07-.11.07-.27.13-.38.1-.17.1-.32,0-.48-.03-.05-.06-.12-.05-.17.02-.35-.18-.6-.39-.84-.05-.05-.17-.1-.23-.08-.33.13-.66.27-.98.44-.07.03-.13.16-.13.25,0,.42.06.84.05,1.26,0,.21-.08.45-.34.5-.25.05-.5.06-.75.11-.29.06-.56-.02-.82-.13-.12-.05-.22-.13-.32-.22-.15-.13-.31-.26-.42-.41-.14-.21-.25-.44-.36-.66-.08-.16-.15-.15-.28-.04-.33.27-.65.56-1.01.78-.41.24-.83.5-1.35.51-.27,0-.5.02-.65-.21-.14-.21-.29-.44-.32-.67-.03-.29.06-.58.1-.88,0-.03,0-.07,0-.1-.02-.25,0-.48.17-.67.02-.02.04-.06.03-.07-.12-.16-.02-.32-.01-.47,0-.28,0-.55,0-.83,0-.03.04-.06.05-.09.04-.1.12-.2.11-.3-.03-.32.18-.63.03-.94,0-.01,0-.03,0-.04.01-.17.02-.34.03-.51,0-.2.15-.32.35-.3.04,0,.08.02.12.02.06-.01.13-.02.16-.06.02-.03-.01-.11-.03-.16-.06-.16-.14-.32-.19-.49-.09-.28-.16-.57-.24-.86-.06-.2-.12-.4-.17-.6-.04-.18-.13-.24-.3-.18-.4.14-.8.29-1.2.43-.26.08-.43.34-.39.61.04.3.1.59.12.89.02.31,0,.63,0,.94,0,.14.04.28.03.42-.04.38-.11.75-.14,1.12-.01.15.06.31.05.46-.01.25-.06.5-.09.74,0,.07-.02.15-.02.22-.02.46-.03.91-.06,1.37-.01.17-.05.37-.15.5-.22.28-.48.53-.74.79-.06.06-.18.08-.21.15-.12.24-.37.3-.58.4-.44.21-.91.37-1.36.55-.15.06-.3.18-.46.19-.3.03-.62-.02-.92.03-.41.07-.78,0-1.16-.12-.11-.04-.23-.07-.34-.11-.23-.09-.5-.13-.66-.37-.02-.02-.06-.03-.09-.04-.31-.12-.54-.32-.63-.66-.08-.3-.19-.58-.29-.87-.01-.03-.04-.05-.07-.09-.04.04-.09.06-.11.1-.13.23-.23.47-.37.68-.22.31-.31.64-.24,1.02.05.26,0,.56.09.8.13.32.35.6.54.89.04.05.1.09.16.12.12.08.26.16.37.25.4.33.85.51,1.36.53.41.02.82.03,1.23.02.23,0,.45-.07.67-.14.37-.12.75-.25,1.11-.41.22-.1.4-.3.63-.39.58-.24.93-.74,1.36-1.15.28-.27.54-.56.82-.84.11-.11.2-.08.27.06.1.21.18.44.4.57.2.12.39.26.58.37.2.11.5.08.74.04.22-.04.42-.19.63-.27.5-.18.97-.39,1.32-.81.15-.18.44-.12.58.07.11.17.25.32.39.47.16.17.35.32.52.47.06.05.12.11.2.14.15.06.31.11.47.15.17.05.36.06.53.12.22.09.41.07.6-.06.23-.14.45-.32.7-.39.49-.12.75-.48,1.03-.84Z"/>
      <path class="cls-1" d="M33.81,31.2c-.28.09-.58.17-.87.22-.34.06-.64.41-.58.75.04.2.09.4.14.6.07.23-.08.61-.31.65-.34.06-.7.02-.94-.25-.28-.31-.61-.58-.77-1-.09-.25-.28-.27-.52-.13-.39.22-.77.47-1.17.65-.45.2-.87.46-1.39.48-.35.01-.69-.16-.85-.48-.16-.32-.13-.67-.17-1-.04-.34.02-.68.05-1.02.02-.21-.07-.36-.28-.4-.29-.06-.57,0-.83.11-.13.06-.27.11-.4.16-.35.12-.65.3-.89.58-.08.1-.15.21-.23.32-.22.32-.3.67-.28,1.05,0,.19.04.38.07.56-.05.56-.12,1.11-.43,1.59-.11.17-.18.38-.33.51-.3.25-.62.49-.96.68-.41.23-.83.43-1.27.61-.27.12-.57.18-.85.27-.29.09-.57.2-.86.28-.1.03-.21,0-.3.04-.21.09-.41.06-.62.04-.07,0-.17.01-.2.06-.03.04,0,.17.04.19.17.11.35.23.55.28.3.09.62.14.94.2.07.01.14.03.2.02.54-.06,1.09-.12,1.63-.2.19-.03.37-.09.55-.16.22-.08.42-.2.64-.28.48-.18.97-.36,1.27-.83.02-.03.06-.05.09-.08.15-.16.32-.3.43-.47.17-.28.36-.56.29-.93-.02-.12.1-.25.12-.39.03-.32.03-.65.05-.97,0-.06.03-.12.04-.18s.04-.12.03-.18c-.03-.27-.1-.54-.09-.81.01-.27,0-.58.38-.69.28-.09.42-.03.43.27,0,.05.01.09.02.14.07.3.13.6.21.9.08.27.17.53.28.79.07.15.19.28.3.4.26.25.58.35.92.46.55.17,1.05-.03,1.47-.28.42-.26.73-.69,1.09-1.04.05-.05.15-.08.23-.08.04,0,.09.1.11.16.07.25.13.5.33.69.33.31.73.5,1.14.66.13.05.31.05.45.02.21-.04.41-.12.62-.17.27-.07.51-.17.71-.38.11-.11.23-.24.37-.28.18-.06.26-.18.35-.32.19-.28.26-.6.32-.92.03-.15.05-.29.04-.44,0-.22-.04-.45-.05-.67,0-.3-.22-.45-.51-.35Z"/>
      <path class="cls-1" d="M24.34,5.22c.1.04.21.06.32.06.18,0,.36-.04.54-.06.11-.01.15.04.12.15-.03.14-.07.29-.1.43-.01.07,0,.15-.03.2-.11.23-.08.49-.09.73-.03.42-.02.85.02,1.27.02.24.14.47.21.7.03.09.06.19.1.28.01.04.04.07.06.1.02.03.06.05.07.08.07.27.29.4.45.58.07.08.13.16.21.21.15.11.31.24.48.29.2.07.35.28.58.25.02,0,.04.02.06.03.17.06.34.13.52.19.08.03.18.03.27.05.06,0,.11.02.16.04.05.02.09.05.14.06.15.02.3.03.45.05.11.01.21.04.32.03.13,0,.27-.02.4-.06.23-.07.48,0,.72-.11.18-.08.38-.12.57-.19.37-.14.75-.25,1.09-.49.25-.18.52-.35.7-.62.12-.17.24-.34.37-.51.05-.06.15-.1.18-.17.13-.26.24-.52.35-.79.09-.22.18-.44.28-.66.04-.09.08-.18.1-.27.04-.22.07-.43.1-.65,0-.02.02-.04.03-.06.08-.23.17-.45.1-.71,0-.02,0-.05.02-.08.08-.15.15-.29.11-.47,0-.02,0-.05,0-.07.05-.26.12-.52.15-.79.04-.32.04-.64.06-.96,0-.21-.05-.4-.15-.57-.02-.03-.06-.07-.09-.07-.15-.04-.3-.07-.46-.09-.22-.03-.44-.04-.66-.05-.02,0-.04,0-.05,0-.21.08-.34-.02-.46-.2-.04-.06-.14-.11-.22-.11-.09,0-.15.07-.19.18-.08.24-.19.47-.27.71-.07.19-.12.39-.17.59-.04.16-.07.33-.12.49-.04.12-.11.24-.15.36-.08.23.02.54.19.62.19.09.39.08.59.08.22,0,.43-.02.65,0,.09,0,.2.08.24.15.04.08.02.21,0,.3-.05.2-.12.4-.2.59-.08.19-.18.38-.29.56-.08.13-.16.27-.26.37-.14.14-.31.25-.46.38-.28.23-.62.31-.96.4-.33.09-.66.17-1,.24-.06.01-.12,0-.18,0-.06,0-.13,0-.19-.01-.08-.03-.16-.09-.22-.14-.01-.01.02-.1.04-.14.05-.08.1-.15.15-.23.01-.02,0-.05,0-.08,0-.03,0-.07,0-.09.1-.26.21-.52.31-.78.1-.27.2-.54.29-.81.02-.05.04-.11.06-.16.06-.15.13-.29.19-.44.02-.04.03-.09.04-.13.01-.05.01-.11.03-.16.08-.19.23-.36.25-.55.02-.22.25-.38.15-.62,0,0,0-.03.01-.04.04-.09.06-.19.11-.28.07-.14.03-.32.17-.43.02-.01,0-.08-.02-.12-.02-.07-.04-.13-.06-.2-.01-.04-.03-.08-.05-.12-.08-.12-.2-.14-.34-.14-.35,0-.69-.05-1.04-.07-.28-.02-.51-.13-.67-.38-.07-.1-.35-.09-.4.02-.08.15-.14.31-.2.48-.1.29-.19.58-.28.86-.02.07-.05.15-.09.21-.14.22-.21.46-.24.72,0,.09,0,.18,0,.28.01,0,.03,0,.04,0-.03.03-.05.07-.09.11.06.1.1.21.18.26.11.07.24.11.36.14.13.02.27.02.4.02.14,0,.35.17.32.28-.06.28-.12.56-.2.84-.09.31-.19.62-.29.93,0,.03-.03.05-.05.08-.03.06-.06.13-.09.19-.05.11-.08.23-.15.31-.12.15-.26.16-.44.06-.13-.07-.25-.15-.37-.22-.13-.08-.26-.15-.37-.24-.09-.07-.15-.16-.18-.28-.04-.2-.15-.35-.31-.48-.01-.01-.02-.04-.02-.06-.02-.26-.04-.51-.06-.77,0-.08-.02-.16,0-.23.04-.22.12-.44.12-.66,0-.27.18-.49.14-.76,0-.02.02-.05.03-.07.02-.06.05-.12.06-.18.02-.12.02-.24.06-.36.05-.18.13-.36.18-.54.05-.16-.05-.35-.2-.4-.11-.04-.24-.06-.34-.11-.09-.04-.16-.06-.25,0-.03.02-.07.03-.1.03-.36-.08-.74.01-1.09-.15-.07-.03-.13-.08-.18-.13-.05-.05-.07-.13-.12-.18-.04-.04-.11-.08-.15-.07-.06.02-.12.08-.15.14-.06.12-.09.25-.13.38-.07.22-.13.44-.2.67-.04.16-.07.34-.12.5-.09.28-.2.55-.2.86,0,.34.09.54.39.65Z"/>
      <path class="cls-1" d="M27.54,22.25c.14.03.29,0,.44-.02.05,0,.1,0,.15,0,.11.02.21.05.32.08,0-.02.02-.05.02-.07.05.05.1.09.13.12.17-.06.29-.15.43-.16.41-.03.83-.07,1.24-.05.68.03,1.35-.11,2.03-.06.08,0,.16,0,.25,0,.23.02.4-.2.34-.42-.09-.35-.16-.69-.24-1.04,0-.03,0-.06,0-.09.05-.35.05-.36-.3-.37-.11,0-.22,0-.33.02-.17.03-.34.07-.51.1-.22.03-.45.01-.65.08-.3.1-.58.06-.86-.01-.16-.04-.21-.13-.15-.29.02-.06.02-.14.01-.2-.04-.28-.1-.55-.14-.83-.05-.38.19-.55.55-.43.08.03.18.04.27.04.39.02.79.05,1.18.05.17,0,.39-.02.48-.13.12-.14.19-.38.2-.57.01-.28-.03-.57-.11-.85-.08-.3-.23-.34-.45-.36-.09-.01-.19,0-.29.02-.17.03-.34.06-.51.1-.29.07-.58-.2-.87.02-.01,0-.05-.02-.08-.03-.26-.07-.4-.23-.41-.51,0-.19,0-.38-.04-.57-.04-.22.07-.27.24-.3.34-.05.67-.05,1.01.01.36.07.74.05,1.1.09.13.01.25.09.33-.09.05-.12.15-.23.15-.35,0-.31-.03-.63-.06-.94-.03-.27-.15-.35-.41-.32-.1.01-.2,0-.3,0-.64,0-1.28-.02-1.92-.02-.47,0-.94.02-1.41.01-.27,0-.54-.04-.81-.04-.4,0-.53.15-.47.57.05.36.14.71.17,1.06.05.59.07,1.19.1,1.78.02.32.05.64.08.96,0,.04,0,.09-.01.14-.01.19-.03.37-.03.55,0,.25.04.5.04.75,0,.2-.03.41-.04.61,0,.02.01.04.02.06.02.09.05.19.05.28-.02.44-.07.89-.08,1.33,0,.09.09.24.16.26Z"/>
      <path class="cls-1" d="M38.8,20.76c-.03-.21-.07-.42-.1-.64-.04-.26-.15-.32-.4-.23-.52.19-1.06.2-1.6.23-.1,0-.28-.11-.31-.2-.06-.23-.06-.47-.06-.71,0-.47.04-.95-.01-1.41-.04-.32.04-.62,0-.94-.05-.4.08-.83.08-1.25,0-.39.05-.79.08-1.12,0-.13,0-.2,0-.27-.04-.32-.09-.37-.4-.39-.22-.01-.45,0-.67,0-.03,0-.06.02-.09.02-.1,0-.21,0-.31,0-.32.01-.64.02-.96.05-.13.01-.31.04-.38.13-.06.09,0,.27,0,.41,0,.38-.01.75.01,1.12.02.33.09.67.14,1,.05.37.17.73.01,1.11,0,.02,0,.05,0,.07.04.25.08.5.12.75.05.33.08.65-.06.97-.04.09-.02.21-.03.32-.02.39.19.79-.08,1.16,0,.01,0,.03,0,.04.06.33.1.66.17.98.03.15.15.22.31.21.21,0,.43,0,.64,0,.27,0,.54.04.81.02.82-.07,1.65-.08,2.47-.04.19,0,.43-.01.47-.26.04-.23.02-.47.03-.7,0-.08.03-.15.04-.22.01-.07.03-.14.02-.2Z"/>
      <path class="cls-1" d="M1.49,5.93c.28,0,.55-.03.83-.05.11,0,.23-.01.34-.01.13,0,.26.02.38.02.12,0,.24-.05.35-.05.19,0,.39.03.58.05.01,0,.03-.01.05-.02.13-.02.27-.06.4-.06.17,0,.34.06.51.07.08,0,.16-.05.24-.06.21-.03.43-.04.64-.06.05,0,.12.02.13.05.03.05.02.12.02.18,0,.03-.04.07-.04.1,0,.24-.2.29-.34.39-.2.13-.41.23-.62.35-.09.05-.17.14-.27.16-.21.05-.38.18-.57.29-.17.1-.33.21-.5.31-.09.06-.17.13-.27.18-.16.08-.33.14-.48.23-.08.05-.16.11-.15.24,0,.03-.03.06-.04.09-.02.07-.04.13-.04.2-.01.12,0,.24-.02.35-.02.18-.05.37-.08.55,0,.07.01.15-.01.22-.1.29-.19.59-.2.9,0,.03-.02.07-.04.1-.08.14.03.38.19.39.03,0,.06-.02.09-.04.22-.15.43-.31.64-.47.08-.06.16-.11.23-.18.24-.21.47-.43.71-.64.02-.02.05-.02.08-.04.04-.02.08-.04.11-.07.12-.11.23-.23.35-.34.26-.27.52-.53.78-.8.18-.18.35-.37.53-.55.15-.16.33-.3.46-.47.17-.23.39-.43.49-.71.02-.06.09-.11.11-.18.03-.13.12-.26.06-.41,0-.02.02-.06.03-.09,0-.07.02-.13.01-.2-.02-.18.02-.37-.03-.56-.05-.16-.01-.35-.02-.52-.01-.18-.04-.37-.04-.55,0-.19.03-.38.03-.57,0-.18,0-.36,0-.54,0-.17-.13-.33-.29-.34-.19-.01-.39-.03-.58-.04-.09,0-.19,0-.28,0-.2.02-.41.06-.61.06-.18,0-.37-.03-.55-.04-.15,0-.31-.02-.46-.02-.14,0-.28.04-.43.05-.11,0-.22,0-.33,0-.07,0-.15-.01-.22-.01-.06,0-.11,0-.17,0-.08,0-.16.02-.24.02-.04,0-.08.02-.12.01-.15-.02-.29-.05-.44-.07,0,0,0,.02,0,.02-.05,0-.1-.02-.15-.02-.06,0-.11-.02-.17-.02-.12-.02-.2-.17-.15-.29.1-.25.18-.5.3-.74.11-.22.17-.45.25-.67.06-.18.04-.36.02-.54-.02-.13-.11-.21-.23-.24-.04-.01-.08-.02-.11-.04-.14-.07-.28-.06-.43-.02-.1.03-.22.08-.31.05-.2-.06-.41-.05-.6-.17-.2-.13-.32-.05-.4.19-.08.25-.08.54-.26.76,0,.01,0,.04-.01.05-.02.06-.05.11-.07.17C.04,1.29,0,1.35,0,1.41c0,.11.04.23.03.34,0,.15.03.23.18.25.13.02.26.04.39.05.08,0,.12.05.1.12-.05.17-.12.33-.19.5-.03.09-.08.17-.09.26-.01.16,0,.32,0,.49,0,.12,0,.24,0,.37,0,.23,0,.46,0,.68,0,.13-.02.26,0,.39.03.26.08.51-.04.76-.02.03,0,.12.03.13.1.06.21.13.33.14.25.03.5.03.75.03Z"/>
      <path class="cls-1" d="M19,22.03c.12-.2.09-.51-.07-.72-.06-.08-.12-.16-.17-.24-.11-.18-.21-.37-.33-.54-.16-.22-.33-.44-.51-.64-.14-.15-.14-.36-.23-.52-.26-.49-.28-.56.06-.94.41-.45.55-1.03.75-1.58,0-.02,0-.05,0-.07-.03-.35-.05-.71-.09-1.06,0-.08-.04-.16-.08-.23-.12-.2-.24-.39-.37-.58-.11-.16-.22-.33-.35-.46-.09-.08-.23-.1-.35-.14-.21-.07-.41-.14-.62-.2-.14-.04-.28-.05-.42-.08-.18-.03-.36-.1-.53-.1-.44-.01-.88,0-1.32,0-.17,0-.35-.04-.52-.02-.4.06-.8.17-1.22.08-.11-.02-.23,0-.34.02-.34.06-.5.37-.42.71.09.37.13.76.19,1.14.02.15.04.3.04.45,0,.24-.04.48-.04.73,0,.55,0,1.1.01,1.66,0,.42,0,.85,0,1.28,0,.28.01.57-.03.85-.06.38-.07.76.02,1.14.03.12.18.31.26.31.36,0,.73.18,1.07-.06.02-.01.06.02.1.03.08.02.16.06.25.06.18.01.36,0,.54.01.24.02.59-.23.59-.48,0-.24-.03-.49-.05-.73-.03-.42-.08-.84-.1-1.26,0-.05.11-.14.17-.15.13,0,.26.04.39.07.03,0,.05.03.07.06.1.19.19.38.29.56.06.11.11.24.27.12.02-.02.11,0,.11.03.06.18.1.37.15.56.02.08.02.16.06.23.12.21.32.36.34.63,0,.07.19.21.21.2.21-.13.29-.01.33.15.18-.02.35-.04.52-.06.21-.03.44.11.63-.07.02-.02.09,0,.13.01.32.07.49.02.61-.17ZM16.13,17.2c-.06.18-.17.35-.28.51-.07.11-.17.16-.33.15-.22-.01-.44.04-.66.08-.17.03-.26-.04-.27-.2-.01-.24,0-.47,0-.71,0-.32,0-.63-.03-.95-.02-.25.11-.38.44-.37.18-.02.38-.11.52-.05.2.09.39.26.53.44.11.14.14.31.14.53,0,.2,0,.4-.06.58Z"/>
    </g>
  </g>
</svg>