<?xml version="1.0" encoding="UTF-8"?>
<svg id="Layer_2" xmlns="http://www.w3.org/2000/svg" viewBox="0 0 51.06 35.8">
  <defs>
    <style>
      .cls-1 {
        fill: #2c489e;
      }
    </style>
  </defs>
  <g id="Layer_1-2" data-name="Layer_1">
    <g>
      <path class="cls-1" d="M34.49.85c4.81,1.19,11.17,3.73,13.58,4.28-1.62-1.05-8.51-3.58-12.47-4.71-3.96-1.14-6.43.03-7.57,3.8,1.14-1.2,1.66-4.56,6.47-3.37Z"/>
      <path class="cls-1" d="M28.06,21.6c-4.71-.81-6.34.31-6.6.95-.26.64.29.92.5,1.23.25.35-.12.76-1.01.6-.89-.17-2.84-.42-3.75-.55-1.16-.17-2.38-.17-2.53,0,.82.15,3.23.37,4.45.6,2.2.41,3.32.37,3.44-.21.11-.58-1.02-1.26-.71-1.77.28-.48,1.23-.4,1.23-.4,0,0-.31,1.02-.33,1.22.24-.05.53-.79.7-1.27,0,0,1.54-.24,4.05.18,7.49,1.26,11.12,3.45,12.2,3.89-.25-.92-6.94-3.67-11.65-4.47Z"/>
      <path class="cls-1" d="M12.44,24.35c.6-.29,1.14-.63,1.14-.63-.71.14-2.34.43-2.01,1.46.33,1.03.62,1.38.01,1.61-.6.24-3.3.16-5.13.62-1.83.46-4.84,1.65-5.38,2.09,1.1-.52,6.75-1.69,8.92-1.85,2.16-.16,2.66-1.12,2.42-1.63-.24-.51-.57-1.38.03-1.67Z"/>
      <path class="cls-1" d="M50.58,3.31c-.6-.32-1.09-.02-1.48,1l-1.76,4.59c-5.44-2.15-15.36-6.74-19.32-4.68l-.77,2.2c-.88.04-2.58-.26-5.27-1.03-1.3-.37-4.1-.27-4.64.13.44-1.06.93-2.81,2.57-3.1,1.63-.29,6.33.94,7.71.82-.86-.4-4.39-1.35-5.59-1.55-1.2-.2-4.15-.02-5.15,3.9-.56,2.22-1.06,3.91-1.06,3.91,0,0-3.39.38-5.11.77-1.73.4-3.42,1.37-3.42,1.37,0,0,.28-1.79.19-2.35,1.57-1.12,4.76-2.79,8.8-2.78-1.54-.5-6.33-.26-9.22,1.86-.23,1.35-.72,4.39-1.3,6.87-.34,1.46-.74,2.41-1.06,3.35.89-.8,1.81-2.9,2.17-4.27,1.69-.87,5.9-2.01,8.11-2.23-.46,1.43-.6,2.7-.4,2.31.45-.91,1.67-5.55,2.08-6.2.42-.65,4.2-.57,6.62.04,2.42.61,2.83.54,2.83.54l-1.07,2.57-1.85-.13-.88-2.14-1.71,1.44-3.38-.2.8,2.41-2.11,2.34,2.77.33.73,2.25,2.37-1.58,1.3.2.66-1.7-.1-.76.6-.25s2.58-5.31,3.41-6.9c3.99-.74,6.25.09,18.73,4.77l-1.06,2.76-2.61,6.67c-5.42-2.15-14.57-6.76-19.63-4.59l-.88,2.78c-1.03,0-2.38-.33-3.63-.69-2.56-.74-4.48-.43-5.06-.11,0,0,.4-1.1.29-1.37-.34.67-1.29,3.97-1.41,4.5-3.83-.07-7.65.69-9.11,1.23.62-1,.9-2.46.9-2.76-.24.59-1.6,3.37-2.12,4.49C1.42,25.68-.01,28.77,0,29.66c0,0,.37-.54.68-1.28.31-.74,1.39-2.93,1.58-3.15.19-.22,2.59-.6,3.52-.64.93-.05,5.51-.38,5.97-.35,0-.68.99-2.71,1.22-3.19,1.38-.51,3.19-.36,5.07.06,1.82.41,3.11.63,3.11.63,0,0-.06.67-.04.98.02.31,1.47-3.59,1.62-3.77,3.85-.76,6.87-.77,18.99,4.38l-3.19,8.15-1.13,2.95s.56,1.54,1.26,1.36c.29-.56,1.79-3.26,3.15-6.8,1.27-3.31,2.35-6.86,3.87-10.82,2.42-6.32,5.14-12.65,5.21-12.92.23-.84.24-1.62-.33-1.93Z"/>
    </g>
  </g>
</svg>