<?xml version="1.0" encoding="UTF-8"?>
<svg id="Layer_2" xmlns="http://www.w3.org/2000/svg" viewBox="0 0 36.48 46.06">
  <defs>
    <style>
      .cls-1 {
        fill: #2c489e;
      }
    </style>
  </defs>
  <g id="Layer_1-2" data-name="Layer_1">
    <g>
      <path class="cls-1" d="M36.09,2.81c-.4-.1-.78-.29-1.18-.38-2.26-.51-4.52-1.03-6.8-1.49-2.55-.51-5.15-.68-7.75-.85-3.55-.23-7.08-.02-10.61.26-.73.06-1.46.12-2.17.26-1.57.31-3.13.67-4.7,1-.72.15-1.44.26-2.17.37C.07,2.09-.04,2.21,0,2.87c.14,2.55.28,5.09.42,7.64.19,3.33.39,6.65.57,9.98.23,4.4.44,8.81.67,13.21.07,1.25.14,2.5.29,3.74.16,1.34.85,2.38,2.09,2.97.81.39,1.66.7,2.48,1.05,3.35,1.45,6.71,2.9,10.06,4.37.46.2.88.33,1.38.09.5-.24,1.03-.42,1.55-.6,3.65-1.27,7.3-2.53,10.94-3.81,1.45-.51,2.42-1.48,2.61-3.07.16-1.29.28-2.59.41-3.88.41-4.14.81-8.29,1.21-12.43.3-3.11.57-6.22.86-9.33.3-3.12.6-6.25.91-9.37.03-.31-.02-.53-.38-.62ZM11.29,39.03c-.02.34-.2.44-.51.43-.54-.01-1.08,0-1.61,0v-.07c-.56,0-1.11,0-1.66,0-.34,0-.52-.13-.49-.5.05-.67.1-1.35.14-2.02.02-.33.16-.5.51-.51,1.11-.04,2.22-.08,3.33-.14.31-.01.46.1.44.42-.05.8-.1,1.59-.14,2.39ZM7.61,27.87c.19-1.92-.12-1.42,1.72-2.01.31-.1.47,0,.45.34-.05.71-.09,1.42-.13,2.13,0,.08-.02.23-.06.24-.63.19-1.26.37-1.89.53-.02,0-.13-.23-.14-.35,0-.22.03-.45.04-.67,0,0,.01,0,.02,0,0-.07,0-.14,0-.21ZM7.68,29.42c.21.11.26.13.3.16.23.22.46.63.7.64.6,0,1.2-.16,1.79-.29.06-.01.14-.32.09-.4-.79-1.16-.19-2.39-.19-3.59,0-.06.28-.21.37-.17.45.19.88.41,1.3.66.12.07.21.27.22.42.07.61.11,1.22.14,1.84,0,.1-.12.24-.22.28-.17.08-.37.08-.55.15-.13.05-.25.15-.37.23.11.14.22.38.35.4.45.05.47.32.44.66-.04.45-.03.91-.12,1.35-.04.18-.26.44-.43.46-1.18.17-2.37.31-3.56.42-.13.01-.41-.15-.4-.22.03-.96.1-1.93.17-2.98ZM13.25,29.47c.86-.13,1.71-.3,2.56-.42.45-.06.54-.27.33-.63-.75-1.25-.24-2.57-.22-3.86,0-.28.22-.34.45-.21.59.33,1.22.62,1.72,1.05.24.2.23.69.33,1.06-.04.01-.08.02-.12.03,0,.12,0,.24,0,.36-.03.91-.04.9-.91,1.13-.17.05-.31.21-.47.31.12.17.25.34.37.51.1.13.27.27.27.4.01.61-.02,1.21-.04,1.82,0,.27-.1.45-.41.49-1.36.16-2.72.33-4.07.51-.42.06-.57-.11-.53-.52.05-.46.08-.93.08-1.4,0-.45.27-.58.66-.63ZM12.74,27.33c.05-.64.09-1.33.19-2.02.03-.19.22-.44.39-.51.51-.21,1.05-.33,1.58-.5.35-.11.5.02.48.37-.06.85-.11,1.69-.21,2.53-.02.16-.24.37-.41.43-.44.15-.9.23-1.36.33-.63.13-.68.08-.66-.62ZM14.14,32.45c.45-.05.6.1.53.55-.03.2,0,.41,0,.72-.03.41-.04.92-.13,1.41-.03.16-.25.39-.4.4-1.38.11-2.77.17-4.15.25-.38.02-.49-.17-.46-.51.06-.64.08-1.28.19-1.91.03-.18.27-.43.45-.45,1.32-.18,2.65-.3,3.97-.46ZM8.75,33.12c.13,0,.35.24.35.36-.03.69-.1,1.38-.18,2.07-.01.11-.18.21-.3.3-.05.04-.13.02-.2.03q-1.16.1-1.11-1.06c0-.16.01-.31.02-.47.09-1.16.25-1.31,1.42-1.22ZM17.2,39.13c0,.33-.18.46-.49.45-.71,0-1.42,0-2.13,0v-.08c-.69,0-1.39,0-2.08,0-.39,0-.59-.16-.57-.56.05-.78.1-1.56.15-2.34.02-.29.17-.43.46-.44,1.44-.05,2.88-.1,4.32-.16.31-.01.45.11.44.42-.03.9-.06,1.8-.09,2.71ZM22.13,39.12c0,.41-.18.59-.6.58-.52-.02-1.04,0-1.56,0v-.07c-.56,0-1.11,0-1.67,0-.3,0-.45-.14-.44-.44.04-.95.09-1.91.14-2.86.01-.3.19-.41.48-.42,1.04-.05,2.08-.1,3.12-.16.42-.03.59.13.58.57-.04.94-.04,1.87-.04,2.81ZM22.23,33.37h-.06c0,.38-.02.77,0,1.15.02.42-.15.6-.57.62-1.35.06-2.7.14-4.05.21-.61.03-1.21.06-1.82.11-.36.03-.51-.11-.49-.48.04-.74.04-1.49.12-2.23.02-.17.26-.43.43-.45,1.98-.25,3.96-.46,5.94-.7.39-.04.5.14.49.47,0,.43,0,.87,0,1.3ZM22.33,28.56c-.02.29,0,.59,0,.88-.09,1.36-.09,1.38-1.43,1.59-.77.12-1.55.19-2.32.28-.27.03-.45-.03-.44-.34.02-.64.01-1.28.08-1.92.02-.17.26-.41.44-.45,1.04-.21,2.08-.35,3.12-.54.42-.08.58.08.55.49ZM22.29,24.23h-.06c0,.5.04,1.01-.02,1.5-.02.18-.24.44-.41.48-.8.22-1.62.37-2.43.56-.3.07-.48,0-.47-.34.04-.9.06-1.8.14-2.7.01-.17.22-.4.39-.46.77-.26,1.56-.47,2.34-.7.36-.1.56-.03.54.41-.03.41,0,.83,0,1.25ZM23.86,39.33c0,.39-.26.39-.53.38-.27-.01-.59.02-.59-.4,0-.54,0-1.07,0-1.61h0c0-.47,0-.93,0-1.4,0-.24,0-.55.36-.48.32.06.82-.05.81.5,0,1-.05,2-.07,3ZM24.42,29.06c.64-1.07.14-2.24.29-3.36.05-.35.11-.59.51-.66.29-.05.46.02.45.31-.02.97-.04,1.94-.09,2.91,0,.15-.14.31-.25.44-.24.29-.19.5.15.64.16.07.33.11.48.2.14.09.34.22.34.35.03.72.02,1.44.02,2.29-.63-.23-1.14-.39-1.62-.61-.14-.07-.27-.32-.28-.49-.03-.64,0-1.28,0-1.92,0-.03,0-.08,0-.1ZM27.2,27.92c.02-.26,0-.52.02-.78.03-.42.38-.42.65-.42.11,0,.28.27.29.42.01.69,0,1.39-.06,2.08-.02.21-.2.42-.35.59-.23.25-.26.5.08.61.8.26.79.89.77,1.54-.01.31-.04.62-.07,1.04-.56-.21-1.05-.37-1.52-.58-.13-.06-.26-.29-.27-.44-.03-.55-.02-1.11-.01-1.66,0-.1,0-.24.06-.3.65-.6.35-1.39.42-2.1ZM27.61,34.74c0-.29-.03-.59.01-.88.03-.19.17-.36.25-.54.23.15.64.28.66.45.08.75.05,1.52.03,2.27,0,.08-.23.26-.29.23-.23-.1-.55-.22-.6-.4-.09-.35-.03-.75-.03-1.13h-.03ZM26.84,28.25c-.68-.07-.85-.23-.84-.79.01-.7.05-1.4.08-2.1.06-.03.12-.07.18-.1.2.18.54.34.56.53.06.81.03,1.64.03,2.46ZM24.99,33.87c0,.53,0,1.06,0,1.69-.72-.16-1.33-.27-1.92-.44-.12-.03-.26-.28-.26-.43-.01-.88.01-1.76.03-2.64,0-.28.12-.43.42-.32.02,0,.03,0,.05.01q1.7.41,1.68,2.13ZM22.85,30.18c.02-.63.05-1.26.08-1.94.99.18,1.1.3,1.11,1.11,0,.6,0,1.2,0,1.79-.92.07-1.21-.18-1.18-.96ZM24.36,26.28c0,.18-.03.36-.07.69-.52-.3-.93-.52-1.32-.76-.08-.05-.17-.16-.17-.24.01-1.01.04-2.02.06-3.05,1.02.24,1.56.94,1.52,1.81-.02.52-.01,1.04-.03,1.56ZM26.19,39.53c-.41.51-.96.11-1.44.2-.28.06-.4-.14-.4-.4,0-.47,0-.93,0-1.4h.06c0-.47,0-.93,0-1.4,0-.32.16-.41.46-.39,1.25.08,1.36.19,1.36,1.43,0,.54,0,1.07,0,1.61,0,.12.03.28-.03.36ZM25.78,35.74c-.16-.07-.36-.26-.36-.4-.02-.83.02-1.66.04-2.48,0-.29.19-.34.43-.26.31.11.64.17.92.34.17.1.33.33.36.53.06.32.02.65.02.98h.01c0,.34,0,.69,0,1.04,0,.41-.17.57-.57.47-.28-.07-.59-.1-.85-.21ZM28.59,39.38c0,.13-.12.36-.19.37-.48.03-.96.03-1.44,0-.08,0-.19-.24-.2-.37-.03-.41,0-.83,0-1.24h.04c0-.38,0-.76,0-1.14,0-.33.14-.49.47-.43.34.06.69.11,1.01.23.15.06.31.29.31.46.04.71.03,1.42.01,2.13ZM29.2,29.77c-.45-.1-.78-.27-.75-.84.03-.63,0-1.26,0-1.98.9.36,1.18,1.64.75,2.82ZM33.19,16.54c-1.27,2.57-1.96,5.26-1.86,8.14.02.51-.15.9-.6,1.18-.44.27-.85.6-1.27.9-.02.02-.07.01-.1.01-.3-.44-.18-1.01.27-1.28.13-.08.3-.1.44-.17.14-.07.27-.17.41-.25-.12-.11-.22-.28-.36-.33-.55-.2-1.12-.37-1.68-.53-.3-.09-.61-.13-.91-.23-.16-.06-.29-.21-.43-.31.15-.12.29-.29.46-.35.29-.11.61-.13.91-.22.15-.04.27-.16.41-.25-.12-.11-.23-.27-.37-.31-.82-.2-1.65-.38-2.48-.55-.49-.1-1-.15-1.47-.31-.21-.07-.48-.32-.49-.51-.01-.16.27-.42.47-.51.39-.18.83-.25,1.23-.41.21-.08.38-.25.56-.39-.19-.13-.36-.36-.56-.38-1.28-.11-2.56-.3-3.83-.22-4.46.28-8.78,1.29-13.03,2.63-.79.25-1.57.52-2.36.78.24.35.52.6.59.89.08.32-.03.69-.06,1.03-.3,3.55-.6,7.09-.89,10.64-.1,1.18-.19,2.35-.26,3.53-.03.43-.17.61-.63.59-1.2-.06-1.06.07-.98-1.07.16-2.48.39-4.95.59-7.42.22-2.73.45-5.47.63-8.2.04-.55.24-.86.75-1.03,3.39-1.16,6.82-2.14,10.35-2.79,1.43-.26,2.87-.5,4.32-.65,1.13-.12,2.28-.08,3.43-.11.15,0,.31,0,.46,0,.01-.04.03-.09.04-.13-.29-.1-.56-.23-.86-.29-1.69-.36-3.39-.21-5.08.04-4.34.64-8.56,1.77-12.69,3.24-.14.05-.29.08-.49.13,0-.55-.03-1.06,0-1.57.16-2.06.34-4.12.49-6.18.04-.49.19-.77.68-.96,5.3-2.05,10.76-3.5,16.39-4.28,1.01-.14,2.04-.13,3.06-.18.2-.01.41,0,.61,0,0-.06.01-.11.02-.17-.51-.09-1.02-.23-1.53-.28-1.74-.17-3.46.07-5.18.36-3.67.6-7.25,1.58-10.76,2.81-.88.31-1.76.63-2.65.94-.11.04-.23.05-.49.1.05-.73.13-1.62.19-2.27.03-.39-.06-.19-.37-.52-.57-.6-.01-2.36.82-2.49.45-.07.93,0,1.39.07,1.14.2,1.06,1.77.44,2.33-.2-.2-.65-.6-.85-.8-.04.04-.08.07-.12.11.06.39.33.99.45,1.36.03.1.38.19.54.14,1.36-.41,2.7-.92,4.08-1.25,2.7-.64,5.42-1.21,8.13-1.76.81-.17,1.65-.22,2.48-.28,2.03-.15,4.02.04,5.95.75.16.06.32.13.48.2.68.35.77.64.34,1.27-1.85,2.63-2.79,5.6-3.27,8.75-.02.11,0,.23.08.36.25-.84.49-1.68.77-2.51.27-.81.59-1.59.89-2.39.12-.33.29-.46.67-.34.52.17,1.07.27,1.6.39.04-.03.08-.07.12-.1-.13-.16-.22-.38-.39-.46-.34-.16-.73-.22-1.07-.39-.14-.07-.32-.39-.27-.48.14-.25.42-.66.6-.63.61.09,1.22.27,1.79.52.75.32.79.69.35,1.36-1.05,1.59-1.8,3.32-2.28,5.17-.04.15-.03.31.06.49.28-.64.54-1.29.83-1.93.31-.67.32-.66,1.01-.35.14.06.3.1.45.15.04-.06.08-.11.12-.17-.15-.15-.29-.33-.47-.43-.35-.21-.46-.46-.24-.81.23-.35.48-.39.86-.15,1.24.76,1.25.75.62,2.03Z"/>
      <path class="cls-1" d="M21.27,11.21c.31-.3-.33-.28-.48-.27-.43.05-1.52.22-1.93.31-.53.12-.58.1-.74-.17-.06-.11-.38-.55-.44-.7-.03-.08-.1-.14-.15-.21-.21-.29-.39-.27-.61.01-.35.45-.87,1-1.2,1.46-.27.38-.5.44-.94.56-.65.17-1.3.37-2.03.61-.22.07-.19.2-.14.26.27.36.47.66.7.92.27.31.31.57.04.91-.35.43-.79,1.19-1.09,1.66-.08.12.07.29.22.26.39-.07,1.55-.42,1.93-.51.42-.1.58-.12.86.26.06.08.63.72.7.8.22.29.34.15.54-.12.26-.34.77-1.01,1.03-1.35.23-.31.42-.35.8-.36.59-.02,1.43-.2,2.02-.28.37-.05.51-.21.27-.55-.19-.27-.52-.74-.73-.99-.36-.41-.29-.43.09-.84.46-.51.8-1.02,1.29-1.67ZM17.11,11c.07.11.31.42.38.52-.21.1-.73.12-.95.22-.04-.07.23-.22.19-.29.18-.13.2-.32.38-.45ZM13.58,15.8c.19-.31.3-.49.45-.75.15.2.25.34.42.56-.3.06-.51.11-.87.18ZM14.11,13.81c-.17-.24-.26-.37-.41-.59.3-.09.53-.16.75-.23.03.04.14-.1.17-.06-.12.19-.32.56-.51.87ZM16.26,16.52c-.07.03-.25-.26-.52-.46.39-.09.61-.13.83-.18.03.04.27-.1.3-.06-.13.15-.45.62-.61.7ZM18.56,13.59c-.08.09-.74.99-.8,1.09-.13.2-.11.25-.49.35-.41.1-1.25.25-1.89.32-.17-.19-.57-.54-.77-.87-.08-.14.14-.34.21-.54.03-.11.53-.81.59-.91.28-.46.38-.48.84-.57.05,0,1.28-.28,1.34-.29.41-.05.5.06.67.4.07.14.29.36.32.42.2.32.18.37-.02.6ZM18.43,14.9c-.04-.08.32-.28.28-.36.22-.16.25-.38.47-.54.08.16.33.47.41.63-.25.08-.89.19-1.15.28ZM19.3,12.65c-.18-.25-.3-.41-.5-.68.38-.07.66-.12.94-.16.03.05.21-.07.24-.02-.16.21-.47.59-.69.86Z"/>
      <path class="cls-1" d="M28.02,20.67c-.26-.12-.53-.23-.81-.3-.08-.02-.28.08-.28.13,0,.11.06.29.14.33.24.12.51.19.83.3.08-.05.22-.09.28-.18.03-.05-.07-.24-.15-.27Z"/>
      <path class="cls-1" d="M29.46,22.82c.06.43.36.55.7.58.07,0,.15-.14.22-.21-.25-.14-.51-.28-.77-.41-.02-.01-.06.02-.15.05Z"/>
    </g>
  </g>
</svg>