<?xml version="1.0" encoding="UTF-8"?>
<svg id="Layer_2" xmlns="http://www.w3.org/2000/svg" viewBox="0 0 16.23 55.51">
  <defs>
    <style>
      .cls-1 {
        fill: #2c489e;
      }
    </style>
  </defs>
  <g id="Layer_1-2" data-name="Layer_1">
    <g>
      <path class="cls-1" d="M6,7h0c-.25,0-.12,0,0,0Z"/>
      <polygon class="cls-1" points="13.68 8.31 13.68 8.31 13.68 8.32 13.68 8.31"/>
      <path class="cls-1" d="M5.68,9.64c.11-.05.26-.35,0,0h0Z"/>
      <path class="cls-1" d="M16.13,10.11c-.07-.56-.33-1.03-.7-1.45-.35-.4-.74-.78-1.19-1.06-.17-.11-.31-.29-.48-.38-.04-.02-.36-.17-.34-.05-.09-.47.02-.94,0-1.41-.02-.56-.13-1.13-.29-1.67-.27-.92-.81-1.75-1.46-2.45-.61-.67-1.34-1.23-2.23-1.47-.97-.26-2.06-.21-3.03.03-1.63.4-3.09,1.57-3.68,3.17-.27.73-.46,1.74-.26,2.51.07.27.15.54.2.82.07.4-.08.4-.44.53-.4.16-.75.56-1.04.87-.34.36-.61.77-.81,1.22-.41.92-.54,2.01-.22,2.98.29.89.93,1.78,1.63,2.4.67.6,1.54.84,2.39,1.06.3.08.65.2.96.22.22.01-.18-.81-.3-.91-.1-.08-.25-.05-.37-.04-.21.02-.42,0-.63-.06-.47-.12-.9-.37-1.29-.66-1.49-1.13-2.44-3.3-1.27-5,.56-.81,1.32-1.54,2.28-1.86.51-.17,1.03-.15,1.56-.14.43.01,1-.11,1.38.16-.37.15-.77.09-1.15.08-.46-.01-.92.06-1.37.18-.73.2-1.47.49-2,1.06-.56.6-.86,1.41-.88,2.23-.02.86.3,1.53.78,2.22.1.15.21.3.31.46.04-.03.12,0,.16.03.23.11.43.27.62.43.47.37,1.02.7,1.65.72.21,0,.09-.22.05-.36-.06-.25-.14-.49-.21-.74-.19-.64-.25-1.27-.33-1.93.12.16.15.37.21.56.08.25.17.5.25.76.17.52.32,1.04.51,1.56.17.48.37.94.59,1.4.08.16.15.42.27.54.05.05.08-.02.09.08,0,.05,0,.18.09.13-.09.06.42.88.47.96.31.52.44,1.02.44,1.63-.33-.69-.69-1.37-1.06-2.04-.17.14-.2.16-.1.39.11.27.24.53.37.8.26.55.38,1.05.43,1.65.02.24.05.48.11.71.06.22.25.48.17.72-.19.55-.13,1.17-.13,1.74,0,1.19,0,2.38-.02,3.57,0,.19-.16,1.1.19,1.05.04.28-.03.59-.08.86-.04.21-.11.46,0,.66.09-.12.11-.25.12-.39,0-.23.05-.44.13-.66.15-.45-.24-1.16-.28-1.2.05-.04.48-.6.39-.61-.06,0-.11.15-.19.1.03-.06.24-.32.21-.38-.02-.03-.12.09-.13.1,0-.06,0-.12,0-.18.02-.07.11-.09.15-.16.13-.26.15-.62.22-.9-.06.06.28-1.06.3-1.03.18-.43.37-.85.55-1.28-.12-.31.11-.76-.14-1.02-.37.54-.21,1.38-.42,1.99-.14.38-.31.73-.42,1.11-.09.32-.09.7-.31.97-.05-.22.03-.45.03-.67,0-.1-.06-.18-.09-.27.02-.11.04-.22.06-.33-.01,0-.01.01,0,0h0s.17-.16.21-.33c.03-.14.09-.67.14-.72.1-.29.19-.57.29-.86.05-.16.11-.33.16-.49.03-.09.19-.37.06-.36.12-.05.27-.07.37-.16.13-.11.19-.28.35-.35.11-.05.24.03.29-.12.06-.18.12-.37.18-.55-.06.07-.12.14-.18.21.06-.33.09-.67.22-.98.13-.3.32-.58.4-.9-.2.16-.37.35-.54.54-.02-.29.21-.56.35-.79.21-.35.44-.69.65-1.05.19-.32.38-.63.59-.93.21-.31.46-.61.56-.98-.14.02-.38-.04-.48.1-.07.1-.37.7-.26.74-.42.62-.84,1.23-1.26,1.85-.21.31-.51.66-.68.99-.06,0-.22.09-.26.01-.05-.08.04-.21.08-.28.16-.26.36-.5.53-.76.15-.22.31-.44.47-.65.07-.09.14-.19.19-.29.01-.03.03-.15.02-.15-.04-.07.24-.38.28-.43.21-.28.4-.58.59-.87-.03,0-.06,0-.09,0,.06-.09.13-.18.19-.28-.32-.14-.42-.03-.54.26-.17.4-.42.75-.66,1.12-.26.39-.51.8-.75,1.2-.12.2-.25.41-.39.6-.11.15-.28.18-.45.25,0-.1.02-.19.02-.29,0,.02,0,.04,0,.06.41-.6.83-1.2,1.24-1.8.1-.15.21-.3.31-.45.06-.08.21-.23.22-.33.02-.13-.02-.09.08-.21.02-.02.2-.25.14-.28-.21-.11-.95,1.24-1.04,1.38,0-.02-.02-.04-.03-.06-.15.21-.31.42-.46.63-.32-.62-.74-1.19-1-1.84-.11-.27.03-.46.26-.59.21-.11.45-.31.67-.37.26-.08.68.24.92.35.22.09.5.29.74.31.31.02,0-.16-.1-.19-.35-.11-.67-.3-.99-.47.05-.13.56.11.64.15.33.12.76.34,1.12.24-.02.1.35.07.46.07.2,0,.4.01.59,0,.41-.03,1.12-.28,1.08-.28.29-.13.57-.27.87-.41-.02,0-.03-.02-.05-.03.1.05.42-.26.49-.31.09-.07.18-.12.27-.17.06-.04.13-.09.17-.15.03-.05,0-.13.04-.14.09.17.19-.04.28-.14.1-.11.18-.22.26-.34.18-.27.32-.57.41-.89.2-.66.36-1.38.3-2.07-.06-.69-.43-1.29-.84-1.83-.2-.26-.44-.49-.69-.7-.23-.19-.52-.34-.67-.6.38-.03.74.32,1.02.53.39.3.72.68.97,1.11.25.42.57,1.2.49,1.7-.08.49-.07.99-.17,1.49-.1.49-.29.9-.61,1.29-.32.4-.69.8-1.08,1.13-.18.16-.39.29-.61.4-.14.07-.39.15-.34.35.28-.18.6-.32.89-.52.38-.26.82-.65,1.07-.98.01-.07.11-.14.16-.19.09-.11.12-.25.19-.37.04-.08.13-.07.18-.13.09-.12.12-.32.17-.46.1-.3.21-.6.26-.91.05-.3,0-.64.1-.93,0,0,0,0,0,.01.11-.06-.04-.86-.05-.96ZM6.01,7h0c-1.86,0-4.13.45-5.06,2.25-.44.85-.62,1.91-.34,2.84.29.97.95,1.82,1.73,2.45.39.31.79.61,1.27.79.22.08.45.14.68.21.1.03.23.01.2.14-.16-.03-.32-.06-.48-.09-.99-.18-1.73-.63-2.41-1.36-.68-.74-1.09-1.49-1.22-2.51-.13-1.03-.14-1.98.5-2.85.84-1.15,2.02-1.79,3.41-1.99.73-.11,1.54-.18,2.28-.07.16.02.32.06.48.1.1.02.31.22.08.2-.37-.03-.74-.1-1.12-.1ZM12.45,6.54s0,.06,0,.08c0-.02,0-.06,0-.09,0,0,0-.02,0-.02h0s0-.1,0-.15c0,0,0-.01,0-.02,0,0,0,0,0,.01,0,0,0,0,0-.01,0,0,0-.01,0-.01,0,0,0,0,0-.01,0,0,0,0,0,0,0,0,0,0,0,0-.04-.92-.11-1.9-.56-2.72-.44-.8-1.19-1.45-1.98-1.88-.8-.44-1.95-.67-2.85-.43-.9.24-1.98.71-2.61,1.42-.6.69-.93,1.68-.99,2.59-.03.48.04.93.22,1.38-.34.16-.41-1.09-.4-1.31.05-.93.35-2.09.99-2.78.66-.72,1.56-1.27,2.5-1.53.54-.15,1.04-.25,1.6-.15.53.09,1.03.31,1.51.54.95.45,1.63,1.04,2.18,1.95.26.42.48.88.6,1.36.13.53.08,1.04.04,1.58-.04.57-.07,1.15-.16,1.71-.04.28-.14.54-.28.79-.09.16-.19.49-.35.57-.05-.38.24-.92.34-1.3.13-.5.24-1.03.22-1.55ZM4.33,14.29c-.43-.14-.79-.2-1.16-.47-.41-.31-.8-.65-1.18-.99-.34-.31-.45-.82-.53-1.26-.1-.52-.09-1.05.06-1.56.24-.81,1.04-1.57,1.8-1.92.45-.2.93-.31,1.41-.37.39-.05,1.12-.08,1.42.18-.45.12-.96.03-1.43.1-.47.07-.92.2-1.35.39-.64.28-1.57.83-1.33,1.68.15-.24.31-.47.47-.71.12-.19.37-.64.62-.67.14-.02.14.27.16.35.09.31.31.6.42.91.09.25.18.51.27.76.12.33.04.58,0,.91-.09.68,0,1.51.18,2.17-.85-.27-1.8-1.09-2.11-1.96-.08-.23-.07-.44-.09-.67,0-.09-.04-.61-.2-.49-.09.07.06.68.08.8.03.22,0,.58.2.71-.19.14.33.45.29.53-.1.18-.05.17.12.29.2.14.41.28.61.42.42.29.85.58,1.27.87ZM6.72,12.66c.05,0,0,0,0,0,.04,0,.29.35.37.45.06.08.23.2.16.29-.13-.09-.26-.17-.38-.27-.48-.35-.88-.84-1.25-1.3-.39-.49-.75-.97-1.03-1.52-.27-.54-.72-1.18-.64-1.8.48.64.79,1.42,1.22,2.11.22.36.46.69.72,1.02.14.17.27.34.41.51.11.14.27.42.42.51,0,0,0,0,0,0ZM6.89,14.02c.28-.19.56-.39.83-.58-.39.27-.02.02,0,0,.16-.11.33-.2.48-.33.24-.22.47-.46.72-.68.21-.18.42-.36.63-.54.22-.2.45-.49.73-.61,0,.23-.22.44-.36.62-.17.23-.36.43-.57.63-.47.44-.97.87-1.5,1.25-.23.17-.48.32-.73.46-.11.06-.58.31-.7.24-.15-.09.38-.41.47-.47ZM7.31,12.8c-.18-.18-.36-.35-.53-.54-.34-.37-.65-.77-.92-1.19-.28-.45-.54-.92-.8-1.38-.19-.35-.56-.86-.36-1.22.57.84.94,1.81,1.52,2.65,0,0,0,0,0,0,.25.35.52.68.79,1.02.23.29.61.66.73,1.02-.17,0-.33-.24-.44-.36ZM7.91,21.66s0-.01,0,0c0,.03-.02.05-.02.07,0-.03.02-.06.02-.07-.12.38-.39.87-.4,1.27,0,.46-.22.89-.37,1.33-.18-.09.03-.91.07-1.11-.06.09-.08.13-.15.25.02-.09.18-.82.17-.82.04-.14.08-.29.11-.43.08-.3-.12.06-.16.13-.13-.06-.13-.12,0-.18.09-.09.19-.18.29-.27.15-.14.29-.33.48-.39-.01.07-.02.15-.04.22ZM8.79,21.12c-.11.1-.26.19-.24.12-.27.05-.55.1-.82.15,0-.02,0-.03,0-.05-.01.03-.02.05-.03.08-.28-.15-.55-.29-.74-.55.24-.06.66.02.62.07h.72c.08.07.26-.02.35,0,.19.04.47-.11.15.18.43-.4-.07.06,0,0ZM9.1,19.97c.12.12.04.12-.05.24-.03.03-.16.21-.17.2-.18.17-.4.22-.64.27-.21.05-.42.01-.63-.02-.33-.05-.5-.09-.72-.32.48-.05,1.01.14,1.43-.11-.02.03-.04.06-.09.14.21-.06.38-.11.53-.15-.06.09.05.14.12.2.11-.11.16-.3.23-.44ZM8.4,19.76c-.24.04,0-.01,0,0,0,.02,0,.04,0,.07.07-.04.14-.07.22-.11,0,.03-.01.06-.02.09.17-.03.26-.07.39.05-.63.35-1.61.53-2.17,0,.2-.04.35-.06.56-.03.21.03.26-.13.35-.28-.03.11-.05.23-.08.34.25-.04.49-.08.74-.13ZM13.68,8.31s.03.02,0,0c.28.18.5.34.74.59.24.26.46.54.63.85.32.57.48,1.22.44,1.87-.09,1.35-1.22,2.62-2.37,3.23-.69.37-1.45.61-2.24.58-.41-.02-.8-.1-1.18-.26-.25-.1-.77-.52-1.05-.38-.37.19-.74.38-1.11.58-.34.18-.67.25-.49.69.15.36.34.69.5,1.04.13.28.44.86.29,1.15-.12-.16-.2-.34-.28-.52-.06-.13-.4-.05-.06-.16-.58-.99-1.25-1.98-1.71-3.03-.19-.45-.4-.89-.52-1.37-.06-.25-.1-.51-.1-.77,0-.22-.22-.45-.41-.56-.09.38.17.96.29,1.33.15.49.32.96.49,1.45.05-.02.14-.09.17-.03-.04.03-.08.06-.12.09.07.12.13.24.2.36.11.2.22.4.33.59.22.39.43.78.65,1.17.21.37.41.74.62,1.11.06.3.24.74.07,1.04-.1-.23-.2-.46-.31-.68-.02.04-.05.08-.02.04-.18-.38-.37-.81-.58-1.26-.03.04-.05.07-.06.08-.27-.61-.62-1.18-.92-1.81-.32-.7-.61-1.43-.79-2.19-.16-.68-.15-1.39-.45-2.03-.17-.36-.32-.73-.47-1.09-.15-.34-.4-.74-.33-1.12.46.92.91,1.83,1.49,2.68.27.4.56.76.87,1.12.17.2.33.39.51.58.15.17.41.36.46.59-.25-.02-.58-.46-.76-.63-.27-.25-.52-.53-.83-.72.01.46.37.99.57,1.4.09.2.51,1.31.81,1.12.43-.28.82-.62,1.24-.91.42-.29.83-.56,1.17-.94.31-.35.7-.63,1.08-.89.19-.14.39-.26.57-.41.2-.17.21-.26.11-.5-.15-.39-.34-.79-.59-1.13-.24-.32-.72-.82-1.11-.92.01.18-.01.34.22.31.08-.01.32.29.39.35.31.3.51.65.3,1.07-.24.5-.81.9-1.2,1.28-.16.16-.33.37-.54.46-.08.03-.16.05-.24.03-.1-.01-.22-.14-.3-.14,0,0,0,0,0,0-.03,0-.32-.45-.39-.55-.21-.29-.43-.57-.65-.85-.2-.25-.46-.5-.6-.78-.15-.29.3-.58.46-.73.26-.23.52-.45.78-.67.13-.11.27-.22.4-.34.09-.08-.15-.1-.19-.06-.28.22-.56.44-.84.67-.16.13-.63.66-.84.59.12-.2.2-.38.38-.54.21-.18.42-.37.63-.55.44-.37.91-.67,1.42-.92.82-.4,2.23-1.01,3.02-.28-.28.1-.58.08-.87.1-.16,0-.74-.05-.85.06-.08.09.44.26.51.29.29.13.58.26.83.47.08.07.31.4.43.23.17-.23.21-.65.28-.92.09-.32.52-1.17-.03-1.23-1.23-.11-2.35-.05-3.51.41-.54.21-1.01.55-1.45.93-.21.18-.4.36-.57.57-.17.2-.32.47-.55.6.07-.39.44-.82.7-1.11.33-.37.72-.64,1.15-.88.92-.51,1.84-.83,2.89-.83.5,0,.95.02,1.44.13.26.06.22-.2.07-.21-.31-.03-.62-.07-.94-.1-.5-.05-1.01-.09-1.52-.02-.53.07-.97.32-1.47.46-.46.13-.93.02-1.39-.02-.57-.06-1.13-.03-1.7-.04-.47,0-.61-.49-.6-.88.02-.47.09-1,.22-1.46.28-.93.92-1.5,1.79-1.89.43-.19.85-.44,1.33-.49.52-.05,1,.09,1.47.29.82.34,1.4.77,1.86,1.54.24.39.49.78.67,1.21.17.4.06.85.26,1.24.21-.52.05-1.1-.16-1.6-.22-.5-.47-1.03-.84-1.44-.7-.8-1.86-1.41-2.94-1.41-.61,0-1.2.23-1.74.48-.52.24-1.03.53-1.38.99-.34.45-.56.99-.66,1.55-.06.32-.09.65-.12.97-.03.3.16.57.13.87-.15-.1-.18-.38-.23-.55-.07-.25-.08-.48-.07-.74.03-.5.05-1.1.25-1.57.08-.2.24-.36.36-.53.13-.17.23-.35.37-.51.29-.32.67-.55,1.06-.73.93-.42,1.88-.63,2.88-.34.47.14.87.38,1.3.6.43.22.81.38,1.11.77.59.77.78,1.76.97,2.68.11.51.13,1.01.05,1.53-.04.25-.1.5-.16.75-.06.23-.1.56-.26.74-.26.3-.22.6,0,.9.09.13.2.25.27.39.05.09.14.33.25.35.09.02.19-.2.22-.26.11-.19.22-.36.4-.49.45-.33.74-.11,1.07.22.1.1.19.3.32.21-.16-.21-.3-.44-.49-.64-.15-.16-.47-.46-.69-.5-.14-.02-.17.16-.22.25-.12.23-.32.47-.5.64.72-1.61.88-3.58.41-5.28-.11-.38-.25-.75-.44-1.1-.2-.36-.49-.65-.7-1-.45-.76-1.28-1.22-2.1-1.49-.87-.28-1.85-.47-2.76-.27-.87.19-1.65.67-2.32,1.25-.68.6-1.06,1.43-1.34,2.29-.14.44-.2.88-.2,1.34s.12.96.04,1.41c-.27-.32-.29-.91-.31-1.32-.02-.47.03-.93.14-1.39.2-.83.59-1.6,1.16-2.23.55-.6,1.24-1.08,1.99-1.38.41-.17.86-.33,1.31-.37.51-.05,1.07.07,1.56.17.9.18,1.73.48,2.42,1.11.7.63,1.15,1.44,1.53,2.29.18.41.39.83.43,1.28.05.5.04,1.01.05,1.51,0,.45,0,.87-.06,1.32-.04.31.29.32.49.45-.05-.03-.13-.09,0,0ZM5.68,9.64c.33-.43.64-.86,1.02-1.24.45-.44,1.02-.74,1.59-1.01.54-.26,1.09-.47,1.7-.51.48-.03,1.32-.09,1.65.28-.28.07-.55,0-.84-.02-.29-.02-.58-.02-.86,0-.59.06-1.11.26-1.62.55-.51.29-1,.62-1.48.95-.23.16-.45.3-.64.5-.17.18-.3.37-.53.48Z"/>
      <path class="cls-1" d="M6.23,11.12s0,0,0,0c-.06-.08-.1-.15,0,0Z"/>
      <path class="cls-1" d="M9.1,19.97c-.06.13.03.03,0,0h0Z"/>
      <path class="cls-1" d="M12.44,6.35h0s0,.02,0,.03c0-.01,0-.02,0-.03Z"/>
      <path class="cls-1" d="M4.33,14.29c-.73-.5-.34-.11,0,0h0Z"/>
      <path class="cls-1" d="M6.23,11.12s0,0,0,0c.16.23.07.11,0,0Z"/>
      <path class="cls-1" d="M6.91,35.17c.01.33.08.66.09.99h0c0,.31,0,.13,0,0,.03.96,0,1.92,0,2.88,0,.18-.06.38-.04.56.03.25.08.5.12.75.04.25.09.51.08.76,0,.27-.04.48.06.73.28-.43.28-1.05.45-1.54.19-.53.53-.99.68-1.53.04-.13.21-.57.09-.61-.13-.04-.33.59-.39.73-.25.58-.5,1.17-.75,1.75-.12-.26.04-.54.13-.78.11-.31.19-.63.28-.94.12-.42.51-.69.61-1.12.06-.25.03-.55.05-.81-.14-.02-.35.72-.41.88-.25.63-.5,1.27-.75,1.9.04-.35.11-.7.19-1.05.07-.29.21-.61.2-.91-.21.17-.29.49-.4.73-.05-.43.13-.85.26-1.25.14-.44.29-.88.41-1.32.16-.6.79-1.18.51-1.87-.16.23-.23.57-.32.84-.1.29-.21.59-.31.88-.2.56-.36,1.15-.62,1.68v-.88c.02.07.03.09.03.1.06-.25.12-.5.17-.75.03-.13.17-.45.1-.55.26.02.71-1.79.91-1.71.04-.49.07-.98.11-1.46-.45,1.26-.87,2.44-1.29,3.61.06-1.21.39-2.35.95-3.43.1.25.17-.03.21-.14.02-.08.05-.15.07-.23.05-.16.14-.21-.05-.26-.02.15-.06.27-.11.42.01-.21-.05-.41.16-.48.02-.27.12-.65,0-.9-.17.19-.18.49-.23.73-.05.27-.1.5-.21.76-.24.59-.5,1.18-.72,1.79-.04-.22.01-.45.04-.66.02-.11,0-.59.08-.62.01.04.02.08.03.12.14-.42.28-.85.41-1.27.08-.25.16-.5.24-.74.02-.08.04-.23.11-.28.1-.07.14-.08.16-.21.03-.19.05-.38.08-.56.02-.12.03-.25.05-.37.02-.17.01-.13-.12-.16-.14.5-.29,1-.43,1.5.21-.16-.04.14-.04.14,0-.01-.02-.02-.02-.04-.2.57-.38,1.06-.57,1.59,0-.12-.09-.76,0-.76.06.41.15-.54.13-.55.13.05.15-.38.17-.5.04-.21.08-.41.12-.62,0,.01.02.06.05.11.09-.29.19-.57.28-.86.04-.12.08-.24.12-.36.02-.07.25-.75.2-.75.02-.09,0-.35.01-.42.04-.16-.12-.33-.21-.17.14.07.03.28,0,.42-.05.21-.8,2.54-.74,2.62.01-.01.02-.02,0,0,0,0,0,0,0,0-.03.03-.1.12-.11.05-.02-.13-.04-.26-.05-.39.03.03.04.05.12.13-.03-.26-.06-.43-.09-.64.05.07.08.12.08.12.08-.38.84-3.2.95-3.67.06-.26.1-.62.16-.88-.17-.04-.17.13-.21.27-.04.13-.07.25-.1.38-.14.51-.28,1.02-.42,1.53-.04.13-.01.25-.16.26,0,.12,0,.24-.01.36,0,.12-.11.4-.09.35-.24.61-.44,1.24-.48,1.9-.02.34,0,.69.03,1.03.01.17.03.34.04.52,0,.15.11.14.09.24-.25-.09-.12.6-.11.75.02.35-.02.71-.05,1.06-.03.36-.06.72-.05,1.09ZM7,36.14c0-.07,0-.11,0,0h0Z"/>
      <path class="cls-1" d="M7.08,52.12c-.08-.03.3.1,0,0h0Z"/>
      <path class="cls-1" d="M8.01,41.63c-.14.43-.33.85-.51,1.27-.07.16-.18.29-.1.45.19-.11.22-.36.29-.56.15-.44.29-.87.51-1.28-.04.42-.12.83-.21,1.23-.05.21-.1.42-.15.63-.04.16-.16.41-.11.56.11-.07.16-.29.21-.41.1-.22.2-.44.29-.66.12.05-.25,1.28-.29,1.46-.24,1.02-.49,2.05-.73,3.07,0-.29,0-.57,0-.86,0-.3.07-.55-.15-.76-.17.23-.07.6-.06.88.02.41.02.82.03,1.23.01.78,0,1.55-.03,2.33-.02.37-.03.74-.04,1.1,0,.15-.09.72.14.79.44.15.46-.61.53-.87.14-.55.21-1.14.37-1.68.12-.4.41-.72.49-1.13.05-.23-.03-.45-.01-.68,0-.11.04-.23.05-.34.02-.18-.07-.26-.15-.4-.28.61-.31,1.3-.48,1.95-.2.75-.46,1.48-.68,2.22.12-1.19.35-2.43.75-3.56.18-.5.55-1.09.54-1.63,0-.28-.05-.55-.03-.84.02-.23.12-.57,0-.77-.18.21-.17.7-.22.97-.07.39-.14.77-.22,1.16-.16.77-.42,1.52-.6,2.29-.15-.24,0-.74.04-1.01.05-.36.12-.71.18-1.06.14-.74.29-1.48.52-2.2.21-.67.35-1.28.36-1.99,0-.67.1-1.49-.1-2.14-.23.34-.26.83-.39,1.22Z"/>
      <path class="cls-1" d="M8.44,52.33h0c0,.22,0,.04,0,0-.02.43.06.9-.08,1.32-.12.38-.61.32-.94.32.22-.49.08-1.02.12-1.55-.06.08-.11.17-.17.25-.04-.12-.18-.21-.27-.3-.23.39-.25,1-.17,1.46.05.27.11.31.38.32.24,0,.6-.08.82.01.27.11.07.87-.16.97-.23.1-.25.05-.38-.16-.14-.23-.27-.47-.39-.71-.3.21-.19.71-.01.99.21.34.74.32,1.04.11.42-.3.38-.91.39-1.37,0-.3.01-.6.02-.91,0-.29.08-.67-.08-.91-.04.04-.12.1-.13.16Z"/>
      <path class="cls-1" d="M8.51,48.8c-.27.47-.3,1.1-.45,1.63-.16.57-.36,1.14-.41,1.73.19-.15.34-.18.42-.43.1-.3.19-.59.27-.89.08-.29.16-.59.17-.88.01-.16,0-.32,0-.48,0-.12-.08-.35.07-.37-.02-.1-.05-.21-.07-.31.02.1-.04.08,0,0Z"/>
      <path class="cls-1" d="M11.54,16.16c-.06.04-.02.01,0,0-.14.1-.58.7-.44.79-.33.18-.52.63-.73.94-.22.33-.48.66-.58,1.04.2,0,.22-.28.37-.37,0,0,0,0,0,.01.13-.05.26-.35.34-.46.14-.21.28-.42.42-.63.29-.42.59-.81.82-1.27-.04-.01-.14-.08-.18-.05Z"/>
      <path class="cls-1" d="M7.53,42.15c-.02.05.18-.5,0,0h0Z"/>
      <path class="cls-1" d="M8.39,39.92c.05-.24.16-.49.04-.7-.19.23-.2.52-.31.79-.13.33-.27.66-.41.98-.14.33-.27.65-.4.98-.05.14.1.48.21.17.18-.49.24-1.05.56-1.48.16-.22.24-.48.3-.74Z"/>
      <path class="cls-1" d="M7.63,37.76c.22-.27.41-.61.57-.93.2-.38.14-.84.16-1.25-.18.29-.28.59-.39.92-.14.42-.29.82-.34,1.26.01-.12.06-.08,0,0Z"/>
      <path class="cls-1" d="M8.61,51.02c-.04-.11-.07-.22-.11-.33.04.11-.05.12,0,0-.2.46-.24.93-.33,1.42.3,0,.46.04.44-.31,0-.12-.09-.77,0-.79Z"/>
      <path class="cls-1" d="M5.18,16.12c.06.46.41.99.69,1.35.01-.1.05-.21.03-.31,0,0,0,.02,0,.02,0,0,0-.01,0-.02h0c-.05-.22-.22-.45-.32-.64-.12-.23-.16-.32-.39-.4Z"/>
      <path class="cls-1" d="M5.89,17.16s0,0,0-.01c0,0,0,0,0,.01h0Z"/>
      <path class="cls-1" d="M5.89,17.15s0-.02,0-.02c0,0,0,.01,0,.02Z"/>
      <path class="cls-1" d="M12.85,15.53h0s.03,0,0,0Z"/>
      <path class="cls-1" d="M12.85,15.53h0c-.08.02-.12.11-.2.13-.16.04-.32.07-.49.1-.29.06-.47.08-.67.29.44.02.97-.21,1.41-.31-.01-.04-.03-.07-.04-.1.06,0,.12-.01.18-.02.03-.09-.12-.11-.19-.09Z"/>
      <path class="cls-1" d="M12.85,15.53h0s-.02,0,0,0Z"/>
      <path class="cls-1" d="M7.13,42.52c-.05.18-.15.42-.1.6.05.18.12.27.2.04.06-.19.13-.38.19-.57-.07-.09-.21-.32-.29-.08-.04.12-.01.04,0,0Z"/>
      <path class="cls-1" d="M7.13,42.52s0,0,0,0c0-.01,0,0,0,0Z"/>
      <path class="cls-1" d="M6.96,44.32c.02.06.07.18.12.3.07-.13.15-.27.2-.41.04-.14-.06-.25-.13-.36-.15.18-.17.25-.19.47.01-.14.02.06,0,0Z"/>
      <path class="cls-1" d="M6.94,45.47c.04.27.18.23.22,0,.05-.26.02-.35-.09-.58-.1.2-.17.35-.13.57Z"/>
      <polygon class="cls-1" points="8.41 23.58 8.41 23.59 8.41 23.58 8.41 23.58"/>
      <path class="cls-1" d="M7.41,26.87c-.04.17-.18.65,0,.72.05-.19.11-.37.16-.55-.02,0,.15-.48.16-.53,0-.01,0-.02,0-.04.04-.18.1-.4.11-.45.02-.04.1-.04.11-.07.1-.28.2-.56.3-.84.02-.07.18-1.01.23-1.27.03-.16.03-.13-.05-.24-.13.44-.35,1.41-.39,1.38-.12.38-.26.75-.37,1.13-.02.06,0,0-.06.18,0,0,0,0,0,0-.07.23-.13.41-.18.6-.02.09-.01.05,0,0Z"/>
      <path class="cls-1" d="M7.41,26.87s.02-.1,0,0h0Z"/>
      <polygon class="cls-1" points="7.41 26.87 7.41 26.87 7.41 26.87 7.41 26.87"/>
      <path class="cls-1" d="M7.75,44.09c-.1-.08-.15-.05-.15.07-.06.15-.12.3-.17.45-.02.06.1.14.13.07.04-.12.08-.23.12-.35.03-.08.05-.16.08-.23Z"/>
      <path class="cls-1" d="M7.55,44.67s.07-.19,0,0h0Z"/>
      <path class="cls-1" d="M10.1,13.1c.18-.15.56-.34.63-.31.07.03-.74.99-1.23,1.4.59.24,1.21.37,1.86.29.64-.07,1.24-.34,1.78-.69.5-.32.92-.72,1.19-1.25.11-.22.26-.55.26-.74-.01-1.35-.24-1.54-.43-1.6.02.12.02.48.13.56.06.05.06.3.08.4.05.37.03.75-.12,1.1-.16.37-.46.68-.75.96-.15.15-.31.29-.47.44-.13.12-.32.12-.48.17.02-.62.22-1.23.22-1.85,0-.3-.06-.6-.13-.89-.02-.1-.13-.8-.31-.52-.09.13.08.59.1.74.05.32.11.64.08.97-.02.33-.09.67-.16.99-.05.22-.05.67-.24.8-.04-.12,0-.21.02-.33.05-.21.04-.41.04-.63,0-.46-.02-.91-.05-1.36-.06-.83-.31-1.54-.83-2.19-.22-.27-.44-.53-.7-.77-.27-.25-.62-.37-.89-.61-.08-.07-.17-.18-.28-.22-.12-.05-.42.11-.54.16-.2.07-.4.15-.6.23-.11.04-.46.12-.51.23-.06.16.58.33.71.39.16.08.31.19.46.29.27.18-.07-.17-.14-.22-.1-.09-.31-.18-.2-.31.11-.13.35.16.47.26.34.27.68.55,1.02.83.66.56.98,1.18,1.16,2.02.08.39.05.81.02,1.2-.02.2-.02.44-.09.63-.06.17-.19.31-.28.47-.14-.1-.22-.11-.12-.26.12-.18.11-.44.13-.65.05-.45.09-.86.01-1.31-.39.17-.68.65-.97.95-.34.36-.69.72-1.1,1.01-.37.26-.77.47-1.17.69-.29.16-.91.37-1.05.7-.04.09.03.26.11.3.12.07.29-.06.38-.13.39-.3.8-.58,1.2-.87.41-.3.79-.64,1.17-.98.19-.17.39-.34.59-.5ZM11.29,11.04s0-.01,0,0c-.05-.08-.04-.27-.06-.37-.03-.14-.08-.22-.17-.32-.23-.28-.46-.56-.71-.83-.22-.23-.44-.45-.71-.61-.31-.19-.57-.28-.74-.6,1.11.36,2.07,1.06,2.61,2.11.28.55.45,1.15.46,1.77,0,.37-.06.74-.11,1.1-.03.21-.06.42-.1.63-.04.2-.11.2-.26.32.07-.57.12-1.16.15-1.74.01-.26.03-.52-.03-.78-.03-.13-.07-.25-.1-.38-.05-.17-.13-.17-.21-.3.01.02.02.04,0,0Z"/>
      <polygon class="cls-1" points="11.29 11.04 11.3 11.05 11.29 11.04 11.29 11.04"/>
      <path class="cls-1" d="M13.2,8.25c-.06.13,0,0,0,0-.04.09-.2.36-.11.44.12.11.3.1.44.17.31.17.61.58.82.85.23.31.39.67.47,1.05.09.44-.04.83-.05,1.27-.02.67-.48,1.14-.92,1.59-.24.24-.45.45-.76.61-.28.14-.63.29-.82.51-.1-.15-.74.04-.94.07-.31.05-.62.06-.94,0-.54-.09-1.02-.74-1.46-.17.26.02.43.13.67.22.27.09.55.15.83.19.57.08,1.02.04,1.57-.08.91-.2,1.87-.95,2.49-1.7.3-.36.57-.78.66-1.25.09-.5-.04-1.1-.16-1.59-.13-.49-.39-.89-.74-1.25-.19-.2-.38-.38-.58-.57-.03-.03-.43-.45-.47-.36Z"/>
    </g>
  </g>
</svg>