<?xml version="1.0" encoding="UTF-8"?>
<svg id="Layer_2" xmlns="http://www.w3.org/2000/svg" viewBox="0 0 32.23 43.09">
  <defs>
    <style>
      .cls-1 {
        fill: #2c489e;
      }
    </style>
  </defs>
  <g id="Layer_1-2" data-name="Layer_1">
    <g>
      <path class="cls-1" d="M25.53,20.96c-.02-2.7-.04-5.41-.06-8.11,0-.34,0-.68,0-1.02-.24.14-.4.29-.56.44-.66.67-1.32,1.35-1.98,2.02-.32.32-.56.62-.53,1.15.07,1.44.06,2.89.06,4.34,0,1.4,0,2.81.01,4.21,0,.22-.09.32-.26.42-.82.47-1.61.97-2.31,1.63-1.29,1.21-2.26,2.61-2.85,4.28-.03.09-.14.21-.22.21-.85.07-1.69.12-2.58.19-.03-6.06-.06-12.07-.09-18.09-.05,0-.07,0-.08.01-.96.97-1.92,1.95-2.87,2.93-.06.06-.09.19-.09.28,0,1.03,0,2.07,0,3.1.01,1.24.04,2.48.05,3.72.01,1.95,0,3.91.02,5.86,0,.82.02,1.63.04,2.45,0,.18-.06.28-.23.37-.62.33-1.24.64-1.82,1.04-.99.68-1.8,1.55-2.43,2.59-.72,1.17-1.14,2.43-1.23,3.79-.06,1.04.05,2.04.6,2.95.43.71,1,1.25,1.86,1.35.8.09,1.57-.09,2.28-.45,1.91-.97,3.1-2.52,3.62-4.59.31-1.26.41-2.55.4-3.85,0-.62,0-1.24,0-1.92.81.12,1.58.22,2.36.33,0,.16,0,.27,0,.39,0,.81.14,1.59.47,2.34.52,1.15,2.06,1.71,3.28,1.35,1.99-.6,3.37-1.93,4.34-3.71.61-1.13.82-2.39.85-3.66.03-1.22.01-2.44,0-3.67-.01-1.56-.04-3.12-.05-4.68ZM11.24,37.14c-.03,1.14-.23,2.26-.71,3.31-.25.55-.55,1.06-1.12,1.37-1.24.66-2.12.19-2.71-.84-.44-.77-.42-1.62-.31-2.46.1-.8.24-1.58.6-2.31.5-1,1.19-1.84,2.04-2.57.59-.51,1.26-.86,2-1.08.04-.01.09-.02.17-.03.02.37.05.72.05,1.06,0,1.19.02,2.37-.01,3.55ZM22.52,31.09c-.02,1.44-.44,2.77-1.42,3.84-.55.61-1.24,1.07-2.16.8-.71-.21-1.14-.71-1.34-1.38-.15-.48-.14-1.02-.19-1.53,0-.03.02-.07.04-.12.38.02.77.03,1.14.07.83.09,1.64.01,2.46-.13.21-.04.32-.13.33-.35.05-.86.1-1.72.15-2.58,0-.06-.04-.12-.06-.21-1.14.47-2.3.85-3.64.95.2-.45.33-.85.54-1.21.98-1.67,2.23-3.07,4.07-3.9.02.15.07.31.07.47,0,1.76.03,3.52,0,5.28Z"/>
      <path class="cls-1" d="M8.67,29.12c.08-1.28.04-2.58.04-3.86,0-.99-.01-1.98-.02-2.98,0-.52,0-1.03,0-1.55,0-1.63,0-3.26-.02-4.88-.01-.85-.05-1.7.08-2.55.19-1.22.82-2.11,1.83-2.79.62-.42,1.33-.58,2.02-.76,1.27-.33,2.56-.55,3.83-.88,1.17-.3,2.32-.7,3.37-1.32.99-.58,1.89-1.25,2.58-2.18.4-.54.83-1.06,1.15-1.65.37-.67.73-1.36.86-2.13.07-.38.13-.75.16-1.13.01-.15-.09-.31-.14-.46-.09.12-.2.22-.26.35-.63,1.35-1.47,2.52-2.75,3.33-.9.56-1.88.8-2.93.78-.17,0-.35.03-.52,0-.21-.04-.27.06-.33.22-.09.23-.2.46-.32.67-.55.96-1.28,1.75-2.21,2.37-.88.59-1.79,1.1-2.82,1.39-.93.26-1.87.5-2.79.77-.72.22-1.42.5-2.04.94-1.09.78-1.62,1.9-1.73,3.2-.08,1.02-.07,2.05-.07,3.07,0,1.23.02,2.45.03,3.68,0,.76,0,1.52,0,2.28,0,.97.02,1.94.02,2.9,0,.11-.07.23-.15.31-.43.49-.93.93-1.3,1.46-.89,1.25-1.36,2.63-1.08,4.19.16.86.73,1.57,1.62,1.6.6.02,1.15-.18,1.64-.46,1.48-.87,2.17-2.24,2.27-3.9ZM5.69,28.99c-.01.86-.03,1.72-.06,2.58-.02.57-.49,1.04-.98.97-.43-.06-.61-.39-.69-.75-.21-.93-.07-1.83.38-2.65.29-.55.68-1.06,1.03-1.58.06-.09.17-.16.25-.23.02.01.05.02.07.03,0,.54,0,1.08,0,1.63Z"/>
      <path class="cls-1" d="M31.3,6.34c-.81-1.16-1.89-1.87-3.29-1.98-.13,0-.21,0-.3,0-1.33.14-2.48.71-3.45,1.61-.98.9-1.78,1.94-2.34,3.15-.22.49-.39,1.01-.58,1.51-.02.07.02.16.03.23.08-.03.18-.04.24-.1.09-.08.15-.2.22-.3.53-.85,1.21-1.55,2.07-2.07.86-.53,1.76-.79,2.77-.47,1.38.44,2.19,1.39,2.55,2.77.3,1.15.22,2.3-.1,3.43-.36,1.28-.96,2.44-1.84,3.45-.07.08-.14.17-.16.26-.02.09.02.21.08.27.04.04.17.03.24,0,.15-.08.31-.16.44-.28.76-.67,1.5-1.35,2.12-2.17.74-.98,1.41-2,1.77-3.2.29-.98.49-1.99.49-3.01,0-1.11-.28-2.17-.93-3.1Z"/>
      <path class="cls-1" d="M16.91,20.41c.93-.94,1.85-1.87,2.77-2.82.06-.06.09-.17.09-.25,0-1.31,0-2.62,0-3.94,0-1.33,0-2.66,0-3.99-.05-.01-.09-.03-.14-.05-.96,1.01-1.93,2.01-2.89,3.02-.06.06-.08.19-.08.28,0,2.12.03,4.24.04,6.36,0,.49,0,.98,0,1.53.12-.08.17-.11.21-.15Z"/>
      <path class="cls-1" d="M3.14,24.42c0-1.31-.03-2.62-.04-3.93,0-.52,0-1.05,0-1.66-.15.1-.22.13-.28.18-.89.92-1.79,1.84-2.68,2.76C.06,21.87,0,22.02,0,22.14c0,.8.06,1.61.06,2.41,0,1.7-.01,3.41-.02,5.11,0,.11.02.21.03.35.07-.06.11-.08.13-.11.95-.97,1.91-1.94,2.86-2.91.04-.04.06-.11.07-.17,0-.8.01-1.6,0-2.4Z"/>
      <path class="cls-1" d="M30.09,19.07c-.07.1-.15.2-.19.31-.13.34-.21.7-.35,1.03-.35.78-.68,1.58-1.12,2.32-.53.89-1.16,1.73-1.74,2.59-.07.11-.13.26-.14.39-.01.29.02.57.02.86,0,.94,0,1.87,0,2.85.3-.38.61-.72.85-1.1.95-1.5,1.66-3.11,2.15-4.82.34-1.2.58-2.41.69-3.66.02-.25-.04-.5-.06-.75-.03,0-.07-.02-.1-.03Z"/>
    </g>
  </g>
</svg>