<?xml version="1.0" encoding="UTF-8"?>
<svg id="Layer_2" xmlns="http://www.w3.org/2000/svg" viewBox="0 0 40.4 46.68">
  <defs>
    <style>
      .cls-1 {
        fill: #2c489e;
      }
    </style>
  </defs>
  <g id="Layer_1-2" data-name="Layer_1">
    <g>
      <path class="cls-1" d="M15.94,33.03c-.35-.08-.7-.23-1.05-.22-.33,0-.65-.19-.98-.02-.05.03-.13.06-.14.11-.01.04.05.1.08.15.09.12.18.23.28.34-.24-.09-.49-.17-.72-.28-.17-.09-.25-.05-.34.1.22.13.47.2.55.49-.26-.06-.5-.14-.72-.28-.21-.13-.22,0-.27.1.15.08.27.14.39.2-.13.22-.37-.12-.44.19.06.01.1.01.13.03.19.11.39.22.58.33.06.04.11.15.16.14.17,0,.35-.04.53-.06-.03-.06-.06-.11-.12-.22.17.02.33,0,.41.06.22.16.29.02.38-.12-.11-.15-.2-.23-.37-.07-.05.04-.25-.07-.37-.14-.05-.03-.04-.14-.05-.18h.68c-.08-.08-.17-.07-.25-.11-.07-.04-.12-.12-.17-.19.33.04.66.07.98.12.16.02.31.07.47.1.19.04.37.08.35.33-.43.04-.78.26-1.14.47,0,.03.01.06.02.1.36.04.71.08,1.07.12,0-.03.01-.06.02-.09-.17-.07-.33-.13-.57-.23.14-.06.24-.1.33-.15.1-.06.17-.15.26-.23.49-.04.99-.07,1.48-.12.41-.04.75.12,1.09.3.26.13.58.2.61.58.44.21.55.7.86,1.03.48.51.87,1.12,1.3,1.68.12.15.23.32.36.46.65.7,1.05,1.56,1.39,2.43.35.89.63,1.81.75,2.77.08.65.24,1.28.32,1.97-.08-.06-.18-.11-.24-.18-.26-.33-.4-.71-.45-1.14-.04-.34-.19-.67-.27-1-.14-.55-.25-1.11-.39-1.67-.05-.19-.1-.38-.17-.57-.18-.47-.32-.96-.57-1.39-.23-.42-.55-.8-.88-1.16-.45-.49-.92-.96-1.41-1.4-.25-.22-.57-.36-.86-.54-.19-.12-.38-.22-.56-.35-.61-.45-1.35-.57-2.05-.59-.41,0-.75-.21-1.15-.21-.32,0-.64,0-.96-.01-.14,0-.29-.04-.43-.06-.02,0-.04-.02-.05-.02-.44.14-.85-.07-1.27-.12-.11-.01-.23.05-.35.04-.23-.01-.46-.04-.69-.08-.27-.05-.54-.18-.81-.18-.62,0-1.15-.21-1.68-.47-.59-.29-1.21-.54-1.81-.82-.16-.07-.29-.21-.44-.29-.69-.37-1.35-.79-1.97-1.27-.06-.04-.11-.09-.17-.14-.28-.25-.55-.51-.85-.73-.43-.33-.87-.64-1.31-.95-.36-.25-.74-.49-1.12-.71-.28-.16-.53-.36-.89-.36-.1,0-.2-.23-.29-.35.15-.18.65-.25.8-.13.04.03.11.1.12.09.31-.27.72,0,1.06-.2.21-.12.51-.08.76-.13.32-.07.63-.19.96-.25.48-.09.97-.15,1.45-.23.14-.02.28-.07.43-.1.17-.04.35-.06.52-.12.59-.21,1.22-.22,1.79-.52.34-.18.77-.2,1.17-.27.33-.06.66-.13.99-.15.71-.04,1.43-.08,2.14-.07.26,0,.51.15.77.23.24.07.5.1.73.2.47.2.96.39,1.39.66.33.2.57.54.88.78.18.14.42.19.6.32.3.2.59.42.87.65.3.25.6.52.88.8.16.15.28.34.42.51.17.22.3.47.48.68.53.64.94,1.34,1.21,2.12.14.41.35.79.53,1.18.05.11.07.23.12.34.35.91.58,1.87,1.08,2.72.04.06.11.1.17.15.03-.07.08-.15.07-.22-.03-.46-.09-.92-.11-1.37-.04-1.13-.08-2.27-.1-3.4-.01-.63-.02-1.27-.01-1.9.01-.65-.11-1.27-.34-1.88-.23-.6-.44-1.21-.68-1.8-.17-.43-.47-.76-.83-1.04-.07-.05-.16-.08-.2-.15-.28-.43-.65-.77-1.08-1.04-.13-.08-.27-.16-.41-.23-.54-.29-1.14-.39-1.73-.52-.58-.13-1.14-.32-1.7-.52-.52-.19-1.04-.4-1.54-.63-.28-.13-.52-.34-.79-.47-.46-.23-.95-.41-1.41-.65-.29-.15-.56-.34-.82-.55-.43-.34-.82-.72-1.26-1.05-.44-.33-.77-.74-1.09-1.17-.29-.38-.65-.71-.93-1.1-.52-.73-1.18-1.38-1.53-2.23-.12-.28-.25-.56-.38-.84-.48-1.03-1.17-1.92-1.85-2.82-.25-.33-.51-.64-.82-1.02.15-.02.23-.04.31-.03.62.15,1.25.32,1.87.46.26.06.52.07.78.1.47.05.95.09,1.43.14.38.05.75.12,1.13.18.09.01.19.02.28.02.64,0,1.25.16,1.86.33.21.06.43.07.63.12,1.36.38,2.66.93,3.8,1.77.43.31.81.69,1.19,1.07.33.33.61.72.94,1.05.29.3.62.55.93.83.46.42.95.81,1.25,1.36.29.53.62,1.04.89,1.58.13.27.15.61.26.89.22.58.27,1.2.39,1.8.16.78.43,1.54.65,2.31.14.49.29.98.45,1.46.1.28.23.55.35.82l.11-.02c0-.28-.02-.55,0-.83.06-.98.16-1.96.19-2.93.02-.65-.03-1.3-.07-1.95-.02-.37-.06-.74-.13-1.09-.12-.55-.28-1.09-.43-1.63-.1-.37-.19-.75-.32-1.11-.09-.26-.25-.5-.36-.75-.04-.08-.05-.17-.08-.27.29.1.54.19.84.29-.3-1.68-.55-3.33-1.85-4.62.52-.08.96,0,1.38.28-.1-.83-.42-1.58-.72-2.43-.1.15-.16.23-.26.39-.09-.21-.2-.37-.23-.55-.1-.56-.45-.93-.87-1.26-.26-.2-.48-.46-.77-.6-.41-.21-.85-.35-1.29-.49-.24-.08-.23-.18-.1-.35.19-.23.38-.46.56-.7.05-.06.07-.15.08-.23,0-.07-.02-.18-.06-.2-.06-.02-.16,0-.23.03-.17.09-.33.21-.5.29-.44.2-.86.1-1.27-.09-.03-.02-.07-.02-.11-.02-.04,0-.07,0-.12.01-.03.52-.17.97-.55,1.36-.3.31-.6.59-1.03.7-.04.01-.08.07-.1.12,0,.02.04.07.08.09.57.35.88.87.96,1.52.03.22.02.45.02.68,0,.15.19.23.37.17.62-.19,1.23-.46,1.9-.24.07.02.15.02.23.02.32.02.34-.04.34-.35,0-.21.04-.46.16-.63.16-.23.38-.46.63-.56.26-.11.36-.23.3-.58.11.1.17.14.22.19.1.11.2.21.3.33.05.06.14.15.13.2-.02.07-.11.14-.19.16-.34.09-.66.18-.9.47-.32.39-.35.81-.06,1.24.05.08.05.2.08.34-.3-.14-.53-.27-.77-.37-.59-.23-1.18-.24-1.79-.05-.37.12-.75.18-1.04.49-.05.06-.19.04-.29.06,0-.09-.03-.18,0-.27.24-1.19-.08-2.14-1.16-2.81-.16-.1-.36-.16-.54-.24,0-.04,0-.08,0-.13.28-.08.55-.16.83-.23.05-.01.12,0,.16-.04.29-.23.57-.48.86-.7.29-.22.37-.5.33-.84-.01-.14-.01-.29,0-.43.02-.26.22-.35.43-.2.36.27.75.35,1.19.2.27-.09.56-.11.84-.17,0-.03,0-.07-.01-.08-.46-.36-.9-.75-1.39-1.06-.22-.14-.54-.16-.81-.18-.55-.03-1.1-.03-1.65-.02-.28,0-.56.07-.83.09-.08,0-.19-.03-.23-.09-.03-.05,0-.18.05-.23.28-.34.59-.67.86-1.02.03-.04,0-.19-.06-.24-.25-.28-.3-.62-.35-.97.54-.05,1.05-.09,1.61-.14-.16-.54-.31-1.05-.47-1.62.2.07.37.11.54.17.59.21,1.18.43,1.78.63.34.11.45-.03.64-.31.18-.26.47-.46.74-.65.34-.24,1.36-.27,1.6.06.04.06.09.11.16.18-.44.25-.76.59-.93,1.04-.21.54-.17,1.1-.05,1.65.13.59.17.6.79.55.26-.02.51-.1.76-.18.54-.18.81-.62,1.02-1.12.05-.11.15-.24.26-.28.17-.07.27.06.33.22.1.27.19.55.32.8.33.65.86,1.13,1.52,1.38.39.15.83.33,1.29.21.07-.02.14-.05.18-.11.39-.47.65-1.01.76-1.6.03-.18-.05-.38-.1-.57-.15-.51-.33-.99-.74-1.37-.06-.05-.07-.19-.05-.27,0-.04.15-.08.21-.07.23.06.46.15.69.23.67.23,1.28.56,1.6,1.22.12.25.27.29.5.27.21-.02.47,0,.53.21.05.16-.03.39-.12.54-.16.28-.37.53-.58.81.23.07.48.14.72.24.14.06.28.14.4.24.14.11.08.24-.04.32-.19.12-.38.23-.58.34-.26.14-.29.25-.07.43.69.58.75,1.81.07,2.42-.12.11-.23.21-.43.14-.16-.05-.35-.01-.61-.01.07-.16.1-.29.17-.38.35-.49.15-.79-.19-1.1-.07-.06-.15-.12-.2-.2-.13-.19-.3-.16-.48-.12-.13.03-.26.08-.4.1-.29.04-.57.08-.86.08-.33,0-.66-.05-.98-.08-.22-.02-.31.03-.38.28-.16.55-.14,1.08.04,1.61.05.14.13.26.21.39.1.15.23.28.3.44.04.08.02.23-.04.29-.06.07-.21.12-.3.1-.36-.1-.71-.23-1.06-.34-.18-.06-.3-.04-.36.18-.21.74-.28,1.5-.21,2.27.02.19.09.38.17.68.27-.34.49-.63.72-.91.01.02.03.03.04.05-.04.88-.12,1.77-.11,2.65,0,.88.15,1.76.28,2.63.04,0,.08.01.11.02.08-.15.17-.29.25-.44.06-.11.09-.23.16-.33.05-.06.15-.08.22-.12.02.08.07.19.04.25-.4.9-.36,1.88-.51,2.82-.07.43,0,.89,0,1.33,0,1.58-.02,3.16-.03,4.74,0,.1,0,.2,0,.3.03,0,.05.01.08.02.27-.66.57-1.31.82-1.98.16-.44.28-.9.37-1.36.08-.38.08-.77.12-1.16.04-.32.06-.65.13-.97.2-.94.41-1.88.65-2.81.09-.35.26-.68.39-1.03.06-.15.09-.31.16-.45.1-.22.21-.43.32-.65.06-.13.13-.27.19-.4.29-.62.62-1.21,1.13-1.68.3-.28.63-.53.87-.84.33-.42.68-.82,1.09-1.17.58-.48,1.19-.88,1.91-1.13.48-.16.92-.41,1.29-.79.28-.3.54-.6,1-.69.32-.06.58-.36.9-.48.41-.15.68-.44.95-.75.1-.12.27-.18.41-.26.41-.24.79-.51,1.29-.55.14-.01.27-.15.41-.24.2-.14.39-.29.6-.43.33-.21.66-.42.99-.61.08-.04.21-.07.27-.03.05.03.08.19.04.26-.25.58-.54,1.14-.78,1.72-.15.36-.26.74-.4,1.1-.22.6-.42,1.21-.67,1.8-.24.58-.53,1.14-.78,1.71-.27.62-.54,1.24-.8,1.86-.18.43-.31.88-.52,1.3-.19.38-.45.73-.7,1.08-.31.43-.64.84-.96,1.25-.35.44-.69.9-1.06,1.32-.25.28-.56.52-.84.77-.31.27-.62.54-.93.8-.15.13-.29.25-.45.37-.57.43-1.14.86-1.73,1.27-.78.54-1.59,1.05-2.37,1.6-.26.18-.47.43-.7.65-.27.26-.57.49-.81.77-.55.66-1.07,1.34-1.34,2.18-.17.52-.39,1.03-.46,1.56-.21,1.57-.27,3.16-.22,4.75.02.6-.02,1.21.03,1.8.05.6.18,1.2.27,1.8.03.19,0,.38.03.57.12.63.26,1.25.39,1.88.07.33.11.67.18,1,.07.35.17.69.25,1.03.11.46.2.93.32,1.39.07.25.2.48.28.72.2.55.39,1.1.57,1.65.17.53.33,1.06.48,1.59.02.08.01.18-.02.3-.34-.29-.79-.29-1.13-.61-.26-.25-.41-.49-.53-.8-.03-.07-.18-.1-.3-.16.05-.14.1-.29.15-.45-.03-.01-.06-.03-.08-.03-.1.02-.2.05-.3.07.04-.11.07-.23.11-.34.02-.05.04-.1.07-.18h-.48c.11-.2.2-.37.32-.6-.16.06-.25.1-.35.14-.07-.17-.08-.28.09-.39.11-.07.15-.23.23-.37-.2.03-.33.04-.45.05.06-.17.11-.34.17-.51-.37-.11-.38-.16-.1-.57-.11-.05-.25-.07-.33-.15-.04-.04.04-.19.06-.3-.32-.14-.37-.52-.1-1.05h-.32c.03-.11.06-.21.09-.32-.2-.1-.22-.22-.02-.38.09-.07.14-.19.25-.35-.2.06-.31.1-.41.13.03-.14.06-.28.1-.44-.06-.02-.14-.04-.23-.06.09-.38-.34-.8.08-1.18-.05.01-.1.02-.16.03-.18-.26.17-.36.18-.56-.29-.11-.3-.17-.07-.4.05-.05.08-.12.06-.22-.06.03-.11.07-.17.1-.02-.01-.04-.03-.07-.04.05-.12.11-.24.16-.37-.33-.15-.35-.32-.03-.68-.04-.01-.07-.02-.1-.03-.07-.02-.15-.05-.22-.07.04-.09.07-.19.13-.26.06-.07.15-.13.22-.19-.02-.02-.03-.04-.05-.06-.08.03-.15.07-.23.1-.29-.37.27-.39.25-.67-.1-.03-.2-.07-.37-.13.09-.09.15-.15.22-.21.06-.06.12-.12.17-.16-.14-.07-.28-.11-.34-.19-.03-.05.07-.19.11-.29-.42-.31.1-.46.22-.73-.12.05-.19.08-.31.12,0-.12.01-.21.02-.31,0-.04.04-.1.02-.11-.21-.22,0-.3.08-.36-.05-.13-.15-.27-.11-.34.06-.12.2-.19.32-.29-.05-.03-.07-.05-.08-.05-.09-.01-.19-.02-.28-.03.07-.1.13-.19.2-.29.06-.07.12-.14.19-.21-.02-.02-.03-.04-.05-.06-.09.04-.18.09-.33.16.03-.28.05-.52.08-.79-.25-.13-.09-.3.05-.49-.13,0-.21-.01-.25-.01-.07-.15-.13-.27-.19-.39-.04.01-.07.02-.11.04.14,3.26.14,6.52.55,9.8-.38-.08-.58-.33-.67-.6-.13-.37-.4-.61-.61-.91-.14-.2-.24-.41-.41-.6-.33-.37-.6-.79-.89-1.19-.02-.02-.05-.04-.05-.07-.15-.7-.79-1.08-1.11-1.67-.16-.3-.25-.63-.36-.96-.16-.46-.31-.93-.47-1.39-.03-.09-.08-.18-.12-.27-.07-.18-.14-.35-.21-.53-.04.01-.09.03-.13.04.24.72.48,1.44.72,2.15-.02.02-.04.05-.05.07-.1-.05-.24-.07-.31-.15-.55-.65-1.08-1.31-1.63-1.96-.48-.57-.98-1.12-1.47-1.69-.19-.22-.36-.46-.54-.69-.03.03-.07.05-.1.08.12.15.24.31.37.46,0,.02-.02.04-.02.06-.09-.02-.21,0-.26-.06-.33-.36-.8-.4-1.2-.61-.34-.18-.68-.37-1.02-.55-.05-.02-.1-.03-.16-.05-.28-.27-.56-.54-.84-.81-.03.01-.05.03-.08.05.05.1.08.23.16.31.16.14.34.26.52.38.07.04.16.05.25.08.1.37.4.55.71.69.33.16.71.23,1.05.37.74.31,1.38.77,1.89,1.4.16.19.34.37.5.56.06.07.1.17.15.26-.01.02-.03.05-.05.07-.17-.06-.35-.12-.52-.19-.67-.25-1.33-.52-2.01-.75-.47-.17-.96-.28-1.43-.45-.15-.06-.27-.21-.4-.33-.38-.34-.81-.64-1.13-1.03-.4-.5-.9-.85-1.37-1.26-.08-.06-.13-.15-.21-.21-.09-.07-.2-.12-.3-.18-.02.03-.05.06-.07.1.26.24.51.49.79.7.29.22.56.45.76.85-.92-.28-1.78-.55-2.64-.81.52.36,1.07.62,1.7.68.32.03.64.2.92.36.35.19.69.43,1.01.67.15.12.25.31.42.52-.73-.11-1.35-.2-1.98-.29-.16-.02-.33-.04-.48,0-.4.12-.74-.03-1.08-.21-.3-.16-.57-.33-.81-.57-.24-.24-.57-.39-.87-.58-.04-.03-.08-.07-.11-.12-.15-.22-.22-.21-.35.05.27.21.54.41.81.62.23.17.46.34.7.5.08.05.2.05.29.1.07.04.14.12.15.18,0,.04-.09.12-.15.15-.48.16-.96.13-1.44.02-.36-.09-.72-.16-1.08-.26-.09-.02-.19-.07-.26-.13-.36-.36-.71-.74-1.07-1.09-.25-.25-.56-.32-.95-.21.07.04.1.08.14.08.38-.02.63.18.87.45.16.18.36.32.54.48.13.12.22.25-.08.43.53.17.98.31,1.43.45-.16.5-.6.54-.97.72.19.22.38.12.51.03.65-.44,1.35-.61,2.14-.54.32.03.65-.16.98-.21.32-.05.65-.06.97-.07.14,0,.28.05.41.06.67.09,1.34.17,2.01.26.06,0,.12.07.13.08-.4.26-.78.54-1.19.77-.35.2-.73.4-1.12.47-.36.06-.76-.06-1.13-.12-.33-.05-.66-.12-.99-.18-.31-.05-.65-.17-.94-.1-.38.09-.66,0-.94-.22-.04-.03-.11-.04-.16-.03-.06.02-.11.07-.17.1.04.04.08.08.13.11.16.09.32.16.46.29-.47.11-.8-.24-1.11-.45-.28-.19-.41-.59-.66-.97-.29-.06-.49-.55-.97-.57.11.25.49.24.43.58-.2-.09-.39-.17-.57.03.22.26.55.41.75.37-.06-.13-.12-.28-.18-.42.23.16.47.3.67.48.08.07.14.26.1.36-.08.21.02.3.16.43.29-.31.41.1.62.15.02,0,.02.14.03.27.02.02.1.07.19.12.13-.27.22-.29.46-.09.15.12.3.24.45.35.02-.03.05-.06.07-.09-.12-.11-.24-.22-.37-.34.22-.16.38,0,.53.09.1.06.23.17.07.32-.02.02.03.14.08.18.14.12.29.19.27.45,0,.19.27.29.49.29-.03-.13-.04-.25-.09-.35-.05-.09-.13-.18-.22-.22-.15-.07-.22-.16-.23-.34,0-.1-.09-.2-.14-.31-.03-.05-.09-.13-.07-.16.03-.05.11-.1.17-.1.4.03.8.06,1.2.12.41.06.81.14,1.21.21.03,0,.05.02.08.03-.15.27-.97.67-1.49.45-.01.02-.02.04-.04.06.08.05.17.14.24.13.32-.04.64-.09.96-.16.59-.12,1.03-.55,1.54-.82.6-.32,1.18-.68,1.81-.9.45-.16.96-.12,1.44.1.51.24,1.06.41,1.56.66.42.21.8.49,1.2.74.03.02.04.07.06.11-.02.02-.04.03-.04.03-.32-.21-.68-.26-1.05-.26-.15,0-.31,0-.46,0-.17,0-.35-.05-.52-.04-.63.03-1.24.12-1.86.27-.45.11-.94.05-1.41.03-.35-.02-.7-.09-1.07-.14-.04.25-.13.31-.34.22-.09-.04-.24.04-.37.06.04.08.06.13.1.2h-1.1s-.01.05-.02.08c.38.25.76.5,1.14.75-.02.03-.03.06-.05.09-.15-.05-.36-.05-.44-.15-.19-.25-.49-.27-.71-.43-.07-.05-.14-.1-.19-.16-.1-.12-.21-.2-.38-.14-.05.01-.13-.07-.19-.11-.04-.03-.08-.08-.12-.12-.02.03-.07.06-.07.08.03.06.06.13.11.16.37.2.74.38,1.12.58-.02.21-.14.22-.29.13-.22-.13-.44-.26-.66-.39-.02.03-.04.06-.06.08.16.11.31.24.47.34.17.09.36.16.54.23.14.05.28.07.25-.16.28.1.56.14.7.45.03.07.26.05.39.07-.04-.2-.06-.35-.1-.54-.05-.06-.14-.17-.24-.28.03-.03.06-.07.09-.1.18.13.37.26.55.39-.04.04-.08.09-.11.12.08.12.16.25.27.42.02,0,.1,0,.19,0,0-.02,0-.03.01-.05-.03-.02-.08-.04-.1-.06-.04-.04-.06-.09-.09-.14.06-.03.14-.1.18-.08.18.08.39.15.5.29.16.2.33.17.57.14-.21-.14-.38-.25-.58-.38.28-.12.53-.01.7.17.14.16.34.26.52.38.02-.03.05-.07.07-.1-.3-.22-.61-.44-.95-.69.25-.2.49-.41.74-.6.42-.3.91-.45,1.4-.59.6-.17,1.18-.07,1.78-.03.68.04,1.22.36,1.8.62.02.01.05.03.06.05.21.23.42.46.65.71-.29-.04-.55-.08-.81-.1-.25-.02-.51.02-.77-.02-.37-.05-.73-.14-1.09-.23-.26-.06-.52-.13-.78-.21-.09-.03-.17-.08-.25-.12.01-.04.02-.07.03-.11.37.06.75.12,1.13.19,0-.06-.01-.12-.02-.18.2.07.41.14.63.21,0-.06-.01-.12-.03-.23.18.05.34.08.5.12,0-.03.02-.05.03-.08-.2-.13-.39-.27-.63-.44,0,.31-.1.35-.28.24-.06-.04-.14-.04-.21-.06-.15-.21-.51-.29-.84-.15.09.06.15.13.21.14.21.02.42,0,.63.01,0,.08,0,.16,0,.25ZM37.96,7.21c-.23-.04-.44-.06-.54.23-.02.05-.12.07-.18.11-.08.04-.21.07-.24.13-.05.11-.03.24-.04.36.09-.02.21-.02.27-.08.25-.24.48-.5.72-.76.19-.21.37-.42.56-.62-.02-.03-.04-.06-.07-.09-.28.09-.56.18-.88.29.19.15.45.16.39.44ZM16.2,21.84c.12.05.25.09.38.15.01-.15.02-.24.03-.3.19.12.35.22.51.32-.09-.38-.27-.66-.68-.65-.03.08-.06.18-.09.29-.33-.2-.63-.38-.95-.57-.02.15-.03.24-.04.33-.08.01-.15.02-.23.03-.15-.33-.39-.56-.77-.63.09.14.22.23.32.35.05.06.06.15.09.23-.09-.02-.21,0-.26-.06-.16-.16-.27-.35-.43-.51-.1-.1-.25-.16-.37-.24-.03.03-.05.07-.08.1.06.06.11.15.18.17.18.07.21.19.18.36h0c-.23-.15-.46-.28-.63-.39h-.5c-.01.21-.15.2-.33.1-.08-.04-.17-.04-.27-.07.01.07,0,.1.02.11.24.3.48.59.72.89.02.03.07.07.07.08-.16.26.11.28.25.42-.08-.23.03-.28.27-.28-.36-.25-.65-.47-.73-.93.33.32.61.58.87.84.02.02.02.07.02.1.01.07.01.14.04.2.06.11.13.22.21.32.1.15.24.23.43.17.06-.02.14-.03.19,0,.34.18.67.37,1.01.55.07.03.15.02.23.03,0-.04.02-.07.03-.11-.18-.08-.35-.17-.54-.22-.23-.07-.46-.33-.44-.58.17.11.32.21.48.31.17.11.34.2.5.31.1.07.21.15.28.26.14.2.37.3.5.25.35.16.62.29.9.41l.04-.07c-.04-.09-.09-.18-.13-.27.02-.02.04-.04.05-.05.18.07.4.06.49.31.03.08.12.16.2.2.15.07.31.1.47.15-.01-.22-.39-.24-.24-.54.3.3.57.59.85.86.29.28.58.55.89.84.05-.06.1-.12.16-.19-.39-.09-.62-.43-.66-.79-.01-.11-.21-.27-.32-.27-.26-.01-.46-.15-.5-.46.13.08.25.15.37.23.02-.02.04-.04.05-.06-.2-.22-.4-.43-.6-.64-.02.02-.04.04-.06.06,0,.09,0,.19-.02.35-.24-.19-.44-.33-.62-.49-.34-.3-.42-.34-.65-.26.26.21.51.4.75.6.05.04.06.13.09.19-.63-.25-1.03-.81-1.69-.99.01.14.02.24.04.35.37-.05.54.2.72.45-.1.03-.18.02-.26,0-.07-.02-.13-.09-.2-.09-.19.01-.31-.06-.44-.19-.12-.13-.26-.29-.42-.32-.28-.06-.44-.21-.6-.42-.07-.09-.18-.14-.26-.22-.11-.11-.21-.23-.32-.35.02-.02.04-.04.07-.06.19.1.37.21.56.31.01-.02.03-.05.04-.07-.18-.18-.35-.37-.57-.59.15-.02.21-.02.28-.03.12.14.22.35.37.41.21.08.46.35.69.02h0ZM9.5,30.51h0c-.12-.03-.23-.1-.35-.1-.14,0-.29.06-.43.1-.05.01-.1.02-.15.03.1.11.22.15.32.22.09.07.15.17.23.26-.02.02-.05.04-.07.06-.43-.03-.68-.6-1.2-.41.06.09.12.17.17.26-.24.06-.54-.1-.72-.37-.04.05-.09.09-.14.15.19.08.32.17.17.38-.2-.15-.39-.29-.65-.48.01.16,0,.25.03.31.15.27.44.35.77.23.1-.04.25-.05.33,0,.28.19.31.19.41-.18.4.09.71.57,1.18.31-.07-.07-.14-.14-.21-.21.02-.02.04-.04.06-.07.21.09.41.17.66.27-.13.08-.22.13-.34.2.32.23.51-.14.79-.08-.03-.08-.08-.13-.11-.19-.02-.06-.02-.13-.02-.2.14.07.27.14.45.23-.03.03,0,0,.02-.02.2-.06.36-.12.04-.27-.04-.02-.05-.11-.08-.19.19.04.34.06.48.09-.7-.5-.74-.52-.99-.39.13.06.27.13.41.19-.01.04-.03.08-.04.12-.12-.02-.24-.04-.36-.07-.23-.06-.46-.13-.7-.19ZM27.8,15.02c-.06.02-.12.02-.17.05-.13.08-.26.16-.39.25-.07.04-.12.14-.14.23-.02.09-.04.23,0,.26.28.2.07.34-.05.48-.11.13-.27.23-.35.38-.06.11-.07.36-.02.38.26.12.1.24.02.35-.07.09-.2.15-.26.25-.05.08-.07.25-.02.3.24.23.25.25-.05.42-.23.13-.25.33-.2.56.26-.16.32-.52.67-.59-.14.57-.43.84-.73.72.03.14.06.29.1.46.22-.15.43-.29.64-.43.02-.01.02-.06.01-.08-.11-.27.08-.41.22-.59.09-.11.15-.25.23-.38-.03-.02-.06-.04-.09-.06-.05.07-.1.14-.16.2-.05.04-.13.05-.19.07,0-.07-.05-.16-.02-.2.09-.11.2-.19.31-.28.05-.04.13-.07.16-.13.07-.13.13-.27.19-.41.03-.07.04-.14.06-.21-.08.03-.17.04-.25.08-.07.03-.14.09-.2.14-.02-.03-.04-.05-.06-.08.12-.23.21-.49.55-.51.07,0,.14-.06.22-.09-.05-.07-.1-.15-.16-.22.19-.28.38-.58.6-.9-.31-.06-.47-.16-.47-.43.04-.13.16-.31.11-.39-.11-.17-.01-.24.06-.34.06-.07.14-.13.21-.2-.02-.03-.05-.07-.07-.1-.1.07-.22.12-.31.2-.29.27-.13.56,0,.83ZM6.32,14.24c.11.09.22.18.39.32,0-.2.01-.3.02-.4-.17.04-.29.06-.42.09-.1-.1-.19-.2-.29-.3.01-.02.02-.04.03-.06.12.03.24.06.36.09-.2-.44-1.18-1.07-1.57-.94.19.2.36.37.53.54h0c.1.13.17.28.29.39.09.09.21.13.08.28-.02.02-.03.07-.02.09.14.31.29.61.44.91.05.11.11.22.14.34.04.12,0,.28.08.38.32.46.66.91,1.01,1.36.11.14.21.33.48.3-.1-.12-.18-.2-.3-.33.45-.09.64.15.78.49.03-.02.06-.05.09-.07-.03-.21-.07-.42-.11-.63.48.11.95.21,1.4.32.13.03.25.12.38.18-.11.09-.22.17-.33.26-.01,0-.04,0-.06,0-.29.09-.57.18-.92.3-.06-.05-.16-.17-.29-.23-.13-.07-.29-.09-.44-.13-.05-.01-.11-.03-.15,0-.03.01-.06.11-.05.12.04.04.1.08.16.08.43.02.47.06.48.51,0,.21.03.4.32.4.02-.09.03-.16.05-.24.03-.01.05-.02.08-.03.12.18.24.37.35.55-.02.02-.04.05-.06.07-.12-.04-.25-.09-.37-.13,0,.01-.01.03-.02.04.21.18.42.36.65.56,0-.11.02-.19.02-.27.02,0,.04-.01.07-.02.12.25.57.28.41.71,0,.02.01.06.03.07.13.09.26.18.39.26.02-.01.03-.02.05-.03-.05-.13-.09-.25-.13-.35.18-.18.37-.21.57-.08.02.02.07,0,.11,0,.04.08.07.21.12.22.19.03.43.09.47-.21.18.04.34.08.51.12.01-.03.03-.06.04-.09-.18-.13-.21-.45-.55-.38v.27c-.18-.11-.32-.2-.51-.32.07.16.11.24.15.35-.09.01-.16.02-.24.03-.08-.08-.16-.17-.25-.25-.12-.1-.14-.24,0-.29.21-.07.44-.14.65-.11.42.07.84.19,1.25.31.16.05.33.12.45.24.04.04-.05.22-.08.34,0,.02.01.05.01.05.16.01.3.06.43.03.44-.11.82.1,1.21.2.32.08.6.31.92.38.43.09.87.08,1.31.13.33.04.63.12.82.45.12.21.31.38.46.56.14.17.28.33.42.5-.01.02-.02.04-.04.06-.18-.03-.36-.06-.54-.09,0,.02-.02.05-.02.07.09.05.19.11.29.15.23.09.51.12.69.27.21.17.35.43.52.66.23.32.44.64.67.96.27.38.55.76.82,1.14.07.11.16.21.2.34.21.6.41,1.21.63,1.82.09.25.19.49.26.69,0-.08.03-.24,0-.38-.13-.48-.28-.97-.44-1.44-.26-.76-.62-1.47-1.09-2.13-.12-.17-.25-.33-.36-.49-.19-.27-.39-.55-.56-.83-.17-.27-.38-.53-.46-.82-.19-.71-.33-1.44-.47-2.17-.07-.38-.05-.38-.36-.47.19.78.38,1.58.59,2.44-.1-.04-.18-.04-.22-.09-.27-.33-.54-.67-.8-1.02-.2-.27-.38-.56-.6-.81-.36-.39-.76-.74-1.12-1.13-.15-.17-.27-.38-.37-.59-.17-.36-.3-.73-.47-1.09-.14-.3-.32-.59-.47-.88-.13-.24-.25-.48-.37-.72-.12.14-.2.23-.27.31.67.61.95,1.45,1.27,2.35-.13-.03-.18-.02-.2-.04-.4-.37-.86-.62-1.37-.84-.67-.29-1.17-.79-1.4-1.53-.15-.48-.4-.92-.62-1.38-.04-.08-.11-.15-.18-.21-.4-.35-.68-.78-.87-1.27-.03-.08-.11-.13-.16-.2-.02.01-.04.03-.06.05.14.63.66,1.07.94,1.67-.19-.01-.33-.02-.47-.03-.03-.05-.06-.11-.1-.15-.42-.42-.84-.83-1.26-1.24-.23-.23-.48-.44-.72-.66-.03.03-.07.06-.1.09.05.08.08.18.15.25.46.46.91.93,1.39,1.37.18.16.44.23.66.35.17.12.35.22.5.35.14.11.3.23.38.38.21.4.38.83.56,1.25.02.04-.02.1-.04.2-.33-.18-.64-.33-.94-.5-.31-.18-.61-.38-.94-.54-.35-.18-.71-.35-.9-.71-.34-.63-.9-1.06-1.39-1.55-.12-.12-.27-.21-.41-.32-.01.01-.03.03-.04.05.49.56.98,1.12,1.46,1.68-.02.03-.04.06-.06.09-.27-.03-.59.03-.79-.1-.46-.31-.86-.72-1.29-1.08-.15-.12-.32-.21-.48-.32-.03.04-.05.07-.08.11.42.34.83.68,1.24,1.03.06.05.08.14.12.21-.09.02-.18.08-.26.06-.65-.19-1.28-.41-1.81-.93.13,0,.22-.01.31-.02ZM34.29,9.57h0c-.01.26-.02.52-.04.78,0,.06-.03.12-.04.17-.04.14-.05.31-.14.41-.23.25-.56.44-.72.72-.23.42-.6.35-1,.46.19-.3.35-.53.5-.77-.03-.03-.06-.06-.09-.08-.08.07-.19.13-.25.21-.13.18-.22.39-.35.56-.15.2-.33.39-.5.57-.02.03-.12.03-.12.02-.03-.05-.06-.13-.04-.17.21-.47.43-.93.63-1.41.1-.22.16-.46.23-.69.16-.01.31-.02.43-.03,0-.12-.02-.25-.03-.43-.06.04-.15.08-.2.14-.08.1-.13.22-.2.33-.15.14-.29.24-.37-.06-.29.14-.57.26-.83.42-.19.12-.35.3-.52.45h0c-.23.19-.46.39-.67.57.21.38-.17.49-.26.71-.02.06-.23.03-.35.05,0-.02-.01-.04-.02-.07-.11.13-.22.26-.33.39.02.02.05.05.07.08.14-.09.28-.18.42-.27.02.02.05.05.07.07-.17.25-.34.5-.51.75-.07-.04-.14-.1-.22-.13-.1-.03-.22-.08-.3-.05-.08.03-.11.17-.16.26.03.02.05.04.08.06.08-.03.16-.06.25-.09.02.08.03.16.07.32.12-.16.2-.27.28-.37.16.1.14.17,0,.42-.29.51-.59,1.01-.72,1.6-.04.19-.07.39-.12.58-.17.67-.35,1.34-.53,2.02-.01.05-.04.1-.07.15-.09.21-.21.4-.25.62-.14.65-.29,1.29-.6,1.88-.1.18-.19.37-.28.55-.27.56-.53,1.14-.83,1.69-.28.53-.61,1.04-.89,1.57-.37.7-.7,1.42-1.05,2.12-.16.32-.34.63-.49.95-.09.18-.13.39-.22.57-.04.08-.14.13-.22.19-.04-.07-.12-.15-.11-.22.02-.15.09-.3.15-.48.02,0-.04-.02-.06-.03.09-.26.17-.48.25-.71-.25-.07-.26-.11-.06-.37-.22-.06-.21-.15-.05-.28.13-.12.25-.25.37-.38-.01-.01-.02-.02-.03-.04-.12.06-.23.11-.35.17-.02-.02-.03-.03-.05-.05.14-.18.28-.36.46-.58-.15.05-.24.08-.42.14.14-.32.25-.56.37-.84-.11.04-.19.07-.36.13.11-.18.19-.3.23-.38-.04-.19-.06-.35-.1-.53.07-.21.15-.44.23-.68-.25-.08-.23-.21-.01-.37.06-.04.09-.11.16-.19-.12.03-.21.06-.29.08-.02-.03-.03-.05-.05-.08.12-.14.24-.28.36-.42-.01-.02-.02-.04-.03-.06-.1.04-.2.08-.32.13-.08-.31.27-.33.33-.58-.12.03-.21.05-.32.07-.11-.36.43-.31.38-.66-.17.09-.33.17-.48.25-.02-.03-.04-.06-.07-.09.15-.15.31-.29.45-.44.05-.06.08-.14.12-.22-.08.02-.16.02-.23.06-.1.04-.18.11-.27.17-.01-.16.04-.25.06-.35.02-.08.03-.19,0-.25-.11-.21-.1-.63.04-.82.04-.05.05-.11.08-.17-.11.03-.2.05-.32.08.06-.19.14-.33.15-.47.01-.21-.02-.43-.04-.66-.07.02-.19.06-.3.1,0-.22-.05-.45.02-.63.07-.18.26-.3.4-.45-.01-.03-.02-.06-.04-.09-.52.56-.97.32-1.44-.08,0,.16.03.29.09.41.14.29.33.57.42.88.24.79.56,1.56.58,2.4.02,1.17.05,2.35.02,3.52-.02,1.01-.13,2.01-.18,3.02-.03.58-.02,1.16-.02,1.74,0,.05.02.1.05.23.17-.22.34-.36.43-.54.31-.62.59-1.25.89-1.87.13-.28.28-.56.42-.84.26-.51.49-1.03.78-1.53.27-.48.58-.94.9-1.39.39-.56.78-1.12,1.22-1.65.31-.37.69-.69,1.06-1,.24-.19.44-.43.81-.45.49-.03.93-.22,1.31-.55.24-.21.54-.35.81-.53.22-.15.44-.3.65-.46.06-.04.06-.15.11-.28-.17.15-.26.29-.39.33-.11.04-.26-.03-.45-.06.18.19.11.27-.05.34-.06.02-.11.06-.17.09-.47.28-.93.56-1.4.83-.04.03-.12,0-.19,0,0-.06,0-.11.02-.13.19-.22.37-.45.58-.64.47-.44.95-.85,1.43-1.28.12-.11.22-.24.33-.36.32-.08.64-.17.98-.26-.01-.09-.02-.19-.05-.34-.1.09-.15.16-.22.2-.06.03-.19.06-.2.04-.11-.19-.19-.08-.26.02-.08.11-.16.22-.24.34-.06,0-.12,0-.17,0,.03-.1.06-.18.09-.25-.11.04-.17.15-.25.16-.25.04-.21.15-.14.27-1.29,1.38-2.75,2.55-4.2,3.72.13-.33.31-.62.41-.94.22-.65.57-1.21,1.01-1.74.42-.51,1.01-.79,1.51-1.18.18-.14.39-.3.61-.32.48-.05.85-.32,1.27-.51.58-.27,1.17-.51,1.75-.77.2-.09.37-.24.57-.34.71-.35,1.35-.77,1.66-1.54-.2-.03-.4.11-.45.31-.02.08-.05.18-.11.23-.37.28-.73.57-1.12.8-.55.32-1.14.59-1.71.88,0,0-.02,0-.04-.01,0-.06.02-.12.03-.24-.21.11-.42.15-.52.28-.32.41-.83.43-1.24.64-.34.18-.73.25-1.04.5-.18.14-.36.3-.54.45-.02-.02-.04-.03-.07-.05.03-.07.05-.16.09-.22.2-.3.38-.62.61-.9.5-.62.86-1.36,1.58-1.81.55-.34,1.04-.78,1.56-1.17.46-.36,1-.5,1.55-.63.33-.07.67-.13.99-.24.3-.1.58-.25.85-.4.25-.14.49-.3.74-.45-.02-.03-.03-.07-.05-.1-.96.48-1.92.94-3,1.05-.02-.07-.04-.14-.04-.18-.44.31-.87.61-1.31.9-.44.29-.74.76-1.26.97.01-.1.06-.16.11-.22.11-.12.22-.23.32-.35.28-.34.55-.7.84-1.03.31-.35.64-.7.98-1.01.29-.27.63-.5.89-.7.05-.15.06-.28.13-.37.27-.33.55-.65.84-.95.44-.45.91-.87,1.36-1.31.03-.03.04-.09.07-.18-.16.1-.29.17-.41.24-.02-.02-.05-.04-.08-.05.04-.09.07-.19.12-.26.04-.06.12-.08.17-.14.04-.04.06-.1.07-.16,0-.02-.05-.08-.06-.07-.05.02-.11.05-.15.1-.1.11-.19.23-.27.35-.04.06-.08.15-.06.19.08.19,0,.3-.13.42-.13.12-.24.26-.36.38-.28.28-.56.55-.84.82-.02-.02-.05-.04-.07-.06.35-.5.71-.99,1.07-1.5-.13-.06-.22-.1-.33-.14-.1.13-.19.26-.28.38-.03-.03-.06-.05-.09-.08.03-.09.06-.18.09-.3-.07.02-.12.02-.14.04-.28.36-.65.56-1.1.66-.09.02-.18.13-.23.22-.02.03.09.13.14.19.1-.1.18-.17.26-.24.02.01.04.03.05.04-.03.07-.05.13-.08.22.07,0,.12,0,.17-.01ZM24.3,5.07c-1.44-.26-2.35-1.05-2.72-2.48-.93,1.44-2.12,1.73-3.62,1.11.01.15.02.29.1.38.44.52.58,1.11.39,1.75-.11.36-.32.69-.51,1.02-.11.19-.16.34.09.44.12.05.24.13.37.17.48.18.81.56,1.17.88.21.19.41.41.57.65.25.4.36.45.72.16.44-.34.96-.42,1.47-.49.41-.06.83,0,1.24,0,.07,0,.14,0,.23-.02-.38-1.29-.51-2.51.5-3.58ZM13.47,2.45c.14.28.28.54.41.8.12.24.04.4-.18.53-.25.16-.49.34-.74.51.01.03.02.05.03.08.47-.05.97-.02,1.4-.19.26-.1.46-.19.72-.05.01-.03.02-.05.03-.08-.1-.11-.2-.22-.28-.31.13-.09.22-.16.33-.24.17.06.4.21.59.17.33-.06.53.07.75.25.13.1.29.17.5.29-.07-.4-.53-.37-.56-.78.38.24.71.45,1.11.71-.3-.48-.83-.64-1.05-1.06.03-.03.05-.05.08-.08.24.2.48.4.72.6.03-.02.05-.04.08-.07-.05-.1-.1-.2-.15-.3-.12-.21-.25-.41-.37-.63-.02-.04.01-.12.02-.17.05.02.13.04.15.08.1.15.18.31.29.45.05.06.14.1.24.16-.08-.31-.14-.56-.21-.8.04-.01.07-.02.11-.04.15.27.3.55.45.82.02-.01.04-.02.07-.03-.01-.04-.03-.08-.03-.12,0-.21-.09-.5,0-.6.19-.19.16-.38.18-.58.03-.41.14-.8.45-1.1.05-.05.1-.12.16-.19-.59-.16-1.2.27-1.46,1.03-.18-.03-.37-.08-.56-.1-.49-.06-.98-.08-1.44-.32-.21-.11-.48-.13-.77-.2.29.58.55,1.08.82,1.62-.67.3-1.28-.24-1.91-.07ZM25.57,1.08c.04.09.06.17.11.22.43.54.69,1.13.6,1.84-.07.6-.14,1.19-.7,1.58-.03.02-.02.11-.03.17.13.01.24.02.35.04,0,.03,0,.05,0,.08-.21.06-.43.13-.64.19,0,.02,0,.05,0,.07.29-.04.58-.08.87-.11,0,.04.01.09.02.13-.4.09-.8.18-1.19.27,0,.03,0,.06.01.09.53-.07,1.05-.15,1.65-.23-.11.12-.17.19-.26.29.27-.03.51-.06.74-.09,0,.04.01.08.02.12-.16.05-.33.1-.47.14.27.1.55.17.8.31.39.21.47.63.59,1.02.08.26-.2.29-.26.45,0,.03-.01.05-.02.08.39.05.68-.16.75-.58.1-.64-.02-1.22-.59-1.63-.36-.27-.36-.35.02-.61.12-.08.26-.14.38-.23.05-.04.08-.11.09-.14-.3-.12-.57-.22-.83-.34-.16-.07-.22-.19-.1-.36.19-.27.37-.55.56-.85-.06,0-.1,0-.14,0-.27-.03-.51-.09-.58-.42-.04-.16-.11-.34-.22-.45-.43-.43-.91-.81-1.54-1.03ZM22.24,13.55c-.33-.37.14-.52.14-.78-.07.01-.13.02-.21.03.02-.21.03-.39.05-.59-.25-.04-.19-.17-.04-.33-.08-.07-.15-.13-.22-.18.02,0,.05,0,.07-.02.01-.2.03-.4.04-.61-.1-.02-.18-.03-.29-.05.1-.15.19-.28.28-.41-.02-.02-.05-.04-.07-.06-.12.11-.23.23-.35.34-.03-.02-.06-.04-.08-.05.17-.29.34-.57.52-.86-.03-.01-.05-.03-.08-.04-.16.2-.31.39-.47.59-.03-.02-.06-.03-.09-.05.04-.12.08-.24.13-.38-.07.01-.12.02-.22.04.09-.19.16-.35.23-.5-.2.12-.45.22-.38.5.14.58.33,1.14.46,1.72.09.4.12.82.18,1.23-.03.02-.06.04-.1.06-.24-.34-.6-.4-1-.51.19.38.36.69.5,1.01.29.64.61,1.28.82,1.94.16.52.17,1.1.25,1.65.01.07.08.13.12.2.05-.05.11-.1.16-.16.09-.1.18-.2.27-.3.05-.06.11-.11.16-.16-.01,0-.03-.02-.04-.03-.14.07-.28.13-.43.2-.02-.03-.05-.05-.07-.08.15-.2.29-.4.47-.65-.21.07-.36.12-.57.19.15-.4.27-.72.4-1.08-.09.04-.16.09-.24.1-.05.01-.12-.02-.18-.03.02-.06.02-.13.06-.17.06-.06.15-.07.22-.13.08-.07.14-.16.21-.24-.02-.02-.05-.04-.07-.06-.15.1-.3.21-.49.34-.04-.37.34-.44.41-.71-.14.04-.26.08-.37.11-.01-.02-.02-.05-.04-.07.06-.08.14-.15.19-.23.05-.08.09-.17.13-.25-.02-.01-.05-.02-.07-.03-.08.07-.16.14-.25.22-.22-.24-.36-.46-.07-.67ZM12.62,32.02s.03-.05.05-.07c.15.07.3.12.44.2.25.15.42-.02.51-.19.13-.23-.2-.15-.25-.28-.01-.03-.12-.01-.15-.05-.07-.07-.11-.15-.17-.23.02-.01.04-.03.06-.04.22.11.44.22.66.33,0,.1-.01.18-.02.3.16,0,.29.01.38.02-.02-.19-.03-.32-.05-.46.46-.02.47-.02.49.34.14-.03.28-.09.41-.07.14.02.27.14.41.14.15,0,.27-.08.16-.27-.35.2-.61.07-.66-.31-.25-.06-.5-.1-.73-.18-.13-.05-.23-.17-.35-.25-.06-.04-.15-.06-.22-.06-.02,0-.08.12-.07.13.05.07.13.12.2.17.07.05.14.1.2.14-.02.04-.04.07-.06.11-.38-.11-.73-.35-1.2-.34.14.12.22.19.31.26-.02.03-.03.06-.05.1-.22-.05-.43-.09-.67-.14v.2h-.46c-.05.24-.08.42-.11.54-.27-.02-.47-.04-.67-.05,0,.05,0,.1,0,.15.31-.2.69.34.95-.14.25.09.48.16.71.24.01-.02.02-.04.03-.06-.03-.06-.07-.11-.1-.17ZM34.67,10.98s.04.07.06.1c.18-.12.39-.23.55-.38.53-.48,1.15-.83,1.79-1.14.17-.08.45-.26.43-.36-.03-.23.09-.3.2-.42.11-.12.2-.26.3-.39.01-.03.02-.07.04-.1-.29.15-.3-.06-.36-.2-.14.12-.27.19-.11.37.04.04.02.17-.01.23-.09.16-.2.31-.31.46-.07.09-.17.16-.28.27-.03-.12-.04-.19-.05-.22-.14.13-.26.3-.42.37-.36.15-.66.35-.93.62-.18.18-.34.36-.53.53-.11.1-.24.19-.36.28ZM33.99,12.43c.06-.02.1-.02.12-.04.43-.3.86-.62,1.3-.9.23-.14.5-.2.74-.32.35-.18.68-.37,1.02-.57.1-.06.17-.18.26-.27-.02-.02-.05-.05-.07-.07-.09.04-.23.13-.27.1-.28-.22-.28-.03-.29.17,0,.03-.03.07-.06.08-.33.14-.62.47-1.02.28-.06.11-.1.23-.17.3-.16.13-.34.23-.51.33-.39.23-.79.47-1.05.9ZM15.84,16.9s.06-.03.08-.05c.05.14.06.35.16.42.23.17.37.42.57.57.36.28.56.67.85.99.24.26.42.57.66.9.02-.53-2.15-3.19-2.54-3.17.18.2.05.29-.17.34.02.02.04.05.06.07.11-.03.22-.06.34-.09ZM18.23,34.56s.04-.09.06-.13c-.09-.05-.17-.11-.26-.15-.15-.06-.31-.11-.46-.17-.06-.02-.12-.04-.23-.09.08.15.13.23.17.32-.02.02-.03.04-.05.06-.15-.08-.29-.17-.44-.24-.09-.04-.18-.05-.28-.08-.02.09-.04.18-.07.3h-.41c.03.16-.04.37.24.33.17-.03.33-.06.51-.09,0-.03-.04-.11-.06-.2.3-.01.55.22.57.58.16-.06.31-.11.52-.18-.16-.09-.26-.13-.33-.2-.05-.05-.07-.13-.1-.2.08.01.16.01.24.03.13.03.26.07.38.11ZM12.06,14.38c.62.55,1.26,1.1,1.91,1.67,0-.28-1.55-1.88-1.79-1.88.03.06.06.12.09.18-.11.02-.19.03-.22.03ZM15.52,22.4c.79.05,1.57.09,2.36.14,0-.04,0-.07.01-.11-.4-.08-.79-.2-1.19-.23-.4-.02-.81-.06-1.18.19ZM20.14,34.85c.14-.41-.21-1.85-.52-2.03.17.68.35,1.35.52,2.03ZM33.69,14.38s.07.06.11.09c.33-.32.75-.54.95-.99-.15.2-.31.27-.54.07v.31s-.04-.02-.05-.04c-.16.19-.31.37-.47.56ZM14.39,28.71c-.07-.44-1.04-1.2-1.3-1.12.43.37.87.74,1.3,1.12ZM28.3,13.91c0,.16.03.3-.02.37-.12.17-.16.31,0,.46-.05.09-.1.17-.16.27.34-.16.42-.33.34-.62-.02-.07.02-.16.05-.23.03-.08.09-.15.15-.25h-.36ZM3.16,29.1c.11.34,1.05.59,1.39.43-.46-.14-.9-.28-1.39-.43ZM13.45,14.12c.03.37.65,1.45.88,1.55-.37-.45-.37-1.11-.88-1.55ZM3.13,29.91s.07-.05.1-.07c-.13-.2-.25-.41-.38-.61-.02.03-.04.06-.07.08-.12.04-.25.08-.39.12.26.17.5.32.74.48ZM36.39,7.58s.02.05.02.07c.12-.01.32,0,.34-.04.09-.25.29-.34.51-.42.05-.02.07-.11.15-.24-.48.11-.76.36-1.03.63ZM33.27,10.26c-.11.12-.17.22-.26.29-.07.06-.17.16-.25.15-.27-.02-.38.09-.34.37.48-.1.82-.4.85-.81ZM4.57,29.84c.14.15.3.24.34.38.08.26.34.39.62.22-.43-.04-.44-.68-.96-.6ZM25.99,20.49c-.18.13-.23.29-.07.46.13.13.13.23.01.36-.04.05-.07.11-.11.19.48-.06.22-.5.41-.66-.09-.13-.16-.23-.25-.34ZM28.61,20.76s-.05-.03-.07-.04c-.11.17-.23.33-.37.54.16.01.24.02.27.03.08.1.14.18.23.29.07-.25.12-.42.17-.62-.1.09-.18.15-.26.22-.02,0-.04-.02-.06-.03.03-.13.07-.26.1-.39ZM7.96,32.36s.07-.01.13-.03c.07-.02.14-.03.21-.05-.07-.27-.32-.44-.7-.48.11.18.22.34.36.56ZM12.1,14.04s.04-.03.06-.05c-.11-.28-.22-.55-.35-.88-.06.03-.16.08-.19.1.09.25.14.45.23.63.04.09.16.14.25.2ZM12.78,21.99s.03-.04.04-.05c-.23-.26-.46-.52-.69-.79-.12-.14-.24-.16-.34-.05.34.3.67.6,1,.89ZM32.92,17.4c-.12.17-.21.31-.32.47.12,0,.21,0,.31.01.02.08.05.15.07.22.02,0,.05.02.07.02.1-.18.2-.36.34-.6-.17.11-.28.19-.43.29-.02-.19-.03-.29-.04-.42ZM11.52,20.52s-.02.06-.04.09c.1.04.2.1.29.1.15,0,.3-.06.45-.1.17-.04.34-.09.51-.14,0-.03-.01-.06-.02-.09-.4.04-.79.09-1.19.13ZM38.71,7.72c-.21.34-.39.62-.6.95.32-.05.65-.61.6-.95ZM25.95,20.09c.26-.02.49-.03.77-.04-.07-.12-.11-.21-.16-.3-.36.14-.59.27-.61.34ZM32.42,18.01c-.15.29-.31.58-.46.86.36-.05.46-.37.46-.86ZM18.04,34.71c.07.26.44.31.83.11-.26-.04-.52-.07-.83-.11ZM33.23,17.1c.19.01.4.03.61.05.03-.1.08-.24.13-.38-.1.02-.15.08-.21.12-.05.04-.16.09-.18.07-.34-.3-.26.12-.35.15ZM33.2,14.99s-.03-.04-.05-.06c-.35.13-.46.5-.67.76.03.02.05.05.08.07.21-.25.43-.51.64-.76ZM38.48,7.02c.32.07.62-.28.59-.58-.19.18-.38.37-.59.58ZM18.17,18s-.08.02-.13.04c.1.32.2.65.29.97.04,0,.07-.02.11-.03-.09-.33-.19-.65-.28-.98ZM5.51,12.65s-.04.04-.06.06c.25.21.5.42.75.63-.09-.39-.41-.52-.7-.69ZM33.84,13.86c.03-.15.07-.31.12-.54-.23.17-.4.3-.59.44.17.04.31.07.47.1ZM4.32,12.11c.26.24.49.44.73.65.02-.24-.5-.66-.73-.65ZM1.8,28.79c.22.13.44.25.7.41-.1-.33-.42-.53-.7-.41ZM9.28,12.42c.29.31.58.37.93.26-.28-.08-.57-.16-.93-.26ZM7.81,27.86c-.13-.21-.31-.34-.56-.31-.04,0-.07.11-.11.18.25.05.46.09.67.13ZM33.42,10.97c-.33,0-.43.2-.28.62.11-.24.19-.41.28-.62ZM6.07,29.44s.02.06.03.09c.16-.06.32-.13.5-.2-.24-.24-.3-.23-.53.11ZM14.82,15.62c.15.02.25.08.33.05.09-.03.17-.13.27-.22-.1-.06-.17-.1-.21-.12-.12.09-.21.16-.39.29ZM11.82,27.01s.01-.07.02-.11c-.14-.05-.28-.11-.43-.14-.04,0-.09.06-.13.1.03.04.06.1.1.11.15.02.3.03.45.04ZM17.49,30.08s-.05.03-.07.04c.15.25.29.51.44.76.03-.02.07-.04.1-.06-.07-.3-.32-.49-.46-.75ZM8.03,12.93s-.04.05-.06.08c.1.02.21.04.31.06-.03-.17-.07-.34-.1-.51-.02,0-.04.02-.06.02-.03.12-.06.23-.09.35ZM15.98,16.41s.05-.03.07-.04c-.01-.14-.02-.27-.03-.41-.02,0-.04,0-.06,0-.02.07-.05.14-.08.23-.1-.05-.18-.09-.28-.14-.02.34.31.19.38.36ZM6.32,28.14s.04-.06.06-.08c-.14-.12-.29-.24-.44-.35-.01,0-.09.08-.15.13.2.12.37.21.53.31ZM5.41,30.08c.07.23.33.34.6.21-.2-.07-.39-.14-.6-.21ZM15.27,16.44c.16-.25.1-.38-.05-.47-.04-.02-.12.03-.19.05.07.12.14.25.24.42ZM11.23,20.55s.02-.06.03-.08c-.11,0-.27-.04-.32,0-.09.1-.16.27.01.33.11-.1.19-.18.27-.25ZM37.99,9.47c-.37-.02-.33.3-.47.44.3.02.28-.28.47-.44ZM13.95,17.23c.01-.05.03-.11.04-.16-.18-.04-.35-.07-.53-.11-.01.04-.02.08-.03.13.17.05.35.09.52.14ZM30.7,17.53s-.04-.06-.06-.09c-.28-.07-.29.16-.37.32.02.03.04.05.07.08.12-.1.25-.2.37-.31ZM38.04,8.75c-.16.18-.28.32-.41.46.35.01.47-.1.41-.46ZM30.72,16.23s.07.02.1.02c.03-.17.05-.34.09-.55-.11.02-.22.04-.22.05,0,.16.02.32.03.48ZM31.89,15.67c.38.02.42-.05.31-.46-.11.16-.2.29-.31.46ZM29.74,18.33c-.17.11-.3.2-.48.32.45.07.51.03.48-.32ZM4.97,28.1c-.39-.15-.54-.06-.5.22.15-.07.3-.13.5-.22ZM13.57,29.85s-.02.07-.03.11c.17.04.33.09.54.14-.1-.37-.33-.24-.51-.25ZM20.05,36.32s.03-.04.04-.06c-.08-.09-.16-.2-.26-.28-.03-.03-.11,0-.17.01,0,.06,0,.16.03.17.11.06.24.1.37.15ZM18.88,35.66s.1-.07.14-.11c-.11-.13-.22-.26-.33-.39-.03.02-.06.05-.09.07.09.14.19.28.28.42ZM17.71,17.91c-.09-.36-.19-.44-.57-.42.2.15.36.27.57.42ZM37.14,8.47s-.05-.04-.08-.06c-.04.06-.11.13-.11.19.01.1.07.2.13.29.01.02.1,0,.15,0-.02-.07-.05-.14-.07-.2-.02-.07-.02-.14-.03-.2ZM6.18,28.77s-.02.09-.04.14c.18.04.35.09.53.13.01-.05.02-.09.03-.14-.17-.04-.35-.09-.52-.13ZM14.61,17c-.17-.07-.31-.12-.44-.17.14.39.18.41.44.17ZM33.97,14.93c.33-.03.42-.17.26-.48-.09.17-.16.31-.26.48ZM14.77,17.76s.04-.06.05-.09c-.11-.07-.21-.14-.37-.25,0,.16.01.25.02.34h.3ZM33.84,16.24s.03.05.05.08c.11-.05.22-.08.31-.15.03-.02-.02-.14-.05-.29-.14.16-.23.26-.31.35ZM39.05,7.07c-.14.14-.28.28-.44.43.41.12.29-.3.44-.43ZM11.1,27.65s.04-.06.06-.08c-.13-.08-.26-.15-.39-.23-.03.06-.05.11-.08.17.17.05.29.1.42.14ZM11.68,30.55h-.47c.28.27.34.27.47,0ZM8.59,29.35c.17.02.27.02.45.04-.07-.15-.11-.24-.15-.33-.08.08-.16.16-.3.29ZM18.03,22.32s.05-.07.08-.11c-.13-.08-.27-.17-.4-.25-.03.04-.05.09-.08.13.13.08.27.15.4.23ZM29.56,20.77s-.05-.04-.08-.06c-.09.09-.18.18-.27.27.01.02.02.05.04.07.09,0,.19,0,.3.02,0-.12.01-.21.02-.3ZM13.51,16.78c.03-.36-.16-.27-.32-.25-.01.03-.03.05-.04.08.12.06.24.11.36.17ZM12.82,14.04c.13.1.21.21.27.2.08-.02.15-.12.23-.19-.01-.02-.03-.04-.04-.06-.13.01-.25.02-.46.04ZM11.16,28.27c-.06-.14-.08-.22-.12-.28-.04-.05-.11-.08-.18-.1-.02,0-.09.06-.08.09.01.06.05.12.09.15.07.05.16.08.29.14ZM8.75,12.61c-.15-.14-.28-.27-.44-.41.02.26.22.44.44.41ZM34.87,14.15s.03.06.04.09c.11-.04.22-.09.34-.13.03-.04.06-.08.09-.11-.07-.03-.17-.1-.22-.08-.1.05-.17.15-.25.23ZM35.93,13.43c.1-.08.19-.14.25-.2.03-.03.05-.09.05-.14,0-.03-.07-.08-.09-.07-.04.01-.09.05-.11.09-.04.09-.06.19-.09.32ZM20.62,25.56c-.07.27.08.49.3.48-.09-.15-.19-.3-.3-.48ZM8.84,27.7s.03-.08.05-.12c-.18-.08-.36-.16-.55-.24-.01.03-.03.06-.04.09.18.09.36.18.54.27ZM38.13,7.61s-.08-.07-.12-.11c-.07.09-.14.17-.2.27,0,.02.06.08.09.12.08-.09.16-.19.24-.28ZM34.88,13.88s-.05-.04-.08-.07c-.1.13-.19.25-.29.38.04.03.07.05.11.08.09-.13.17-.26.26-.39ZM19.5,21.03c-.13.22-.09.29.31.5-.12-.2-.2-.33-.31-.5Z"/>
      <path class="cls-1" d="M16.47,9.67c0-.17.02-.34.03-.55-.12.1-.19.17-.28.25-.05-.16-.09-.29-.15-.47.08-.04.19-.1.37-.21h-.93c.34-.26.6-.46.89-.69-.11-.01-.22-.02-.32-.03.1-.3.59-.46.9-.31.3.15.59.29.9.43.33.15.32.14.17.44-.04.09-.03.21-.05.36-.1-.04-.21-.08-.4-.16.1.19.16.32.23.46-.01.02-.03.05-.04.07-.11-.07-.23-.14-.3-.18-.18.21-.36.43-.6.7-.04-.2-.06-.31-.09-.46-.1.15-.17.26-.25.37-.02,0-.04,0-.07-.02Z"/>
      <path class="cls-1" d="M12.53,32.93c-.22.16-.41.28-.56.43-.19.19-.36.1-.49-.03-.08-.08-.06-.24-.09-.36.03-.01.05-.03.08-.04-.08-.04-.16-.09-.26-.14-.01.13-.02.22-.03.34-.25-.11-.45-.21-.68-.31-.01.11-.02.2-.03.29-.28.1-.57.21-.86.01-.04-.03-.04-.11-.08-.22.14,0,.27-.02.33.03.27.22.34-.07.5-.16.07-.04.15-.1.23-.1.54,0,1.07-.01,1.61.01.11,0,.22.16.34.25Z"/>
      <path class="cls-1" d="M11.44,33.73c-.24-.13-.48-.27-.75-.42.08-.05.16-.13.19-.12.22.13.43.27.64.41-.03.04-.05.08-.08.13Z"/>
      <path class="cls-1" d="M14.46,33.24c-.12-.08-.24-.17-.36-.26.02-.04.04-.07.05-.11.12.04.24.07.35.13.04.02.04.13.05.19-.03.01-.06.02-.09.04Z"/>
      <path class="cls-1" d="M30.65,11.18c.32.06.54-.09.75-.32.25-.27.36-.39.61-.09-.24.54-.49,1.07-.7,1.61-.17.43-.25.9-.42,1.33-.23.55-.51,1.09-.77,1.62-.03.06-.09.11-.2.15,0-.08,0-.17-.02-.25,0-.07-.02-.13-.02-.2,0-.08.01-.16.05-.22.2-.31.41-.61.62-.92.03-.04.02-.1.02-.13-.24-.06-.45-.12-.73-.2.19-.16.32-.27.45-.38.02-.02.07-.03.1-.02.45.09.52.05.61-.42.01-.07.02-.15.03-.22h0s.07-.1.06-.15c-.02-.09-.06-.17-.11-.24-.16-.23,0-.32.18-.37.24-.08.52-.49.5-.82-.2.19-.37.36-.55.52-.04.04-.09.08-.14.09-.17.03-.33.04-.56.06.08-.14.16-.28.25-.43h0Z"/>
      <path class="cls-1" d="M29.56,14.94c.11.27.2.5.31.76-.74.91-1.49,1.86-1.95,3-.02,0-.05-.02-.07-.03.01-.21,0-.42.05-.62.16-.58.32-1.16.52-1.72.2-.54.61-.95,1.01-1.35.04-.04.12-.03.12-.03ZM28.89,16.11c-.45.19-.41.49-.19.83.09-.13.19-.25.29-.4-.12-.01-.19-.02-.29-.04.07-.15.13-.28.19-.4Z"/>
      <path class="cls-1" d="M30.87,14.29c.06-.13.1-.28.2-.37.15-.13.26-.2.19-.44-.04-.13.12-.33.21-.52.18.16.33.23.41-.04-.07-.02-.13-.05-.19-.07.19-.24.37-.47.56-.71.12.11.31.12.6.07-.63.73-1.25,1.43-1.86,2.14-.04-.02-.07-.04-.11-.05Z"/>
      <path class="cls-1" d="M29.86,14.14c-.18.21-.36.43-.55.64-.18.21-.36.42-.54.63-.03-.02-.06-.04-.09-.06.05-.12.09-.24.15-.36.28-.58.56-1.15.84-1.72.04-.09.06-.18.12-.26.05-.06.13-.1.2-.12.03,0,.11.06.11.09,0,.08-.01.19-.06.24-.32.29-.33.33-.18.71.02.06,0,.14,0,.22h0Z"/>
      <path class="cls-1" d="M34.29,9.57c.06-.3.28-.49.6-.56.1-.02.2-.08.31-.12.02.25-.13.41-.33.46-.2.05-.38.14-.58.22,0,0,0,0,0,0Z"/>
      <path class="cls-1" d="M31.04,12.5s-.09.07-.12.12c-.21.32-.24.33-.66.11.11-.13.22-.26.34-.41.05.1.08.15.11.2.01-.03.03-.06.04-.08.09.03.19.05.28.08,0,0,0,0,0,0Z"/>
      <path class="cls-1" d="M30.73,11.79c-.06.1-.1.21-.17.3-.11.14-.22.27-.35.39-.04.04-.11.04-.17.06-.01-.06-.05-.14-.03-.17.19-.22.4-.43.6-.64.04.02.08.04.11.06Z"/>
      <path class="cls-1" d="M29.85,14.15c.11-.05.22-.09.36-.16.05.36-.25.46-.38.66-.03,0-.05-.02-.08-.02.04-.16.07-.33.1-.49,0,0,0,0,0,0Z"/>
      <path class="cls-1" d="M34.48,10.08c-.1-.29,0-.46.35-.5-.13.19-.23.34-.35.5Z"/>
      <path class="cls-1" d="M14.78,19.73c-.05.21-.09.38-.14.59-.13-.04-.23-.07-.33-.11-.59-.24-1.18-.5-1.78-.71-.64-.22-1.3-.32-1.98-.24-.24.03-.37-.06-.44-.35.12.03.22.05.33.08.03-.28.15-.28.36-.09.06.05.2.04.29.01.12-.03.23-.1.35-.15-.2-.38-.43-.53-.76-.5,0,.24.48.14.32.5-.09-.04-.2-.05-.27-.11-.11-.09-.18-.15-.29.02-.02.04-.22-.01-.31-.06-.11-.05-.19-.15-.33-.19.01.03.02.07.03.1.02.09.04.18.06.27-.1-.03-.25-.04-.28-.1-.1-.19-.2-.26-.39-.1-.04.03-.14,0-.21,0-.01-.02-.02-.05-.03-.07.11-.08.21-.21.33-.24.44-.13.88-.28,1.33-.34.3-.04.62.07.94.13.31.05.61.11.92.19.64.16,1.33.12,1.94.42.25.13.58.13.81.28.41.27.78.59,1.14.92.26.24.48.54.71.81.04.05.06.13.12.29-.27-.06-.47-.11-.66-.16-.06-.02-.13-.07-.18-.05-.46.15-.8-.19-1.21-.28-.03,0-.06-.05-.09-.06-.31-.12-.3-.12-.12-.39.03-.05.06-.15.03-.17-.06-.06-.16-.1-.21-.13ZM13.3,19.15c-.19-.21-.38-.41-.59-.65-.08.13-.12.2-.15.26-.31-.15-.6-.3-.89-.44q.47.93.82.85c-.23-.16-.4-.29-.58-.41.03-.04.06-.07.09-.11.31.2.61.4.92.59.02-.01.04-.03.05-.04-.03-.09-.07-.18-.13-.35.19.12.32.2.46.29,0,.1.02.2.02.27.22.14.43.26.59.36.1-.08.2-.12.25-.2.06-.09.07-.2.12-.35.26.16.53.32.8.48.13.08.3.24.39.21.36-.13.47.17.67.33-.09.03-.19.04-.25,0-.26-.15-.33-.14-.52.1q.82.21.96-.01c.14.06.28.12.42.18.01-.03.03-.05.04-.08-.08-.05-.2-.09-.25-.17-.21-.34-.6-.41-.91-.61-.07-.04-.17-.03-.26-.04-.08,0-.19.02-.24-.02-.11-.1-.21-.23-.26-.36-.09-.24-.2-.31-.39-.12q-.33-.29-.44.02c-.19-.12-.38-.24-.57-.36-.02.03-.04.06-.06.08.12.12.24.23.35.35.05.06.07.15.1.22-.08-.02-.16-.03-.23-.07-.12-.06-.22-.15-.33-.22Z"/>
      <path class="cls-1" d="M10.92,16.87c-.07-.25-.28-.37-.5-.36-.38.02-.65-.19-.94-.36-.12-.07-.18-.15-.29,0-.03.04-.21.02-.29-.03-.16-.09-.29-.23-.44-.33-.06-.04-.15-.05-.22-.07-.02.03-.05.06-.07.09.15.08.3.16.45.23-.03.03-.07.06-.1.1-.14.03-.64-.18-.64-.31,0-.25-.2-.22-.33-.31-.07-.05-.12-.1-.19-.15.01-.03.02-.05.04-.08.21.04.42.09.64.13.18.03.37.05.55.09.16.04.31.09.47.14.03,0,.05.05.07.05.58-.04.96.41,1.43.62.75.33,1.47.74,2.2,1.13.47.25.93.53,1.4.79.02.01.04.03.04.12-.18-.05-.37-.09-.55-.14-.27-.07-.54-.15-.81-.22-.39-.1-.78-.19-1.18-.28-.08-.02-.16-.05-.24-.04-.41.04-.77-.1-1.14-.26-.36-.15-.74-.22-1.12-.33-.25-.07-.51-.13-.75-.22-.09-.03-.14-.15-.21-.22-.07-.07-.16-.13-.23-.2-.05-.05-.06-.13-.1-.2.07,0,.16-.05.2-.02.13.08.26.18.35.3.13.17.26.26.52.2-.12-.13-.22-.24-.33-.37.22-.04.64.14.68.34.05.24.24.21.37.26.21.08.44.12.68.19-.04-.08-.08-.15-.11-.22.21-.29.45-.16.69-.06-.05.06-.1.13-.16.2.16.04.02.45.37.35,0-.07,0-.13.01-.19.09,0,.16,0,.23-.01.03-.39-.26-.3-.45-.34Z"/>
      <path class="cls-1" d="M6.82,16.27c.16.07.3.12.44.18.14-.25-.06-.29-.18-.37-.2-.13-.39-.26-.58-.4-.03-.02,0-.1,0-.16.67.23,1.33.93,1.2,1.22-.33-.04-.72.01-.88-.46Z"/>
      <path class="cls-1" d="M9.28,16.42c.47-.15.6.21.9.43-.43.05-.63-.18-.9-.43Z"/>
      <path class="cls-1" d="M9.79,19.41c-.18-.23-.34-.44-.49-.65.02-.02.04-.03.06-.05.52.27.6.38.43.7Z"/>
      <path class="cls-1" d="M9.98,19.38c.29-.02.47.14.49.41-.25.05-.42-.08-.49-.41Z"/>
      <path class="cls-1" d="M7.75,15.87c-.27.09-.61-.12-.7-.43.27.17.49.3.7.43Z"/>
      <path class="cls-1" d="M6.38,14.93c.22.18.41.33.65.52-.36.03-.7-.26-.65-.52Z"/>
      <path class="cls-1" d="M5.38,13.59c-.02-.07-.04-.15-.07-.24.39.09.59.28.57.5-.17-.09-.34-.18-.51-.27,0,0,0,0,0,0Z"/>
      <path class="cls-1" d="M8.11,17.22c-.17-.09-.34-.18-.53-.27.24-.14.38-.09.57.18-.01.03-.02.06-.04.09Z"/>
      <path class="cls-1" d="M22.7,7.43c-.3-.05-.48-.44-.86-.34.16.13.31.25.45.36-.02.03-.03.05-.05.08-.08-.03-.17-.06-.26-.1-.02.09-.04.18-.08.37-.1-.22-.17-.36-.24-.5-.03,0-.05,0-.08.01.03.25.07.5.1.74-.03.01-.05.02-.08.03-.06-.11-.13-.22-.2-.34-.03.12-.06.22-.1.33-.02,0-.05.02-.07.03-.05-.11-.1-.23-.19-.42-.01.18,0,.3-.04.4-.02.06-.09.1-.14.14-.04-.05-.09-.09-.1-.14-.05-.18-.08-.37-.13-.59-.13.05-.26.1-.38.14-.02-.02-.03-.04-.05-.06.08-.12.16-.24.24-.36,0-.01-.02-.02-.02-.04-.16.1-.32.2-.51.31-.02-.1-.04-.19-.06-.29-.04-.01-.12-.04-.23-.07.18-.08.32-.14.46-.21,0-.03-.02-.06-.02-.09-.22.06-.44.13-.67.19-.01-.05-.02-.05.27-.3.12-.1.25-.2.39-.32-.08,0-.17-.01-.25-.02-.08,0-.16,0-.24-.01,0-.03,0-.06,0-.09.17-.02.34-.04.55-.06-.05-.07-.07-.14-.12-.17-.16-.09-.28-.19-.2-.4.02-.05-.05-.13-.08-.19-.04-.1-.09-.19-.13-.29.12-.05.24-.12.37-.15.31-.06.45.16.57.4.02,0,.05-.01.07-.02-.04-.19-.07-.37-.11-.56.02,0,.04-.02.06-.02.2.18.4.35.59.52,0-.06-.03-.16-.04-.24.08-.04.16-.07.31-.14.04.09.1.22.17.36.13-.12.24-.15.27.1.05.34.28.13.44.13.06,0,.15,0,.19.03.03.03.02.12.03.21.06.01.13.03.24.05.01.16.02.31.03.47-.03,0-.06.01-.08.02.05.03.1.06.15.09-.09.08-.18.15-.29.25-.07-.02-.2-.04-.33-.07,0,.02,0,.04-.01.06.18.1.37.21.55.31-.01.03-.03.05-.04.07-.13-.03-.27-.07-.4-.1,0,.02-.01.04-.02.06.09.05.18.1.27.16.08.05.14.12.22.18-.02.02-.04.05-.06.07Z"/>
      <path class="cls-1" d="M13.26,21.05c.23.19.47.37.7.57.04.03.01.14.02.29-.34-.28-.65-.45-.78-.79.02-.02.04-.05.06-.07Z"/>
      <path class="cls-1" d="M14.75,22.41c-.18-.2-.32-.34-.45-.48.35,0,.5.16.45.48Z"/>
      <path class="cls-1" d="M13.99,21.19c.18.11.36.22.6.36-.36.12-.58-.06-.59-.37h0Z"/>
      <path class="cls-1" d="M14.06,22.09c.15.11.36.18.39.41-.03.03-.05.05-.08.08-.14-.13-.27-.26-.41-.39.03-.04.07-.07.1-.1Z"/>
      <path class="cls-1" d="M27.59,15.27c.08.18.14.33.23.54-.14.13-.18.43-.46.49-.03-.02-.05-.04-.08-.06.1-.16.21-.32.34-.53-.13.04-.21.06-.31.09-.12-.28.1-.37.27-.52Z"/>
      <path class="cls-1" d="M27.02,17.34c.14.33-.18.37-.28.56-.11-.25-.04-.38.28-.56Z"/>
      <path class="cls-1" d="M26.78,16.81c.1-.13.19-.26.3-.41.15.3.08.42-.3.41Z"/>
      <path class="cls-1" d="M9.5,30.51c.1.08.22.15.31.24.04.04.06.1.08.15-.05.03-.12.08-.15.07-.13-.06-.28-.12-.37-.22-.14-.16.01-.19.14-.22h0Z"/>
      <path class="cls-1" d="M12.45,31.5c.26.09.51.19.79.29-.18.14-.64.02-.82-.19,0-.03.02-.06.03-.09Z"/>
      <path class="cls-1" d="M12.45,32.02c-.16-.05-.31-.11-.47-.16.2-.11.38-.13.51.06-.01.03-.03.07-.04.1Z"/>
      <path class="cls-1" d="M13.73,34.19c-.17-.06-.34-.12-.51-.18.15-.23.35-.18.54.09,0,.03-.02.06-.03.09Z"/>
      <path class="cls-1" d="M16.2,21.84c-.39.07-.45.03-.7-.42.33,0,.5.23.7.42,0,0,0,0,0,0Z"/>
    </g>
  </g>
</svg>