<?xml version="1.0" encoding="UTF-8"?>
<svg id="Layer_2" xmlns="http://www.w3.org/2000/svg" viewBox="0 0 46.26 24.19">
  <defs>
    <style>
      .cls-1 {
        fill: #2c489e;
      }
    </style>
  </defs>
  <g id="Layer_1-2" data-name="Layer_1">
    <g>
      <path class="cls-1" d="M36.8,11.83c-1.11.73-2.23,1.44-3.38,2.1-1.73.99-3.46,1.96-5.46,2.35-.99.19-1.94.58-2.92.83-.82.21-1.65.37-2.47.55-1.12.24-2.23.52-3.37.68-1.6.22-3.31-.31-4.81.7-.14.1-.39.02-.59.04-1.87.23-3.75.41-5.61.72-1.39.23-2.76.61-4.11,1-.71.2-1.39.52-2.04.87-.69.38-1.33.86-2.03,1.33.7.65,1.36.79,2.05.27,2.02-1.5,4.45-1.99,6.76-2.77.51-.17,1.01-.38,1.54-.45,1.56-.22,3.13-.39,4.7-.55.46-.05.93,0,1.33,0,.02.41-.07.83.07.95.9.75,1.77,1.67,2.82,2.07,1.5.58,3.15.79,4.75,1.09.53.1,1.09,0,1.64,0,.01-.1.03-.2.04-.29-1.21-.94-2.32-2.07-3.66-2.77-1.31-.69-2.86-.94-4.2-1.35,1.54-.24,3.2-.5,4.87-.77.76-.12,1.55-.14,2.26-.38,2.22-.75,4.44-1.51,6.61-2.4,2.15-.88,4.16-2.05,5.84-3.7.29-.41,1.64-1.58,1.32-1.81-.06-.07-1.72,1.54-1.96,1.7ZM23.32,22.38c-1.27.29-4.08-.66-5.27-1.78,1.18-.64,4.08.34,5.27,1.78Z"/>
      <path class="cls-1" d="M37.44,11.94s0,0,0,0c0,0,0,0,.01,0,0,0,0-.01,0-.02,0,0-.01,0-.02.01Z"/>
      <path class="cls-1" d="M39.14,9.23c.3-.06.61-.07.88-.18,2.29-.95,3.92-2.52,4.66-4.95.24-.79.57-1.57.86-2.34.21-.54.44-1.08.72-1.76-2.84.03-7.34,4.6-7.12,9.23ZM40.28,8.07c-.04-2.06,2.94-6.59,4.32-6.62-1.1,2.4-1.77,5.08-4.32,6.62Z"/>
      <path class="cls-1" d="M39.3,15.46c-1.23.04-2.45.15-3.67.18-.41,0-4.21.34-5.5,1.34-1.33,1.03-1.4.99.06,1.71,1.22.6,2.51.88,3.85.45.47-.15,6.03-3.38,6.03-3.47-.26-.07-.51-.22-.77-.21ZM34.93,17.7c-1.4.6-2.8.82-4.29-.02.94-1.07,6.05-1.79,6.63-1.05-.66.27-1.66.78-2.34,1.07Z"/>
      <path class="cls-1" d="M32.55,20.71c-.89-.42-1.84-.71-2.7-1.18-2.19-1.2-4.49-.99-6.81-.68-.2.03-.43.19-.53.36-.06.1.05.39.17.5,1.58,1.41,3.3,2.54,5.53,2.38,1.41-.1,2.82-.19,4.23-.32.2-.02.95-.17.94-.31,0-.21-.64-.64-.85-.73ZM24.14,20.05c1.5-.92,5.17-.27,6.52,1.1-2.26-.13-4.4.09-6.52-1.1Z"/>
      <path class="cls-1" d="M33.1,13.09c1.85-.31,3.09-1.48,4.19-2.79.84-1,1.33-2.21,1.61-3.51.22-1,.55-1.97.87-3.08-.19.02-.43-.02-.55.08-1.82,1.44-3.76,2.8-5,4.82-.82,1.33-1.41,2.78-1.12,4.49ZM38.39,5.44c-.35,2.38-1.63,5.35-4.38,6.05.99-2.4,2.28-4.47,4.38-6.05Z"/>
      <path class="cls-1" d="M7.34,19.49c2.17-.79,4.56-1,6.16-3.13.75-1,1.45-2.18,2.64-2.82.09-.05.16-.17.2-.27.04-.12.09-.31.03-.36-.11-.09-.31-.19-.42-.15-1.76.64-3.53,1.27-5.27,1.96-1.85.73-2.5,2.56-3.55,4.01-.12.16-.04.47-.05.68.15.05.22.09.26.07ZM14.16,14.35c-1,1.86-4.1,3.86-5.65,3.64,1.34-2.02,3.35-2.95,5.65-3.64Z"/>
      <path class="cls-1" d="M43.76,8.84c-.8.43-1.54.97-2.39,1.31-.72.29-1.47.49-2.17.81-.64.3-2.79,2.46-3.13,3.38,1.98.29,4.51-.12,6.13-1.38.89-.69,1.47-1.65,1.99-2.63.25-.48.49-.96.75-1.44.49-.93-.82-.24-1.17-.06-.8.43.36-.19,0,0ZM37.47,13.18c1.43-1.74,3.57-1.96,5.33-2.85-.56,1.65-3.25,3.37-5.33,2.85Z"/>
      <path class="cls-1" d="M18.14,22.83c-.79-.58-1.5-1.36-2.39-1.71-1.18-.47-2.49-.6-3.75-.88-.02.05-.03.1-.04.15-.59.03-1.19.03-1.78.12-.15.02-.4.46-.35.55.3.5.58,1.17,1.06,1.39,1.5.71,2.92,1.66,4.73,1.54.94-.06,1.89.16,2.84.19.23,0,.46-.24.69-.37-.14-.19-.25-.4-.42-.55-.18-.17-.4-.3-.59-.44ZM11.37,21.14c2.03-.27,3.48.67,4.95,1.55-1.84.35-3.48.02-4.95-1.55Z"/>
      <path class="cls-1" d="M27.17,15.97c.32-.05.63-.21.95-.25,1.6-.17,2.89-.86,3.53-2.37.66-1.56,1.3-3.58,1.86-5.18-.08-.08-.21.03-.41.13-1.35.99-2.75,1.92-4.04,2.98-1.47,1.2-2.37,2.84-3.24,4.81.55-.05.95-.06,1.35-.13ZM31.72,10.04c-.32,3.87-2.42,5-4.83,5.08,1.48-2.02,3.19-3.43,4.83-5.08Z"/>
      <path class="cls-1" d="M20.03,17.58c.38-.07.78-.09,1.15-.21,1.04-.32,2.31-.42,3.05-1.08,1.65-1.49,2.68-3.48,3.33-5.64-1.8-.3-8.14,4.88-7.53,6.93ZM26.04,12.26c-1.24,2.06-2.32,4-4.85,4.16,1-1.88,2.65-3.18,4.85-4.16Z"/>
      <path class="cls-1" d="M13.75,17.48c-.1.25-.13.52-.2.78.3.04.64.19.88.1,1.36-.51,2.85-.87,4.02-1.68,1.33-.92,2.37-2.27,3.53-3.43.25-.25.47-.53.77-.86-.22-.07-.28-.11-.32-.1-1.67.45-3.34.91-5,1.37-.38.11-.82.17-1.1.42-1.09.96-2.05,2.02-2.59,3.4ZM17.91,14.63c.73-.33,1.48-.61,2.28-.93-.44,1.59-3.55,3.55-5.24,3.3-.19-.65.28-.99.72-1.25.72-.42,1.48-.77,2.24-1.12Z"/>
    </g>
  </g>
</svg>