<?xml version="1.0" encoding="UTF-8"?>
<svg id="Layer_2" xmlns="http://www.w3.org/2000/svg" viewBox="0 0 39.94 33.14">
  <defs>
    <style>
      .cls-1 {
        fill: #2c489e;
      }
    </style>
  </defs>
  <g id="Layer_1-2" data-name="Layer_1">
    <path class="cls-1" d="M39.59,1.54c-.33.19-.65.38-.97.58-.33.21-.65.43-.97.65-.51.35-1.02.7-1.54,1.04-.26.17-.54.29-.82.44-.09.05-.17.12-.26.18-.16-.07-.34-.13-.52-.22-.14-.07-.26-.16-.39-.24-.12-.07-.25-.13-.37-.22-.16-.12-.28-.31-.45-.4-.67-.34-1.35-.66-2.04-.98-.32-.15-.65-.28-.98-.4-.36-.14-.72-.26-1.08-.38-.58-.19-1.16-.38-1.74-.54-.62-.17-1.24-.33-1.87-.46-.55-.12-1.11-.21-1.66-.28-.42-.06-.85-.06-1.27-.11-.26-.03-.52-.09-.78-.11-.23-.01-.45.03-.68.03-.37,0-.74-.04-1.1-.06-.02,0-.04-.04-.07-.06h-.21c-.14.01-.27.03-.41.04-.7.04-1.4.06-2.1.13-.68.06-1.36.15-2.03.26-.4.06-.78.19-1.17.29-.31.07-.62.12-.92.21-.27.08-.52.22-.78.29-.28.07-.58.06-.85.14-.3.09-.58.26-.88.36-.53.18-1.09.31-1.61.52-.52.21-1,.5-1.5.75-.08.04-.15.09-.15.09-.32.13-.58.21-.81.34-.58.33-1.13.7-1.72,1-.17.09-.42.06-.63-.19-.21-.25-.57-.39-.88-.53-.1-.07-.19-.16-.29-.22-.33-.21-.67-.42-1.01-.62-.25-.14-.51-.26-.76-.4-.04-.02-.07-.07-.1-.11-.03-.04-.05-.13-.08-.14-.42-.06-.58-.7-1.12-.5v.38c.18.44.35.89.55,1.32.25.53.52,1.05.78,1.58.19.39.35.81.57,1.18.26.43.59.83.87,1.25.09.12.13.27.2.41.01.03.04.06.06.08.26.22.51.45.77.67.03.03.02.09.04.13.05.09.1.26.15.26.37,0,.23.33.3.5.07.16-.01.38.03.55.04.16.17.31.25.46.04.08.08.17.12.25.06.13.11.25.17.38.04-.02.07-.03.11-.05.05.17-.09.5.22.57.14.03.21.28.35.4.28.25.6.46.88.71.1.09.15.26.18.4.04.18.02.39.09.56.12.32.24.65.43.93.28.43.6.85.94,1.23.27.31.63.54.9.85.15.17.26.44.26.66,0,.4.2.7.34,1.05.19.46.53.84.85,1.17.33.35.61.7.71,1.14.12.51.52.77.82,1.12.11.13.23.27.33.41.01.02,1.1,1.72,1.06,1.74,0,0,.4.65,2.26,3.55,2.08,3.24,3.84,5,4.05,5.24.39.44,1.05.49,1.29-.09.12-.29,1.44-2.13,3.52-5.15,1.99-2.89,2.81-3.9,2.81-3.9-.18-.06,1.12-1.89,1.3-2.25.21-.41.3-.88.5-1.3.14-.29.36-.53.56-.79.24-.31.56-.59.74-.94.24-.45.35-.95.56-1.42.09-.21.25-.41.42-.57.39-.39.83-.74,1.21-1.15.48-.52.81-1.14.94-1.83.11-.61.59-.83,1-1.16.24-.19.36-.54.52-.81.18-.31.35-.62.49-.94.09-.2.16-.42.17-.63,0-.58.28-1.02.64-1.45.39-.46.71-.97,1.05-1.47.26-.38.54-.75.75-1.15.35-.65.65-1.33.97-2,.16-.34.33-.67.45-1.02.15-.43.26-.88.38-1.32v-.08c-.12.05-.24.1-.35.16ZM5.87,4.68c.31-.19.63-.35.95-.52.53-.28,1.05-.6,1.6-.84,1.01-.42,2.02-.85,3.06-1.18,1.11-.35,2.26-.6,3.4-.89.38-.1.76-.18,1.14-.27,0,.01,0,.02,0,.04.62-.06,1.24-.17,1.87-.18,1.34-.03,2.68-.07,4.02.01,1.19.07,2.39.24,3.57.46,1.01.19,2.01.5,2.99.82.87.28,1.71.62,2.55.98.54.23,1.06.52,1.58.79.47.24.94.47,1.39.73.11.06.15.23.22.35-.14,0-.32.05-.43,0-.79-.41-1.55-.88-2.37-1.24-1.08-.48-2.18-.92-3.3-1.28-1.08-.35-2.19-.61-3.3-.84-.75-.15-1.52-.19-2.29-.27-.58-.06-1.16-.14-1.74-.16-.66-.02-1.32,0-1.98.03-.59.02-1.19.05-1.78.13-.91.13-1.82.26-2.71.48-1.15.27-2.29.58-3.4.96-.93.32-1.81.76-2.71,1.16-.55.25-1.08.53-1.62.8-.17.09-.36.16-.49.28-.2.18-.33.08-.49-.04.09-.1.17-.22.27-.29ZM27.1,6.07c.16.24.28.51.44.81-.58-.18-1.1-.28-1.57-.5-.21-.1-.33-.41-.48-.64-.13-.19-.23-.39-.35-.58-.03-.04-.11-.09-.14-.08-.3.13-.71.14-.71.61,0,.28-.2.28-.39.24-.3-.05-.59-.12-.89-.18-.04-.65.3-1.16.96-1.43.41-.17.45-.3.22-.67-.21-.34-.4-.7-.65-1.15.55.12,1.03.15,1.43.34.26.12.41.48.59.74.23.35.44.72.67,1.07.03.05.15.08.21.06.36-.12.62-.36.72-.74q.16-.59.72-.4s.09.03.14.04c.27.07.44.13.33.52-.19.62-.6,1-1.1,1.32-.25.17-.33.33-.15.61ZM20.11,3.86c-.04-.12-.05-.27-.12-.37-.08-.11-.21-.24-.33-.26-.32-.03-.65,0-.97-.01-.05,0-.15-.01-.15-.03-.02-.09-.03-.19,0-.27.08-.19.17-.52.3-.54.43-.08.88-.05,1.32-.07.11,0,.22-.04.33-.03.1.01.27.05.3.11.35,1.05.68,2.11,1.01,3.16,0,.02,0,.04,0,.09-.29,0-.57-.04-.83,0-.49.08-.38-.36-.54-.57-.06-.07-.09-.15-.14-.23-.06.07-.13.13-.17.2-.15.26-.24.52-.65.53-.79.02-1.58.11-2.43.18.16-.37.26-.75.47-1.05.09-.14.39-.17.6-.18.57-.04,1.14-.04,1.71-.05.4,0,.46-.13.29-.64ZM15.57,4.15c.15.58.26,1.16.38,1.75,0,.05-.08.15-.14.17-.22.07-.47.08-.68.16-.24.1-.31-.02-.36-.2-.16-.53-.3-1.06-.48-1.57-.02-.07-.22-.14-.31-.12-.52.15-1.03.34-1.54.51-.25.08-.49.18-.73.25-.04.01-.14-.02-.16-.06-.13-.26-.26-.51-.37-.78-.02-.04.08-.17.16-.2.75-.28,1.49-.56,2.25-.81.51-.17,1.04-.28,1.43-.38.4-.07.69-.09.95-.17.25-.08.36,0,.39.24,0,.04.03.08.03.12.06.55.06.56-.56.71-.23.06-.32.13-.25.4ZM20.16,32.26s-.75-.24-.81-.75c0,0-1.96-2.38-3.65-4.94-1.01-1.53-2.04-3.68-2.19-3.86-.42-.47.19-.67.19-.67-.82,0-1.34-.52-1.76-1.15-.14-.21-.25-.45-.36-.68-.03-.07-.08-.18-.05-.22.05-.06.15-.07.23-.08.14-.02.29-.02.43-.03,0-.04,0-.09,0-.13-.84.06-1.3-.46-1.67-1.09-.26-.45-.5-.92-.71-1.39-.08-.18-.11-.39-.13-.6-.02-.21.09-.29.3-.25.16.03.32.02.48.02,0-.04.01-.08.02-.12-.29-.06-.59-.09-.86-.19-.27-.1-.56-.24-.76-.44-.41-.41-.83-.84-1.12-1.34-.25-.43-.32-.96-.43-1.46,0-.03.34-.16.53-.2.12-.03.25,0,.41-.06-1.01.02-1.71-.52-2.29-1.23-.57-.69-.96-1.51-1.05-2.48.38.07.73.13,1.08.19.01-.05.02-.09.03-.14-.2-.06-.39-.14-.6-.17-.64-.09-1-.56-1.37-1.01-.3-.36-.61-.72-.87-1.12-.36-.57-.69-1.17-1.01-1.77-.28-.53-.54-1.08-.74-1.66,1.64,1.1,3.28,2.2,4.92,3.3,0-.01.02-.02.03-.04.09.05.17.11.26.16.14.09.27.18.4.27.23.16.45.33.68.49.42.28.84.56,1.26.83.53.35,1.05.69,1.57,1.05.28.19.53.43.81.62.27.19.56.37.85.55.29.18.58.36.86.55.04.03.05.1.14.07.17.14.33.29.5.42.14.11.29.21.44.31.32.22.72.37.94.66.29.38.51.86.64,1.33.28,1.01.48,2.04.73,3.06.07.3.19.6.25.9.08.39.1.79.18,1.18.14.67.34,1.72.5,2.58.19,1.02.71,2.31.92,3.33.12.58.28,1.22.47,1.77.21.63.55,1.47.78,2.09.26.68.41,2.2.64,2.89.02.07.03.56-.04.66ZM20.32,29.27c-.17-.67-.34-1.5-.5-2.17-.12-.5-.23-1.01-.37-1.5-.19-.69-.35-1.41-.63-2.03-.19-.42-.35-.77-.26-1.26,0-.05-.14-.13-.17-.23-.17-.59-.32-1.19-.48-1.79-.12-.46-.21-1.05-.39-1.37-.33-.59-.18-1.09.13-1.6.19-.31.25-.71.66-.85.03,0,.06-.08.05-.09-.22-.31.06-.53.16-.76.23-.53.57-1.02.78-1.56.23-.58.38-1.18.54-1.78.18-.71.31-1.44.5-2.15.04-.14.27-.22.33-.36.1-.22.14-.47.2-.71.13-.49.53-.71,1.02-.55.46.15.69-.04.69-.53,0-.11.15-.33.21-.32.18.03.46,0,.45.31-.02.53-.05,1.05-.06,1.58,0,.19.06.38.08.56,0,.07.02.19-.02.22-.42.34-.31.82-.36,1.25-.02.16-.07.31-.11.46-.22-.09-.55-.11-.64-.27-.12-.23-.27-.29-.49-.36-.4-.12-.83.15-.95.53-.14.46-.3.94-.32,1.41-.02.42.09.86.24,1.26.07.18.37.26.56.39.09.06.17.13.36.27-1.11.26-1.54.93-1.37,2.03.2-.02.46-.02.71-.1.31-.09.6-.25.9-.37.09-.04.24-.1.29-.06.07.05.12.2.09.29-.16.69.04,1.36.08,2.03.02.28-.04.46-.14.74-.23.64-.2,1.75-.39,2.59-.07.33-.27.8-.26,1.15.03.72-.04,1.39-.23,2.1-.29,1.05-.55,2.3-.75,3.39-.05,0-.09.18-.14.19ZM38.31,3.77c-.25.56-.48,1.14-.78,1.69-.19.35-.49.64-.72.97-.14.2-.22.43-.36.63-.28.42-.62.82-.86,1.26-.33.6-.91.81-1.49,1.04.01.04.02.07.04.11.23-.07.47-.14.7-.2.06-.02.15-.03.18,0,.04.03.06.12.04.18-.1.33-.23.64-.31.97-.19.77-.6,1.37-1.28,1.75-.42.24-.89.39-1.33.59-.04.02-.06.07-.08.1.04.01.09.04.13.04.12,0,.25-.04.36,0,.28.11.27.3.14.54-.28.51-.49,1.08-.83,1.54-.29.39-.66.76-1.19.91-.38.11-.73.3-1.09.45,0,.02-.02.04-.03.07.17.01.34.04.52.04.33,0,.37.12.18.38-.09.12-.11.28-.15.43-.17.69-.6,1.24-1.08,1.73-.22.22-.55.32-.83.47-.11.06-.23.11-.34.16.01.03.02.07.03.1.08-.02.17-.02.25-.05.23-.09.34,0,.32.23-.12.89-.59,1.57-1.34,2.02,0,0-1.31,2.45-2.25,3.91-.94,1.46-4.02,6-4.02,6-.18.3-.2-.33-.12-.59.21-.71.79-2.96.96-3.68.33-1.36.64-2.72.9-4.11.2-1.07.3-2.18.47-3.26.11-.74.27-1.33.4-1.9.16-.66.3-1.32.45-1.98.11-.51.22-1.01.34-1.52.06-.28.16-.54.21-.82.19-.93.71-1.61,1.51-2.12.64-.41,1.22-.89,1.84-1.32.5-.35,1.02-.65,1.51-.99.63-.44,1.25-.91,1.87-1.36.59-.43,1.18-.86,1.78-1.27.37-.26.77-.48,1.15-.74.52-.35,1.03-.71,1.53-1.07.78-.56,1.55-1.14,2.33-1.7.21-.15.45-.28.73-.46-.14.31-.26.58-.38.84Z"/>
  </g>
</svg>