<?xml version="1.0" encoding="UTF-8"?>
<svg id="Layer_2" xmlns="http://www.w3.org/2000/svg" viewBox="0 0 32.14 41.82">
  <defs>
    <style>
      .cls-1 {
        fill: #2c489e;
      }
    </style>
  </defs>
  <g id="Layer_1-2" data-name="Layer_1">
    <g>
      <path class="cls-1" d="M18.16,29.3c.48,0,.96.01,1.44.03.21,0,.42.05.62.03.15-.02.32-.08.43-.18.06-.06.05-.27-.01-.34-.11-.12-.28-.21-.43-.26-.42-.15-.84-.27-1.07-.7-.02-.03-.04-.07-.07-.09-.5-.28-.91-.67-1.22-1.14-.28-.42-.78-.71-.8-1.3,0-.05-.06-.1-.09-.15-.11-.17-.2-.36-.33-.51-.24-.29-.17-.56,0-.85.14-.25.09-.53-.13-.73-.12-.11-.26-.22-.41-.34.39-.22.71-.44.87-.83.21-.54.41-1.08.63-1.61.24-.62.51-1.23.74-1.85.13-.36.22-.74.33-1.11.25-.84.52-1.67.76-2.52.14-.53.24-1.07.34-1.61.05-.27.05-.55.1-.82.05-.29.16-.58.2-.87.06-.41.07-.83.13-1.24.14-1.05.31-2.11.28-3.18,0-.27-.08-.47-.3-.62-.28-.19-.58-.37-.87-.56-.61-.39-.99-.99-1.42-1.55-.33-.43-.27-.95-.18-1.45.04-.23.07-.46.16-.67.29-.67.92-.83,1.55-.97.46-.11.84.01,1.1.42.07.11.12.24.19.36.26.47.71.52.92.28.29-.35.33-.76.2-1.18-.22-.7-.8-1.01-1.44-1.14-.68-.13-1.36-.02-2.04.12-.49.1-.99.23-1.49.22-.66,0-1.32-.13-1.98-.2-.34-.04-.67-.08-1.01-.1-.35-.02-.71-.04-1.06-.02-.56.04-1.14.06-1.55.53-.19.22-.35.45-.53.69-.43.59-.52,1.27-.37,1.94.14.65.44,1.27.67,1.9.13.34.46.61.38,1.03-.03.17-.06.34-.07.52-.03.53.2.85.69.88.24.02.38.13.41.33.06.4.09.8.11,1.2.02.4,0,.79.03,1.19.03.4.09.8.15,1.2.07.48.14.96.22,1.43.12.69.24,1.39.38,2.08.17.82.38,1.64.56,2.46.07.29.09.6.17.88.17.58.38,1.15.57,1.73.11.35.17.72.29,1.06.13.36.45.64.46,1.07,0,.08.12.17.19.25.07.08.14.15.22.22-.05.06-.08.11-.11.14-.22.2-.31.43-.19.72.17.41.18.79-.12,1.15-.04.04-.05.1-.08.15-.33.62-.65,1.24-1,1.85-.1.17-.25.31-.39.46-.48.51-1.03.92-1.65,1.26-.14.08-.28.19-.37.32-.07.11-.14.3-.08.39.08.12.25.2.4.25.11.03.24-.03.37-.04.4-.02.79-.04,1.19-.04.32,0,.65.04.98.05.22,0,.44-.04.66-.04.52,0,1.04,0,1.56,0,.41,0,.83-.02,1.24-.02ZM12.35,5.73c-.21-.44-.47-.86-.64-1.31-.11-.28-.29-.54-.22-.92.06-.29-.08-.62-.03-.96.08-.49.43-.99.9-1.12.15-.04.32-.05.44-.13.33-.21.68-.14,1.02-.08.3.05.61.14.88.28.17.09.33.27.4.45.14.37.21.76.32,1.14-.01,0-.03,0-.04.01-.01.3,0,.6-.04.9-.05.49-.45.78-.74,1.11-.36.41-.8.71-1.29.95-.39.19-.76.08-.94-.32ZM14.02,13.21c-.03-.39-.05-.78-.08-1.16-.03-.31-.09-.63-.12-.94-.04-.48-.16-.98-.08-1.44.1-.56.06-1.09.03-1.64,0-.13.04-.26.06-.39.04,0,.08,0,.12-.01.07.16.17.31.19.48.03.26.01.52.02.79,0,.04.01.09,0,.11-.27.24-.08.47-.04.74.08.54.07,1.09.1,1.64.03.4.07.8.1,1.2,0,.06.04.12.02.17-.2.53-.04,1.05.03,1.57.04.28.02.58.02.87-.03,0-.07,0-.1.02-.08-.31-.25-.58-.19-.95.06-.33-.05-.69-.08-1.04ZM14.46,16.79c-.05-.44-.24-.87-.14-1.32.15.43.38.85.14,1.32ZM15.8,10.27c-.01.69-.06,1.39-.07,2.08,0,.77.02,1.54.02,2.31,0,.21-.05.42-.06.63-.01.23-.02.46-.02.69,0,.24.02.49,0,.73,0,.07-.1.14-.15.22-.06-.06-.16-.11-.17-.18-.03-.17-.03-.35-.02-.53,0-.18.04-.36.05-.54,0-.44,0-.88,0-1.32,0-.48,0-.95,0-1.43,0-.77-.16-1.52-.04-2.3.06-.39,0-.79,0-1.19.02-.61.07-1.23.07-1.84,0-.31,0-.66-.36-.82-.34-.16-.74-.02-.96.29-.07.11-.17.2-.26.31-.3-.47-.16-.8.32-.89.19-.03.37-.11.56-.13.16-.01.33.03.5.06.05,0,.09.06.13.05.31-.05.62-.09.91-.19.32-.11.63-.08.89.06.25.14.5.15.72.09.51-.14.93.07,1.32.3.12.07.16.36.15.54,0,.36-.07.72-.1,1.08-.05.51-.1,1.01-.13,1.52-.02.29-.16.58-.05.89.02.06-.01.15-.03.23-.15.58-.33,1.15-.23,1.77.03.18-.07.38-.1.57-.07.41-.13.81-.2,1.22-.02.11-.07.22-.1.33-.1.37-.2.74-.28,1.12-.05.22-.06.44-.12.66-.03.09-.15.15-.23.22-.02-.1-.07-.2-.06-.3,0-.12.05-.24.08-.37.13-.63.27-1.26.38-1.9.06-.36.04-.73.09-1.09.04-.28.13-.56.17-.84.05-.3.07-.61.1-.92.06-.71.11-1.42.17-2.13.05-.6.13-1.21.17-1.81.02-.31-.27-.68-.54-.72-.34-.05-.59.15-.61.49-.02.42,0,.85-.03,1.27-.02.32-.08.64-.13.96,0,.03-.02.06-.02.08.12.91-.11,1.81-.14,2.72-.03.84-.19,1.67-.29,2.5-.05.42-.07.85-.11,1.27,0,.06,0,.13-.03.17-.06.08-.14.14-.2.21-.03-.09-.08-.18-.07-.27.04-.52.09-1.04.13-1.57.08-.97.17-1.95.24-2.92.02-.32,0-.63.01-.95.01-.35.11-.71.05-1.04-.09-.51.07-1.01.02-1.51-.02-.25-.02-.51.03-.75.05-.28-.01-.49-.22-.67-.24-.2-.52-.14-.77-.05-.11.04-.23.2-.25.32-.05.27-.04.55-.06.83,0,.11-.03.23-.05.34-.02.07-.06.15-.06.22,0,.6.03,1.2.02,1.8Z"/>
      <path class="cls-1" d="M32,14.29c-.14-.16-.33-.08-.46.05-.23.23-.48.46-.67.72-.56.77-1.04,1.58-1.37,2.47-.2.55-.36,1.12-.5,1.7-.15.6-.3,1.19-.75,1.65-.06.06-.2.12-.22.1-.07-.06-.13-.17-.13-.26,0-.17.06-.34.11-.51.22-.8.47-1.59.64-2.4.17-.8.48-1.52.86-2.23.34-.63.63-1.28.91-1.93.22-.51.37-1.04.57-1.55.15-.38.45-.69.51-1.12.05-.34.22-.68.21-1.02-.02-.69-.06-1.4-.22-2.07-.17-.71-.46-1.4-.75-2.07-.14-.32-.41-.46-.64-.37-.29.11-.34.3-.34.59,0,.61,0,1.22-.08,1.82-.09.75.06,1.47.14,2.19.07.57.26,1.12.39,1.68.02.08.02.17.02.26.01.78-.25,1.5-.54,2.21-.09.21-.17.43-.27.63-.03.06-.17.12-.2.1-.07-.05-.13-.15-.13-.23.06-.76.17-1.52.18-2.28,0-.67-.09-1.34-.17-2.01-.05-.44-.14-.87-.23-1.3-.1-.47-.18-.95-.35-1.39-.19-.49-.42-.96-.54-1.48-.22-.98-.46-1.95-1.16-2.73-.33-.37-.65-.77-1-1.12-.31-.31-.66-.57-1-.86-.1-.09-.18-.22-.3-.27-.19-.08-.43-.18-.58-.12-.2.08-.21.33-.12.56.17.46.32.92.47,1.39.22.67.56,1.28,1.03,1.81.11.12.26.21.35.34.14.2.47.23.47.54,0,.03.11.06.16.09.09.06.19.11.28.17.14.1.28.21.41.32.19.17.44.33.56.54.28.54.5,1.12.73,1.69.07.16.08.35.11.53.04.19.06.38.1.56.06.29.14.58.18.87.05.41.06.82.08,1.23.02.68.03,1.37.04,2.05,0,.15,0,.32-.05.45-.04.1-.18.21-.29.22-.08,0-.23-.13-.25-.23-.07-.37-.1-.74-.16-1.12-.09-.55-.15-1.11-.29-1.64-.13-.52-.34-1.02-.53-1.52-.27-.71-.69-1.35-1.17-1.94-.2-.24-.42-.46-.67-.66-.26-.21-.55-.06-.54.27.01.36.04.72.11,1.07.12.6.29,1.18.41,1.78.13.6.33,1.15.79,1.58.07.06.12.15.16.24.25.67.7,1.21,1.21,1.7.24.23.46.45.51.8.02.15.09.3.18.42.23.31.28.65.22,1.01-.15.85-.29,1.7-.49,2.53-.17.69-.41,1.37-.64,2.04-.02.06-.18.12-.28.11-.06,0-.16-.12-.16-.18.02-.6.02-1.2.1-1.79.12-.94.18-1.88-.1-2.8-.14-.48-.32-.95-.51-1.42-.17-.43-.37-.84-.57-1.25-.06-.12-.17-.3-.26-.3-.12,0-.29.12-.34.24-.09.19-.12.41-.13.62-.05.65-.17,1.28-.08,1.95.13.94.22,1.87.65,2.74.27.54.49,1.11.71,1.67.09.25.11.52.17.78.06.28-.1.62.21.84.02.01.01.09,0,.13-.09.24-.18.49-.29.72-.36.76-.7,1.53-1.11,2.27-.24.43-.59.8-.91,1.18-.06.07-.2.07-.3.1,0-.11,0-.22.02-.33.13-.41.27-.82.4-1.23.1-.29.21-.58.28-.88.1-.42.25-.84.26-1.26.01-.49-.1-.99-.16-1.49-.04-.38-.06-.77-.12-1.15-.02-.15-.1-.36-.22-.41-.17-.09-.33.05-.4.24-.07.19-.11.4-.2.57-.34.62-.55,1.29-.68,1.98-.14.71-.27,1.42-.33,2.14-.04.43.06.87.12,1.3.04.32.13.64.19.96.06.31-.08.56-.28.76-.17.17-.41.29-.61.44-.21.16-.43.3-.6.5-.16.19-.05.4.19.4.23,0,.47-.07.69-.15.28-.1.55-.24.82-.36.39-.17.78-.33,1.17-.5.44-.19.87-.44,1.32-.58.98-.31,1.75-.95,2.48-1.61.52-.47.95-1.07,1.02-1.83,0-.07.04-.15.08-.22.13-.29.27-.58.41-.87.08-.17.07-.29-.17-.38.28-.07.38-.26.24-.37-.13-.1-.38-.18-.49-.12-.32.19-.61.45-.9.7-.22.19-.42.39-.64.59-.12.11-.26.21-.37.33-.48.58-.96,1.16-1.43,1.75-.29.37-.54.77-.81,1.15-.19.27-.39.53-.61.77-.06.07-.21.05-.32.08,0-.1-.01-.2,0-.3,0-.06.04-.11.07-.16.28-.4.54-.83.85-1.2.67-.79,1.05-1.72,1.39-2.68.07-.2.2-.4.36-.55.39-.38.8-.73,1.21-1.08.17-.15.37-.27.55-.42.33-.28.66-.56.99-.84.21-.18.48-.32.64-.54.74-1.05,1.22-2.21,1.37-3.5.05-.47.19-.92.26-1.39.02-.15-.04-.34-.14-.45Z"/>
      <path class="cls-1" d="M9.4,28.9c.16.08.3.09.36-.07.04-.12.03-.31-.04-.41-.17-.23-.4-.43-.6-.65-.38-.42-.32-.92-.24-1.43.07-.44.18-.87.19-1.31,0-.5-.08-1-.11-1.5-.01-.23.02-.44-.12-.66-.1-.15-.1-.36-.14-.55-.02-.13,0-.28-.05-.39-.32-.68-.65-1.35-1-2.01-.06-.11-.2-.17-.31-.25-.07.1-.19.2-.21.31-.09.51-.18,1.03-.21,1.55-.03.53-.01,1.08.04,1.61.04.36.16.71.27,1.06.11.34.24.68.39,1,.16.34.35.66.52,1,.03.06-.03.16-.04.24-.07-.02-.17-.01-.21-.05-.28-.31-.58-.62-.82-.96-.51-.74-1-1.49-1.47-2.26-.23-.37-.44-.76-.27-1.23.07-.2.11-.4.17-.61.08-.27.11-.56.25-.79.27-.46.53-.91.67-1.43.22-.8.56-1.57.44-2.44-.08-.6-.06-1.21-.08-1.82,0-.32,0-.64-.02-.95-.01-.28-.18-.36-.4-.19-.25.21-.48.44-.55.78-.02.12-.11.22-.16.33-.17.37-.39.72-.49,1.1-.15.63-.25,1.28-.31,1.93-.05.53-.02,1.08.03,1.62.04.42.17.84.26,1.25.04.19.03.39-.21.4-.21,0-.35-.12-.35-.37,0-.12-.07-.25-.12-.37-.03-.07-.09-.13-.11-.2-.1-.46-.19-.92-.28-1.38-.08-.39-.15-.78-.22-1.17-.05-.27-.06-.56-.15-.82-.23-.71-.25-1.4.13-2.07.52-.94,1.32-1.66,2-2.47.1-.13.22-.25.28-.4.3-.72.6-1.45.87-2.18.09-.23.1-.48.16-.73.1-.45.2-.89.3-1.34.02-.1.07-.25.02-.31-.05-.06-.21-.09-.3-.07-.12.03-.26.1-.34.19-.29.31-.57.62-.83.96-.52.67-1.12,1.29-1.37,2.13-.2.68-.41,1.37-.58,2.06-.1.41-.13.83-.21,1.25-.03.17-.15.29-.36.27-.22-.02-.23-.17-.21-.34.02-.22.06-.44.07-.66.02-.57-.02-1.14.06-1.7.09-.69.24-1.38.42-2.06.16-.6.39-1.19.58-1.79.17-.54.52-.93,1.02-1.19.4-.21.78-.46,1.04-.86.12-.19.3-.33.45-.49.06-.07.14-.14.18-.22.31-.56.62-1.11.9-1.68.2-.4.38-.83.54-1.25.03-.09,0-.24-.05-.31-.05-.06-.2-.06-.29-.03-.22.08-.44.16-.63.29-.21.13-.37.33-.58.47-.71.5-1.4,1.01-1.86,1.77-.19.31-.35.64-.53.95-.29.54-.54,1.09-.52,1.72,0,.19-.05.38-.1.57-.18.6-.41,1.18-.55,1.79-.12.52-.15,1.07-.23,1.6-.07.46-.18.92-.26,1.39-.09.55-.1,1.1-.04,1.66.02.21-.01.42-.02.63,0,.08-.04.16,0,.22.1.23-.02.36-.22.51-.07-.11-.17-.2-.2-.31-.12-.37-.22-.75-.32-1.13-.14-.54-.05-1.05.07-1.59.16-.73.24-1.49.3-2.24.07-1.05-.07-2.08-.3-3.1-.04-.17-.08-.39-.29-.37-.16.01-.39.1-.46.23-.23.42-.44.86-.58,1.32-.15.48-.26.97-.32,1.47-.06.48-.05.98-.04,1.47,0,.2.09.39.13.59.13.57.22,1.17.67,1.59.21.2.28.42.36.67.12.39.27.76.41,1.14.09.23.17.46.29.68.18.36.39.71.58,1.06.11.21.26.42.33.64.15.54.26,1.09.39,1.64.11.49.19.99.35,1.46.15.41.16.88.49,1.22.04.04.01.22-.04.28-.05.06-.23.09-.27.05-.23-.23-.51-.46-.62-.74-.29-.73-.57-1.48-.74-2.25-.17-.74-.52-1.39-.84-2.06-.23-.48-.58-.9-.89-1.33-.1-.15-.25-.26-.34-.41-.16-.24-.39-.37-.56-.28-.16.08-.25.42-.17.65.03.09.03.19.04.28.02.38-.05.79.05,1.15.21.69.3,1.41.74,2.03.38.53.65,1.13,1.2,1.53.48.36.95.74,1.42,1.12.12.1.2.26.32.37.45.43.91.85,1.36,1.28.06.06.1.14.14.22.29.52.57,1.04.88,1.55.21.35.47.67.7,1.01.13.19.23.4.37.58.14.19.33.35.46.54.05.08.05.26-.01.33-.06.07-.24.1-.32.05-.18-.09-.35-.22-.47-.37-.22-.26-.41-.54-.61-.82-.41-.59-.8-1.18-1.21-1.76-.04-.06-.11-.1-.17-.15-.43-.35-.85-.71-1.28-1.06-.09-.07-.22-.1-.34-.15-.02.02-.04.04-.06.06-.13-.39-.45-.56-.82-.64-.14-.03-.4-.06-.43,0-.08.15-.13.38-.07.53.14.39.34.76.53,1.13.09.18.18.36.29.52.13.2.29.38.44.57.15.18.29.36.45.53.39.4.74.86,1.19,1.17.43.3.94.51,1.45.64.73.19,1.41.48,2.1.78.35.15.71.29,1.05.46Z"/>
      <path class="cls-1" d="M28.53,31.23c-.33-.02-.66,0-.99-.01-.21,0-.41,0-.62,0-.26,0-.51.02-.76-.01-.27-.04-.57-.1-.72.14-.12.19-.12.47-.14.71-.01.13.02.26.04.39.08.39-.06.81.38,1.13.37.27.28.61-.1.9-.06.05-.12.11-.15.17-.18.32-.43.46-.81.42-.21-.02-.28-.09-.26-.28.03-.34.06-.69.08-1.03,0-.15,0-.31,0-.46.01-.53.06-1.06.04-1.58,0-.17-.19-.44-.32-.46-.48-.09-.97-.09-1.46-.12-.11,0-.23,0-.34,0-.27-.03-.49.16-.49.44,0,.69.02,1.39.03,2.08-.01,0-.02,0-.03,0,0,.2.03.41,0,.61-.02.09-.14.2-.23.24-.05.02-.2-.08-.22-.16-.15-.46-.31-.92-.41-1.4-.08-.39-.06-.8-.09-1.2-.04-.5-.14-.59-.65-.58-.69,0-1.39.03-2.08,0-.66-.03-.69-.01-.58.64.07.43.03.87-.04,1.29-.09.57-.05.67.5.81.45.12.71.32.83.82.16.69.38,1.36.88,1.93.58.66,1.23,1.11,2.08,1.28.51.1,1.03.14,1.54.2.58.07,1.14,0,1.69-.18.24-.08.46-.23.69-.27.87-.12,1.34-.77,1.85-1.35.59-.66.95-1.46,1.12-2.33.14-.71.24-1.43.32-2.14.04-.38-.18-.6-.56-.62Z"/>
      <path class="cls-1" d="M16.55,33.7c-.2-.53-.52-.98-.88-1.38-.29-.32-.71-.55-1.11-.75-.35-.18-.7-.42-1.14-.36-.35.04-.7.05-1.04.08-.35.03-.74,0-1.05.12-.51.21-.98.53-1.47.79-.13.07-.27.26-.4.24-.05,0-.13-.36-.14-.48-.03-.33-.12-.42-.44-.44-.38-.02-.76-.06-1.14-.12-.39-.06-.94.26-.96.61-.05.79-.07,1.59-.07,2.38,0,.14.14.34.27.4.19.09.31.09.52.08.34-.02.42.05.37.38-.04.28-.05.56-.08.9-.19.11-.08.38-.06.63.02.34.04.67.07,1.1.12.02.28.15.46.18.21.03.43-.02.64,0,.13.02.27.04.4.03.28-.02.57-.08.85-.09.25-.01.34-.1.3-.36-.02-.12-.06-.25-.04-.37.05-.42.12-.84.19-1.26.09-.54.18-1.03.59-1.49.48-.54,1.06-.54,1.64-.68.04,0,.09.04.13.05.42.09.73.31.9.63.03.06.1.1.11.16.05.24.08.48.11.72.03.23-.07.34-.31.34-.38,0-.76.03-1.13.01-.59-.02-.8.2-.71.79.05.34.11.68.13,1.03.01.25.17.36.36.4.23.05.48.05.72.05.37,0,.73-.02,1.1-.02.56,0,1.12,0,1.68.01.21,0,.43.01.62.08.2.07.44,0,.45-.22.02-.73.09-1.47,0-2.19-.08-.66-.18-1.34-.42-1.99Z"/>
      <path class="cls-1" d="M5.21,32.05c.01-.54-.4-.85-.93-.74-.12.03-.25.03-.38.03-.51,0-1.02-.01-1.53-.02-.18,0-.36.02-.54.01-.29-.02-.62.23-.62.52,0,.35.04.71.06,1.06,0,0,0,0,0,0l.02.97c0,.14.12.25.25.24h.72s.06.09.1.09c.2.04.18.17.18.31-.02.36-.06.73-.06,1.09,0,.64.01,1.28.02,1.92,0,.27,0,.53,0,.8-.02.55-.05,1.1-.05,1.65,0,.27.36.52.64.49.43-.04.87-.11,1.3-.08.52.04.77-.14.75-.65-.01-.19,0-.39,0-.58,0-.08,0-.15,0-.23-.02-.28-.08-.55-.07-.82.01-.4.08-.8.11-1.19.03-.47.05-.94.08-1.4,0-.06,0-.12,0-.17-.03-.43-.06-.85-.09-1.28-.01-.24-.03-.48-.02-.72.02-.43.07-.86.08-1.29Z"/>
      <path class="cls-1" d="M10.88,38.62c-.33,0-.65.3-.64.61,0,.27.38.64.65.64.31,0,.61-.31.61-.62,0-.33-.31-.64-.62-.63Z"/>
      <path class="cls-1" d="M13.8,38.69c-.23,0-.55.33-.56.58,0,.23.44.64.71.65.25,0,.54-.29.54-.55,0-.36-.31-.67-.69-.68Z"/>
      <path class="cls-1" d="M24.94,39.35c-.17-.11-.35-.18-.49.05-.1.17-.24.33-.27.51-.02.1.12.29.23.35.27.14.58.12.86.02.1-.04.16-.17.21-.23-.03-.42-.31-.54-.54-.7Z"/>
      <path class="cls-1" d="M21.71,39.12c-.19.02-.44.38-.48.69.37-.03.08.31.25.37.16.06.32.11.53.19.37-.21.5-.47.38-.84-.09-.27-.4-.45-.69-.42Z"/>
      <path class="cls-1" d="M12.42,40.17c-.25-.09-.67.11-.73.33-.1.35.23.78.59.77.26,0,.44-.2.43-.47,0-.06-.04-.13-.02-.17.19-.33-.08-.39-.28-.46Z"/>
      <path class="cls-1" d="M23.51,40.84c-.07-.06-.17-.07-.26-.1-.38-.15-.69.07-.73.57.2.53.71.72,1.11.25.05-.06.05-.4.05-.45,0-.1-.09-.2-.17-.27Z"/>
    </g>
  </g>
</svg>