<?xml version="1.0" encoding="UTF-8"?>
<svg id="Layer_2" xmlns="http://www.w3.org/2000/svg" viewBox="0 0 50.67 21.6">
  <defs>
    <style>
      .cls-1 {
        fill: #2c489e;
      }
    </style>
  </defs>
  <g id="Layer_1-2" data-name="Layer_1">
    <g>
      <path class="cls-1" d="M50.49.13s-.04-.04-.07-.04c-.16-.03-.32-.07-.48-.08-.14,0-.29.01-.42.03-.17.03-.33.07-.5.11-.09.02-.18.02-.26.05-.08.02-.15.07-.22.1-.19.07-.38.14-.56.22-.12.05-.22.14-.33.19-.24.11-.49.2-.73.31-.17.07-.34.16-.5.24-.27.13-.54.25-.79.39-.2.11-.47.09-.63.3-.02.03-.08.03-.12.05-.2.09-.4.18-.59.27-.29.14-.57.3-.85.44-.32.16-.65.3-.97.45-.34.16-.68.33-1.02.49-.26.12-.52.25-.78.38-.21.1-.43.2-.64.3-.21.1-.42.21-.64.31-.18.09-.36.17-.54.26-.18.08-.35.16-.53.25-.28.14-.56.28-.85.42-.34.16-.68.31-1.02.47-.18.08-.35.18-.52.26-.16.07-.32.14-.48.22-.17.08-.34.18-.51.26-.23.11-.45.22-.68.32-.07.03-.11.07-.07.16-.1-.07-.18-.07-.27,0-.06.05-.13.08-.21.12-.25.11-.49.21-.74.32-.28.12-.55.26-.82.39-.07.03-.14.06-.21.06-.11,0-.21-.05-.32-.08-.03,0-.06,0-.09,0,0,.03,0,.07.02.09.06.1.14.17.2.28.06.12.07.22.02.33-.01.02,0,.08.02.09.06.04.13.09.2.09.09,0,.13.06.18.11.09.11.17.24.29.32.23.18.41.4.55.66.08.15.08.29.05.45-.02.07-.05.12-.14.14-.07.01-.13.05-.19.07-.07.03-.15.08-.22.07-.36-.03-.71-.09-1.05-.23-.02,0-.05-.02-.07-.02-.16-.04-.32-.06-.48-.11-.1-.03-.2-.08-.28-.17.03,0,.03-.01.04-.01.04-.01.09-.02.13-.03-.04-.03-.07-.06-.11-.08-.14-.05-.27-.09-.41-.14-.09-.03-.17-.05-.25.03-.02.02-.06.03-.09.03-.25-.08-.5-.16-.74-.26-.12-.05-.23-.13-.34-.2-.27-.16-.42-.31-.41-.67,0-.12-.04-.25-.09-.36-.01-.04-.08-.08-.13-.09-.08-.01-.12-.06-.1-.12.05-.14.01-.28-.02-.41-.04-.14-.03-.31-.2-.38-.07-.03-.15-.05-.23-.07-.1-.02-.15-.09-.1-.17.04-.06.04-.11-.02-.13-.03-.01-.1.01-.12.04-.07.08-.16.15-.16.28,0,.03-.03.06-.06.08-.04.03-.1.05-.15.07.02.01.03.03.05.04-.02,0-.04,0-.06,0,0,0-.01.02-.02.03.03.03.06.07.1.1.07.05.15.1.23.13.27.09.32.33.27.58-.02.11-.07.24-.2.27-.19.03-.37,0-.53-.12-.13-.1-.26-.2-.39-.3-.03-.02-.08-.02-.11,0-.02,0-.03.07-.01.09.06.1.12.21.21.28.11.08.13.18.15.3,0,.05,0,.09,0,.14,0,.09.04.16.1.23.07.08.12.17.17.26.07.12.13.27.22.36.21.2.43.38.66.56.1.08.22.14.33.19.25.11.51.21.77.32.07.03.13.06.2.08.13.04.28.05.4.11.15.09.31.08.47.08.08,0,.13.03.13.11,0,.08-.05.12-.14.11-.15-.03-.31-.07-.46-.07-.32-.01-.61-.14-.91-.23-.14-.05-.27-.12-.4-.19-.1-.05-.19-.11-.29-.15-.07-.03-.15-.06-.21-.04-.1.03-.2.09-.3.14-.21.11-.42.22-.63.32-.2.09-.41.16-.6.27-.26.15-.55.23-.81.39-.21.13-.44.23-.67.34-.14.06-.29.12-.44.15-.1.02-.19.06-.22.16-.03.1-.06.2-.09.3-.03.1-.08.12-.18.08-.04-.02-.08-.05-.09-.08-.04-.08-.06-.17-.09-.25,0-.02-.05-.03-.07-.05-.01.03-.04.06-.04.08.03.13.03.26-.07.37-.02.02-.03.07-.02.08.02.02.06.02.08.03.05.01.11,0,.16.03.17.08.34.14.53.13.09,0,.14.04.17.12.02.06.03.13.08.16.09.08.12.19.16.3.09.21,0,.44-.2.55-.26.13-.54.13-.81.11-.16-.01-.32-.04-.48-.08-.06-.02-.14-.07-.17-.13-.04-.08.02-.15.09-.2.09-.06.08-.15,0-.2-.06-.03-.13-.06-.2-.08-.26-.07-.52-.13-.78-.2-.2-.05-.39-.12-.58-.19-.18-.07-.36-.15-.54-.22-.03-.01-.07-.02-.1-.03,0,0,0,.02-.01.03.03.03.06.06.09.08.16.07.33.13.5.2.13.05.27.09.4.15.02.01.05.07.04.1-.03.09-.22.18-.32.14-.16-.06-.33-.12-.49-.18-.15-.05-.32-.05-.45-.17-.1-.09-.24-.13-.36-.19-.14-.07-.2-.18-.16-.34.02-.07.01-.12-.05-.17-.08-.06-.08-.13-.05-.22.03-.09.04-.19.05-.29.02-.22-.07-.41-.16-.59-.1-.2-.27-.32-.51-.3-.04,0-.07,0-.11,0-.14-.05-.28-.05-.41.02,0,0-.02,0-.03,0v-.09s-.02-.01-.03-.02c-.04.06-.08.11-.14.19h.12s-.05.07-.07.09c-.07.11-.04.25.07.26.2.02.4.03.6.05.07,0,.17,0,.19.04.07.13.12.27.15.41.01.07-.04.15-.08.22-.06.11-.13.13-.25.1-.03,0-.07-.01-.1-.02-.15-.03-.3-.06-.45-.08-.06-.01-.13-.04-.19-.03-.14.02-.16.02-.21-.11-.02-.06-.05-.11-.12-.08-.08.03-.04.1-.03.15,0,.02.02.04.03.05.12.15.26.29.44.38.03.01.06.07.05.11-.03.19-.03.2.13.29.04.02.08.03.11.06.03.02.06.07.05.1-.04.16.02.27.14.36.05.04.09.09.14.13.15.13.3.27.46.39.13.09.29.14.4.24.11.11.25.17.38.22.3.12.62.22.93.32.06.02.11.04.08.11,0,.02-.09.02-.13,0-.1-.03-.18-.08-.28-.1-.24-.06-.48-.07-.69-.23,0,0-.02-.01-.03-.01-.2-.02-.35-.14-.52-.23-.12-.06-.24-.11-.36-.16-.09-.04-.18-.07-.28-.1-.04-.01-.1,0-.13.01-.16.09-.31.2-.47.29-.05.03-.11.03-.17.03-.06,0-.12,0-.18-.02-.18-.04-.23-.05-.22-.22,0-.18,0-.36.08-.54.01-.02,0-.06-.01-.09-.03.01-.08.02-.09.04-.03.05-.04.11-.06.17-.12-.04-.19.06-.25.15-.09.11-.2.15-.33.14-.1,0-.14-.06-.08-.14.09-.12.19-.23.28-.35.08-.1.15-.2.14-.38-.05.05-.1.08-.11.11-.09.27-.33.44-.47.67-.02.03-.1.05-.14.05-.1,0-.2-.03-.3-.05-.14-.03-.28-.06-.41-.1-.14-.04-.27-.1-.41-.12-.2-.03-.37-.17-.58-.12,0,0-.01,0-.02,0-.22-.08-.43-.16-.66-.22-.38-.11-.77-.21-1.16-.31-.3-.08-.61-.14-.92-.2-.14-.03-.28-.04-.42-.08-.32-.09-.64-.21-.97-.3-.14-.04-.28-.05-.42-.07-.09-.01-.19-.11-.17-.2.02-.11.05-.23.07-.34.03-.12.07-.24.08-.36,0-.04-.05-.09-.08-.13-.03.03-.08.05-.1.08-.03.05-.02.12-.04.17-.06.19-.03.4-.14.58-.04.07-.07.08-.13.07-.11-.02-.21-.05-.32-.06-.2-.03-.41-.04-.61-.08-.15-.02-.31-.08-.46-.09-.32-.02-.62-.12-.94-.14-.37-.02-.74-.08-1.11-.12-.07,0-.14,0-.2,0-.16-.03-.24-.06-.15-.24.01-.02.02-.05,0-.07-.02-.03-.05-.06-.08-.09-.02.02-.06.04-.07.07-.02.03-.01.07-.03.09-.05.07-.06.19-.19.19-.19,0-.37,0-.56,0-.18,0-.19,0-.25-.18-.02-.04-.06-.07-.08-.1-.03.03-.06.07-.08.1-.02.03-.01.07-.03.1-.02.03-.06.07-.09.07-.31,0-.62-.03-.94-.04-.21,0-.43,0-.64,0-.17,0-.33.09-.5.03-.01,0-.05.02-.05.04,0,.02.01.05.03.06.04.02.08.04.12.04.22,0,.45,0,.67-.01.13,0,.25-.05.38-.04.25,0,.49.03.74.04.09,0,.16.05.14.14-.02.09-.07.19-.14.23-.07.04-.18,0-.27,0-.16,0-.31-.01-.47-.01-.1,0-.21.02-.31.01-.14,0-.27-.04-.41-.06-.14-.02-.28-.05-.41-.08-.11-.02-.22-.05-.33-.08-.14-.04-.29-.04-.38-.19-.01-.02-.08-.02-.11-.03-.06-.01-.12,0-.17-.04-.07-.04-.14-.09-.19-.15-.21-.22-.34-.48-.3-.8,0-.03,0-.06,0-.1,0-.25.06-.49.18-.7.05-.09.14-.13.25-.11.05,0,.1.01.15,0,.21-.05.41-.1.62-.15.25-.05.5-.1.75-.15.11-.02.22-.03.33-.04.2-.02.4-.03.6-.04.33-.02.67-.05,1-.06.23,0,.45.02.68.04.43.03.87.07,1.3.1.03,0,.07.03.08.06.06.1.1.11.18.03.06-.05.11-.1.21-.07.1.03.2.04.29.05.27.02.55.04.82.07.15.01.18.03.2.19,0,.01,0,.03,0,.04.06.07.1.16.18.2.07.04.19-.04.23-.13.02-.04.04-.09.07-.13.02-.03.06-.05.09-.05.21.01.42.03.63.05.05,0,.12.02.14.06.08.11.17.2.16.36,0,.07.03.18.13.18.11,0,.12-.09.12-.18,0-.03.03-.09.04-.08.11.01.17-.06.24-.12.02-.02.06-.02.09-.02.1.02.2.05.3.06.22.04.44.08.67.12.05,0,.09.01.13.03.06.03.13.06.15.11.04.08.08.11.17.09.07-.02.13-.07.2-.07.17.01.33.04.5.07.23.05.45.11.67.16.21.05.42.1.63.15.23.06.47.12.7.18.18.04.36.09.54.13.27.07.55.13.82.2.16.04.32.07.48.11.21.06.41.14.62.21.08.03.18.03.27.03.02,0,.06-.03.07-.06,0,0-.03-.06-.05-.06-.22-.07-.44-.14-.66-.19-.2-.05-.23-.08-.2-.29,0-.05-.02-.11-.04-.16-.03-.05-.07-.1-.11-.16.04,0,.06-.02.07-.01.16.03.31.07.47.1.21.04.4.16.62.16.06,0,.12,0,.12-.06,0-.04-.05-.11-.09-.13-.1-.04-.21-.06-.31-.08-.26-.04-.51-.09-.75-.22-.01,0-.03-.02-.04-.02-.14.02-.26-.02-.39-.07-.15-.05-.32-.07-.48-.11-.04,0-.09-.02-.12-.04-.04-.04-.09-.1-.08-.14.03-.15-.05-.25-.13-.34-.02-.02-.05-.02-.11-.04.04.11.08.18.1.26.01.05.02.13,0,.17-.02.03-.11.02-.16,0-.24-.12-.5-.13-.75-.19-.21-.05-.43-.09-.65-.13-.19-.04-.38-.07-.56-.12-.15-.04-.31-.09-.46-.14-.05-.02-.11-.04-.16-.04-.12-.01-.26,0-.37-.03-.12-.04-.25-.04-.37-.07-.23-.04-.45-.12-.68-.16-.37-.07-.74-.13-1.11-.2-.08-.01-.16-.02-.23-.01-.1,0-.18-.03-.22-.12-.04-.07-.07-.15-.09-.23-.02-.05.01-.08.07-.07.13,0,.26,0,.38.01.27.03.53.08.8.12.17.02.33,0,.5.03.25.03.51.07.76.11.39.06.77.12,1.16.19.07.01.14.05.22.06.23.04.46.07.69.11.33.06.66.11.99.18.16.03.32.08.49.12.02,0,.04,0,.06,0,.13.02.26.02.39.05.29.06.57.13.85.2.09.02.19.03.28.06.16.05.32.12.5.11.07,0,.15.05.22.07.22.05.43.11.65.15.06.01.08-.05.04-.08-.1-.08-.2-.18-.32-.22-.25-.08-.52-.14-.78-.19-.27-.05-.54-.08-.82-.11-.03,0-.06-.02-.09-.03-.19-.07-.38-.15-.59-.13-.03,0-.06,0-.08-.01-.08-.03-.17-.06-.25-.09-.08-.02-.16-.04-.24-.05-.19-.04-.38-.07-.57-.11-.07-.02-.14-.04-.22-.05-.05-.01-.1-.02-.15-.03-.12-.02-.25-.05-.37-.07-.06,0-.11,0-.17-.02-.26-.06-.52-.13-.78-.19-.28-.05-.56-.1-.83-.14-.21-.03-.41-.05-.62-.07-.09,0-.18,0-.27-.01-.21-.05-.41-.1-.63-.11-.06,0-.13,0-.19,0-.12-.02-.23-.07-.34-.06-.36.02-.71-.08-1.06-.12-.1-.01-.21,0-.31-.03-.34-.08-.69-.09-1.04-.1-.14,0-.29,0-.44,0-.11,0-.24-.01-.32.04-.16.09-.31.16-.51.13-.24-.03-.48-.03-.72-.05-.15-.01-.3-.03-.45-.04-.18-.01-.37,0-.54-.03-.31-.06-.6.02-.89.08-.07.02-.15.02-.21.06-.17.1-.34.22-.5.33-.04.03-.08.07-.12.1-.04.03-.08.07-.13.08-.21.05-.43.09-.63.15-.24.07-.47.15-.7.24-.13.05-.25.15-.38.21-.24.12-.41.32-.58.52-.14.17-.25.36-.22.6,0,.03-.02.07-.02.1,0,.07-.02.14,0,.2.03.16.05.32.15.46.06.08.13.15.19.23.08.12.17.23.3.3.09.05.15.14.24.19.27.15.55.29.82.43.2.1.41.21.62.29.31.12.63.23.94.34.22.08.44.15.66.22.18.06.36.11.55.16.22.06.44.13.66.19.21.06.41.12.62.17.17.05.34.1.51.14.19.05.38.09.57.14.26.07.53.15.79.22.13.03.25.06.38.09.16.03.31.07.47.1.15.03.29.06.44.09.33.08.66.16.98.24.11.03.21.07.32.09.46.06.92.13,1.36.29.29.1.59.17.89.23.26.06.53.08.79.13.15.03.28.1.43.11.22.02.43.07.65.13.29.08.58.13.87.19.32.07.64.14.96.21.11.02.23.04.33.07.28.08.56.17.85.25.21.06.43.11.64.17.06.02.12.03.18.05.28.06.56.1.83.2.3.11.63.13.93.26.23.1.49.12.74.18.22.05.44.1.66.16.04.01.07.05.11.08-.05.03-.09.08-.14.08-.15.02-.3.01-.44-.07-.03-.02-.06-.02-.09-.03-.29-.05-.58-.09-.87-.15-.12-.02-.23-.06-.35-.09-.09-.02-.18-.06-.27-.08-.17-.04-.34-.07-.5-.1-.16-.03-.31-.06-.47-.08-.05,0-.1-.02-.16-.03-.16-.04-.32-.08-.48-.12-.12-.03-.25-.05-.37-.08-.25-.06-.49-.12-.73-.17-.18-.04-.36-.06-.53-.1-.4-.09-.81-.18-1.21-.27-.26-.06-.52-.11-.78-.18-.17-.04-.33-.1-.49-.14-.18-.04-.36-.08-.54-.11-.19-.04-.36-.04-.54.07-.15.1-.32.16-.49.24-.13.06-.26.11-.4.15-.19.06-.38.1-.57.16-.08.02-.17.04-.24.07-.09.04-.17.09-.27.13-.08.04-.17.07-.27.1.03.05.04.1.07.11.16.07.31.13.47.18.14.05.29.09.44.14.03.01.06.05.07.09.05.1.1.21.15.32.07.16.12.21-.05.33-.05.04-.06.08,0,.12.04.03.1.04.13.07.03.04.06.1.06.14,0,.03-.08.07-.12.07-.19-.03-.38-.07-.56-.12-.11-.03-.18.02-.27.06-.1.05-.18.09-.12.24-.09-.03-.19-.06-.23-.12-.04-.07.03-.13.09-.19.05-.05.07-.14.1-.22,0-.02-.03-.07-.05-.08-.04,0-.09,0-.12.02-.07.05-.12.11-.19.17-.1.08-.2.15-.33.11-.21-.05-.41-.12-.62-.19-.07-.02-.14-.08-.21-.1-.1-.03-.09-.08-.04-.14.05-.06.11-.12.16-.18.04-.05.08-.11.02-.16-.02-.02-.1.02-.13.05-.1.09-.19.2-.28.29-.02.02-.07.03-.09.03-.08-.02-.15-.05-.22-.08-.1-.05-.11-.17-.02-.24.03-.02.07-.03.1-.06.05-.04.06-.09,0-.13-.03-.01-.06-.03-.09-.04-.22-.07-.43-.14-.65-.21-.12-.04-.17-.12-.13-.23.04-.08.02-.15,0-.23-.01-.03-.03-.07-.02-.1.04-.23-.05-.44-.09-.66-.03-.15-.13-.24-.27-.28-.15-.04-.29-.02-.39.11.02.05.04.09.06.13,0,0-.02.01-.02.02-.03-.02-.07-.04-.1-.06-.05.06-.07.14-.03.18.03.03.09.04.14.04.04,0,.08-.03.12-.04.07-.03.14-.02.16.06.04.13.17.28-.03.4,0,0-.02.02-.02.03-.02.12-.11.14-.21.13-.03,0-.07,0-.11,0-.12,0-.24.01-.35-.06-.1-.07-.21-.15-.32-.21-.04-.02-.1-.03-.13-.01-.06.03-.06.26,0,.3.07.07.14.16.22.2.12.06.14.15.16.26.03.18.27.35.45.3.15-.04.3-.1.38-.25.02-.03.04-.05.07-.09.07.18.04.31-.08.38-.08.05-.18.07-.27.09-.12.03-.16.08-.1.19.04.07.09.16.15.2.21.15.42.3.64.43.13.08.27.12.41.18.26.1.51.2.77.3.02,0,.04.04.05.06,0,.02-.02.05-.04.05-.04.01-.09.02-.12,0-.17-.07-.34-.17-.52-.23-.26-.08-.5-.24-.76-.32-.18-.06-.34-.22-.5-.35-.11-.09-.16-.1-.27,0-.11.1-.2.11-.31,0-.04-.04-.07-.09-.09-.14-.03-.12-.06-.24-.08-.35-.01-.06-.01-.13-.04-.19-.03-.06-.04-.1.03-.14.03-.01.05-.09.04-.11-.03-.06-.08-.13-.14-.15-.26-.09-.53-.17-.79-.25-.29-.08-.58-.15-.86-.22-.16-.04-.32-.11-.48-.14-.27-.05-.55-.1-.83-.09-.18,0-.35.04-.52.11-.06.03-.11.07-.09.14.03.08.09.05.15.03.1-.03.2-.08.32-.02-.04.02-.08.04-.11.06-.04.03-.08.07-.1.12-.01.03-.01.09,0,.1.03.02.08.03.12.02.16-.05.31-.11.46-.15.15-.04.15-.04.1-.19.15-.03.24.06.33.16.09.12.16.13.28.06.03-.02.07-.02.11-.02.23.06.46.11.69.18.37.11.73.22,1.09.34.03.01.06.03.1.05-.03.05-.06.09-.08.13-.1.16-.08.34-.04.51.05.22.15.4.37.5.15.07.35.07.42.27,0,0,0,0,0,0,.07.07.14.14.19.22.02.03.02.08,0,.12-.03.08-.06.16-.1.24-.02.03-.08.08-.11.07-.25-.05-.5-.1-.73-.19-.14-.05-.21-.05-.29.1-.02.04-.06.07-.08.1,0,0-.02,0-.03-.01,0-.05,0-.09-.01-.14,0-.07,0-.13-.01-.2,0-.06-.05-.07-.1-.03-.13.12-.25.03-.38-.01-.05-.01-.09-.03-.14-.05-.04-.01-.07-.02-.11-.03-.13-.05-.25-.12-.4-.1-.04,0-.08-.01-.11-.02.01-.04.02-.08.04-.12.04-.08.06-.16,0-.24-.07-.08-.13-.02-.2,0-.02,0-.03.02-.04.03-.07.05-.12.04-.13-.05-.02-.14-.12-.19-.23-.22-.28-.08-.57-.15-.86-.23-.13-.03-.22.01-.27.14-.03.08-.05.16-.09.23-.1.19-.24.36-.4.51-.09.08-.08.2.03.27.31.18.61.38.92.55.26.14.52.31.83.34.04,0,.09.03.13.05,0,.01,0,.02,0,.03-.04,0-.09,0-.13-.02-.09-.03-.17-.08-.25-.08-.18,0-.35-.07-.5-.14-.3-.14-.57-.32-.86-.47-.12-.06-.24-.11-.37-.13-.09-.01-.19.04-.29.05-.22.03-.44.04-.66.06-.14.02-.28.04-.42.05-.1,0-.2,0-.3,0,0-.01,0-.03,0-.04.04,0,.08-.02.11-.03.04,0,.07,0,.11,0,.24-.05.48-.11.72-.17.11-.03.21-.08.31-.12.02,0,.03-.04.04-.07,0,0-.04-.04-.05-.03-.17.02-.35.05-.52.08-.22.05-.44.11-.65.16-.34.08-.69.16-1.03.25-.12.03-.24.09-.36.13-.06.02-.07.05-.05.12.03.12.11.21.21.24.27.09.54.18.82.22.33.05.67.11,1.01.08.18-.02.36,0,.54.01.13,0,.26,0,.39,0,.19.01.38.04.56.06.15.01.31.02.46.03.11,0,.23,0,.34,0,.11,0,.22-.01.33-.01.25,0,.5.03.74.03.17,0,.35-.05.52-.04.38.02.75-.02,1.12-.13.04-.01.06-.06.1-.08-.03-.03-.06-.07-.09-.09-.05-.04-.11-.06-.17-.09,0,0,0-.02.01-.03.03,0,.06-.02.09-.01.19.03.39.07.58.1.24.03.49.08.73.08.22,0,.46.02.67-.1.05-.02.1-.05.15-.05.2,0,.35-.12.53-.18.13-.04.26-.1.38-.15.08-.03.17-.07.24-.12.08-.05.14-.12.21-.17.1-.08.2-.15.3-.22.02-.01.06-.01.08-.01,0,.03.01.05,0,.08-.02.05-.05.1-.06.14-.05.02-.09.03-.11.06-.1.08-.19.18-.3.25-.08.05-.18.08-.27.12-.03.02-.05.06-.08.09.04.03.08.06.11.08,0,0,.03,0,.04,0,.19,0,.38-.02.57-.03.03,0,.06-.01.08-.02.16-.03.33-.07.49-.1.21-.03.43-.05.65-.07.19-.02.37-.08.57-.07.23.01.45-.03.68-.04.07,0,.15,0,.22,0,.03,0,.06-.05.09-.08-.03-.02-.06-.04-.09-.05-.04-.01-.08,0-.12-.01-.25-.05-.49-.11-.74-.16-.2-.04-.39-.09-.59-.14-.09-.02-.18-.04-.27-.06-.13-.03-.27-.06-.4-.11-.04-.01-.07-.08-.1-.12.05-.03.09-.08.14-.08.11,0,.23.01.34.05.19.07.38.16.59.15.02,0,.05.02.07.03.13.04.26.1.4.12.28.06.55.1.83.15.25.04.5.1.75.13.21.02.43-.01.64,0,.29.02.53-.1.77-.21.1-.05.19-.13.28-.21.08-.07.17-.11.29-.12-.02.04-.02.06-.04.07-.06.05-.13.1-.19.15-.03.03-.07.08-.07.12,0,.02.06.06.1.07.09.01.18.03.26,0,.14-.05.28-.09.44-.1.23,0,.46-.05.69-.07.04,0,.08,0,.12,0,.33-.04.65-.08.98-.11.22-.02.45-.04.67-.07.31-.04.62-.08.93-.12.22-.03.45-.05.67-.08.28-.04.56-.09.83-.14.14-.03.29-.05.43-.08.22-.05.46-.01.67-.11.02,0,.05,0,.07-.01.24-.02.48-.04.71-.07.23-.03.45-.08.68,0,.15.05.31.06.46.08.23.03.47.05.7.08.4.05.81.11,1.21.16.1.01.21.02.31.03.19.03.38.07.57.09.22.02.45.03.67.04.34,0,.67,0,1.01,0,.17,0,.35,0,.52,0,.21.01.43.04.64.06.26.02.51.03.77.05.24.02.48.03.72.05.29.02.58.03.86.05.08,0,.15.04.23.04.19,0,.38.03.57.02.66-.02,1.32-.01,1.98-.07.17-.01.34-.01.51-.03.37-.03.74-.06,1.11-.1.24-.03.48-.06.72-.1.11-.02.21-.04.31-.06.2-.06.4-.15.61-.18.33-.05.5-.3.7-.51.03-.03.02-.09.02-.14,0-.04,0-.09,0-.13.04-.15-.03-.27-.18-.31-.18-.05-.38-.08-.54-.16-.17-.1-.36-.13-.54-.19-.09-.03-.22-.04-.25-.21.11.02.21.03.28.07.24.13.51.15.77.22.21.06.43.08.64.12.04,0,.1,0,.14,0,.19-.05.37-.11.56-.15.49-.13.96-.33,1.47-.43.29-.06.58-.17.86-.26.32-.1.64-.21.97-.31.26-.08.52-.15.78-.22.15-.04.3-.06.45-.11.2-.07.4-.15.6-.23.14-.06.25-.07.37.07.22.25.51.41.83.51.15.05.31.1.47.11.11,0,.23-.04.35-.07.05-.01.09-.06.14-.07.11-.03.18-.1.2-.2.04-.2.08-.41.1-.62.02-.15.02-.31,0-.46,0-.11.01-.17.12-.2.08-.02.16-.05.24-.07.23-.04.36-.45.2-.64-.19-.22-.4-.39-.7-.44-.21-.03-.42-.07-.62-.07-.23,0-.46.02-.69.05-.21.03-.43.07-.64.12-.18.04-.36-.08-.34-.25.02-.23-.08-.46,0-.69,0,0,0-.02,0-.03v-.41c.08,0,.15,0,.2.03.31.14.62.28.93.43.04.02.09.07.11.11.04.1.06.21.09.32.01.03.04.06.06.09.03-.03.07-.05.1-.09.01-.02,0-.05,0-.07,0-.14.04-.18.17-.12.04.02.07.04.11.06.08.04.17.08.26.1.04,0,.11,0,.12-.03.02-.04,0-.1-.01-.15-.02-.06-.04-.12-.07-.19-.03-.1-.04-.22-.15-.27-.06-.03-.13-.05-.19-.08-.12-.06-.27-.11-.29-.27-.02-.13-.02-.27-.04-.41,0-.07.02-.09.09-.09.03,0,.06,0,.1,0,.08,0,.13-.07.1-.14-.09-.18-.16-.37-.33-.49-.05-.04-.08-.11-.11-.18-.03-.06-.03-.14-.06-.2-.01-.03-.06-.04-.1-.05-.01,0-.04.04-.05.07-.03.05-.05.11-.07.16-.07-.02-.12-.03-.17-.06-.12-.05-.25-.1-.36-.16-.07-.04-.11-.12-.04-.18.11-.08.23-.15.36-.19.07-.02.17-.01.25.02.14.06.26.16.35.3.2.29.35.59.46.93.09.29.2.57.32.86.1.24.13.5.16.76.02.16.05.31.07.48.1-.03.15-.11.12-.18-.07-.2,0-.41-.09-.61-.08-.19-.1-.42-.14-.63-.02-.08-.03-.17-.06-.25-.08-.2-.15-.4-.24-.59-.12-.27-.25-.54-.4-.8-.07-.12-.17-.22-.26-.32-.03-.04-.09-.06-.14-.07-.12-.03-.24-.05-.36-.07-.06,0-.13-.02-.19,0-.33.05-.53.28-.68.55-.08.16-.14.34-.18.51-.06.27-.12.54-.13.81-.01.35.02.71.03,1.06,0,.18,0,.36.03.54.03.18-.03.26-.23.3-.13.03-.26.05-.39.07-.3.07-.61.13-.91.21-.37.09-.73.18-1.1.27-.3.07-.6.14-.91.21-.15.03-.29.07-.43.11-.24.06-.49.13-.73.18-.22.05-.44.09-.66.14-.19.04-.39.09-.58.13-.13.03-.15,0-.19-.12-.02-.07-.05-.14-.08-.21-.05-.13-.1-.26-.15-.39-.08-.24-.12-.49-.28-.69-.02-.03-.04-.07-.05-.1-.07-.18-.16-.36-.28-.52-.19-.24-.4-.33-.69-.23-.28.1-.49.28-.59.58-.1.27-.22.53-.32.81-.14.37-.27.75-.39,1.13-.08.27-.44.42-.66.41-.26-.01-.52-.09-.78-.15-.21-.05-.41-.13-.62-.19-.15-.05-.29-.1-.44-.15-.16-.05-.33-.09-.49-.15-.17-.06-.34-.14-.51-.21-.19-.07-.38-.13-.56-.2-.27-.1-.55-.21-.82-.31-.06-.02-.12-.06-.19-.07-.08-.02-.13.03-.09.09.05.08.11.18.2.21.2.09.42.15.63.22.29.09.58.18.87.28.28.09.55.19.83.28.42.14.85.27,1.26.43.27.1.54.15.83.17.4.02.6-.24.79-.51.07-.1.1-.23.15-.35.09-.24.17-.49.25-.73.03-.09.08-.17.11-.26.03-.09.04-.19.07-.29.08-.25.17-.5.33-.71.11-.14.27-.17.47-.2-.02.07-.03.1-.04.14-.01.04-.04.09-.03.13.02.19.04.37.06.56,0,.03.03.07.05.07.03,0,.08-.02.08-.05.02-.05.03-.11.03-.17,0-.16-.01-.31-.02-.47.01,0,.02-.01.03-.02.04.02.09.03.11.07.05.08.1.16.14.25.12.25.24.5.35.76.08.17.13.36.2.54.04.1.08.2.12.31.02.06,0,.1-.07.12-.15.04-.31.09-.46.14-.18.05-.31-.01-.32-.15-.02-.2-.04-.4-.07-.59-.03-.16-.07-.18-.22-.16-.01,0-.03,0-.04,0-.18-.04-.35-.08-.53-.12-.05,0-.13,0-.15.02-.06.1-.1.2-.07.32.04.16.05.33.07.5,0,.11.04.15.16.16.16.02.31.05.47.08,0,.01,0,.03,0,.04-.05.03-.09.06-.14.08-.29.07-.58.14-.86.21-.05.02-.11.08-.14.13-.04.07,0,.12.08.11.11-.01.21-.03.31-.06.2-.05.39-.12.59-.17.3-.07.61-.14.91-.21.52-.12,1.04-.24,1.56-.36.22-.05.44-.13.66-.18.3-.07.6-.13.9-.19.3-.06.61-.12.91-.19.42-.1.84-.22,1.27-.32.37-.09.74-.16,1.11-.24.09-.02.18-.04.26-.05.02,0,.04.01.06.02-.02.02-.03.05-.05.06-.15.05-.31.1-.46.14-.17.05-.35.08-.52.13-.16.04-.31.09-.47.13-.19.05-.38.08-.56.13-.53.14-1.06.28-1.59.42-.02,0-.05.02-.07.02-.2.06-.39.12-.59.17-.19.05-.38.08-.56.13-.23.06-.45.12-.68.17-.19.05-.38.09-.57.14-.33.08-.67.18-1,.26-.36.09-.71.16-1.07.25-.05.01-.1.04-.15.06-.16.06-.32.11-.47.17-.05.02-.1.07-.15.11,0,.01.01.03.02.04.05,0,.11.02.15,0,.23-.08.45-.08.65.06.04.03.07.06.09.1.05.09.1.19.14.29.01.03.03.07.01.08-.02.03-.06.05-.09.05-.06,0-.11-.02-.17-.04-.08-.03-.16-.06-.24-.08-.22-.06-.45-.12-.67-.17-.05-.01-.11,0-.16,0,0,.02,0,.04,0,.06.44.18.91.31,1.4.45-.05.03-.08.05-.11.05-.15,0-.3.02-.45,0-.16-.01-.33-.05-.49-.07-.13-.02-.26-.04-.39-.05-.06,0-.11,0-.12.07-.01.08.04.1.1.12.12.03.25.06.38.07.19.02.39.04.58.06.19.01.38.01.57.01.15,0,.22.06.2.21-.01.08-.16.24-.23.25-.13.01-.27.02-.41.01-.25-.01-.5-.03-.75-.05-.24-.03-.48-.07-.72-.11-.18-.03-.36-.07-.53-.1-.18-.03-.36-.04-.54-.1-.21-.07-.41-.18-.65-.17-.04,0-.08-.02-.12-.03-.15-.04-.29-.08-.44-.12-.15-.04-.31-.06-.46-.1-.19-.05-.38-.12-.57-.17-.18-.05-.36-.07-.54-.12-.4-.11-.8-.22-1.2-.33-.14-.04-.27-.09-.4-.12-.23-.05-.46-.1-.69-.14-.02,0-.05.02-.07.03.01.02.02.05.04.06.06.03.12.06.18.08.24.07.48.12.72.19.21.06.41.14.62.21.26.08.51.16.77.23.28.08.57.14.85.21.26.07.52.15.78.23.06.02.13.03.2.05.12.03.24.08.36.1.26.05.53.09.79.14.04,0,.08.03.12.05.14.04.27.1.41.12.28.04.57.07.85.1.01,0,.03.02.06.04-.06.02-.09.04-.13.04-.15,0-.3-.01-.46-.02-.25,0-.5,0-.75-.02-.36-.02-.71-.05-1.07-.07-.2-.02-.39-.04-.59-.06-.17-.03-.34-.07-.51-.1-.19-.03-.39-.04-.58-.08-.29-.05-.58-.11-.87-.18-.19-.05-.38-.11-.57-.16-.19-.05-.37-.09-.56-.13-.29-.07-.57-.15-.85-.24-.18-.05-.37-.1-.53-.19-.15-.09-.27-.1-.42-.06-.19.05-.39.11-.59.09-.13,0-.19-.07-.17-.2.02-.11.06-.23.08-.34,0-.04,0-.08,0-.12,0-.03,0-.08.02-.09.16-.12.33-.23.5-.34.08-.05.19-.07.27-.12.29-.17.57-.35.86-.52.05-.03.12-.05.18-.04.11.01.21.05.32.08.29.09.58.19.86.29.16.06.32.12.49.16.04.01.09-.03.14-.05-.02-.05-.04-.09-.06-.13,0-.02-.04-.02-.06-.03-.17-.05-.34-.11-.51-.16-.11-.03-.15-.1-.14-.21,0-.06,0-.13-.01-.19-.01-.04-.07-.06-.11-.09-.03.04-.07.08-.08.12-.01.04.02.09,0,.14,0,.03-.05.09-.06.08-.16-.04-.33-.07-.46-.19-.01-.01,0-.08.02-.1.05-.04.12-.07.17-.11.13-.09.26-.12.41-.06.11.05.23.08.35.11.07.02.14.02.21.01.04,0,.08-.06.11-.1-.03-.03-.06-.06-.09-.07-.06-.02-.12-.05-.17-.04-.09.02-.15-.04-.21-.09-.07-.05-.07-.09,0-.13.09-.05.18-.09.26-.15.06-.04.1-.1.15-.13.33-.18.66-.36.99-.54.18-.1.34-.22.52-.32.26-.16.53-.3.8-.46.21-.13.42-.26.64-.39.31-.18.63-.36.94-.54.19-.11.37-.24.56-.35.24-.14.48-.28.71-.42.11-.07.23-.13.34-.2.13-.07.25-.15.38-.22.24-.15.48-.31.72-.46.27-.16.54-.31.8-.47.47-.28.94-.57,1.41-.85.23-.14.45-.26.68-.4.47-.28.94-.55,1.41-.83.21-.13.43-.26.64-.39.19-.12.39-.23.58-.34.21-.12.41-.25.61-.37.26-.15.52-.3.78-.45.22-.13.42-.28.64-.41.22-.13.45-.25.67-.39.11-.07.2-.16.31-.22.33-.2.66-.38.99-.58.2-.13.41-.25.58-.44.23-.26.51-.46.78-.68.1-.08.21-.15.3-.24.09-.08.17-.16.25-.25.07-.07.13-.15.2-.22.09-.1.19-.2.28-.3.06-.07.11-.14.17-.21.07-.07.14-.14.2-.22.12-.18.23-.37.35-.54.24-.33.38-.71.49-1.09.08-.27,0-.55-.15-.79ZM27.05,9.25s-.03,0-.04,0c-.01-.07-.03-.14-.03-.22,0-.02.04-.04.06-.06.02.02.05.05.05.07,0,.07-.02.14-.04.2ZM28.1,9.09c-.08.13-.18.24-.21.4-.01.07-.09.14-.15.19-.03.02-.09,0-.14,0,0,0,0,0,0,0-.2-.06-.12-.19-.08-.31,0-.02.03-.04.05-.05.08-.04.14-.1.18-.19.11-.2.24-.39.36-.58.02.08.03.16.05.24.02.12,0,.22-.07.32ZM19.13,11.75s-.07.05-.1.06c0,0-.05-.06-.05-.07.01-.04.04-.08.08-.09.03,0,.07.02.1.04-.01.02-.02.04-.03.06ZM19.66,13.58c-.1.02-.21.04-.32.05-.03,0-.08-.01-.1-.04-.01,0,.01-.06.02-.09.01-.05.03-.11.04-.16.15-.03.31-.07.47-.1.06-.01.11.05.09.13-.02.11-.09.19-.21.21ZM7.99,9.01s.06-.07.08-.07c.2,0,.4.02.6.03.15,0,.31.02.46.03.23.02.47.04.7.07.09.01.18.06.21.17.02.07.08.13.13.2,0,.02-.01.03-.02.05-.09,0-.18.02-.26,0-.32-.08-.65-.12-.98-.13-.23-.01-.47-.03-.7-.05-.1,0-.25-.2-.22-.29ZM7.42,9.08c.09.03.2.02.28.07.08.04.15.12.2.2.06.09-.02.18-.11.18-.16-.02-.29-.03-.41-.05-.1-.02-.19-.13-.19-.22,0-.13.1-.22.23-.18ZM2.83,9.84c.2-.06.41-.11.61-.15.15-.03.3-.03.45-.07.11-.03.2-.09.32-.15.05.09.13.05.24.02.11-.04.24-.04.36-.04.17,0,.34,0,.51,0,.04,0,.08-.01.11-.04.04-.04.08-.1.07-.14,0-.04-.07-.1-.11-.11-.14-.02-.28-.01-.42-.01-.08,0-.16.01-.25.02-.08,0-.16.02-.26.03.02-.03.04-.05.06-.07.12-.08.25-.12.4-.13.18,0,.35-.06.53-.07.27,0,.54-.03.81.05.09.02.19,0,.27.02.08.01.17.04.22.09.13.13.27.25.3.44,0,.03.05.07.09.09.1.04.21.07.32.09.21.03.43.04.64.05.11,0,.15-.05.11-.16-.02-.05-.03-.12,0-.16.01-.02.09-.04.14-.03.2.06.4.05.6.07.2.02.39.09.58.12.25.04.5.08.74.11.34.05.68.09,1.02.14.22.04.44.09.67.13.04,0,.08.02.11.01.21-.02.38.07.56.14.11.05.24.07.36.09.28.05.56.09.84.14.12.02.23.07.35.1.08.02.15.04.23.06.24.04.49.08.73.12.06.01.13.03.16.07.07.08.15.11.26.09.03,0,.06,0,.1.01.3.06.6.13.9.19.15.03.3.08.44.12.03.01.05.06.08.11-.16.03-.18.08-.14.2.07.2.05.22-.15.19-.15-.03-.3-.08-.45-.12-.06-.01-.11-.03-.17-.04-.09-.03-.18-.07-.27-.1-.06-.02-.12-.03-.17-.04-.16-.03-.31-.06-.47-.1-.14-.03-.28-.07-.42-.1-.11-.03-.22-.06-.32-.08-.19-.05-.38-.09-.57-.15-.15-.05-.33-.02-.47-.14-.04-.04-.13,0-.2-.03-.14-.04-.26-.13-.36-.24-.11-.12-.19-.11-.31-.03-.07.05-.18.07-.26.06-.21-.03-.41-.08-.61-.12-.12-.03-.24-.06-.36-.09-.08-.02-.09-.08-.1-.15-.03-.12-.15-.19-.25-.15-.03.01-.06.03-.08.06-.08.11-.17.15-.31.13-.32-.05-.65-.08-.97-.12-.34-.04-.68-.06-1.01-.1-.2-.02-.39-.07-.59-.1-.13-.02-.26-.05-.4-.06-.12,0-.24,0-.36,0-.14,0-.29-.02-.44-.03-.17-.02-.34-.03-.52-.06-.1-.01-.21-.04-.31-.05-.05,0-.1,0-.15,0-.11.01-.22.05-.33.05-.23.01-.46,0-.69.01-.12,0-.24.04-.36.05-.3.03-.6.04-.89.07-.28.03-.55.09-.83.14-.09.01-.17,0-.28,0,.09-.12.21-.15.32-.18ZM17.09,14.88c-.17,0-.34-.01-.51-.03-.35-.03-.67-.17-1.01-.26-.35-.1-.71-.18-1.07-.27-.08-.02-.15-.05-.23-.07-.19-.05-.39-.09-.59-.14-.2-.05-.39-.12-.58-.16-.26-.06-.53-.1-.79-.15-.2-.04-.4-.11-.6-.16-.34-.08-.68-.16-1.02-.24-.1-.02-.2-.08-.3-.08-.19,0-.36-.08-.55-.1-.2-.02-.39-.07-.59-.1-.31-.04-.61-.08-.92-.12-.1-.01-.2-.04-.3-.05-.22-.03-.45-.02-.66-.09-.24-.08-.48-.04-.71-.12-.02,0-.04,0-.06,0-.4.04-.8-.05-1.21-.04-.03,0-.09-.02-.1-.04-.01-.03,0-.08.02-.12.05-.12.15-.11.23-.09.39.02.76,0,1.12.05.29.04.59.03.88.06.34.04.68.11,1.03.16.18.03.35.04.53.07.25.05.5.11.75.16.13.03.27.04.4.06.21.02.41.07.62.14.3.1.62.15.93.23.26.07.52.15.78.22.08.02.17.03.25.06.21.07.41.15.63.2.24.07.48.11.72.16.2.05.4.12.6.17.26.06.52.11.77.18.18.05.36.12.54.17.16.05.33.08.49.12.06.01.12.03.19.04.1.02.21.04.31.06.04,0,.06.05.09.07-.03.02-.06.06-.08.06ZM5.91,20.24c-.13-.01-.26-.02-.38-.04-.07-.01-.13-.05-.19-.08-.19-.1-.41-.11-.58-.25-.12-.09-.28-.14-.42-.21-.01,0-.03-.02-.04-.03,0-.01,0-.02,0-.03.06.01.13.02.19.04.13.05.28.04.4.14.07.06.19.06.28.09.24.08.47.16.71.24.02,0,.05.02.07.03.03.03.05.06.07.09-.03,0-.07.03-.1.03ZM6.64,20.46c-.06.03-.13.06-.16-.07.05,0,.11.02.16.02,0,.01,0,.03,0,.04ZM10.84,19.18c-.24-.05-.47-.12-.7-.19-.2-.06-.4-.12-.6-.2-.21-.08-.41-.19-.61-.29-.1-.05-.14-.16-.11-.28.04.02.08.04.12.06.27.12.54.24.82.34.33.12.67.23,1,.35.04.01.08,0,.11.02.04.02.07.05.1.08-.05.03-.1.11-.14.1ZM16.56,19.03c-.22.02-.44.05-.65.04-.31-.02-.62-.08-.92-.12-.2-.03-.4-.03-.59-.07-.21-.04-.42-.12-.62-.18-.02,0-.03-.02-.04-.03-.09-.19-.3-.2-.46-.28-.08-.04-.16-.07-.2-.15,0-.01,0-.02.01-.03.05.02.11.02.16.05.07.05.14.07.23.07.1,0,.2.04.3.06.16.04.31.07.47.11.25.05.51.11.77.15.33.05.66.09,1,.13.18.02.37.02.55.05.05,0,.11.05.12.09.01.07-.05.12-.12.12ZM45.65,14.51c.05.02.12.03.16.07.27.27.53.55.8.82.11.11.23.21.33.34.1.14.25.26.25.46,0,.07.04.12.12.11.03,0,.07,0,.09,0,.04.03.07.07.08.12,0,.02-.04.06-.07.08-.23.11-.52.06-.72-.12-.12-.1-.26-.18-.39-.26-.01-.04-.01-.08-.03-.11-.14-.27-.31-.53-.43-.81-.09-.21-.14-.44-.2-.66,0,0,.02-.02.03-.03ZM45.59,11.86c.03-.08.06-.17.07-.25.01-.14.09-.21.21-.15.26.11.52.23.77.36.15.08.15.23.15.37,0,.05.03.11.02.16,0,.06,0,.14-.05.17-.02.03-.11.02-.16,0-.24-.08-.47-.17-.7-.26-.08-.03-.17-.06-.25-.09-.09-.03-.12-.19-.07-.3ZM37.94,15.73c-.05.01-.11,0-.17,0-.1-.02-.2-.04-.29-.06-.12-.03-.17-.08-.18-.21,0-.04,0-.08,0-.12,0-.04,0-.07,0-.11h0s0-.09,0-.14c0-.11.02-.15.13-.13.13.02.27.04.4.07.04.01.09.06.1.1.04.17.07.34.09.51,0,.03-.04.08-.07.09ZM22,13.95c.05-.04.11-.07.17-.11.08.03.15.06.22.08.14.04.28.08.42.12.07.02.14.04.1.15-.07.2-.1.22-.21.17-.14-.05-.28-.09-.42-.14-.08-.03-.17-.05-.25-.09-.12-.05-.13-.12-.02-.19ZM21.65,14.68c-.15-.05-.31-.1-.45-.17-.23-.11-.45-.24-.68-.36-.05-.03-.1-.04-.16-.07-.15-.07-.26-.19-.36-.31-.02-.02-.01-.06-.02-.1,0,0,.02-.01.03-.02.08.04.17.08.25.13.4.22.83.4,1.26.56.32.12.64.24.96.37.02,0,.04,0,.06.02.03.02.06.05.1.08-.04.03-.08.07-.13.08-.04,0-.08-.01-.13-.02-.14-.03-.29-.05-.44-.09-.1-.02-.2-.06-.3-.1ZM22.27,17.24c-.25-.05-.51-.11-.76-.18-.26-.07-.52-.17-.77-.24-.1-.03-.22-.03-.32-.07-.08-.03-.14-.09-.22-.14-.04-.02-.07-.06-.11-.07-.21-.06-.43-.11-.65-.18-.28-.09-.57-.19-.84-.3-.1-.04-.24-.05-.28-.19.1-.07.19-.11.31-.07.14.04.28.06.39.17.06.06.19.05.28.08.15.05.3.12.44.18,0,0,.02.01.03.01.19.01.35.11.53.14.07.01.12.05.19.07.2.06.39.1.59.16.1.03.2.08.29.12,0,0,.01,0,.02,0,.3,0,.58.12.86.21.12.04.23.1.27.24.01.04.04.07.06.09-.09,0-.21,0-.33-.03ZM26.1,16.43s-.06-.02-.08-.04c-.05-.06-.11-.11-.15-.18-.02-.03,0-.08,0-.12.04,0,.08-.01.11,0,.08.07.14.14.21.22-.04.05-.05.09-.08.11ZM26.84,17.23c.11-.13.26-.19.43-.28-.04.13-.31.3-.43.28ZM27.28,15.71s-.08.05-.13.06c-.36.05-.72.1-1.08.15-.01,0-.03,0-.04,0-.16,0-.31-.01-.47-.02-.22-.01-.45-.02-.67-.04-.34-.03-.68-.06-1.02-.11-.2-.03-.39-.08-.58-.12-.07-.02-.15-.02-.22-.03-.08-.01-.17-.03-.25-.05-.03,0-.06-.03-.09-.03-.2-.01-.36-.13-.55-.17-.03,0-.08-.05-.07-.07,0-.03.04-.07.07-.09.04-.03.09-.06.13-.09.04-.02.08-.04.11-.05.17.05.32.11.48.15.26.07.52.14.78.19.36.07.72.12,1.08.18.13.02.25.05.38.07.04,0,.09-.01.14-.02.1,0,.21,0,.31,0,.05,0,.1,0,.15,0,.22,0,.44.02.66.02.1,0,.19-.03.29-.04.11-.01.22-.02.33-.04.07,0,.13-.03.2-.02.04,0,.1.03.11.06.01.04,0,.1-.04.13ZM28.47,14.6c-.05,0-.11.01-.16,0-.18-.04-.35-.11-.54-.14-.25-.05-.47-.17-.73-.19-.22-.02-.44-.13-.66-.19-.1-.03-.21-.06-.32-.09-.14-.05-.29-.09-.43-.14-.22-.09-.43-.19-.64-.29-.08-.04-.14-.1-.21-.15,0-.01,0-.02.01-.04.08.02.17.03.25.05.36.08.72.16,1.08.25.27.06.54.13.81.2.23.05.47.09.7.15.21.06.44.09.58.3.07.1.18.17.27.26,0,.02-.01.03-.02.05ZM29.85,10.7c-.28-.11-.57-.23-.85-.33-.18-.06-.35-.15-.48-.29-.06-.06-.12-.11-.17-.17-.02-.03,0-.08-.01-.12.04,0,.09,0,.11.02.16.17.38.22.59.31.25.1.5.18.75.27.27.1.53.2.79.31.04.02.06.07.1.1-.04.02-.09.04-.14.05-.01,0-.03,0-.04,0-.23,0-.44-.07-.64-.16ZM33.42,11.68c-.22.02-.45.05-.67.05-.24,0-.47,0-.71-.02-.14,0-.29-.07-.43-.05-.29.02-.55-.09-.83-.13-.11-.01-.27-.02-.3-.18-.01-.06,0-.13.02-.18,0-.01.09,0,.13,0,.23.03.45.07.68.1.35.05.69.11,1.04.16.26.04.52.06.79.09.13.01.26.03.39.04,0,.02.01.03.02.05-.04.03-.08.07-.13.07ZM33.67,10.06c-.08-.05-.16-.1-.24-.15-.08-.05-.17-.11-.25-.17-.17-.11-.35-.22-.47-.38,0,0,0-.02.01-.03.13.05.25.1.38.14.22.07.39.21.57.35.21.15.42.3.62.45.07.05.11.13.16.2.01.02,0,.06,0,.09-.03,0-.08,0-.1-.01-.11-.08-.21-.17-.32-.25-.12-.08-.24-.16-.36-.24ZM34.6,10.96c0,.08-.01.16-.02.23-.02.13-.11.2-.21.25-.03.01-.1-.02-.12-.05-.04-.07-.06-.15-.08-.23,0-.02,0-.05-.01-.07-.05-.18-.05-.18.1-.28.07-.04.14-.08.22-.11.02,0,.07.02.08.04.03.07.04.14.06.21,0,0,0,0-.01,0ZM34.66,9.25s-.05.03-.08.03c-.22-.05-.44-.1-.63-.25-.1-.08-.22-.15-.33-.22-.02-.02-.05-.03-.07-.05-.02-.03-.04-.07-.04-.09,0-.02.06-.03.1-.05.08.03.16.06.23.09.18.09.37.17.55.27.09.05.17.12.24.19.02.01.02.06.01.08ZM43.13,3.16c-.21.1-.38.26-.58.37-.25.14-.5.27-.76.41-.19.1-.39.2-.58.3-.2.1-.41.19-.61.29-.27.13-.53.28-.8.41-.13.07-.27.12-.41.18-.14.07-.28.15-.42.22-.14.07-.28.13-.42.19-.17.08-.33.16-.52.25.16.07.12.2.13.31,0,.02-.05.06-.08.09-.03-.04-.09-.07-.1-.11,0-.08.01-.15.02-.24,0,0-.03,0-.04,0-.26.13-.52.26-.79.39-.08.04-.17.07-.25.11-.09.04-.17.1-.26.15-.21.1-.42.2-.63.31-.28.14-.55.29-.83.43-.16.08-.32.13-.48.21-.31.15-.62.32-.94.47-.14.06-.27.12-.39.21-.16.11-.36.16-.54.24-.09.04-.18.1-.27.14-.14.07-.28.14-.42.2-.11.05-.14,0-.16-.12-.03-.24.04-.24.25-.35.22-.11.43-.21.65-.32.1-.05.21-.09.31-.14.21-.09.41-.19.61-.29.06-.03.11-.08.17-.11.07-.04.15-.07.23-.11.27-.12.53-.25.79-.37.29-.14.57-.27.86-.41.23-.11.45-.23.67-.33.23-.11.46-.2.69-.31.29-.14.57-.29.86-.43.15-.07.31-.14.47-.21.27-.13.54-.27.82-.39.2-.08.37-.21.57-.28.41-.16.8-.36,1.2-.55.26-.12.52-.25.77-.37.13-.06.25-.13.38-.19.18-.08.36-.16.54-.24.07-.03.14-.08.22-.12.03-.02.07-.02.11-.03,0,.01.01.03.02.04-.03.03-.05.07-.08.09ZM43.25,3.02s-.01-.02-.02-.03c.1-.05.21-.1.31-.16,0,.01.01.02.02.03-.09.07-.16.19-.31.16Z"/>
      <path class="cls-1" d="M32.84,19.66s-.07-.02-.1-.02c-.14,0-.28,0-.42,0-.35.02-.71-.04-1.06-.02-.35.02-.7-.03-1.04-.06-.39-.04-.78-.06-1.16-.08,0,0,0,0,0,.01-.07,0-.14.01-.2.01-.23-.01-.41.07-.52.27-.08.13-.11.25.06.35.12.07.26.12.39.15.11.03.17.08.2.18.01.03.03.06.04.09.1.24.26.45.45.64.08.08.16.18.26.22.32.11.64.22.98.22.15,0,.22-.05.26-.18,0-.02.02-.04.04-.04.01,0,.04.02.05.03.07.09.17.11.23.02.08-.12.24-.19.25-.37.01-.18.06-.37.08-.55,0-.08-.02-.16-.03-.24-.01-.09.02-.13.11-.14.25-.04.5-.06.74-.16.14-.06.3-.08.41-.19.05-.05.05-.08,0-.1ZM30.88,21.3c-.08.02-.17.04-.25.03-.15-.01-.3-.04-.45-.08-.1-.03-.21-.07-.28-.14-.25-.23-.46-.5-.6-.82-.09-.2-.17-.41-.26-.63.2-.03.25.11.32.2.04.05.07.1.12.14.19.19.38.38.58.56.1.09.22.17.33.26.16.12.33.24.49.37.06.05.06.1,0,.12ZM31.09,20.25c-.16-.02-.32-.05-.48-.08-.14-.03-.28-.07-.42-.11-.02,0-.04-.02-.06-.03,0-.01,0-.03.01-.04.35.07.7.14,1.05.2,0,.01,0,.02,0,.04-.04.01-.08.04-.11.03Z"/>
      <path class="cls-1" d="M3.01,18.48c-.09-.05-.18-.12-.28-.16-.13-.05-.27.07-.22.2.04.11.11.23.19.31.14.13.3.23.45.34.07.05.14.05.2-.03.03-.04.07-.07.1-.11.06-.09.13-.18.17-.27.06-.16.1-.33.16-.49.05-.13.1-.25.04-.39-.04-.09-.08-.18-.12-.27-.03-.08-.06-.17-.1-.25-.02-.04-.04-.09-.06-.09-.04,0-.09.02-.11.06-.03.04-.03.09-.04.14-.01.04-.01.08-.03.11-.06.1-.17.12-.26.17-.07.03-.17.07-.13.16.02.05.12.07.19.11,0,0,0,0,.01,0,.08-.01.11.04.13.1.01.06.01.12.02.17,0,.21-.12.28-.29.2Z"/>
      <path class="cls-1" d="M11.82,16.71s-.07.08-.01.12c.07.05.14.09.24.05.12-.05.24-.1.36-.14.17-.06.35-.1.52-.16.12-.05.24-.12.35-.18.03-.02.05-.05.08-.07-.03-.01-.07-.04-.1-.03-.16.03-.33.05-.48.11-.22.09-.42.09-.63,0-.12-.05-.25-.08-.37-.12-.23-.07-.46-.13-.69-.21-.17-.06-.35-.12-.52-.2-.16-.08-.34-.08-.51-.13-.06-.02-.12-.04-.16-.06-.08,0-.15.02-.21.03-.07,0-.07.05-.04.1.02.03.05.06.08.07.17.06.35.12.52.17.09.03.19.04.29.07.2.06.4.13.6.18.27.07.55.14.83.21.02,0,.05.03.07.04-.02.02-.03.05-.06.07-.04.03-.1.05-.14.07Z"/>
      <path class="cls-1" d="M7.83,10.69c-.01-.17-.05-.33-.16-.4-.17,0-.3,0-.43,0-.09,0-.18-.02-.26-.02-.17,0-.33.21-.27.38.05.15.08.29.07.45,0,.2,0,.2.2.26,0,0,.02.01.03.02.13.02.27.06.4.06.16,0,.23.06.23.21,0,.05,0,.1,0,.14.01.04.05.08.07.12.03-.03.08-.06.1-.1.08-.16,0-.33.03-.51.04-.19,0-.4-.01-.6ZM7.55,11.12c-.08.11-.2.12-.33.05-.15-.08-.34-.3-.28-.51.02-.08.16-.21.25-.21.13,0,.27-.02.35.13.04.09.07.19.1.29-.03.1-.04.19-.09.26Z"/>
      <path class="cls-1" d="M23.82,12.2c.06-.02.1-.03.14-.05.17-.08.33-.19.51-.25.25-.08.44-.28.71-.32.13-.02.26-.12.38-.18.25-.13.5-.26.75-.38.29-.14.58-.27.87-.41.04-.02.06-.07.09-.1-.05-.02-.09-.05-.14-.06-.17,0-.29.11-.44.18-.21.11-.41.21-.62.32-.15.07-.3.13-.44.21-.19.09-.37.19-.56.29-.12.06-.24.1-.36.15-.3.13-.57.32-.9.4-.04.01-.09.08-.09.12,0,.02.07.06.1.09Z"/>
      <path class="cls-1" d="M19.44,11.34c.05-.02.1-.05.15-.08.02,0,.02-.03.04-.04.08-.06.16-.12.25-.16.04-.02.1.01.15.02-.01.05-.02.1-.05.14-.04.05-.1.07-.15.12-.02.02-.04.06-.05.09.03,0,.07.01.1,0,.07-.02.14-.06.21-.08.18-.04.37-.12.56-.06.08.03.17.05.25.07.15.04.3.09.48.14.03-.03.09-.06.1-.1,0-.04-.03-.11-.07-.12-.23-.06-.45-.11-.68-.17-.09-.02-.19-.04-.28-.07-.09-.02-.18-.06-.26-.08-.19-.06-.37-.02-.53.06-.06.03-.11.08-.15.13-.04.04-.07.09-.1.14,0,.01.04.07.05.07Z"/>
      <path class="cls-1" d="M29.94,7.76s.04.1.08.14c.17.18.13.42.15.63.01.1.02.22.02.33,0,.08.06.08.12.06.07-.03.15-.25.12-.33-.05-.16-.09-.31-.14-.47-.02-.08-.05-.16-.07-.25-.01-.05-.02-.1-.02-.15.05,0,.11-.02.16,0,.11.02.21.06.31.08.04,0,.08,0,.12,0,0-.02,0-.04.01-.06-.13-.06-.27-.12-.4-.17-.14-.05-.28-.11-.43-.14-.07-.02-.16-.01-.24,0-.04.01-.06.07-.1.11.04.03.08.06.12.09.06.04.13.08.19.13Z"/>
      <path class="cls-1" d="M22.04,11.61c.1.03.21.04.31.07.2.07.39.14.58.21.07.02.1.06.08.13-.04.18.06.32.11.47,0,.02.06.05.1.04.03,0,.06-.04.07-.07,0-.04,0-.09,0-.13-.03-.11-.07-.22-.11-.34.08,0,.15,0,.22,0,.03,0,.07-.03.09-.05,0-.01-.02-.07-.04-.08-.17-.07-.35-.14-.52-.2-.19-.07-.39-.13-.59-.18-.13-.03-.26-.05-.39-.06-.02,0-.05.03-.08.04.02.02.03.06.05.07.04.03.09.06.14.08Z"/>
      <path class="cls-1" d="M32.58,16.7c.05-.1.16-.09.21,0,.02.04.03.08.06.12.04.05.09.08.11.11.11,0,.13-.04.11-.12-.07-.24-.14-.48-.22-.72-.02-.06-.05-.12-.1-.17-.05-.06-.15-.03-.17.04-.07.21-.14.42-.19.64-.01.04.03.11.07.14.05.04.09.01.13-.05Z"/>
      <path class="cls-1" d="M33.31,17.03c.05,0,.11-.01.15-.04.1-.07.17-.06.22.05.02.04.02.09.06.11.05.04.12.08.17.07.08-.02.04-.1.02-.15-.07-.21-.15-.43-.22-.65-.04-.14-.1-.22-.21-.23-.06,0-.08.08-.1.15-.04.17-.09.34-.13.51,0,.04-.02.08-.02.11,0,.03.04.07.05.07Z"/>
      <path class="cls-1" d="M31.79,16.58c.09.03.16-.02.19-.1.02-.05.06-.11.1-.12.2-.03.23-.07.22-.27,0-.04,0-.07,0-.11-.02-.14-.08-.21-.19-.24-.09-.03-.19-.06-.28-.1-.06-.03-.1-.02-.11.05,0,.08,0,.16,0,.24.03.18.06.35,0,.53-.02.07,0,.1.06.12ZM31.98,15.89c.05.04.11.08.14.13.01.03-.01.1-.09.1-.1,0-.11-.06-.11-.17.01-.01.06-.07.07-.07Z"/>
      <path class="cls-1" d="M34.65,16.82s.01-.07,0-.11c-.04-.12-.13-.2-.25-.23-.08-.02-.18,0-.24.04-.07.05-.05.14-.02.23.03.09.04.19.03.28-.02.23.13.43.36.46.06,0,.14-.04.18-.08.06-.08-.01-.15-.07-.19-.03-.02-.09,0-.13,0,0,0-.01.02-.02.03-.06-.08-.14-.15-.09-.27.02-.05,0-.11,0-.17.06.01.11.03.17.03.03,0,.09,0,.1-.02Z"/>
      <path class="cls-1" d="M3.48,10.62c-.05-.09-.13-.1-.19-.02-.11.13-.14.29-.16.45,0,.05,0,.1.01.14.02.09.13.14.21.11.06-.02.12-.02.18-.03.07,0,.14-.02.2-.03-.02-.07-.03-.13-.05-.2,0-.02-.02-.03-.02-.05-.06-.13-.11-.26-.18-.39Z"/>
      <path class="cls-1" d="M5.02,10.61s.07-.01.11-.02c.07-.02.08-.07.04-.12-.05-.08-.21-.13-.29-.09-.07.03-.13.07-.2.11-.09.05-.12.13-.08.23.02.05.02.1.04.15.02.08.02.18.06.24.13.15.37.11.47-.07,0-.02.02-.03.02-.05,0-.04,0-.09-.01-.11-.03-.02-.09-.02-.11,0-.05.05-.11.05-.14,0-.04-.05-.07-.12-.07-.18,0-.05.03-.14.15-.11Z"/>
      <path class="cls-1" d="M2.49,10.99c.02.06.02.12.04.18.01.04.02.1.05.13.03.03.08.06.13.06.03,0,.07-.04.1-.07.04-.05.08-.1.12-.16.05-.08.14-.16.15-.24.02-.18-.06-.24-.28-.26-.16-.02-.37.15-.3.37Z"/>
      <path class="cls-1" d="M9.2,15.55c-.18-.01-.36-.03-.53.06-.13.07-.2.21-.16.3.05.11.16.14.3.09.08-.03.17-.05.25-.08.04-.01.1-.05.1-.08.02-.12.1-.12.19-.11.02,0,.04,0,.05,0,.04-.02.08-.04.12-.06-.04-.03-.07-.06-.11-.07-.07-.02-.14-.05-.22-.05Z"/>
      <path class="cls-1" d="M10.68,16.36s-.07-.06-.11-.09c-.02.05-.06.1-.06.14,0,.09.02.19.03.28.02.23.03.45.05.68,0,.04.05.09.09.11.03,0,.1-.04.11-.08.04-.11.05-.23.07-.35,0,0-.02,0-.03,0,.05-.25-.08-.46-.15-.69Z"/>
      <path class="cls-1" d="M4.12,10.5c-.07.02-.15.06-.18.12-.07.16-.1.34-.05.52.01.04.06.1.09.1.04,0,.1-.04.13-.07.02-.02.02-.06.03-.11.04.04.08.06.11.09.05.04.11.07.15.02.03-.03.03-.1.02-.14-.06-.15-.14-.3-.21-.45-.02-.03-.08-.08-.1-.07Z"/>
      <path class="cls-1" d="M27.72,6.98c.05,0,.1-.03.15-.03.09,0,.18,0,.27,0,.06,0,.11,0,.17.01.02,0,.05.04.05.06,0,.02-.02.06-.04.07-.06.03-.13.04-.19.06-.05.02-.09.05-.14.08,0,.01,0,.03.01.04.03,0,.07.02.1.02.29-.07.58-.12.88-.1.02,0,.06-.01.07-.03,0-.02,0-.06-.02-.07-.04-.03-.09-.07-.15-.08-.1-.04-.21-.07-.32-.09-.16-.03-.33-.06-.49-.06-.12,0-.24.03-.35.05-.02,0-.05.01-.06.03,0,0,0,.04,0,.05.02.01.05.02.08.02Z"/>
      <path class="cls-1" d="M11.08,17.9c.09.07.18.12.28.17.07.03.14.04.21.06.17.04.34.08.51.13.04-.03.08-.05.11-.08-.03-.03-.04-.09-.08-.1-.32-.11-.64-.22-.97-.33-.03-.01-.08.01-.12.02.01.04.01.11.04.13Z"/>
      <path class="cls-1" d="M30.69,9.43c-.03.07.02.11.08.14.24.1.47.19.71.29.06.02.12.03.2.05.05-.04.12-.08.17-.13.05-.05.02-.08-.04-.09-.32-.09-.64-.19-.96-.28-.06-.02-.12-.05-.16.03Z"/>
      <path class="cls-1" d="M5.6,17.7s-.11-.11-.16-.1c-.09,0-.06.09-.05.16.03.16.06.31.08.47,0,.08-.02.17-.02.25,0,.07.07.17.12.15.05-.02.11-.06.12-.1.02-.11,0-.22,0-.34.01,0,.02,0,.03,0-.04-.16-.07-.33-.12-.48Z"/>
      <path class="cls-1" d="M9.08,17.32s-.09.05-.13.07c.02.04.05.09.08.12.02.02.05.02.08.03.21.08.41.17.62.25.03.01.06.01.1.03.04-.02.09-.04.12-.09.01-.02-.04-.08-.07-.12-.02-.03-.06-.05-.09-.06-.15-.05-.29-.09-.44-.14-.09-.03-.18-.09-.27-.11Z"/>
      <path class="cls-1" d="M22.58,13.31c.04.06.08.12.12.17,0,0,.01,0,.02,0,.15.06.31.11.46.17.11.04.22.07.34.1.08-.03.16-.05.23-.08.02,0,.03-.05.02-.07,0-.01-.03-.03-.06-.03-.32-.06-.63-.16-.94-.27-.06-.02-.13,0-.2,0Z"/>
      <path class="cls-1" d="M7.12,19.43s.07-.05.12-.08c-.04-.04-.07-.08-.11-.11-.02-.02-.05-.02-.08-.03-.27-.05-.55-.09-.79-.23-.03-.02-.09.02-.14.03.02.04.02.1.05.12.16.15.38.17.58.23.11.03.22.04.37.06Z"/>
      <path class="cls-1" d="M28.88,8.79s.02.08.04.11c.03.03.08.04.11.06.11.05.22.11.33.15.12.05.25.09.39.14.03-.02.08-.05.08-.07,0-.04-.01-.11-.04-.13-.08-.05-.18-.07-.27-.1-.18-.07-.35-.13-.53-.19-.03-.01-.07.02-.11.03Z"/>
      <path class="cls-1" d="M13.09,11.59s-.06.04-.07.07c-.02.05-.01.11-.02.17-.04.22-.08.45-.11.67,0,.03.02.06.04.09.02-.02.05-.03.07-.05.17-.22.17-.49.22-.75-.01-.05-.01-.11-.03-.15-.02-.03-.06-.06-.09-.06Z"/>
      <path class="cls-1" d="M18.75,14.47c.08-.06.17-.1.21-.16.08-.12.08-.13.22-.08.02,0,.05,0,.07-.01,0-.02-.01-.05-.03-.06-.06-.04-.11-.09-.18-.12-.17-.1-.17-.1-.32.04-.03.03-.07.06-.1.1-.03.04-.07.11-.05.14.03.06.1.1.17.16Z"/>
      <path class="cls-1" d="M20.64,12.86s-.1.02-.16.03c.03.04.05.07.08.11.02.02.04.03.07.04.11.04.21.07.32.1.21.06.42.11.62.17.04-.03.06-.04.09-.06-.02-.03-.04-.07-.06-.07-.11-.03-.23-.05-.34-.08-.21-.07-.42-.16-.63-.23Z"/>
      <path class="cls-1" d="M14.91,12.46c-.02.06,0,.13-.03.19-.06.21-.12.41-.17.61,0,.03,0,.07,0,.11.03-.02.08-.03.1-.05.14-.21.23-.44.25-.7,0-.05,0-.11-.02-.16,0-.03-.03-.06-.05-.09-.03.03-.07.06-.08.1Z"/>
      <path class="cls-1" d="M21.96,11.85c0,.07-.02.13-.02.2,0,0,0,.01,0,.02.03.11.06.23.09.34,0,.03,0,.08.03.1.04.04.09.07.13.11.03-.05.06-.1.09-.16-.06-.17-.12-.33-.19-.49-.02-.05-.09-.08-.13-.12Z"/>
      <path class="cls-1" d="M16.57,12.06s-.12.07-.14.13c-.03.07-.04.16-.03.24,0,.04.04.11.06.11.05,0,.11-.03.13-.07.03-.07.04-.15.06-.22,0,0-.01,0-.02,0,0-.01,0-.02,0-.03,0-.06.02-.15-.07-.15Z"/>
      <path class="cls-1" d="M31.32,8.89s-.02,0-.03.01c.02.03.03.05.04.08.03-.02.08-.04.08-.07,0-.08.02-.17,0-.25-.04-.12-.1-.23-.15-.34-.01-.02-.04-.03-.06-.04-.01.02-.04.05-.03.07,0,.04.02.08.03.12.04.14.08.28.12.42Z"/>
      <path class="cls-1" d="M19.03,10.91s-.11.09-.13.15c-.04.14.07.22.27.18,0-.07,0-.14-.02-.19-.02-.05-.08-.09-.12-.14Z"/>
      <path class="cls-1" d="M22.26,13.42s.08-.05.15-.09c-.05-.05-.08-.07-.11-.1-.03.04-.07.08-.1.12,0,0,.05.06.06.06Z"/>
      <path class="cls-1" d="M7.43,16.76s.06-.04.11-.08c-.05-.03-.08-.07-.1-.06-.04.01-.08.04-.11.06.03.03.06.07.1.08Z"/>
      <path class="cls-1" d="M5.88,9.48c.08.03.16.04.22-.05.02-.03.09-.05.1-.04.09.11.21.12.34.15.07.02.14.04.19-.02.03-.04.05-.12.03-.15-.03-.06-.09-.11-.15-.13-.09-.03-.2-.04-.3-.06-.04,0-.09-.02-.11,0-.09.06-.17.03-.26.01-.04,0-.08-.01-.12-.02-.08,0-.11.03-.12.11-.01.12,0,.15.19.21Z"/>
    </g>
  </g>
</svg>