<?xml version="1.0" encoding="UTF-8"?>
<svg id="Layer_2" xmlns="http://www.w3.org/2000/svg" viewBox="0 0 45.35 30.07">
  <defs>
    <style>
      .cls-1 {
        fill: #2c489e;
      }
    </style>
  </defs>
  <g id="Layer_1-2" data-name="Layer_1">
    <g>
      <path class="cls-1" d="M1.15,1.28h0s.01.02,0,0Z"/>
      <g>
        <path class="cls-1" d="M45.31,21.2c0-.19-.04-.75-.05-.95-.05-1.8-.02-3.97-.12-6.03-.11-2.4-.06-4.92-.14-6.84-.05-1.16.04-2.38-.07-3.49-.09-.88-.04-1.8-.12-2.7-.02-.27-.02-.52-.12-.63-.27-.32-1.12-.18-1.68-.21-1.57-.07-4.23-.25-5.53-.34.06.08-36.22.97-36.33,1.08-.15-.02-.05.15-.02.2.07.03,36.15-.84,36.15-.79-.11.42,0,1.02.02,1.7.05,1.31-.03,2.68,0,3.75,0,.03.04.02.05.05-.09.1.07.34-.05.46.09.12-.04.42-.02.58,0-.06.08,0,.07.02-.01.43,0,.93.02,1.3-.04-.02-.03-.09-.12-.07-.02.09.05.11.09.14.04.45.03,1.02,0,1.42,0,.03.05.04.05.07-.07.83.08,1.64.05,2.49-.15-.01-.01.11-.14.12.04.11.09.14.14.19-.03.05-.06-.03-.07.02.16.24.06.49.07.82.02.74,0,1.35.07,1.98-.11.18,0,.46.02.65.03.24-.08.48-.05.65,0-.02-.04-.03-.05,0,.18.06-.01.24.07.3-.01,0-.09-.06-.09,0,.11.02-.04.16.09.16-.07.02-.09.04-.12.05.05.06.04.11.12.19-.09.04-.05-.06-.09-.07-.02.1,0,.06.02.14-.04,0-.06-.03-.07,0,.13.04.04.2.14.14-.02.14-.01.21-.07.23.17.08-.02.24.07.23-.06.03-.1.08-.09.16,0-.03.03-.04.05-.05,0,.03-.1.12,0,.12.06-.09-.06.02,0-.07.04.02.1.13.07.14-.03,0-.07-.1-.07,0,.03,0-.03.17.09.26-.06.03-.14-.04-.14,0,.02.04.11,0,.09.07-.03-.04-.03.23.05.26-.09.05.02.12.02.21-.03,0-.04-.02-.05-.03.03.17-.07.41.05.54-.17.12,0,.23-.02.37,0-.03.03-.04.05-.05-.04.04,0,.06,0,.12-.07,0-.04.19-.04.27,0-.01,0-.02.02-.02,0,.11-.02.06.02.09-.04.02-.02.07-.07.02-.04.08.08.01.07.07-.05,0-.03.07-.07.07.02-.05-.02-.16-.05-.09.02.01.04.1-.02.05,0,.09.09.08.12.09-.04,0-.02.08-.07.07-.02-.04-.02-.09-.07-.05,0,.08.08,0,.02.09.04,0,.05-.03.09-.02-.11.08.05.1.05.21-.11.03-.09-.07-.14-.09.08.24.18.21.07.49.05,0,.05-.03.07-.05.01.07-.1.13-.05.16,0-.03.04-.06.05-.02-.11.15.07.3,0,.44-.05-.02-.13.04-.07.05.04-.05,0,0,0,.05,0,.08.06-.08.07,0,0,.03.01.05.02.07-.04.02-.14-.04-.09.05.03-.06.02.11.07.09-.12.04,0-.02-.09-.02-.02.09.06.11.07.23-.05-.05-.05,0-.07.05.04,0,.06.02.07.05-.13,0-.03.25-.02.28-.03,0-.04-.03-.05,0,.01.03.09.11.05.12,0-.03-.02-.04-.05-.05.08.08-.02.2.07.26-.12-.01,0,.08-.02.16-.05.19.09.47.02.63-.03,0-.04-.03-.05,0,.13.04,0,.21.07.23-.03,0-.01.03,0,.05-.03.01-.06-.09-.07-.02.02.17.05.29.16.53-.08.01-.04.07-.09,0-.07.15.06.3-.05.37.03,0,.07,0,.07.02-.09-.02.03.13-.07.14.04,0,.08.02.09.05-.01.09-.06.13,0,.21-.05.04-.09.06-.12.07.05.04.03,0,.09,0-.04.04.01.04,0,.12-.1-.05-.14.15-.09.09.02-.02,0-.09.07-.07.04.05-.05.23.05.21-.15.1,0,.25-.05.46-.04-.04-.03.13-.02.28,0-.02,0-.05.02-.05.14.25,0,.47-.19.53-.01.16-.49.25-.51.16-.08.04-.2.04-.23.05-.29.03-.56-.02-.91-.02-.08,0-.24,0-.4,0-.21-.01-.48-.03-.79-.04-.03-.02-.05-.05-.08-.05.01,0-.03.03-.06.04-.01,0-.03,0-.04,0-.24-.04-.41-.12-.53-.06.04,0,.11-.02.09.04,0,0-.01,0-.02,0-.03-.01-.06-.01-.09,0-6.71-.34-26.96-1.22-27.97-1.27-.49-.04-3.82-.09-4.64-.18-.07.24-.15.41-.09.58.11-.02,2.85.08,2.87.15-.11.43-.44,1-.42,1.58.43-.04.83-.18,1.23-.3.71-.21,1.41-.48,2.12-.7.82-.25,1.67-.42,2.51-.67.08-.02,16.38.81,24.39,1.13.06.05.12.11.18.16,0,.03-.03.04,0,.05.06-.03-.03-.09.02-.09.15.08.22.16.35.21.09-.09.44.16.42.3,0-.03.04-.02.07-.02.13.35.22.72.37.98-.06.02.04.1-.02.14.04,0,.06-.03.07,0-.03.07.03.12-.09.16.07,0,.09.07.14.02,0,.13.08.18.09.3-.07.01-.12.05-.12.14.18.04.13-.15.28-.14.02.05-.07.07.02.07,1.29-.72,2.5-1.3,3.89-2,.9-.46,1.93-.97,2.75-1.3.27-.11.23-.46.09-.67-.69.29-1.33.63-2.02.91-.25.16-.58.36-.91.37.74-.42,1.55-.85,2.33-1.21.88-.41,1.83-.89,2.68-1.26.27-.11.77-.21.82-.47.13-.65.08-2.26.05-3.16ZM37.33.55c.09-.03-.04.19.05.23-.1.05-.04-.17-.05-.23ZM38.61,27.22c-.21.11-.58.17-.77.33.13-.24.63-.31.91-.49.05.06-.08.13-.14.16Z"/>
        <path class="cls-1" d="M37.21,27.08c.01.06,0,.14.07.14,0-.08-.04-.1-.07-.14Z"/>
        <path class="cls-1" d="M1.58,25.36c1.32,0,2.91.06,4.21.09,2.48.06,5.16.23,7.56.3,1.46.05,3.12.15,4.61.21,3.02.12,6.24.29,9.17.4.43.01.86-.01,1.28.02.94.08,2.05.13,3.07.16,1.55.05,3.02.13,4.7.23.29.02.77.09.84-.09.13-.38-.69-.16-.91-.32.28-.01.64.07.91,0-.04-3.19-.19-6.34-.19-9.61,0-.45.05-.93-.07-1.33.08-1.16-.02-2.39-.02-3.58,0-3.46-.15-7.1-.21-10.66-4.7.06-9.35.19-13.96.3-1.57.04-3.16.09-4.72.09-3.11,0-6.16.19-9.15.21-2.71.02-5.27.12-7.52.14-.38,0-.8-.06-1.19.07.08,4.47.24,9.01.28,13.1.02.59.04,1.28.05,2.02,0,.71.05,1.14,0,1.63-.04-.05,0,0,0,.05.04.32.06.69.05,1.12,0,.1.05.26-.05.3.09.2.08.45.07.72,0,.23.04.42-.07.63.13.11.07.34.07.51,0,.06.02.15.02.23,0,.05.03.28-.05.21.04.12.08.24,0,.35.11-.1.05.19.05.23,0,.27.02.3.02.44.03.56,0,1-.02,1.35.01-.05.05-.11.05-.02.08.06-.13.02-.05.12.09-.12,0,.07,0,.09,0,.07.02.07.03.07,0,0-.01,0-.03.03.3.22.74.18,1.16.19ZM1.12,3.86h.07c-.03.09.04.15-.05.16.03-.07.02-.09-.02-.16ZM1.23,5.25c-.11-.05-.01-.28-.02-.37.07.12-.03.25.02.37ZM1.21,5.3c.08.01-.05.11.02.12-.06.06-.09-.1-.02-.12ZM1.28,6.95c-.05-.1-.09-.29,0-.33-.03.11,0,.15,0,.33ZM1.28,7.37c-.08,0-.03-.12-.07-.16.04.04.09.07.07.16ZM7.52,25.2c.08-.04.12,0,.23-.02,0,.08-.19.05-.23.02ZM8.87,25.27c-.06,0-.05-.04-.12-.02.06-.02.1-.02.14-.02-.02,0-.02.03-.02.05ZM8.89,25.22c.06,0,.12.02.23.02-.02.03-.24.06-.23-.02ZM9.17,25.27s.26-.07.33,0c.07.03.02-.07.09-.05-.01.06.1.04.12.02.03,0,.02.05.05.05-.17.01-.52-.02-.58-.02ZM24.48,25.87c-1.22.08-2.48-.1-3.75-.12-1.27-.01-2.56-.08-3.79-.14-1.78-.09-3.63-.18-5.4-.26-.56-.03-1.14.05-1.7-.12.44.05.91-.06,1.49-.05.55.01,1.21.13,1.75.16,1.16.07,2.39.09,3.49.12.04,0,.08.02.05.02,1.2.04,2.95.13,4.44.21,2.32.13,4.7.1,6.87.3-1.06,0-2.46.02-3.44-.14ZM27.95,26.04c.16-.05.28-.01.44,0-.1.04-.34.04-.44,0ZM29.04,21.01c0-.13-.08-.21-.19-.16.05-.12-.03.01-.02-.12-.03,0-.02.04-.02.07-.02-.05-.08-.11-.09-.02-.04-.05-.06-.11-.12-.14,0,.2.21.24.28.44-.16-.19-.39-.31-.56-.49.41.01.96.01,1.47.05.03.07-.04.06-.05.09.09,0,.06-.14.21-.09.09,0,0-.15.07-.16-.55-.12-1.27-.01-1.79-.09-.09-.01-.23-.05-.28-.14.67.11,1.36.18,2.07.12-.01-.08,0-.21-.02-.33-.1-.02-.32-.03-.56-.02.01-.02.02-.04.02-.07-.01.06-.21.08-.19-.02.02.01.04.02.07.02-.02-.04-.05-.09-.09-.05-.07.02.02.05,0,.09-.03,0-.05-.03-.05-.07-.02.02-.05.05-.07.07-.03,0-.02-.04-.02-.07-.03.03-.06.11-.12.05-.01-.05.03-.04.07-.05-.03-.06-.15-.01-.14.05-.01-.09-.04,0-.12.02.03-.03,0-.06,0-.02-.06,0,0-.07.05-.05-.01-.05-.11,0-.05-.07-.06,0-.05.08-.05.14-.04-.02-.11-.03-.12-.09-.02.02-.04.04-.05.07-.19-.13-.35.04-.6,0-.03-.04-.05-.09-.07-.14-.07.02,0,.1,0,.14-.78-.02-2.34-.05-3.17-.05-.02.23,0,.26,0,.54.53.03,1.25.16,1.7.09.17-.03.35-.15.51-.16.65-.07,1.13.17,1.56.51-.22-.08-.49-.3-.81-.35-.16.1-.2.23-.37.28.03.03,0,.04,0,.07.17-.06.29-.18.47-.23-.18.23-.35.21-.51.44.26-.11.49-.26.74-.37-.16.17-.43.24-.56.44-.15-.01-.34.14-.44.26.38-.12.62-.37,1-.49-.23.2-.52.35-.81.49v.12c.33-.11.6-.29.88-.44-.1.23-.58.28-.75.51.21.1.43-.18.67-.21-.16.15-.46.16-.56.37.06.06.09.02.19.02,0,.07-.06.08-.07.14.16.07.3-.06.12.12.02.07.06.11.16.09-.02.04-.06.06-.05.14,0,.06.08.05.14.05,0,.08-.1.06-.09.14.03,0,.05.04.12.07-.08.08-.04.18.07.19-.02.05-.08.06-.09.12.05.02.04.1.12.09-.08.08-.1.18.02.21-.16.03,0,.24-.14.28.05.08.06.16-.02.21.08.02-.03.09.07.09-.05.03-.08.07-.14.09.16.13-.14.14-.05.28-.11,0-.11.07-.09.16-.07-.01-.05.07-.14.05.02.02.05.02.05.07-.04.09-.21.05-.14.19-.15.03-.27.1-.33.23-.08.02-.15-.02-.16.09-.06,0-.11,0-.12-.05-.04,0-.05.04-.05.09-.09.03-.2-.1-.19.05-.16-.1-.21.1-.33-.05-.03,0-.02.04-.02.07-.07-.03-.12.03-.14-.07-.11.06-.31.01-.37-.09-.14.11-.13-.12-.3-.05.02-.07-.03-.06-.02-.12h-.14c.04-.17-.21-.05-.16-.23-.14.02-.19-.14-.33-.05.01.19-.02.43.02.58.6.03,1.27,0,1.81.09h.16c.02.06-.3-.02-.35.05,0,.05.06-.03.12,0-.02.04-.07.02-.02.07.28.1.5.04.86.09-.75.06-1.95,0-2.79-.07.14-.39-.08-.63.05-.93-.1-.36-.07-.78-.23-1.09.04-.08.06-.14,0-.21.24-.78.1-1.83.09-2.56,0-1.17-.03-2.31-.07-3.49.1-.08.1-.18.12-.3.1.11,0,.4.09.51.67.02,1.47,0,2.02.07h.39s.15-.03.16.02h-.19c-.44.02-.96-.05-1.19.07-.13-.12-.15.06-.3,0,.07.09.18.06.26.05-.11.1.12.06.07.16.03,0,.02-.06.02-.09.01.09.27.1.14.19.12-.08.23.06.19-.09.04.02.04.09.09.09.17-.04.38.04.56.05.02,0,.02-.05.02-.05.8.04,1.9.12,2.63.09.1,0,.19-.06.33,0,0-.04,0-.16.07-.09,0-.03,0-.07-.02-.07.06-.05.12-.02.19-.09v.12c.07-.11.05-.18.09-.33.02.01.04.03.05,0,.02,0,.02,0,.02.02,0,.03,0,.04.02.05,0,.03-.04,0-.05-.02-.05,0,.16.19.02.14.08.09.04.25.05.4,0,.11.08.33,0,.28.04.12.05.16-.02.26,0,.03.04.02.07.02-.09.37.08.85-.05,1.33.1.22.03.62.05.67-.03.09.04.31-.02.28,0,.04.02.04.05.05-.01.05-.04.05-.07.02.03.05-.01.07.07.09-.08.02-.05,0,0,.09-.08,0,.05.22-.07.3.02.02.04.04.07.05-.08.15.07.48-.05.72.09.03,0,.35,0,.47-.06-.12-.11-.52-.09-.74-.1.13-.02.43-.05.54-.1-.02-.07-.18-.07-.21,0-.1-.14-.12-.12-.21-.1.07-.12-.03-.3-.02-.05-.04.17-.02.23-.02.08-.02,0-.11.07-.16,0-.05-.09-.02-.09-.07-.04,0-.05.03-.09.02-.29-.05-.08-.05.14-.05.06-.1,0-.29,0-.4-.06.03-.15.02-.09-.05-.06.02-.14.03-.19.07-.11-.09-.13-.02-.19-.14-.02.01-.02.05-.07.05,0,.02.03.02.05.02-.04.08-.2-.11-.19,0-.05,0-.05-.06-.07-.09-.03,0-.02.04-.02.07-.02-.01-.04-.03-.05,0-.03,0-.02-.04-.02-.07-.06.03-.07.05-.14.02ZM27.3,20.26c-.54.16-1.45.06-1.95.02.68-.07,1.33.07,1.95-.02ZM28.93,17.26c.09-.05.27,0,.4-.02-.09.05-.27,0-.4.02ZM29.37,17.26s.31,0,.44-.02c-.12.07-.25,0-.44.02ZM30.44,25.59c-.12.11-.39.02-.47.02.11-.04.39-.03.47-.02ZM29.56,25.43c.15-.08.69-.08.74.02-.27.02-.47-.04-.74-.02ZM29.21,26.1s.35-.03.44,0c-.11.05-.28-.03-.44,0ZM29.93,25.59c-.08.05-.2.01-.26,0,.09-.05.18,0,.26,0ZM29.72,26.1c2.17,0,3.91.16,6,.23-1.83.02-3.96-.12-6-.23ZM31.56,25.92s.1-.04.09.02c.02,0,.02,0,.02-.02.07.03-.06.06-.12.05.01-.02.03-.04,0-.05ZM35.79,26.34c.09.03.19,0,.3.05-.07.02-.24.05-.3-.05ZM35.98,26.2c.06-.07.13,0,.26-.02-.05.11-.15.03-.26.02ZM36.26,26.18c.2-.04.48-.07.6-.05-.01.14-.46.11-.6.05ZM36.37,1.48c-.06.05-.23,0-.33.02.06-.05.22,0,.33-.02ZM35.05,1.48c.06,0,.13,0,.19,0-.15.06-.54,0-.19,0ZM34.16,1.51c-.02.05-.15,0-.21.02.04-.07.12-.02.21-.02ZM1.14,2.42c.35-.12,1.01-.06,1.49-.07.26,0,.59-.08.75.05.29-.08,1.04-.13,1.28,0,.1,0,0,.03.02.09.1.02.09-.07.16-.07-.08.09.13.09.14,0,.03.02.05.06.09.07.02-.02.04-.04.05-.07-.03.05.1.11.12,0,.04.07.33.06.35.05.12-.07.16.1.19-.05.08.03.1.06.16.07.03,0,.02-.04.02-.07.23.12.52-.04.74.05.05-.01,0-.12.09-.09,0,.05-.06.03-.05.09.05-.05.02-.05.07,0,.08-.03-.07-.15.07-.12-.02-.08-.15.08-.14-.05.15,0,.34-.03.35.12.07-.05.26.03.21-.05.04-.04.18.08.23-.05.03.01,0,.03,0,.07.07,0,.07-.05.14-.05,0,.03-.05.02-.05.05.42-.09.85.02,1.51-.09.03,0,.01.02,0,.02.32-.03.73.04.91-.09.14.09.28-.1.47-.02,3.18-.25,7.15-.14,10.68-.3,2.23-.11,4.49-.04,6.73-.14,2.84-.13,5.71-.02,8.52-.14.14.61.08,1.25.09,1.95.03,1.27-.01,2.58.05,3.89.1,2.15.02,4.28.12,6.35.1,2.19.09,4.31.05,6.19.07.77.1,1.72.02,2.12.07-.03.08.11,0,.19.02-.02.11.16,0,.19.06.05.06.07.07.14.06.53-.04,1.12.05,1.63-.06.07-.03.09-.02.12.01.04-.04.56.02.49-.04.29.01.5,0,.91-.04-.03-.05-.09-.09-.12.06.11,0,.1.05.16-.09.03-.21-.02-.21.14.03-.02.04-.05.05-.09.04.02,0,.04,0,.07.07.06.07-.08.12-.07.08.11-.48.21-.47.07-.06-.01-.17.1-.16-.02-.01.02-.13.06-.07.07-.07,0-.1,0-.14-.07-.08.01.06.09-.05.07-.03-.13-.13.01-.21-.07-.01.03-.02.04-.07.07-.03,0,0-.03,0-.07-.08.02-.27-.05-.28.05-.24-.13-.49-.02-.88-.07-.04.01-.02.09-.09.07,0-.03.04-.04.05-.07-.03,0-.07,0-.07-.02-.05.08-.02.07-.14.12-.06-.03.06-.06.07-.09-.09.06-.22,0-.26.09-.09-.14-.28-.05-.37,0,.4.08.8.08,1.4.14-.44.08-1.04-.07-1.54-.02-.02-.04.02-.1.02-.16-.08.03-.04.07-.12.07-.06,0-.08-.06-.09-.12-.03,0-.07.1-.07,0-.07.05.06.16-.09.12,0,.03.07,0,.07.05.07.04-.07,0-.09-.02-.02-.08.06-.05.07-.09-.12-.02-.08.04-.12.12-.15-.03-.11-.13-.35-.05-.01.05.18-.07.16.05-.12-.01-.19-.03-.3,0,.11-.04-.07-.1,0-.16-.09,0-.08.11-.14.14-.09-.02.01-.09-.07-.14-.03.03.04.05,0,.14-.06-.08-.07-.07-.16-.05,0,.03.04.02.07.02-.13.12-.14-.18-.23-.09-.07.02.05.04.02.09-.18.01-.23-.04-.35,0,.03-.04.07-.06.09-.09-.06,0-.08-.03-.14-.09,0,.1-.03.02-.09.05.02-.03-.1-.11.02-.09.02-.07-.17-.12-.14,0-.06-.02-.04-.1-.14-.07,0,.11-.09-.08-.07.09-.03,0-.03-.14-.05-.02-.08.01-.04-.05-.02-.07-.18-.04-.45-.02-.67-.09.12-.12.29,0,.44,0,1.81.11,3.84.19,5.63.23.07-.02-.05-.04-.02-.09-1.43-.02-3.25-.13-4.89-.21-.32-.01-.7,0-.84-.14.12-.02.22.05.33,0-.08-.04-.12-.07-.19-.16.17-.07.34.01.51.02,1.04.08,2.06,0,3.07.09.51.04,1.2.07,1.79.07.05-.02,0-.15.02-.21-1.15-.07-2.4-.13-3.7-.14,1.2-.11,2.29.03,3.68.07.04-.06,0-.19.05-.26-.25-.11-.55-.08-.84-.09-1.44-.07-3.24-.11-4.61-.19.1-.13.18-.12.26-.19.03-.14-.13-.11.05-.14-.02-.08-.13.02-.09-.14-.11.02-.15-.04-.23-.05,0-.03.05-.02.05-.05,0-.11.07.04.09.05,1.79,0,3.49.11,5.21.19.11-.04.06-.11.09-.21-.72-.1-1.75-.06-2.59-.13.05,0,.08-.03.1-.08.04.02.07.06.12.07.81.01,1.64.02,2.35.07.02-.16.05-.28-.07-.35-.68-.02-1.35,0-1.95-.07-.81-.1-1.69,0-2.54-.07-.24-.02-.61-.04-.91-.02.06-.09.01-.11.14-.09-.04-.06-.06-.02-.14-.02,0-.04.04-.05.09-.05-.08-.06.02-.17-.09-.26.02-.02.09,0,.07-.07-.09.06-.07.03-.02-.05-.14.05-.02-.03-.09-.14.04.03.05.07.05-.02.06.03.04.08.02.14,1.87.05,3.48.11,5.4.19.04-.04.02-.14.02-.21-.92-.05-2-.05-2.79-.12.96-.06,1.84.05,2.79.07v-.33c-1.91-.16-3.51-.12-5.42-.21-.04.15-.04.36-.02.44-.17-.02.03-.29-.09-.3.03-.26-.04-.54-.02-.95-.04-.04.03-.09-.07-.09.16-.46-.02-1.12.07-1.65,0-.03-.04-.02-.07-.02,0-.07.06-.08.07-.14,0-.05-.07-.03-.07-.07.05-.28,0-.25-.02-.63.04,0,.02-.07.09-.05,0-.11,0-.21-.07-.23.02-.32-.05-.77-.02-1.07,0-.07.03-.21.09-.19,0-.06-.09-.02-.07-.09.05.05.06-.05.07-.16.05,0,0,.12.05.14,1.87.01,3.62.06,5.38.09.04-.04.04-.1.05-.16-1.62-.11-3.34-.06-5.03-.16.03-.06.1-.09.14-.09.27-.04.69.02,1.02.02.41,0,.85.03,1.28.05.91.04,1.74,0,2.56.09.05-.06,0-.22.02-.33-.22-.01-.46-.1-.65,0-1.28-.15-2.95,0-4.26-.16.26,0,.58,0,.56-.05,0-.06.07,0,.05.04.03-.06.08.01.14-.04-.01-.03-.09.01-.14-.02.03-.03.05-.12-.05-.09.02-.07.08.01.12,0-.02-.05-.13-.12-.14-.05-.06,0,.03-.06.05-.07-.03-.04-.05.05-.12,0,.01-.02.02-.04.05-.05-.1-.04-.26-.09-.51-.09,1.51-.11,3.21.03,4.84,0,.05,0,0-.1.05-.12-.3-.16-.93.02-1.26-.12-.68.05-1.98.03-2.72-.07,1.38-.09,2.67.04,3.96.07.03-.08.03-.28,0-.37-.57-.04-1.37-.01-2.07-.05-.04,0,0,.03,0,.07-.02-.02-.04-.04-.05-.07-.54,0-1.02,0-1.49-.02-.12-.02.07-.03.12-.02.11-.04.16-.02.26-.05-.01-.04-.09-.02-.07-.09.15.03.02-.07.12-.07-.13-.06-.17-.06-.33-.07.07-.1.28.02.44-.02-.19-.09-.36-.16-.54-.12.1-.11.4-.02.58-.05,0-.01-.01-.02-.02-.02,1.13.03,2.97.06,3.05.07,0-.8,0-1.61-.07-2.28-.09-.02-.97,0-1.21-.04.02,0,.03,0,.05,0-.31-.06-.63.02-.95-.05,0-.05.11,0,.16-.02,0-.09-.05-.16-.12-.19.06-.02.05-.11.05-.19-.05,0-.03.06-.09.05.02-.02.04-.04.07-.05-.08-.06-.15-.05-.3-.07.64-.08,1.61-.05,2.28-.02.07-.02.08-.09.07-.19-.49-.14-1.08.03-1.56-.05h-.28c.03-.05.16,0,.23-.02.4-.01,1.07-.05,1.58-.02.06,0,.06.05.09.07-.06-.19.07-.48,0-.79-.09.05-.01.15,0,.23-.06.05-.16.08-.12.16-.56-.01-1.12-.03-1.86-.02-.03,0-.04,0-.05-.02.18,0,.19-.02.35-.02-.03-.09-.05-.03-.09-.09-.03-.01-.07.02-.07.04-.05-.02-.17-.1-.19-.13.03-.03.06-.03.09,0-.03-.05-.21-.16-.12-.19-.06-.06-.16-.09-.28-.09.7-.08,1.28-.02,2.19-.02.02-.05.08-.06.07-.14-.18-.07-.63-.05-1.02-.05-.27,0-.56.06-.72-.07.49-.06,1.5,0,1.72-.02.06-.08,0-.23,0-.33-.64,0-1.29.02-1.84-.02-.04-.04.19,0,.21-.07-.15-.02-.3-.06-.33-.16.08-.01.03-.03.12-.05-.05-.13-.14.03-.19-.12.04.02.02.07.07.02-.08-.11-.26-.02-.32-.16.84,0,1.4-.01,2.21,0,.07-.06.06-.05.07-.14-.63-.05-1.32,0-1.91-.05.1-.17.56.02.7-.12.23.09.49,0,.77.05.03,0,.02-.04.02-.07.09.11.28.06.42.05,0-.12.01-.26-.05-.33h-1.72c-.08-.02-.22.03-.26-.02h.28c-.11-.07-.28-.07-.49-.12.11-.13-.13-.07.02-.21-.08-.03-.18-.1-.37-.16,1.05-.06,1.7,0,2.54-.05-.09-.11.01,0,.02-.12-.75-.06-1.41-.01-2.23-.05.64-.15,1.45-.08,2.07-.07.05,0,.07-.02.07-.07.05.01.05.04.02.07.14-.02.04-.25.05-.35h-2.19c0-.05.08-.01.12-.02-.12-.09-.39-.05-.56-.12-.02-.07.05-.04.09-.05-.03-.07.03-.09-.05-.12-.06-.01.06.12-.05.09.06-.08-.07-.13-.02-.19-.14.07-.22-.12-.42-.12.23-.01.67-.13.83.02.6-.15,1.48-.03,2.19-.07.02-.06.03-.05.05-.14-1.07-.06-1.69.03-2.7-.02.22-.2.73,0,.95-.12.39.06,1.24,0,1.72.02.02-.03.04-.25,0-.35-1.27-.01-2.18.07-3.09-.05-.01-.06-.09-.06-.14-.09-.05-.23-.25-.27-.56-.35,1.12-.1,2.67-.02,3.79-.07v-.12c-1.44-.06-2.51.01-3.84-.02,1.17-.21,2.25-.02,3.33-.16.05-.01.03.04.07.05.04-.06.15-.02.23.02,0-.04.13-.14.19-.02.05-.06,0-.23.02-.33-1.1-.05-2.39.04-3.47.02-.04,0-.01-.04.02-.05-.17-.01-.54-.04-.84-.09-.15-.2-.42-.35-.77-.37,1.72-.07,3.32-.05,5.03-.09.06-.05-.03-.09.02-.14-1.59,0-2.9.05-4.56.05-.13,0-.4.08-.47-.12.67-.04,1.61-.03,2.51-.07.62-.03,1.29.07,1.68-.07.06,0,0,.07-.05.05.02.05.15,0,.21.02,0-.02-.02-.04-.05-.05.04,0,.43.02.49-.02.06.01-.02.07-.05.02.06.15.23-.06.28,0,0-.1-.04-.15-.02-.26-.54-.1-.9.07-1.33-.05-.8.12-1.98.09-2.82.02.09.12-.2,0-.28,0-.21,0-.58.13-.88.02.09.05,0,.05-.09.05-.05.04,0,.16-.05.21-.08-.01-.05-.14-.16-.12.06-.41-.05-.87.02-1.23-.1-.22-.05-.7-.07-1.28,1.79-.12,3.95,0,5.82-.14.02-.08-.03-.1-.05-.14-2.08.03-4.04.07-6.03.09-.08,1.11.04,1.7-.02,2.54-.13.02-.09-.14-.14-.21-.05,0-.05.06-.05.12-.17-.1-.33-.1-.47-.16-.06.03.05.1-.05.09,0-.11-.1.08-.09-.07-.01.11-.11,0-.21,0,0-.03.04-.02.07-.02-.03-.07-.08.02-.14,0,2.18,1.01,3.6,3,3.91,5.52.1.81-.02,1.54-.16,2.28,0,.02.01.02.02,0-.03.15-.12.29-.14.57-.51,1.34-1.28,2.55-2.42,3.3-.82.54-1.8.84-2.96.98-.5.06-.97-.1-1.42-.12-.18,0-.49.09-.67-.02.07-.05.24,0,.35-.02-.53-.18-1.03-.38-1.51-.61.29.16.19,1,.21,1.42,0,.05.05.12.05.16,0,.03-.05.07-.05.07.04,1.62.15,3.9.14,5.61,0,.43.05,1.13.02,1.65.06.08.16.12.26.14.65.12,1.61-.05,2.33.12.06.01.17-.03.19.02-.29,0-.69,0-.82.02-.04.06.1.06.09.02.05.08.05.12,0,.19.08,0,.04-.1.14-.07-.07.02-.06.11-.16.09-.04-.05,0-.03,0-.09,0,.03-.12.08-.02.07-.52.06-1.37-.05-1.96-.07-.08,0-.22.04-.28.02-.07-.02-.08-.11-.09-.02-.17-.05-.28.03-.44-.02-.11-.04-.31-.04-.46-.05-.31-.02-.69,0-.95-.05-.11-.02-.25.03-.35.02-.04,0,.01-.04,0-.05-.14-.04-.37.04-.51.02-.68-.06-1.44-.12-2.16-.14-.66-.02-1.3.01-1.95-.09-.07,0-.12,0-.14.05-.57-.07-1.16-.07-1.72-.12-.51-.05-1.04,0-1.56-.05-.13-.01-.3-.09-.4,0-.26-.13-.76,0-1-.14-.04.05-.28.08-.28,0-.07.06-.43.01-.75-.05.03,0-.21.05-.21.05-.1,0-.2-.04-.26-.09-.12.09-.26.07-.42,0,0,.02.03.02.05.02-.13.05-.26-.06-.42.02.01-.15-.4.05-.47-.09,0,.04-.56.07-.77.02-.06-.01-.03,0-.02-.05-.11.07-.12.02-.23-.02.12.09-.11.08-.15.02.03.1-.18.02-.24-.04-.03.14-.1-.04-.12.09,0-.12-.18,0-.12-.12-.1,0,.03.11-.07.09,0-.03-.02-.01-.02,0-.1,0,.01-.07-.05-.09-.02.04-.05.07-.09.09-.09-.07-.16-.05-.23,0-.11-.12-.13.01-.33-.07-.02,0-.02.04,0,.05-.04,0-.14.02-.08-.07-.03.04-.15-.01-.12.09-.09-.15-.38.05-.47-.14-.07,0,.06.07-.02.07-.05.02-.07-.07-.07.02-.03,0-.02-.06-.02-.09-.03.1-.15.02-.19.07-.06,0,0-.07.05-.05-.05-.12-.08,0-.16-.05.01.03.03.05.07.05-.05,0-.12.06-.18.02.02-.03.08,0,.09-.07-.12,0-.2-.12-.28,0,.04-.01.07.03.16-.02-.01.02-.03.04,0,.05-.01.02-.02.04-.02.07-.04-.08-.07-.01-.16-.02-.05-.05.02-.08-.02-.12-.03,0-.02.06-.02.09-.04-.03-.1-.16-.12-.02-.04-.02,0-.04,0-.07-.11-.04-.06.02-.16.02.11-.09-.1,0-.14.02,0-.04.02-.04.02-.07-.09.01-.13.08-.23.07,0-.03.07,0,.07-.05-.1-.08-.07.15-.26.07.07-.1.09,0,.14-.07-.13-.07-.34.05-.44-.05-.11.03-.06.09-.12.09-.04-.01-.01-.05.02-.05-.04-.03-.29-.04-.23.02-.2-.13-.47.04-.7-.12-.11.12-.21-.04-.4.07.04-.05-.02-.05.02-.09-.12,0-.07.1-.14.07-.03-.04-.23,0-.33-.05-.06,0,0,.08.02.07,0,.04-.13-.04-.07-.07-.15.09-.19-.09-.21.05-.23-.05-.37-.05-.61-.07.57-.1,2.11.05,2.65-.02.75.05,1.65.06,2.37.09-.01-.05.03-.04.07-.05-.26-.06-.68-.05-.95-.07-.12,0-.26-.02-.3-.09-.02.09-.02.05-.14.07.01-.04.07-.02.05-.09-.02.04-.09.04-.07.12-.03-.06-.18,0-.19-.14-.05.04.02.06-.02.12-.05-.04-.2.01-.19-.09-.03.02-.04.05-.05.09-.14-.04-.06-.05-.16-.12-.01.08-.02-.02-.09.02-.02.11.06-.04.05.07-.06.03-.11-.05-.12,0-.08-.04.06-.05.05-.09-.15,0-.15.05-.28-.05-.06.02.02.08.02.12.06-.07.17-.04.12.05,0-.07-.11-.03-.19-.02.05-.07-.04-.07,0-.09-.05-.02-.14-.07-.23,0,.06.03.05.07.07.09-.05.04-.11-.06-.16-.05,0-.04.08-.02.07-.07-.14-.05-.33.04-.47-.05-.03,0-.02.04-.02.07-.03-.08-.08-.05-.14-.07-.07.02.03.06-.02.09-.05,0-.06-.05-.09-.07-.03.02.01.04-.05.07-.09-.03,0-.03,0-.09-.15.03-.01.09-.09.16-.07-.02-.03-.04,0-.07-.02-.06-.09.03-.16,0-.02-.12.1.04.12-.05-.02-.08-.09,0-.16-.05,0,.04.03.05.02.09-.04-.09-.07.01-.12.05-.06-.03.06-.07.07-.12-.07-.02-.14.16-.16.05.04,0,.04-.02.07-.02,0-.05-.06.03-.09-.02-.07.02.07.02,0,.07-.24.02-1.12.17-.89-.3.69.11,1.22.1,2,.12.49.01,1.19.02,1.91.05.29,0,.56.06.86.02.02-.37.1-.64-.26-.65-.13,0-.35.02-.56.02-.21,0-.44-.07-.58-.07-.03,0-.06.05-.09.05-.38-.01-.82-.13-1.14-.05-.04-.02-.09-.02-.05-.07-.12.02-.12,0-.21.05-.28-.12-.95.01-1.3-.14-.02.01-.02.05-.07.05-.03-.09-.1.06-.12-.07-.04.13-.15,0-.16.07-.05-.05-.04-.17-.16-.14.11-.05.07-.05.12-.19.58,0,.86.01,1.6,0,0,.05-.06.05-.09.02.05.08.14.01.19-.02.67-.02,2.01.07,2.79.07.16-.28.11-.34.05-.61-.87-.05-1.43-.1-2-.07-.55-.06-1.06-.08-1.44-.09-.04,0-.05.05-.05.05-.14,0-.27-.08-.42-.09-.07,0-.16.05-.23.05-.21-.02-.35-.09-.54-.05-.06-.03.08-.05.07-.12-.03-.06-.03.09-.12.05.05-.03.06-.1.09-.14-.09.01-.01.02-.09.05-.03-.05.06-.09,0-.09.13-.05.17-.08.26-.02-.04-.12.19,0,.23,0,.03,0-.01-.04.02-.05.14-.05.32.03.51.02.6,0,1.38-.04,1.95-.02.02.02.05.05.07.07.33-.05.79-.02,1.16,0,.14,0,.31.03.42,0,.08-.02.06-.11.14-.09-.05-.08-.01-.11-.07-.12.04-.19.1-.38-.07-.44-.03-.01-.56-.04-.65-.05-.05,0-.2.05-.21.05-.33,0-.5-.02-.91-.02,0,0,.04-.02.05-.02-.1.01-.43,0-.67-.05-.13-.02-.22.12-.35-.02,0,.02,0,.04.01.04-.1-.04-.43.05-.43-.07-.1.11-.27-.02-.35,0-.03,0,0,.05.02.05-.39,0-.67-.11-1.14-.05-.03-.08,0-.08-.05-.16.09.05.04-.12.02-.12,0-.03.06-.02.09-.02,0-.05-.08-.01-.12-.02.08-.03.21-.05.21.05.05,0,.03-.07.07-.07.66-.04,2.33.03,3.21,0,.31.08.72.05,1.16.07.07.01,0-.12.09-.09-.11-.07-.01-.3.02-.37,0-.09-.09-.09-.12-.16-.45,0-1.34-.08-1.84-.02-1.08-.11-1.8-.08-2.84-.14.08-.12.06-.17-.02-.23,0-.03.07-.03.07,0,.04,0,0-.09-.02-.09,0,0,.08-.02.08-.02.89-.08,2.05.06,3.06,0-.1.09.18,0,.3,0,.38.01.94.14,1.26,0-.07-.29.12-.35-.02-.56-.42-.04-1.04.02-1.33-.07-.16.11-.51-.1-.7.05-.03-.14-.33-.02-.44-.02-.03,0-.02-.05-.05-.05-.2,0-.39.03-.58.02-.06,0-.08-.06-.14-.07-.08-.01-.26.06-.39.05-.32-.03-.77-.1-1.07.02-.02-.18-.03-.27-.05-.44.67.01,1.64-.02,2.54.05.65.05,1.57-.04,2.12.02.08,0,.03-.14.12-.14-.06-.14-.02-.16,0-.33,0-.09-.08-.09-.12-.14-.68-.05-1.65.02-2.47-.02-.06,0-.11-.07-.16-.07.03,0-.4.12-.44-.02-.5.12-.8-.1-1.23.02-.04,0,.02-.04-.02-.05-.14.03-.16.04-.33.05,0-.18.08-.27-.02-.37,1.4-.07,3.06,0,4.65.02.11-.05,0-.16.07-.16-.02-.04-.1-.03-.14-.05.2-.06.23-.34.09-.44-.54.05-1.22,0-1.86-.02-.17,0-.39-.04-.56-.02-.02,0-.02.05-.02.05-.07,0-.06-.04-.16-.02-.16.02-.52-.04-.7-.05-.01,0-.15.05-.23,0-.07,0,.05.06-.05.05-.2-.13-.62-.06-1-.09-.03,0-.02.04-.02.07-.1-.06-.07-.18-.09-.23.02-.04.04,0,.07,0-.04-.06-.06-.14-.07-.16.39-.02.75-.07,1.12-.02.54-.06,1.57.02,2.3.02.35,0,.79-.01,1.26,0,.01-.05.03-.15-.05-.16.12-.03.2-.38,0-.44-1.23-.02-2.06,0-3.14-.02-.51,0-1.04-.18-1.44-.02,0-.04-.05-.05-.07-.12,0-.08.04,0,.07-.07-.03-.08-.08-.16-.05-.23,1.59-.07,3.13.02,4.65,0-.05-.05,0-.03.02-.07,0-.09-.12-.07-.12-.16.13.07.17-.2.16-.28-.11-.16-.35-.07-.54-.07-1.14,0-2.22-.06-3.21-.09-.17,0-.36.04-.54-.02-.17.06-.25-.03-.39.05-.06.03-.06-.11-.09-.02.02-.07-.02-.34,0-.47.03.06.1.07.14.12.05-.01,2.11,0,4.91.02,0,.04.08.1.07.17-.08.33-.09.74-.07,1.09.08,1.14.06,2.21.12,3-.06.04-.02.04-.05.09.06.21.06.46.07.72.03.68.06,1.6.05,2.09,0,.25-.06.62.02.72-.13.74.04,1.25-.05,1.86.1.04.1.06.16.16,1.84.03,3.57.11,5.33.16-.5-.11-1.15-.1-1.72-.14.02,0,.02.03-.02.02-1.16-.09-2.25-.05-3.4-.14.04-.16.08-.28.09-.42.07.04-.02.15.07.14.34.09.6.1.95.05.66.08,1.91.1,2.63.09.39.06.81.09,1.21.05.03-.18.03-.31,0-.51-1.04-.13-2.61-.14-3.77-.19-.4-.02-.79-.18-1.07.02-.04.02.03.19-.07.21.06-.33-.02-.66-.02-.91,0-.28.03-.97-.05-1.14.02-.67.04-1.11-.05-1.68.1-.11.01-.28,0-.4,0-.03.05-.02.05-.05-.06-.43-.05-1.05-.07-1.58-.01-.4-.06-.94-.02-1.23-.11-.6-.02-1.41-.07-2,0-.1-.11-.24-.23-.29,1.67.01,3.58.03,5.49.04-.03.1.04.09.05.22,0,.07-.04.11-.05.23-.03.56.03,1.14.05,1.51,0,.15-.03.29-.02.44.05,1.5.2,3.24.19,4.82,0,.72.04,1.12.05,1.77,0,.33-.01.93.05,1,.13.14.74.13.98.14,1.53.08,3.08.07,4.51.14-.16-.12-.39-.06-.61-.07-1.23-.08-2.61-.09-3.82-.14-.28-.01-.57-.01-.81-.09.07-.39.02-.66,0-1.07-.06-1.11,0-2.13-.07-3.05-.03-.05-.02-.52-.02-.77-.05-1.61-.13-3.05-.14-4.91-.11-.01-.12-.12-.19-.17,2.09.02,4.15.04,5.84.05-.03,0-.06,0-.07.02.08-.01.22.03.26-.02-.03,0-.07,0-.12,0,1.45.01,2.61.03,3.27.04,0,0,0,0-.01.01.04-.01.12.02.15-.01.09,0,.16,0,.23,0,0,0,0,0,0,0,.05,0,.07.04.14.02,0-.01,0-.02,0-.03.05,0,.09,0,.09,0-.39-.36-1.37-1.31-1.41-2.25-.02-.02-1.04-.04-2.59-.06.06-1.22.02-2.71,0-3.7,0-.32-.04-.63-.05-.93,0-.16.05-.31.05-.47-.06-1.52-.15-3.16-.09-4.96.92-.05,1.71-.02,2.58-.05.24,0,.47-.06.7-.07.74-.03,1.25.07,1.96-.02,0,.03-.03.04,0,.07,0,.01.02.03.02,0,.02-.14.16-.05.21-.19-.11-.1-.29-.03-.42-.02-1.99.08-3.37.03-5.33.12.08,3.51.06,6.81.16,10.1.03.08-.03.09-.07.11-1.5-.02-3.44-.03-5.45-.05.1-.13.07-.39.06-.55-.07-1.21-.08-3.22-.02-4.79-.14-.43.08-1.01-.09-1.51.06-.9-.09-1.94-.02-3,1.66-.09,3.1-.14,4.56-.14.25,0,.59.07.68-.12-1.87-.08-3.75.04-5.52.09.04,1.55.08,3.35.09,4.75.02,1.63-.02,3.17.02,4.47,0,.21.07.43.05.6-.02.12-.07.14-.09.2-1.8-.01-3.65-.02-5.29-.03.13-.19.05-.45.05-.66-.03-1.02.01-1.69-.02-2.4-.09-1.7-.05-4.09-.16-5.93-.02-.25-.1-.5.02-.72.76-.12,1.75-.08,2.63-.09.48,0,1.34-.01,2-.02.16,0,.46.05.46-.16-.03,0-.03-.03-.07-.02-.69.03-1.45.05-2.12.05-1.46,0-1.93.04-3.26.07.24,2.64.06,5.97.21,8.4.02.38.06.8.05,1.21,0,.14-.05.23-.03.29-2.82,0-4.96,0-5.02.01,0-.06-.05-.06-.07-.09,0-.08,0-.18.07-.19-.06-.06-.05-.11-.07-.23.1,0,.14.05.21.07,1.54-.11,2.79.05,4.28-.07.06.04.26.06.23-.07-.48-.03-.99-.05-1.61-.07-.16,0-.44.05-.44-.02-.36.04-.76.08-1.19-.05.92-.01,2.13.01,3.19,0,.12-.05.08-.18.09-.26-.49-.14-1.56-.05-2.3-.07-.16,0-.29-.02-.49-.02-.69,0-1.35-.03-1.98.07.01-.16,0-.42-.05-.58.07-.05.13.06.21.07,1.1-.07,1.75-.03,2.7-.02.06,0,.12-.05.19-.05.36.03,1.02.08,1.56,0,.05,0,0-.08.05,0,.09-.07-.06-.09-.07-.14-.04.08-.51.09-.51,0-.08.07-.14.08-.19,0,0-.1.09,0,.09.02.03,0,.02-.04.02-.07.26.03.41.02.56-.02.03.01,0,.02,0,.05.19.02.25-.32.09-.37-1.6,0-3.24,0-4.56,0-.07,0-.06.08-.14.07.02-.31-.05-.65-.02-.95.09.12.03.27.09.39,1.87-.02,2.99-.02,4.65-.05-.01-.07-.13-.04-.16-.09-.04,0,.02.04-.02.05-.22-.06-.29.02-.56-.09.3-.04.43.02.79-.09,0-.1.04-.13,0-.21-.17-.13-.4-.05-.58-.05-.02,0-.11,0-.21,0-.18.01-.4-.03-.58-.02-.39.02-.92.03-1.26-.02-.45.09-.78-.03-1.23.05-.09-.06-.77-.09-.88.05-.09.03-.05-.13-.05-.23,0-.38-.12-.88-.02-1.16-.04-.61-.12-1.49-.12-1.93,0-.51,0-1.4-.09-2.12.05-.09.06-.22,0-.21.07-.35-.11-.65.09-.88,1.2,0,2.8-.05,3.84-.07.33,0,.7-.01,1.02-.02.06,0-.01-.11.07-.07-.02-.02-.05-.05-.07-.07,0-.03.04,0,.05.02,0-.16-.3.01-.37-.14-.03.01,0,.03,0,.07-.72-.03-1.41.07-2.07.07-.02,0-.04-.05-.07-.05-.4.01-.79.09-1.19.05-.08,0-.25-.04-.37-.05-.03,0,.02.04-.02.05-.35.05-.73-.05-1.21,0,.02-.1-.08-.07-.07-.16.03,0,.02-.04.02-.07ZM30.79,23.78c.05.08.15.11.16.23-.08-.06-.14-.13-.16-.23ZM31.42,24.99c.3-.13.65-.07.91.02-.27.05-.58-.05-.91-.02ZM33.21,23.94c.04-.05.18,0,.26-.02-.04.05-.18,0-.26.02ZM33.53,23.92s.09,0,.15.02c-.05,0-.1-.01-.15-.02ZM31.37,22.73s.53-.06.7.02c-.24.04-.43,0-.7-.02ZM33.05,22.8c.06-.05.21,0,.3-.02-.06.05-.21,0-.3.02ZM33.53,12.84c.25-.09.56-.07.89-.06-.37.07-.7.21-.98.41.03-.09.06-.16.11-.21.03-.07-.08-.12-.02-.14ZM35.96,13.86s-.04-.02-.05-.05c.02-.2-.03-.57.02-.65v.16c.04.15.02.35.02.54ZM35.96,14.21c-.02.09-.02-.1-.02-.09-.02-.07-.05-.16-.05-.28.08.02.08.3.07.37ZM36.02,14.91v.07s-.06-.02-.09-.02c0-.04.04-.05.09-.05ZM2.14,23.41s.05,0,.09-.02c-.07.04-.03.08.05.05.01.13-.14-.05-.12.07-.11-.02.02-.09-.02-.09ZM5.68,15.56c.08-.07.26-.04.35-.05-.02.08-.18,0-.35.05ZM6.38,15.56s-.04,0-.07,0v-.05c.06,0,.13,0,.16.02,0,.07-.17-.03-.09.02ZM2.61,11.79c.19,0,.44-.08.58.02-.28.02-.36.05-.58-.02ZM3.49,10.82c-.31-.04-.39-.07-.63,0-.04-.05-.09-.05-.16-.02.01-.02.02-.04.02-.07.15.05.34-.04.56.02-.08-.07.22-.05.21.07ZM3.47,10.75c.42-.05,1.03-.01,1.21,0,.01-.03.02,0,.05,0,0,.02,0,.02.02.02-.27.07-.37,0-.58.05-.12-.09-.48.06-.7-.07ZM5.21,10.72c.01.06.16.02.26,0,.06,0,0,.08,0,.09-.15-.02-.21-.02-.35,0-.06-.04.07-.06.09-.09ZM5.63,10.82s-.06-.03-.12-.02c.01-.05.06-.06.12-.07-.04.05,0,.03,0,.09ZM3.14,9.65c.15,0,.35-.01.49,0,.49.04,1.05-.02,1.57.07-.26.04-.52,0-.85,0-.21,0-.37.1-.4,0-.12.08-.3-.02-.44.05.05-.08-.18,0-.28,0-.2,0-.37-.04-.58-.05-.09,0,.07-.06.05,0,.12-.05.29-.06.44-.07ZM5.22,9.72s.03-.04.04-.07c.02.01.02.05.07.05-.04.01-.08.01-.11.02ZM5.54,9.75c0-.1.09-.03.09-.07.02,0,.02.03.02.05.02,0,.02,0,.02-.02.05.07-.1.02-.14.05ZM1.07,2.83s.04,0,.05-.02c.15.24.01.74.07,1.02-.14.03.02-.08-.09-.07.04-.2.05-.42-.05-.67.09-.07,0-.17.02-.26Z"/>
        <path class="cls-1" d="M37,6.44c0,.08-.13.21-.02.26-.06-.13.14-.21.02-.26Z"/>
        <path class="cls-1" d="M36.86,6.51s-.02.19.05.12c-.09-.02.07-.13-.05-.12Z"/>
        <path class="cls-1" d="M36.33,21.36c-.16-.04-.5,0-.84-.02-1.47-.06-3.08-.11-4.54-.14-.12.13-.05.42-.02.61,1.6.08,3.12.05,4.75.14.21.01.65.14.65-.14-1.18-.17-2.74-.06-3.58-.19,1.02-.08,2.3.06,3.58.09-.01-.14.02-.27,0-.35ZM31.51,21.59c.05,0,.58,0,.67.02-.13,0-.59.02-.67-.02ZM32.58,21.64c-.07,0-.22,0-.37,0,0-.07.14.02.14-.05.06.03.45.02.23.05Z"/>
        <path class="cls-1" d="M30.9,20.66c1.43.05,3.27.07,4.82.14.15,0,.63.05.6-.09-.02-.12-.08-.1-.21-.12-.79-.1-1.54-.01-2.3-.05-.85-.04-1.68-.02-2.49-.14,1.41.01,3.27.1,5,.14-.02-.1.01-.18,0-.33-1.76-.1-3.55-.1-5.42-.16-.04.15-.04.45,0,.6Z"/>
        <path class="cls-1" d="M36.28,19.08c-1.72-.06-3.65-.09-5.38-.14-.09.2-.1.41-.02.58,1.53.01,3.34.12,4.84.12.23,0,.59.1.58-.12-.02-.13-.19-.07-.26-.07-1.53-.07-3.27-.04-4.75-.16,1.58-.01,3.36.07,5,.12-.01-.11.02-.26-.02-.32Z"/>
        <path class="cls-1" d="M36.26,17.89c-1.84-.02-3.7-.1-5.42-.09-.04.23-.02.34.02.61,1.46,0,3.25.12,4.66.12.08,0,.21-.05.3-.05.14,0,.47.19.47-.09-1.59-.18-3.54-.05-5.03-.21.26-.13.56-.05.84-.05,1.36.02,2.86.1,4.21.14-.06-.08.01-.29-.05-.37Z"/>
        <path class="cls-1" d="M36.14,11.07c0,.06,0,.12.07.12,0-.07,0-.13-.07-.12Z"/>
        <path class="cls-1" d="M34.3,3.81c.78-.05,1.23.07,1.72-.12.03-.29-.31-.19-.49-.19-1.65.02-3.4.06-4.96.07,0,.29-.07.42.02.58,1.71,0,3.18,0,4.86-.05.18,0,.46.04.56-.14-1.57-.08-3.22.11-4.68.02-.1,0-.28.06-.35-.07.21-.13.47-.07.72-.07.83-.01,1.75-.04,2.56-.07-.03.05-.03.05.02.02Z"/>
        <path class="cls-1" d="M35.49,2.95c.18,0,.43.03.44-.09.01,0,.03-.02,0-.02-.07.04-.16.02-.05-.02-.72,0-1.55.02-2.42.05-.85.03-1.78.07-2.47-.05.14-.19.42-.12.6-.12.96,0,2.14-.04,3.19-.05.43,0,.86.03,1.19-.09v-.21c-1.51-.07-3.94.03-5.4.09-.04.14-.04.44,0,.58,1.7,0,3.36-.04,4.91-.07Z"/>
        <path class="cls-1" d="M35.37,12.75s-.07,0-.07.02h.14s.01-.05.02-.07c-.07-.03-.06.04-.09.05Z"/>
        <path class="cls-1" d="M30.6,9.02s-.02.06-.05.07c.02.36.1.68.3.86.29-.03.56-.08.7-.26-.01-.2-.05-.37-.12-.51.13-.01.19-.09.35-.07,0,.17.1.25.09.42.13.03.14-.06.26-.05.04-.3-.12-.55-.19-.82-.43-.04-.93.22-1.35.35ZM30.9,9.54c0-.07,0-.12-.05-.14.09-.07.4-.23.37.05-.12.02-.2.08-.33.09Z"/>
        <path class="cls-1" d="M32,25.9c.02.11-.08-.02-.07.05.03.02.11.09.14.02-.08.05-.02-.16-.07-.07Z"/>
        <path class="cls-1" d="M31.81,25.83s.07-.11.02-.12c-.04.09-.08-.02-.09.02.01.12.15.11.09.26.09-.03.06-.11.08-.12-.06,0-.06-.1-.11-.04Z"/>
        <path class="cls-1" d="M30.42,8.86c.5-.11.94-.28,1.42-.42-.09-.13-.18-.4-.35-.35-.29.1-.86.3-1.16.37,0,.16.06.27.09.4Z"/>
        <path class="cls-1" d="M31.32,7.44c-.07-.24-.22-.4-.37-.56-.07.22-.21.38-.28.6.24,0,.44-.03.65-.05Z"/>
        <path class="cls-1" d="M29.51,7.4c.07.12.15.24.3.28.34-.34.71-.64,1-1.02-.14-.04-.22-.15-.4-.16-.29.32-.61.6-.91.91Z"/>
        <path class="cls-1" d="M30.3,21.64c-.05-.08,0-.39-.05-.44.03.13-.06.38.05.44Z"/>
        <path class="cls-1" d="M30,9.91s-.05-.02-.07-.05c.05-.24-.11-.23-.09-.49-.12,0-.09-.16-.09-.28-.13.03-.09-.12-.09-.21-.14-.13-.26-.32-.3-.49-.08,0-.04.1-.14.07,0-.07-.06-.17,0-.23-.27.05-.42.07-.61.21.06,0,.06.09.02.12.18-.01.43-.15.56-.07-.13.04-.28.04-.42.12.05.08.03.07-.02.14.23.07.48-.11.67-.07-.18.08-.31.07-.49.14,0,.05.07.12.03.14.17.11.47-.12.62-.02-.2.04-.45.02-.61.16.07.02.07.05.05.12.02.05.13,0,.14.05-.06,0-.09.03-.09.09.1-.02.11.04.05.07.03.08.2.01.26.07-.11,0-.1.02-.21.05,0,.06.07.06.05.16.05.05.21,0,.26.05-.09,0-.17,0-.21.05.04.13.01.08.02.19.11.02.26-.03.3,0-.12.04-.36.04-.37.18.01-.04.06-.06.07-.01,0,.03-.04.02-.05.05.02.06.15.02.19.07-.07.06-.14.12-.21.19.09.03.08-.04.12-.07.07.27.41.01.56.12-.08.05-.26,0-.3.09.09,0,.13-.04.16,0,0,.06-.05.06-.09.07.03-.09-.14,0-.09-.12-.17,0-.27.06-.35.14.04,0,.07,0,.09-.02,0,.03-.01.05-.02.07.03.03.11.01.12.07-.07.06-.01.1-.02.21.19.03.44-.04.56.02-.15.03-.26.01-.4.09.01-.12-.17.03-.26-.02.03.09.09.05.02.14.18.12.41-.04.56.07-.1.02-.11-.02-.16.05-.04.06.03.17.12.23-.08-.02-.12.04-.16,0,0,.02,0,.05-.02.05-.03.1.08.06.07.14-.11-.01-.14-.07-.26-.02.01-.06.04-.09.09-.12-.07,0-.18-.03-.19.05.04-.02.1.05.05.05-.06-.03-.12-.15-.19-.05.12-.02.02.06.07.09.11,0,.27,0,.46.05-.17.01-.39-.01-.46.09.09-.01.1-.03.14.05-.03,0-.02.04-.05.05-.11-.01-.14-.07-.21-.07.1.19.3.06.53.14-.32.02-.48-.04-.65.09.05,0,.05.06.07.09.19,0,.39,0,.49.05,0-.03,0-.07.02-.07,0,.04,0,.07.02.09-.06,0-.14-.01-.14.05.14.01.02.11.02.19.41-.38.47-1.2.51-1.84-.02-.02-.05-.05-.07-.07.15-.28-.07-.5.02-.74ZM29.02,8.93s-.01-.02,0-.02c-.01-.02-.02-.04-.02-.07.04,0,.05.02.02.02.02.04.09.01.09,0,.08.05-.09.03-.09.07ZM29.49,9.19c.04-.05.17-.02.21-.07.05.09-.1.05-.21.07ZM29.56,10.26c0-.07.1-.04.16-.05-.02.05-.09.05-.16.05ZM29.58,10.86c0,.06,0,.1.07.09-.04.06-.13-.02-.12-.09-.07,0-.09.08-.14.02.02-.04.08-.03.12-.05,0-.06-.09-.02-.07-.09.09.04.26-.04.35,0-.03.07-.14.04-.23.05.04.02.17.07.02.07Z"/>
        <path class="cls-1" d="M29.25,7.19c.4-.3.72-.68,1.07-1.02-.12-.06-.2-.15-.35-.19-.36.28-.65.63-.98.93.05.13.18.17.26.28ZM29.72,6.47c.08,0,0,.12.07.05.04.08-.17.12-.21.21-.01-.05.12-.16.14-.26Z"/>
        <path class="cls-1" d="M29.97,18.94c-1.82-.06-3.34-.1-5.21-.12-.04.13-.04.42,0,.56,1.69,0,3.13.07,4.7.09.18,0,.45.11.54-.09-.08-.15-.36-.09-.54-.09-1.1,0-1.98-.04-3.05-.07-.41,0-.84.02-1.21-.09,1.62.01,3.2.11,4.79.12-.02-.13,0-.2-.02-.3Z"/>
        <path class="cls-1" d="M29.41,18.38c.2,0,.52.09.56-.14-1.32-.14-2.95-.09-4.33-.14-.14,0-.37.07-.47-.09,1.54-.03,3.29.11,4.79.09-.02-.03.03-.25-.02-.33-1.8-.07-3.39-.07-5.19-.12-.09.12-.04.47-.02.63,1.56-.02,2.98.09,4.68.09Z"/>
        <path class="cls-1" d="M24.27,4.49c.02-.83-.12-1.26,0-2.09,1.35-.08,3.43-.06,5.24-.09.13,0,.38.06.4-.14-.08-.09-.37-.03-.44-.02-1.9.06-3.68,0-5.52.07.05,1.15.03,1.43.05,2.4.11-.02.19-.07.28-.12Z"/>
        <path class="cls-1" d="M28.79,3.63c-.05-.07-.44-.05-.58-.05-.22,0-.44.06-.7.05.02-.09-.09-.04-.07-.12.06-.11.27-.23.33-.42.59-.01,1.21.02,1.68-.07-.02-.11-.09.07-.12-.05.03-.04.26,0,.21-.05-.39.02-.73.09-1.16-.07.36-.17.8-.21,1.3-.16,0-.11,0-.22-.05-.28-1.07.11-2.36-.07-3.54.07.46.08,1.06-.03,1.49.02-.43.06-1.14.06-1.49.05,0,.04-.02.08-.05.09-.03-.05-.03-.13-.09-.14-.58-.02-.98.03-1.51.02v.58c.62.05,1.3.03,1.86-.02-.32-.02-.32-.03-.68,0-.09,0,.03-.08-.07-.07-.06.15-.54-.08-.7-.05v-.14c.45-.04.86-.1,1.33-.05.22.3.47.57.7.86-.1-.03-.17-.03-.21-.02-.05,0-1.04.02-1.05.02-.32-.08-.73.09-1.16.05v.56c.3.08.6-.04.79-.14-.15,0-.3,0-.4-.05.1-.23.38-.12.56-.12,1.15,0,2.45-.03,3.56-.09.17.06.44-.05.72,0v-.23c-.4-.08-.47-.09-.91,0ZM27.9,2.49c.02.08-.05.09-.05.16-.18.01-.09-.11-.23-.14.03-.07.22-.06.28-.02ZM26.97,3.53c-.31-.24-.55-.56-.79-.86.08-.08.07.13.16.12.13.29.38.46.58.68.02-.02.02-.05.07-.05.03.07.01.06-.02.12ZM27.11,3.11c-.18.02-.24-.07-.33-.14.1-.1.24.08.33-.02.07.04-.02.1,0,.16Z"/>
        <path class="cls-1" d="M29.79,5.72c-.1-.09-.19-.19-.37-.21-.05.13-.16.22-.21.35.12.06.2.15.33.21.08-.12.19-.21.26-.35Z"/>
        <path class="cls-1" d="M29.65,4.07c-.55-.04-.95,0-1.63.02.27.12.73.12,1.14.12.21,0,.48.05.51-.09,0,.03-.03-.01-.02-.05Z"/>
        <path class="cls-1" d="M29.44,11.49c.01-.07-.03-.09-.07-.12,0,.04-.06.01-.07.05.13-.02.06.08.09.11.11-.01.12-.01.23,0,.04-.04-.02-.06,0-.14-.1.03-.03.01-.07-.02,0,.08-.1-.04-.09.02.04,0,.04.13-.02.09Z"/>
        <path class="cls-1" d="M29.49,12.49c-.08-.06.03-.16-.09-.16-.06.05.04.11-.02.16.06-.03.1.07.12,0Z"/>
        <path class="cls-1" d="M29.3,12.61c.15-.04.05.16.14.19.01-.09.1-.1.12-.19-.03-.04-.3-.04-.26,0Z"/>
        <path class="cls-1" d="M29.32,12.84c.11-.02-.12-.08-.14,0,.07.02-.03.06,0,.12.09,0,.08-.04.12.02.03-.04.08-.05.07-.12-.02,0-.05,0-.05-.02Z"/>
        <path class="cls-1" d="M29.07,12.45c.07.02.18.07.23.02-.03-.07-.06-.08,0-.14-.09,0-.17,0-.21.05.08.02-.06,0-.02.07Z"/>
        <path class="cls-1" d="M29.21,13.03s-.15-.03-.16.02c.12,0,.03.11.07.14.07,0,.06-.08.09-.12-.02,0-.05,0-.05-.02.02,0,.05,0,.05-.02Z"/>
        <path class="cls-1" d="M29,8c-.1.05-.45.12-.26.23h-.12s.03-.04.02-.09c-.12,0-.16.06-.14.19.24-.02.44-.09.65-.14-.1-.01-.07-.17-.16-.19Z"/>
        <path class="cls-1" d="M28.93,13.21v.09h.07c0-.06,0-.1-.07-.09Z"/>
        <polygon class="cls-1" points="28.95 8.96 28.96 8.95 28.95 8.95 28.95 8.96"/>
        <path class="cls-1" d="M28.93,8.93s.02.01.02.02c0-.01,0-.02-.02-.02Z"/>
        <path class="cls-1" d="M28.14,5.93c-.13-.02-.22-.09-.33-.14-.38.43.25.66.65.72.25-.35.49-.7.56-1.23-.2-.16-.44-.28-.74-.33-.17.17-.32.37-.33.7.02,0,.03.02.02.05.14.07.28.14.42.21-.07.08-.09.21-.16.28-.04-.03-.12-.03-.14-.09.02-.05.06-.08.05-.16ZM28.48,6.3c.09-.15.16-.51.3-.67-.02.22-.18.49-.3.67ZM28.37,5.6c0-.15.08-.21.12-.33.09-.01.1.06.16.07-.05.09-.09.19-.14.28-.03-.03-.08-.03-.14-.02Z"/>
        <path class="cls-1" d="M28.62,13.1c.06,0,.05.04.12.02.02-.07,0-.2-.07-.12.1,0,0,.04-.02.05,0-.03-.03-.03-.02-.07-.05.02-.18-.04-.16.05.04.04.17-.09.16.07Z"/>
        <path class="cls-1" d="M28.46,8c-.02-.08-.06,0-.14-.02-.01.08-.06.13-.09.19.26-.03.46-.13.72-.16-.03-.19-.34-.11-.28-.4-.17.03-.16-.11-.26-.14,0,.04,0,.09-.02.09-.17-.07-.53.08-.49.28.14-.08.3-.13.46-.12-.06.04-.22.11-.07.16-.1,0-.17.05-.23.09.22-.02.45-.17.67-.12-.15,0-.23.05-.28.14Z"/>
        <path class="cls-1" d="M28.67,13.42c.07-.02.04.05.05.09.05,0,.08-.04.09-.09-.02-.02-.13-.05-.14,0Z"/>
        <path class="cls-1" d="M28.48,13.66c.08-.04.06.02.14.02,0-.04,0-.07.02-.09-.1.02-.17-.07-.16.07Z"/>
        <path class="cls-1" d="M28.55,10.51c-.09-.04-.05-.18-.05-.23-.02.08.08.08.12.05-.15-.09-.39-.34-.23-.51-.06,0-.11,0-.12-.05.02-.03.04-.07.07-.09.02.14.1.21.19.28.01.03-.09.06-.02.07.11-.07-.04-.18-.02-.3-.07.06-.14-.05-.09-.09.03,0,.02.04.05.05-.03-.13-.08-.23-.16-.3-.08.08.11.19-.05.21.04-.14-.18-.14-.05-.23-.06.01-.09.04-.09-.05,0-.04.05-.02.07,0,0-.1-.13-.07-.12-.19.07.07.04-.06,0-.07.02.08-.06.02-.07,0,0-.04.08-.02.07-.07-.16-.07-.35-.21-.39-.4-.05,0-.05.03-.07.05-.14-.07-.23-.21-.42-.23,0-.08-.08-.08-.09-.14-.29-.1-.65-.05-.91-.07-.31-.02-.53.16-.74.12.35-.21,1.08-.22,1.51-.14-1.85-.5-3.44,1.13-2.91,3.05.04.26.16.47.28.68.1.17.29.29.19.33.36.39.8.81,1.47.81-.9-.22-1.65-1.01-1.81-1.98-.02-.11-.02-.25.02-.28-.09-.18-.07-.52.05-.67.08.07-.11.2,0,.23-.02-.04.05-.1.05-.05-.13.23-.04.49-.02.77.11.04.16.17.12.23.08.03.13.07.21.09,0-.09.06-.11.12-.14-.03.03-.08.1,0,.12.09-.02-.03-.11.09-.09.01-.04-.03-.14.02-.14.04.09.05.08.12.14,0-.04,0-.07-.02-.09.07-.03.09,0,.14-.02.03-.05-.06-.09,0-.09.08,0,.19,0,.28-.02.03-.05-.06-.09,0-.09.38.1.81-.3,1.23-.37.03-.05-.06-.09,0-.09.08,0,.04.1.07.14.21.09.47.14.63.28.13-.06.31.05.4.12.05-.03.2-.02.14.05.12-.02.13,0,.21.05.08-.12.25-.14.3-.28,0,.02.02.03.05.02-.08.11-.21.16-.28.28.08-.05.16.15.12.02.09-.04.11.11.14.05.11-.05.17-.36.26-.51-.08-.02-.04-.14,0-.16ZM24.32,10.79c-.08-.03-.02-.12-.02-.16.08.03.02.12.02.16ZM24.2,10.07c-.04-.3.1-.56.26-.79-.04-.01,0-.02.02-.02-.08.28-.21.52-.28.81Z"/>
        <path class="cls-1" d="M28.58,13.28s.03-.05.05-.07c-.03-.02-.06-.03-.12-.02,0,.06.04.07.07.09Z"/>
        <path class="cls-1" d="M28.55,10.07s-.04.03-.07.02c0,.05.02.1.07.12-.03-.06.07-.11,0-.14Z"/>
        <path class="cls-1" d="M28.37,7.44c-.07.01-.06-.06-.12-.07-.09.18-.26.05-.35.19,0-.04-.03-.05-.02-.09-.1-.01-.13.04-.19.07.07.03.04.1,0,.14.23-.07.47-.14.67-.23Z"/>
        <path class="cls-1" d="M27.51,7.56c.17-.1.4-.16.6-.23-.03-.06-.05-.16-.14-.12.04-.01.04.13,0,.12-.04,0-.06-.02-.07-.05.03-.01.05-.02.07-.05-.24.07-.56.07-.46.33Z"/>
        <path class="cls-1" d="M27.76,7.21h.09c-.02-.06,0-.15-.09-.14v.14Z"/>
        <path class="cls-1" d="M27.65,7.23c-.11.08-.31.08-.4.19.12-.06.4-.08.4-.19Z"/>
        <path class="cls-1" d="M26.81,23.2s0-.05.05-.05c.01.07-.04.07,0,.12.08.01.08-.06.12-.09,0,.03.04.04.05.07-.07,0-.13,0-.12.09.09.02.07-.06.14-.05.07.06-.08.15-.02.12.07,0,.08-.17.14-.09-.08-.01-.03.11-.09.12.04,0,.05-.03.09-.02-.03.09.11.18.09.28.08.04.01-.08.07-.07.05.13.16.08.09.3.26-.14.35-.65.22-.96,0,.04,0,.07.01.12-.03,0-.04-.03-.09-.02,0,.06.1.11,0,.14,0-.09-.15-.05-.16-.07.05-.02.05-.07.09-.09-.13-.04-.19.08-.26.02,0,.03,0,.07-.02.07-.02-.07-.07.01-.12,0,.01-.06.09-.05.07-.14-.18,0-.24.13-.35.07.04.09-.1,0-.09.07.05,0,.05.06.09.07Z"/>
        <path class="cls-1" d="M27.63,22.96s0-.05-.03-.07c.01.02.02.04.03.07Z"/>
        <path class="cls-1" d="M27.55,6.95c.03.1,0,.1-.05.16.09.02.1-.04.14-.07-.06,0-.03-.09-.09-.09Z"/>
        <path class="cls-1" d="M26.51,5.98c.19.11.57.14.84.09.11-.15.2-.47.07-.65.17-.09.22-.4.16-.65-.24-.03-.68-.25-.86-.02-.1.13-.12.43-.02.61-.18.09-.21.4-.19.63ZM27.3,5.53c.13,0,.1.36-.05.4,0-.05.11-.29.05-.4ZM27.07,4.91c.05.02.12.02.16.05-.03.09-.05.2-.07.3-.08.02-.09-.03-.16-.02.02-.11.03-.24.07-.33ZM26.95,5.49c.08-.02.09.03.16.02-.02.12-.05.22-.07.35-.05-.02-.09-.05-.16-.05.01-.12.02-.24.07-.32Z"/>
        <path class="cls-1" d="M27.34,20.71c.09-.06.22-.07.28-.16-.06,0-.07-.04-.14-.02-.02.09-.12.09-.14.19Z"/>
        <path class="cls-1" d="M27.53,7.21c-.08-.03-.07.03-.19.02,0,.13.15.02.19-.02Z"/>
        <path class="cls-1" d="M26.81,7.23c.12.03.07-.08.09-.09.06.06,0-.07.12,0,.01-.1.07-.06.07-.02.04-.09.13-.12.21-.16,0,.03-.01.05-.02.07.06,0,.12,0,.12-.07-.09.02-.07-.06-.14-.05-.15.07-.27.15-.44.19-.03.09.06.05.05.12-.02,0-.05,0-.05.02Z"/>
        <path class="cls-1" d="M27.23,20.64c.03-.07.12-.07.16-.12-.07.02-.06-.03-.12-.02.02.07-.12.09-.05.14Z"/>
        <path class="cls-1" d="M27.34,7.19c-.11-.04.04-.05.05-.12-.22.02-.4.11-.32.26.08-.06.19-.09.28-.14Z"/>
        <path class="cls-1" d="M27.2,21.01c0-.05.16-.07.09-.12.01.07-.13-.02-.12.05.07,0-.06.07.02.07Z"/>
        <path class="cls-1" d="M26.9,21.36c.08-.08.2-.1.23-.16-.02-.04-.28.07-.23.16Z"/>
        <path class="cls-1" d="M27.13,6.93c-.08-.23-.4.05-.51.14.22-.03.28-.17.51-.14Z"/>
        <path class="cls-1" d="M26.97,21.1c-.06.01-.11.05-.14.09.06-.02.14-.02.14-.09Z"/>
        <path class="cls-1" d="M26.86,6.81c-.12.02-.4.07-.51.23.11.05.44-.17.51-.23Z"/>
        <path class="cls-1" d="M25.95,21.52c-.32.03-.52.18-.7.35,0-.03-.04-.03-.07-.02.02.07.02.05,0,.12-.37.31-.43,1.14-.26,1.72.32.54.94,1.18,1.77.91-.73.14-1.65-.36-1.67-1.21.01.13.1.04.16.12.03-.11.03-.24,0-.35.05.05.14.16.19.14-.04-.11.13-.04.21-.05.02-.11-.06-.06-.07-.09,0-.03.03-.05.07-.05.03,0,.02.06.02.09.22-.09.51.02.68-.23-.39-.22-.83-.07-1.05-.37-.17.07-.22-.1-.26-.12.16-.49.49-.8.98-.95ZM25.06,23.29s.08.07.02.07c0,.03.04.02.07.02,0,.02-.02.02-.02.05h-.05c0-.05-.04-.07-.02-.14Z"/>
        <path class="cls-1" d="M26.39,6.81c-.06.11-.26.07-.28.21.12.03.24-.09.33-.16-.03,0-.02-.04-.05-.05Z"/>
        <path class="cls-1" d="M26.2,6.79c-.1.08-.27.09-.33.21.09.02.37-.09.33-.21Z"/>
        <path class="cls-1" d="M26.16,25.2v-.09s-.07,0-.09.02c0,.06.03.08.09.07Z"/>
        <path class="cls-1" d="M25.97,13.07c.07-.01.08.04.16.02.03-.08-.16-.06-.16-.02Z"/>
        <path class="cls-1" d="M23.5,8.91s.02.07,0,.12c-.01.03-.08.05-.09.07-.05.12-.04.32-.12.47,0,.02-.06.03-.07.05-.06.22,0,.62-.07.65.05.2-.05.49.09.72-.06.13.11.58.19.74-.06-.41-.16-.63-.07-.88-.01-.17,0-.61.12-.75-.03-.15.09-.55.21-.63-.03-.32.31-.54.42-.84.13.05.07-.18.16-.09.05-.18.11-.22.28-.23.08-.28.28-.3.47-.42,0-.03-.01-.05-.02-.07.27-.06.41-.23.7-.23-.06.1.09-.01.09.07.14-.17.35-.18.56-.28-.28-.07-.66-.05-.98-.02-.05.05-.17.16-.26.09.01,0,.03-.02,0-.02-.02.09-.16.06-.19.14,0,.08.08-.05.07.02-.27.06-.41.26-.72.37-.08.16-.25.27-.35.35.02,0,.03.02.02.05-.16.14-.33.32-.44.56Z"/>
        <path class="cls-1" d="M25.69,7.07c.06-.16.28-.16.37-.28-.21.02-.34.11-.44.23.03,0,.04.04.07.05Z"/>
        <path class="cls-1" d="M25.65,6.81s.05,0,.05.02c0,.02,0,.05.02.05-.02-.11.06.03.07-.05-.03,0-.01-.03,0-.05-.08,0-.1-.04-.14.02Z"/>
        <path class="cls-1" d="M25.6,6.81h-.09s-.01.05-.02.07c.06,0,.12,0,.12-.07Z"/>
        <path class="cls-1" d="M25.27,21.36c.17-.12.4-.15.51-.3-.36,0-.68-.04-.98-.05-.07.16,0,.39,0,.61.3.07.33-.16.47-.26Z"/>
        <path class="cls-1" d="M25.11,5.58c.06-.28.19-.59.05-.75-.22.13-1.01.18-.79.51.19,0,.25-.12.44-.12-.06.42-.2.77-.23,1.21.46.01.44-.45.54-.86Z"/>
        <path class="cls-1" d="M18.69,21.01s.05.02.02-.02c.01-.1-.08-.31.05-.42-.17-.51-.05-.99-.07-1.54-.02-.56-.06-1.17-.09-1.75-.04-.67.05-1.35-.02-2.02-.02-.18-.11-.41-.35-.35-.03.09.06.04.07.19,0,.09-.04.19-.05.28-.03.39.02.8.02,1.21,0,.47.06,1.05.07,1.56.03,1.31.11,3.62.09,5.1.1.48,0,1.16.09,1.75.46.18,1.07.11,1.68.14,1.26.06,2.65.13,3.61.16.13,0,.33.06.42-.07-1.84-.08-3.69-.12-5.45-.26.06-1.08-.04-2.65-.09-3.96Z"/>
        <path class="cls-1" d="M23.97,24.36c-1.69-.08-3.29-.11-4.98-.21-.12.16-.08.39-.05.56.4.11.67.06,1.12.07,1.29.04,2.62.15,3.93.09-.02-.21-.18-.13-.33-.19.08-.05.28,0,.33-.02,0-.1.02-.24-.02-.3ZM23.6,24.69c-.12-.02-.29.03-.37-.02h.37s0,.06,0,.02Z"/>
        <path class="cls-1" d="M18.94,23.06c-.08.14-.01.35,0,.56,1.72.1,3.42.13,5,.19.03-.2.03-.33.02-.54-1.7-.12-3.25-.11-5.03-.21Z"/>
        <path class="cls-1" d="M18.87,22.01c-.01.21.01.39.07.54,1.69.05,3.45.09,4.96.16.06-.14.03-.3.05-.56-1.57-.13-3.27-.11-5-.19-.03.01-.05.02-.07.05ZM22.64,22.43h.3c-.16.05-.41,0-.61.02.06-.05.21,0,.3-.02ZM22.09,22.41c-.06.05-.21,0-.3.02.06-.05.21,0,.3-.02ZM20.48,22.36c.3-.02.15.07-.02,0,0-.03.02-.01.02,0ZM20.06,22.34c-.09.05-.29,0-.42.02.09-.05.29,0,.42-.02Z"/>
        <path class="cls-1" d="M22.9,21.31c.34,0,.72.02.98.02.05-.07.05-.19.05-.33-1.76-.08-3.25-.09-5.03-.16-.13.09-.02.42,0,.58,1.38.06,3.08.09,4.65.14.13,0,.4.1.35-.14-.65-.15-1.7-.02-2.19-.14.45-.01.82.01,1.19.02ZM19.64,21.24c.14-.04.39.01.65,0-.16.04-.49.04-.65,0ZM20.43,21.29c.09-.09.21-.02.33,0h-.33ZM20.81,21.29s.14-.06.25-.03c-.11.03-.19.04-.25.03ZM21.15,21.29c.05-.05.2-.02.26,0-.09.06-.18,0-.26,0ZM21.43,21.26h.05c.29,0,.14.13-.05,0Z"/>
        <path class="cls-1" d="M18.87,20.34c1.57.03,2.89.06,4.42.12.2,0,.5.08.6-.12-.24-.14-.53-.06-.81-.07-.54-.03-1.14-.06-1.75-.07-.29,0-.62.06-.81-.07,1.15.06,2.1.03,3.37.09v-.33c-1.66-.07-3.48-.1-5.05-.14-.05.15-.04.46.02.58ZM20.5,20.15c-.31.05-.78.02-.98,0,.29-.05.75-.03.98,0Z"/>
        <path class="cls-1" d="M18.85,18.68c-.14.17-.02.31-.02.53,1.43.08,3.08.05,4.47.12.18,0,.52.11.56-.09-.11-.16-.34-.09-.51-.09-1.27-.06-2.74-.02-3.96-.14,1.4-.05,3.39.11,4.47.02.07-.06-.03-.14,0-.23-1.69-.06-3.34-.08-5-.12Z"/>
        <path class="cls-1" d="M18.78,18.12c1.51.07,3.01.12,4.49.12.21,0,.55.07.56-.09-.08-.13-.35-.09-.51-.09-1.06-.01-1.99-.04-2.93-.07-.39-.01-.79.06-1.09-.09,1.53-.05,2.99.04,4.54.07v-.3c-1.47-.04-3.74-.09-5.03-.09-.11.17,0,.36-.02.56Z"/>
        <path class="cls-1" d="M18.73,16.49c0,.2,0,.39.05.54,1.53.02,3.24.04,4.58.09.12,0,.37.07.44-.09-.1-.17-.36-.09-.51-.09-.94,0-1.92,0-2.96-.05-.37-.02-.77.03-1.07-.12,1.42-.05,3.06.06,4.54.05v-.26c-1.71-.1-3.28-.04-5-.12-.03.01-.05.02-.07.05Z"/>
        <path class="cls-1" d="M23.5,4.28s.06-.03,0-.02c.04-.11-.13-.09-.16-.09-.09,0-.2.02-.28.02-.83.01-1.11.02-1.77.02-.97.01-1.73.13-2.33-.07.12-.13.36-.13.54-.14,1.23-.05,3.01.04,4.07-.09.05-.26-.24-.19-.4-.19-1.44,0-3.32.08-4.63.09-.05.14-.03.42.02.53,1.63-.01,3.29-.05,4.93-.07Z"/>
        <path class="cls-1" d="M23.58,15.98c-.23-.25-.86-.16-1.35-.16-.8,0-1.29-.02-1.98-.02-.38,0-.78.05-1-.12.51-.02,1.23-.05,1.72,0,.37.03.94.02,1.82-.02-.02.11.3.05.42.05-.15-.09-.24-.24-.4-.33-1.25.02-2.95-.06-4.07-.02-.06.21.01.35,0,.56,1.47.08,3.29.07,4.84.07Z"/>
        <path class="cls-1" d="M18.52,3.23c.42.05.9-.03,1.37,0,.11.02.11-.04,0-.02h-.21c-.14.02-.32-.03-.4,0,.04-.14-.35-.01-.35-.19.07-.12.25-.09.37-.09,1.19-.06,3.01-.06,4.24-.12v-.21c-1.6-.09-3.19.06-5,.05-.05.15,0,.39-.02.58Z"/>
        <path class="cls-1" d="M22.78,6.33c.18.02.29.13.46.16,0-.13.02-.48-.07-.6-.12.16-.33.23-.39.44Z"/>
        <path class="cls-1" d="M20.39,3.21h.37c.9-.03,1.88.02,2.72-.07-.94-.05-1.86.04-3,.05-.03,0-.08,0-.09.02Z"/>
        <path class="cls-1" d="M22.92,7.91c-.03-.14-.33-.35-.46-.33-.19.03-.17.29-.3.42-.05-.07-.17-.08-.19-.19.04-.15.16-.22.16-.4-.06-.03-.07-.1-.16-.09-.1.25-.31.39-.28.77.26.22.48.48.86.58.07-.17.43-.48.37-.77ZM22.34,8.14c.01-.06.06-.1.07-.16.09.03.13.11.23.14.02.09-.07.07-.05.16-.18.03-.13-.26-.26-.14Z"/>
        <path class="cls-1" d="M22.09,5.42c.31,0,.8.09.86-.14-1.12.06-2.32.05-3.35.07-.21,0-.51.06-.63-.14.12,0,.21-.01.3-.09.68-.05,1.36-.02,2.05-.02.3,0,.62-.02.98-.02.51,0,1.08.07,1.28-.23-1.73,0-3.29.06-5,.07-.04.23-.01.36,0,.56,1.33-.02,2.46-.05,3.51-.05Z"/>
        <path class="cls-1" d="M22.06,6.23s-.03.02,0,.02c.06-.12.17-.17.23-.28-1.36,0-2.42,0-3.72.05v.54c.79.02,1.55-.02,2.61-.02.26,0,.65.08.75-.12-.57,0-1.25.05-1.89.05-.36,0-.89.03-1.05-.14.18.07.4-.03.35-.09.06,0,.07.04.12.05.02-.18.49-.07.6-.05-.02,0-.02-.04,0-.04.04.02.07.05.09.09,0-.05,0-.1.07-.09.32,0,.85-.06,1.05.02.25-.11.76,0,.82-.02-.02,0-.03.02-.02.05Z"/>
        <path class="cls-1" d="M21.64,10.42c-.02.15.03.36-.02.47-.1,0-.19,0-.26-.05-.01-.14.03-.34-.02-.44h-.16c.01.28-.03.62.02.86.21,0,.42,0,.6.02.08-.21-.05-.37.02-.58.1,0,.24-.03.28.05-.01.09-.03.18-.16.14,0,.18,0,.3.02.42.13.01.22-.01.28-.07.04-.21.05-.63-.02-.86-.2-.05-.5-.17-.58.05Z"/>
        <path class="cls-1" d="M21.69,9.96c.04.06,0,.22.05.28.07,0,.1-.04.16-.05.03-.23.09-.43-.02-.61-.13,0-.23-.04-.35,0-.01.12.02.29-.02.37-.02-.05-.15,0-.16-.05v-.28h-.14c.01.18-.03.42.02.56.13.01.3-.03.4.02.01-.14-.04-.35.05-.42.02.05.15,0,.16.05.02.11-.04.13-.14.12Z"/>
        <path class="cls-1" d="M20.92,7.65c-.06-.09.05-.08.12-.05-.04,0-.12-.02-.09.05h.3c0-.06.04-.07.05-.12-.56-.06-1.32.13-2.05.02-.06,0-.2-.03-.23-.12.41.05.75-.23,1.16-.05.03-.07-.08-.02-.05-.09.12,0,.12.09.23.09.1-.07-.11-.09-.05-.12.24.14.63,0,.67.09.1-.1.27-.03.42-.05,0-.11.1-.11.09-.23-1.17,0-1.76.04-2.93.02,0,.23.02.4.02.56.82,0,1.43-.03,2.33-.02Z"/>
        <path class="cls-1" d="M18.59,8.74c.51.04,1.25.02,1.82.02.16,0,.49.08.46-.12-.03.19-.21-.05-.26.02.02,0,.03.04,0,.05,0-.08-.06-.08-.02,0-.03,0-.04-.03-.07,0-.08-.05.08-.05,0-.09-.08.02-.08.02-.09.09-.14-.01-.32-.02-.51-.04-.01.09-.21,0-.21.04-.04-.05.07-.03.17-.04-.25-.02-.51-.04-.75-.07.17-.11.42-.12.68-.14,0,.03-.04.02-.05.05.4-.05.81-.04,1.19,0,.04-.09.06-.2.09-.3h-2.44v.53ZM19.67,8.7s-.21.06-.19-.02c.07,0,.15-.01.19.02Z"/>
        <path class="cls-1" d="M20.76,11.96c-.42-.08-1.15.09-1.54-.05.16-.08.3-.1.47-.02,0-.04,0-.08.05-.07.51.09.78-.04,1.12.05-.02-.11-.02-.23-.05-.33-.63-.02-1.26-.02-2.14-.02-.05.2-.03.46.02.58.73.01,1.29.03,2.23.02-.02-.04,0-.12-.05-.14-.04.09-.05-.01-.12-.02Z"/>
        <path class="cls-1" d="M20.74,9.63c0-.13.07-.18.05-.33-.71.02-1.49-.03-2.16.02-.03.15-.01.32.02.54.68.05,1.27-.03,2.07,0-.14-.08-.28-.17-.51-.09.1.01.22,0,.3.05-.47-.07-.72.01-1.02-.02.15-.02.25-.03.42,0-.14-.12-.55.02-.7-.09.33-.21,1.18-.09,1.54-.07Z"/>
        <path class="cls-1" d="M18.66,10.98h2.07s-.04-.17-.09-.09c.12.04-.12.05-.16,0,.04-.01.14.03.14-.02-.18,0-.13-.03-.19.07-.02-.05-.25-.11-.14-.02-.15.05-.44-.1-.35,0-.09.02-.07-.07-.16-.05,0,.06-.28.08-.33.02.04,0,.23.02.16-.02-.17,0-.31-.03-.44-.07.11-.08.3-.04.4-.14.36.13.77,0,1.14.07v-.3c-.71,0-1.49,0-2.07,0,.01.18-.03.42.02.56Z"/>
        <path class="cls-1" d="M19.92,8.67s-.03,0-.04,0c.02,0,.03,0,.04,0,0,0,0,0,0,0Z"/>
        <path class="cls-1" d="M17.97,24.45h.14c.02-.09.03-.19.02-.3-1.69-.11-3.18-.17-4.89-.21h-.05c-.05.12-.03.41.02.56,1.49.08,2.91.1,4.26.16.23,0,.51.09.65-.02.05-.17-.08-.15-.16-.19Z"/>
        <path class="cls-1" d="M18.11,23.59c0-.21,0-.27,0-.54-1.47-.12-3.38-.14-4.89-.21-.12.13-.05.32-.02.56,1.66.09,3.32.12,4.91.19Z"/>
        <path class="cls-1" d="M18.06,22.5c0-.22.02-.34,0-.58-1.76-.02-3.65-.17-4.91-.14-.03.12,0,.37.02.56,1.81.05,3.23.11,4.89.16Z"/>
        <path class="cls-1" d="M15.41,21.31c.74.04,1.73.04,2.63.09-.03-.25.04-.41,0-.58-1.46-.06-3.32-.08-4.84-.16-.15.08-.06.39-.05.58.62.06,1.7.03,2.26.07Z"/>
        <path class="cls-1" d="M18.01,20.29c.04-.17.08-.37,0-.56-1.48-.08-3.39-.14-4.91-.14-.05.16-.03.44.02.58,1.54.03,3.22.11,4.89.12Z"/>
        <path class="cls-1" d="M17.97,19.19c.06-.21.08-.32.02-.53-.48-.05-.93-.03-1.37-.05-1.13-.04-2.22-.08-3.28-.12-.05,0-.23,0-.25.07-.08.09,0,.39,0,.51,1.64.06,3.38.11,4.89.11Z"/>
        <path class="cls-1" d="M17.94,18.12c.05-.16.08-.45,0-.6-1.85-.03-3.43-.09-4.84-.12-.03.01-.05.02-.07.05-.06.17.01.41.02.58,1.82.02,3.17.09,4.89.09Z"/>
        <path class="cls-1" d="M17.92,17.01c.06-.17.05-.39,0-.56-1.81-.03-3.34-.12-4.91-.09-.05.18-.03.46.02.56,1.69.07,3.46.05,4.89.09Z"/>
        <path class="cls-1" d="M17.9,15.91c.02-.21.09-.4,0-.56-1.67-.12-3.54-.08-4.86-.12-.13.08-.07.44-.05.58,1.44.1,3.21.06,4.91.09Z"/>
        <path class="cls-1" d="M12.92,10.96c1.58.05,3.25,0,4.86.02.02-.16.04-.41,0-.56-1.74.03-2.69-.05-4.35-.02-.13,0-.35-.01-.53.05,0,.17-.02.38.02.51Z"/>
        <path class="cls-1" d="M13.01,11.49s-.05.02-.07.05c-.04.17-.05.36,0,.51,1.63.02,3.22.08,4.84.02.05-.15.07-.41,0-.56-1.97.01-3.01-.03-4.77-.02Z"/>
        <path class="cls-1" d="M17.76,9.88c.04-.2.05-.37,0-.56-1.55-.02-3.63-.06-4.84.02-.04.13-.04.41,0,.53,1.67,0,3.19,0,4.84,0Z"/>
        <path class="cls-1" d="M15.2,8.77c.64,0,1.61,0,2.56,0,.03-.15.03-.39,0-.54-1.47.01-3.29-.03-4.86.02-.04.12-.04.39,0,.51.53.08,1.78,0,2.3,0Z"/>
        <path class="cls-1" d="M17.73,7.67c.04-.13.04-.4,0-.53-1.55-.02-3.32,0-4.86.02-.02.19-.02.37.02.54,1.83.02,3.09-.03,4.84-.02Z"/>
        <path class="cls-1" d="M12.87,6.6c.46.05,1.06-.03,1.37-.02-.24-.11-.49.06-.79-.12.25-.18.46-.02.7-.12.12.14.21-.08.44.05.06-.03.28-.03.28,0,0-.03.03-.03.02-.07.39.09.48-.02.95.05.38-.1,1.18.05,1.35-.09v.07c.08.02.03-.1.12-.07.05.03-.04.07.05.07.09-.03-.01-.08.02-.09.06-.01.09.13.12.07-.03,0-.02-.04-.02-.07h.23c.02-.1.02-.16-.02-.23-1.52.05-3.19.02-4.84.07,0,.18-.02.37.02.51Z"/>
        <path class="cls-1" d="M17.01,5.46c.25,0,.54.06.67-.07-.77,0-1.62.01-2.65.05-.43.01-.95.04-1.37,0-.12-.01-.3-.01-.35-.16.24,0,.52-.02.77-.02.29,0,.56-.06.86-.02.25-.11.79.11,1.05-.07,0,.03-.04.02-.05.05.12-.04.34.01.44-.02-.01,0-.03,0-.02-.02.25.02.41.02.49,0,.05-.01.1.02.19.02.2,0,.31-.09.46.02-.02-.17.15-.03.21-.09.01-.1-.01-.16-.05-.21-1.65.07-3.01.05-4.82.09-.03.16-.01.34.02.53,1.36,0,2.82-.07,4.14-.07Z"/>
        <path class="cls-1" d="M12.85,4.44c1.61-.04,3.18-.01,4.84-.12-.21-.1-.77.04-1.19-.05-.05.01,0,.11-.07.05-.39-.02-.87-.02-1.4,0-.59.02-1.44.13-1.79-.12,1.41-.21,3.06.04,4.44-.21.04-.23-.16-.19-.25-.19-1.73-.02-3.11.11-4.63.12,0,.18-.03.4.05.51Z"/>
        <path class="cls-1" d="M12.8,3.32c.57.07,1.3,0,1.86-.05-.46-.04-1.1.14-1.44-.14.22-.17.53-.09.77-.09.98-.01,2.42-.05,3.68-.14v-.19c-1.53-.06-3.26.05-4.86.07-.05.17.02.33,0,.54Z"/>
        <path class="cls-1" d="M17.43,6.49c-.03.14.13.08.23.09-.02-.09-.12-.1-.23-.09Z"/>
        <path class="cls-1" d="M17.41,6.58c0-.15-.35-.06-.44-.05-.11-.09-.52.09-.63-.05-.05.03-.13.03-.14.09.38-.03.88.06,1.19-.05,0,.03-.04.05.02.05Z"/>
        <path class="cls-1" d="M16.17,6.56c-.19-.02-.36-.07-.44.02.17-.03.29.01.44-.02Z"/>
        <path class="cls-1" d="M16.1,3.25c-.14-.02-.26-.02-.47.02.07.02.41.03.47-.02Z"/>
        <path class="cls-1" d="M15.43,6.58c.1-.03.13,0,.26,0,0-.03.04-.05,0-.07-.05.06-.24-.02-.26.07Z"/>
        <path class="cls-1" d="M15.27,3.3h.21c-.02-.08-.14-.03-.21,0Z"/>
        <path class="cls-1" d="M14.34,6.58c.24,0,.64.02.95-.02-.27-.04-.69-.04-.95.02Z"/>
        <path class="cls-1" d="M7.63,22.64c-.12.02-.12.37-.07.53.37.13.81.08,1.21.09,1.22.05,2.55.11,3.61.12.04-.18.04-.35,0-.53-1.52-.11-3.25-.18-4.75-.21Z"/>
        <path class="cls-1" d="M12.36,22.31c-.01-.21.06-.39,0-.56-1.25-.14-2.33-.09-3.79-.16-.26-.01-.67-.12-1.02,0-.04.2,0,.3,0,.54,1.84.11,3.2.13,4.82.19Z"/>
        <path class="cls-1" d="M11.85,20.12c.14,0,.29.07.47,0,.05-.15.07-.39.02-.56-.78-.11-2.04-.07-3.19-.12-.62-.03-1.32-.16-1.68.05.02.23-.02.37.07.51,1.42.09,2.76.02,4.3.12Z"/>
        <path class="cls-1" d="M8.91,21.1c.97.04,2.31.13,3.42.09-.02-.19.04-.38,0-.51-1.56-.2-2.71-.06-3.96-.16-.26-.02-.62-.13-.81-.02-.08.15-.06.38-.02.56.42.09.98.03,1.37.05Z"/>
        <path class="cls-1" d="M12.26,19.05c.07-.13.11-.41.02-.56-1.63-.05-3.24-.16-4.82-.09-.05.14-.02.38.02.51,1.6.08,3.12.12,4.77.14Z"/>
        <path class="cls-1" d="M12.24,17.98c.07-.12.1-.42,0-.58-1.23-.07-3.52-.13-4.77-.09-.09.12-.05.45,0,.58,1.55.05,3.16.1,4.77.09Z"/>
        <path class="cls-1" d="M12.22,16.87c.07-.1.06-.38.02-.51-.34-.08-.73-.07-1.12-.07-1.09-.01-2.44-.02-3.54-.09-.08,0-.14.1-.21.09.02.22,0,.33.05.51,1.59.03,3.33.14,4.79.07Z"/>
        <path class="cls-1" d="M12.17,15.82c.09-.11.12-.48,0-.58-1.39-.11-3.09-.04-4.51-.12-.08,0-.19.05-.28.07,0,.15-.02.37.02.53,1.67.08,3.1.09,4.77.09Z"/>
        <path class="cls-1" d="M7.4,11.47c-.13.07-.06.42-.05.56,1.51.05,3.25.01,4.72.02.07-.13.11-.36.02-.54-1.87-.06-3.1-.08-4.7-.05Z"/>
        <path class="cls-1" d="M8.26,10.4c-.26,0-.55-.05-.79-.02-.27.03-.18.4-.12.58,1.51.02,3.16-.03,4.7.02.09-.2.08-.4.02-.56-.94-.11-2.53,0-3.82-.02Z"/>
        <path class="cls-1" d="M9.61,9.33c-.84-.01-1.51-.06-2.33.05.02.16-.05.41.05.49,1.52.04,3.2.04,4.72,0,.08-.1.06-.38.02-.51-.84-.11-1.79-.01-2.47-.02Z"/>
        <path class="cls-1" d="M12.06,7.67c.03-.12.04-.34,0-.46-.89-.1-1.89-.03-2.65-.02-.7,0-1.37-.04-2.12.05-.04.12-.03.38,0,.51,1.38,0,3.6.01,4.77-.07Z"/>
        <path class="cls-1" d="M7.94,8.81c1.48-.06,3.15.09,4.12-.07.08-.13.03-.34,0-.49-1.8-.05-3.36,0-4.75.02-.08.15-.04.44-.02.51.2.09.43.03.65.02Z"/>
        <path class="cls-1" d="M11.73,6.58c-.51,0-.95,0-1.49,0-.63.01-1.49.04-1.98-.05-.09.07-.34.08-.35-.07,1.44-.08,2.68.01,4.07-.07.06-.11.08-.19.02-.3-1.86.03-2.67.03-4.75.07-.04.12-.03.37,0,.49,1.41,0,2.93,0,4.47-.07Z"/>
        <path class="cls-1" d="M11.96,5.53c-.1-.1-.26-.04-.37-.05-.13,0-.25,0-.4,0-.7.03-1.9.01-2.63.02-.28,0-.6.09-.79-.12,1.12-.12,2.98.02,4.21-.12,0-.1.05-.17,0-.26-1.83-.01-3.62.02-4.77.07-.04.16-.03.39.02.49,1.4,0,2.96-.04,4.72-.05Z"/>
        <path class="cls-1" d="M8.1,4.49c.09,0,.26.06.26-.05-.11,0-.53.07-.6-.14,1.19-.04,2.28-.07,3.23-.09.32,0,.65.05.98-.07.05-.05.02-.13,0-.19-1.75-.03-3.44,0-4.77.07-.05.15-.01.36,0,.47.22.11.64.02.91,0Z"/>
        <path class="cls-1" d="M8.12,3.42c.25-.02-.05-.03-.02-.02-.06-.01-.33.02-.39-.16.08-.09.22-.1.33-.09.31,0,.68.02.93,0,.86-.07,2.01.02,2.91-.09.06.02.05-.05.09-.05.02-.11-.04-.13-.05-.21-1.37.06-3.22.06-4.72.09-.07.11-.05.37-.02.51.3.12.64.05.95.02Z"/>
        <path class="cls-1" d="M10.1,4.46c.6-.02,1.4.06,1.84-.07-1.17.01-2.11.05-3.35.07.52.04,1.09.01,1.51,0Z"/>
        <path class="cls-1" d="M8.4,4.49c.07-.02.16.04.16,0-.03,0-.01-.03,0-.05-.05.02-.18-.04-.16.05Z"/>
        <path class="cls-1" d="M7.05,2.37s-.03,0-.02-.02c0-.01,0-.03-.02-.02.01.1-.18.04-.12.07.02.05.17.03.16-.02Z"/>
        <path class="cls-1" d="M6.59,24.78c.07-.03.12.08.14.02-.04-.03-.13-.16-.14-.02Z"/>
        <path class="cls-1" d="M2.07,8.28c-.11-.01-.23.01-.33.05,0,.22-.01.34.07.51.87,0,2.15-.03,2.84-.02.16,0,.55-.06.47,0,.4-.08.58.07.91-.09-.14,0-.19.02-.33,0,.02,0,.05,0,.05-.02-.25.08-.34-.04-.7.05-.03-.07-.18-.05-.23,0-.41-.05-1.05-.07-1.51-.02-.25-.09-.59.05-.79-.07.17-.1.38-.04.53-.05-.01,0-.03-.02,0-.02.77.09,1.3-.07,1.96.05.04,0-.01-.04.02-.05.36.06.55.05.91.02-.02,0-.05,0-.05-.02.16.09.3-.03.4.05,0-.07.12-.04.19-.05.04-.1.03-.17.05-.26-.21-.08-.44-.07-.74-.07-1.07,0-2.79.12-3.7.02Z"/>
      </g>
      <path class="cls-1" d="M5.73,7.7c.06.05.36.08.44,0,0-.03.03-.04,0-.05-.5.09-.97-.07-1.44.05-.43-.07-1.03-.02-1.56-.02-.25,0-.54.05-.72-.09,1.45-.14,2.48,0,4.03-.09,0-.11,0-.22-.05-.28-1.96.03-2.97-.03-4.68.05-.03.14-.04.41,0,.49,1.32.03,2.65.03,3.98-.05Z"/>
      <path class="cls-1" d="M2.16,6.74c1.41-.07,2.46-.03,3.96-.12.02.05.25.09.26,0-.65-.02-1.31-.01-2-.02-.56-.01-1.14.07-1.72.02-.1,0-.22,0-.3-.12.4-.05.72-.04,1.12-.05.65-.01,1.42,0,2.05,0,.33,0,.66.03.93-.07.02-.09,0-.09,0-.21-.97-.09-1.56-.02-2.58-.02-.65,0-1.36-.04-2.12.02,0,.03,0,.05-.05.05-.02.18-.02.25,0,.44.15.09.32.08.46.07Z"/>
      <path class="cls-1" d="M2.33,5.65c.29-.02.57,0,.7-.05-.09-.11-.54.09-.7-.16.96-.04,2.14-.05,2.86-.02.25-.09.7,0,1.21-.07.04-.08.03-.2-.02-.26-1.48-.03-2.46-.01-4.17,0-.11,0-.41-.03-.54.07v.42c.14.15.41.09.65.07Z"/>
      <path class="cls-1" d="M2.89,4.53c-.2-.08-.43.04-.56-.16.15-.11.29-.03.44-.02,1.01.07,2.51-.04,2.96-.05.23.04.43.04.65-.02.02-.09.02-.16,0-.26-.63-.04-1.05-.01-1.63,0-1.14.02-2.33-.04-3.07.07-.06.1,0,.24-.02.42.3.2,1,.04,1.23.02Z"/>
      <path class="cls-1" d="M6.21,7.74s.24,0,.16-.07c-.03.09-.21-.06-.16.07Z"/>
      <path class="cls-1" d="M6.24,8.72c-.05.03.03.06-.02.07,0-.03-.03-.04,0-.07-.1.03-.15-.02-.19.07.14.01.3.05.37-.05-.07-.03-.07,0-.16-.02Z"/>
      <path class="cls-1" d="M1.68,3.46s.13,0,.07.07c.37.03.89-.02,1.16-.02-.17-.16-.49.04-.63-.21.24-.13.53-.04.84-.02.22.01.46,0,.67,0,.8-.03,1.66-.03,2.56-.09-.01-.13.04-.18-.02-.26-.82-.13-1.62.07-2.44-.05-.27.06-.81.06-1.19.07-.4,0-.85-.07-1.07.09.05.13-.04.29.05.42Z"/>
      <path class="cls-1" d="M6.03,5.58s-.03-.02-.02-.05c-.07,0-.26.02-.21.07.05-.02.1,0,.16-.05-.04.06.08.07.07.02Z"/>
      <path class="cls-1" d="M4.7,5.6c.37.04.5-.02.84,0-.19-.13-.5-.03-.64-.05.01,0,.02,0,.01.02-.05-.02-.2-.06-.21.02Z"/>
      <path class="cls-1" d="M5.24,24.41s.04.07.12.05c0-.09-.08-.07-.12-.05Z"/>
      <path class="cls-1" d="M4.96,23.29c-.04.08.08.01.07.07-.08-.02-.07.04-.12.05-.05-.05.01-.05.02-.09-.1-.01-.08,0-.16-.02-.03.16.18.05.09.16.08-.05.1-.01.14-.02-.02,0-.03-.02-.02-.05h.09s0-.05.02-.05c0,.04-.02.08-.05.09,0-.01-.02-.03-.02,0,.07.07.07-.05.14-.05,0,.03-.03.04,0,.05,0-.08.08.05.07-.02-.09-.04.09,0,.05-.07-.09-.03-.24-.01-.33-.05Z"/>
      <path class="cls-1" d="M4.7,23.36s-.06.03-.07,0c0-.03.04-.04.05-.07-.09,0-.21-.03-.28.09-.06-.06.04-.02.02-.09-.04,0-.06-.05-.12-.05,0,.1-.08-.01-.14.05,0-.02,0-.05-.02-.05,0,.03-.01.05-.02.07.07.07.18.09.21.02.06.13.18,0,.28-.02v.09c.07-.04.09.09.12.02-.08,0,.05-.08-.02-.07Z"/>
      <path class="cls-1" d="M4.42,5.6s.05-.02.09.02c-.02-.08.2.05.14-.07-.08.05-.17-.05-.23.05Z"/>
      <path class="cls-1" d="M4.52,22.24c.03.07-.08.02-.05.09.04,0,.07,0,.09-.02,0,.03,0,.05.05.05.02-.09-.06-.08-.09-.12Z"/>
      <path class="cls-1" d="M3.89,22.22c.05.13-.14.06-.07.09.05.08.07-.07.14-.05-.01.1.11.03.12,0,0,.03,0,.07.02.07.04-.15-.13,0-.21-.12Z"/>
      <path class="cls-1" d="M4.07,23.27c-.06,0-.05.04-.09,0,.02.06-.05.05-.07.07-.02-.04-.12-.13-.14-.09.06.04.17.1.05.14.05,0,.09,0,.12.02-.02-.1.08-.08.12-.12,0,.04-.03.06,0,.07,0-.03.04-.02.05-.05-.02,0-.03-.02-.02-.05Z"/>
      <path class="cls-1" d="M3.56,5.6s.14.02.17-.02c.09.08.16-.02.3.05-.19-.16-.74,0-.98-.07.06.13.22.05.3.02-.09.07.18.03.2.02Z"/>
      <path class="cls-1" d="M3.35,4.56c.13,0,.16-.03.23,0,0-.12-.21-.08-.23,0Z"/>
      <path class="cls-1" d="M3.47,23.38c.08,0,.07-.07.12-.09-.06,0-.1.01-.12.05.03,0,.02.02,0,.05Z"/>
      <path class="cls-1" d="M3.51,19.08s-.08-.09-.09.02c.05.09.16-.07.09-.02Z"/>
      <path class="cls-1" d="M3.35,21.17s0,.12.09.09v-.09c-.05.03-.09-.06-.09,0Z"/>
      <path class="cls-1" d="M3.1,4.56c.08-.01.09-.04.14.02,0-.05.03-.05.05-.07-.05,0-.16-.02-.19.05Z"/>
      <path class="cls-1" d="M2.93,4.56h.12v-.05s-.13,0-.12.05Z"/>
      <path class="cls-1" d="M1.82,25.69c0-.11.1-.07.19-.19-.06-.02-.12.1-.12,0-.07.05-.09-.04-.12,0,.06.03-.2.04-.12.09.09-.04-.02.1,0,.09.09-.03.07-.09.09-.14,0,.03.04.02.05.05-.03,0-.03.05-.05.07.03,0,.05.01.07.02Z"/>
    </g>
  </g>
</svg>