<?xml version="1.0" encoding="UTF-8"?>
<svg id="Layer_2" xmlns="http://www.w3.org/2000/svg" viewBox="0 0 41.76 30.3">
  <defs>
    <style>
      .cls-1 {
        fill: #2c489e;
      }
    </style>
  </defs>
  <g id="Layer_1-2" data-name="Layer_1">
    <g>
      <path class="cls-1" d="M41.62,5.34c-.25-1.42-.82-1.52-1.81-2.6-.66-.72-1.48-1.24-2.34-1.9-.12-.09-.22-.22-.35-.3-.13-.07-.29-.13-.44-.15-.45-.06-.91-.11-1.37-.13-1.33-.05-2.66-.08-3.99-.12-1.47-.04-2.94-.08-4.41-.1-1.89-.03-3.79-.04-5.68-.05-.99,0-1.97,0-2.96,0-2.02.01-4.04.03-6.06.06-1.32.02-2.65.04-3.97.09-1.15.04-2.29.09-3.43.17-.93.07-1.72.47-2.3,1.23-.23.3-.48.6-.69.92-.12.18-.32.32-.33.57,0,.01-.02.02-.03.03-.08.07-.17.13-.24.21C.48,4.01.08,4.91.04,5.95.02,6.6,0,7.26,0,7.91c.01,1.09.04,2.19.08,3.28.03.88.04,1.76.1,2.64.1,1.34.21,2.69.36,4.03.16,1.49.35,2.98.57,4.47.19,1.3.45,2.59.69,3.88.12.69.32,1.34.71,1.93.23.35.48.66.83.89.69.44,1.46.65,2.27.69.63.03,1.26.03,1.89.03.21,0,.22.16.32.3.11.15.36.15.53.16.54.01,1.08.04,1.62.06,1.29.05,2.59-.03,3.88-.05.62,0,1.24-.04,1.86-.02.62.02,1.23-.11,1.85-.07.58.04,1.13.01,1.71-.01.26-.01.53.06.79.04.3-.02.56-.07.86-.06,1.21.07,2.44,0,3.65,0,1.32,0,2.63.04,3.95.04,1.24,0,2.5.06,3.73-.06.42-.04.81-.02,1.23.01.11,0,.35.05.44-.05.12-.12.36.11.5.11.39,0,.79,0,1.18,0,.21,0,.24-.06.14-.25-.05-.11-.1-.23-.15-.36.1,0,.18-.02.26-.02.37,0,.74-.03,1.11-.12,1.02-.24,1.82-.8,2.39-1.68.33-.52.51-1.09.62-1.68.22-1.15.43-2.3.61-3.46.34-2.12.59-4.25.75-6.39.11-1.48.22-2.97.29-4.45.06-1.33.07-2.66.11-4,.02-.81,0-1.63-.13-2.43-.25-1.42.14.8,0,0-.25-1.42.14.8,0,0-.25-1.42.14.8,0,0-.25-1.42.14.8,0,0ZM.82,12.31s-.02,0-.03,0c0-.1-.02-.2,0-.3.02-.1-.12-.2.04-.31,0,.22,0,.42,0,.61ZM.98,5.12c-.1.17-.14.38-.17.58-.03.2-.02.41-.03.62,0,.19,0,.37,0,.55,0,.24.02.48.03.72,0,.33,0,.66-.01.99,0,.22,0,.44.01.66,0,.34.03.68.03,1.02,0,.23-.04.47-.04.7,0,.21,0,.41.01.62,0,.03-.01.05-.02.08h-.06c-.01-.16-.02-.32-.03-.48.01,0,.02,0,.03,0-.02-.03-.06-.06-.06-.09-.02-.33-.03-.65-.04-.98-.02-.62-.06-1.23-.07-1.85-.02-.65-.02-1.31-.03-1.97,0-.71.21-1.34.64-1.9-.07.24-.07.49-.2.72ZM1.63,18.53c-.04-.58-.06-1.17-.1-1.75-.03-.47-.06-.95-.09-1.42-.03-.57-.07-1.14-.09-1.71-.05-1.17-.09-2.33-.12-3.5-.02-.83-.04-1.67-.04-2.5,0-.61,0-1.23,0-1.84,0-.4.07-.79.3-1.14.1-.15.21-.29.32-.42.41-.46.94-.67,1.53-.71.75-.04,1.5-.04,2.26-.06.93-.02,1.85-.05,2.78-.07,1.75-.04,3.49-.07,5.24-.11,1.01-.02,2.02-.04,3.03-.05,1.09-.01,2.18-.02,3.27-.03,1.16,0,2.33-.03,3.49-.02,1.67,0,3.34.02,5.01.06,1.3.03,2.59.08,3.89.13.92.03,1.85.09,2.77.13.99.04,1.99.08,2.98.11.47.02.92.07,1.35.27.44.21.77.54,1,.96,0,.01.02.03.02.05,0,.01,0,.02,0,.03-.16-.2-.32-.41-.49-.59-.28-.3-.63-.46-1.02-.55-.55-.12-1.12-.09-1.68-.11-.7-.02-1.39-.04-2.09-.07-1.11-.05-2.21-.1-3.32-.15-.69-.03-1.37-.06-2.06-.08-.67-.02-1.35-.04-2.02-.05-.89-.02-1.78-.03-2.67-.03-.53,0-1.06,0-1.6,0-.53,0-1.06,0-1.59.01-.49,0-.98,0-1.48,0-.54,0-1.09,0-1.63,0-.58,0-1.15,0-1.73.01-1.46.02-2.91.03-4.37.05-.76.01-1.51.04-2.27.06-.47.01-.93.02-1.4.03-.31,0-.61.03-.92.04-.5.01-1.01,0-1.51.02-.63.01-1.25.04-1.88.05-.41,0-.81-.01-1.22.01-.51.03-.98.16-1.39.5-.18.15-.34.3-.47.49-.26.41-.34.86-.36,1.33-.01.41-.02.82-.02,1.23,0,.44.02.87.03,1.31,0,.32,0,.64.01.96.01.58.03,1.16.04,1.75.01.61.02,1.22.04,1.83.01.44.05.89.07,1.33.03.54.05,1.08.08,1.61.02.43.06.86.08,1.29.01.23.03.45.04.68.04.54.07,1.07.11,1.61,0,.09.02.17.03.26-.01,0-.03,0-.04,0-.01-.05-.04-.09-.04-.14-.04-.37-.09-.74-.11-1.11ZM40.16,13.27c-.04.79-.1,1.58-.15,2.37-.03.43-.05.86-.09,1.29-.07.83-.14,1.66-.21,2.49-.05.6-.1,1.2-.17,1.79-.07.62-.15,1.23-.22,1.85-.03.27-.05.54-.12.79-.05.19-.04.38-.06.56-.02.25-.05.51-.12.76-.13.44-.22.89-.47,1.29-.02.03-.03.07-.03.11-.02.24-.15.43-.3.6-.07.08-.15.14-.22.22-.02.02-.03.06-.04.09-.02.06-.02.14-.07.18-.22.21-.46.39-.77.44-.09.02-.18.07-.27.08-.47.07-.93.14-1.41.07-.25-.03-.5-.03-.75-.03-1.71-.02-3.41-.04-5.12-.05-1.15,0-2.3,0-3.45.01-.95,0-1.9,0-2.84,0-.24,0-.47.02-.71.02-.2,0-.36-.13-.56-.14-.29,0-.57.02-.86.03-.26,0-.53.01-.79.02-.29,0-.56.15-.85.16-.21,0-.43-.02-.65-.02-.65-.02-1.3-.06-1.94-.07-1.2-.02-2.4-.02-3.59-.02-.48,0-.96,0-1.44.01-.95.02-1.89.04-2.84.06-.6,0-1.19,0-1.79,0-.51,0-1.01.05-1.52.04-.42,0-.85-.03-1.25-.18-.32-.12-.59-.32-.83-.56-.42-.43-.67-.95-.87-1.51-.17-.48-.22-.98-.27-1.47-.16-1.69-.33-3.38-.47-5.08-.1-1.25-.17-2.49-.25-3.74-.06-1.03-.12-2.06-.16-3.1-.04-1.11-.06-2.22-.08-3.33-.02-.89-.02-1.77-.03-2.66,0-.33,0-.66.02-.99.02-.37.18-.68.41-.97.17-.2.36-.37.57-.51.31-.21.65-.3,1.01-.31.43,0,.86.02,1.28.01.37,0,.73-.03,1.1-.05.47-.02.93-.04,1.4-.05.31-.01.63-.03.95-.04.31,0,.63.02.94,0,.95-.02,1.89-.05,2.84-.07.5-.01,1,0,1.5-.01.6-.01,1.21-.03,1.81-.05.44-.01.88-.02,1.32-.02.33,0,.66,0,1-.01.25,0,.5-.04.75-.04.38,0,.76.01,1.14.01.49,0,.97,0,1.46,0,.57,0,1.15,0,1.72,0,.96,0,1.91-.01,2.87-.01.63,0,1.26.03,1.89.04.27,0,.53,0,.8.02.83.04,1.66.09,2.49.13.35.02.71.02,1.06.05.53.04,1.06.08,1.59.12.06,0,.11,0,.17,0,.07,0,.16-.04.22-.02.28.12.59.03.88.12.21.06.45.03.68.04.21.01.43.01.64.03.27.02.55.05.82.08.34.04.68.08,1.03.13.04,0,.07.04.1.06,0,.01-.01.03-.02.04-.23-.01-.47,0-.7-.04-.36-.05-.72-.04-1.08-.06-.76-.05-1.53-.08-2.29-.11-1.08-.05-2.17-.12-3.25-.15-1.6-.05-3.21-.09-4.81-.1-2.71-.02-5.42-.03-8.12-.03-1.22,0-2.45.04-3.67.06-.99.02-1.99.03-2.98.06-1.05.04-2.11.1-3.16.15-1.37.06-2.75.12-4.12.2-.28.02-.57.06-.82.16-.53.22-.89.64-.94,1.22-.05.66-.05,1.33-.06,2,0,.57.01,1.14.02,1.71.01.51.03,1.02.04,1.53.02.83.04,1.65.07,2.48.05,1.24.1,2.47.16,3.71.04.71.09,1.41.15,2.12.09,1.02.2,2.04.3,3.06.09.91.19,1.81.3,2.72.05.47.17.92.4,1.33.08.15.19.28.3.4.25.29.51.57.88.7.04.01.08.03.13.02-.1-.06-.21-.11-.3-.18-.14-.11-.27-.22-.39-.35-.15-.17-.28-.35-.42-.52-.02-.02-.04-.05-.04-.08-.07-.27-.14-.54-.21-.81-.07-.29-.14-.58-.2-.86,0-.02,0-.04,0-.06.06-.3-.06-.57-.13-.85-.03-.15-.04-.3-.06-.45-.03-.24-.07-.49-.09-.73-.04-.34-.06-.68-.09-1.02-.02-.18-.04-.37-.06-.55-.02-.36-.03-.73-.06-1.09-.02-.21-.07-.41-.1-.62-.01-.09-.02-.18-.04-.27,0-.07-.02-.14-.03-.22-.02-.28-.03-.57-.05-.85,0-.15-.02-.31-.02-.46,0-.25,0-.51-.01-.76,0-.35-.02-.7-.03-1.05,0-.15-.05-.3-.06-.45,0-.1.02-.2.02-.3,0-.05-.02-.1-.04-.15-.02-.06-.07-.11-.07-.17,0-.15.03-.29.03-.44,0-.3,0-.6,0-.9,0-.08.02-.15.03-.23,0-.03,0-.05,0-.08,0-.43-.02-.85-.02-1.28,0-.24.03-.48.04-.72,0-.1-.02-.2-.02-.3-.01-.17-.02-.35-.03-.52,0-.12-.01-.24-.01-.36,0-.27,0-.53,0-.8,0-.16,0-.31,0-.47,0-.13.01-.26.05-.39,0,.03.01.07.02.1.01.53.02,1.06.03,1.59,0,.5.01.99.03,1.49.02.63.05,1.26.08,1.89.01.28,0,.56.06.83.07.31.06.62.07.94,0,.21.02.42.02.63,0,.27,0,.54.12.8.01.02,0,.05,0,.08.04.4.09.79.12,1.19.02.21,0,.42.03.64,0,.1.05.2.09.34-.04.08-.04.22,0,.36,0,.03.03.06.03.09-.02.16.03.3.06.45.05.28.05.57.09.85.02.17.08.34.1.52.06.39.1.78.16,1.17.06.4.14.79.2,1.19.07.49.11.98.19,1.46.05.33.1.66.23.96.14.33.44.54.76.69.16.07.33.14.5.2.07.02.15.01.22.01.03,0,.07-.03.08-.05.1-.17.14-.18.33-.18.52,0,1.03,0,1.55,0,.18,0,.36,0,.54,0,.04,0,.08,0,.12,0,0-.01,0-.02,0-.04-.11,0-.22-.03-.33-.03-.28,0-.56,0-.84,0-.26,0-.52.03-.78.04-.05,0-.11-.04-.16-.06-.02,0-.04-.02-.06-.03-.18-.05-.35-.11-.53-.15-.11-.02-.19-.06-.26-.15-.2-.25-.36-.53-.5-.82-.28-.55-.33-1.16-.43-1.75-.12-.74-.19-1.5-.28-2.25-.06-.49-.11-.98-.16-1.46-.03-.26-.06-.51-.08-.77,0-.04.04-.08.06-.12.01,0,.03,0,.04.01.01.08.03.15.04.23.08.73.14,1.46.23,2.19.12.96.26,1.92.4,2.87.05.36.09.72.3,1.04.25.39.58.66,1.06.67.58.01,1.16,0,1.74,0,.67,0,1.33-.02,2-.04.34,0,.68-.04,1.02-.04.62,0,1.24.03,1.85.04.18,0,.36,0,.54,0,.15,0,.2.06.2.2-.26.02-.52.03-.78.05.11,0,.21.02.32.03,0,.02,0,.04,0,.05-.07.02-.14.05-.21.06-.24.04-.48.08-.72.12-.11.02-.23,0-.35,0-.07,0-.14,0-.21.01,0,.02,0,.04,0,.06.19,0,.37,0,.56,0,.32,0,.64,0,.96.02.07,0,.14,0,.21,0,.06.01.12.04.18.06,0,0,0-.01.02-.03.03.06.04.14.08.16.04.03.12,0,.19,0,0-.39-.05-.77.05-1.18.09.17.24.19.38.2.17.01.34-.01.52-.01.12,0,.23,0,.35,0,.1,0,.21.01.31,0,.25-.04.35,0,.4.24.04.2.07.42-.05.61-.02.04-.09.08-.14.08-.54,0-1.07,0-1.6,0-.05,0-.09.01-.14.02,0,.01,0,.03,0,.04.69,0,1.39,0,2.1,0,0-.37,0-.72,0-1.07.08-.02.14-.03.2-.04,0,.02-.01.05-.02.11.09-.03.17-.05.25-.08.03.01.07.05.11.05.11,0,.22,0,.34,0,.21,0,.42,0,.62-.02.05,0,.1-.04.16-.08.02.07.09.08.19.07.03,0,.1.04.11.07.11.27.07.56.05.84,0,.04-.02.08-.03.13h.2c0-.3,0-.59,0-.87v-.05c0-.23,0-.21.21-.13.18.06.4.09.55-.04.07.03.12.08.17.07.09-.02.21.03.26-.09,0,0,.03-.01.03-.01.21.1.41-.02.62,0,.13.01.19.07.19.19,0,.27.01.55,0,.82,0,.13.04.15.15.12,0-.27,0-.54,0-.8,0-.09,0-.18,0-.27,0-.08.03-.1.11-.09.14.02.27.05.41.05.17,0,.34-.02.52-.02.2,0,.39,0,.59,0,.08,0,.16-.02.25-.03.03,0,.07,0,.08.01.03.07.08.14.08.21.01.24.01.47,0,.71,0,.07-.04.13-.06.21,0,0,.02.01.05.01.18.03.18.02.17-.16-.02-.3-.03-.6-.05-.89,0-.1.02-.15.14-.13.15.03.3.05.45.07.02,0,.04-.02.07-.03.06-.04.13,0,.2,0,.11.02.23.01.34,0,.22-.02.44-.05.66-.05.04,0,.12.07.13.12.03.27.06.54.07.81,0,.15-.06.19-.21.2-.28.01-.56.03-.84.06.39,0,.79,0,1.2,0-.02-.4-.04-.8-.06-1.2.21.02.41.06.61.06.4-.02.79,0,1.19-.04.08,0,.11.01.15.1.15.27.1.55.11.82,0,.1-.04.15-.14.15-.37.01-.74.02-1.11.04-.16,0-.32.03-.48.04,0,.02,0,.03,0,.05,1.35,0,2.7,0,4.04,0q.03-.16.23-.17c.28-.02.56-.06.84-.06.53,0,1.05,0,1.58.01.08,0,.17,0,.26.02-.02.02-.05.03-.09.06.1.05.19.11.3.05.04-.02.1-.01.15-.01.43,0,.87,0,1.3,0,.29,0,.59.03.88.04.09,0,.18-.03.3-.04-.04-.06-.06-.09-.08-.12.12,0,.24,0,.36,0,0,0,0,.02,0,.03-.03,0-.07.02-.11.03.02.01.02.02.03.02.47.01.95.02,1.43.03.56,0,.98-.29,1.33-.69.08-.09-.02-.2.12-.24.1-.03.11-.07.14-.17-.05,0-.11-.02-.16-.03.15-.14.36-.31.27-.54-.08.05-.15.1-.21.18-.28-.48.01-1.08.06-1.58-.42.27-.28,1.05-.44,1.47-.1.25-.25.48-.45.67-.34.33-.77.43-1.22.44-.64,0-1.29,0-1.93,0-.47,0-.94.02-1.41.02-.89,0-1.77,0-2.66,0-.24,0-.48-.04-.72-.06-.03,0-.06-.02-.1-.06.05-.02.09-.04.14-.05.41-.1.83-.06,1.25-.07.34,0,.68,0,1.02.01.68.01,1.36.04,2.04.04.5,0,1-.01,1.49-.03.39-.01.79-.01,1.18-.04.52-.04.86-.32,1.09-.78.14-.28.19-.59.23-.89.02-.11.06-.21.07-.31,0-.06,0-.12-.01-.18.02-.04.05-.09.06-.14.09-.61.17-1.21.25-1.82,0-.03.08-.43-.07-.38-.09,0-.18,0-.27,0-.21,0-.42,0-.64,0-.1,0-.2,0-.3,0,.31,0,.62,0,.94,0,.09,0,.18,0,.28,0,.02.02.09.1.13.09.07-.01-.15-.35-.16-.39.02.18.18.07.18.06-.14-.17.07-.23-.02-.42-.02.05-.04.11-.06.16,0-.05.15-.3.1-.33-.12.04-.15-.03-.08-.2.18.21.07-.26.14-.35.05-.06-.12-.21-.06-.33.08-.16.18-.13,0-.32.3.06.23-.55.25-.71-.74,0-1.45,0-2.16,0-1.17,0-2.34,0-3.5.01-3.45.02-6.9.03-10.35.05-1.04,0-2.08,0-3.11,0-.38,0-.76.02-1.14.02-1.46,0-2.92-.03-4.39-.03-1.49,0-2.98,0-4.46,0-1.28,0-2.55.01-3.83.02-.31,0-.61,0-.92-.01-.03,0-.05-.01-.08-.02,0-.01,0-.02,0-.04.11,0,.22-.02.34-.02,1.26,0,2.53-.02,3.79-.02,2.49-.01,4.97-.02,7.46-.03,1.53,0,3.06,0,4.59,0,1.79,0,3.59-.01,5.39-.02,1.81-.01,3.62-.03,5.44-.04,1.5,0,3.01-.01,4.52-.01.72,0,1.44,0,2.15.01.03,0,.06,0,.09,0,.21,0,.22,0,.21-.22,0-.05,0-.1,0-.14,0-.18,0-.19-.19-.17-.19.01-.38.02-.57.02-.09,0-.18,0-.27-.03-.03-.01-.06-.09-.06-.14,0-.07.06-.13.07-.2,0-.03-.02-.08-.03-.12-.03.03-.09.05-.1.09-.02.07-.02.15-.03.23,0,.09-.02.15-.13.14-.05,0-.11.03-.17.05.08.02.14.03.2.04,0,.01,0,.03,0,.04-.11.01-.23.03-.34.03-.29,0-.58-.01-.87-.01-.38,0-.77.02-1.15.02-.82,0-1.63.01-2.45.02-.63,0-1.26-.01-1.89,0-.77,0-1.54.03-2.31.03-.6,0-1.19,0-1.79,0-1.18,0-2.36.02-3.54.02-.9,0-1.81,0-2.71,0-.12,0-.19-.07-.29-.11-.12-.04-.24-.06-.36-.09-.01,0-.03.02-.07.05.13,0,.23.01.33.02-.02.12-.1.12-.18.12-.78,0-1.57,0-2.35,0-1.02,0-2.03,0-3.05,0-1.28,0-2.56,0-3.84,0-1.41,0-2.82.01-4.23.02-.32,0-.63,0-.95,0-.04,0-.08,0-.12,0,0-.01,0-.03,0-.04.1-.02.19-.06.29-.07.31-.01.62-.02.93-.02.06,0,.11.02.17.01.05,0,.12.01.13-.09,0-.03.1-.07.15-.08.13,0,.17-.07.16-.19-.02-.17-.03-.33-.04-.5-.01,0-.03,0-.04,0-.04.12-.08.24-.13.35-.06.14-.12.27-.2.4-.03.04-.13.04-.2.03-.03,0-.06-.09-.06-.14,0-.57,0-1.13-.02-1.7-.01-.73-.03-1.47-.05-2.2-.03-1.1-.07-2.2-.1-3.31-.02-.61-.02-1.21-.04-1.82-.01-.45-.03-.91-.04-1.36-.01-.43-.02-.85-.02-1.28,0-.23,0-.46,0-.68,0-.04.01-.07.01-.1.1.02.19.04.29.06,0,.05.02.13.03.21.03.65.06,1.29.09,1.94.04.95.08,1.89.11,2.84.02.68.04,1.36.06,2.04.03,1.49.06,2.97.08,4.46,0,.07.01.13.03.2.11-.19.18-.39.17-.62-.03-.7-.04-1.41-.06-2.11-.04-1.35-.08-2.7-.11-4.05-.02-.77-.03-1.55-.05-2.32,0-.32,0-.63-.02-.95,0-.28-.03-.57-.04-.85,0-.15.01-.29.01-.44,0-.12-.01-.23-.02-.38.04.03.05.04.05.04.06-.04.12-.1.19-.11.02,0,.09.09.1.14.03.1.04.2.05.31.05,1.1.09,2.2.13,3.3.03.96.06,1.93.09,2.89.03.95.05,1.89.07,2.84,0,.24,0,.48-.01.73,0,.06,0,.12.01.18.01,0,.03,0,.04.01.04-.11.11-.23.13-.34.02-.15,0-.3,0-.45,0-.21-.02-.42-.02-.63-.02-.89-.04-1.77-.06-2.66-.02-.72-.03-1.44-.05-2.16-.01-.46-.04-.93-.05-1.39-.01-.57,0-1.13-.02-1.7,0-.22-.03-.44-.04-.66,0-.05,0-.1.01-.15,0,.02,0,.05.01.07,0,0,0,0,.01,0,0-.05,0-.1,0-.14,0-.09.04-.17.14-.18.1-.02.13.07.15.15.03.19.07.37.07.56.03.79.06,1.58.08,2.37,0,.12-.01.22-.13.28-.11.06-.15.15-.12.29.07.4.1.81.16,1.22.05.35.13.71.16,1.06.04.5.06,1.01.07,1.51.01.49,0,.98.01,1.47,0,.04.01.07.03.11.12-.21.24-.41.19-.66-.03-.15-.05-.3-.05-.45-.01-.42-.02-.84-.03-1.26,0-.07.01-.13.03-.21.16.18.44.25.39.58-.02.15,0,.3,0,.45,0,.05,0,.09.02.17.04-.04.07-.06.07-.08.04-.19.08-.38.12-.56,0-.03,0-.08.01-.08.1-.04.2-.07.25-.17.02.02.07.05.06.07-.01.08-.03.16-.06.24-.07.18-.17.36-.23.55-.04.13-.04.27-.04.41.01,1.17.03,2.34.05,3.51,0,.29.03.58.04.87,0,.1.04.13.14.07.16-.09.32-.16.49-.23.08-.04.13.03.15.1.03.13.12.18.27.23-.02-.2-.03-.38-.05-.57-.16.06-.31.14-.43-.07.15-.01.28-.02.43-.03v-.31c-.05-.05-.08-.09-.12-.12.03,0,.06-.01.12-.03,0-.1,0-.21,0-.33,0-.2,0-.4,0-.6,0-.02,0-.03,0-.05-.02-.1-.08-.13-.15-.07-.01-.08-.03-.17-.04-.25.01,0,.02,0,.04-.01.01.04.02.09.04.12.01.02.04.04.07.06.02-.02.04-.04.05-.06.02-.13,0-.18-.13-.13.2-.12.1-.28.11-.42-.22-.02-.1.16-.14.24-.01,0-.03,0-.04,0,0-.08,0-.17,0-.27h.2c-.01-.1-.02-.19-.04-.27,0,0-.09,0-.16.02.03-.02.05-.04.07-.05.04-.02.11-.03.11-.05,0-.08-.01-.16-.03-.23,0,0-.09,0-.15,0,.06-.01.11-.03.17-.04.04-.19.01-.28-.09-.31.04,0,.07,0,.1-.01,0-.24,0-.48,0-.71,0-.03-.05-.09-.07-.08-.04,0-.09.04-.13.06-.04,0-.1-.03-.16-.04-.13,0-.27,0-.4-.01-.15-.01-.18-.08-.11-.22.02-.04,0-.1.01-.14,0-.03,0-.06,0-.09.04-.13.08-.26.14-.38.03-.05.1-.1.16-.11.11-.03.23-.03.35-.04.13-.01.22-.07.21-.22,0-.03,0-.06.02-.09q.12.02.26-.16c.02.09.05.18.05.27,0,.4,0,.8,0,1.19.01,1.06.03,2.11.05,3.16,0,.37,0,.73.01,1.1,0,.11.03.21.06.35.11-.06.21-.09.3-.15.14-.09.27-.11.41,0,.05.04.12.06.17.09.1.06.12,0,.12-.08-.01-.52-.03-1.04-.04-1.56,0-.41,0-.81-.01-1.22,0-.07-.03-.13-.05-.19,0-.01.02-.03.05-.06h-.2v-.03h.17c.06-.2.02-.58-.06-.61.16-.08.04-.21.07-.32,0,0-.02-.01-.03-.02-.03.03-.05.05-.07.07-.04-.02-.08-.04-.12-.06.04-.11.23.09.22-.11,0-.06.04-.15-.04-.16.01-.06.04-.12.04-.19,0-.27-.01-.54-.01-.81-.01-.8-.02-1.6-.03-2.39-.02-.9-.04-1.81-.06-2.71,0-.03,0-.06-.02-.12-.23.49-.37.98-.61,1.43-.02,0-.03,0-.05-.01,0-.04-.01-.08,0-.11.1-.28.08-.55.04-.84-.05-.38-.04-.76-.04-1.14,0-.39,0-.78,0-1.16,0-.06.03-.14.07-.17.04-.03.12-.02.19-.03v.19c.07.02.09.09.09.2,0,.49,0,.98.02,1.46,0,.1.02.21.04.31.02,0,.04,0,.05,0,.04-.1.09-.19.12-.29.08-.25.14-.5.06-.76-.01-.03,0-.07-.01-.1-.02-.09,0-.14.11-.12.03,0,.05-.01.09-.03-.26-.04-.22-.22-.22-.38,0-.12,0-.24,0-.33.1-.07.18-.13.26-.19.01.02.04.04.04.06,0,.18-.02.37-.03.55,0,.01,0,.03,0,.04.02.07.02.18.06.2.1.05.12-.07.15-.13.05-.1.08-.21.12-.31.09-.22.18-.43.27-.66.11.07.06.14.04.19-.16.4-.31.8-.48,1.19-.07.16-.06.32-.05.48.02.62.04,1.24.05,1.85.03,1.47.07,2.95.09,4.42.02,1.16.03,2.32.05,3.48,0,.38.01.76.03,1.14,0,.19.04.2.2.13.22-.09.43-.09.64-.02.14.05.17.02.17-.13,0-.01,0-.03,0-.04-.09-.28.02-.55,0-.83-.01-.28,0-.55,0-.83,0-.32,0-.65,0-.97,0-.3,0-.6-.03-.89-.01-.12.02-.22,0-.33-.02-.1.01-.19,0-.28-.03-.23,0-.46-.02-.7,0-.31,0-.63-.01-.94,0-.17-.02-.34-.03-.51,0-.07.01-.14.02-.21,0-.13,0-.25-.02-.39-.03.05-.06.1-.1.18-.01-.11-.02-.19-.03-.27q.19-.03.12-.25s0,.07,0,.1c-.01.03-.04.06-.07.09-.01,0-.02,0-.03-.01v-.28s.09,0,.14.01c-.02-1.45-.08-2.89-.05-4.33.02,0,.04,0,.07,0,.05.66.06,1.31.06,1.97.01,0,.02,0,.04,0,.01-.62.02-1.24.03-1.87.02,0,.03,0,.05,0,.01.06.03.13.03.2.02.76.05,1.52.06,2.28.04,1.8.08,3.6.11,5.4.02,1.14.03,2.29.04,3.44,0,.09,0,.18,0,.27.01.21.05.23.24.14.08-.04.16-.06.24-.08.16-.04.31,0,.45.09.03.02.06.03.12.05,0-.08,0-.13,0-.19,0-.21,0-.42,0-.63,0-.6,0-1.2,0-1.81,0-.78-.01-1.56-.02-2.34,0-.63-.02-1.26-.03-1.89,0-.37-.01-.73-.02-1.1,0-.23,0-.46,0-.69,0-.05-.02-.11-.04-.17,0-.04.03-.09.03-.14,0-.9-.02-1.8-.02-2.69,0-.04,0-.07.01-.11.01,0,.03,0,.04,0,.01.06.03.12.04.19.01.44.02.87.04,1.31,0,.05.01.1.04.16.06-.56-.01-1.13.08-1.69.01,0,.02,0,.03,0,0,.04.01.07.01.11.02,1.18.05,2.35.07,3.53.03,1.6.06,3.21.09,4.81.01.96.02,1.93.02,2.89,0,.11,0,.22,0,.34.01.13.05.15.17.09.02-.01.05-.03.07-.04.27-.16.53-.16.8.05-.02-.17-.03-.33-.05-.52-.11.04-.2.07-.31.12.01-.07,0-.14.04-.16.03-.03.11-.04.15-.03.12.03.16.01.16-.12,0-.25.01-.51.01-.76,0-.38,0-.77,0-1.15,0-.33,0-.67,0-1-.06,0-.1-.01-.13-.02h0s.08-.03.13-.04c0-2.59-.07-5.18-.03-7.77.03.6.06,1.2.08,1.8,0,0,.02,0,.03,0,0-.04,0-.08.01-.12.02-.27.03-.54.05-.81,0-.04-.01-.08-.02-.11,0-.06-.02-.13-.02-.19,0-.09,0-.18,0-.27,0-.04.03-.08.07-.11.01.2.03.39.03.59.02,1.04.05,2.08.06,3.12.03,1.9.05,3.81.07,5.71,0,.53,0,1.05,0,1.58,0,.03,0,.06,0,.09.02.21.02.21.22.15.11-.04.23-.07.34-.1.03,0,.06,0,.09.01.08.02.15.05.23.07.04.02.09.04.17.07-.01-.15-.02-.27-.04-.4,0-.05-.03-.11-.02-.15.11-.26.06-.53.06-.79,0-.67,0-1.34,0-2,0-.81-.02-1.61-.03-2.42-.01-2-.02-3.99-.02-5.99,0,0,0-.02,0-.02.01,0,.02,0,.04,0,.02.22.05.43.06.65.02.71.03,1.43.04,2.14,0,.01,0,.03,0,.05.02-1.02.04-2.03.07-3.03h.04c0,.19.02.37.03.56.02.99.03,1.97.05,2.96.02,1.15.04,2.29.05,3.44.01,1.53.02,3.07.03,4.6,0,.1,0,.2,0,.3,0,.08.04.12.13.08.07-.03.14-.06.21-.09.24-.1.39-.08.58.11.02.02.05.03.11.04-.01-.14-.03-.29-.04-.43,0-.02-.03-.05-.02-.07.12-.27.06-.56.07-.85,0-.79,0-1.58,0-2.37-.01-2.63-.02-5.26-.03-7.9,0-.19,0-.39,0-.58.02,0,.04,0,.07,0,.08.96.01,1.92.1,2.88.02-.93.04-1.87.06-2.8.02,0,.04,0,.06,0,.05,4.03.1,8.05.1,12.12.32-.18.62-.35.97-.07.02-.11.05-.2.05-.29.01-.44.02-.89.02-1.33,0-.89-.02-1.77-.02-2.66,0-.75,0-1.51,0-2.26,0-.85,0-1.71,0-2.57,0-.88.02-1.76.02-2.63,0-.04,0-.07,0-.11h.05c.02.73.04,1.46.06,2.2.08-.33.04-.67.06-1.01.01-.34.02-.68.03-1.02.02,0,.04,0,.07,0,0,.97.02,1.94.03,2.91,0,.98.01,1.95.02,2.93,0,.98.02,1.95.02,2.93,0,.98,0,1.95,0,2.96.08-.03.15-.04.2-.07.18-.14.4-.1.6-.11.04,0,.09.05.15.09,0-.05.02-.09.02-.13.02-.54.05-1.09.05-1.63.01-1.01.01-2.02.01-3.02,0-.57,0-1.13,0-1.7,0-.86.01-1.71.02-2.57,0-.71.01-1.42.02-2.12,0-.15,0-.3,0-.46.02,0,.04,0,.07,0,.02.18.04.36.05.53,0,0,.02,0,.03,0,.03-.2.05-.41.08-.61.02,0,.04,0,.06,0,.02,3.93.03,7.85.03,11.8.13-.06.25-.11.37-.16.18-.09.36-.15.52.05.03.03.07.06.13.1-.02-.18-.03-.33-.05-.49,0,0,0,0,0,0,0,0,0,0,0,0,0,0,0,0,0,0-.04,0-.09.02-.13.01-.05,0-.1-.02-.18-.04.15-.12.28-.09.31.03h0c.02-.18.07-.36.07-.54.01-.56,0-1.12.01-1.69,0-.62,0-1.23,0-1.85,0-1.25.02-2.5.03-3.74.01-1.15.02-2.3.04-3.45,0-.05,0-.1,0-.17.17.48.07.97.09,1.45,0,.02,0,.04,0,.06,0,0,0,.01.04.06.02-.1.05-.17.05-.24.01-.44.02-.87.03-1.31,0-.04,0-.08.01-.12.01,0,.03,0,.04,0,0,.04.02.07.02.11,0,.48,0,.97,0,1.45,0,.57,0,1.15,0,1.72,0,.64-.01,1.28-.01,1.91,0,.88,0,1.76,0,2.64,0,1.05,0,2.09,0,3.13,0,.29,0,.59-.01.88,0,.05.01.13.04.14.04.01.11,0,.15-.03.13-.06.25-.13.38-.18.18-.06.3.07.43.19,0-.12,0-.22,0-.33,0-.08-.04-.12-.14-.11-.07,0-.14-.03-.21-.04,0-.02,0-.04,0-.05.12,0,.24,0,.37,0,.04-3.88.09-7.75.13-11.63.02,0,.05,0,.07,0,0,.06.02.12.02.19,0,.68,0,1.36,0,2.04,0,.1,0,.21.02.31.02-.38.04-.77.05-1.15,0-.36,0-.72,0-1.08,0-.05,0-.1,0-.14-.02-.1.02-.13.13-.16,0,.21,0,.41,0,.6,0,1.24-.02,2.48-.03,3.72,0,1.18-.02,2.36-.02,3.54,0,1.2,0,2.4-.01,3.59,0,.2-.01.4,0,.6,0,.16.04.17.18.1.1-.05.19-.1.29-.15.18-.08.35-.09.5.14.02-.13.04-.22.04-.31,0-.09-.08-.07-.14-.06-.1.02-.17-.02-.24-.14.1-.01.18-.03.26-.02.11.01.14-.03.14-.13,0-.53,0-1.06.01-1.59,0-.49.01-.98.01-1.47,0-.4-.01-.8,0-1.2,0-.55.03-1.09.04-1.64.01-.77.02-1.55.03-2.32.02-1.06.04-2.12.06-3.18,0-.03.01-.06.02-.08.01,0,.02,0,.03,0,0,.05.02.1.02.15,0,.73,0,1.46,0,2.19,0,.18,0,.35.01.53,0,.03.01.06.02.1.01,0,.03,0,.04,0,.01-.14.04-.28.04-.42,0-.54,0-1.07,0-1.61,0-.29,0-.58,0-.87.02,0,.06-.02.1-.04-.03,4.06-.06,8.12-.09,12.2.2-.07.36-.18.52-.19.16,0,.32.09.47.14,0-.09.02-.17.02-.26,0-.05-.02-.1-.04-.14-.04-.07-.05-.12.01-.18.04-.04.05-.1.06-.16,0-.57,0-1.13.01-1.7,0-1.04,0-2.08.02-3.12.01-.89.05-1.79.07-2.68.03-1.01.05-2.01.07-3.02,0-.24,0-.48,0-.73,0-.05.01-.1.02-.16.01,0,.03,0,.04,0,.01.76.03,1.52.04,2.28.01,0,.03,0,.04,0,0-.75.08-1.49.01-2.25.03-.01.08-.03.13-.06-.01.26-.03.51-.04.76,0,.29.01.58.01.86,0,.74,0,1.48-.02,2.22,0,.57-.03,1.14-.04,1.71,0,.51,0,1.02,0,1.53,0,1.12-.02,2.23-.03,3.35,0,.45,0,.91-.01,1.36,0,.14-.01.28-.02.45.12-.06.18-.09.25-.12.19-.1.37-.13.56-.02.08.05.16.06.17-.07,0-.04.03-.09.03-.12-.04-.33.06-.65.04-.98-.02-.33,0-.66,0-.99,0-.62,0-1.23,0-1.85,0-.46.03-.91.04-1.37,0-.34.01-.69.02-1.04.02-.69.04-1.37.05-2.06.01-.58.03-1.16.04-1.74.02-.6.03-1.19.05-1.79,0-.03.02-.07.02-.1.01,0,.02,0,.03,0,0,1.05,0,2.11,0,3.16,0,0,.02,0,.03,0,.01-.1.03-.2.03-.31.01-.73.02-1.46.04-2.19,0-.15.03-.31.04-.46,0-.05-.02-.1-.03-.16.02-.01.06-.03.12-.06-.06,4.06-.11,8.11-.17,12.18.09-.04.14-.06.2-.09.13-.05.25-.11.38-.16.13-.05.23-.01.3.11.03.05.07.09.12.15.06-4.06.15-8.1.3-12.13.02,0,.04,0,.07,0,0,.35,0,.69,0,1.04,0,.35,0,.7-.01,1.05,0,.35-.01.71-.01,1.06,0,.35,0,.69.02,1.04.07-1.38.12-2.76.12-4.14-.01,0-.03,0-.04-.01.04-.02.09-.04.15-.07-.09,4.06-.18,8.1-.19,12.17.1-.04.17-.07.23-.11.22-.14.44-.19.66,0,.01.01.04.02.08.03,0-.13.04-.26.02-.37-.03-.15-.2-.08-.29-.16.05,0,.11,0,.16,0,.12.02.16,0,.16-.13,0-.22,0-.44.01-.66.01-1.07.02-2.13.04-3.2.01-.88.04-1.75.07-2.63.02-.59.04-1.18.06-1.77.02-.59.03-1.18.05-1.76.01-.41.03-.82.05-1.23,0-.04.02-.08.02-.12.01,0,.03,0,.04,0,0,.04.02.08.02.12-.01.74-.02,1.48-.04,2.23,0,.22,0,.44.03.66.02-.49.04-.98.06-1.48.02-.48.08-.96.06-1.44-.01,0-.03,0-.04-.01.04-.02.08-.03.14-.06,0,.05.01.08.01.12-.02.73-.04,1.47-.06,2.2-.02.69-.04,1.38-.05,2.07-.01.4-.02.79-.03,1.19,0,.1-.02.21,0,.3.03.1,0,.18,0,.27,0,.11,0,.22,0,.32,0,.11-.01.21-.01.32,0,.06.02.12.04.2,0,.02-.04.06-.04.11-.01.68-.03,1.36-.02,2.03,0,.2-.02.39-.02.58,0,.2,0,.41,0,.61,0,.21,0,.42,0,.62s0,.41,0,.61c0,.17-.02.34-.04.53.18-.08.34-.15.5-.21.04-.02.1,0,.15.01.1.03.2.07.32.12.03-.34.06-.65.08-.96.02-.46.02-.92.02-1.38,0-.29,0-.59,0-.89,0-.2.03-.41.04-.61,0-.11,0-.22-.01-.33,0-.1,0-.2,0-.29,0-.14,0-.28,0-.41,0-.17.03-.33.02-.5-.02-.3.05-.61.07-.92.02-.31,0-.63.02-.95.02-.68.05-1.36.07-2.04.02-.61.03-1.22.05-1.83,0-.23.02-.47.03-.7,0-.06.02-.12.05-.18.05,1.09-.02,2.18-.04,3.27.01,0,.03,0,.04,0,0-.04.01-.07.02-.11,0-.35,0-.69.02-1.04.01-.3.04-.6.05-.91,0-.09-.04-.19-.01-.27.09-.27.07-.55.06-.83,0-.04.04-.09.06-.13.02,0,.03,0,.05.01,0,.05,0,.1,0,.14-.02.22-.05.44-.06.65-.01.36,0,.72,0,1.08-.01.71-.03,1.42-.05,2.14-.03,1.36-.06,2.73-.09,4.09-.01.6-.03,1.21-.04,1.81,0,.5,0,1.01,0,1.51,0,.16-.02.33-.03.49,0,.12.03.14.14.09.07-.03.14-.08.21-.12.17-.09.3-.07.45.06.03.03.08.04.13.04.02,0,.05-.05.05-.07.02-.2.05-.4.05-.6.02-.42.02-.83.03-1.25,0-.3,0-.61,0-.91,0-.16.02-.33.03-.49,0-.16,0-.32,0-.48,0-.26.03-.53.04-.8,0-.46,0-.91.01-1.37,0-.16.02-.32.03-.47.02-.59.03-1.18.05-1.78.03-.96.07-1.92.11-2.88,0-.24.02-.47.04-.71,0-.04.02-.08.06-.12.04.82-.04,1.63-.03,2.45.01,0,.02,0,.03,0,0-.09,0-.17.02-.26.13-.7.11-1.41.12-2.11,0-.03.04-.06.08-.09-.17,3.99-.19,7.98-.27,11.99.1-.04.21-.06.31-.12.16-.09.31-.11.46,0,.02.01.04.02.06.03.04,0,.08.02.12.02,0-.04.01-.08.02-.12,0-.09.01-.18.02-.26.02-.18.06-.37.06-.55.02-.74.02-1.49.03-2.23.01-.7.03-1.39.05-2.09.02-.71.04-1.41.06-2.12.02-.55.02-1.1.05-1.65.04-.85.08-1.69.12-2.54,0-.09.02-.18.03-.26.02,0,.03,0,.04,0-.01.88-.02,1.76-.04,2.64.09-.89.07-1.78.26-2.66-.19,3.97-.22,7.94-.29,11.94.31-.19.63-.3.95-.01.01-.16.03-.29.03-.42.03-.64.06-1.28.09-1.92.02-.5.02-1.01.03-1.51.01-.49.03-.97.05-1.46.03-.99.05-1.98.09-2.97.05-1.11.11-2.23.17-3.34,0-.07.02-.14.03-.21.02,0,.03,0,.05,0-.04,1.13-.07,2.26-.11,3.38.02,0,.03,0,.05,0,.07-1.13.11-2.26.24-3.38.01,0,.03,0,.04,0,0,.15-.01.29-.02.44-.02.5-.06.99-.07,1.49-.03.82-.05,1.63-.07,2.45-.02.66-.03,1.32-.05,1.98-.02.74-.04,1.48-.06,2.23-.02.86-.02,1.72-.04,2.59,0,.18-.04.36-.06.54-.01.11.03.14.12.1.05-.02.1-.04.15-.08.2-.15.45-.14.64,0,.01,0,.03.02.05.03.09-.3.13-.59.13-.89,0-.64.03-1.28.05-1.92.02-.83.04-1.65.06-2.48,0-.38,0-.77.02-1.15.03-.82.07-1.65.11-2.47.03-.58.06-1.16.09-1.75.02-.31.05-.61.07-.92,0-.01,0-.03.01-.04.01,0,.02,0,.04,0-.06,1.64-.12,3.28-.18,4.92.02,0,.03,0,.05,0,.05-.95.1-1.9.14-2.85.02,0,.04,0,.06,0,.03.26-.01.52,0,.77,0,.27,0,.54-.01.8,0,.27-.02.54-.04.81,0,.27-.02.54-.02.8,0,.27-.01.54-.02.8,0,.27,0,.53-.02.8,0,.27-.02.54-.03.8,0,.27,0,.54,0,.8,0,.27-.02.54-.02.82,0,.27-.02.54-.02.8,0,.27,0,.54,0,.8-.01.27-.05.53-.07.81.06-.01.11,0,.14-.03.21-.12.42-.12.65-.06.02,0,.04.01.06.02.13.08.14.08.16-.07.06-.52.12-1.04.18-1.56.06-.58.12-1.15.17-1.73.04-.47.07-.95.1-1.42.05-.7.09-1.4.15-2.09.06-.83.14-1.65.2-2.48.04-.49.05-.98.08-1.46.01-.24.04-.48.06-.72,0-.03.01-.06.02-.09.01,0,.02,0,.03,0,.01.11.04.22.03.33-.02.66-.04,1.31-.07,1.97-.03.72-.08,1.44-.12,2.16-.03.53-.08,1.05-.12,1.58-.03.37-.21.99-.06,1.33.14.33-.11.84-.12,1.2,0,.19-.24,1.35.03,1.37.18-.81.17-1.64.21-2.47.05-.93.13-1.86.24-2.79.02-.14.01-.28.03-.42.01-.09.05-.18.07-.27.05-.16.09-.31.14-.47,0-.02.03-.03.08-.03,0,.06.02.15-.02.18-.09.08-.04.13,0,.17,0,.09,0,.15,0,.21,0,.27,0,.54,0,.81-.02.74-.11,1.47-.14,2.21-.01.39.16.56.21.1.09-.86.03-1.72.1-2.58.02-.19.04-.39.05-.58.02-.45.05-.9.07-1.35,0-.1,0-.2,0-.3,0-.44.02-.87.03-1.31,0-.01,0-.02.03-.06.02.07.03.11.05.2.01-.08.02-.12.03-.17,0,0,.01,0,.02,0,.03.11.07.22.08.34.02.19.08.36.13.54.06.18.02.39.03.59,0,.02,0,.03,0,.05.01,0,.03,0,.04,0,0-.37.01-.73.01-1.1,0-.38.01-.75,0-1.13-.02-.37-.07-.74-.11-1.13.04.03.1.06.12.11.05.14.1.28.12.42.04.18.01.38.08.54.12.28.07.56.08.84,0,.23-.03.47-.04.71,0,.06,0,.11.02.17.01,0,.03,0,.04,0,0-.14,0-.28,0-.42.02,0,.04,0,.06,0-.03,1.6-.03,3.2-.09,4.8,0-.03,0-.06-.01-.12-.01.03-.02.04-.02.05,0,.31.02.61,0,.92-.04.79.02-.3,0,0-.04.79.02-.3,0,0-.04.79.02-.3,0,0-.04.79.02-.3,0,0-.04.79.02-.3,0,0ZM10,3.56h0c.24-.01.49-.01.73-.01h0c-.24.01-.49.01-.73.01ZM11.04,3.53c.23,0,.46,0,.69,0,0,0,0,0,0,.01-.23,0-.46,0-.7,0,0,0,0,0,0-.01ZM11.99,3.5c.4,0,.79,0,1.19,0h0c-.4,0-.79,0-1.19,0,0,0,0,0,0,0ZM13.5,3.47c.46,0,.91,0,1.37,0,0,0,0,0,0,0-.46,0-.92,0-1.37,0h0ZM15.19,3.46s0-.01,0-.02c.55,0,1.1,0,1.66,0,0,0,0,.01,0,.02-.55,0-1.11,0-1.66,0ZM17.39,3.43h0c.19,0,.38,0,.57,0,0,0,0,0,0,0-.19,0-.38,0-.57,0ZM18.53,3.42h0c.65-.01,1.3-.01,1.95-.01,0,0,0,0,0,0-.65,0-1.3,0-1.95,0ZM20.66,3.42h0c.75,0,1.51-.01,2.26-.01,0,0,0,0,0,0-.75,0-1.5,0-2.25,0ZM26.91,3.42c.37,0,.75,0,1.12,0h0c-.37.01-.75.01-1.12.01,0,0,0,0,0-.01ZM28.29,3.46s0,0,0-.01c.21,0,.42,0,.63,0h0c-.21.01-.42.01-.63.01ZM37.17,7.73s-.01-.04-.01-.05c.03-.55.01-1.09.09-1.64,0,0,.03-.02.05-.03-.03.58-.07,1.15-.1,1.71,0,0-.02,0-.03,0ZM37.18,7.81v.23s-.03,0-.04,0c0-.08,0-.16,0-.24.01,0,.03,0,.04,0ZM35.05,4.91v.03c-.16,0-.31,0-.47,0-.05,0-.1.02-.15.02-.03,0-.06,0-.09-.02,0,0,0-.04,0-.04.02-.02.05-.03.08-.03.21.01.42.03.64.05ZM21.87,4.69c-.77,0-1.54-.02-2.31-.01-.99,0-1.97.02-2.96.02-.41,0-.83.02-1.24,0-.17,0-.33-.02-.5-.02-.16,0-.32.03-.47.03-.43,0-.85,0-1.28,0-.53.01-1.05.03-1.58.05-.49.02-.98.02-1.46.04-.34.01-.68.04-1.02.06-.49.03-.99.05-1.48.07-.52.03-1.03.07-1.55.1-.47.03-.94.03-1.41.07-.39.03-.77.07-1.16.13-.27.04-.47.29-.46.58.01.58.04,1.16.06,1.74,0,.23.02.46.03.69,0,.04,0,.08,0,.12,0,0-.02,0-.03,0-.02-.13-.05-.25-.06-.38-.04-.65-.08-1.29-.11-1.94,0-.11,0-.23.02-.34.05-.36.25-.58.61-.62.47-.06.94-.15,1.42-.15.59,0,1.18-.06,1.77-.1.52-.03,1.03-.05,1.55-.08.72-.04,1.43-.08,2.15-.12.3-.01.6-.02.9-.02.67-.01,1.34-.02,2.01-.03.84-.01,1.69-.02,2.53-.03.62,0,1.24-.02,1.87-.02.59,0,1.18,0,1.76,0,.79,0,1.57,0,2.36,0,.98,0,1.96-.01,2.94,0,.88,0,1.75.03,2.63.05.56.01,1.11.02,1.67.04.78.03,1.56.06,2.34.1.45.02.91.04,1.36.06.46.02.92.05,1.38.08.03,0,.06.02.09.02,0,.01,0,.03,0,.04-.09,0-.19.03-.28.03-.29-.01-.59-.03-.88-.05-.47-.02-.95-.04-1.42-.06-.25-.01-.5-.05-.75-.06-.19,0-.39,0-.58,0-.38,0-.77,0-1.15-.01-.73-.01-1.45-.04-2.18-.05-1.71-.02-3.42-.03-5.12-.04ZM26.85,17.16s-.04.1-.08.11c-.04,0-.09-.03-.13-.05,0-.03.02-.05.03-.08.06,0,.12.01.18.02ZM19.94,17.23c-.05.02-.11.04-.16.06,0-.03-.01-.05-.02-.08.05-.01.11-.02.16-.03,0,.02.01.04.02.06ZM18.56,17.22s-.05.08-.08.08c-.04,0-.08-.04-.11-.06,0-.01,0-.03.01-.04.05,0,.1-.01.15-.02,0,.01.02.03.03.04ZM17.2,17.19s.01.02.02.04c-.04.03-.08.08-.12.07-.05,0-.1-.05-.15-.08,0,0,.01-.02.02-.03h.22ZM17.16,13.03c0-.08,0-.17,0-.25t.04.24s-.03,0-.04,0ZM15.84,17.23s-.09.08-.15.14c-.04-.06-.07-.11-.09-.16,0-.01,0-.03.01-.04.07,0,.15,0,.22.01,0,.02,0,.03.01.05ZM13.06,17.17c.07.13-.11.11-.16.17-.04-.05-.08-.09-.14-.15.11-.05.23-.14.3-.02ZM11.49,9.92c.16-.05.16-.04.13.18-.15.02,0-.19-.13-.18ZM11.57,12.72s-.03,0-.04,0c0-.08-.01-.16-.01-.24.01,0,.03,0,.04,0,.05.08.06.16.02.24ZM11.64,17.18s-.02.11-.05.12c-.1.05-.15-.03-.2-.12.1-.03.18-.1.25,0ZM11.54,12.06c0-.08-.02-.16-.02-.23.02,0,.03,0,.05,0,0,.08.02.16.03.24h-.05ZM8.73,11.16s.03.1.05.16c-.09.03-.17.06-.26.1.11-.06.24-.08.21-.26ZM9.04,11.59s.01.02.02.03c-.1.06-.19.12-.29.18,0-.01-.01-.02-.02-.03.1-.06.19-.12.29-.19ZM8.3,8.92c-.41.01-.8.1-1.14.34-.02.01-.04.02-.06.03,0,0,0,0,0,0h0s0,0,0,0c-.08-.19-.15-.36-.22-.53.63-.49,1.84-.68,2.86-.04-.07.15-.14.3-.22.44-.01.02-.1.02-.14,0-.35-.16-.71-.26-1.09-.25ZM8,10.41c0-.22,0-.45-.02-.67,0-.11-.03-.22-.06-.36.01,0,.05-.03.1-.06.02.67.05,1.32.07,1.97-.01,0-.02.01-.03.02-.07-.07-.13-.15-.21-.24.17-.03.15-.15.16-.23.01-.15,0-.29-.01-.44ZM7.11,5.35c0-.05.03-.1.05-.16.01,0,.03,0,.04.01,0,.04.02.09.03.15.06-.04.1-.08.16-.13.02.07.04.12.05.17.03.29.06.58.07.88.02.54.03,1.09.05,1.63,0,.09-.02.14-.12.14,0,0-.02,0-.03,0-.24.07-.24.07-.25-.18-.01-.56-.02-1.12-.03-1.68,0-.28-.02-.56-.02-.84ZM8.16,6.67c0,.35,0,.71,0,1.06,0,.17-.19.28-.34.2-.03-.02-.05-.08-.05-.12-.02-.49-.04-.98-.06-1.48,0-.22-.02-.44-.02-.66,0-.09.02-.18.03-.27.01-.1.04-.19.17-.16.11.02.17.09.18.2.01.25.02.49.03.74,0,.16,0,.33,0,.49h.05ZM8.71,5.28c0,.35,0,.69,0,1.04.01.48.03.97.05,1.45,0,.07.02.15-.08.16-.1,0-.23.04-.28-.1-.03-.07-.04-.15-.04-.23,0-.21-.01-.41-.02-.62,0-.53-.01-1.06-.02-1.59,0-.21.05-.25.28-.21-.02.05-.04.1-.06.16.05-.02.09-.03.16-.05ZM9.36,7.85c0,.06-.04.17-.06.17-.09,0-.18,0-.25-.05-.05-.03-.08-.12-.09-.19-.02-.66-.02-1.31-.04-1.97,0-.15-.03-.29-.02-.44,0-.18.1-.26.24-.21.03.01.08.04.08.07.03.13.07.27.08.4.01.26,0,.53,0,.79.02,0,.04,0,.05,0,0,.47,0,.95,0,1.42ZM3.62,17.57c-.04-.41-.08-.82-.12-1.23-.02-.2,0-.4-.01-.59-.01-.28-.04-.56-.06-.84-.05-.78-.11-1.56-.16-2.33-.04-.55-.06-1.09-.09-1.64,0-.02,0-.03,0-.05.01,0,.03,0,.04,0,.01.09.03.17.04.26.05.69.09,1.38.14,2.07.06.82.12,1.65.18,2.47.02.28.03.56.06.84.04.4.09.81.12,1.21.02.24.01.47.01.71,0,.03-.03.06-.05.09-.02-.03-.05-.06-.05-.09.06-.29-.03-.57-.06-.86ZM3.16,10.76c-.05-.75-.09-1.5-.14-2.26.02,0,.03,0,.05,0,.05.75.1,1.51.15,2.26-.02,0-.04,0-.06,0ZM3.28,7.71c0-.12,0-.25,0-.37,0,0,.01,0,.02,0,0,.12.02.24.03.37-.02,0-.03,0-.05,0ZM3.75,13.29c-.02-.57-.04-1.13-.07-1.7-.02-.42-.04-.85-.06-1.27-.02-.38-.03-.76-.04-1.14-.03-.74-.06-1.48-.08-2.23,0-.32,0-.65,0-.97,0-.13,0-.27.02-.4,0-.07.04-.08.11-.06.05.01.1,0,.16,0,.12,1.13.16,2.27.2,3.41.04.9.07,1.81.1,2.71.04,1.43.08,2.86.11,4.29.01.56.02,1.12.02,1.68,0,.07-.01.14-.02.21-.01,0-.02.01-.03.02-.03-.04-.07-.08-.08-.13-.02-.14-.02-.28-.04-.42,0-.06-.05-.12-.07-.18-.02-.05-.05-.1-.05-.15,0-.15,0-.3,0-.44,0-.2-.02-.4-.03-.6-.02-.4-.04-.8-.06-1.2-.01-.21-.03-.42-.04-.63-.02-.26-.03-.53-.04-.79ZM4.17,8.69c-.02-.46-.05-.92-.06-1.39-.01-.39,0-.78,0-1.18,0-.13-.02-.25-.02-.38,0-.09-.03-.19.12-.18.04,0,.08-.07.12-.1.15.19.14.4.15.61.02.58.04,1.16.06,1.74.04.9.08,1.8.11,2.71.03.91.06,1.82.08,2.73.04,1.47.07,2.94.1,4.41,0,.03,0,.06,0,.09,0,.14-.03.17-.17.16-.24,0-.25-.03-.26-.28-.02-1.19-.04-2.38-.07-3.56-.02-.83-.05-1.66-.07-2.49-.03-.96-.06-1.93-.09-2.89ZM4.75,8.52c-.01-.36,0-.72-.01-1.07,0-.34-.04-.67-.05-1,0-.32-.06-.64.02-.95.01-.05.06-.14.07-.13.08.03.17.06.24.11.03.02.02.08.03.12.02.47.04.95.06,1.42.04.81.08,1.62.11,2.42.02.58.03,1.16.05,1.74.02.75.05,1.5.08,2.59.01.73.03,1.82.04,2.91,0,.35.01.7.02,1.05,0,.17,0,.19-.18.18-.27,0-.26,0-.26-.29-.01-1.02-.02-2.04-.04-3.06-.02-1.09-.05-2.19-.09-3.28-.03-.92-.07-1.84-.1-2.76ZM5.53,4.48s0-.04,0-.05c.58,0,1.15,0,1.73,0,0,.02,0,.03,0,.05-.58,0-1.16.12-1.73,0ZM7.34,4.4c.21-.02.43-.04.64-.06,0,.02,0,.05,0,.07-.21.06-.43.04-.65.04,0-.02,0-.04,0-.05ZM8.06,4.39s0-.02,0-.04c.17,0,.34,0,.5,0v.04c-.17,0-.34,0-.5,0ZM8.94,4.33c.09,0,.19,0,.28-.01,0,.02,0,.03,0,.04h-.28s0-.02,0-.03ZM37.34,19.24h0c-1.58.02-3.16.02-4.74.02v-.02c1.58,0,3.16,0,4.74,0ZM34.44,18.63h0c.9-.02,1.79-.02,2.69-.02v.02c-.9,0-1.79,0-2.69,0ZM37.36,19.52h0c-1.71.01-3.42.02-5.13.02,0,0,0,0,0-.01,1.71,0,3.42,0,5.13,0ZM37.36,19.72h0c-1.78.01-3.56.02-5.33.02h0c1.78-.01,3.56-.02,5.33-.02ZM37.41,19.92h0c-1.86.02-3.73.02-5.59.02h0c1.86-.02,3.73-.02,5.59-.02,0,0-1.86,0,0,0,0,0-1.86,0,0,0ZM35.58,20.85v-.02c.58,0,1.17,0,1.75,0v.02c-.58,0-1.17,0-1.75,0,0,0,.58,0,0,0,0,0,.58,0,0,0ZM37.33,21.06h0c-.32,0-.65,0-.97,0h0c.32,0,.65,0,.97,0ZM35.75,23.25h0c.42,0,.85,0,1.28,0h0c-.43,0-.85,0-1.28,0ZM36.95,23.53h0c-.18,0-.35,0-.53,0h0c.18,0,.35,0,.53,0ZM36.97,22.8h0c-.46,0-.92,0-1.37,0,0,0,0,0,0,0,.46,0,.91,0,1.37,0ZM35.71,21.88c.34,0,.68,0,1.02,0h0c-.34.01-.68.02-1.02.02,0,0,0,0,0-.01ZM36.12,21.46h0c.38,0,.76,0,1.14,0h0c-.38,0-.76,0-1.14,0ZM37.33,20.54c-.59,0-1.17,0-1.76,0,0,0,0,0,0-.01.59,0,1.18,0,1.77,0-.02.08-.25-.03-.26.01,0-.03.25.02.26,0-.59,0,0,0,0,0ZM34.79,20.33v-.02c.87,0,1.73,0,2.6,0v.02c-.87,0-1.73,0-2.6,0,0,0,.87,0,0,0,0,0,.87,0,0,0ZM28.67,24.66h0c1.21-.01,2.42-.01,3.63-.02,0,0,0,0,0,.01-1.21,0-2.42,0-3.63,0ZM31.52,24.94h0c-.42,0-.84,0-1.27,0,0,0,0,0,0,0,.42,0,.84,0,1.27,0ZM33.54,23.14c.23-.04.47,0,.66-.16-.22.11-.44.16-.68.07-.23-.08-.4-.24-.48-.47-.17-.46.04-.82.42-1.01.33-.16.78-.03.94.28-.03-.03-.07-.06-.1-.09-.34-.32-.87-.27-1.13.11-.16.23-.22.69.06.9-.12-.26-.25-.51,0-.76,0,.15,0,.29.03.44,0,.06.08.14.13.15.22.04.42.01.63-.1.15-.08.24-.26.46-.28,0,.1.02.22.03.34.14-.09.08-.24.12-.38.06-.01.12-.03.18-.04.12-.01.18.04.19.16.02.19-.03.36-.12.52-.27.51-.8.77-1.34.65-.1-.02-.19-.07-.28-.11,0-.01,0-.03,0-.04.14-.04.28-.09.42-.13-.04-.01-.08-.02-.12-.03ZM34.73,20.82c-.68-.61-1.82-.53-2.42.17-.09.1-.16.22-.24.33-.02.03-.05.06-.08.08,0,0,0,0,0,0s0,0,0,0c-.03.15-.05.31-.08.46-.01.06-.04.11-.06.18-.04-.07.04-.19-.1-.21.08-.15.16-.29.24-.44,0,0,0,0,0-.01,0,0,0,0,0,0,.02-.07.03-.14.06-.19.2-.3.45-.54.78-.7.22-.11.46-.16.71-.17.57,0,1.05.18,1.43.61.06.07.1.14.17.2-.13-.11-.26-.23-.39-.34ZM31.53,20.35s0-.01,0-.02c.39,0,.77,0,1.16,0v.02c-.38,0-.77,0-1.16,0ZM32.32,20.53s0,.01,0,.02c-.3,0-.6,0-.9,0,0,0,0-.01,0-.02.3,0,.6,0,.9,0ZM31.98,20.86s0,.02,0,.02c-.24,0-.48,0-.72,0,0,0,0-.02,0-.02.24,0,.49,0,.73,0ZM31.81,21.09h0c-.21.01-.42.01-.62.01h0c.21-.01.42-.01.62-.01ZM31.71,21.27s0,.01,0,.02c-.2,0-.39,0-.59,0,0,0,0-.01,0-.02.2,0,.39,0,.59,0ZM31.54,21.67s0,0,0,.01c-.16,0-.32,0-.48,0,0,0,0,0,0-.01.16,0,.32,0,.48,0ZM31.56,21.9s0,.02,0,.02c-.18,0-.37,0-.55,0,0,0,0-.02,0-.02.18,0,.37,0,.55,0ZM31.55,22.2v.02c-.18,0-.37,0-.55,0v-.02c.18,0,.37,0,.55,0ZM31.07,22.83c.19,0,.39,0,.58,0h0c-.19.01-.39.01-.58.01h0ZM31.19,23.26c.24,0,.48,0,.72,0v.02c-.24,0-.48,0-.72,0,0,0,0-.01,0-.02ZM32.11,23.56s0,.01,0,.02c-.28,0-.56,0-.83,0,0,0,0-.01,0-.02.28,0,.55,0,.83,0ZM32.43,23.79h0c-.33,0-.67.01-1,.01,0,0,0,0,0,0,.34,0,.67,0,1.01,0ZM32.89,24.94h0c-.34,0-.69,0-1.04,0,0,0,0,0,0,0,.35,0,.69,0,1.04,0ZM32.89,23.85c-.79-.27-1.15-1-1.16-1.52.01,0,.02-.02.04-.03.03.05.08.09.09.14.12.45.33.83.71,1.11.61.45,1.48.45,2.09,0,0,0,.02,0,.04-.02-.41.41-1.2.53-1.81.32ZM34.37,24.21c.36,0,.73,0,1.09,0h0c-.36,0-.73,0-1.09,0h0ZM34.11,20.14v-.02c.88,0,1.76,0,2.64,0,.21,0,.42,0,.63,0v.02c-.55,0-1.09,0-1.64,0-.54,0-1.09,0-1.63,0,0,0,.55,0,0,0,0,0,.55,0,0,0ZM32.87,20.14s0,.01,0,.02c-.4,0-.8,0-1.2,0,0,0,0-.01,0-.02.4,0,.8,0,1.2,0ZM9.73,18.7v-.03c7.35-.01,14.71-.02,22.06-.03,0,0,0,.02,0,.03-7.35.01-14.71.02-22.06.03ZM31.68,19.55c-.59,0-1.18,0-1.78,0,0-.06,0-.12,0-.21.04.07.07.12.08.14.58.02,1.14.03,1.69.05,0,0,0,.02,0,.02ZM18.65,19.32c.26,0,.63-.09.75.23.23-.12-.09-.24.34-.24.31,0,.63,0,.94,0,.45,0,.9,0,1.36,0,.15,0,1.79.02,1.79,0-.25,0-.52-.05-.76.06.24.14.53.07.79.09.1.01.19,0,.28-.02.12-.05.16.08.27.08-.02-.03-.04-.07-.06-.1.56-.04,1.12-.04,1.69-.05.33-.01.68-.09,1-.03.11.02,1.32.28,1.32.25-6.13.03-12.27.06-18.4.09,0,.01,0,.03,0,.04.06.01.12.04.17.04.88,0,1.76,0,2.63,0,.57,0,6.29-.05,6.29.02-2.99,0-5.98,0-8.98.01,0,.02,0,.04,0,.06.08,0,.16.01.27.02-.09,0-.14.01-.19.02,0,.01,0,.02,0,.03.06.01.12.02.21.04-.06.01-.09.02-.13.03,0,0,0,.02,0,.03.04.01.08.02.12.03-.02.02-.03.04-.05.05,0,.01,0,.03,0,.04,7.03-.03,14.05-.05,21.08-.11v-.06c-.48,0-.95,0-1.43,0-.48,0-.97,0-1.45,0v-.02c.5,0,1.01,0,1.51,0,.44,0,.87,0,1.31,0,.07,0,.13,0,.14-.09h0c-.3,0-.59,0-.89,0h0c.3,0,.59,0,.89,0,.03-.01.05-.03.08-.04,0,0,0-.02,0-.03-1.13,0-2.27,0-3.4,0,0-.01,0-.03,0-.04,1.16,0,2.32,0,3.48,0,0-.01,0-.03,0-.04-4.12,0-8.25.01-12.37.02,0,.02,6.03-.03,6.6-.03,1.91,0,3.81-.02,5.72-.04.09,0,.17-.06.22-.08-.13.18-.32.4-.46.63-.14.24-.27.49-.36.76-.09.27-.16.55-.19.83-.03.28-.03.56,0,.84.03.28.11.56.2.83.09.26.23.51.35.78-.95,0-1.9,0-2.86,0,0,0,0,0,0-.01.93,0,1.87,0,2.83,0-.1-.17-.18-.3-.27-.44,0,0-.01,0-.02,0-.74,0-1.47,0-2.21.01-.38,0-.76,0-1.14-.02.96,0,1.92,0,2.88,0,.16,0,.31,0,.47.01h.02c-.02-.19-.04-.2-.21-.2-.33,0-.66,0-1,0,0-.1,0-.2,0-.32.34,0,.68,0,1.03,0-.03-.12-.04-.22-.08-.32,0-.03-.08-.05-.12-.05-.71,0-1.41,0-2.11.01-.07,0-.14,0-.22-.01,0-.01,0-.02,0-.04.81,0,1.61,0,2.43,0-.01-.09-.02-.15-.03-.22-.29,0-.59,0-.88,0,0,0,0-.02,0-.03.29,0,.58,0,.87,0,0-.02,0-.03,0-.05-.04,0-.07-.03-.11-.03-.24,0-.48,0-.71,0-.02,0-.05,0-.07,0,0-.01,0-.02,0-.03.29,0,.58,0,.88,0,0-.02,0-.04.01-.05-.04-.01-.07-.03-.11-.04-.25,0-.51,0-.76-.02.28,0,.57,0,.85,0,.04-.15-.01-.19-.15-.19-.2.01-.4,0-.6-.01.03,0,.05-.01.08-.02,0,0,0-.02,0-.02-.04,0-.08-.02-.14-.03.08-.04.15-.07.26-.12-.08-.03-.13-.06-.18-.06-.33,0-.66,0-.98,0-.02,0-.05.01-.07.04.06.01.12.01.16.03.04.02.06.07.12.13-.23,0-.42,0-.61,0-.02,0-.05,0-.06,0-.17.13-.37.06-.55.07-4.79.13-9.6.06-14.4.08-.82,0-1.64,0-2.46,0-.09,0-.12.02-.09.11,0,0,.01,0,.02,0,.07,0,.14-.02.21-.02.88,0,1.76,0,2.64.02-.95,0-1.9,0-2.85,0,0,0-.01,0-.02,0h0s0,0,0,0c-.01.12-.03.24-.04.36,2.39,0,4.76,0,7.14-.01-.18.13-.41.1-.61.04-.09.2.61.04.68.14-.72,0-1.43.11-2.14.12-.81,0-1.62-.11-2.43-.1-.84,0-1.69.02-2.53.02-.12,0-.17.03-.18.14,0,.07-.03.13-.05.23,5.46-.02,10.9-.04,16.34-.06,0,.09-1.38-.03-1.38.07.41,0,.81-.05,1.22.01.33.05.69-.07,1.01.1-.32.19-.76.04-1.1.02-.58-.04-1.17.06-1.76.09-1.25.05-2.49.05-3.74.05-2.58.02-5.17.02-7.75.04-.94,0-1.88.01-2.82.02-.05,0-.11.01-.16.02,0,.02,0,.03,0,.05.5,0,.99,0,1.49,0,0,0,0,.02,0,.03-.02,0-.05,0-.07,0-.44,0-.88,0-1.32,0-.09,0-.15.02-.18.12-.02.07-.07.14-.11.22,3.05,0,6.08,0,9.11-.01.02.05-.68.03-.75.03.06-.02.09,0,.09.06-.08,0-.45.08-.49-.02.06-.01.12-.03.18-.04-.15,0-.38-.08-.52.01-.21.13-.2.24-.51.23-.21,0-.37-.02-.55-.14-.27-.19-.62-.09-.93-.09.02.02.04.05.05.07-.09,0-.53.1-.57-.03.03-.02.06-.03.09-.05-.31,0-.61.12-.92.05.13,0,.26,0,.39,0-.27-.1-.55.01-.82,0,.04,0,.06,0,.06-.05-.12.02-.22.09-.34.09-.21,0-.4-.09-.61-.09-.35,0-.71,0-1.06,0h-.18c-.05.11,0,.14.09.14.24,0,.48,0,.71,0,.32,0,.64,0,.96.03-1.22,0-2.44,0-3.65,0,1.04-1.88.71-3.54-.83-5.01,0,0,.04,0,.06,0,3.01,0,6.03-.01,9.05-.02-.4,0-.87,0-1.3,0,.44,0,.88,0,1.33,0-.43,0-.86,0-1.29,0,.43,0,.86,0,1.28,0-.43,0-.86,0-1.3,0,.43,0,.85,0,1.28,0,.27,0-3.02,0,0,0ZM18.2,19.82s.91,0,.91,0c-.31,0-.61,0-.91,0,0,0,.12,0,.13,0-.04,0-.09,0-.13,0,0,0,.12,0,.13,0-.04,0-.09,0-.13,0,0,0,.12,0,.13,0-.04,0-.09,0-.13,0,0,0,.3,0,0,0ZM19.11,19.92s-.9.02-.9,0c.3,0,.6,0,.9,0,0,0-.12,0-.13,0,.04,0,.09,0,.13,0,0,0-.12,0-.13,0,.04,0,.09,0,.13,0,0,0-.12,0-.13,0,.04,0,.09,0,.13,0,0,0-.3,0,0,0ZM19.13,20.01s-.85.02-.94.02c.01-.07.84-.02.94-.02,0,0-.12,0-.13,0,.04,0,.09,0,.13,0,0,.01-.12,0-.13,0,.04,0,.09,0,.13,0,0,.01-.12,0-.13,0,.04-.01.09-.01.13,0,0,.02-.31,0,0,0ZM17.57,19.92s-1.42.09-1.44,0c.48,0,.96,0,1.44,0,0,0-.19,0-.21,0,.07,0,.14,0,.21,0,0-.05-.19,0-.21,0,.07,0,.14,0,.21,0,0-.05-.19,0-.21,0,.07,0,.14.01.21,0,0-.04-.48,0,0,0ZM16.79,19.83s.77,0,.77,0c-.26,0-.51,0-.77,0,0,0,.1,0,.11,0-.04,0-.07,0-.11,0,0,0,.1,0,.11,0-.04,0-.07,0-.11,0,0,0,.1,0,.11,0-.04,0-.07,0-.11,0,0,0,.26,0,0,0ZM17.57,20.02s-1.45.06-1.45,0c.48,0,.97,0,1.45,0,0,0-.19,0-.21,0,.07,0,.14,0,.21,0,0-.04-.19,0-.21,0,.07,0,.14,0,.21,0,0-.04-.19,0-.21,0,.07,0,.14,0,.21,0,0-.03-.48,0,0,0ZM15.5,20.03s-.86.07-.89,0c.3,0,.59,0,.89,0,0,0-.11,0-.13,0,.04,0,.08,0,.13,0,0-.01-.11,0-.13,0,.04,0,.08,0,.13,0,0-.01-.11,0-.13,0,.04,0,.08.01.13,0,0-.02-.3,0,0,0ZM14.65,19.93c.08,0,.84-.01.84,0-.23,0-.59.09-.82,0,.03,0,.06,0,.09,0-.04,0-.08,0-.12,0,.11,0,0,0,0,0,.09,0,0,0,0,0,.08,0,0,0,0,0ZM13.99,19.94c-.39,0-.79,0-1.18,0,0-.11,1.14.1,1.18,0-.06,0-.12,0-.17,0,.01-.04.16.03.17,0-.06,0-.12,0-.17,0,.01-.04.16.03.17,0-.06,0-.12,0-.17,0,0-.02.17.02.17,0-.39,0,0,0,0,0ZM13.99,20.03s-1.16.09-1.2,0c.4,0,.8,0,1.2,0,0,0-.18,0-.18,0,.06,0,.12,0,.18,0,0-.02-.18-.01-.18,0,.06,0,.12,0,.18,0,0-.02-.18-.01-.18,0,.06,0,.12.01.18,0,0-.03-.4,0,0,0ZM12.81,19.86s.56,0,.56,0c-.19,0-.37,0-.56,0,0,0,.08,0,.08,0-.03,0-.05,0-.08,0,0,0,.08,0,.08,0-.03,0-.05,0-.08,0,0,0,.08,0,.08,0-.03,0-.05,0-.08,0,0,0,.19,0,0,0ZM20.38,19.91s-.64.01-.64,0c.21,0,.42,0,.64,0,0,0-.09,0-.09,0,.03,0,.06,0,.09,0,0,.01-.09,0-.09,0,.03,0,.06,0,.09,0,0,.01-.09,0-.09,0,.03,0,.06,0,.09,0,0,.01-.21,0,0,0ZM19.77,19.82s.61-.02.62,0c-.21,0-.41,0-.62,0,0,0,.08,0,.09,0-.03,0-.06,0-.09,0,0,0,.08,0,.09,0-.03,0-.06,0-.09,0,0,0,.08,0,.09,0-.03,0-.06,0-.09,0,0,0,.21,0,0,0ZM20.41,20.01s-.66.01-.66,0c.22,0,.44,0,.66,0,0,0-.09,0-.09,0,.03,0,.06,0,.09,0,0,.04-.09,0-.09,0,.03,0,.06,0,.09,0,0,.04-.09,0-.09,0,.03,0,.06,0,.09,0-.01.05-.22,0,0,0ZM23.49,19.89s-1.3.03-1.3,0c.43,0,.86,0,1.3,0,0,0-.17,0-.19,0,.06,0,.13,0,.19,0,0,.03-.17,0-.19,0,.06,0,.13,0,.19,0,0,.03-.17,0-.19,0,.06,0,.13,0,.19,0,0,.03-.43,0,0,0ZM22.21,19.82s.49,0,.53,0c0,.04-.48,0-.53,0,0,0,.07,0,.07,0-.03,0-.05,0-.07,0,0-.01.07,0,.07,0-.03,0-.05,0-.07,0,0-.01.07,0,.07,0-.03,0-.05,0-.07,0,0-.01.18,0,0,0ZM23.48,19.99c-.02-.06-1.31.08-1.31,0,.44,0,.87,0,1.31,0,0,0-.17,0-.19,0,.06,0,.13,0,.19,0-.02-.07-.17,0-.19-.01.06,0,.13,0,.19.01-.02-.07-.17,0-.19-.01.06.01.13.01.19.01-.02-.06-.44,0,0,0ZM25.36,19.99s-1.22.02-1.22,0c.41,0,.81,0,1.22,0,0,0-.18,0-.18,0,.06,0,.12,0,.18,0,0,.02-.18,0-.18,0,.06,0,.12,0,.18,0,0,.02-.18,0-.18,0,.06,0,.12,0,.18,0,0,.02-.41,0,0,0ZM24.16,19.88c.13,0,1.19-.02,1.19.02-.11,0-1.19.03-1.19-.02.06,0,.12,0,.18,0,0,0-.18,0-.18,0,.08,0,.09,0,.03,0,0,0-.03,0-.03,0,.13,0,0,0,0,0ZM27.38,19.87s-1.31.04-1.31,0c.44,0,.87,0,1.31,0,0,0-.17,0-.19,0,.06,0,.13,0,.19,0,0,.04-.18,0-.19,0,.06,0,.13,0,.19,0,0,.04-.18,0-.19,0,.06,0,.13,0,.19,0,0,.03-.44,0,0,0ZM26.81,19.78s.58,0,.58,0c-.19,0-.39,0-.58,0,0,0,.08,0,.08,0h-.08s.08,0,.08,0c-.03,0-.05,0-.08,0,0,0,.08,0,.08,0-.03,0-.05,0-.08,0,0,0,.19,0,0,0ZM27.17,19.98s-1.14.02-1.14,0c.38,0,.76,0,1.14,0,0,0-.17,0-.17,0,.06,0,.11,0,.17,0,0,.02-.17.01-.17,0,.06,0,.11,0,.17,0,0,.02-.17.01-.17,0,.06,0,.11,0,.17,0,0,.02-.38,0,0,0ZM28.8,19.88s0,0,0-.01c.53,0,1.06,0,1.59,0,0,0,0,.01,0,.02-.53,0-1.06,0-1.58,0,0,0,0,0,0,0ZM25.32,24.14h-.38s.06.04.1.06c-.09,0-.82.02-.82-.02.12,0,.23,0,.35,0,0-.05-.75-.05-.76,0h.24c.05.18-.57.19-.68.15-.15-.06-.08-.14-.25-.12-.17.02-.34.02-.51,0-.29-.03-.6-.15-.89,0-.43.22-.83,0-1.3,0,.03-.01.07-.03.1-.04-.24.01-.47.12-.71.04,1.13-.29,2.3-.1,3.45-.09.55,0,1.09,0,1.64,0,.55,0,1.11-.13,1.66,0-.04,0-.08.02-.11.03.02.14.52-.16.54-.02-.06-.04-.1-.03-.12.03.12,0,.24.01.37.02-.01.2-2,.16-2.02,0,.05.04.09.03.11-.03-.07,0-.09,0-.03,0,0,0,.03,0,.03,0-.12,0,0,0,0,0ZM20.54,24.31c-.08,0-.85,0-.85,0,.26,0,.57-.07.83,0-.03.01-.06.01-.1,0h.12c-.11,0,0,0,0,0-.09,0,0,0,0,0-.08,0,0,0,0,0ZM21,23.73s.55,0,.55,0c-.18,0-.36,0-.54,0,.12,0-.01,0-.01,0,.04,0,0,0,0,0ZM27,25.42s0,.02,0,.03c.02-.03.04-.05.06-.08.01,0,.02.01.03.02.07.01.14.04.2.02.09-.03.17-.04.25.03.02-.02.05-.04.07-.07.06.03.12.11.18,0,0,0,.03-.01.05-.01.14,0,.28,0,.42.02.05,0,.12.07.14.13.12.3.1.61.07.92,0,.03-.08.07-.13.07-.19,0-.37-.02-.56-.01-.37,0-.74.02-1.11.04-.18,0-.19.01-.2-.16-.03-.32-.05-.64-.07-.98.2,0,.4.02.59.03ZM28.98,23.91h0c.24,0,.47,0,.71,0,0,0,0,0,0,0-.24,0-.47,0-.71,0ZM31.01,23.98h0c-.64,0-1.28,0-1.92,0h0c.64,0,1.28,0,1.92,0ZM31.06,24.07h0c-.87.01-1.74.02-2.61.02,0,0,0,0,0-.01.87,0,1.74,0,2.61,0,0,0-.87,0,0,0,0,0-.87,0,0,0,0,0-.87,0,0,0,0,0-.87,0,0,0ZM27.6,22.94c-.18-.07-.3-.02-.47.04-.27.11-.54.06-.82.05-.62-.04-1.24-.06-1.86-.11.08,0,.91.02.91.02-.05-.06-.52-.07-.48-.2,1.8,0,3.59,0,5.39,0h0c-.39,0-.78.01-1.18.01-.2,0-.41,0-.61,0-.05,0-.09.01-.14.02-.07.06-.17.07-.4.04-.09-.01-.49-.07-.35.14-.12-.03-.02-.03,0,0-.05-.02-.07-.03-.03-.03-.03-.01-.04-.08.03.03-.27-.1-.03-.05,0,0ZM23.15,22.86c-.47.08-.8.22-1.28.2-.48-.02-1.14.12-1.57-.15.31,0,.61.12.92.12-.26-.41-1.17-.16-1.56-.16-.04.11.28-.04.28.09-.32,0-.47.05-.77.11-.33.07-.67,0-1.01,0,.14-.05.31-.06.45-.02.07-.11-.11-.21-.16-.28,1.09,0,2.19,0,3.28,0,.51,0,1.02.02,1.52,0,.48-.02,1.01-.17,1.47.05-.51.23-1.06-.04-1.59.06.03,0,.05,0,.08-.01-.03,0-.07.01-.1.02.03,0,.06-.01.1-.02-.03,0-.07.01-.1.02.03,0,.06-.01.1-.02-.02,0-.04,0-.07.01-.19.03.21-.04,0,0ZM23.71,22.92s-.58.01-.64.01c.04-.09.55-.01.64-.01,0,0-.09,0-.09,0,.03,0,.06,0,.09,0,0,.02-.09,0-.09,0,.03,0,.06,0,.09,0,0,.02-.09,0-.09,0,.03,0,.06,0,.09,0,0,.02-.21,0,0,0ZM18.85,22.39s1.51,0,1.66,0c-.18.27-1.37,0-1.66,0,0,0,.22,0,.24,0-.08,0-.16,0-.24,0,0,0,.22,0,.24,0-.08,0-.16,0-.24,0,0-.01.22,0,.24,0-.05,0-.21,0-.24,0,0-.01.55,0,0,0ZM19.44,22.63c-.02.05-.05.07-.09.04-.02-.07.01-.13.09-.16,0,.04.03.3,0,.35,0-.08,0-.15,0-.23-.02.11,0-.02,0,0-.02.05,0-.04,0,0ZM23.67,22.57s-1.21.05-1.21,0c.4,0,.81,0,1.21,0,0,0-.18.01-.18,0,.06,0,.12,0,.18,0,0-.01-.18,0-.18,0,.06,0,.12,0,.18,0,0-.01-.18,0-.18,0,.06,0,.12,0,.18,0,0,0-.41,0,0,0ZM22.47,22.47s1.12-.01,1.23-.01c-.03.11-1.09.01-1.23.01,0,0,.18,0,.18,0-.06,0-.12,0-.18,0,0-.01.18,0,.18,0-.06,0-.12,0-.18,0,0-.01.18,0,.18,0-.06,0-.12,0-.18,0,0-.02.41,0,0,0ZM23.66,22.67s-.52.02-.57,0c.19,0,.38,0,.57,0,0,0-.08,0-.08,0,.03,0,.05,0,.08,0h-.08.08s-.08,0-.08,0c.03,0,.05,0,.08,0,0,0-.19,0,0,0ZM25.26,22.56s-1.13.02-1.13,0c.38,0,.76,0,1.13,0,0,0-.17,0-.17,0,.06,0,.11,0,.17,0,0,.01-.17,0-.17,0,.06,0,.11,0,.17,0,0,.01-.17,0-.17,0,.06,0,.11,0,.17,0,0,.02-.38,0,0,0ZM24.15,22.46s1.09-.03,1.1,0c-.37,0-.73,0-1.1,0,0,0,.16,0,.16,0-.05,0-.11,0-.16,0,0,0,.16,0,.16,0h-.16s.16,0,.16,0h-.16s.37,0,0,0ZM25.22,22.67c-.09,0-1.05,0-1.05,0,.11,0,1.04-.06,1.05,0-.05,0-.1,0-.15,0,.05,0,.1,0,.15,0-.14,0,0,0,0,0-.11,0,0,0,0,0-.09,0,0,0,0,0ZM25.34,22.36s.53,0,.57,0c0,.04-.51,0-.57,0,0,0,.08,0,.08,0h-.08s.08,0,.08,0c-.03,0-.05,0-.08,0,0,0,.08,0,.08,0-.03,0-.05,0-.08,0,0,0,.19,0,0,0ZM26.1,22.54s.02-.05.04-.07c-.01.03-.03.07-.04.1-.01-.02-.02-.04-.04-.07.16.15,0,0,.04.04.01-.02-.01-.01,0,0ZM27.44,22.54c.47,0,.93,0,1.4,0,0,0,0,0,0,.02-.47,0-.93,0-1.4,0,0-.05.15-.02.2-.01-.02,0-.2,0-.2,0,.07,0,.14,0,.2,0-.02,0-.2,0-.2,0,.07,0,.14,0,.2,0-.02,0-.2,0-.2,0,.47,0,0,0,0,0ZM29.84,22.32c.25,0,.5,0,.75,0,0,0,0,.01,0,.02-.25,0-.5,0-.75,0v-.02ZM18.07,22.39c-.1,0-1.17,0-1.17,0,.21,0,1.03-.19,1.17,0-.06,0-.12,0-.17,0,.04.05.14-.05.17,0-.15,0,0,0,0,0-.12,0,0,0,0,0-.1,0,0,0,0,0ZM13.34,22.63s1.01-.02,1.12-.02c0,.04-1.01.02-1.12.02,0,0,.17,0,.17,0-.05,0-.11,0-.17,0,0-.02.17-.01.17,0-.05,0-.11,0-.17,0,0-.02.17-.01.17,0-.05,0-.11.01-.17,0,0-.03.37,0,0,0ZM14.37,22.71s-1,.03-1,0c.33,0,.67,0,1,0,0,0-.13,0-.14,0,.05,0,.1,0,.14,0,0,0-.13,0-.14,0,.05,0,.1,0,.14,0,0,0-.13,0-.14,0,.05,0,.1,0,.14,0,0,0-.33,0,0,0ZM13.33,22.52s1.13-.02,1.13,0c-.38,0-.75,0-1.13,0,0-.01.17,0,.17,0-.06,0-.11,0-.17,0,0-.04.17-.01.17,0-.06,0-.11,0-.17,0,0-.04.17-.01.17,0-.06.01-.11.01-.17,0,0-.04.38,0,0,0ZM12.92,22.51v.02c-.1,0-.19,0-.29,0,0,0,0-.01,0-.02.1,0,.19,0,.29,0,0,0-.1,0,0,0,0,0-.1,0,0,0,0,0-.1,0,0,0,0,0-.1,0,0,0ZM18.08,23.76s-1.18.02-1.18,0c.39,0,.79,0,1.18,0,0,0-.18,0-.18,0,.06,0,.12,0,.18,0,0,.01-.18,0-.18,0,.06,0,.12,0,.18,0,0,.01-.18,0-.18,0,.06,0,.12,0,.18,0,0,.02-.39,0,0,0ZM15.45,23.88s1.12-.02,1.12,0c-.37,0-.75,0-1.12,0,0,0,.17,0,.17,0-.06,0-.11,0-.17,0,0-.01.17,0,.17,0-.06,0-.11,0-.17,0,0-.01.17,0,.17,0-.06,0-.11,0-.17,0,0-.02.37,0,0,0ZM16.57,23.97s-.99,0-.99,0c.33,0,.66,0,.99,0,0,0-.13,0-.14,0,.05,0,.1,0,.14,0,0,0-.13,0-.14,0,.05,0,.1,0,.14,0,0,0-.13,0-.14,0,.05,0,.09,0,.14,0,0,0-.33,0,0,0ZM15.48,23.77c.02-.07,1.16,0,1.28,0,0,.01-1.17,0-1.28,0,0-.02.18.02.19,0h-.19c.02-.07.17,0,.19-.01-.06,0-.13,0-.19.01.02-.07.17,0,.19-.01-.06.01-.13.02-.19.01.02-.07.43,0,0,0ZM13.69,23.88s1.32-.02,1.32,0c-.44,0-.88,0-1.32,0,0,0,.17,0,.19,0-.06,0-.13,0-.19,0,0-.01.17,0,.19,0-.06,0-.13,0-.19,0,0-.01.17,0,.19,0-.06,0-.13,0-.19,0,0-.01.44,0,0,0ZM14.97,23.98s-1.25,0-1.25,0c.42,0,.83,0,1.25,0,0,0-.18,0-.18,0,.06,0,.12,0,.18,0,0,0-.18,0-.18,0,.06,0,.12,0,.18,0,0,0-.18,0-.18,0,.06,0,.12,0,.18,0,0,0-.42,0,0,0ZM13.29,23.78s1.62-.02,1.62,0c-.54,0-1.08,0-1.62,0,0,0,.21,0,.24,0-.08,0-.16,0-.24,0,0-.01.21,0,.24,0-.08,0-.16,0-.24,0,0-.01.21,0,.24,0-.04,0-.23,0-.24,0,0-.02.54,0,0,0ZM12.27,23.89v-.02c.32,0,.63,0,.95,0v.02c-.32,0-.63,0-.95,0,0,0,.32,0,0,0,0,0,.32,0,0,0,0,0,.32,0,0,0,0,0,.32,0,0,0ZM13.07,24.08h0c-.26,0-.51,0-.77,0h0c.26,0,.51,0,.77,0,0,0-.26,0,0,0,0,0-.26,0,0,0,0,0-.26,0,0,0,0,0-.26,0,0,0ZM16.95,24.25c-.06,0-.26.05-.26-.04.05,0,.25-.07.26.04-.05,0,0,0,0,0-.06,0,0-.01,0,0ZM5.42,25.1s0-.01,0-.02c2.54,0,5.08,0,7.62-.01v.02c-2.54,0-5.09,0-7.63.01ZM11.26,25.65c-.17.02-.34.06-.52.05-.27,0-.54-.03-.81-.04-.06,0-.13.02-.19.03-.03,0-.06.01-.09.01-.36-.02-.71-.03-1.07-.05-.03,0-.06,0-.09,0,0,0,0-.02,0-.02.92,0,1.84,0,2.76,0,0,0,0,.01,0,.02ZM5.31,24.8v-.02c2.58,0,5.17,0,7.75-.01,0,0,0,.02,0,.02-2.58,0-5.17,0-7.75.01ZM5.33,24.36s0-.01,0-.02c1.56,0,3.12,0,4.68,0v.02c-1.56,0-3.12,0-4.69,0ZM9.85,24.55v.02c-1.48,0-2.96,0-4.44,0v-.02c1.48,0,2.96,0,4.44,0ZM6.63,23.15s-.03-.06-.04-.1c0-.02.01-.04.02-.07.02,0,.05.01.06.03.03.05.05.13.09.17.27.27.55.54.96.6.35.05.68-.02.96-.25.29-.23.46-.53.48-.91,0-.14,0-.29,0-.39.05.24.08.52-.04.81.06-.03.1-.05.16-.07-.08.28-.23.49-.43.66-.72.59-1.81.35-2.21-.49ZM6.79,23.94s0,.01,0,.02c-.46,0-.93,0-1.39,0,0,0,0-.01,0-.02.47,0,.93,0,1.4,0ZM6.99,20.67s0,.02,0,.04c-.72.02-1.44.02-2.15.01,0-.01,0-.03,0-.04.72,0,1.43,0,2.15,0ZM4.85,20.45c.88,0,1.76,0,2.65,0,0,0,0,.01,0,.02-.88,0-1.76,0-2.65,0v-.02ZM6.63,20.97s0,.02,0,.03c-.59,0-1.18,0-1.77,0v-.03c.59,0,1.18,0,1.77,0ZM6.4,21.2s0,.01,0,.02c-.5,0-1,0-1.5,0,0,0,0-.01,0-.02.5,0,1,0,1.5,0ZM6.29,21.4s0,.01,0,.02c-.4,0-.8,0-1.19,0v-.02c.4,0,.8,0,1.2,0ZM6.7,21.12s-.05,0-.08,0c0-.01.01-.03.02-.03.1-.08.16-.23.34-.18.02,0,.05-.02.07-.03.59-.33,1.19-.34,1.79-.04.04.02.08.03.14.06-.05-.06-.07-.09-.1-.13.26.09.46.25.62.46.05.07.09.14.14.2.07.1.07.17-.06.21-.43-.71-1.05-1.07-1.88-.94-.95.15-1.37.82-1.49,1.72-.03-.5.14-.92.49-1.29ZM8.41,22.04c-.18.01-.35.03-.51.04-.17,0-.34,0-.51,0,0-.03,0-.06.01-.1.31-.38,1.02-.29,1.21.22-.09-.1-.18-.2-.27-.3,0,0-.02.02-.02.02.03.04.06.07.09.11ZM7.8,22.85c-.03-.06-.07-.13-.11-.2.07-.06.15-.12.22-.18.08.04.17.07.25.11.08-.19.11-.21.25-.18.02,0,.04.02.05.03.04.02.08.05.11.07.01-.04.03-.08.04-.12.01,0,.02,0,.04-.01.03.09.05.19.08.3.02-.08.05-.14.07-.21.12,0,.2.09.2.24.01.23-.03.45-.27.58-.03.02-.05.05-.07.08-.03.04-.08.11-.1.1-.05-.02-.1-.07-.13-.12-.03-.04-.02-.1-.04-.15-.5.25-1,.13-1.06-.26.15-.02.3-.05.46-.07ZM7.75,21.32c-.64.08-.94.53-1.12,1.09.03-.25.03-.51.2-.69.04-.08.05-.14.09-.18.25-.25.55-.38.9-.41.58-.05,1.02.2,1.34.67.02.03.04.06.05.09.01.04.02.07.04.12-.03.02-.06.03-.1.05-.33-.51-.78-.81-1.39-.73ZM6.82,23.71s.09.06.14.1c.66.41,1.33.46,2,.06.44-.26.68-.67.78-1.17.02-.08.03-.15.18-.12-.07.22-.12.44-.21.63-.22.45-.57.77-1.04.94-.12.04-.27.03-.41.04-.36.03-.72,0-1.05-.16-.15-.07-.28-.18-.42-.27,0-.01.02-.02.02-.04ZM9.4,24.15s0-.01,0-.02c.26,0,.51,0,.77,0v.02c-.26,0-.51,0-.77,0ZM10.08,20.97v-.02c.12,0,.23,0,.35,0,0,0,0,.02,0,.02-.12,0-.23,0-.35,0ZM10.29,20.68c-.24,0-.48,0-.72,0,0,0,0-.02,0-.02.24,0,.48,0,.72,0,0,0,0,.02,0,.02ZM10.14,20.45c-.36,0-.72,0-1.08,0v-.02c.36,0,.72,0,1.08,0,0,0,0,.01,0,.02ZM4.83,20.28h0c1.73-.02,3.45-.02,5.18-.02,0,0,0,0,0,.01-1.73,0-3.45,0-5.18,0ZM4.79,20.07s0-.01,0-.02c1.69,0,3.38,0,5.07,0v.02c-1.69,0-3.38,0-5.07,0ZM6.19,21.59v.02c-.48,0-.96,0-1.44,0v-.02c.48,0,.96,0,1.44,0ZM6.11,21.8s0,.01,0,.02c-.37,0-.75,0-1.12,0v-.02c.37,0,.75,0,1.13,0ZM6.07,22.03s0,.02,0,.03c-.36,0-.72,0-1.08,0v-.03c.36,0,.72,0,1.08,0ZM6.04,22.34v.02c-.34,0-.68,0-1.01,0v-.02c.34,0,.68,0,1.01,0ZM5.02,22.56c.34,0,.68,0,1.02,0v.02c-.34,0-.68,0-1.02,0v-.02ZM5.09,22.77c.32,0,.65,0,.97,0,0,0,0,.01,0,.02-.32,0-.64,0-.97,0v-.02ZM6.12,22.97s0,.01,0,.02c-.34,0-.68,0-1.02,0,0,0,0-.01,0-.02.34,0,.68,0,1.03,0ZM5.11,23.18c.37,0,.73,0,1.1,0h0c-.37.02-.73.02-1.1.02h0ZM5.14,23.41c.4,0,.79,0,1.19,0,0,0,0,.01,0,.02-.4,0-.79,0-1.19,0v-.02ZM6.56,23.71v.02c-.45,0-.91,0-1.36,0,0,0,0-.01,0-.02.45,0,.91,0,1.36,0ZM5.25,24.15c.64,0,1.27,0,1.91,0,0,0,0,.01,0,.02-.64,0-1.27,0-1.91,0v-.02ZM9.67,19.85v.02c-1.58,0-3.17,0-4.75,0,0,0,0-.01,0-.02,1.58,0,3.17,0,4.75,0ZM4.76,19.68c.42-.07,4.63-.08,4.73,0-1.59,0-3.16,0-4.73,0ZM4.76,19.4c.15-.07,4.24-.08,4.35,0-1.46,0-2.9,0-4.35,0ZM6.91,18.7c-.84,0-1.67,0-2.51,0h0c.84-.01,1.67-.02,2.51-.02h0ZM31.51,26.15c-.5-.01-1.01-.02-1.52-.03-.1,0-.2.01-.3.02-.05,0-.1-.01-.15-.02,0-.02,0-.04,0-.06,1.23,0,2.46,0,3.69,0,0,.01,0,.02,0,.03-.05,0-.11.02-.16.02-.28.01-.57.03-.85.03-.15,0-.31-.05-.46,0-.05.02-.09.04-.14.05-.06.01-.12.02-.18.03,0-.01,0-.02,0-.03.03,0,.06-.02.09-.03,0,0,0,0-.01,0ZM33.86,26.11s0-.02,0-.04c.27,0,.54,0,.82,0-.09.07-.12.07-.41.04-.13-.01-.27,0-.41,0ZM10.01,17.17c.09-.01.18-.03.32-.05-.03.05-.05.12-.06.12-.08-.02-.2.1-.26-.07ZM10.22,12.29s0,.08.02.12c-.01,0-.02,0-.04.01-.06-.09-.07-.19-.07-.3,0-.09,0-.19.01-.28.07.02.13.11.09.18-.07.1-.01.18,0,.27ZM10.16,12.48c.03.06.06.12.1.21h-.14c0-.08,0-.14,0-.2.01,0,.02,0,.04-.01ZM39.64,5.03s.04-.02.06-.02c.02.05.05.09.07.14-.03,0-.08.03-.09.02-.02-.04-.04-.09-.05-.14ZM2.14,23.86c0-.09-.02-.18-.03-.27-.03-.28-.06-.56-.09-.84,0-.02.02-.04.03-.07,0,0,0,0,0,0,0,0,0,0,0,0-.02-.05-.04-.11-.04-.16-.04-.47-.08-.94-.12-1.4-.02-.19-.05-.39-.07-.58-.02-.19-.04-.38-.06-.58,0-.04.02-.09.03-.17.1.14.1.25.11.37,0,.26,0,.52.02.79.03.45.07.89.11,1.34.01.13,0,.27.01.4,0,0,0,0,0,0,0,0,0,0,0,0,.02.08.04.16.05.23.03.27.06.54.09.81,0,.04-.01.09-.05.13ZM2.18,24.46c0-.11,0-.22,0-.34,0,0,.01,0,.02,0,0,.11.02.22.02.33-.01,0-.03,0-.04,0ZM2.87,27.5s-.02,0-.04.01c-.06-.17-.13-.33-.19-.5.02,0,.03-.01.05-.02.06.17.2.3.18.5ZM20,28.48c-.15,0-.06.15-.08.23-.09-.17-.18-.21-.36-.19.11-.03.19,0,.27.07-.03.02-.07.03-.1.05-.31,0-.62-.02-.93-.03-.8-.02-1.59-.04-2.39-.06-.22,0-.44-.04-.66-.06-.13,0-.27,0-.4,0-.49.02-.98.04-1.48.06-.2.01-.39.04-.59.06-.15,0-.3,0-.45-.02.07-.02.14-.04.22-.06,0-.01,0-.02,0-.03-.08.01-.17,0-.25.04-.31.11-.63.1-.95.09-.59-.01-1.19-.03-1.78-.03-.61,0-1.22.02-1.83.03-.88,0-1.75.02-2.63.01-.57,0-1.12-.12-1.62-.41-.52-.3-.92-.72-1.21-1.24-.1-.19-.17-.39-.25-.59-.08-.18-.15-.36-.23-.53.02,0,.03-.02.05-.03.06.01.1.01.09.12-.01.11.05.23.1.34.19.34.4.68.61,1.02,0,.01.02.02.06,0-.07-.12-.13-.23-.2-.35,0,0,.02-.02.03-.02.08.11.17.21.25.32.21.28.47.49.76.69.44.3.92.38,1.43.39.6.01,1.19,0,1.79-.01,1.22,0,2.44,0,3.66-.02.73-.01,1.46-.06,2.19-.07.42,0,.84.01,1.26.01.44,0,.87-.03,1.31-.02.84.02,1.68.06,2.53.08.45.01.91.03,1.36.03.11,0,.48-.11.56-.02.08.11-.1.13-.16.13,0,0,.09,0,.05,0-.15,0,.07,0,0,0ZM20.18,28.48s0-.08-.01-.12c.15-.06.22-.02.19.12-.06,0-.12,0-.18,0,0-.03.07,0,0,0,0-.04.07,0,0,0,0-.04.06,0,0,0ZM20.59,28.44c-.15.08-.15.08-.19.26,0-.11-.06-.26.01-.35.06-.05.12-.06.19-.02.09.08-.19.22-.01.12-.13.07-.03.02,0,0-.15.08.02-.01,0,0ZM20.69,28.35c.08,0,.18-.05.17.09-.06-.01-.19.07-.17-.09ZM20.77,28.67c-.09-.05-.08-.1.05-.14.11.08-.02.1-.05.14-.11-.06.03-.03,0,0-.09-.05.03-.03,0,0ZM21.09,28.43c-.15.12-.16.01-.14.25-.04,0-.18-.54.19-.33-.06.08-.13.18-.19.26.03-.04.23-.26.08-.14.02-.02.04-.03.06-.05-.15.12.02-.02,0,0ZM21.58,28.4c-.09-.01-.14.02-.15.12-.09-.04-.17-.09-.25-.14.13-.07.34-.12.47-.03-.03.03-.06.05-.1.06.06-.02-.06,0,.03,0-.09-.01.02,0,0,0ZM39.04,26.3c.12-.32.25-.65.37-.97-.02.36-.21.66-.37.97ZM40.52,8.64c-.01.64,0,1.28-.02,1.91,0,.3-.03.6-.04.9,0,.18,0,.36,0,.54-.03.52-.06,1.04-.09,1.56,0,.03.02.06.03.1,0,.03-.03.08-.04.13-.02.25-.03.5-.04.75-.04.68-.08,1.35-.13,2.03-.04.53-.1,1.07-.14,1.6-.05.52-.08,1.03-.13,1.55-.05.53-.12,1.06-.18,1.59-.03.29-.04.58-.08.86-.05.49-.12.97-.17,1.46-.02.18,0,.36,0,.54,0,.03,0,.05-.01.08-.08.18-.09.38-.12.57-.05.49-.19.97-.38,1.42-.08.18-.14.37-.21.56-.17.44-.45.81-.8,1.11-.38.32-.84.46-1.32.51-.35.04-.7.04-1.05.06-.03,0-.05.01-.08.02,0,.01,0,.03,0,.04.16,0,.33,0,.49,0,.37,0,.75-.04,1.11-.15.58-.17,1.05-.52,1.42-.98.05-.06.06-.14.09-.21.02,0,.03.01.05.02-.02.06-.03.12-.06.16-.42.63-1.01,1.02-1.75,1.15-.44.07-.89.1-1.33.1-1.41,0-2.81-.05-4.22-.06-1.67,0-3.35,0-5.02,0-1.02,0-2.05-.02-3.07-.02-.29,0-.58,0-.87,0-.13.02-.17-.02-.13-.11.82-.01,1.63-.03,2.45-.04,0-.01,0-.02,0-.03-.17,0-.34,0-.51,0-.17,0-.35,0-.52,0-.44.01-.89.02-1.33.04-.17,0-.33-.06-.36.17,0-.14-.11-.2-.24-.17-.03-.24.5-.11.61-.11.94,0,1.88-.02,2.83-.03.62,0,1.24.03,1.87.03.97,0,1.94-.05,2.91-.05,1.04,0,2.07.05,3.11.06,1.09.02,2.18.05,3.27.04.58,0,1.13-.15,1.6-.51.27-.21.49-.47.62-.78.22-.51.44-1.02.61-1.55.12-.37.17-.76.21-1.14.11-.91.2-1.83.29-2.75.08-.73.15-1.46.22-2.19.06-.71.12-1.42.17-2.13.08-1.08.15-2.16.21-3.23.03-.44.04-.88.05-1.32.03-1.11.07-2.22.1-3.33.02-.93.04-1.86.06-2.79,0-.35,0-.7.01-1.05,0-.02,0-.04,0-.06.01,0,.03,0,.04,0,.01.27.04.55.03.83-.01.77-.04,1.54-.06,2.3-.01.64.01-.77,0,0-.01.64.01-.77,0,0-.01.64.01-.77,0,0Z"/>
      <path class="cls-1" d="M7.51,13.85s-.02.03-.02.05c-.28.68-.56,1.37-.84,2.05-.04.1-.1.2-.1.3,0,.48-.04.97.06,1.44.02.08.05.09.1.05.16-.12.34-.12.52-.07.12.03.23.07.36.11-.02-1.33-.03-2.63-.05-3.93h-.04ZM7.26,17.17c.08,0,.16-.02.27-.03-.1.14-.18.15-.27.03Z"/>
      <path class="cls-1" d="M39.02,14.32c-.12.06-.18.96-.18,1.09-.01.44.03.92-.08,1.35-.04.16-.19.67.01.78.19.1.23-.35.24-.44.08-.51.06-1.03.11-1.54.01-.12.1-1.32-.1-1.23-.08.04.04-.02,0,0Z"/>
      <path class="cls-1" d="M38.04,19.79c-.07-.02.38-3.16.38-3.5-.21.1-.17.37-.15.56.03.34-.1.64-.14.96-.08.66-.1,1.31-.09,1.98,0,0,0-.11,0,0,0,0,0-.09,0,0Z"/>
      <path class="cls-1" d="M38.18,22.09c-.11.23-.55,1.59-.12,1.66.07-.34.27-.77.16-1.12-.07-.23.13-.42-.04-.54-.12.25.04.03,0,0Z"/>
      <path class="cls-1" d="M38.67,18.74c-.17.07-.12.71.05.54.13-.13.25-.54-.05-.54.01,0,.05,0,.07,0-.02,0-.05,0-.07,0-.1.05.17,0,0,0Z"/>
      <path class="cls-1" d="M38.81,18.12c-.27.02-.27.17-.29.4.1-.04.29,0,.34-.1.03-.06.08-.3-.05-.29-.07,0,.08,0,0,0-.29.02.09,0,0,0Z"/>
      <path class="cls-1" d="M39.21,13.67c-.24-.21-.2.45-.21.57.31-.03.21-.41.21-.54,0,.04,0,.04,0-.02-.24-.21,0,.12,0,0Z"/>
      <path class="cls-1" d="M10.36,6.86s-.03,0-.05.01c.02.57.04,1.14.06,1.71.01,0,.03,0,.04,0,0-.54,0-1.09,0-1.63,0-.03-.03-.06-.05-.09Z"/>
      <path class="cls-1" d="M34.22,17.86c-.17-.03-.17-.03-.13-.2.02-.08.03-.16.03-.24,0-.02-.03-.05-.05-.08-.02.02-.05.04-.06.06-.02.11-.04.21-.04.32,0,.1-.03.15-.14.15-.06,0-.12,0-.18,0,0,.01,0,.02,0,.03.2,0,.39,0,.59,0,0-.03-.02-.04-.03-.05Z"/>
      <path class="cls-1" d="M38.21,21.54c-.04.14-.18.58.12.47-.07-.15-.02-.37.08-.5-.11-.04-.18-.08-.22.06,0-.01.04-.13,0-.03-.05.17.04-.13,0,0Z"/>
      <path class="cls-1" d="M20.23,7.05c0,.55,0,1.09,0,1.61.07-.44.07-1.52,0-1.61Z"/>
      <path class="cls-1" d="M35.45,17.65c0-.08,0-.17,0-.25-.02,0-.05,0-.07,0-.02.08-.05.16-.05.24,0,.15-.03.25-.2.24,0,0,0,.01-.02.03.2,0,.38,0,.57,0,0-.01,0-.02,0-.03-.02,0-.05-.01-.07-.01-.18-.03-.18-.03-.16-.21Z"/>
      <path class="cls-1" d="M32.7,17.71c0-.07.02-.13.02-.2,0-.04-.03-.08-.04-.11-.02,0-.03,0-.05,0,0,.13,0,.26,0,.41-.04.02-.09.05-.15.08.12,0,.23,0,.35,0-.15-.03-.15-.03-.13-.18Z"/>
      <path class="cls-1" d="M6.35,16.97c.02.23-.1.52.06.8.02-.12.04-.25.03-.38-.02-.16-.06-.31-.09-.42Z"/>
      <path class="cls-1" d="M13.4,17.73c0-.09,0-.19,0-.31-.14.09-.1.19-.1.29,0,.08,0,.16,0,.24.05,0,.13,0,.21,0-.12-.04-.12-.13-.11-.22Z"/>
      <path class="cls-1" d="M21.6,17.51c-.06.14.15.37-.14.44.09,0,.17.01.24.02,0-.1-.02-.17,0-.24.03-.11,0-.17-.1-.22Z"/>
      <path class="cls-1" d="M7.7,17.33c.02.15.04.29.06.46.12-.14.09-.34-.06-.46Z"/>
      <path class="cls-1" d="M38.48,25.78c.07-.24.14-.48.13-.73-.06.24-.12.48-.18.72.02,0,.03,0,.05.01Z"/>
      <path class="cls-1" d="M31.32,17.75c.01-.09.03-.18.04-.28,0-.03-.04-.06-.06-.09-.02.02-.07.05-.07.07,0,.1.02.19.03.29.02,0,.04,0,.06,0Z"/>
      <path class="cls-1" d="M36.85,15.12h.02c0-.25,0-.5,0-.75,0,0-.02,0-.02,0,0,.25,0,.5,0,.75Z"/>
      <path class="cls-1" d="M7.72,13.41h-.02c0,.27,0,.53,0,.8h.02c0-.27,0-.53,0-.8Z"/>
      <path class="cls-1" d="M38.68,19.44c-.19-.04-.18-.09-.26.12.09.02.17.04.26.06,0-.08-.05-.11-.15-.08.05-.03.1-.07.15-.1-.09-.02-.06.04,0,0-.19-.04-.07.04,0,0Z"/>
      <path class="cls-1" d="M38.05,19.97c-.09,0-.1.45-.11.54.1,0,.1-.48.11-.54-.02,0-.01.07-.01.08,0-.03,0-.05.01-.08-.09,0-.02.18,0,0Z"/>
      <path class="cls-1" d="M13.2,8.56h.02c0-.2,0-.39,0-.59h-.02c0,.2,0,.39,0,.59Z"/>
      <path class="cls-1" d="M16.05,26.59c.2,0,.4,0,.6,0v-.03c-.2,0-.4,0-.6,0v.03Z"/>
      <path class="cls-1" d="M37.88,23.8c-.09.13,0,.17.12.21.03-.11.03-.2-.12-.21Z"/>
      <path class="cls-1" d="M18.86,17.45s-.04.02-.04.03c.01.09.03.18.04.27.01,0,.03,0,.04,0,0-.08.01-.16.01-.24,0-.02-.03-.04-.06-.06Z"/>
      <path class="cls-1" d="M11.9,17.59s.04.07.06.11c.01,0,.03-.01.04-.02v-.27c-.11.04-.11.11-.1.18Z"/>
      <path class="cls-1" d="M37.83,24.04c-.05.15-.03.17.12.17.03-.13.02-.14-.12-.17Z"/>
      <path class="cls-1" d="M10.77,26.39c.12,0,.21-.01.31-.02-.11-.09-.22-.08-.31.02Z"/>
      <path class="cls-1" d="M14.62,9.01c0,.11,0,.23,0,.34.02,0,.04,0,.06,0,0-.11-.02-.23-.03-.34-.01,0-.02,0-.03,0Z"/>
      <path class="cls-1" d="M37.77,24.36s.06.06.09.09c.07-.1.02-.13-.04-.22,0,.01-.05.12-.04.13.03.03,0-.02,0,0Z"/>
      <path class="cls-1" d="M38.41,20.01c.08.02.22.09.27,0-.12-.08-.15-.08-.27,0,.08.02.04-.03,0,0,.08.02.05-.03,0,0Z"/>
      <path class="cls-1" d="M29.88,17.62s.04,0,.06,0c0-.07,0-.14,0-.22-.02,0-.05,0-.07,0,0,.07,0,.14.01.22Z"/>
      <path class="cls-1" d="M17.44,17.91s0,.02,0,.03c.03,0,.06,0,.1-.01,0-.09.01-.17.02-.25-.03,0-.06,0-.06,0-.02.08-.03.15-.05.23Z"/>
      <path class="cls-1" d="M38.03,26.61s.03.02.04.02c.07-.12.14-.23.21-.35-.01,0-.02-.01-.03-.02-.07.11-.14.23-.22.34Z"/>
      <path class="cls-1" d="M9.19,17.77c-.02.05-.03.1-.05.15.04,0,.07.02.13.03-.02-.08-.04-.13-.05-.18-.01,0-.02,0-.03,0Z"/>
      <path class="cls-1" d="M27.16,17.8s.02,0,.03,0c0-.1.01-.2.02-.3-.02,0-.05,0-.07,0,0,.1.01.2.02.3Z"/>
      <path class="cls-1" d="M32.83,9.8s-.02,0-.03,0c0,.12,0,.23,0,.35.01,0,.02,0,.03,0v-.35Z"/>
      <path class="cls-1" d="M27.21,14.46h.01c0-.22,0-.45,0-.67,0,0,0,0-.01,0,0,.23,0,.45,0,.68Z"/>
      <path class="cls-1" d="M23.04,10.12s0,0,0,0c0-.17,0-.34,0-.51,0,0,0,0-.01,0,0,.17,0,.34,0,.51Z"/>
      <path class="cls-1" d="M2.3,14.5c0,.08,0,.16,0,.23.02,0,.04,0,.05,0,0-.08,0-.16-.01-.23-.01,0-.03,0-.04,0Z"/>
      <path class="cls-1" d="M38.24,21.28c-.02.13.09.11.15.14.02-.12-.06-.13-.15-.14Z"/>
      <path class="cls-1" d="M37.74,24.59c-.03.07-.02.11.04.13.07-.06.07-.13.01-.2.08-.11-.06.09-.05.07-.03.07,0-.03,0,0Z"/>
      <path class="cls-1" d="M31.13,17.87s0,.02,0,.03c.09,0,.19,0,.28,0,0-.02,0-.04,0-.05-.09,0-.19.01-.28.02Z"/>
      <path class="cls-1" d="M9.17,17.44s-.03,0-.05,0c0,.09.01.18.02.27.01,0,.02,0,.03,0,0-.09,0-.18,0-.27Z"/>
      <path class="cls-1" d="M28.6,12.23h.02c0-.11,0-.23,0-.34h-.02c0,.11,0,.23,0,.34Z"/>
      <path class="cls-1" d="M34.23,8.99h-.01c0,.2,0,.4,0,.61,0,0,0,0,.01,0,0-.2,0-.4,0-.6Z"/>
      <path class="cls-1" d="M23.04,8.82s.01,0,.02,0c0-.11,0-.22,0-.33h-.02c0,.11,0,.22,0,.33Z"/>
      <path class="cls-1" d="M27.2,15.96s.01,0,.02,0c0-.09,0-.19,0-.28h-.02c0,.09,0,.19,0,.28Z"/>
      <path class="cls-1" d="M20.22,17.83s-.01.09-.02.13c.03,0,.07,0,.13.02-.03-.07-.05-.11-.07-.15-.01,0-.03,0-.04,0Z"/>
      <path class="cls-1" d="M10.73,20.65c1.79,0,3.59,0,5.39-.02,3.76-.02,7.53-.04,11.29-.05.47,0,.94,0,1.41,0,0,0,0,.02,0,.03h-.32s0,.03,0,.04c.17,0,.35-.01.41.21,0,0,.02-.01.03-.02.02-.08.04-.15.06-.23,0,.1,0,.2,0,.3-6.08.03-12.14.06-18.2.09,0,.02,0,.04,0,.06,1.16.01,2.32.01,3.48.04-1.15,0-2.29,0-3.45,0,.02.09.05.15.06.21.02.1.07.13.17.13.28,0,.56,0,.84,0,.11,0,.22,0,.35,0-.03.16.05.2.15.16.1-.04.18,0,.27,0,.15,0,.3,0,.45,0,.07,0,.37.05.38-.04-.2-.07-.67.12-.79-.11,1.16,0,2.33.02,3.49,0,.53,0,1.06-.07,1.58-.02.23.02.43.14.66.2.32.08.65.06.98.06-.22-.04-.45-.06-.67-.11-.09-.03-.17-.07-.25-.13-.1.12-.22.13-.27-.03,2.73,0,5.46,0,8.19-.02.86,0,1.71-.01,2.57-.02.56,0,1.11,0,1.67,0,.05,0,.1-.02.14-.04,0-.01,0-.03,0-.04-1,0-2,0-3,0,.3-.03.6-.03.9-.03.66,0,1.32,0,1.98,0,.04,0,.09-.02.13-.04,0-.01,0-.03-.01-.04-1,0-2,0-3,0v-.03c.96,0,1.92,0,2.88,0,.05,0,.1-.01.15-.02,0-.02,0-.03,0-.05-.31,0-.62,0-.93,0,.16-.02.33-.02.49-.03.16,0,.32.03.48-.02,0-.01,0-.02,0-.03-1.49,0-2.99,0-4.48,0,1.51-.02,3.01-.02,4.52-.06,0-.02,0-.04,0-.06-.18,0-.36,0-.54,0s-.37,0-.56,0c0-.12,0-.22,0-.34.03,0,.06,0,.08,0,.35,0,.71,0,1.06,0,.08,0,.13-.01.16-.09.02-.05.05-.1.09-.17-6.91.03-13.8.07-20.73.1.1.11.09.25.26.25,1.79,0-.17,0,0,0,1.79,0-.17,0,0,0,1.79,0-.17,0,0,0,1.79,0-.17,0,0,0ZM14.43,21.15s-.56.01-.56,0c.19,0,.37,0,.56,0,0,0-.08,0-.08,0,.03,0,.05,0,.08,0,0,.01-.08,0-.08,0,.03,0,.05,0,.08,0,0,.01-.08,0-.08,0,.03,0,.05,0,.08,0,0,.01-.19,0,0,0ZM13.29,21.15h0c-.25,0-.51,0-.76,0h0c.25,0,.51,0,.76,0,0,0-.25,0,0,0,0,0-.25,0,0,0,0,0-.25,0,0,0,0,0-.25,0,0,0ZM12.54,21.35s0,0,0-.01c.25,0,.5,0,.76,0,0,0,0,0,0,.01-.25,0-.51,0-.76,0,0,0,.25,0,0,0,0,0,.25,0,0,0,0,0,.25,0,0,0,0,0,.25,0,0,0ZM13.3,21.26c-.26,0-.52,0-.78,0h0c.26-.02.52-.02.78-.02,0,.05-.04.05-.11.01.04,0,.07,0,.11,0-.04,0-.09,0-.13,0,.01,0,.13,0,.13,0-.3,0,0,0,0,0-.26,0,0,0,0,0ZM13.85,21.26s.6-.02.6,0c-.2,0-.4,0-.6,0,0,0,.08,0,.08,0-.03,0-.06,0-.08,0,0-.02.08,0,.08,0-.03,0-.06,0-.08,0,0-.02.08,0,.08,0-.03,0-.06,0-.08,0,0-.02.2,0,0,0ZM14.97,21.25s.48-.03.49,0c-.16,0-.32,0-.49,0,0,0,.07,0,.07,0-.02,0-.05,0-.07,0,0-.01.07,0,.07,0-.02,0-.05,0-.07,0,0-.01.07,0,.07,0-.02,0-.05,0-.07,0,0-.01.16,0,0,0ZM15.99,21.24s.42-.01.43,0c-.12,0-.29,0-.43,0,.02,0,.05,0,.07,0-.07,0-.08,0-.03,0,.05,0,.04,0-.03,0,0-.01.17,0,0,0,0-.02.14,0,0,0ZM20.47,21.04c-.28,0-3.21.01-3.21,0,.3,0,3.21-.01,3.21,0-.04,0-.48,0-.48,0,0,0,.48,0,.48,0-.05,0-.09,0-.14,0,.01,0,.14,0,.14,0-.32,0,0,0,0,0-.28,0,0,0,0,0ZM20.7,21.32s.6-.03.6,0c-.2,0-.4,0-.6,0,0,0,.08,0,.08,0h-.08s.08,0,.08,0h-.08s.08,0,.08,0h-.08s.2,0,0,0ZM20.72,21.22s.57-.02.57,0c-.19,0-.38,0-.57,0,0,0,.08,0,.08,0-.03,0-.05,0-.08,0,0-.01.08,0,.08,0-.03,0-.05,0-.08,0,0-.01.08,0,.08,0-.03,0-.05,0-.08,0,0-.01.19,0,0,0ZM22.8,21.04c-.74,0-1.47,0-2.21,0,.11-.23,2.21.13,2.21,0-.11,0-.22,0-.33,0,.03,0,.33,0,.33,0-.11,0-.22,0-.33,0,.03,0,.33,0,.33,0-.11,0-.22,0-.33,0,.03,0,.33,0,.33,0-.74,0,0,0,0,0ZM26.44,21.18c.29,0,.58,0,.86,0,0,.03-.86,0-.86,0,.04,0,.08,0,.12,0-.04,0-.08,0-.12,0,.04,0,.08,0,.12,0-.04,0-.08,0-.12,0,.04,0,.08,0,.12,0-.01,0-.12,0-.12,0,.29,0,0,0,0,0ZM26.4,21.28c.09,0,.91,0,.91,0-.27,0-.63.07-.89,0,.04,0,.08,0,.12,0-.04,0-.09,0-.13,0,.13,0,0,0,0,0,.11,0,0,0,0,0,.09,0,0,0,0,0Z"/>
      <path class="cls-1" d="M27.23,21.53c1.14,0,2.28,0,3.42,0,0-.01,0-.02,0-.03-.03,0-.06-.02-.1-.02-.29,0-.58.01-.87.02-.03,0-.06,0-.09,0-.48,0-.96,0-1.43-.01-1.09,0-2.17.18-3.26.14-.52-.02-1.04-.06-1.56,0-.24.03-.48.09-.72.11-.28.02-.48-.1-.75-.17-.48-.13-1.08-.03-1.57.01-.6.05-1.21.13-1.81.09-1.18-.08-2.36-.05-3.54-.05-1.08,0-2.16.01-3.24.02-.25,0-.49,0-.75,0,.02.14.03.25.05.37,6.57-.03,13.13-.06,19.69-.09.02-.14.03-.25.04-.36-1.18,0-2.34,0-3.5,0,0-.06.41-.04.5-.03-.05,0-.5.01-.5,0,.17,0,.34-.01.5,0-.05,0-.5.01-.5,0,.17,0,.34-.01.5,0-.05,0-.5.01-.5,0,1.14,0,0,.01,0,0Z"/>
      <path class="cls-1" d="M31.06,20.25c.13,0,.21-.03.25-.17-.98,0-1.95,0-2.93,0-.06.15-.02.21.1.18.86,0,1.72-.02,2.58-.01.13,0-.86,0,0,0,.13,0-.86,0,0,0,.13,0-.86,0,0,0,.13,0-.86,0,0,0Z"/>
      <path class="cls-1" d="M10.59,20.34c.23,0,.46,0,.69,0,.3,0,.59,0,.9,0,.02-.18.02-.19-.13-.19-.3,0-.6,0-.91,0-.25,0-.51,0-.77,0,.06.18.07.19.22.19Z"/>
      <path class="cls-1" d="M10.97,22.95s.01,0,.02,0c.54,0,1.07,0,1.61,0,.03,0,.05-.03.08-.05.03-.08-.03-.08-.07-.08-.13,0-.27.02-.4.01-.38,0-.77,0-1.15,0-.09,0-.11.04-.08.12,0,0-.03-.08,0,0,0,0-.03-.08,0,0,0,0-.03-.08,0,0,0,0-.03-.08,0,0Z"/>
      <path class="cls-1" d="M10.46,24.32c.57,0,1.13,0,1.7,0,.02,0,.04-.05.07-.07-.03-.02-.07-.05-.1-.05-.51,0-1.02,0-1.53,0-.05,0-.1.04-.15.06,0,.02.01.04.02.05Z"/>
      <path class="cls-1" d="M13.21,20.33c.13,0,1.01.03,1.01-.04-.19,0-1.38.11-1.45-.05-.03-.08-.09-.08-.16-.08-.09,0-.17,0-.26,0-.15,0-.17.03-.12.19.32-.04.64,0,.97,0,.03,0,.06,0,.1,0-.06,0-.13,0-.19,0,.04,0,.08,0,.12,0-.05,0-.1,0-.14,0,.05,0,.1,0,.14,0-.05,0-.1,0-.14,0,.04,0,.08,0,.12,0,.13,0-.32.01,0,0Z"/>
      <path class="cls-1" d="M12.12,21.59s.05-.04.08-.06c-.03-.02-.06-.07-.08-.07-.39,0-.78,0-1.18,0-.02.09,0,.14.09.14.37,0,.73,0,1.1-.01Z"/>
      <path class="cls-1" d="M21.68,19.5c.29,0,.66-.05.96-.09-.02-.19-1-.05-1.14-.04.07.1.18.13.29.13-.04,0-.07,0-.11,0,.04,0,.07,0,.11,0-.04,0-.07,0-.11,0,.29,0-.06,0,0,0Z"/>
      <path class="cls-1" d="M18.8,20.28c-.11,0-.17-.07-.14-.17-.1.04-.19.21-.31.17-.05-.01-.12-.18-.18-.15-.03.06-.04.12-.04.18.41,0,.82,0,1.23,0-.19-.03-.38-.03-.57-.02.02,0,.05,0,.07,0-.03,0-.06,0-.1,0,.03,0,.06,0,.09,0-.03,0-.06,0-.09,0,.03,0,.05,0,.08,0,.03,0,.02,0-.05,0-.12,0,.19,0,0,0Z"/>
      <path class="cls-1" d="M21.4,19.41c-.07-.07-.95-.1-1.09-.04.36,0,.72.12,1.09.04Z"/>
      <path class="cls-1" d="M18.12,21.5s0,0,0,0c0,0,0,0,0,0Z"/>
      <path class="cls-1" d="M17.15,21.5c-.13,0-.26.02-.39.04,0,.09,1.25.09,1.36-.04-.33,0-.66,0-.99,0,.05,0,.1,0,.14,0-.05,0-.1,0-.14,0,.04.01.11,0,.14,0-.05,0-.1,0-.14,0,.04.01.11,0,.14,0-.04,0-.08,0-.12,0-.13,0,.32,0,0,0Z"/>
      <path class="cls-1" d="M30.72,23.4s-.09,0-.12-.01c-.1-.06-.16-.06-.24,0,.18.06.36.11.56.17,0-.05,0-.07,0-.09-.02-.05-.05-.1-.08-.15-.04.02-.08.06-.12.07Z"/>
      <path class="cls-1" d="M15.67,20.29c-.43,0-.86,0-1.29,0,0,.09,1.29,0,1.29,0-.06,0-.13,0-.19,0,0,.02.19-.01.19,0-.06,0-.13,0-.19,0,0,.02.19,0,.19,0-.06,0-.13,0-.19,0,0,0,.19,0,.19,0-.43,0,0,0,0,0Z"/>
      <path class="cls-1" d="M25.31,21.59c-.19-.09-.42-.14-.62-.09.19.14.41.19.62.09-.04-.01-.08,0-.11.02.04.04.08.03.11-.02.04.02-.21-.06-.15.02.05,0,.1-.01.15-.02.04.02-.21-.06-.15.02.05.02.1.02.15-.02-.19-.09-.22.1,0,0Z"/>
      <path class="cls-1" d="M22.72,21.67c.08-.19-.37-.14-.46-.06.07.06.5.12.47-.02-.03,0-.05.02-.06.06,0-.1.05.02.05.02.08-.19-.13,0,0,0Z"/>
      <path class="cls-1" d="M15.03,23.06c.13,0,.25,0,.39,0-.14-.31-.48-.02-.36,0-.07,0,.1,0-.03,0,.11,0,.03,0,0,0,.13,0-.03,0,0,0Z"/>
      <path class="cls-1" d="M20.19,21.52s1.29.06,1.29,0c-.43,0-.86,0-1.29,0,0,0,.19,0,.19,0-.06,0-.13,0-.19,0,0,.04.17,0,.19,0-.06,0-.13,0-.19,0,0,.04.17,0,.19,0-.06,0-.13,0-.19,0,0,.04.43,0,0,0Z"/>
      <path class="cls-1" d="M14.04,22.94c0-.11-.78,0-.88-.04.01.11.78.04.88.04,0,0-.11,0-.13,0,.04,0,.08,0,.13,0,0-.06-.1-.06-.13-.03.03.05.07.06.13.03,0-.06-.1-.06-.13-.03.02.05.06.06.13.03,0-.11-.29,0,0,0Z"/>
      <path class="cls-1" d="M14.91,22.94c-.26-.1-.5-.11-.77-.06.04.16.65.06.77.06-.05-.02-.1-.02-.14-.02.05,0,.1.01.14.02-.06-.04-.13-.05-.19-.04.06.03.12.04.19.04-.06-.04-.13-.05-.19-.04.06.03.12.04.19.04-.26-.1-.25,0,0,0Z"/>
      <path class="cls-1" d="M15.64,21.53c-.29,0-.58,0-.87,0,0,.08.76.06.84.02-.02-.03-.06-.03-.1-.02.04,0,.08,0,.12,0-.04,0-.08,0-.12,0,.04,0,.08,0,.12,0-.04,0-.08,0-.12,0,.01,0,.13,0,.12,0-.29,0,0,.01,0,0Z"/>
      <path class="cls-1" d="M14.55,21.54c-.28,0-.56,0-.83.03.09,0,.91.03.9-.04-.19.01.02,0-.19,0,.04,0,.08,0,.12,0-.04,0-.08,0-.11,0,.04,0,.08,0,.11,0-.28,0,.02,0,0,0Z"/>
      <path class="cls-1" d="M20.6,20.27c-.35,0-.7,0-1.05,0,0,.06,1.05.04,1.05,0-.05,0-.1,0-.15,0,.05,0,.1,0,.15,0-.05,0-.1,0-.15,0,.05,0,.1,0,.15,0-.05,0-.1,0-.15,0,.02,0,.15,0,.15,0-.35,0,0,0,0,0Z"/>
      <path class="cls-1" d="M13.11,22.84c-.16.03-.29.05-.42.07.1.02.25.09.34.02.02-.02.17-.15,0-.07,0,0,.06.02.08-.02-.18.03-.02.04,0,0-.16.03-.03.05,0,0Z"/>
      <path class="cls-1" d="M12.69,22.91s-.02,0,0,0c0,0,0,0,0,0Z"/>
      <path class="cls-1" d="M16.54,20.31c0-.06-.54-.03-.63-.03,0,.09.56.03.63.03,0-.01-.09,0-.09,0,.03,0,.06,0,.09,0,0-.06-.09-.01-.09,0,.03,0,.06,0,.09,0,0-.06-.09-.01-.09,0,.03,0,.06,0,.09,0,0-.06-.21,0,0,0Z"/>
      <path class="cls-1" d="M17.82,20.28c-.13,0-1.09-.07-1.13.01.1,0,1.13.01,1.13-.01-.06,0-.11,0-.17,0,0,0,.26,0,.13,0,0,0,.04,0,.04,0-.13,0,0,0,0,0Z"/>
      <path class="cls-1" d="M22.74,20.29s-.77-.02-.86-.02c0,.05.78.02.86.02,0,0-.12,0-.12,0,.04,0,.08,0,.12,0,0-.03-.11-.02-.12-.01.04,0,.08,0,.12.01,0-.03-.11-.02-.12-.01.04.02.08.02.12.01,0-.04-.29,0,0,0Z"/>
      <path class="cls-1" d="M28.32,20.26c-.01-.11-.41-.02-.52,0,.05.08.43,0,.52,0,0-.02-.07,0-.07,0,.02,0,.05,0,.07,0,0-.04-.03-.06-.07-.04,0,.05.01.06.07.04,0-.04-.03-.06-.07-.04-.02.04,0,.05.07.04-.01-.11-.17,0,0,0Z"/>
      <path class="cls-1" d="M21.7,20.27c-.11,0-.93-.04-.94.02.21,0,.72.1.93,0-.04,0-.08-.01-.12-.01.05,0,.09,0,.14,0-.07,0-.08,0-.03,0,0,0,.03,0,.03,0-.11,0,0,0,0,0Z"/>
      <path class="cls-1" d="M23.72,20.28c-.26-.04-.51-.02-.78,0,0,.03.7,0,.78,0-.05,0-.1,0-.15,0,.05,0,.1,0,.15,0-.06-.01-.13-.02-.2-.01.07,0,.13,0,.2.01-.06-.01-.13-.02-.2-.01.06.01.13.02.2.01-.26-.04-.26,0,0,0Z"/>
      <path class="cls-1" d="M29.92,23.47s.02.06.04.1c.02,0,.03,0,.05,0,0-.06.02-.13.02-.19,0-.01-.08-.02-.12-.03,0,.05.01.09.02.13Z"/>
      <path class="cls-1" d="M26.64,20.24c-.13,0-.26,0-.39,0,.14.06.35.05.39,0Z"/>
      <path class="cls-1" d="M23.88,21.5c0,.1.31.04.38.04,0-.07-.23-.06-.27-.05-.13,0-.06.02-.06.03,0-.01-.01-.02-.06-.02,0,.1.13,0,0,0Z"/>
      <path class="cls-1" d="M15.78,21.54c.17.05.35.04.42-.02-.15,0-.29.01-.42.02Z"/>
      <path class="cls-1" d="M24.65,20.25c-.11,0-.22,0-.33,0,0,.06.33.04.33,0-.01.06,0-.05,0,0-.14,0,0,0,0,0-.11,0,0,0,0,0Z"/>
      <path class="cls-1" d="M16.63,21.55h-.35c0,.05.34.03.35,0-.01.07,0-.05,0,0-.14,0,0,0,0,0-.12,0,0,0,0,0Z"/>
      <path class="cls-1" d="M25.61,20.24s-.34-.02-.34.02c.08,0,.26.04.33,0-.01-.01-.03-.02-.05-.02,0,0,.06,0,.06,0-.04,0,0,0,0,0Z"/>
      <path class="cls-1" d="M29.34,28.39c2.02.05,4.04.09,6.06.14,0-.02,0-.03,0-.04-2.02-.05-4.04-.1-6.06-.15,0,.02,0,.03,0,.05Z"/>
      <path class="cls-1" d="M26.55,28.43s0,.03,0,.04c.89-.02,1.79-.05,2.68-.07,0-.01,0-.02,0-.04-.89.02-1.79.05-2.68.07Z"/>
      <path class="cls-1" d="M17.15,28.43s0-.03,0-.04c-.52,0-1.03,0-1.54-.02.51.01,1.03.1,1.54.05Z"/>
      <path class="cls-1" d="M13.49,28.39c.61.05,1.22.02,1.84-.01.06,0,.13,0,.19,0-.68,0-1.35-.01-2.03-.02v.04Z"/>
      <path class="cls-1" d="M10.81,28.44c-.1,0-.19,0-.29,0,0,.01,0,.02,0,.04.3,0,.6,0,.91,0,0,0,0,0,0,0-.1-.01-.2-.03-.31-.03-.1,0-.21,0-.31,0Z"/>
      <path class="cls-1" d="M17.51,28.46c.37,0,.74,0,.93,0-.19,0-.56-.02-.93-.03,0,.01,0,.02,0,.04Z"/>
      <path class="cls-1" d="M12.68,28.39s0,.02,0,.04c.19-.02.39-.03.58-.05,0-.01,0-.03,0-.04-.19.02-.39.04-.58.05Z"/>
      <path class="cls-1" d="M8.45,28.49c.22,0,.44,0,.66,0v-.02c-.22,0-.44,0-.66,0,0,0,0,.01,0,.02Z"/>
      <path class="cls-1" d="M11.55,28.51c.21,0,.42,0,.64,0v-.02c-.21,0-.42,0-.64,0,0,0,0,.02,0,.02Z"/>
      <path class="cls-1" d="M3.19,27.41c.06.07.13.14.19.21.01-.01.02-.02.03-.03-.06-.07-.12-.14-.18-.21-.01.01-.03.02-.04.04Z"/>
    </g>
  </g>
</svg>