<?xml version="1.0" encoding="UTF-8"?>
<svg id="Layer_2" xmlns="http://www.w3.org/2000/svg" viewBox="0 0 36.16 36.04">
  <defs>
    <style>
      .cls-1 {
        fill: #2c489e;
      }
    </style>
  </defs>
  <g id="Layer_1-2" data-name="Layer_1">
    <g>
      <path class="cls-1" d="M36.15,17.29c-.02-1.13-.2-2.25-.31-3.37,0-.08-.04-.16-.06-.23-.19-.53-.4-1.05-.58-1.58-.14-.39-.22-.81-.38-1.18-.5-1.15-1.14-2.21-1.82-3.26-.64-.99-1.4-1.86-2.26-2.6-.87-.74-1.68-1.61-2.77-2.1-.5-.22-.94-.57-1.41-.85-.33-.19-.66-.39-1.01-.52-.8-.29-1.61-.56-2.42-.81-.75-.23-1.49-.47-2.26-.62C20.25.04,19.6,0,18.97,0c-1.06,0-2.12.02-3.18.14-.83.09-1.65.31-2.47.51-.71.18-1.41.4-2.11.63-.36.12-.71.29-1.05.46-.54.27-1.1.53-1.61.86-.49.32-.94.71-1.39,1.09-.66.55-1.37,1.06-1.95,1.69-.76.82-1.41,1.74-2.09,2.63-.36.47-.71.95-.99,1.47-.31.57-.57,1.18-.8,1.79-.21.56-.38,1.14-.54,1.72-.17.64-.32,1.28-.45,1.93-.13.65-.25,1.3-.31,1.96-.05.58-.04,1.18-.01,1.76.03.69.07,1.39.18,2.07.1.67.27,1.34.45,2,.22.8.45,1.6.75,2.36.27.66.65,1.28.99,1.92.27.5.49,1.03.83,1.47.6.77,1.27,1.49,1.91,2.23.28.33.52.71.87.96.74.53,1.53.97,2.29,1.47.91.59,1.8,1.2,2.83,1.55.47.16.91.41,1.39.56.62.2,1.26.35,1.9.48.63.13,1.28.24,1.92.3.6.05,1.2.02,1.8.03.54,0,1.09.04,1.62-.01.7-.07,1.39-.27,2.08-.32.96-.07,1.82-.44,2.75-.81.02.03.05.06.06.09.05.12.09.25.14.37.12.28.33.35.52.21.2-.16.4-.32.63-.43.64-.31,1.29-.61,1.94-.89.82-.35.82-.35.71-1.26-.01-.1.06-.26.15-.33.18-.15.43-.22.59-.39,1.02-1.03,2.05-2.07,3.04-3.14.47-.51.9-1.07,1.24-1.66.42-.75.75-1.55,1.09-2.35.3-.69.6-1.39.82-2.11.22-.72.41-1.46.49-2.2.12-1.17.19-2.34.17-3.51ZM25.58,3.22c1.61,0,2.7,1.35,2.87,2.98-.07,1.38-1.21,2.84-3.06,2.75-1.56-.07-2.7-1.08-2.69-3.28,0-1.36,1.48-2.44,2.88-2.45ZM18.04,1.33c.2-.08.45-.04.67-.05,0-.03,1.26.17,1.86.37.23.08.47.29.59.51.31.62.94,1.08.87,1.89-.13,1.61-1.24,2.98-2.91,2.83-1.11-.09-2.15-.6-2.6-1.68-.61-1.47-.12-3.19,1.52-3.87ZM12.41,2.28c1.52.11,3.12.96,3.02,3.01.11,1.63-1.52,2.67-2.61,2.71-1.89.07-3.02-1.49-3.13-2.8-.13-1.54,1.17-3.03,2.72-2.92ZM4.53,9.46c.09-1.99,1.01-3.13,3.02-3.19,1.83-.04,2.64,1.29,2.73,2.66.11,1.76-1.38,2.99-3.01,2.98-1.25,0-2.79-1.35-2.74-2.46ZM1.49,14.87c.17-1.54.95-2.62,2.77-2.88,1.18-.17,2.56.86,2.92,1.86.08.23.08.5.12.75-.01.92-.28,1.75-.94,2.37-.34.32-.82.52-1.27.68-.99.34-1.9.07-2.6-.65-.56-.57-1.09-1.25-.99-2.13ZM1.45,21.3c.05-1.73,1.53-2.89,3.54-2.81.58.02.99.41,1.41.74.58.45.89,1.16.92,1.77.05.91-.17,1.88-.96,2.53-.62.51-1.4.8-2.15.8-1.6.01-2.71-1.65-2.76-3.04ZM7.17,30.01c-.65-.02-1.33-.22-1.77-.8-.27-.35-.56-.69-.75-1.08-.43-.87-.06-2.45.68-3.08.73-.62,1.24-.8,2.28-.79,1.07-.15,2.35,1.02,2.53,1.98.07.39.24.78.2,1.15-.05.4-.25.8-.46,1.15-.6,1.02-1.56,1.5-2.71,1.46ZM15.11,32.4c-.25.29-.5.6-.81.81-1,.7-2,.65-3.02-.02-.48-.32-.85-.72-1.1-1.2-.37-.69-.29-1.44.08-2.13.2-.38.41-.78.71-1.08.24-.24.61-.38.94-.49.22-.07.48-.01.78-.01.79-.25,1.42.29,2.04.69.99.63,1.16,2.54.39,3.42ZM15.22,27.45c-.81-.27-1.63-.56-2.35-1-1.24-.76-2.25-1.8-3.07-3.02-.53-.79-.98-1.63-1.2-2.55-.2-.82-.28-1.66-.38-2.5-.05-.39,0-.8,0-1.2,0-.86.16-1.69.51-2.47.35-.79.68-1.61,1.18-2.31.51-.72,1.18-1.34,1.84-1.94.45-.41,1-.72,1.56-1.01.02-.13,1.64-.89,2.44-1.06,1.44-.31,2.88-.6,4.35-.06.62.23,1.31.28,1.93.52.55.21,1.09.51,1.57.86.68.5,1.37,1.02,1.91,1.66.68.81,1.29,1.7,1.76,2.64.33.67.39,1.48.56,2.22.04.18.1.36.13.54.15,1.33.09,2.66-.31,3.94-.38,1.24-.84,2.46-1.75,3.44-.46.49-.97.95-1.45,1.43,0,0-.74.74-1.24.97-.5.24-1.6.64-2.41.94-.35.13-.7.29-1.06.31-.69.05-1.39.02-2.09.03-.05,0-.11-.01-.16,0-.79.13-1.54-.12-2.26-.36ZM19.25,34.87c-1.27.01-2.95-1.11-2.85-2.96-.11-1.6,1.42-2.73,2.59-2.76.73-.02,1.6.09,2.21.68.67.65.98,1.51.95,2.4-.05,1.31-1.18,2.61-2.9,2.63ZM27.72,33.85c-.82.4-1.64.79-2.44,1.22-.22.12-.27.09-.35-.09-.43-.94-.85-1.88-1.29-2.82-.28-.61-.59-1.2-.87-1.8-.19-.41-.39-.82-.55-1.24-.08-.21-.16-.46.23-.54.3-.06.59-.21.86-.37.33-.18.39-.04.47.26.24.96.48,1.91.79,2.85.21.65.7,1.12,1.28,1.48.58.37,1.7.21,2.23-.36.08.2.17.35.2.51.08.57.05.6-.56.9ZM32.5,12.35c-.38.61-.97.87-1.53,1.2-.23.14-.57.08-.86.12-1.04.04-2.32-.64-2.65-1.63-.4-1.18-.35-2.68.98-3.56.56-.36,1.14-.53,1.73-.58.97-.07,1.73.39,2.3,1.19.72,1,.67,2.21.02,3.25Z"/>
      <path class="cls-1" d="M22.82,26.19h0c.74-.28,2-1.3,3-2.56.67-.85,1.34-2.37,1.45-3.2.19-.73.36-1.9.38-2.35.02-.39-.1-.78-.16-1.17-.11-.69-.2-1.39-.36-2.07-.05-.22-.18-.42-.31-.63-.29-.9-1.12-1.92-1.2-2.03-.22-.28-.46-.54-.71-.79-.36-.37-.69-.82-1.13-1.06-.77-.41-1.46-.94-2.31-1.24-.82-.3-1.66-.43-2.49-.55-1.27-.18-2.56-.04-3.79.44-.16.06-.32.11-.47.18-.44.2-.89.37-1.31.61-.62.35-1.2.77-1.75,1.24-.54.47-1.04.93-1.38,1.56-.33.61-.69,1.21-.97,1.84-.25.58-.47,1.19-.6,1.81-.12.57-.12,1.17-.15,1.76-.02.37-.02.74.03,1.11.05.36.17.72.27,1.07.15.53.28,1.07.47,1.58.15.39.36.75.58,1.1.66,1.06,1.47,2,2.45,2.78,1.22.97,2.64,1.46,4.14,1.77.02,0,.05,0,.08-.02,2.12.4,4.43-.16,6.25-1.2ZM15.14,26.82c-1.16-.31-2.17-.92-3.06-1.69-.38-.33-.64-.81-1.03-1.13-.75-.64-1.08-1.54-1.55-2.34-.06-.1-.12-.21-.15-.32-.22-1.06-.55-2.1-.52-3.22.02-1,.02-2.01.37-2.95.27-.74.76-1.39,1.1-2.11.6-1.29,1.7-2.07,2.84-2.79.64-.4,1.36-.67,2.05-1,.85-.4,1.77-.52,2.7-.56.62-.03,1.25.06,1.86.18.69.14,1.38.32,2.03.59.59.24,1.15.58,1.66.96.58.44,1.13.92,1.62,1.46.73.8,1.24,1.65,1.62,2.44,0,.01,0,.03,0,.04.18.66.43,1.31.55,1.99.12.68.24,1.33.15,2.07-.07.56-.14,1.19-.19,1.69-.68,2.43-2.27,4.57-4.68,6.06-.03,0-.06,0-.09.02-.46.17-.91.39-1.37.56-.56.2-1.12.45-1.7.51-.7.07-1.83.01-2.57,0,0,0,0,0,.01,0-.62-.16-1.14-.3-1.65-.44Z"/>
    </g>
  </g>
</svg>