<?xml version="1.0" encoding="UTF-8"?>
<svg id="Layer_2" xmlns="http://www.w3.org/2000/svg" viewBox="0 0 38.79 38.87">
  <defs>
    <style>
      .cls-1 {
        fill: #2c489e;
      }
    </style>
  </defs>
  <g id="Layer_1-2" data-name="Layer_1">
    <g>
      <path class="cls-1" d="M38.79,19.94c0-.45,0-.89-.01-1.34,0-.27-.07-.53-.07-.81,0-.37-.07-.75-.13-1.12-.08-.49-.16-.97-.28-1.45-.14-.57-.35-1.12-.5-1.68-.11-.43-.33-.82-.41-1.27-.04-.2-.2-.38-.29-.57-.05-.1-.04-.22-.1-.31-.14-.25-.29-.49-.44-.74-.08-.14-.16-.28-.23-.42-.1-.19-.17-.39-.28-.57-.17-.29-.37-.55-.56-.83-.36-.55-.71-1.12-1.2-1.58-.02-.02-.03-.04-.04-.06-.04-.07-.06-.14-.11-.2-.19-.23-.39-.45-.58-.67-.15-.17-.3-.34-.46-.51-.15-.16-.29-.34-.47-.44-.25-.13-.41-.34-.6-.52-.16-.16-.31-.33-.48-.47-.14-.12-.31-.21-.46-.32-.49-.34-.97-.71-1.48-1.03-.47-.29-.96-.55-1.45-.82-.31-.17-.62-.32-.94-.46-.41-.19-.83-.37-1.25-.54-.3-.11-.61-.19-.92-.28-.71-.21-1.41-.45-2.14-.55-.49-.06-.97-.12-1.46-.2-.47-.08-.94-.12-1.41-.12-.4,0-.79-.1-1.19-.03-.29.05-.59.02-.89.04-.42.03-.83.06-1.24.12-.44.06-.87.13-1.31.21-.37.07-.74.16-1.11.24-.16.04-.32.09-.48.13-.2.06-.4.13-.61.2-.2.06-.39.12-.58.19-.26.1-.52.2-.78.31-.23.09-.47.18-.69.29-.28.13-.56.29-.84.43-.2.1-.4.21-.6.32-.11.06-.21.13-.32.19-.32.18-.65.35-.95.56-.35.23-.67.5-1,.76-.21.16-.43.31-.62.48-.24.21-.47.43-.7.64-.44.42-.89.84-1.31,1.28-.3.32-.57.68-.84,1.03-.2.26-.38.53-.57.8-.06.09-.1.19-.16.28-.12.18-.26.36-.37.55-.14.22-.26.45-.38.67-.16.28-.32.55-.46.84-.08.16-.13.33-.2.49-.08.17-.18.33-.25.5-.1.22-.18.44-.27.67-.12.32-.24.64-.36.96-.06.18-.12.37-.17.55-.13.52-.26,1.04-.37,1.56-.08.37-.14.74-.2,1.11-.05.35-.11.69-.14,1.04-.04.38-.05.77-.06,1.15,0,.44-.01.89,0,1.33.01.32.05.64.08.95.04.46.08.93.14,1.39.04.3.11.59.18.88.08.32.16.65.25.97.07.24.13.48.2.73.07.23.14.46.22.69.1.28.21.55.32.83.1.26.19.51.29.77,0,.03.03.05.05.07.05.07.11.13.14.21.11.27.2.55.33.8.21.39.44.77.67,1.15.06.1.14.19.19.29.05.1.06.23.14.29.26.2.4.5.57.76.22.32.47.61.71.93.17.23.36.46.58.65.21.18.33.43.57.59.28.19.44.53.75.71.15.09.25.25.37.38.05.06.1.13.16.18.23.18.47.34.7.52.16.12.32.26.48.38.18.13.36.26.54.39.08.05.16.09.24.14.14.09.31.15.41.27.08.09.16.13.27.16.03.01.08.01.1.04.22.21.49.33.76.46.11.05.21.11.32.17.11.06.21.13.32.18.08.04.18.05.26.09.15.07.3.15.45.23.05.03.12.04.17.06.31.14.61.3.93.42.35.14.71.26,1.07.35.77.2,1.56.38,2.33.57.16.04.32.05.48.07.08,0,.17,0,.25,0,.28.05.56.1.84.15.03,0,.06,0,.09.01.21.02.41.04.62.06.21.01.42.02.62.02.18,0,.36-.02.54-.02.15,0,.31,0,.46,0,.13,0,.26-.02.39-.03.16,0,.33.06.49-.04.02-.01.05,0,.07,0,.24-.02.49-.04.73-.06.06,0,.11-.01.17-.02.13,0,.26,0,.39-.02.22-.04.43-.1.65-.15.23-.04.46-.07.69-.11.14-.03.28-.08.42-.1.15-.02.3,0,.44-.1.1-.07.24-.12.37-.13.27,0,.49-.13.74-.2.2-.06.4-.14.59-.21.29-.11.59-.21.87-.34.16-.07.31-.13.47-.21.34-.18.72-.31,1.06-.51.16-.1.35-.16.52-.26.22-.13.43-.27.64-.41.31-.2.63-.4.94-.61.27-.19.53-.39.79-.59.17-.13.34-.26.49-.4.25-.23.48-.47.72-.69.19-.18.39-.33.58-.51.13-.13.24-.28.36-.41.1-.1.22-.19.31-.29.25-.3.49-.6.73-.9.19-.24.37-.49.54-.74.14-.2.27-.4.4-.59.15-.23.3-.45.44-.68.13-.22.23-.45.35-.67.17-.32.38-.62.51-.95.24-.56.45-1.12.65-1.7.2-.59.39-1.18.55-1.78.14-.5.24-1.01.35-1.52h.02c.01-.17.02-.34.03-.52.03-.35.07-.71.11-1.06.02-.23.05-.45.06-.68.01-.24,0-.49,0-.73ZM38.38,21.2c-.03.41-.05.83-.11,1.24-.08.51-.17,1.01-.29,1.51-.14.58-.31,1.15-.48,1.71-.14.45-.29.9-.48,1.34-.21.49-.43.98-.68,1.45-.24.46-.52.9-.78,1.34-.16.27-.31.54-.48.79-.18.26-.39.51-.59.76-.16.2-.3.41-.48.59-.24.25-.41.57-.67.8-.11.1-.23.2-.34.3-.18.18-.36.37-.55.54-.17.15-.34.29-.51.43-.22.19-.43.39-.65.58-.03.02-.06.04-.09.06-.12.07-.25.12-.35.23-.14.15-.34.25-.52.37-.14.1-.29.19-.44.29-.12.07-.25.14-.36.21-.16.1-.31.22-.47.32-.18.11-.38.2-.57.3-.14.07-.28.16-.42.23-.11.06-.23.1-.34.15-.28.13-.56.26-.84.38-.39.15-.79.29-1.18.43-.16.06-.32.13-.49.18-.15.04-.31.06-.46.09-.08.02-.18.02-.25.07-.18.14-.4.09-.59.15-.4.14-.83.15-1.24.24-.25.05-.49.09-.74.12-.34.03-.68.05-1.03.07-.23.02-.45.05-.68.05-.28,0-.56-.01-.84-.02-.15,0-.3,0-.45.01-.12,0-.25.03-.37.01-.32-.03-.63-.08-.94-.12-.26-.03-.52-.05-.77-.08-.27-.04-.54-.08-.88-.14-.66-.17-1.4-.35-2.13-.55-.29-.08-.58-.19-.87-.29-.19-.07-.37-.13-.56-.21-.24-.1-.49-.21-.73-.33-.27-.13-.52-.31-.82-.41-.18-.06-.33-.2-.5-.3-.12-.07-.25-.11-.37-.18-.18-.11-.36-.23-.54-.34-.14-.08-.29-.15-.42-.24-.34-.24-.67-.49-1-.74-.16-.12-.32-.24-.48-.37-.05-.03-.11-.07-.13-.11-.05-.1-.14-.15-.24-.18-.06-.02-.13-.07-.17-.12-.19-.26-.49-.4-.71-.63-.08-.09-.13-.21-.23-.28-.14-.1-.22-.27-.34-.34-.28-.14-.34-.46-.6-.61-.11-.06-.18-.2-.27-.31-.13-.17-.26-.33-.39-.5-.21-.29-.39-.6-.63-.87-.2-.23-.35-.48-.51-.73-.27-.45-.54-.91-.81-1.35-.16-.25-.26-.52-.38-.78-.21-.46-.42-.92-.59-1.39-.08-.22-.18-.44-.26-.67-.08-.25-.16-.49-.23-.74-.06-.21-.13-.42-.18-.63-.04-.14-.08-.28-.11-.43-.08-.39-.16-.79-.24-1.18-.03-.16-.04-.31-.05-.47-.04-.4-.09-.8-.13-1.2-.03-.24-.04-.48-.06-.73,0-.06.02-.11.01-.17,0-.14-.02-.28-.02-.43,0-.29.02-.58.04-.87.03-.47.04-.94.09-1.4.06-.53.14-1.06.25-1.59.13-.64.28-1.27.47-1.9.17-.57.36-1.13.59-1.68.26-.61.56-1.2.85-1.8.09-.18.21-.33.32-.5.04-.06.05-.14.09-.2.28-.43.56-.86.86-1.28.25-.35.52-.69.8-1.02.23-.28.45-.57.7-.83.4-.41.8-.81,1.23-1.19.36-.32.75-.61,1.13-.91.24-.19.48-.37.72-.55.26-.19.53-.36.8-.54.31-.2.63-.4.95-.59.24-.13.5-.23.74-.35.13-.06.25-.14.38-.2.49-.2.98-.4,1.48-.59.36-.13.73-.24,1.1-.34.51-.14,1.03-.27,1.55-.38.45-.09.91-.13,1.36-.2.18-.03.35-.06.53-.09.03,0,.06,0,.09,0,.34-.02.69,0,1.03-.05.35-.05.69.02,1.03,0,.53-.03,1.05.05,1.58.09.83.06,1.65.19,2.45.38.42.1.84.22,1.26.35.52.17,1.03.35,1.54.54.17.06.33.16.5.24.14.07.28.12.42.19.25.12.5.26.75.38.11.05.22.1.32.15.32.17.63.34.94.52.21.13.41.29.62.43.26.18.53.34.79.53.18.13.35.27.52.41.23.18.46.36.67.56.25.23.48.47.73.7.2.19.4.37.6.56.15.15.28.32.42.48.08.09.15.19.23.28.21.25.42.49.61.74.17.22.31.45.47.68.2.28.4.56.6.84.06.08.09.17.13.26.16.28.32.56.47.84.24.47.48.94.71,1.41.1.22.17.46.26.69.1.27.22.54.32.81.08.21.14.42.2.64.09.32.17.64.25.96.08.31.19.61.25.92.09.49.17.99.22,1.48.05.41.06.83.08,1.24.02.5.05,1.01.05,1.51,0,.35-.04.7-.07,1.04Z"/>
      <path class="cls-1" d="M36.98,16.81c-.03-.23-.1-.45-.15-.68-.06-.31-.11-.62-.19-.92-.1-.36-.21-.72-.32-1.08-.14-.42-.28-.85-.44-1.27-.1-.28-.22-.55-.35-.82-.18-.38-.35-.75-.56-1.11-.16-.28-.35-.54-.53-.8-.21-.32-.42-.66-.64-.97-.25-.35-.52-.69-.8-1.02-.36-.43-.73-.86-1.12-1.25-.39-.39-.81-.75-1.22-1.11-.24-.21-.49-.39-.74-.58-.22-.16-.44-.31-.67-.46-.29-.2-.59-.4-.89-.58-.17-.11-.37-.18-.54-.29-.29-.19-.57-.38-.91-.49-.17-.05-.32-.14-.48-.21-.32-.14-.63-.28-.95-.41-.18-.07-.38-.12-.57-.18-.42-.13-.83-.27-1.25-.4-.33-.09-.66-.19-.99-.24-.45-.08-.92-.11-1.37-.19-.55-.1-1.1-.12-1.66-.13-.28,0-.57.01-.85.02-.23,0-.46-.02-.68,0-.59.06-1.18.12-1.77.21-.57.09-1.13.21-1.69.33-.28.06-.55.17-.83.25-.25.08-.52.11-.75.23-.36.18-.75.26-1.1.45-.33.18-.7.3-1.03.48-.42.22-.82.47-1.22.72-.27.17-.51.36-.77.54-.29.21-.58.42-.86.63-.16.12-.32.25-.47.39-.15.14-.34.22-.46.4-.09.14-.24.23-.36.35-.21.22-.42.45-.62.67-.22.24-.45.48-.66.73-.22.27-.41.57-.63.84-.35.43-.64.9-.92,1.38-.14.24-.27.5-.41.74-.11.19-.23.38-.33.58-.14.3-.27.62-.38.93-.21.58-.43,1.16-.6,1.75-.36,1.2-.61,2.42-.67,3.68-.02.46-.05.92-.06,1.38,0,.18.03.36.04.55.01.38,0,.76.03,1.14.02.23.1.45.11.68.03.49.13.97.25,1.44.06.27.14.55.21.82.06.23.18.45.2.69.03.26.12.49.22.72.13.33.25.67.36,1.01.02.07.08.13.11.2.12.26.23.52.37.77.09.18.17.36.26.54.04.08.13.14.17.23.08.15.15.31.22.47.01.03.03.06.05.09.15.2.34.38.43.6.1.26.34.4.45.65.08.18.24.32.36.48.15.19.29.38.45.57.15.17.31.34.47.5.12.12.22.26.35.36.19.16.35.34.54.5.13.11.22.27.37.37.14.1.27.22.4.33.22.18.44.37.67.55.29.23.58.45.87.67.18.13.37.23.55.35.23.15.46.3.7.43.12.07.25.11.37.18.2.11.39.23.59.33.21.11.43.2.65.3.25.11.5.22.75.32.21.09.42.18.63.24.52.15,1.04.29,1.57.43.33.09.66.18,1,.24.29.06.59.09.88.13.19.02.39.04.58.06.14.01.29.02.43.03.17.02.34.05.51.07.09,0,.19,0,.28,0,.21,0,.42,0,.63,0,.15,0,.3,0,.45,0,.21,0,.41-.01.62-.03.29-.02.58-.04.87-.06.07,0,.14,0,.21-.02.15-.02.29-.05.44-.08.24-.04.48-.1.72-.11.15,0,.28-.06.42-.09.35-.08.71-.11,1.04-.26.09-.04.18-.08.27-.09.24-.03.6-.15.86-.27.23-.1.48-.17.72-.26.2-.07.41-.13.6-.22.3-.14.59-.3.89-.45.08-.04.15-.1.24-.14.18-.09.36-.17.54-.26.06-.03.13-.07.21-.12.04-.04.1-.1.18-.15.09-.06.19-.11.29-.17.21-.13.42-.26.62-.41.24-.18.47-.37.7-.56.26-.21.52-.4.77-.62.27-.24.53-.5.79-.76.21-.2.41-.41.61-.62.18-.2.36-.4.54-.61.23-.28.46-.57.68-.86.16-.22.3-.45.44-.68.19-.3.38-.59.55-.9.25-.45.49-.9.71-1.37.32-.7.59-1.42.81-2.16.23-.78.43-1.58.57-2.38.12-.68.15-1.37.2-2.06.03-.41.05-.81.05-1.22,0-.34-.02-.68-.05-1.02-.05-.5-.12-1-.19-1.51ZM36.78,20.15c-.01.33-.02.67-.07,1-.1.77-.21,1.54-.34,2.3-.06.34-.17.67-.27,1-.11.36-.21.71-.33,1.06-.12.33-.25.65-.39.98-.15.35-.3.69-.46,1.03-.07.14-.17.27-.25.41-.11.18-.21.37-.32.55-.1.17-.2.35-.31.51-.11.18-.23.35-.35.52-.18.24-.37.46-.55.7-.15.19-.28.39-.44.58-.13.15-.31.27-.42.43-.16.23-.38.41-.56.62-.13.15-.3.27-.45.41-.08.08-.15.17-.24.24-.3.24-.6.47-.9.7-.15.12-.3.26-.45.37-.18.13-.36.24-.54.36-.32.2-.63.41-.95.61-.16.1-.34.18-.51.27-.1.05-.19.11-.29.16-.19.09-.39.19-.59.27-.19.08-.42.11-.57.23-.25.2-.56.15-.81.29-.23.14-.5.14-.73.26-.18.09-.39.09-.59.14-.16.04-.33.09-.49.12-.23.05-.48.06-.69.14-.25.1-.52.04-.77.11-.02,0-.05,0-.06,0-.13.13-.31.1-.45.09-.26,0-.5.04-.76.07-.23.03-.47,0-.7,0-.15,0-.3.01-.45.01-.22,0-.43.01-.65,0-.29,0-.59-.01-.88-.03-.08,0-.16-.01-.25-.02-.45-.07-.91-.14-1.36-.23-.37-.07-.74-.15-1.11-.22-.23-.05-.46-.08-.68-.15-.26-.08-.52-.18-.77-.27-.21-.07-.42-.16-.64-.21-.45-.11-.85-.34-1.27-.53-.09-.04-.18-.09-.27-.13-.11-.05-.23-.1-.34-.16-.16-.08-.33-.16-.49-.25-.18-.1-.35-.22-.53-.33-.15-.09-.3-.17-.45-.25-.03-.02-.05-.05-.07-.07-.04-.03-.06-.08-.11-.1-.15-.09-.32-.16-.47-.26-.23-.16-.44-.34-.65-.51-.17-.14-.31-.33-.51-.41-.31-.13-.42-.44-.69-.6-.18-.1-.31-.28-.46-.42-.15-.15-.31-.29-.45-.45-.21-.23-.42-.47-.62-.72-.28-.36-.55-.73-.84-1.08-.15-.19-.26-.4-.4-.6-.19-.26-.38-.53-.55-.81-.11-.17-.18-.36-.28-.54-.11-.22-.24-.44-.34-.66-.14-.3-.26-.61-.39-.92-.06-.14-.14-.27-.19-.4-.04-.1-.05-.22-.08-.32-.11-.34-.24-.69-.34-1.03-.06-.21-.09-.42-.15-.64-.05-.2-.13-.4-.18-.6-.04-.14-.02-.29-.06-.43-.12-.36-.1-.73-.14-1.09-.03-.24-.06-.49-.08-.73-.02-.24-.03-.47-.04-.71-.01-.32-.02-.63-.03-.95,0-.04-.04-.09-.07-.15.2-.13.09-.37.13-.58.04-.25.05-.52.07-.77.06-.75.19-1.49.38-2.22.18-.68.41-1.35.64-2.01.12-.35.25-.69.4-1.02.16-.34.34-.67.52-1.01.17-.32.35-.65.54-.96.18-.3.4-.58.6-.87.07-.1.16-.2.23-.3.17-.21.33-.42.5-.63.12-.15.24-.32.37-.47.16-.18.34-.35.51-.53.18-.18.35-.37.53-.54.26-.24.53-.46.8-.69.29-.24.59-.48.89-.71.45-.35.91-.69,1.43-.95.19-.09.36-.21.55-.31.3-.16.61-.32.92-.47.26-.13.52-.26.79-.35.53-.18,1.08-.34,1.62-.5.33-.1.65-.21.98-.28.4-.09.81-.15,1.22-.21.48-.07.97-.12,1.45-.17.28-.03.57-.02.86-.03.23,0,.47-.02.7-.02.08,0,.16,0,.24,0,.37.03.74.05,1.11.09.31.03.61.07.91.12.31.05.61.11.92.18.39.09.78.17,1.16.28.41.12.81.27,1.22.41.11.04.22.06.32.1.36.14.74.26,1.09.43.5.24.99.51,1.48.78.36.2.71.42,1.06.64.25.17.48.35.72.54.31.24.63.48.93.74.17.15.37.27.51.46.13.18.34.3.5.46.21.21.39.44.59.66.16.18.34.35.49.53.27.34.54.68.79,1.03.26.36.52.72.75,1.1.2.34.37.7.55,1.05.05.1.12.2.17.3.18.38.36.75.47,1.16.12.43.31.83.47,1.25.02.04.03.09.04.13.12.43.25.87.34,1.31.09.43.15.87.22,1.3.04.25.09.51.12.76.02.19.02.39.03.59.02.19.05.37.06.56,0,.08-.01.16-.01.24,0,.27.02.53,0,.8Z"/>
      <path class="cls-1" d="M35.5,18.14c-.02-.14-.04-.27-.06-.41-.03-.24-.04-.49-.09-.73-.07-.37-.16-.73-.24-1.09-.06-.25-.11-.51-.19-.75-.12-.39-.26-.78-.39-1.16-.06-.17-.09-.35-.18-.5-.09-.15-.09-.32-.2-.48-.15-.22-.22-.49-.34-.73-.14-.27-.3-.52-.44-.78-.11-.2-.2-.41-.32-.61-.11-.19-.25-.37-.38-.55-.17-.25-.34-.5-.53-.73-.36-.43-.73-.84-1.1-1.26-.16-.17-.32-.34-.49-.51-.18-.18-.38-.35-.57-.52-.17-.15-.33-.31-.51-.46-.14-.12-.31-.22-.46-.33-.1-.07-.2-.15-.3-.22-.17-.13-.35-.25-.53-.37-.17-.12-.35-.23-.53-.34-.19-.11-.38-.21-.57-.32-.25-.14-.49-.29-.75-.41-.45-.2-.9-.4-1.36-.58-.44-.17-.89-.32-1.34-.47-.28-.09-.56-.15-.84-.22-.04-.01-.08-.02-.12-.03-.49-.08-.98-.16-1.47-.23-.34-.05-.68-.09-1.02-.11-.3-.02-.6-.02-.9-.02-.4,0-.81-.02-1.21.01-.54.04-1.08.12-1.62.2-.21.03-.41.1-.62.14-.4.08-.81.12-1.21.22-.37.09-.73.22-1.09.36-.32.12-.63.25-.94.39-.21.1-.41.21-.62.32-.33.17-.66.33-.98.51-.21.12-.42.24-.62.38-.49.34-1,.65-1.43,1.08-.03.03-.07.05-.1.07-.03.02-.06.05-.09.08-.04.04-.07.1-.12.13-.26.23-.53.46-.79.7-.19.17-.37.36-.56.54-.02.02-.04.03-.05.05-.2.27-.39.55-.6.82-.18.23-.37.45-.54.68-.23.31-.45.63-.65.96-.17.27-.31.54-.47.82-.11.2-.22.4-.31.61-.09.2-.17.4-.25.61-.17.43-.37.85-.51,1.29-.15.45-.25.92-.37,1.39-.05.22-.1.44-.13.66-.08.48-.17.95-.22,1.43-.05.48-.06.97-.07,1.45,0,.35,0,.69,0,1.04,0,.08.06.17.05.25-.08.42.08.82.11,1.22.01.19.08.37.11.56.05.28.09.57.14.86.04.2.1.4.15.59.02.08.02.17.05.25.09.3.19.6.29.9.07.2.14.4.22.59.07.17.2.32.24.5.07.28.23.51.34.76.08.18.19.35.28.52.07.15.13.3.21.45.07.12.17.23.24.35.11.18.22.36.33.54,0,0,0,.02,0,.03.17.21.34.41.51.62.09.11.15.27.26.35.15.1.24.24.36.37.21.25.43.5.65.75.12.14.24.28.37.4.13.12.29.22.43.34.28.25.55.5.82.77.16.16.38.23.54.4.15.17.37.28.55.41.14.09.28.18.42.27.13.08.26.14.39.21.35.2.7.41,1.06.59.23.12.43.3.7.32,0,0,0,0,.01,0,.16.1.3.25.52.2.01,0,.03,0,.04.01.22.1.43.21.66.29.36.12.73.21,1.09.3.6.16,1.2.32,1.83.38.32.03.63.12.95.12.16,0,.33.05.49.06.16.01.33,0,.5,0,.13,0,.27-.05.39,0,.29.1.57-.04.85-.02.15,0,.29-.01.44-.02.1,0,.21-.01.31-.02.08,0,.16-.02.25-.02.13,0,.27.02.37-.04.13-.08.26-.04.39-.07.21-.04.42-.06.63-.1.27-.06.54-.14.81-.21.19-.04.38-.07.56-.12.34-.1.68-.19,1.02-.31.36-.13.71-.27,1.06-.42.25-.11.5-.24.74-.38.37-.2.73-.41,1.09-.63.18-.11.35-.25.54-.35.26-.15.48-.33.7-.53.19-.18.42-.33.63-.48.1-.08.22-.15.31-.24.26-.25.5-.53.77-.78.2-.18.32-.45.6-.55.01,0,.01-.02.02-.04.15-.2.3-.39.45-.58.21-.28.42-.57.63-.85.1-.14.19-.29.29-.43.09-.13.18-.27.26-.4.11-.18.21-.37.31-.56.14-.25.29-.51.43-.76.08-.16.15-.32.21-.49.18-.45.39-.9.53-1.37.2-.63.35-1.28.58-2.15.04-.25.11-.72.18-1.2.02-.13.04-.26.05-.39.01-.25,0-.51.03-.76.06-.64.02-1.29-.03-1.93,0-.12,0-.23-.02-.35ZM34.85,20.26c-.04.54-.08,1.07-.14,1.61-.12.98-.36,1.95-.68,2.89-.17.51-.41,1-.63,1.5-.15.34-.31.67-.47,1-.07.14-.18.25-.26.38-.11.17-.2.35-.31.51-.13.19-.28.37-.42.55-.18.25-.35.5-.53.75-.03.04-.06.07-.09.1-.12.15-.23.3-.37.43-.17.17-.31.37-.51.52-.3.23-.54.55-.83.8-.3.27-.62.51-.94.76-.16.12-.34.23-.51.34-.23.15-.47.29-.69.46-.26.2-.58.31-.86.48-.19.11-.37.22-.56.32-.04.02-.1,0-.15,0-.16.06-.31.14-.46.2-.36.15-.7.33-1.08.39-.15.02-.3.09-.44.14-.29.11-.59.2-.89.25-.22.04-.43.09-.64.12-.3.04-.6.07-.9.1-.29.04-.59.09-.88.12-.17.02-.34,0-.51,0-.29,0-.58.01-.88,0-.13,0-.27-.02-.4-.03-.07,0-.15.01-.22,0-.32-.04-.64-.09-.96-.12-.33-.04-.66-.06-.99-.09,0,0,0,0-.01,0-.63-.17-1.26-.34-1.89-.51-.23-.06-.45-.15-.67-.23-.13-.05-.24-.12-.36-.18-.03-.01-.07-.02-.1-.03-.05,0-.1,0-.15-.03-.31-.14-.63-.27-.93-.43-.23-.12-.44-.27-.67-.41-.02-.01-.05-.02-.07-.03-.16-.05-.29-.11-.42-.23-.16-.15-.39-.23-.57-.36-.21-.16-.48-.23-.66-.47-.1-.14-.3-.22-.45-.33-.07-.05-.12-.13-.19-.18-.13-.1-.28-.19-.41-.3-.09-.08-.17-.18-.26-.26-.28-.26-.56-.51-.79-.82-.14-.18-.34-.32-.51-.48-.02-.02-.03-.05-.05-.07-.12-.16-.25-.32-.37-.48-.15-.2-.3-.4-.45-.61-.16-.22-.32-.44-.47-.67-.03-.04-.03-.1-.05-.14-.21-.35-.42-.7-.62-1.06-.08-.14-.13-.3-.19-.45-.11-.25-.21-.5-.32-.75-.07-.17-.17-.33-.23-.51-.12-.37-.22-.75-.33-1.13-.07-.23-.16-.46-.23-.69-.04-.14-.07-.29-.09-.44-.04-.23-.09-.45-.09-.68,0-.27-.12-.52-.09-.79.02-.19-.05-.39-.06-.58-.02-.3-.04-.6-.05-.91,0-.36-.01-.73,0-1.09,0-.25.05-.5.07-.76.04-.38.09-.76.12-1.02.14-.61.24-1.11.37-1.61.08-.29.19-.58.29-.87.14-.38.27-.77.42-1.14.12-.29.27-.58.43-.86.23-.41.47-.82.73-1.22.25-.39.49-.78.78-1.14.44-.54.91-1.05,1.37-1.56.19-.22.4-.43.62-.62.24-.21.5-.41.75-.6.37-.28.75-.56,1.13-.82.19-.13.4-.22.61-.33.42-.22.84-.47,1.28-.66.54-.24,1.09-.43,1.64-.63.28-.1.57-.17.86-.24.32-.08.64-.16.96-.21.33-.06.66-.09,1-.13.31-.04.61-.08.92-.11.25-.02.5-.01.75-.01.35,0,.7-.02,1.04,0,.18,0,.36.04.54.06.31.04.63.09.94.12.87.08,1.69.33,2.52.57.27.08.54.17.8.28.39.17.76.35,1.14.53.21.1.42.2.63.3.08.04.15.09.22.13.19.11.38.21.56.33.31.2.63.39.94.61.2.14.38.31.58.46.14.11.29.2.42.31.15.13.3.27.44.41.24.23.49.46.73.7.22.22.42.46.63.7.11.12.23.23.32.36.19.25.38.51.56.77.12.16.24.33.35.5.09.14.18.27.26.42.16.28.33.57.48.86.16.3.31.61.46.92.13.28.26.57.37.86.08.21.13.43.19.64.01.05.04.1.06.15.09.24.19.47.26.72.07.28.12.56.17.84.04.18.07.37.1.55.05.36.11.72.15,1.09.04.44.07.88.08,1.32.01.3.01.61,0,.91Z"/>
      <path class="cls-1" d="M18.94,33.12c-.08-.16-.2-.3-.3-.45-.11-.18-.22-.37-.33-.55-.1-.16-.22-.32-.31-.49-.11-.2-.21-.4-.31-.61-.05-.09-.11-.18-.17-.27-.11-.16-.13-.39-.35-.48-.03-.01-.05-.07-.07-.11-.04-.08-.06-.17-.1-.24-.06-.09-.14-.16-.19-.25-.08-.14-.13-.29-.21-.42-.13-.22-.28-.44-.42-.66-.06-.1-.09-.21-.15-.31-.08-.14-.18-.26-.27-.4-.13-.22-.26-.45-.39-.67-.14-.24-.25-.29-.52-.25-.16.02-.32.05-.48.04-.28-.02-.55-.06-.83-.03-.16.02-.33,0-.49,0-.24,0-.48,0-.72,0-.09,0-.19,0-.28,0-.28,0-.55.02-.83.02-.17,0-.35,0-.52,0-.28,0-.55.02-.83.02-.17,0-.34,0-.52,0-.27,0-.54.06-.8.02-.25-.04-.49.01-.74,0-.23,0-.45,0-.68,0-.12,0-.21.06-.16.13.12.21.26.41.39.62.03.04.08.07.11.11.16.22.3.45.46.66.23.29.45.57.71.84.25.26.53.5.79.74.08.08.15.18.23.25.14.12.3.21.44.32.15.12.28.25.44.36.17.12.37.22.54.34.2.14.38.3.58.45.03.02.06.03.09.04.08.04.17.08.25.13.13.08.26.16.4.23.12.07.26.11.38.18.18.1.35.23.54.32.26.12.52.24.78.34.29.11.57.21.86.3.34.1.68.19,1.02.28.22.06.43.12.65.16.26.05.53.07.79.11.22.03.44.11.66.09.25-.02.47.14.74.04.14-.06.34.03.55.05,0-.08.03-.16,0-.22-.13-.27-.35-.5-.48-.77Z"/>
      <path class="cls-1" d="M7.42,25.29c.08-.14.16-.29.25-.43.1-.18.2-.36.3-.53.02-.03.04-.06.05-.09.11-.21.2-.43.32-.63.14-.25.29-.48.43-.73.04-.06.08-.12.11-.19.07-.14.14-.28.22-.42.11-.21.21-.42.32-.62.06-.11.12-.23.18-.34.17-.3.35-.59.52-.89.11-.19.2-.4.3-.59.1-.19.26-.37.2-.61-.06-.03-.11-.05-.14-.08-.03-.04-.02-.11-.05-.15-.09-.15-.2-.28-.29-.43-.1-.16-.19-.32-.28-.48-.09-.16-.18-.32-.26-.48-.1-.19-.19-.39-.3-.58-.21-.33-.43-.65-.65-.98-.06-.09-.09-.18-.15-.27-.08-.12-.19-.22-.26-.34-.12-.21-.21-.43-.34-.64-.26-.43-.53-.86-.79-1.29-.18-.3-.36-.6-.55-.89-.07-.11-.16-.12-.22,0-.14.26-.3.51-.4.78-.23.58-.49,1.14-.63,1.75-.11.49-.26.98-.36,1.47-.08.38-.11.77-.15,1.16-.04.37-.07.74-.09,1.11-.01.36,0,.73,0,1.09,0,.19.01.39.03.58.02.31.05.63.09.95.01.12.06.23.08.35.03.17.03.35.08.52.09.29.1.6.24.88.08.16.11.35.16.52.05.16.1.33.15.49.04.12.06.26.11.38.06.15.17.27.23.42.1.25.18.51.32.74.04.07.06.15.09.22.04.08.09.15.14.22.06.11.09.26.28.27.15-.26.31-.52.46-.79.08-.15.16-.3.25-.44Z"/>
      <path class="cls-1" d="M31.57,26.83c-.08.01-.17.01-.25.02-.19,0-.38.01-.57.02-.02,0-.05,0-.07,0-.28-.04-.55-.05-.83,0-.17.03-.36.04-.53.01-.27-.04-.53,0-.79,0-.13,0-.26.02-.39.02-.21,0-.41-.03-.62-.03-.26,0-.52.02-.78.03-.11,0-.23,0-.34,0-.2,0-.4,0-.61,0-.2,0-.41-.05-.6-.01-.3.06-.59.01-.88,0-.31-.02-.45.06-.55.34-.05.13-.12.25-.19.38-.05.09-.11.17-.15.26-.12.23-.2.48-.35.68-.2.25-.29.56-.45.82-.19.31-.34.63-.51.95-.02.03-.06.05-.07.08-.05.12-.07.24-.13.35-.13.23-.28.44-.41.67-.12.22-.23.46-.34.69-.05.1-.1.19-.15.28-.14.25-.29.5-.42.75-.14.25-.27.51-.41.76-.02.04-.06.11-.05.12.04.03.1.07.15.07.14,0,.28-.02.42-.03.22,0,.44,0,.66-.02.37-.05.73-.13,1.09-.2.13-.02.26-.06.39-.09.2-.04.4-.07.6-.12.16-.04.31-.13.47-.16.31-.06.59-.19.87-.32.04-.02.08-.04.12-.05.18-.06.35-.11.53-.18.17-.07.33-.14.49-.22.3-.15.61-.3.9-.48.28-.17.53-.38.81-.55.24-.14.46-.29.67-.48.22-.21.48-.38.72-.57.29-.24.57-.49.83-.77.12-.13.26-.26.38-.4.12-.14.24-.29.35-.43.12-.15.22-.31.34-.46.11-.15.2-.3.33-.43.27-.29.47-.62.59-.87.12-.35.04-.44-.23-.39Z"/>
      <path class="cls-1" d="M33.89,18.45c-.02-.25-.05-.5-.09-.74-.06-.42-.1-.85-.19-1.27-.07-.36-.19-.71-.3-1.06-.12-.37-.24-.73-.37-1.1-.04-.13-.09-.27-.15-.4-.17-.36-.35-.72-.53-1.08-.09-.18-.19-.34-.32-.56-.11.13-.21.22-.27.33-.12.2-.22.41-.32.61-.15.29-.3.59-.46.88-.06.1-.14.19-.2.29-.11.21-.21.43-.32.64-.25.47-.51.93-.76,1.39-.21.39-.42.79-.64,1.18-.2.37-.41.73-.6,1.1-.09.18-.16.37-.23.57-.02.06,0,.16.03.22.2.33.42.66.62.99.34.57.67,1.16,1.01,1.73.08.14.19.27.28.41.08.13.15.26.22.4.12.21.27.4.37.62.07.17.2.31.3.46.32.53.63,1.07.95,1.6.07.12.18.23.22.36.03.1.09.13.16.12.05,0,.11-.06.13-.11.15-.33.31-.66.44-1,.12-.3.2-.61.32-.91.25-.61.38-1.24.49-1.89.05-.27.07-.54.1-.82.03-.27.06-.54.08-.8.02-.22.03-.43.04-.65,0-.22,0-.44,0-.66,0-.29-.01-.58-.03-.86Z"/>
      <path class="cls-1" d="M6.96,11.86s.08.02.12.02c0,0,0,.02,0,.02.1,0,.21,0,.31-.02.25-.07.5-.02.76-.03.13,0,.26.01.39.01.33,0,.66-.02.99-.02.29,0,.58,0,.87-.01.16,0,.33,0,.49-.01.18,0,.36-.03.53-.03.17,0,.34,0,.5,0,.23,0,.47.01.7.01.15,0,.29-.02.44-.02.27,0,.54-.01.8-.01.2,0,.41-.02.61.01.3.04.45-.01.59-.28.31-.57.62-1.14.94-1.71.3-.54.62-1.07.92-1.61.31-.56.6-1.12.9-1.68.26-.47.52-.94.78-1.41.06-.11.02-.22-.11-.23-.41-.06-.82-.01-1.22.04-.32.04-.63.13-.95.19-.29.06-.6.08-.89.17-.58.18-1.15.39-1.72.6-.18.07-.36.14-.54.23-.23.11-.45.21-.67.33-.4.22-.8.44-1.19.67-.25.15-.48.32-.72.48-.18.13-.37.26-.53.41-.27.24-.52.49-.79.73-.21.19-.43.37-.62.58-.28.31-.55.64-.8.97-.25.32-.48.64-.7.97-.1.15-.18.32-.26.48-.04.08-.01.14.08.16Z"/>
      <path class="cls-1" d="M21.16,7.91c.13.21.27.43.4.64.14.24.28.47.42.71.09.16.18.32.27.47.15.25.31.49.46.74.1.17.21.34.31.52.07.12.16.24.21.37.07.17.17.27.35.27.26,0,.51,0,.77.01.26,0,.52.01.78.01.37,0,.75,0,1.12-.02.35-.02.7.03,1.04-.07.02,0,.04,0,.06,0,.31.11.63.02.95.03.25,0,.51-.03.76-.03.36,0,.71.03,1.07.02.4,0,.8-.03,1.2-.04.13,0,.17-.05.11-.16-.05-.09-.12-.17-.18-.26-.34-.55-.77-1.02-1.2-1.49-.28-.31-.59-.6-.89-.88-.25-.23-.51-.44-.77-.65-.26-.21-.52-.41-.79-.59-.31-.22-.63-.43-.96-.62-.5-.28-1-.55-1.52-.8-.29-.15-.6-.27-.91-.38-.37-.13-.75-.25-1.14-.35-.39-.11-.79-.19-1.19-.29-.12-.03-.25-.06-.38-.07-.46-.05-.93-.1-1.39-.14-.24-.02-.48-.01-.72-.02,0,.02-.01.04-.02.06.08.15.16.31.25.46.04.08.09.15.14.23.14.25.28.51.43.76.31.52.64,1.04.95,1.57Z"/>
    </g>
  </g>
</svg>