<?xml version="1.0" encoding="UTF-8"?>
<svg id="Layer_2" xmlns="http://www.w3.org/2000/svg" viewBox="0 0 51.89 6.88">
  <defs>
    <style>
      .cls-1 {
        fill: #2c489e;
      }
    </style>
  </defs>
  <g id="Layer_1-2" data-name="Layer_1">
    <g>
      <path class="cls-1" d="M14.06,1.77c-.17.03-.34.08-.52.1-.18.02-.37.02-.55.01-.2-.01-.39-.05-.59-.08,0-.01,0-.02,0-.04-.04.02-.07.05-.13.09-.1-.12-.25-.23-.28-.36-.06-.23-.13-.43-.26-.62-.08-.11-.14-.24-.22-.36-.1-.17-.21-.35-.32-.51-.01-.02-.11-.02-.13,0-.07.09-.13.2-.19.3-.08.15-.17.29-.23.44-.04.11-.13.16-.2.23-.11.12-.16.31-.23.45-.05.07-.11.12-.14.18-.1.17-.27.23-.47.25-.2.02-.38-.08-.58,0-.09.04-.21.01-.32.01-.21,0-.41.03-.54.21.04.06.09.1.11.15.08.19.11.4.32.5.02,0,.03.04.04.07.06.13.12.27.19.4.06.1.11.19.02.31-.05.06-.09.14-.1.22-.03.29-.28.44-.41.67-.09.16-.3.24-.3.47,0,.03-.03.05-.04.08-.02.06-.07.16-.04.19.04.06.13.09.21.11.11.04.23.07.35.08.16,0,.32,0,.48-.02.05,0,.11,0,.16,0,.25.03.49.07.73.09.11,0,.22-.02.32-.03.09.18.16.34.25.48.15.24.41.4.5.69.02.06.08.1.13.16.1-.08.18-.14.24-.21.15-.17.28-.37.45-.53.16-.15.28-.32.37-.52.05-.11.15-.16.31-.13.46.08.92.11,1.37,0,.07-.02.2-.08.2-.1-.02-.1-.06-.19-.12-.28-.06-.1-.14-.19-.21-.3-.1-.17-.2-.34-.28-.51-.09-.19-.2-.39-.24-.59-.08-.36.24-.56.44-.76.15-.15.25-.3.34-.48.05-.11.15-.2.22-.3.04-.06.07-.13.1-.2-.07,0-.15-.02-.22,0Z"/>
      <path class="cls-1" d="M5.83,1.88c-.13,0-.26-.03-.39-.04-.23-.02-.46-.05-.69-.03-.14,0-.26-.02-.35-.11-.17-.16-.34-.32-.46-.51-.19-.3-.35-.61-.6-.86-.04-.04-.16-.05-.18-.03-.11.13-.19.28-.28.42-.22.35-.44.7-.66,1.05-.01.02-.04.04-.07.05-.2.05-.4.1-.61.13-.12.02-.24-.03-.36-.03-.1,0-.2.04-.31.05-.1,0-.19-.04-.29-.03-.16.02-.32.05-.48.09-.04,0-.08.03-.09.04.04.08.08.14.11.2.11.19.33.32.31.58,0,.02.01.05.03.06.13.09.27.18.4.28.03.02.06.06.08.09.08.11.16.21.27.35,0,.02-.01.09-.02.16-.01-.01-.02-.02-.03-.03-.19.21-.39.41-.55.64-.17.23-.32.49-.5.78.16.04.29.08.42.09.2.02.41,0,.62.01.06,0,.11.03.17.03.29,0,.57.01.86,0,.13,0,.2.06.25.18.03.06.09.11.14.17.03.03.07.04.09.08.07.18.14.36.2.54,0,.02.01.03.02.05.08.11.16.22.25.33.03.03.12.05.13.04.12-.15.23-.3.34-.46.07-.09.13-.19.19-.29.08-.13.19-.25.24-.39.06-.16.19-.25.31-.24.32.02.64-.17.96-.01.02,0,.04-.01.07-.01.12,0,.23.02.34.01.17,0,.34,0,.5-.03.14-.03.15-.13.06-.24-.08-.11-.15-.22-.22-.33-.07-.1-.15-.2-.2-.31-.1-.21-.18-.42-.27-.64-.06-.14.05-.21.1-.31.1-.18.19-.37.28-.55.05-.09.12-.17.17-.26.12-.21.24-.43.36-.65.03-.05.05-.09.07-.14-.06,0-.11-.02-.16-.01-.18.02-.37.05-.55.05Z"/>
      <path class="cls-1" d="M51.77,5.04c-.12-.12-.26-.22-.37-.35-.19-.22-.35-.45-.54-.67-.25-.28-.26-.59-.02-.87.14-.17.28-.35.38-.54.13-.24.23-.5.34-.76-.09-.09-.18-.16-.28-.04-.11-.04-.21-.11-.3-.11-.19,0-.38.03-.58.04-.14,0-.28.01-.42.01-.14,0-.29,0-.43-.02-.09-.01-.2-.03-.25-.09-.08-.1-.16-.22-.18-.35-.05-.34-.33-.56-.46-.86-.04-.08-.14-.14-.23-.24-.13.07-.2.22-.27.39-.09.21-.1.45-.29.61-.05.04-.1.08-.14.13-.13.16-.23.35-.5.34-.25-.01-.5.05-.75.07-.12,0-.24-.02-.36-.03-.13-.01-.26-.03-.39-.03-.07,0-.13.04-.17.05.02.11.03.24.07.36.04.11.11.2.17.3.11.17.22.33.34.49.13.18.28.56.05.76-.06.06-.11.13-.16.2-.11.17-.22.35-.32.52-.04.06-.07.14-.09.21-.04.1-.06.21-.1.3-.04.1-.09.19.03.25.07.04.16.05.24.05.45-.01.91-.04,1.36-.06.16,0,.48.13.49.25.01.18.11.32.19.47.16.29.31.58.46.86.22,0,.34-.12.44-.26.1-.14.22-.26.33-.39.06-.07.14-.13.2-.21.08-.11.14-.25.24-.33.18-.15.35-.33.64-.27.16.03.35-.03.52-.03.22,0,.44.02.66.03.11,0,.21-.05.32.04.04.03.16-.02.24-.04-.04-.07-.07-.14-.12-.2Z"/>
      <path class="cls-1" d="M21.99,1.74c-.32.09-.63.02-.94-.07-.09-.02-.19-.05-.27-.01-.28.12-.53.03-.78-.07-.03-.01-.07-.05-.09-.08-.23-.36-.47-.72-.68-1.1-.09-.16-.17-.27-.38-.24-.12.02-.15.05-.16.15,0,.05-.02.15-.03.15-.19,0-.21.18-.29.29-.07.09-.08.22-.12.34,0,.01-.01.03-.02.04-.03-.04-.05-.08-.1-.16-.02.1-.02.15-.04.19-.05.11-.09.26-.18.32-.15.09-.33.13-.5.15-.16.02-.33-.04-.5-.04-.2,0-.4.03-.61.04-.07,0-.15-.04-.21-.03-.04.01-.07.09-.1.15,0,.01-.02.03-.02.04.24.21.24.21.31.56.02.09.05.18.1.26.1.15.22.28.32.44.16.26.13.53-.04.76-.15.21-.26.44-.4.65-.09.14-.18.29-.31.4-.11.09-.1.16-.05.24.07-.02.13-.05.18-.05.38.05.77.05,1.15.02.28-.02.55-.09.74.02.17.29.31.52.45.76.08.14.16.28.22.42.05.14.19.22.28.14.09-.08.18-.18.26-.27.18-.22.36-.44.54-.66.02-.02.02-.06.04-.07.05-.05.1-.11.15-.12.26-.04.52-.06.78-.09.07,0,.14-.03.23-.05.01,0,.06.02.1.02.12.01.23.02.35.03.16,0,.32,0,.47,0,.03,0,.08-.07.07-.09-.08-.15-.1-.35-.26-.42-.03-.08-.04-.14-.06-.19-.02-.05-.04-.1-.07-.15-.13-.21-.14-.48-.35-.64-.11-.08-.12-.18-.03-.29.09-.11.18-.23.25-.35.23-.38.46-.76.69-1.14.02-.04.04-.1.02-.14,0-.02-.08-.04-.12-.03Z"/>
      <path class="cls-1" d="M28.92,4.69s-.13-.06-.14-.1c-.09-.29-.41-.44-.46-.77-.03-.21-.16-.39-.03-.61.15-.26.28-.54.41-.81.05-.09.09-.18.13-.28.04-.1.08-.2.12-.32-.29.01-.53.02-.76.03-.24.01-.47.03-.71.04-.03,0-.06-.01-.08-.03-.11-.11-.24-.21-.33-.34-.13-.18-.23-.39-.33-.59-.08-.15-.13-.33-.23-.47-.15-.23-.32-.34-.53-.09-.01.01-.04.02-.04.03-.06.11-.17.21-.14.32-.09.12-.16.2-.22.3-.06.09-.1.2-.17.29-.06.08-.15.14-.2.22-.07.13-.19.13-.31.15-.04,0-.08,0-.12,0-.15,0-.31.06-.44.02-.19-.05-.35.02-.52.05-.13.02-.25.06-.38.09-.04,0-.08,0-.12,0,.01.05.01.1.04.14.14.21.28.41.42.61.15.23.29.47.44.71.02.03.04.07.03.09-.05.15-.09.3-.17.44-.18.34-.38.66-.68.92-.05.04-.06.13-.06.2,0,.02.09.05.14.06.32.1.66-.03.97.13.03.02.09-.02.13-.03.12-.02.24-.04.36-.05.05,0,.12.03.14.06.11.2.22.41.31.62.1.23.17.47.28.7.05.09.16.2.25.21.07,0,.17-.12.24-.19.04-.03.05-.09.08-.13.2-.25.41-.49.6-.75.19-.26.38-.5.75-.51.33-.01.66-.06.99-.09.1,0,.2,0,.31.02,0,.04-.02.09-.03.15.18-.13.19-.34.04-.44Z"/>
      <path class="cls-1" d="M43.16,2.62c.13-.21.21-.45.43-.61.09-.06.07-.18-.01-.2-.15-.05-.32-.08-.48-.06-.3.02-.58.18-.89.1-.16-.04-.35.04-.48-.14-.1-.15-.22-.3-.33-.45-.04-.06-.06-.14-.1-.2-.12-.2-.23-.4-.36-.6-.02-.03-.11-.06-.13-.04-.08.07-.17.14-.22.23-.16.27-.3.55-.44.82-.05.09-.08.19-.15.25-.06.06-.16.11-.24.1-.16,0-.31-.14-.47.01-.01.01-.05,0-.07,0-.12-.03-.25-.06-.37-.08-.12-.01-.33-.01-.34,0-.02.21-.14.07-.21.07-.05,0-.11,0-.2,0,.09.25.14.48.25.69.15.29.34.57.52.85.06.09.07.15.01.24-.19.29-.37.59-.55.88-.05.08-.08.16-.11.24-.02.05-.04.1-.07.15.06.02.12.05.18.06.06.01.13.01.2.02.26.04.51.09.77.12.22.02.45.02.67.03.02,0,.06.02.07.04.12.25.24.51.36.77.04.09.07.19.11.28.09.23.19.45.29.68.03,0,.07,0,.1,0,.03-.07.06-.14.1-.2.06-.09.13-.18.19-.27.11-.21.19-.44.31-.65.09-.16.21-.32.34-.45.12-.12.27-.17.46-.16.35.01.7-.03,1.05-.05.26-.02.31-.1.18-.33-.05-.1-.13-.18-.2-.27-.2-.29-.4-.58-.6-.86-.16-.23-.13-.39.08-.58.13-.12.24-.28.34-.43Z"/>
      <path class="cls-1" d="M35.46,4.04c-.21-.22-.21-.5-.29-.75-.01-.04.01-.11.04-.15.08-.1.17-.2.25-.3.06-.08.1-.16.15-.25.06-.09.12-.19.16-.29.05-.11.11-.23.12-.34.01-.13-.18-.2-.39-.2-.32,0-.64-.01-.96-.02-.07,0-.15-.05-.2-.03-.14.05-.24.06-.33-.1-.07-.12-.16-.23-.13-.37.05-.2-.01-.33-.13-.48-.08-.1-.13-.22-.2-.33-.03-.06-.07-.12-.08-.13-.1.08-.21.12-.27.2-.1.15-.17.33-.26.48-.1.17-.21.34-.32.51-.06.08-.11.2-.19.22-.16.05-.34.06-.5.07-.17,0-.33-.02-.5-.04-.09,0-.21.09-.27-.07,0,0-.08,0-.09.02-.08.11-.18.07-.3.07-.12,0-.29-.08-.33.02.26.8.78,1.37,1.08,2.03-.34.36-.5.81-.74,1.25.19,0,.36,0,.52,0,.34,0,.68.02,1.02.03.14,0,.19.08.24.2.06.14.04.35.2.4.04.12.05.2.08.27.06.14.17.27.2.42.04.19.17.28.3.38.09.07.14.04.19-.06.09-.19.19-.37.29-.55.09-.16.18-.31.27-.47.05-.09.1-.18.17-.26.09-.1.18-.19.28-.28.04-.03.08-.07.12-.07.17.02.35.06.53.09.21-.32.55-.09.85-.14-.01-.08-.02-.14-.04-.2-.11-.32-.33-.56-.55-.79Z"/>
    </g>
  </g>
</svg>