<?xml version="1.0" encoding="UTF-8"?>
<svg id="Layer_2" xmlns="http://www.w3.org/2000/svg" viewBox="0 0 49.89 22.35">
  <defs>
    <style>
      .cls-1 {
        fill: #2c489e;
      }
    </style>
  </defs>
  <g id="Layer_1-2" data-name="Layer_1">
    <g>
      <path class="cls-1" d="M.04,16.2c0,.17.07.32.17.47.07.12.18.18.3.23.17.08.35.04.53.06.13.02.27.02.41.03.1,0,.27.19.29.28.07.32.1.65.23.96.08.19.14.39.22.58.08.18.18.36.29.54.11.18.22.36.36.52.22.26.46.5.7.76-.26,0-.52.02-.78.02-.3,0-.6,0-.9,0-.19,0-.38.02-.58.04-.01,0-.03,0-.04.02-.05.11-.09.21-.13.32,0,.01.05.07.08.07.36.04.71.08,1.07.12.31.04.62.04.92.12.27.08.54.06.81.11.29.05.59.1.88.13.37.04.75.07,1.12.11.31.03.62.07.93.11.33.04.67.08,1,.12.21.03.41.06.62.09.19.02.37.04.55.06.28.03.56.06.84.09.42.06.84.14,1.27.18.25.03.52.01.77.01.27,0,.53-.02.8-.03.16,0,.25-.05.32-.14-.14-.22-.42-.11-.6-.23,0-.02,0-.03,0-.05.06,0,.12-.01.18,0,.34.04.67.09,1.01.12.28.03.57.04.85.06.27.02.54.03.81.05.24.01.48.04.71.04.53.01,1.06.02,1.6.01.22,0,.44-.05.65-.07.22-.02.43-.02.65-.04.12-.01.23-.06.35-.08.08-.02.17-.03.25-.04.17-.02.33-.04.5-.05.35-.04.7-.07,1.05-.12.18-.03.36-.09.54-.12.15-.03.31-.04.47-.07.11-.02.21-.03.32-.05.02,0,.03-.01.05-.01.3-.04.61-.07.91-.11.19-.03.39-.08.58-.12.44-.09.88-.11,1.32-.09.39.01.79-.04,1.19-.06.1,0,.2,0,.3,0,.23,0,.46-.01.69-.01.39,0,.79,0,1.18,0,.53,0,1.05-.01,1.58-.02.47-.01.94-.03,1.41-.05.68-.02,1.35-.05,2.03-.06.32,0,.64,0,.96-.01.18,0,.37-.02.55-.02.41,0,.81,0,1.22-.01.46,0,.91-.03,1.37-.04.3,0,.61-.01.91-.03.37-.03.73,0,1.1.04.13.02.26,0,.38,0,.24.03.48.08.72.1.24.02.48.02.73,0,.72-.03,1.44-.06,2.16-.1.23-.01.45-.06.67-.09.25-.04.5-.08.75-.13.29-.06.57-.14.86-.21.12-.03.24-.08.36-.07.26,0,.52.04.78.05.23,0,.45,0,.68,0,.35,0,.7-.05,1.04-.1.12-.02.17-.09.16-.2-.02-.21-.16-.35-.38-.35-.46-.02-.92-.04-1.38-.05-.5-.01-1-.02-1.5-.03-.44,0-.88,0-1.32,0-.04,0-.08,0-.11-.01-.03-.01-.08-.03-.09-.06-.01-.03,0-.07.02-.11.02-.06.04-.13.08-.18.11-.15.15-.33.19-.51.03-.13.09-.26.13-.39.07-.28.16-.57.2-.85.05-.32.05-.64.07-.96,0-.05,0-.1.02-.15.03-.16.06-.19.23-.18.16,0,.33,0,.49.02.05,0,.11.03.16.03.07,0,.15.01.25.02-.05-.11-.09-.18-.13-.26-.12-.24-.12-.48-.08-.74,0-.05,0-.09,0-.14,0-.07-.03-.1-.09-.08-.13.04-.18-.04-.23-.13-.06-.13-.11-.26-.18-.38-.12-.22-.23-.45-.36-.66-.14-.24-.31-.47-.54-.63-.19-.13-.36-.25-.61-.21-.13.02-.28-.02-.42-.02-.2,0-.4.03-.6.04-.31.01-.62.01-.94.02-.32,0-.64.05-.88.28-.12.11-.2.25-.29.38-.1.15-.19.32-.26.48-.09.2-.15.41-.22.62-.02.06-.04.12-.06.18-.06.24-.13.48-.17.72-.05.24-.06.49-.11.73-.02.11-.06.23-.12.33-.06.1-.17.14-.3.15-.28.01-.56.05-.83.06-.38.02-.77.02-1.15.03-.51.02-1.01.04-1.52.06-.56.03-1.12.06-1.68.09-.1,0-.21,0-.3-.02-.14-.05-.13-.19-.15-.31,0-.04-.02-.07-.03-.11-.02,0-.04,0-.06,0,0,.06,0,.12,0,.18.03.18-.02.23-.19.26-.15.03-.25-.06-.27-.22,0-.09,0-.18,0-.26,0-.08.07-.1.14-.11.04,0,.07,0,.11-.01,0-.01,0-.02,0-.03-.06-.01-.12-.03-.18-.04-.09-.01-.14-.06-.14-.15,0-.38,0-.75-.01-1.13,0-.21,0-.42,0-.63,0-.2-.04-.4-.04-.6,0-.15.03-.29.02-.44,0-.28-.03-.56-.04-.85-.01-.26-.02-.51-.02-.77-.01-.35-.03-.69-.04-1.04,0-.22,0-.45-.02-.67-.03-.21.03-.42,0-.64-.01-.08-.03-.15-.05-.23-.01,0-.03,0-.04,0,0,.06-.02.13-.02.19,0,.36,0,.72.02,1.08.01.36.05.71.06,1.07.01.38,0,.76,0,1.14,0,.23.02.46.03.68.01.31.04.61.04.92,0,.23-.01.45-.01.68,0,.26,0,.51.01.77,0,.16,0,.32,0,.47,0,.09-.05.14-.14.15-.21.02-.42.02-.63.03-.02,0-.04,0-.06.04.09.01.18.03.27.03.16,0,.32,0,.49,0,.08,0,.12.03.12.1,0,.11.01.21,0,.32,0,.12-.12.18-.28.18-.23,0-.45,0-.68,0-.21,0-.42,0-.63,0-.36,0-.72.02-1.08.03-.18,0-.37,0-.55,0-.21,0-.43.02-.64.03-.07,0-.08.04-.08.1,0,.09-.01.19-.04.28-.01.04-.07.07-.11.11-.04-.04-.08-.08-.1-.13-.02-.04-.01-.1-.04-.14-.05-.07-.08-.13-.21-.11-.35.05-.71.06-1.06.09-.52.04-1.05.07-1.57.1-.18.01-.36,0-.54,0-.15,0-.31.03-.46.04-.27.01-.53.02-.8.02-.11,0-.22-.06-.29-.16-.05-.07-.12-.12-.17-.19-.05-.07-.08-.14-.03-.23.03-.05.02-.12.03-.18.01-.08.05-.15.14-.15.14,0,.29,0,.43,0,.07,0,.13,0,.2-.02-.24-.16-.13-.4-.17-.6-.01-.08-.02-.17-.02-.25,0-.07.01-.14.01-.21,0-.28,0-.57,0-.85,0-.26-.03-.51-.04-.77,0-.21-.02-.42-.02-.63,0-.14.03-.28.03-.43,0-.12-.02-.23-.02-.35-.01-.17-.02-.34-.03-.5,0-.07,0-.14,0-.22,0-.26,0-.52,0-.78,0-.26-.03-.53-.03-.79,0-.2,0-.39,0-.59,0-.3-.02-.6-.04-.89,0-.13-.02-.26-.03-.38,0-.07.03-.15.03-.22,0-.26-.03-.51-.04-.76,0-.15,0-.3,0-.46,0-.09-.01-.17,0-.26,0-.06.01-.12.02-.18.03-.17.06-.34.09-.51.01-.08.03-.15.05-.23.02-.13.05-.26.07-.38,0-.01,0-.03,0-.03.11-.15.07-.34.13-.51.04-.11.04-.23.06-.35.02-.08.04-.16.06-.24.07-.31.14-.62.2-.94.02-.08,0-.16.01-.24,0,0,0-.02,0-.02.14-.1.08-.28.15-.41.06-.13.06-.29.09-.44.04-.19.08-.38.15-.57.02-.05.11-.09.18-.1.39-.01.78-.02,1.17-.02.16,0,.32.02.47.02.26,0,.53-.02.79-.02.32,0,.65.01.97.02.32,0,.64.01.96.02.18,0,.37,0,.55,0,.3,0,.61.03.91.04.18,0,.37.02.55.02.22,0,.45-.01.66-.02.04.06.07.1.1.15.11-.2.28-.1.43-.1.25,0,.49,0,.74.02.27,0,.54.02.8.03.14,0,.27,0,.41,0,.22.01.43.03.65.04.16,0,.32,0,.48,0,.08,0,.16.03.23.04.37.02.73.03,1.1.05.34.01.69.02,1.03.04.36.02.73.05,1.1.07.09,0,.18-.03.26-.04.04.02.08.06.12.07.07.02.14.01.21.02.35.03.71.05,1.06.08.13,0,.26,0,.38.02.19.02.37.04.56.06,0,0,0,0,.01,0,.27.02.53.03.8.06.11,0,.21.03.32.04.28.03.57.05.85.08.34.04.68.09,1.01.13.18.02.36.03.54.05.26.03.51.05.76.09.28.04.56.1.85.14.12.01.14.08.14.17.02.24.04.49.07.73.03.27.08.54.12.81.04.26.08.53.12.79.05.33.08.67.13,1,.03.23.07.46.1.69.01.08,0,.17.02.25.04.25.08.51.12.76.02.19.02.38.05.57.02.18.05.36.08.53.02.19.04.37.06.56.03.3.07.59.11.89.03.26.06.52.1.79.02.14.06.28.08.43.03.29.04.59.07.88.03.3.07.6.1.91.01.12.01.24.03.35.02.17.04.35.08.52.03.14-.06.26-.26.28-.38.03-.76.05-1.14.07-.33.02-.66.02-.99.03-.15,0-.3.03-.45.05-.03,0-.06.02-.1.03.04.12.14.1.21.1.15,0,.3-.03.45-.04.22-.01.45-.02.67-.02.5-.02,1-.03,1.5-.05.09,0,.19,0,.27-.02.07-.02.14-.07.21-.11.05-.04.09-.04.12.02.06.12.13.23.18.36.09.21,0,.37-.21.43-.18.05-.37.04-.56.03-.17-.01-.35,0-.52,0-.11,0-.23-.03-.34-.02-.27.01-.54.03-.81.05-.12.01-.25.06-.37.1-.11.03-.22.08-.31-.07-.01-.02-.08-.03-.12-.02-.07.01-.14.04-.21.06-.02,0-.04.03-.05.05-.03.12.07.27.2.27.13,0,.27-.01.4-.03.24-.03.48-.08.72-.09.24-.01.48.02.72.02.11,0,.22,0,.33-.01.32-.01.64-.02.97-.03,0,.1-.05.14-.11.14-.21.03-.41.05-.62.06-.59.04-1.19.07-1.78.1-.22.01-.45.01-.67.03-.04,0-.07.05-.11.07.04.02.09.07.13.07.16,0,.32,0,.47,0,.3,0,.61-.01.91-.02.12,0,.24-.01.36-.02.16,0,.32,0,.48,0,.2-.01.41-.02.61-.04.12-.01.25-.03.37-.06.23-.05.28-.21.29-.4.01-.21,0-.42-.03-.63-.06-.32-.22-.58-.56-.66-.1-.02-.14-.08-.15-.17-.02-.17-.05-.35-.07-.52-.03-.25-.05-.51-.08-.76-.02-.27-.05-.53-.07-.8,0-.08-.02-.17-.03-.25-.03-.27-.06-.55-.09-.82-.02-.16-.04-.32-.06-.49-.03-.2-.05-.4-.07-.6-.02-.14-.04-.28-.06-.43-.03-.3-.07-.61-.1-.91-.02-.21-.04-.41-.07-.61-.02-.2-.05-.41-.08-.61,0-.05,0-.1,0-.15,0-.07-.03-.13-.04-.2-.01-.06-.02-.11-.03-.17-.07-.52-.14-1.04-.2-1.56-.02-.14,0-.29-.03-.43-.02-.15-.06-.3-.08-.45-.03-.23-.06-.46-.09-.69-.02-.13-.05-.26-.07-.39-.02-.14-.05-.27-.07-.41,0-.07,0-.15.02-.22.01-.06.02-.1-.03-.16-.05-.06-.09-.15-.11-.23-.04-.16-.12-.29-.23-.42-.2-.23-.46-.37-.73-.49-.1-.04-.22-.05-.33-.07-.05-.01-.1-.01-.14-.04-.21-.16-.45-.19-.7-.22-.1,0-.19-.06-.28-.07-.22-.04-.45-.07-.67-.12-.2-.04-.39-.11-.58-.15-.07-.02-.15-.02-.22-.03-.32-.04-.65-.08-.97-.12-.05,0-.1-.02-.15-.03-.12-.01-.25-.02-.37-.04-.15-.02-.3-.04-.45-.06-.23-.03-.45-.05-.68-.08-.28-.03-.56-.08-.84-.1-.18-.02-.37-.02-.55-.03-.24-.02-.48-.04-.71-.06-.04,0-.07-.01-.11,0-.15.02-.29-.02-.44-.05-.11-.02-.22-.02-.33-.02-.28-.02-.55-.04-.83-.05-.22-.01-.45-.02-.67-.04-.14,0-.27-.04-.41-.04-.25,0-.51.01-.76,0-.15,0-.3-.06-.45-.09-.03,0-.07-.02-.1-.01-.13.01-.26.04-.38.04-.1,0-.2-.01-.3-.02-.09-.01-.18-.03-.27-.04-.08,0-.17-.03-.25.05-.02.02-.06.02-.1.03,0-.03,0-.06,0-.1-.3,0-.6-.01-.9-.02-.12,0-.24-.03-.37-.04-.07,0-.13.02-.2.04-.05,0-.09.02-.14.03,0,.02,0,.04,0,.06-.02,0-.05,0-.05,0-.06-.12-.17-.08-.27-.09-.2-.02-.39-.02-.59-.03-.01,0-.02,0-.03,0-.12.06-.23,0-.34-.03-.07-.01-.15,0-.22.01-.26.06-.52.08-.78,0-.03.09-.08.11-.16.07-.18-.08-.36-.06-.55-.04-.12.01-.25,0-.38,0-.02,0-.04,0-.05,0-.18.05-.37.03-.55,0-.11-.02-.22-.04-.31.06-.02.03-.11.03-.13.01-.09-.08-.19-.06-.3-.06-.3.01-.61,0-.91.03-.2.01-.4.04-.6.08-.04,0-.08.05-.12.08,0-.04.01-.07.01-.08-.21-.01-.42-.04-.63-.04-.21,0-.43.05-.64.08-.05,0-.11.03-.16.02-.22,0-.45-.02-.67-.02-.12,0-.25.02-.37.03-.02,0-.04.02-.04.03-.04.1-.1.07-.18.05-.16-.02-.32,0-.48,0-.09,0-.17.02-.26.03-.27.03-.53.07-.8.09-.25.02-.5.02-.75.03-.09,0-.17.03-.26.05-.05.01-.11.02-.16.03-.42.06-.85.12-1.27.18-.26.04-.53.09-.79.15-.24.05-.47.13-.7.19-.17.04-.34.08-.51.13-.09.02-.17.06-.26.08-.02,0-.04.01-.05,0-.26-.03-.49.09-.71.2-.14.07-.27.15-.4.24-.15.11-.29.22-.35.41-.04.11-.1.21-.15.32-.1.25-.2.51-.3.76-.03.07-.06.14-.08.2-.06.19-.12.38-.19.57-.07.18-.15.36-.21.54-.08.24-.16.47-.24.71-.09.28-.18.55-.27.83-.07.23-.14.47-.21.7,0,.01,0,.03-.01.04-.16.12-.27.31-.5.3-.17,0-.34-.01-.5-.02-.02,0-.04-.02-.06-.02-.06-.01-.13-.04-.19-.04-.14,0-.29.02-.43.02-.11,0-.21,0-.32,0-.18,0-.36,0-.54-.01-.26,0-.53,0-.79,0-.02,0-.04,0-.05,0-.34-.09-.68,0-1.02-.01-.31-.01-.62-.03-.93-.05-.08,0-.17,0-.25,0-.12,0-.23-.03-.35-.04-.13,0-.25,0-.38,0-.08,0-.17-.03-.25-.02-.06,0-.12.03-.18.05-.07.02-.15.06-.22.06-.21-.01-.42-.09-.64-.03-.08.02-.17.05-.24.1-.12.08-.23.16-.38.21-.16.05-.31.14-.47.21-.06.03-.12.06-.19.07-.15.03-.22.16-.31.26-.07.07-.16.14-.25.18-.11.05-.25.05-.34.12-.17.12-.37.2-.47.39-.1.18-.23.35-.31.54-.06.14-.06.31-.08.46-.02.19-.04.39-.05.58,0,.08,0,.15.02.23.01.1-.02.14-.12.15-.32.04-.64.07-.94.22-.27.14-.5.34-.62.63-.05.11-.1.23-.12.35-.03.19.09.3.24.4.16.11.3.06.42-.03.12-.09.24-.09.37-.06.29.06.5.24.66.47.04.06.1.11.14.17.04.06.06.11-.02.16-.05.03-.09.07-.12.12-.08.17-.23.15-.37.13-.19-.03-.33.03-.44.18-.07.1-.15.14-.29.15-.25,0-.48.08-.66.29-.09.11-.21.2-.23.36,0,.07-.03.14-.03.2,0,.16,0,.31,0,.47,0,.07,0,.14,0,.21,0,.02-.03.05-.05.06-.08.01-.15.02-.23.03-.28,0-.39.14-.47.37-.1.29-.02.57,0,.86ZM46.24,2.52c.15,0,.27.01.39.03.02,0,.03.05.05.07,0,0-.01.02-.02.03-.13-.03-.29.05-.42-.13ZM45.73,2.49c.1-.1.19.01.28,0,.02,0,.05.04.09.08-.09,0-.14.03-.2.02-.05,0-.1-.05-.17-.08ZM45.05,2.41c.07-.1.14,0,.22-.01-.06.11-.14.11-.22.01ZM44.33,2.34s.02-.03.02-.05c.04.02.07.03.11.05,0,.02-.02.05-.03.05-.04-.01-.07-.03-.1-.04ZM42.82,14.62c-.09,0-.16,0-.23-.01-.11-.02-.22-.06-.34-.07-.06,0-.14.03-.19.06-.03.02-.04.09-.04.14,0,.02.07.04.11.04.07,0,.13,0,.2,0,.1.01.21.04.29.15-.12.07-.23.03-.32,0-.23-.09-.42.01-.59.13-.21.15-.33.37-.39.63,0,.03-.05.05-.09.1,0-.14-.06-.25.03-.35.04-.04.06-.08.07-.14.01-.07.04-.15.08-.21.13-.16.27-.31.41-.46.1-.1.24-.15.38-.15.13,0,.27.07.4.05.11-.02.15.03.21.11ZM42.76,17.02c.06.03.15.04.07.16-.03-.07-.05-.11-.07-.16ZM42.84,17.19s.03.01.04.02c-.01.05-.01.11-.04.14-.04.04-.1.07-.15.07-.03,0-.06-.08-.09-.13,0,0,.01-.02.02-.03.09.05.17.03.21-.06ZM42.82,16.87c.05-.07-.03-.18.09-.18.1,0,.12.09.11.16-.01.06-.07.1-.11.15-.03-.05-.06-.09-.08-.13ZM43.25,17.25s.02-.04.04-.06c.08.08.02.15,0,.23-.03.24-.15.44-.27.64-.06.1-.13.21-.22.27-.3.2-.63.14-.88-.12-.13-.13-.2-.29-.25-.47-.06-.23-.14-.46-.18-.7-.06-.34,0-.68.08-1.01.07-.29.22-.52.45-.7.09-.08.2-.12.31-.1.11.02.23.05.33.11.15.09.3.19.39.35.13.24.26.48.27.77,0,.05-.04.09-.05.14-.04-.03-.09-.05-.12-.08-.05-.05-.09-.13-.15-.18-.06-.05-.13-.11-.21-.13-.15-.04-.32.09-.37.26-.03.1-.05.2-.08.33-.19-.07-.43.03-.57-.23-.01.08-.01.13-.03.19-.08.26.02.51.07.75,0,.02.04.03.06.05.01-.02.04-.05.04-.07,0-.03-.01-.06-.02-.09-.02-.11.04-.19.14-.21.1-.02.19-.03.29-.04.03,0,.07.02.09.04.06.1.11.2.16.3.1.2.3.23.46.08.09-.09.22-.15.22-.29ZM43.73,15.83s-.03,0-.04.01c-.05-.09-.1-.17-.15-.26-.06-.11-.09-.24-.17-.33-.11-.14-.26-.25-.39-.38-.07-.06-.13-.12-.21-.19.09-.07.15-.08.22-.02.13.13.29.22.38.4.09.19.2.37.3.56.03.06.04.14.06.21ZM43.92,17.13c-.04.38-.1.77-.29,1.12-.07.13-.13.27-.23.38-.21.24-.47.41-.79.47-.31.07-.59-.04-.82-.24-.2-.17-.31-.4-.41-.64-.06-.13-.11-.27-.08-.44.1.19.19.35.26.52.08.21.28.29.44.38.11.06.28.04.42.02.32-.05.55-.26.73-.52.16-.23.23-.51.3-.79.03-.15.05-.3.08-.44,0-.03.04-.08.06-.07.12.02.2-.06.29-.16.01.15.04.28.03.41ZM41,18.45c.07-.04.15-.06.23-.09,0,0,.02.01.02.02.07.09.15.17.19.26.09.21.24.38.42.49.17.1.4.13.6.17.33.07.56-.15.81-.31.25-.17.38-.45.51-.71.1-.18.11-.41.18-.61.02-.06.09-.11.14-.17.05.05.09.1.14.15,0,0,0,0,0,.01.05.09.06.21.19.24.02,0,.04.05.04.07-.05.18-.1.37-.16.55-.02.08-.06.15-.1.22-.1.19-.17.4-.33.56-.17.18-.32.39-.54.52-.24.14-.49.21-.78.24-.07,0-.16-.02-.24-.03-.3-.06-.52-.26-.73-.46-.15-.14-.28-.3-.39-.48-.1-.16-.18-.32-.22-.51,0-.04,0-.11.02-.12ZM41.22,17.36s-.02,0-.03,0c-.09-.09-.03-.2-.02-.3.02.1.04.2.06.3ZM41.12,16.74s-.02,0-.03,0c0-.1.02-.2.02-.3h.03c0,.1-.02.2-.03.3ZM40.19,18.85c-.05-.12-.1-.25-.14-.37-.06-.18-.13-.35-.18-.53-.03-.1-.03-.21.05-.28.08-.07.08-.13.04-.21-.05-.1,0-.18.12-.16.18.02.26-.08.22-.25-.01-.06-.02-.13-.02-.19,0-.05.02-.11.02-.16,0-.05-.01-.1,0-.15.02-.14.07-.27.07-.41.01-.26.11-.5.18-.74.04-.14.08-.28.1-.42.04-.27.28-.46.56-.41,0,.04,0,.09,0,.12-.04.09-.08.17-.13.25-.17.27-.28.56-.32.88-.04.29-.07.57-.08.86-.01.35.05.69.14,1.03.02.07.03.16.01.23,0,.04-.09.05-.14.08,0,0-.01.02-.02.02-.08.06-.14.04-.17-.06-.01-.05-.03-.09-.06-.13-.05-.05-.11-.11-.19-.06-.11.07-.11.27-.01.36.02.02.03.07.03.1,0,.1-.02.21.1.27.03.02.03.08.04.12.02.07.02.15.04.22.02.08.06.15.09.23.03.08.02.18.12.23.02,0,.02.06.02.09,0,.01-.04.04-.05.03-.03-.01-.06-.03-.08-.06-.08-.12-.16-.23-.24-.35-.04-.06-.09-.11-.11-.17ZM39.8,18.63c-.08-.21-.17-.41-.23-.62-.03-.08-.02-.18,0-.26.02-.07.07-.13.11-.2,0,.04.02.08.03.12.02.13.03.25.06.38.05.18.1.37.16.54.05.14.09.28.18.4.07.09.08.17.08.29-.04-.03-.07-.04-.09-.06-.09-.15-.18-.3-.26-.45-.02-.04-.03-.09-.04-.13ZM39.53,18.64c-.13-.17-.15-.38-.21-.57-.03-.08,0-.14.09-.17.09.07.06.16.08.24.05.2.12.4.18.6.03.09.07.17.1.26-.14,0-.22-.12-.23-.26,0-.04,0-.08-.02-.1ZM39.14,18.05c.09.29.18.56.27.84-.15-.05-.38-.72-.27-.84ZM39.11,18.84s-.02.01-.03.02c-.03-.05-.07-.1-.1-.16-.03-.06-.06-.13-.08-.19-.02-.04-.04-.08-.04-.12,0-.03.04-.06.06-.08.02.02.06.03.06.06.05.16.09.32.14.48ZM31.38,19.21c.28-.21.45-.5.62-.78.1-.17.19-.35.27-.54.03-.08.08-.09.15-.09.25,0,.5,0,.75,0,.12,0,.24,0,.35.03.18.05.36.13.53.21.29.14.6.19.91.23.29.04.59-.03.87-.15.1-.04.2-.12.31-.07.14.06.22,0,.32-.07.12-.09.23-.19.4-.17.14.01.28,0,.42,0,.36,0,.73,0,1.09,0,.13,0,.2.06.23.19.04.16.07.32.13.47.11.3.24.59.36.89.07.16.01.23-.16.22-.16-.01-.33-.02-.49-.02-.12,0-.23.02-.35.01-.21,0-.42-.03-.62-.04-.27-.01-.54-.01-.81-.02-.26,0-.51,0-.77,0-.21,0-.42,0-.63,0-.3,0-.6,0-.9-.01-.2,0-.4,0-.6,0-.22,0-.44-.03-.67-.03-.06,0-.12.03-.17.02-.32-.03-.63-.06-.95-.09,0,.02,0,.03,0,.05-.17-.02-.33-.03-.5-.06-.03,0-.07-.04-.09-.07,0-.01.01-.06.03-.07ZM1.14,15c-.11,0-.17-.07-.18-.24,0-.02.01-.07.02-.12.02-.1.04-.1.13-.05.12.07.09.2.12.3.02.09-.02.11-.09.11ZM1.33,15.18s.09.03.1.06c0,.03-.03.07-.05.1-.08.09-.2.17-.12.34-.14,0-.25,0-.36.02-.15.03-.29.01-.43-.03-.15-.04-.25-.16-.23-.27.02-.17.12-.24.31-.24.06,0,.12,0,.18,0,.21,0,.42,0,.62.02ZM1.71,14c.06.01.07.03.07.08,0,.07-.02.14-.03.21-.02.26-.07.51-.26.71-.11-.04-.14-.06-.14-.13,0-.16-.02-.32-.02-.48,0-.19.15-.44.38-.38ZM1.8,13.61c-.1.01-.2.03-.29.04-.04-.13.06-.12.11-.14.08-.03.14,0,.18.1ZM3.1,10.69c-.01.06-.02.13-.05.19,0,.02-.06.04-.08.04-.11-.01-.23-.05-.34-.05-.23.01-.46.03-.63.22-.02.03-.07.04-.1.06.29-.49.78-.52,1.2-.46ZM3.26,13.5c.09,0,.18,0,.28,0,.2,0,.4.01.59,0,.37,0,.74-.03,1.11-.03.41,0,.81,0,1.22,0,.09,0,.18.03.27.02.13-.02.25-.05.39-.03.24.03.26.04.2.27-.02.09-.07.11-.15.1-.06,0-.12,0-.18,0-.19,0-.39.02-.58.03-.06,0-.12,0-.18,0-.42,0-.84,0-1.26,0-.19,0-.38-.01-.57-.02-.22,0-.44-.01-.66-.01-.21,0-.43.01-.64.02,0,0,0,0,0,.01-.08,0-.15,0-.23-.01-.1-.02-.17-.1-.16-.2,0-.08.12-.16.21-.16.1,0,.21,0,.31,0ZM3,14.54c0-.12.08-.21.16-.21.02,0,.07.04.06.06-.03.13-.07.26-.11.39,0,.02-.03.03-.05.04-.01,0-.04-.02-.04-.03-.01-.06-.02-.12-.02-.17,0-.03,0-.05,0-.07ZM3.79,14.7c.17.02.34.04.51.06,0,.01,0,.03,0,.04-.07,0-.14-.02-.21-.01-.07,0-.14.02-.22.02-.08,0-.11-.03-.08-.11ZM5.92,14.27c-.1.03-.21.05-.31.07-.02,0-.03-.01-.05-.02-.17-.09-.34-.04-.54,0,0-.03-.04-.08-.03-.11.01-.03.07-.08.1-.08.25,0,.5-.01.76,0,.05,0,.11.03.16.05,0,.01,0,.02,0,.04-.03.02-.06.05-.09.06ZM6.13,14.65c.06-.05.1-.05.16,0,.06.04.13.06.2.07.12.01.25,0,.37.02.09,0,.18.04.27.06,0,.02,0,.03,0,.05-.03,0-.06.02-.09.02-.05,0-.09-.02-.14-.02-.14,0-.27,0-.41.01-.16,0-.31.01-.46.02-.02-.05-.04-.09-.05-.13.05-.03.11-.05.15-.08ZM7.84,12.88s0,.01,0,.01c.18,0,.36.02.54.03,0,.01,0,.02,0,.03-.05.03-.1.07-.16.08-.05.01-.11-.01-.16,0-.25,0-.5.03-.74.04-.15,0-.3,0-.45,0-.08,0-.16-.02-.24-.02-.08,0-.15,0-.23-.01-.02,0-.05-.04-.06-.07,0-.01.02-.05.04-.05.08,0,.17,0,.25,0,.19,0,.37,0,.56-.01,0,0,0,0,.01-.03-.21-.04-.43-.02-.64-.02-.17,0-.33,0-.5,0-.02,0-.05-.05-.06-.08,0-.02.03-.06.05-.07.08-.02.16-.03.24-.03.7-.01,1.41-.02,2.12-.03.23,0,.46,0,.69,0,.04,0,.08.05.12.07-.04.03-.07.07-.12.1-.13.06-.26,0-.39,0-.24,0-.48.02-.71.04-.06,0-.12.02-.18.03ZM9.29,13.01c-.26,0-.51.02-.77.02-.03,0-.06-.04-.09-.06.03-.02.05-.07.08-.07.19,0,.39,0,.58,0,.1,0,.21-.01.33-.02-.05-.12-.04-.22.04-.24.09-.03.21-.02.31,0,.04,0,.08.09.11.14.08.1.07.17-.04.23-.04.02-.09.03-.14.03-.14,0-.27-.02-.41-.02ZM9.4,13.2c.05.03.1.06.14.09-.03.02-.07.07-.1.07-.04,0-.07-.05-.1-.09,0,0,.03-.04.05-.07ZM10.03,12.35s0-.08,0-.12c0-.05,0-.13.03-.13.06-.02.12,0,.19,0,0,.01,0,.03,0,.04-.04.04-.08.08-.15.15.04.02.07.03.1.06.02.02.03.06.05.08-.04.01-.1.05-.12.04-.04-.02-.07-.08-.08-.12ZM10.16,12.63s.1-.02.13-.05c.09-.13.2-.17.35-.11,0,.02-.01.04-.02.06-.07.18-.28.31-.45.26-.05-.01-.08-.08-.12-.12.04-.01.08-.03.12-.04ZM9.97,11.82c.29-.1.36-.09.56.1.03.03.07.09.06.1-.03.04-.08.08-.13.09-.05,0-.1-.03-.15-.05-.08-.04-.15-.09-.23-.11-.09-.01-.13-.04-.12-.13ZM10.19,11.61s-.08-.07-.12-.1c.04-.03.07-.05.11-.08.02.05.04.1.06.15-.01.01-.03.02-.04.03ZM9.88,11.04s-.03-.09-.05-.14c.05,0,.1,0,.15,0,.01,0,.03,0,.04.01.2.07.44,0,.58-.16.15-.17.22-.37.29-.57.03-.07.04-.15.07-.22.03-.09.07-.18.11-.26.01,0,.02,0,.04,0,0,.04.01.08,0,.12,0,.13-.03.26-.04.39,0,.03.02.08.04.08.04,0,.08-.01.11-.03.07-.04.13-.1.19-.15,0,0,.02.01.03.02,0,.07,0,.14-.02.2-.07.17-.14.35-.25.5-.24.33-.66.57-1.12.34-.07-.03-.13-.08-.19-.14ZM13.14,17.41s0-.02,0-.03c-.08-.18-.05-.36-.01-.55.02-.1.02-.21.04-.31.02-.11.04-.22.06-.33.01-.07.03-.15.04-.22.02-.11.02-.22.04-.32,0-.04,0-.08.01-.12,0-.06.02-.11.03-.16.03-.1.08-.2.11-.31.03-.1.06-.2.08-.3.05-.21.15-.41.26-.59.03-.05.05-.13.15-.13-.02.06-.03.11-.05.16-.08.18-.16.36-.23.54-.09.28-.18.57-.25.85-.04.16-.06.33-.08.5-.02.16-.02.31-.02.47,0,.32-.04.65,0,.97.03.23.07.46.09.7,0,.03,0,.05,0,.1-.05-.03-.08-.05-.11-.06-.09-.02-.14-.07-.13-.16.02-.23-.11-.45-.02-.68ZM16.22,11.67s-.05.02-.07.02c-.07.02-.15.02-.22.05-.2.09-.4.14-.61.15-.03,0-.06,0-.08,0-.17.04-.32.14-.51.16-.2.03-.39.13-.59.2-.1.04-.18.11-.28.15-.11.04-.23.05-.39.09.04-.06.05-.13.09-.14.22-.1.43-.18.65-.27.04-.02.09-.02.14-.03.2-.07.41-.14.61-.2.12-.04.26-.04.37-.09.28-.13.58-.11.88-.11ZM15.32,11.18s-.09.08-.14.09c-.14.02-.26.05-.39.12-.19.1-.4.13-.61.07-.08-.02-.11-.08-.11-.14,0-.04.04-.09.08-.12.12-.08.26-.08.4-.06.15.02.3.03.45.03.11,0,.22,0,.32,0,0,0,0,.02,0,.02ZM12.85,12.68s-.08-.05-.12-.08c.03-.03.05-.06.09-.08.03-.01.06-.01.1-.02.13-.02.27-.04.4-.06.03,0,.07-.01.1-.02,0,.01.01.02.02.03-.02.02-.03.06-.06.06-.17.06-.35.11-.53.16ZM12.88,10.8s-.08.02-.12.03c-.06.02-.12.05-.19.05-.23,0-.46,0-.69,0-.12,0-.25-.02-.37-.03-.09-.01-.14-.09-.12-.18.03-.13.15-.22.28-.22.44,0,.87,0,1.31,0,.54,0,1.07-.01,1.61-.01.5,0,1,0,1.5-.01.3,0,.6-.03.9-.03.46,0,.92.02,1.38.01.32,0,.65-.02.97-.04.05,0,.1-.04.14-.06.03.09.11.06.17.06.21,0,.41,0,.61.08.07.03.16.02.24.03.04,0,.09,0,.12.02.15.09.31.17.43.29.18.18.34.37.43.62.06.17.14.32.21.48.08.19.14.39.22.58.1.24.22.48.31.73.13.32.24.64.37.96.12.31.26.61.38.92.03.07.03.15.05.23-.02,0-.04.01-.05.02-.03-.03-.06-.07-.09-.11-.09-.11-.07-.28-.2-.38-.04-.03-.09-.08-.03-.14,0,0-.01-.04-.02-.06-.09-.22-.19-.43-.28-.65-.07-.15-.13-.31-.2-.46-.03-.07-.07-.13-.1-.2-.03-.06-.06-.11-.07-.17-.03-.1-.05-.21-.15-.27.02-.03.03-.06.03-.07-.07-.14-.13-.25-.19-.38-.1-.23-.19-.47-.3-.7-.06-.13-.15-.25-.22-.37-.02-.04-.02-.09-.05-.12-.12-.15-.24-.3-.45-.37-.17-.06-.33-.13-.52-.1-.01,0-.03,0-.04,0-.11,0-.21.02-.32.03-.06,0-.12-.02-.17-.02-.18,0-.37.01-.55.02-.29.01-.58.03-.88.04-.35.01-.71.02-1.06.02-.3,0-.61-.02-.91,0-.26.02-.52.05-.79.04-.42,0-.84.02-1.26.04-.21,0-.41.02-.62.03-.1,0-.21-.01-.31.01-.2.05-.36.17-.45.36-.01.03-.05.04-.08.06,0-.03-.02-.06-.01-.09,0-.04,0-.08.02-.12.01-.05.04-.1.05-.14.02-.1.17-.15.11-.29ZM17.16,11.48s.09.06.1.1c.02.05,0,.13-.07.13-.05,0-.14,0-.15-.1,0-.08.03-.1.12-.13ZM17.38,11.56s0-.02,0-.03c.07-.02.14-.03.22-.06.02.01.05.03.11.07-.13,0-.23,0-.33.01ZM17.77,12.41s.03.08.04.12c0,0-.04.02-.07.03-.01-.04-.02-.08-.03-.13.02,0,.04-.01.06-.02ZM18.29,11.51c-.12.03-.22.06-.33.09-.02-.04-.04-.08-.07-.12.12-.06.3-.06.39.02ZM18.44,11.45c.08,0,.15,0,.23.01,0,.02,0,.03,0,.05-.08,0-.15,0-.23-.01,0-.02,0-.03,0-.05ZM19.35,11.61s-.07-.06-.08-.05c-.12.07-.17-.05-.26-.09.08-.03.15-.06.21-.06.22,0,.44.03.65.05.19.02.38.04.57.09.15.04.27.14.34.29.04.1.08.2.12.31.13.3.27.61.4.91.16.38.31.77.46,1.16.1.24.2.48.3.71.13.31.27.62.4.93.08.18.15.37.23.56,0,.02,0,.05,0,.1-.05-.03-.11-.05-.13-.08-.12-.21-.14-.46-.3-.65-.02-.03-.01-.08-.02-.12-.01-.09-.01-.18-.1-.25-.07-.05-.04-.17-.14-.21,0,0,0-.02,0-.03,0-.04-.02-.08-.03-.11-.03-.06-.07-.11-.09-.17-.07-.2-.13-.41-.19-.61-.02-.05-.03-.11-.04-.16-.04-.1-.12-.19-.17-.29-.07-.11-.15-.21-.14-.35,0-.04-.02-.09-.04-.13-.05-.11-.12-.22-.16-.33-.03-.09-.06-.17-.13-.23-.02-.01-.01-.05-.02-.07-.02-.07-.04-.15-.07-.22-.09-.18-.18-.35-.28-.52-.05-.09-.13-.16-.21-.23-.02-.02-.07,0-.11.02-.03.01-.06.05-.09.04-.02,0-.04-.05-.06-.08-.03-.06-.04-.15-.09-.17-.13-.06-.27-.05-.41,0-.1.03-.21.04-.32.05ZM19.53,12.66s.06.07.08.11c0,.02-.04.07-.06.07-.04,0-.08-.03-.12-.05,0-.02-.01-.03-.02-.04.04-.03.08-.06.12-.09ZM20.63,12.36h.03s0,.09,0,.14c-.02,0-.03,0-.05,0-.07-.05,0-.1.01-.14ZM21.02,16.81s0,0,0,0h0c-.04-.11-.1-.22-.13-.34-.02-.1-.02-.21-.03-.32.01,0,.03,0,.04,0,.1.21.1.44.11.66,0,0,0,0,0,0h0c.07.35.05.72-.05.85,0-.14,0-.28-.01-.41,0-.07,0-.14,0-.21-.02-.09-.01-.17.07-.23ZM22.84,17.12c-.13-.16-.16-.33-.13-.52.01,0,.02,0,.03,0,.15.36.31.72.46,1.07-.09.04-.15.02-.17-.08,0-.02-.02-.05-.04-.07-.06-.08-.14-.15-.13-.27,0-.02-.02-.04-.03-.07-.02.05-.03.08-.04.11-.02-.03-.04-.05-.06-.07.04-.04.07-.08.09-.11ZM22.38,10.17s-.08-.06-.08-.08c0-.04.04-.07.06-.11.03.03.07.05.09.08,0,.02-.04.06-.07.1ZM17.42,9.72c.03-.07.04-.1.06-.13,0,0,.02,0,.03,0,.02.04.03.08.05.12-.04,0-.07,0-.13.02ZM11.8,12.61c-.02.09-.05.18-.07.28-.07-.12.02-.19.04-.29.01,0,.02,0,.03.01ZM11.72,12.99s0,.07,0,.1c-.02.1-.04.2-.06.31-.01.11,0,.23-.02.35,0,.03-.03.05-.05.07-.02-.03-.05-.05-.05-.08,0-.08,0-.17-.01-.26.01,0,.02,0,.03,0,.01-.05.03-.1.04-.15.02-.12.04-.24.06-.36.02,0,.04,0,.06,0ZM11.62,14.02c0,.06,0,.12-.02.17-.03.21-.05.43-.08.64,0,.03-.05.06-.08.09-.02-.04-.06-.09-.06-.13,0-.08.04-.16.06-.24.02-.08.04-.15.05-.23,0-.05.02-.1,0-.14-.03-.1,0-.22.11-.33,0,.07.02.12.02.16ZM11.25,11.39s-.03-.06-.02-.08c.03-.07.06-.13.1-.19,0-.01.03-.02.05-.03,0,0,.02.02.02.02-.03.08-.06.16-.09.23,0,.02-.04.03-.06.04ZM9.73,8.64c-.03-.07-.03-.11.06-.16.19-.11.39-.18.61-.19.04,0,.08-.03.13-.05,0-.01,0-.02.01-.03.17.17.34.33.5.51.06.07.08.16.12.24.07.14.15.28.23.43,0,.02-.03.06-.07.12-.08-.06-.15-.12-.22-.18-.1.12-.22.1-.3-.03-.1-.17-.17-.34-.33-.48-.18-.16-.36-.24-.61-.17.27.07.51.17.69.39.14.18.28.61.22.73-.05-.11-.1-.22-.15-.34-.13.06-.26.12-.39.18-.13.06-.26.12-.39.18.1.04.19.09.29.12.14.05.27.09.42.12.04,0,.11-.04.15-.07.04-.02.06-.07.11-.12,0,.11,0,.19-.01.26-.04.11-.09.23-.14.33-.1.18-.23.32-.43.39-.14.05-.27-.04-.4-.02-.17.03-.23-.07-.27-.2,0-.02-.02-.04-.04-.05-.13-.14-.14-.33-.19-.5-.04-.14-.02-.31-.03-.47,0-.06-.02-.13-.03-.19-.09-.03-.14-.08-.12-.14.03-.1.07-.11.22-.08.02-.03.03-.07.05-.1.05-.11.1-.22.25-.25.07-.01.12-.06.08-.16ZM9.48,8.7c-.06.1-.14.18-.27.16-.08-.01-.15-.03-.26-.06.07-.04.11-.07.16-.08.07-.02.08-.06.08-.12,0-.05.03-.14.07-.15.05-.02.13,0,.17.05.06.05.1.12.05.2ZM9.46,8.14c0,.08.01.16-.09.18-.1.02-.2.07-.26-.05-.03-.05-.03-.12-.03-.19,0-.09.03-.15.12-.14.1,0,.19.02.29.03,0,.07-.02.12-.02.17ZM8.97,9.97s.1.04.15.06c-.04.03-.09.06-.14.09,0,0-.01,0-.02,0-.12,0-.24-.02-.36-.01-.18.01-.35.04-.53.06,0,.02,0,.04,0,.05.06,0,.11-.02.17-.02.21,0,.41.02.62.03,0,0,0,.02,0,.03-.13,0-.26,0-.39.01-.08,0-.16.05-.24-.01,0,0-.02,0-.03,0-.11.08-.23.08-.36.05-.07-.02-.16.03-.24.03-.1,0-.2,0-.29,0-.05,0-.11.01-.14-.01-.07-.08-.12-.2-.26-.1,0,0,0,0-.01,0-.09-.01-.18-.03-.27-.04,0,0,0,.01,0,.02.04.02.08.04.11.06-.01.02-.03.04-.04.06-.1,0-.19.02-.29.02-.02,0-.04-.03-.06-.04.02-.02.03-.05.05-.06.04-.02.08-.03.12-.04,0-.01,0-.02,0-.04-.11,0-.22,0-.34.01-.12,0-.15-.04-.12-.16.09,0,.18-.03.27-.03.37,0,.75,0,1.12,0,.12,0,.25,0,.37,0,.38-.01.76-.03,1.14-.04ZM8.62,9.82s-.12.03-.17.02c-.04-.01-.07-.07-.08-.12-.02-.07-.03-.15-.05-.24.11-.11.19-.11.24,0,.03.06.06.13.07.19.01.05.01.13-.01.15ZM7.87,9.86c-.07.07-.26,0-.27-.09-.02-.14-.02-.27-.01-.41,0-.03.05-.07.08-.09.01,0,.06.04.08.07.03.04.04.09.06.13.04.08.07.17.1.25-.01.06-.01.12-.04.14ZM7.05,9.86s-.09.03-.12.02c-.18-.1-.29-.34-.04-.53,0,0,.02.01.02.02.06.11.13.23.17.35.02.04,0,.11-.03.14ZM5.65,10.03c.08,0,.17,0,.25.01,0,.02.01.04.02.06-.04.03-.08.06-.13.07-.08.02-.17.02-.25.01-.15,0-.31,0-.46-.01-.02,0-.05-.03-.06-.05,0-.02.01-.06.03-.07.03-.02.07-.03.1-.03.16,0,.32,0,.48,0ZM5.03,8.84c.17,0,.33.01.49.02-.21.1-.41.09-.49-.02ZM4.68,12.5c.07-.07.13-.03.18.02.02.02.02.08,0,.1-.2.25-.38.25-.62.05-.07-.06-.11-.13-.13-.22-.01-.05-.06-.08-.09-.13.05-.02.1-.03.13-.05.05.1.08.19.14.28.03.04.1.07.16.08.1.02.17-.05.23-.12ZM4.45,12.24s-.05.04-.09.07c-.01-.04-.04-.08-.03-.1.02-.04.06-.08.1-.12.01,0,.07,0,.08.03.03.06,0,.1-.05.12ZM4.17,12.03c0-.1.15-.27.25-.26.19,0,.44.08.5.36-.11.05-.2.06-.28-.04-.04-.04-.09-.08-.14-.11-.06-.04-.13-.07-.2,0-.03.03-.08.03-.13.05ZM4.95,12.88c.02-.08.11-.19.18-.19.23-.02.45-.01.68,0,.03,0,.06.04.09.06-.03.03-.05.07-.08.08-.05.02-.1.01-.15.01-.15,0-.3,0-.45,0-.02,0-.05.03-.07.05.03.02.05.05.08.06.01,0,.04,0,.05,0,.13.01.26.02.39.04,0,.01,0,.03,0,.04-.04.02-.07.04-.11.05-.09,0-.18,0-.27,0-.06,0-.13,0-.17-.02-.07-.04-.2-.06-.17-.16ZM5.91,12.3c-.08-.14-.08-.14.07-.25,0,.13.01.24.01.36,0,.03-.02.07-.03.1-.03-.02-.06-.03-.08-.05-.03-.04-.03-.07.03-.09.01,0,.02-.05,0-.07ZM5.26,12.2s-.06-.06-.06-.09c0-.02.03-.05.05-.08.01,0,.02,0,.03,0,0,.05.01.09.02.14-.01,0-.03.01-.04.02ZM4.92,11.61c.09.02.16.04.23.06.01,0,.03.02.03.04,0,.01-.02.03-.03.03-.08,0-.18,0-.22-.13ZM4.93,11.49s.08-.08.12-.08c.13-.02.25-.01.38-.02,0,0,0,0,0,0,.13,0,.26.01.39.03.03,0,.05.05.08.07-.03.02-.06.05-.09.05-.25,0-.5.01-.75,0-.04,0-.09-.04-.13-.07ZM5.96,11.21c-.13-.05-.13-.09-.04-.22.01.08.02.14.04.22ZM6.18,11.75s-.05-.05-.08-.08c.03-.02.05-.05.08-.05.07-.01.14,0,.21-.01.09,0,.18-.03.27-.03.11,0,.22.02.33.02.06,0,.13-.02.19-.04,0-.01,0-.02,0-.03-.02,0-.04-.01-.06-.01-.31,0-.62,0-.92,0-.07,0-.1-.03-.07-.1.04,0,.09-.01.14-.01.36,0,.73,0,1.09-.01.15,0,.29-.01.44-.01.15,0,.31,0,.46,0,.21,0,.42-.03.63-.04.09,0,.17.02.28.04-.09.13-.23.08-.32.16.15.02.29.03.43.02.03,0,.07-.07.1-.11.02-.03.04-.06.06-.08.08-.05.26-.04.34.02.08.06.09.19,0,.24-.06.04-.13.05-.2.05-.17,0-.33-.03-.5-.03-.24,0-.49.04-.73.04-.1,0-.21-.08-.3.03,0,0-.04,0-.05,0-.09,0-.18,0-.27,0-.26,0-.52,0-.79,0-.25,0-.5.02-.76.02ZM6.93,11.99s.03,0,.04,0c0,.03.03.07.03.1,0,.11.03.21.12.28.03.02.05.11.03.14-.03.04-.11.07-.15.06-.05-.02-.13-.08-.13-.13,0-.15.04-.3.06-.45ZM7.66,12.3c0-.08.03-.15.1-.18.06.08.12.14.15.22.02.04.03.13,0,.15-.04.03-.12.06-.16.04-.09-.04-.1-.14-.09-.23ZM8.47,12.25s.06-.09.09-.14c.05.08.1.17.14.26.02.04.02.09,0,.12-.02.02-.07.03-.11.03-.09-.01-.16-.2-.11-.27ZM9.18,12.23c-.02-.3,0-.39.29-.32.03,0,.08.05.08.09.02.12.02.24.02.36,0,.05-.04.12-.08.14-.06.03-.12.05-.2.01-.14-.07-.09-.19-.11-.28ZM9.39,10.54c.09.1.18.2.16.36-.01.07,0,.14-.01.21,0,.07-.03.11-.1.13-.07.01-.12.06-.2-.01-.11-.1-.06-.22-.09-.35,0-.03,0-.07,0-.12,0-.03.01-.07.02-.1.03-.1.16-.17.22-.11ZM9.04,10.3s-.05-.04-.07-.06c.02-.02.05-.05.07-.05.04,0,.09.03.13.04,0,.01,0,.02,0,.03-.04.01-.09.04-.13.04ZM8.56,11.26c-.09,0-.15-.07-.16-.2,0-.12,0-.24.13-.34.05.11.12.22.15.33.04.14-.01.2-.13.21ZM7.88,11.25s-.09.03-.13.01c-.1-.03-.11-.12-.11-.22.01-.07.02-.15.04-.22,0-.02.03-.04.06-.05.01,0,.05,0,.05.02.05.11.09.23.13.34.01.03,0,.09-.04.11ZM7.08,11.25s-.13.05-.17.03c-.05-.02-.07-.1-.09-.16-.01-.02-.02-.05-.01-.07.02-.13.04-.26.06-.4.01,0,.02,0,.03,0,.07.13.15.26.21.4.02.05,0,.14-.03.18ZM6.28,11.26s-.1.02-.15,0c-.04-.02-.08-.07-.08-.11.02-.13.05-.25.07-.38,0,0,.01,0,.02-.01.05.13.11.26.15.39.01.03,0,.1-.02.1ZM6.35,12.51c-.12.04-.2.03-.25-.06-.05-.1,0-.17.09-.23.05.1.1.2.16.3ZM5.86,8.83c.19,0,.36,0,.53.01,0,.01,0,.03,0,.04-.04,0-.08.01-.11.01-.08,0-.17,0-.25.03-.09.04-.12,0-.17-.1ZM6.11,9.39c.05.08.08.15.12.2.05.06.07.12.05.2-.01.08-.03.14-.12.13-.08,0-.15-.1-.14-.18.02-.11.05-.22.08-.36ZM6.12,12.92s.1.04.15.06c0,.01.01.02.01.03-.04,0-.08.02-.11.01-.03-.01-.05-.05-.07-.08,0,0,.02-.01.02-.02ZM3.27,10.93c.04.09.08.19.11.28-.06,0-.1.02-.15.03q-.09-.26.04-.3ZM3.61,8.9c.24-.11.47-.06.65.13.16.17.24.38.26.6-.01,0-.03.01-.04.02-.02-.06-.05-.11-.07-.17,0-.01,0-.03,0-.04-.06.02-.14.01-.18.05-.14.13-.32.15-.48.24-.04.02-.09.05-.13.07.04.03.09.06.13.09,0,0,.01,0,.02,0,.21.04.41.12.57.28.02.01.07.01.09,0,.08-.05.1-.27.04-.35-.05-.06-.03-.11.05-.14.05.2.06.39-.01.58-.03.09-.06.18-.09.29.09-.01.14-.03.19-.03.04,0,.09,0,.1,0,.05.06.12.06.19.06.06,0,.08.03.09.09.02.2-.06.36-.24.45-.1.05-.2.08-.3.13-.2.12-.38.04-.56-.03-.16-.06-.25-.19-.36-.31-.15-.17-.27-.36-.32-.57-.06-.24-.06-.5-.08-.74,0-.02,0-.04,0-.05.03-.12.06-.25.1-.37.04-.11.09-.23.23-.26.05-.01.1,0,.14-.02ZM4.73,8.55s.05.07.05.1c0,.15.08.26.14.39.03.07.03.15.05.23.03.1-.05.14-.1.19-.13.11-.19.08-.27-.05-.08-.12-.11-.27-.2-.39-.08-.11-.2-.21-.31-.29-.13-.09-.29-.06-.45-.02.03-.12.08-.21.2-.22.02,0,.04-.02.06-.03.13-.06.25-.11.4-.09.17.02.29.11.43.19ZM4.98,7.89s0,.07-.03.09c-.07.05-.16.1-.24.15-.1-.14-.07-.22.06-.25.04,0,.09,0,.13,0,.03,0,.05.01.08.02ZM5.6,7.54s-.08.07-.12.1c-.07-.03-.14-.03-.18-.07-.03-.03.09-.13.18-.11.04,0,.08.05.12.08ZM5.74,8.45s-.01.09-.02.13c-.01.07-.16.18-.23.17-.14-.01-.29-.01-.43-.04-.05,0-.12-.06-.14-.1-.03-.07.02-.14.1-.16.05-.01.1,0,.15-.02.08-.01.16-.03.24-.05.07-.02.13-.05.2-.08.12,0,.14.03.12.14ZM5.8,9.64s.04-.07.06-.1c.01,0,.02,0,.03.01,0,.09,0,.18.01.28-.08-.02-.08-.02-.1-.19ZM5.8,9.32s.04-.07.06-.1c0,0,.02,0,.03.01,0,.06,0,.11,0,.17-.01,0-.03.01-.04.01-.02-.03-.05-.06-.05-.09ZM5.97,8.05c.05-.06.09-.04.14.01.05.06.11.13.18.17.18.12.39.14.61.14.26,0,.52,0,.78.01.35,0,.69,0,1.04.01,0,0,0,0,0,0,.07,0,.14-.02.21,0,.05.01.1.07.12.11.04.07-.04.09-.09.11-.05.02-.1.03-.15.03-.33.02-.66.03-.99.04-.31,0-.62,0-.92.02-.31,0-.62.02-.92.02-.1,0-.19-.09-.18-.18,0-.09,0-.19.04-.27.03-.08.08-.16.13-.23ZM7.35,7.35s0,.02,0,.03c-.23.04-.45.08-.68.12-.09.02-.17.05-.22.15-.02.05-.06.09-.1.12-.13.12-.29.1-.37-.05.12-.03.16-.09.13-.2-.02-.05-.05-.1-.06-.16,0-.05,0-.11,0-.17,0-.01.06-.02.09-.02.28.02.55.05.83.08.1,0,.19.03.29.06.03,0,.05.03.08.05ZM16.56,2.04s-.02.02-.02.02c-.19.03-.38.05-.57.08-.01,0-.03,0-.04.01-.09.02-.18.04-.27.07-.04.01-.08.03-.15.06-.03-.02-.08-.06-.12-.1,0,0,.01-.02.02-.03.39-.05.77-.1,1.16-.14,0,.01,0,.03,0,.04ZM15.68,2.31c.02.05.04.11.06.16-.01.01-.02.02-.03.03-.04-.02-.07-.05-.11-.07.03-.04.05-.08.08-.12ZM16.85,1.98c-.08.11-.14.12-.23,0,.08,0,.15,0,.23,0ZM17.37,1.97s-.04.02-.06.02c-.12.02-.24.03-.36.04-.01,0-.04-.02-.04-.03,0-.02.01-.05.03-.05.14-.02.28-.05.43-.02,0,.01,0,.02,0,.03ZM18.62,1.81c-.05.02-.08.04-.11.04-.13.02-.26.04-.39.05-.12.02-.25.02-.37.05-.11.02-.21.03-.31-.02.07-.09.91-.18,1.18-.12ZM19,1.75c-.09.07-.18.09-.29.04.06-.07.19-.09.29-.04ZM19.52,1.65c.16,0,.32,0,.49,0,.16,0,.32,0,.47,0,.15,0,.3,0,.45,0,.02,0,.04.02.06.03-.08.06-.3.1-.42.05-.1-.05-.14,0-.19.07-.02.03-.04.06-.06.09-.08-.04-.14-.08-.2-.12-.11-.07-.21.04-.33.01-.13-.03-.28,0-.45,0,.05-.1.1-.13.18-.14ZM35.46.64c-.05.03-.11.07-.16.1,0-.02-.02-.03-.03-.04.06-.03.11-.06.17-.09,0,.01.01.02.02.04ZM43.31,2.23c.25-.07.45.02.67.05,0,.07-.03.1-.09.06-.08-.05-.15-.04-.24-.02-.1.02-.21,0-.33-.09ZM42.28,2.1c.12,0,.22,0,.35.01-.13.11-.27.11-.35-.01ZM41.85,2.09s.08-.02.13-.02c0,0,.02.03.03.05-.05.01-.09.02-.14.03,0-.02,0-.04-.01-.06ZM40.32,2s0-.02,0-.03c.11-.01.22-.05.34.07-.13-.02-.24-.03-.34-.04ZM33.18,1.59c.3,0,.59,0,.89,0,0,0,0,.02,0,.03-.02.02-.04.05-.06.05-.28-.01-.57.02-.84-.09ZM32.77,1.61c.08-.01.16-.03.24-.04,0,.01,0,.02,0,.03-.08.06-.16.05-.25,0ZM29.39,1.54c.15-.08.31-.04.47-.02-.15.04-.3.15-.47.02ZM24.68,3c.06-.09.08-.18.02-.28,0-.01,0-.04,0-.05.03-.21-.02-.43.03-.64.03-.14.02-.19.24-.25.1-.03.14,0,.13.11-.02.11-.05.22-.07.33-.01.06-.02.12-.03.21,0,0-.05.04-.06.08-.05.18-.09.37-.14.56,0,.03-.03.06-.05.09,0,0-.06-.01-.06-.03,0-.03-.02-.08,0-.11ZM24.7,1.44c-.02-.05-.05-.11-.09-.14-.11-.07-.23-.13-.35-.17-.09-.03-.18-.05-.28-.06-.15,0-.3,0-.44,0-.15,0-.29,0-.44.01-.11,0-.23,0-.34.03-.13.02-.24-.12-.38-.05-.04.02-.1.03-.14.05-.08-.01-.16-.04-.24-.04-.23,0-.46,0-.69,0-.09,0-.2-.05-.28-.03-.22.06-.44.05-.66.04-.19,0-.39-.05-.57.03-.06.03-.11,0-.11-.08.11-.02.2-.05.3-.05.26-.02.52-.03.78-.05.43-.03.86-.06,1.29-.08.21-.01.43-.02.64-.03.26-.01.53-.03.79-.05.07,0,.13,0,.2,0,.27-.02.55-.05.82-.06.35-.01.7-.01,1.04-.02.59-.01,1.18-.02,1.77-.03.44,0,.88,0,1.32.01.34,0,.68,0,1.02,0,.23,0,.46-.02.68-.02.12,0,.25,0,.37.01.1,0,.21.03.31.03.22,0,.45,0,.67,0,.31,0,.62.01.93.02.19,0,.38,0,.56.02.12,0,.24.02.36.03.33,0,.65,0,.98.01.3,0,.61.02.91.03.12,0,.23,0,.35,0,.25.02.5.05.75.07.25.02.51.01.77.03.19,0,.39.03.58.04.17.01.34.02.5.03.06,0,.12.04.18.03.09-.01.16-.02.25.01.08.03.18.01.27.02.22.03.45.06.67.08.25.02.51.03.77.06.1,0,.19.05.28.05.26,0,.51,0,.76.05.28.05.57.02.84.12,0,0,.02,0,.02,0,.28.03.56.05.84.08,0,0,.02.02.05.06-.13.02-.26.08-.35.06-.19-.06-.38-.08-.58-.07-.17.01-.33-.03-.5-.04-.03,0-.06,0-.09,0-.18-.09-.36-.05-.53,0-.07-.03-.13-.07-.21-.07-.22-.02-.44-.04-.66-.05-.08,0-.17,0-.25,0-.09,0-.16.08-.27,0-.09-.06-.24-.03-.36-.04-.18-.01-.36-.03-.54-.03-.21,0-.41,0-.62,0-.04,0-.07,0-.11,0-.14-.01-.28-.03-.43-.04-.09,0-.17,0-.2.1,0,.03-.04.06-.07.07-.03.02-.06.02-.1.02,0-.03-.02-.06-.01-.09,0-.04.02-.08.03-.14-.07.01-.12.03-.17.02-.11,0-.22-.03-.33-.03-.1,0-.2.01-.26.1,0,0-.01,0,0,0-.03-.02-.06-.03-.09-.04,0-.03.01-.05.02-.11-.17,0-.32.03-.47,0-.3-.06-.59-.02-.89-.02-.11,0-.23.02-.34-.01-.12-.04-.23-.05-.34.02-.05.03-.11.06-.16.09-.07.04-.15.01-.19-.06-.01-.02-.02-.06-.04-.06-.16-.03-.32-.06-.48-.07-.16,0-.32,0-.47,0-.13,0-.25-.03-.38-.03-.12,0-.24.02-.36.03-.09,0-.19-.01-.28,0-.07,0-.15.08-.2-.04,0-.01-.05-.01-.07-.01-.23,0-.47.02-.7.01-.24,0-.49-.02-.73-.02-.13,0-.27,0-.4-.01-.12-.02-.22-.04-.33.03-.02.01-.06,0-.09,0-.07,0-.14-.02-.21-.02-.06,0-.12-.01-.18-.02-.07,0-.15,0-.22,0-.2,0-.4,0-.61,0-.07,0-.14,0-.21-.02-.13-.03-.24,0-.37.02-.23.03-.47,0-.71,0-.07,0-.13.02-.2.03-.06,0-.13-.03-.19-.03-.28,0-.55.02-.83.03-.23,0-.46.06-.65.19-.06.04-.1.14-.14.21.05.03.1.05.16.08,0,0,0,.01.02.04-.31.1-.61.19-.95.04.09-.02.16-.04.22-.07.02-.01.06-.06.05-.08ZM21.99,1.59s0,.03,0,.05c-.07,0-.15,0-.22,0,0-.01,0-.02,0-.04.07,0,.15-.01.22-.02ZM23.47,1.57c.06,0,.13,0,.19,0v.04c-.06,0-.13.01-.19.02v-.06ZM24,4.6c-.05.23-.11.45-.17.68-.05.19-.11.37-.18.55-.09.21-.27.33-.49.36-.15.02-.31,0-.47-.02-.22-.04-.44-.04-.66.04-.02,0-.05,0-.07,0-.13-.02-.25-.06-.38-.07-.11-.01-.22,0-.33,0-.04,0-.07-.02-.1-.03.02-.03.02-.04.03-.04.49,0,.98,0,1.47,0,.08,0,.16-.02.25-.04,0-.02,0-.04,0-.06-.08-.02-.17-.05-.25-.05-.22,0-.44,0-.66,0-.04,0-.08-.03-.11-.05-.16-.11-.1-.28-.12-.43-.03-.18,0-.36-.01-.55,0-.06-.02-.12-.02-.18,0-.13.03-.27.03-.4,0-.03-.07-.09-.09-.09-.12.01-.24.04-.35.08-.1.03-.2,0-.22-.1-.1.07-.1.07-.2-.02-.04-.03-.09-.06-.16-.1,0,.16,0,.28.02.43-.08,0-.17-.01-.27-.02,0,.04,0,.07,0,.09-.02-.02-.02-.05-.03-.07-.02-.02-.04-.04-.06-.06-.02.02-.05.04-.05.06-.01.16-.02.31-.02.47,0,.18,0,.35,0,.53,0,.05,0,.09.01.14.03.17.02.34-.25.35-.41,0-.81.02-1.22.02-.11,0-.23,0-.34,0-.1,0-.18-.09-.16-.2.01-.07.03-.13.04-.2.03-.14.05-.29.09-.43.04-.15.11-.29.14-.44.04-.2.11-.39.2-.58.06-.14.15-.16.27-.17.11,0,.23,0,.34-.03.09-.01.16-.21.12-.28-.04.03-.09.08-.13.08-.17-.02-.33-.08-.48-.18-.03.09-.07.19-.11.29-.01.03-.05.05-.07.08-.01,0-.02-.01-.03-.02.05-.12.07-.24-.03-.35.1,0,.16-.02.14-.11-.03-.11.04-.17.11-.23-.01-.04-.02-.07-.04-.1h.04s0-.09.02-.13c0-.05,0-.11.03-.14.07-.09.06-.17-.03-.24-.03-.03-.07-.05-.1-.07-.08.01-.15,0-.23,0-.17.01-.35.05-.52.06-.17.01-.35.01-.52.02-.14,0-.29.03-.43.03-.07,0-.13,0-.14.09-.04,0-.07-.01-.1-.02-.09-.01-.18-.03-.26-.03-.09,0-.18.03-.27.04-.3.03-.6.08-.87.24-.15.09-.24.24-.34.36-.04.05-.05.13-.07.19-.03.09-.04.18-.07.27-.05.16-.11.32-.16.48-.04.13-.1.25-.13.38-.07.24-.14.47-.21.71-.05.18-.12.35-.16.52-.02.06,0,.13,0,.2-.01.02-.05.05-.05.08,0,.02.04.06.07.07.13.02.27.03.4.04.13,0,.26-.01.39-.01.03,0,.06.03.09.04-.03.02-.05.05-.08.06-.07.02-.15.02-.22.03-.04,0-.07-.02-.11-.01-.11,0-.22,0-.32.03-.12.04-.31-.01-.38-.12-.08-.12-.05-.34.06-.49.02-.02.03-.06.03-.09.01-.07.02-.14.04-.21.02-.07.08-.13.09-.2.03-.19.1-.36.19-.53.05-.09.13-.17.11-.3-.01-.09.02-.2.07-.28.1-.14.13-.29.11-.45,0-.02,0-.05,0-.06.06-.07.13-.14.18-.22.03-.06.06-.16.04-.21-.09-.18.05-.3.12-.39.12-.16.32-.23.53-.25.27-.02.55-.05.82-.08.27-.03.54-.08.82-.11.33-.04.66-.09.99-.11.64-.04,1.29-.06,1.93-.08.68-.02,1.37-.03,2.05-.04.32,0,.64,0,.96,0,.25,0,.5,0,.75.02.22,0,.38.17.36.38-.02.23-.07.45-.12.68-.03.16-.08.32-.11.49-.06.28-.1.57-.16.85ZM16.06,6.73c-.09-.01-.19-.03-.28-.05-.01,0-.02-.02-.03-.03-.04-.05-.09-.1-.13-.15-.04-.04-.08-.08-.12-.13-.03-.04-.06-.08-.09-.12,0-.03-.02-.08-.04-.16.05.03.11.05.11.07,0,.08.04.08.09.07.4-.02.79-.04,1.19-.07.26-.01.52-.03.78-.05.24-.01.49.04.69-.16,0,0,.06.02.08.04.02.02.01.05.02.09.39,0,.77,0,1.16,0-.04.04-.08.08-.13.08-.15,0-.29,0-.44.01-.12,0-.25.02-.37.03-.13,0-.25.01-.38.02-.21.01-.41-.06-.64,0-.26.06-.55.01-.82.02-.05,0-.1.02-.14.03-.04,0-.07.02-.11.01-.14,0-.28-.02-.41-.01-.07,0-.14.03-.23.05,0,0-.02.04-.04.08.1.09.19.13.32.09.1-.03.2.05.22.16.01.07-.01.14-.11.18.02-.13-.06-.12-.14-.13ZM19.78,6.49c-.08.04-.14.11-.22.15-.03.01-.1-.02-.14-.05-.01-.01,0-.08.01-.1.05-.05.11-.08.16-.11.06-.04.13-.08.18-.14.02-.02-.02-.08-.04-.14.26.01.52-.06.8,0-.02.03-.03.05-.04.06-.11.05-.22.09-.33.15-.13.06-.26.12-.38.18ZM19.85,6.63s.05-.02.07-.02c0,.02.02.06,0,.07-.03.03-.06.05-.1.08,0,0-.01-.02-.02-.03.01-.03.02-.07.04-.1ZM18.47,3.97c.05.1.05.18.04.27,0,.05-.03.09-.04.13-.06.22-.12.44-.17.66-.05.21-.1.43-.14.64-.02.09-.07.12-.15.11-.12-.02-.25-.01-.35-.11-.03-.02-.09-.04-.12-.03-.2.05-.36-.07-.54-.12-.11-.03-.22-.11-.36-.06-.09.03-.2.04-.3.03-.06,0-.16-.07-.17-.12-.03-.16-.03-.32-.04-.48,0-.2,0-.39.02-.59.02-.27-.01-.54-.03-.81,0-.08.08-.21.16-.21.31-.01.62-.02.94-.03.38-.01.76-.02,1.14-.03.12,0,.24,0,.37-.01-.08.07-.16.11-.19.18-.04.08-.04.18-.05.28,0,.1-.03.22.01.3ZM16.24,5.69s.08-.02.12-.03c.32-.03.64,0,.94.1.14.05.29.1.43.15v.05c-.1.03-.2.09-.31.1-.29.03-.57.05-.86.05-.12,0-.25-.06-.35-.12-.14-.08-.12-.23.02-.3ZM15.18,6.03c-.15.05-.29.05-.44.03-.11-.02-.19-.21-.14-.3.04-.08.09-.16.11-.24.05-.17.09-.35.14-.53.03-.1.1-.2.1-.3,0-.12.11-.17.11-.29,0-.13.12-.25.11-.4,0,0,0-.02.01-.03.07-.16.14-.32.19-.48.02-.08.07-.12.14-.13.06-.01.12-.01.17-.02,0,0,0,0,0,0,.04,0,.08-.01.11,0,.06.01.14.01.14.11,0,.21.01.42.01.64,0,.36,0,.71,0,1.06,0,.17.02.34.01.52,0,.2-.23.37-.43.35-.12-.01-.24-.02-.35.02ZM21.82,7.03s.07.07.07.09c0,.03-.04.05-.06.08-.02-.03-.06-.06-.07-.09,0-.01.03-.04.06-.08ZM23.14,8.56s-.07.02-.1.04c-.25.18-.54.17-.82.2-.18.02-.36.01-.54.02,0,.53,0,1.05-.05,1.56-.04-.03-.05-.07-.06-.11,0-.08,0-.16,0-.25,0-.09-.02-.18-.02-.27,0-.03,0-.06,0-.09-.03-.24-.05-.48-.08-.71-.02-.13-.05-.25-.08-.37-.01,0-.02,0-.04,0-.03.04-.06.08-.08.12-.05.1-.13.12-.23.11-.02,0-.05,0-.08,0-.17,0-.35.02-.52.01-.11,0-.2,0-.28.09-.05.06-.14.07-.18.02-.09-.11-.21-.1-.33-.09-.24,0-.48.02-.71.02-.25,0-.49-.01-.74-.01-.18,0-.36,0-.54.01-.25,0-.5,0-.74,0-.18,0-.36.04-.55.01-.27-.04-.55-.02-.82,0-.31,0-.62.06-.93.04-.06,0-.12-.02-.17-.02-.31,0-.62.01-.93.02-.32,0-.64,0-.96.01-.27,0-.54,0-.81,0-.08,0-.14.07-.12.15.04.16.06.34.13.49.09.2.06.41.09.62,0,.03-.02.06-.04.08-.02.01-.06,0-.08-.01-.03-.02-.06-.06-.07-.09-.04-.18-.06-.36-.1-.54-.02-.1-.04-.2-.08-.3-.04-.11-.08-.21-.13-.3-.1-.19-.2-.39-.33-.56-.17-.22-.4-.37-.67-.47-.16-.06-.32-.1-.49-.16-.04-.01-.08-.05-.12-.06-.12,0-.24-.03-.35,0-.15.03-.25-.04-.34-.12-.13-.12-.28-.15-.43-.18-.27-.06-.54-.09-.81-.14-.07-.01-.12-.08-.19-.12,0-.01.01-.02.02-.03.14.01.28.03.43.03.39.01.77.02,1.16.03.4,0,.81.02,1.21.02.25,0,.51,0,.76,0,.32,0,.64.01.96.01.16,0,.32,0,.47,0,.22,0,.45.01.67.01.29,0,.58,0,.87,0,.13,0,.26.01.38.02.37,0,.73,0,1.1.02.23,0,.47.03.7.04.04,0,.09.01.13.02-.01.03-.03.04-.04.04-.23,0-.46.01-.69.02-.01,0-.03,0-.04,0-.13,0-.26.02-.39.02-.3,0-.6.01-.9.02-.12,0-.23.03-.35.03-.39-.01-.78-.04-1.18-.05-.28,0-.56.02-.84.02-.12,0-.25-.03-.37-.03-.31,0-.63.01-.94.02-.35,0-.7,0-1.06.02-.06,0-.11.03-.17.05-.02,0-.04.04-.04.06,0,.02.03.04.05.04.09.01.18.03.27.03.24,0,.48,0,.73,0,.54,0,1.08-.01,1.62-.02.08,0,.16,0,.24,0,.3,0,.6-.01.89-.02.25,0,.49-.02.74-.03.19,0,.38.01.57.02.1,0,.2-.02.3-.02.17,0,.34.01.51.01.22,0,.44,0,.66,0,.43,0,.85-.01,1.28-.02.03,0,.07-.03.1-.05,0-.02,0-.03,0-.05-.28-.03-.55-.05-.83-.08.01-.03.02-.04.04-.04.23.01.47.02.7.04.33.02.65.04.97.07.31.02.62.05.93.08.13.01.25.06.38.06.27,0,.52.1.77.18.03,0,.05.04.08.06-.09.04-.16.08-.24.12-.01,0-.03,0-.04,0-.04,0-.09,0-.13,0-.21.02-.42.04-.62.05-.27,0-.55,0-.82,0-.18,0-.37,0-.56,0-.27,0-.54,0-.81,0-.08,0-.16,0-.24,0-.1,0-.21,0-.31,0-.04,0-.07.02-.11.01-.13,0-.25-.03-.38-.03-.38,0-.77.02-1.16.04-.07,0-.14.02-.21.01-.15,0-.31-.03-.46-.03-.26,0-.51,0-.77,0-.09,0-.19.02-.28.03v.03s.07.03.11.05c0,.01-.01.03-.02.04-.05-.02-.1-.05-.15-.07-.03-.01-.06-.05-.09-.05-.37-.01-.74-.02-1.11-.02-.28,0-.55.02-.83.03-.03,0-.06.03-.09.04.02.03.04.07.07.07.06.02.07.05.08.11,0,.03.06.09.09.09.11.01.23.01.34,0,.61-.01,1.22-.02,1.83-.04.64-.01,1.28-.02,1.92-.03.31,0,.62,0,.94,0,.42,0,.84-.01,1.26-.02.19,0,.39-.02.58-.02.47,0,.95,0,1.42,0,.47,0,.94-.07,1.41.01.01,0,.02,0,.05-.02-.08-.09-.15-.16-.21-.24-.03-.04-.03-.09-.04-.14.04-.01.09-.03.14-.03.12,0,.25.01.37,0,.08,0,.15-.02.23-.03.29,0,.57,0,.86-.03.24-.03.47-.1.7-.17.07-.02.13-.09.2-.13.05-.03.11-.06.15-.1.16-.15.33-.3.43-.5,0-.02.03-.02.07-.05-.01.12-.03.22-.03.32,0,.1,0,.19-.04.29-.07.17-.09.35-.16.51-.13.3-.37.49-.65.64ZM16.24,8.15s-.04-.03-.08-.05c.03-.03.05-.08.07-.08.03,0,.05.03.08.05-.02.03-.04.06-.07.08ZM14.05,8.1c-.14.06-.33.05-.37-.02.12,0,.24,0,.37-.01v.03ZM23.33,12.32s.07,0,.11.02c0,0,0,.05,0,.07-.04-.01-.07-.02-.11-.03,0-.02,0-.04.01-.05ZM20.97,19.64s.03-.04.03-.06c.07-.26.14-.53.21-.79.02-.07.02-.14.03-.21.03-.13.06-.26.09-.39.02-.07.01-.15.04-.22.02-.06.06-.12.15-.11.08,0,.15,0,.23,0,.28,0,.55.01.83.01.18,0,.36.02.54,0,.19-.02.32.03.42.2.09.16.26.22.42.27.05.02.1.02.15.02.25-.02.5-.04.75-.05.53-.04,1.07-.07,1.61-.11.16-.01.31-.05.4.16.07.15.2.28.33.41.15.15.31.3.47.44.09.08.21.13.31.21.11.09.09.16-.04.21-.02,0-.05.01-.08.01-.17.01-.34.04-.51.04-.51.01-1.02,0-1.53.02-.47.01-.95.04-1.42.06-.33.02-.67.05-1,.06-.32.01-.64.01-.96.01-.45,0-.89,0-1.34,0,0,.01,0,.03-.01.04-.04-.02-.1-.04-.12-.07-.03-.05-.05-.12.01-.17ZM20.66,15.57c-.1-.05-.13-.12-.09-.23.01-.04.01-.08,0-.12-.01-.05-.04-.1-.06-.14-.02-.04-.02-.09-.04-.11-.11-.06-.11-.14-.06-.24-.01,0-.02,0-.04,0,0-.04-.01-.07-.02-.11.02,0,.03-.01.05-.02.06.1.11.21.17.31.08.14.06.33.21.44.01,0,.01.03.01.05.01.09.03.18.04.28.01.09.02.17.03.26-.02,0-.03,0-.05.01-.03-.09-.05-.19-.08-.28-.01-.04-.04-.08-.07-.09ZM16.58,20.4c-.21-.16-.33-.39-.46-.61-.04-.06-.08-.13-.11-.2-.04-.07-.07-.18-.14-.21-.21-.11-.27-.29-.32-.49-.02-.09,0-.21-.04-.29-.1-.17-.11-.35-.13-.54,0-.07.02-.15.03-.25.11.13.12.26.13.39.02.25.06.49.23.7.01-.13.02-.25.03-.37,0-.04.01-.08.03-.1.09-.11.09-.23.08-.36-.02-.21-.04-.42-.05-.63,0-.04.02-.08.01-.11-.05-.2.09-.38.09-.57,0-.01.02-.03.04-.07,0,.07,0,.12,0,.16,0,.14-.03.28-.01.41.03.26.07.53.11.79,0,.07.02.13.04.19.06.15.12.3.18.45.07.16.14.32.21.47.13.28.35.49.58.69.23.2.52.27.8.31.34.04.66-.09.94-.28.2-.14.37-.33.54-.52.11-.12.19-.27.26-.41.06-.12.11-.24.13-.39.02-.19.12-.38.14-.57.03-.27.13-.54.09-.81-.05-.36-.09-.72-.17-1.07-.05-.22-.15-.44-.27-.64-.1-.18-.23-.36-.37-.52-.12-.14-.27-.26-.41-.38-.03-.03-.08-.04-.12-.06-.18-.11-.37-.19-.57-.21-.16-.02-.33-.02-.49.02-.17.04-.33.13-.48.22-.3.19-.54.44-.69.77-.09.2-.19.4-.26.61-.05.14-.07.3-.11.45,0,.02-.04.04-.05.04-.02,0-.07-.02-.07-.04,0-.05,0-.11,0-.16.05-.16.1-.32.16-.47.06-.16.13-.33.21-.49.05-.1.13-.2.19-.3.03-.05.03-.11.06-.15.16-.15.31-.3.48-.42.14-.1.3-.16.45-.23.23-.11.48-.11.73-.07.3.05.53.25.78.41.21.14.33.35.49.53.14.15.22.35.32.53.12.22.19.46.25.71.05.2.07.41.09.62.03.24.04.49.07.74,0,.04.03.1.06.13.09.08.18.16.28.24.17.15.27.33.22.55-.03.17-.09.35-.15.52-.06.16-.13.3-.2.46-.03.08-.05.17-.1.24-.1.15-.22.3-.34.44-.25.3-.54.57-.9.74-.22.1-.46.15-.7.21-.24.06-.46-.03-.68-.08-.13-.03-.26-.06-.38-.11-.17-.08-.33-.18-.48-.28-.11-.08-.19-.2-.29-.28ZM18.49,13.53s-.05,0-.07,0c0-.06,0-.11,0-.17.12.04.09.11.07.17ZM19.61,18.58c.05.17-.05.31-.12.44-.04.07-.15.11-.22.17-.13.12-.25.27-.39.38-.13.11-.26.22-.42.28-.31.12-.64.15-.96.04-.17-.06-.34-.12-.49-.22-.12-.09-.21-.23-.3-.36-.17-.24-.32-.49-.39-.78-.05-.19-.09-.39-.15-.58-.03-.1.01-.17.06-.25.03.05.06.11.07.16.04.25.15.48.26.7.05.09.13.18.15.27.02.12.1.18.18.25.03.03.06.05.09.08.12.18.32.27.51.32.47.12.87-.02,1.23-.35.19-.18.28-.42.41-.64.06-.1.08-.22.11-.34.03-.11.07-.22.09-.33.04-.16.06-.32.09-.49,0-.05.03-.11.01-.13-.07-.1,0-.17.05-.25,0,.03.01.05.01.07,0,.09,0,.19,0,.29,0,.09.07.13.15.13.07,0,.09-.05.08-.11,0-.08.01-.15,0-.23,0-.08-.02-.16-.02-.24,0-.1-.02-.2-.02-.3.02,0,.04,0,.06,0,.01.04.04.08.04.12,0,.11.02.21.01.32,0,.23.01.46-.02.69-.04.27-.12.53-.18.8,0,.03-.01.07,0,.1ZM18.97,15.16c-.09-.1-.18-.2-.28-.3-.05-.05-.09-.11-.14-.14-.09-.04-.19-.05-.28-.1-.14-.08-.29-.04-.44-.03-.12,0-.24,0-.36-.01,0-.01,0-.02,0-.04.04,0,.08-.01.12-.03.35-.13.68-.02.98.14.19.1.34.28.5.42.2.17.31.4.42.62.11.23.17.49.25.73,0,.03-.01.06-.02.09-.03-.02-.07-.03-.08-.05-.02-.07.01-.17-.09-.21,0,0,.01-.01.01-.02,0-.07,0-.16-.02-.21-.07-.12-.17-.23-.26-.34.02-.04.03-.07.02-.09-.04-.08-.1-.15-.14-.23-.05-.09-.07-.11-.15-.04.13.09.16.22.11.36,0,.02,0,.05.02.07.06.15.13.29.19.44-.01,0-.03.02-.04.03-.05-.04-.11-.08-.14-.14-.06-.09-.09-.21-.16-.3-.11-.14-.23-.27-.35-.4-.07-.07-.14-.15-.22-.21-.07-.05-.04-.19-.2-.19-.12,0-.21-.19-.37-.1-.2-.1-.38.02-.55.09-.22.09-.42.23-.57.42-.16.21-.27.44-.34.69-.02.05-.05.1-.08.17-.09-.22.04-.37.09-.54.04-.12.13-.22.16-.33.05-.2.2-.32.33-.45.05-.06.15-.15.26-.05.01.01.05,0,.07,0,.39-.15.78-.16,1.15.07.09.05.18.11.27.14.1.03.21.04.34.07ZM18.67,17.85s.02-.03.02-.05c.06-.22.31-.29.47-.12.03.03.06.07.06.11,0,.1,0,.2-.04.29-.09.2-.18.41-.31.59-.15.22-.33.43-.63.46-.01,0-.02,0-.03.01-.3.13-.59.06-.86-.09-.15-.08-.26-.23-.38-.34-.03-.03-.07-.07-.08-.11-.07-.18-.15-.36-.2-.55-.06-.26-.11-.52-.15-.78-.02-.12.03-.24.04-.36.02-.25.05-.5.15-.74.05-.12.13-.24.21-.34.22-.29.49-.5.87-.51.27-.01.53.03.73.25.03.03.07.07.11.09.19.12.27.31.37.49.09.15.14.34.19.51.05.15.12.31-.05.43-.06.04-.15.04-.22.06-.13.02-.17,0-.22-.13-.02-.05-.04-.1-.07-.18-.03.08-.05.12-.07.15-.05,0-.11-.03-.12-.02-.02.04-.03.08-.03.13,0,.03.02.07.03.1.02.06.04.12.05.18,0,.03-.02.06-.03.08-.03-.02-.05-.04-.07-.06-.01-.01-.02-.03-.04-.07-.03.06-.05.1-.08.14-.02.03-.05.04-.08.06-.02-.04-.07-.08-.06-.12.01-.07.06-.13.09-.19.08-.18.17-.36.26-.57-.05-.14-.21-.13-.34-.11-.13.02-.25.08-.32.22-.08.16-.13.31-.1.49-.03,0-.05,0-.08,0-.15-.02-.3-.04-.45-.06-.22-.03-.3-.14-.29-.36,0-.13.03-.26.05-.42-.08.07-.11.15-.11.23,0,.12,0,.24-.01.36-.05.3.06.59.05.89,0,0,0,.02.01.03.05.15.11.3.17.45.02.06.06.11.09.17,0,0,.02-.01.03-.01-.05-.13-.1-.27-.15-.4-.08-.21-.02-.37.17-.41.09-.02.18,0,.27,0,.12.01.24.04.35-.09.01.04.02.06.02.08.04.14.15.24.27.3.21.11.42-.03.54-.18ZM18.58,17.73s-.03-.02-.05-.03c.02-.04.04-.08.06-.12.02.02.05.04.05.06-.01.03-.04.06-.06.1ZM18.4,17.89s-.07.03-.09.03c-.03,0-.05,0-.06,0-.04-.02-.12-.02-.1-.1.02-.07.06-.11.15-.09.03,0,.06,0,.08.02.03,0,.07.03.07.04,0,.03-.02.07-.04.09ZM18.1,16.89s-.03-.09-.06-.17c.09-.01.17-.03.24-.04,0,0,.03.07.02.09-.03.1-.12.1-.21.11ZM18.01,17.11s-.05-.03-.09-.06c.04-.03.06-.06.08-.05.02,0,.05.03.05.05,0,.02-.03.04-.04.07ZM19.34,16.35c.08.05.13.25.09.36-.07-.12-.13-.23-.09-.36ZM13.66,18.39c-.14-.17-.19-.37-.22-.58-.03-.21-.04-.42-.06-.64,0-.07-.02-.14,0-.2.06-.28.03-.57.09-.85.04-.17.06-.36.09-.53,0-.04,0-.09.02-.13.04-.14.08-.28.12-.41.06-.18.12-.36.19-.54.02-.06.08-.11.11-.16.05-.12.08-.26.15-.37.05-.08.11-.18.26-.21-.04.09-.06.14-.09.2-.11.24-.22.48-.32.72-.06.15-.12.3-.16.46-.03.13-.04.26-.06.39-.02.14-.02.29-.07.43-.05.16-.06.31,0,.46.02-.05.04-.09.04-.14.03-.37.11-.74.23-1.09,0-.02,0-.04,0-.06,0-.03,0-.06,0-.08.07-.18.17-.36.22-.55.06-.23.21-.41.32-.61.04-.08.12-.17.25-.15-.12.28-.24.54-.35.82-.11.28-.18.57-.25.86.02,0,.03.01.04.02.02-.03.04-.06.05-.09.06-.23.12-.47.19-.7.04-.13.09-.27.16-.39.09-.16.2-.32.29-.48.06-.11.12-.14.28-.12-.02.06-.04.11-.06.16-.02.06-.04.11-.06.17.06-.02.1-.05.13-.09.09-.12.19-.24.31-.33.11-.08.22-.18.29-.3.04-.06.07-.1.13-.1.04,0,.09.02.12.05.04.03.06.08.09.13.12.18.16.18.3.02.02-.02.02-.06.02-.09,0-.04-.02-.07-.02-.11,0-.09,0-.17-.11-.21-.02,0-.04-.07-.04-.09,0-.03.05-.05.08-.06.03,0,.06.02.08.04.02.01.01.05.02.07.03.21.18.29.35.17.11-.08.2-.18.35-.19.17,0,.3-.16.5-.14.19.02.38-.03.57-.03.36,0,.7.11,1,.31.21.13.41.26.61.4.07.05.12.12.09.21-.05.18.02.33.14.45.1.1.15.21.18.35-.11-.01-.18-.05-.24-.14-.08-.12-.2-.21-.31-.31-.06-.06-.16-.09-.2-.16-.09-.15-.26-.19-.39-.27-.17-.1-.37-.16-.56-.21-.28-.06-.57-.1-.84.06-.02,0-.03.02-.05.02-.18,0-.35.08-.49.18-.2.13-.41.26-.58.42-.22.21-.42.45-.56.72-.06.13-.13.25-.18.38-.04.09-.07.19-.1.28-.02.06-.06.12-.08.19-.04.13-.08.26-.1.39-.05.29-.11.58-.13.87-.02.21,0,.43.01.65,0,.08-.01.17-.02.25-.08-.15-.17-.31-.09-.48.04-.1,0-.14-.08-.18-.11-.05-.2-.13-.26-.23-.04-.06-.08-.11-.13-.16-.05-.06-.11-.1-.18-.03-.05.05-.05.18.01.23.05.04.05.08.02.12-.1.15-.1.29.04.41-.14.31-.14.33.05.53-.12.13-.09.27-.03.41.02.05.08.12.07.16-.04.14.01.26.05.38.05.14.07.29.12.43.05.15.12.3.19.45.02.05.06.1.08.15.13.22.25.45.39.67.07.11.2.19.26.3.14.23.32.42.56.55.1.05.19.14.28.22,0,0,0,.02-.01.03-.03,0-.07,0-.09-.01-.15-.09-.31-.18-.45-.29-.12-.09-.21-.2-.32-.3-.13-.14-.26-.28-.38-.42,0,0-.02-.02-.02-.03.02-.14-.1-.17-.16-.26-.06-.08-.1-.17-.15-.25-.02-.04-.02-.09-.04-.13-.11-.19-.24-.38-.25-.61,0-.04-.02-.1-.05-.12-.1-.1-.09-.21-.07-.31-.03-.03-.06-.05-.07-.08-.03-.09-.05-.19-.09-.28-.04-.11-.11-.21-.14-.31-.04-.14-.08-.29-.09-.44-.03-.28-.04-.55-.04-.83,0-.19.03-.39.04-.58,0-.06-.02-.12-.03-.18-.02,0-.04,0-.06,0,0,.08.01.15,0,.23-.01.18-.03.37-.04.55,0,.09.01.18.02.27,0,.21,0,.43.03.64.05.29.13.58.19.86.02.09.03.18.05.27,0,0-.02,0-.03.01-.04-.09-.09-.17-.13-.26-.02-.04,0-.09-.03-.13-.08-.14-.17-.27-.25-.41,0-.02-.02-.04-.02-.06-.02-.15-.03-.29-.05-.44-.02-.15-.03-.29-.04-.44,0-.12,0-.24-.01-.36-.01,0-.02,0-.03,0-.01.02-.03.05-.03.07,0,.13-.02.26,0,.38.02.19.05.38.08.57.04.2.08.41.12.61.03.14.07.28.11.42.02.08.05.15.08.23.02.05.03.09.05.14-.01,0-.03.01-.04.02-.05-.11-.11-.22-.16-.33-.04-.09-.07-.18-.1-.27-.01-.04,0-.08-.01-.11-.06-.14-.13-.27-.18-.41-.07-.18-.14-.36-.15-.56-.01-.22-.04-.45-.06-.67-.01-.17-.01-.35-.02-.52-.03.13-.06.26-.06.4,0,.11.03.23.03.34,0,.36.05.71.12,1.06.02.09.04.19.06.28.06.21.12.42.17.62.02.09.05.17.07.26-.17-.11-.17-.11-.15-.28,0-.02-.02-.04-.03-.06-.05-.08-.11-.16-.09-.25.01-.1,0-.19-.06-.27-.01-.01-.03-.03-.02-.05.02-.1-.04-.2-.09-.26ZM8.52,20.1c.05-.08.1-.16.15-.24.04-.06.09-.12.12-.19.07-.14.12-.28.19-.41.09-.19.23-.36.18-.58,0,0,0-.02.01-.03.03-.06.06-.12.09-.19.03-.07.07-.11.15-.11.37,0,.75,0,1.12.01.42,0,.83.03,1.25.04.41.01.82.02,1.23.03.13,0,.21.07.24.19.04.16.07.33.11.49.05.18.12.35.19.52.05.12.12.24.16.36.01.03,0,.1-.03.11-.08.03-.17.06-.26.07-.11,0-.22,0-.33,0-.1,0-.2-.02-.3-.02-.24,0-.48.02-.72.02-.28,0-.56,0-.84,0-.35,0-.71.02-1.06.02-.37,0-.74,0-1.11-.01-.17,0-.34.03-.52-.08ZM7.54,17.32c.17.05.36-.05.52.09-.16.09-.49.03-.52-.09ZM7.22,16.98s.06-.05.1-.06c.08,0,.17-.01.25,0,.1.01.2.04.3.06.04,0,.07.02.11.02,0-.03.01-.07,0-.1,0-.09.04-.15.11-.13.12.04.27.05.26.24,0,.01.02.03.03.04.08.06.1.13.08.23-.02.09-.09.13-.16.15-.08.02-.1-.06-.12-.12-.04-.12-.14-.2-.27-.2-.07,0-.14,0-.21,0h0c-.11,0-.22-.01-.33-.02-.03,0-.06,0-.08-.03-.03-.02-.05-.06-.07-.09ZM3.14,18.53c-.05-.1-.07-.2-.1-.3-.02-.08-.04-.16-.05-.24,0-.03.03-.08.06-.09.02,0,.07.02.09.04.02.02.03.05.04.08.06.17.11.35.17.52.04.11.1.21.14.31,0,0-.02.01-.03.02-.02-.01-.04-.04-.06-.04-.2,0-.21-.18-.27-.3ZM2.7,18.07s.04-.06.05-.1c.01,0,.02.02.03.02.06.14.11.28.16.41.06.14.11.27.17.41-.01.01-.02.02-.04.03-.06-.05-.13-.08-.16-.14-.12-.2-.21-.41-.22-.64ZM2.36,18.09s0-.11.02-.13c.04-.03.1-.02.12.04.03.06.05.13.08.19.03.09.06.18.09.27.03.1.06.19.09.29,0,0-.02,0-.03.01-.07-.09-.16-.17-.21-.27-.07-.13-.12-.28-.17-.42ZM2.31,18.34c.04.12.08.23.13.36-.16-.07-.23-.26-.13-.36ZM2.05,17.88c.12,0,.13,0,.14.32-.12-.09-.16-.18-.14-.32ZM1.45,16.37s.05-.1.07-.15c.01-.02.03-.04.04-.06,0-.1.01-.2,0-.3,0-.06-.02-.13-.05-.18-.1-.14-.08-.21.08-.26,0-.07,0-.14.02-.2.04-.1.1-.19.15-.28.12-.23.15-.47.16-.73.02-.28-.01-.57.18-.82.07-.1.16-.17.27-.18.05,0,.1.03.16.04-.01.04-.03.08-.04.12,0,.01-.01.03-.01.04-.01.15-.03.31-.03.46,0,.07.02.14.03.22.01,0,.02,0,.03,0,.01-.09.02-.19.04-.28,0-.03.06-.06.1-.08.02.03.04.05.05.08.02.03.04.07.05.11.02.05.06.1.06.16.01.19.02.38.02.57,0,.19.06.34.27.41.02,0,.05.02.06.04.07.08.16.09.26.09.11,0,.22,0,.33,0,.23,0,.46,0,.69,0,.19,0,.38-.02.57-.02.27,0,.54.02.81.03.31,0,.61,0,.92,0,.21,0,.21,0,.28.19.01.03.05.05.08.06,0,0,.04-.02.04-.04,0-.18.12-.33.15-.5.03-.18.04-.37.07-.55.01-.09.04-.19.05-.28,0-.02,0-.05,0-.08-.05.1-.09.2-.12.3-.03.12-.08.16-.2.16-.2,0-.4,0-.6,0-.15,0-.18-.01-.23-.15-.04-.03-.11-.06-.11-.1,0-.08.08-.11.15-.11.02,0,.04,0,.05,0,.08,0,.17.01.25,0,.09-.01.18-.03.28,0,.1.02.21,0,.32-.02,0-.01,0-.02,0-.03-.04-.03-.08-.06-.12-.09,0,0,0-.02.01-.03.04,0,.08,0,.12,0,.19.02.19.02.22-.17,0,0,0,0,0-.01.04-.13.06-.26.12-.38.05-.11.15-.13.27-.11.15.02.16.02.11.16-.02.06-.04.12.02.18.02.02,0,.07,0,.11,0,.05-.03.1-.03.14,0,.18,0,.36,0,.54,0,.03.02.06.03.09.03-.03.07-.06.08-.09.01-.09,0-.18,0-.26,0-.18.01-.36.03-.55,0-.1.1-.16.2-.15,0,.04-.01.07-.03.1-.06.11-.04.23.03.32.08.11.09.22.1.34.01.2.02.41.03.61,0,.11.05.18.15.21.03.01.06.02.08.03.02.01.03.04.03.06,0,.01-.04.03-.06.04-.07.04-.16.08-.22.13-.05.05-.06.13,0,.15.08-.07.15-.14.22-.19.02-.02.05-.03.08-.03.31,0,.63,0,.94-.01.2,0,.4,0,.6,0,.07,0,.15,0,.15-.11,0-.31-.02-.62-.18-.89-.14-.25-.36-.39-.67-.38-.34,0-.68,0-1.03,0-.12,0-.2-.1-.19-.21.01-.13.11-.21.23-.19.03,0,.06,0,.09,0,.3,0,.6,0,.9,0,.2,0,.39.05.56.14.27.14.45.36.55.64.09.24.18.49.16.76-.02.17.05.25.16.26.09,0,.19.01.29.01.27,0,.54,0,.8,0,.16,0,.31.03.47.02.18,0,.34.09.35.28,0,.02,0,.04.02.05.11.35.1.71.01,1.06-.05.2-.14.37-.36.43-.03,0-.06.03-.09.05-.08-.09-.19-.06-.3-.06-.34.01-.68.02-1.02.02-.37,0-.74-.01-1.11-.02-.33,0-.66-.01-.99-.02-.12,0-.25,0-.36-.03-.08-.02-.16-.08-.21-.15-.03-.04,0-.16.04-.19.11-.08.06-.17.07-.28-.04.02-.06.02-.07.03-.06.11-.15.13-.27.11-.07-.01-.16,0-.21.09-.05.08-.23.1-.28.02-.07-.1-.13-.22-.08-.35,0-.02,0-.06,0-.07-.02-.01-.06-.02-.08,0-.09.08-.16.05-.23-.02-.05-.05-.11-.06-.16.04.03.02.07.04.09.07.02.02.04.06.06.09-.03.02-.06.03-.09.05-.03.02-.06.04-.09.06-.02.02-.06.06-.07.05-.03-.02-.08-.06-.07-.08.01-.07.04-.13.07-.2.02-.06.07-.09.02-.17-.09-.15,0-.28.18-.28.1,0,.21.01.31,0,.05,0,.11-.04.17-.06-.11-.13-.53-.18-.63-.1,0,0,0,0,0,0-.03.02-.08.05-.09.04-.03-.03-.06-.08-.08-.12-.01-.03,0-.06-.02-.1-.09.04-.11.09-.11.17,0,.11-.07.18-.19.16-.02,0-.04,0-.07,0-.39,0-.78,0-1.17.01-.06,0-.12.03-.18.02-.2-.02-.4-.05-.61-.07-.3-.03-.6-.04-.9-.07-.18-.01-.36-.05-.53-.05-.13,0-.24-.02-.3-.15,0-.01-.07,0-.09,0-.04.03-.08.07-.12.11-.02.03-.06.06-.06.09,0,.12,0,.25.02.37,0,.04.04.08.08.11.01.01.06-.01.08-.03.05-.02.1-.07.16-.07.13,0,.27.02.41.03.18.01.36.02.53.04.28.03.56.07.84.11.04,0,.08,0,.12,0,.34.08.68.02,1.02.02.19,0,.37-.09.56-.04.04.01.09,0,.14,0,.05,0,.11,0,.16.02.03.01.07.06.07.09-.02.17.09.28.18.41.03.05.06.12.04.18,0,.03-.1.06-.15.06-.18,0-.36,0-.54,0-.31,0-.63-.01-.94-.02-.19,0-.37-.02-.56-.02-.19,0-.39,0-.58,0-.38-.02-.75-.04-1.13-.06-.07,0-.14-.01-.2-.03-.17-.06-.25-.25-.12-.33.1-.07.08-.14.1-.24-.03.02-.05.04-.07.04-.2.1-.31.24-.24.47,0,.02,0,.04-.01.06-.05.1-.02.15.1.16.06,0,.12,0,.19.01-.02.07-.03.13-.05.18-.03.08-.08.17-.18.16-.18-.02-.36-.04-.54-.07-.03,0-.05-.03-.07-.05.03-.02.05-.03.07-.02.14.01.29.02.44.03.05,0,.12-.02.08-.08-.04-.07-.07-.16-.17-.16-.16,0-.33-.02-.49-.04-.08-.01-.15-.05-.22-.09-.02-.01-.02-.1,0-.11.05-.03.12-.05.17-.04.15.02.29.05.43.08.05-.2.03-.25-.15-.34-.02-.01-.04-.05-.05-.08,0-.05,0-.1,0-.15,0-.02,0-.05.02-.06.01,0,.04,0,.06.01.03.01.07.03.12.05,0-.16,0-.3-.02-.44,0-.02,0-.04-.02-.06-.05-.08-.1-.15-.15-.22-.02-.02-.07-.02-.12-.03-.11,0-.21-.03-.32-.03-.04,0-.08.05-.13.08.03.04.05.09.09.11.04.02.1.02.15.03.08,0,.16.03.24.02.13-.01.13.06.11.15,0,.02-.02.05-.02.08-.1-.03-.16-.03-.18.1,0,.08-.08.05-.13.02-.09-.06-.12-.05-.15.05,0,.02-.01.05-.03.06-.11.05-.09.14-.08.25-.07-.02-.14-.05-.16-.1ZM10,14.74c.06,0,.11,0,.17,0,.02,0,.04.04.07.06-.02.02-.04.06-.07.06-.23.01-.46.03-.69.03-.22,0-.44-.01-.66-.02,0,0,0,0,0,0-.06,0-.12.02-.18,0-.04,0-.07-.05-.11-.08.04-.02.07-.06.11-.07.05,0,.11.01.16.01.4,0,.79,0,1.19-.01ZM9.7,14.47c-.13,0-.21-.05-.22-.16,0-.12.04-.18.14-.19.15-.01.26.06.26.18,0,.09-.08.17-.19.17ZM8.48,14.2s.11-.06.16-.07c.18,0,.35,0,.53.01.07,0,.15-.03.19.06-.07.02-.13.05-.2.07,0,0-.01,0-.02,0-.12.01-.25.03-.38.04,0,.01.01.02.02.03-.03.03-.05.08-.09.1-.06.03-.14.03-.18-.04-.03-.06-.06-.15-.04-.22ZM.34,16.13c.1,0,.2.02.31.03.16.01.31.02.47.03.08,0,.18,0,.15.14,0,.02.02.06.04.09.06.11.12.23.19.36-.07.02-.09.03-.12.02-.24-.02-.48-.01-.71-.06-.22-.04-.34-.22-.41-.42-.04-.11.01-.2.09-.2Z"/>
      <path class="cls-1" d="M47.69,10.86c-.19,0-.39,0-.61-.02-.11,0-.24,0-.37.02-.38.05-.77,0-1.15.02-.49.02-.98,0-1.47,0-.25,0-.5.03-.75.04-.36,0-.71,0-1.07,0-.32,0-.65.01-.97.01-.18,0-.37-.03-.55-.03-.16,0-.32.01-.48.01-.37,0-.75.01-1.12.02-.5,0-1.01,0-1.52,0-.17,0-.34.02-.51.02-.07,0-.14-.02-.21-.02-.39,0-.78,0-1.17,0-.28,0-.56.02-.83.03-.22,0-.44,0-.66,0-.09,0-.18,0-.27.02-.17.02-.28.15-.27.35,0,.24.03.48.04.73.02.6.04,1.2.07,1.8.01.32.04.64.07.95.01.14.06.17.21.17.34,0,.69,0,1.03,0,.2,0,.4-.03.6-.04.09,0,.19,0,.29,0,.35,0,.71-.02,1.07-.02.41,0,.82-.01,1.23-.02.3,0,.61,0,.91-.01.17,0,.28-.1.34-.25.1-.23.21-.46.31-.69.15-.33.32-.66.56-.93.24-.27.52-.5.91-.52.54-.02,1.07-.04,1.6-.06.32,0,.64-.01.97-.02,0,0,.02,0,.02,0,.22.04.45.05.66.12.22.07.4.22.58.38.27.25.44.57.62.88.13.21.23.43.33.65.09.2.26.26.45.26.31,0,.63-.03.95-.04.16,0,.33,0,.49-.02.19-.02.28-.12.26-.32-.03-.38-.08-.76-.11-1.14-.04-.4-.07-.8-.11-1.2-.03-.3-.05-.61-.1-.91-.02-.15-.09-.25-.26-.25ZM46.83,12.51c.03.23-.14.36-.34.39-.19.03-.43-.21-.44-.43-.01-.18.14-.38.32-.39.22-.02.46.17.47.43Z"/>
      <path class="cls-1" d="M32.57,12.39c0-.3-.01-.61-.03-.91,0-.12,0-.24-.08-.35-.08-.11-.18-.15-.3-.15-.11,0-.23,0-.34,0-.31,0-.63,0-.95,0-.13,0-.26.02-.38.02-.23,0-.46,0-.69,0-.29,0-.57.01-.86.01-.29,0-.58,0-.88,0-.24,0-.48-.01-.72,0-.3,0-.6.02-.9.03-.16,0-.31,0-.47,0-.1,0-.19.02-.22.15-.09-.13-.27-.17-.41-.11-.11.04-.17.18-.16.32.02.32.02.65.03.97,0,.31.02.62.02.93,0,.36,0,.72.01,1.08,0,.18,0,.36.02.54.03.18.09.28.31.27.18,0,.36.01.54,0,.51-.02,1.03-.04,1.54-.06.02,0,.04,0,.05,0,.42,0,.84,0,1.25-.01.17,0,.33,0,.5,0,.32,0,.64-.02.96-.03.25,0,.49,0,.74,0,.14,0,.28-.03.42-.03.23,0,.46,0,.68,0,.12,0,.26,0,.33-.14.02-.05.04-.1.04-.16,0-.41-.02-.82-.03-1.23-.01-.38-.03-.75-.04-1.13ZM29.38,12.43c-.02.07-.02.13-.05.15-.05.03-.12.03-.14-.06.05-.02.1-.04.18-.08ZM29.66,14.34c-.06-.01-.1-.02-.16-.03.03-.04.06-.08.09-.12.02.05.04.1.07.15Z"/>
      <path class="cls-1" d="M47.69,9.24c.03.24.06.47.07.71,0,.16-.11.28-.27.28-.32,0-.64,0-.96,0-.24,0-.48.02-.72.02-.26,0-.52-.02-.78-.02-.48,0-.96.01-1.44.02-.2,0-.4,0-.6,0-.17,0-.34,0-.51,0-.13,0-.25.01-.38.01-.43,0-.86,0-1.29-.02-.23,0-.47-.01-.7-.01-.26,0-.52.01-.78.01-.3,0-.61,0-.91,0-.27,0-.54,0-.81,0-.4,0-.8,0-1.2-.01-.2,0-.4,0-.6,0-.48,0-.95-.01-1.43-.01-.15,0-.31,0-.46.01-.11,0-.2-.03-.23-.15-.03-.12-.05-.24-.05-.36-.02-.27-.03-.55-.04-.82,0-.24.13-.37.37-.36.18,0,.35.01.53.01.26,0,.53,0,.79,0,.19,0,.38.01.57.02.2,0,.4,0,.6,0,.11,0,.21.02.32.01.37,0,.75-.02,1.12-.03.08,0,.16.02.24.02.18,0,.37,0,.55-.01.08,0,.16-.03.23,0,.18.06.35.03.52,0,.07,0,.15-.02.22-.02.26.01.53.04.79.05.29,0,.57,0,.86,0,.3,0,.59.02.89.03.14,0,.28.03.42.04.01,0,.02,0,.03,0,.17-.01.33-.02.5-.04.05,0,.1,0,.15-.01.23-.03.46.1.7,0,0,0,.02,0,.03,0,.14,0,.27.02.4.02.27,0,.55,0,.82,0,.12,0,.25,0,.37,0,.43,0,.85,0,1.28.01h0c.12-.01.25-.02.37-.02.18,0,.31.07.37.25.03.11.04.23.05.35Z"/>
      <path class="cls-1" d="M33.34,3.06c0,.16.03.33.04.49.01.22.01.43.02.65.02.42.03.84.05,1.25.01.26.03.53.04.79,0,.16,0,.33,0,.49.01.13.03.27.14.37.13.11.29.15.45.15.27,0,.53,0,.8,0,.31,0,.61,0,.92.01.33,0,.66.01.99.02.28,0,.56.01.85,0,.06,0,.11-.03.17-.07-.06-.03-.12-.05-.16-.09-.04-.04-.06-.11-.05-.16,0-.04.09-.08.13-.08.58,0,1.16,0,1.74.02.1,0,.19.06.28.11.01,0,.02.07,0,.07-.06.04-.11.08-.18.09-.07.02-.15,0-.22,0-.46,0-.92,0-1.37,0-.04,0-.07,0-.12.02.04.12.13.11.21.1.26,0,.53-.01.79-.01.15,0,.31,0,.46.01.21,0,.42,0,.64.01.43,0,.64-.29.59-.72-.02-.21-.03-.41-.04-.62-.01-.17-.03-.35-.04-.52,0-.12,0-.24,0-.33-.02-.15-.05-.28-.07-.41-.01-.09,0-.18-.03-.27-.04-.17-.02-.34-.03-.51,0-.1-.04-.21-.04-.31,0-.06.02-.13.04-.19,0-.02.05-.03.08-.04.03-.01.07-.01.1-.02-.02-.12-.02-.23-.07-.32-.05-.1-.12-.19-.21-.25-.16-.1-.35-.1-.55-.09-.23,0-.45-.02-.68-.03-.1,0-.2,0-.31,0-.01,0-.03,0-.04,0-.32-.03-.64-.08-.96-.1-.24-.01-.47,0-.71,0-.06,0-.12-.03-.19-.04-.04,0-.08,0-.12,0-.27-.01-.55-.03-.82-.04-.14,0-.28,0-.42,0-.2-.01-.4-.04-.6-.05-.02,0-.05,0-.07,0-.06,0-.12.02-.18.02-.13,0-.27,0-.4.01-.13,0-.25,0-.38,0-.1.01-.22.03-.3.08-.16.1-.17.28-.16.45ZM40.12,3.54c-.04-.11-.08-.21-.12-.32.05-.03.09-.1.15-.02.05.06.03.27-.03.35ZM40.17,3.63c.01.05.02.11.04.17-.11-.03-.12-.07-.04-.17ZM37.17,7.06c0-.11.03-.15.15-.15.1,0,.16.04.16.13,0,.07-.09.16-.17.15-.06-.01-.14-.02-.14-.12ZM36.76,7.07c.07-.06.12-.11.18-.13.02,0,.1.07.1.11.01.09-.09.09-.15.11-.03,0-.07-.05-.14-.09ZM36.55,4.37c0-.19.17-.39.36-.4.19,0,.38-.08.57-.04.06.01.13.01.2,0,.2-.01.41-.03.61-.04.28-.01.56-.02.85-.02.25,0,.49,0,.74-.02.11,0,.15.06.15.15.02.21.04.41.05.62.02.28.03.56.05.84.02.28.03.56.06.84.03.23-.04.34-.27.34-.33,0-.66,0-.99,0-.4,0-.8,0-1.2,0-.1,0-.18-.04-.19-.14-.01-.08-.08-.17-.02-.26,0,0-.02-.03-.03-.05-.03.06-.03.11-.04.17,0,.05,0,.11,0,.16-.01.06-.13.14-.19.11-.05-.02-.12-.07-.12-.12-.02-.18-.01-.36-.02-.53,0-.17-.01-.34-.03-.51,0-.08-.02-.16-.03-.24,0,0-.01,0-.02,0,0,.06,0,.12,0,.18,0,.17-.01.34,0,.51,0,.16.02.32.01.48,0,.06-.04.13-.09.17-.03.03-.13.03-.15,0-.06-.07-.13-.15-.14-.24-.03-.33-.05-.67-.06-1-.02-.32-.03-.65-.04-.97ZM35.58,6.95s0-.03,0-.04c.14,0,.29,0,.43.01,0,0,0,0,0,.01-.14,0-.28.01-.43.01ZM33.73,5.33c-.13-.04-.16-.18-.04-.33.04.11.08.19.1.28.02.06-.02.07-.07.05ZM33.99,6.11c-.1-.18-.12-.41-.18-.61,0-.02.01-.05.02-.11.06.12.11.2.13.28.07.26.13.52.19.78.02.08.03.17.03.26,0,.03-.03.06-.05.09-.02-.02-.05-.05-.06-.07-.01-.04-.01-.09-.02-.13-.04-.16.02-.33-.07-.5ZM33.56,5.77c0-.06.04-.11.06-.17.01,0,.03,0,.04,0,.01.03.03.06.04.08.06.18.12.36.16.54.04.16.07.32.08.48,0,.05-.04.13-.08.15-.04.02-.13,0-.16-.04-.05-.06-.1-.15-.11-.23-.02-.27-.02-.55-.02-.82Z"/>
      <path class="cls-1" d="M26.9,2.59c0,.21,0,.42,0,.63,0,.01,0,.03,0,.04-.02.03-.05.06-.07.09-.02-.03-.06-.05-.07-.08-.03-.15-.05-.31-.07-.46-.03-.23-.16-.34-.38-.31-.04,0-.08,0-.12.02-.07.03-.12.02-.16-.05-.04-.06-.18-.04-.27.03-.12.11-.16.25-.2.41-.09.36-.17.72-.26,1.08-.05.22-.09.44-.14.67-.1.45-.21.9-.3,1.36-.04.2-.09.41-.1.61,0,.07.05.16.09.23.12.24.35.23.56.24.3.02.61.02.91.02.25,0,.51,0,.76,0,.36,0,.71-.01,1.07,0,.21,0,.42.02.64.04.01,0,.02,0,.03,0,.29,0,.57,0,.86,0,.23,0,.47.01.7.02.29,0,.58-.02.86,0,.27.02.52-.02.77-.08.17-.04.25-.17.27-.32.02-.25.01-.51-.02-.77-.03-.18,0-.36-.01-.55,0-.13-.02-.26-.04-.39,0-.01-.02-.03-.02-.04.09-.17-.01-.34-.01-.5,0-.39-.03-.77-.04-1.16,0-.15.07-.28.17-.39.02-.02.04-.05.04-.07,0-.18-.18-.41-.36-.43-.19-.02-.39-.05-.58-.06-.15,0-.3.01-.44,0-.17,0-.34-.03-.5-.04-.14,0-.28-.02-.42.06-.03.02-.09-.01-.14-.02-.03,0-.05-.03-.08-.03-.29-.01-.58-.02-.88-.03-.08,0-.16.03-.24.03-.1,0-.2-.02-.29-.03-.14,0-.27-.01-.41-.02-.04,0-.1,0-.13.02-.07.07-.15.05-.22.03-.14-.05-.28-.01-.42-.01-.15,0-.31-.03-.47-.03-.18,0-.37.01-.55.02,0,.01,0,.03,0,.04.06.01.12.03.18.03.1,0,.21,0,.32,0,.1,0,.16.06.17.16ZM32.1,6.66c0-.1,0-.19,0-.28,0-.02.03-.04.04-.05.01.02.04.03.04.05,0,.04,0,.09,0,.13,0,0,0,0,0,0,0,.05,0,.1,0,.15,0,.02-.03.03-.05.04-.01,0-.04-.02-.04-.04ZM31.98,2.92c.02.13.04.26.05.39-.16-.03-.17-.16-.05-.39ZM28.35,6.45c0-.25.02-.5.02-.74,0-.12-.03-.23-.05-.37,0-.02.01-.07,0-.12,0-.06-.02-.12-.01-.19,0-.46,0-.91,0-1.37,0-.21.05-.3.25-.35.08-.02.16-.03.24-.03.15,0,.29.02.44.02.4.02.79.03,1.19.05.38.02.76.04,1.14.07.15,0,.26.09.27.23.02.31.03.63.04.94.01.34.02.68.04,1.02.02.33.04.65.07.97,0,.09,0,.16-.11.19-.08.02-.16.03-.25.04-.32.03-.64.05-.97.03-.26-.01-.52,0-.78,0-.1,0-.22.02-.28.08-.08.09-.17.13-.28.13-.27,0-.54,0-.8-.02-.06,0-.15-.08-.16-.13-.03-.15-.03-.3-.02-.45ZM27.43,4.03s-.01,0-.02,0c0-.11,0-.22-.01-.33,0,0,.01,0,.02,0,0,.11,0,.22.01.34ZM27.39,5.51s.02-.04.03-.06c.02.02.04.03.04.04,0,.07,0,.14,0,.2,0,0-.01,0-.02,0-.02-.07-.04-.13-.05-.19ZM26.7,3.43s0,.06,0,.09c0,.36,0,.72.01,1.08,0,.53.02,1.07.04,1.6,0,.17.05.33.07.49,0,.05-.04.14-.08.15-.17.03-.35.05-.52.06-.16,0-.32,0-.48-.01h0c-.1.01-.19.03-.29.01-.09-.01-.18-.05-.27-.09-.03-.01-.06-.03-.08-.05-.21-.15-.13-.37-.1-.56.03-.18.11-.36.15-.54.04-.19.07-.39.11-.59.01-.06.02-.13.04-.19.04-.15.08-.3.11-.45,0-.03,0-.07,0-.1.05-.19.1-.38.15-.57.04-.14.07-.29.12-.43.03-.08.08-.16.19-.16.23,0,.46.02.69.03.13.01.18.09.15.22ZM27.03,3.41s.08-.03.09-.02c.03.03.06.08.06.12,0,.1,0,.2,0,.3,0,.33,0,.66.01.99,0,.49.02.97.03,1.46,0,.19,0,.38,0,.57,0,.06.03.13-.05.12-.05,0-.13-.05-.15-.1-.03-.07-.03-.16-.02-.24.02-.2-.05-.4.01-.59,0,0,0,0,0-.01-.01-.19-.02-.37-.03-.56,0-.18-.02-.35-.03-.53,0-.12.01-.25,0-.37-.01-.24-.04-.49-.06-.79.02-.08.06-.22.1-.36Z"/>
      <path class="cls-1" d="M32.25,10.23c-.17.01-.34.02-.51.02-.39,0-.77,0-1.16,0-.39,0-.78,0-1.18,0-.37,0-.75,0-1.12,0-.45,0-.9,0-1.34,0-.48,0-.96.02-1.43.02-.1,0-.2,0-.26-.11-.03-.05-.06-.11-.06-.17-.02-.24-.03-.49-.04-.74,0-.13.02-.25.04-.38,0,0-.02,0-.03,0,0-.09.01-.18.02-.27,0-.09.06-.13.14-.13.31-.01.61-.03.92-.04.19,0,.38.04.58,0,.09-.01.18,0,.27,0,.22,0,.44.01.66.01.19,0,.38-.02.58-.03.16,0,.31-.02.47-.02.14,0,.28.03.42.06.08.02.15.05.23-.02.02-.02.05-.02.07-.02.26,0,.53-.03.79.02.08.02.16.04.23.04.13,0,.26-.04.38-.04.18,0,.37-.01.55,0,.25.02.5-.01.74.06.11.03.23.16.23.28,0,.07,0,.14,0,.21.02.32.04.63.06.94,0,.13-.12.28-.25.29Z"/>
      <path class="cls-1" d="M46.1,3.98c-.04-.06-.08-.13-.11-.19.01-.01.03-.02.04-.03.07.05.16.08.2.14.13.18.3.33.37.54,0,.02.02.04.03.06.13.13.17.29.21.46,0,0,0,0,0,.01.03.04.06.07.09.11,0-.05.02-.11,0-.15-.13-.28-.25-.55-.4-.82-.1-.19-.25-.35-.42-.49-.29-.23-.61-.33-.96-.38-.32-.04-.64-.1-.97-.14-.24-.03-.48-.03-.72-.06-.27-.03-.55-.06-.82-.08-.27-.02-.55-.04-.82-.05-.13,0-.27,0-.4,0-.13,0-.28.11-.28.24-.01.4-.02.81-.02,1.21,0,.33.02.65.05.98.04.41.09.82.13,1.24.01.13.02.25.04.38.03.28.2.4.44.42.39.03.78.02,1.17.03.26,0,.52.02.78.03.28,0,.56,0,.84,0,.46,0,.92.01,1.39.02.18,0,.35,0,.53,0,.08,0,.15.01.23.03.22.05.43-.12.44-.33.02-.21-.02-.41-.07-.61-.07-.25-.13-.51-.21-.76-.1-.3-.23-.6-.35-.9-.11-.26-.22-.51-.33-.77-.02-.05-.07-.09-.1-.14ZM45.48,6.18s.04,0,.06-.01c.02.04.03.08.05.12-.03,0-.06,0-.09,0,0-.04,0-.08-.01-.12ZM45.22,6.16c-.07-.01-.14-.02-.2-.05-.04-.02-.09-.07-.1-.11,0-.02.04-.09.08-.1.07-.03.08.04.09.09.01.05.04.08.1.05.04-.02.1-.02.17-.03-.01.06-.01.11-.03.15-.01.02-.07.02-.1.01ZM43.97,7.2c.42-.31.82-.3,1.22.02-.05.09-.14.13-.2.09-.06-.04-.11-.08-.17-.12-.15-.08-.4-.04-.54.06-.06.04-.14.05-.22.04-.03,0-.06-.07-.08-.1ZM44.73,6.06c-.09.06-.1-.03-.15-.06.03-.08.07-.15.1-.23.03.08.05.13.08.18.03.05.01.09-.03.12ZM44.34,6.06s-.05-.32,0-.37c0,0,.02,0,.05-.01.05.11.09.21.15.33-.07.09-.13.11-.19.05ZM42.64,6.93s0-.02,0-.03c.05.02.1.03.13.06.06.05.13.1.19.03.07-.08.02-.14-.05-.2-.03-.02-.04-.07-.06-.11.01,0,.02-.01.03-.02.03.02.06.06.09.06.05,0,.12.02.15,0,.05-.04.06-.11.01-.17-.02-.03-.06-.06-.08-.09-.02-.04-.03-.11,0-.13.05-.06.08,0,.11.04.02.03.04.05.07.07.02.02.05.03.07.03.03,0,.08-.02.09-.05.01-.03,0-.09-.02-.12-.04-.06-.08-.12-.01-.17.07-.05.09.04.14.07,0,0,0,.02.01.02.05.01.1.02.14.03,0-.05.02-.11.02-.16,0-.03-.05-.07-.05-.1,0-.03.02-.06.04-.08.03.02.05.03.07.05.02.02.03.06.05.08.04.03.09.04.14.06.02-.05.04-.11.05-.16,0-.03-.03-.06-.03-.09,0-.04.01-.08.02-.11.04.02.08.04.1.07.04.06.04.14.09.19.07.06.06.11,0,.15-.13.09-.26.16-.39.24-.27.16-.46.39-.61.66-.03.06-.07.12-.11.17-.08.08-.14.06-.19-.05-.01-.03-.02-.05-.04-.07-.06-.05-.12-.1-.18-.16ZM45.91,4.16c-.06.04-.08.1-.07.17.01.2.02.39.02.59,0,0,0,0,0,0,.03.29.06.58.09.86,0,.04,0,.12-.03.12-.04.02-.11.01-.16,0-.17-.08-.34-.18-.52-.24-.21-.07-.42-.11-.64-.15-.08-.01-.16.01-.25.01-.11,0-.22-.04-.32-.03-.34.04-.68.06-1.01.14-.24.06-.49.17-.7.3-.3.19-.57.42-.78.71-.02.02-.07.04-.1.03-.03,0-.06-.04-.07-.07-.03-.23-.05-.46-.06-.69,0-.1.01-.2,0-.3,0-.17-.02-.34-.04-.51-.02-.26-.04-.52-.06-.79,0-.12-.01-.24-.02-.36,0-.09.04-.13.14-.13.33,0,.66-.02.99-.04.04,0,.07,0,.11,0,.22,0,.43-.02.65-.03.41,0,.81-.01,1.22-.02.32,0,.64-.01.96-.03.06,0,.12-.02.16-.05.12-.09.2-.09.29.04.06.09.12.18.19.27.06.08.05.14-.02.2ZM46.08,4.36s.05,0,.06.02c.05.06.1.13.13.2.12.27.23.55.33.82.05.12.08.24.12.36.03.09.06.18.08.27.01.04.01.09.02.13.07.23.14.45.21.68.02.06,0,.14-.01.2,0,.03-.05.04-.08.07,0-.07,0-.1,0-.13-.04-.16-.08-.32-.13-.48-.05-.18-.12-.37-.17-.55-.05-.17-.1-.34-.16-.5-.04-.12-.1-.24-.14-.36-.06-.16-.18-.3-.18-.49,0-.07-.05-.15-.08-.23Z"/>
      <path class="cls-1" d="M33.12,9.12c-.03-.11-.06-.22-.07-.33-.02-.24-.02-.48-.04-.71,0-.05-.03-.1-.04-.12-.14.02-.25.03-.37.05-.08.01-.15.02-.15.14,0,.03-.07.09-.11.09-.24.02-.48.04-.73.04-.24,0-.48-.03-.72-.03-.31,0-.62.02-.93.02-.39,0-.78-.01-1.17-.02-.49,0-.98,0-1.48-.01-.15,0-.29-.02-.44-.02-.22,0-.45.01-.67.01-.35,0-.7,0-1.06-.02-.04,0-.09-.03-.13-.05.04-.02.08-.05.12-.07.01,0,.03,0,.04,0,.13-.01.25-.02.38-.03h0s-.07-.02-.1-.03c.02-.02.04-.02.05-.02.23,0,.47.01.7.02.1,0,.19.05.29.05.11,0,.22-.01.32-.02.1,0,.21-.04.29,0,.1.04.18.03.28.01.07-.01.15-.02.21,0,.07.02.12.02.19.01.12,0,.24.06.35-.04,0,0,.01,0,.02,0,.12.01.24.04.37.04.09,0,.18,0,.26,0,.15,0,.3-.02.45-.02.29,0,.58.01.87.03.09,0,.2-.07.27.04,0,0,.03,0,.05,0,.14,0,.28,0,.41,0,.02,0,.05-.01.07-.02.06-.02.11-.04.17-.06.03-.01.06-.02.1-.02v-.03c-.15,0-.26-.17-.43-.07-.03.02-.06,0-.1,0-.33,0-.67-.02-1-.03-.21,0-.42,0-.64,0-.59,0-1.18,0-1.76,0-.36,0-.71,0-1.07-.01-.39,0-.79-.02-1.18-.03-.02,0-.05-.02-.07-.03,0,0,0-.02,0-.03.02,0,.05-.03.07-.03.36.01.72-.05,1.09-.01.27.03.56,0,.83,0,.24-.01.48-.04.71.02.1.03.22.03.32.03.23,0,.45-.02.67-.03.05,0,.1.03.15.03.16,0,.33,0,.49-.01.12,0,.24,0,.36,0,.11,0,.21-.02.32-.02.12,0,.24.04.36.04.15,0,.3-.03.46-.03.09,0,.16,0,.23-.08.03-.03.09-.03.13-.02.09,0,.18.03.27.04.03.12.12.19.24.19.11,0,.22.01.33,0,.17,0,.35,0,.52-.05.12-.03.23-.09.36-.07.07.01.12-.02.11-.11,0-.37,0-.73-.02-1.1,0-.23-.03-.45-.03-.68,0-.23,0-.45-.01-.68,0-.02,0-.04.01-.06.08,1.31.16,2.62.18,3.93Z"/>
      <path class="cls-1" d="M47.44,7.84c-.04.06-.04.11-.01.17.03.08,0,.15-.09.15-.23,0-.45,0-.68,0-.13,0-.26-.02-.39-.02-.24,0-.49,0-.73,0-.18,0-.37.01-.55,0-.21,0-.43-.02-.65-.03-.27,0-.53,0-.8,0-.21,0-.42-.01-.64-.01-.24,0-.48.01-.73,0-.32,0-.64-.01-.96-.02-.29,0-.58-.01-.87-.02-.24,0-.48-.02-.71-.03-.19,0-.37,0-.56,0-.31,0-.62,0-.93-.01-.45,0-.91,0-1.36-.01-.25,0-.51-.01-.76-.02-.15,0-.31,0-.46,0-.21,0-.41,0-.62,0-.25,0-.5,0-.76,0-.15,0-.3,0-.45,0-.03,0-.06-.06-.09-.08.04-.02.08-.05.12-.05.21,0,.42.03.63.04.31,0,.61-.01.92-.01.26,0,.52.05.78,0,.02,0,.04,0,.07,0,.2.01.4.03.6.03.17,0,.33-.03.5-.03.17,0,.33.02.5.02.15,0,.29-.01.44,0,.28,0,.56.03.84.04.4,0,.79,0,1.19,0,.25,0,.5.02.75.02.38,0,.77-.01,1.15,0,.23,0,.45-.04.69,0,.26.05.53.04.8.04.18,0,.35-.02.52-.03.21,0,.43,0,.64,0,.03,0,.05,0,.08,0,.14,0,.28.01.42.01.22,0,.43,0,.65,0,.18,0,.37.02.55.01.22,0,.44-.04.66-.06.02,0,.04-.04.09-.08-.32,0-.59-.01-.87-.02-.24,0-.49-.03-.73-.03-.13,0-.27.03-.41.03-.21,0-.42-.05-.64-.06-.33-.01-.67,0-1,0-.17,0-.34,0-.51,0-.04,0-.07-.02-.1-.04,0-.02,0-.04.01-.05.2,0,.39-.02.59-.02.28,0,.56.03.83.03.33,0,.65,0,.98,0,.34,0,.68.01,1.02.02.31,0,.62,0,.93,0,.09,0,.12.04.07.11Z"/>
      <path class="cls-1" d="M47.41,8.47c-.15,0-.29,0-.44,0-.17,0-.34-.02-.51-.02-.34,0-.68,0-1.01,0-.37,0-.73-.01-1.1-.02-.22,0-.45,0-.67,0-.26,0-.53-.02-.79-.02-.28,0-.55,0-.83,0-.2,0-.4-.01-.6-.01-.24,0-.48,0-.72-.01-.2,0-.41,0-.62,0-.27,0-.55,0-.83,0-.23,0-.46-.02-.69-.03-.28,0-.56,0-.85,0-.2,0-.41.02-.61.02-.14,0-.28,0-.42,0-.27,0-.53-.02-.8-.03-.22,0-.45,0-.67,0-.19,0-.38-.03-.57-.03-.27,0-.54.03-.81.03-.07,0-.14-.02-.22-.03,0-.01,0-.03,0-.04.04-.01.07-.03.11-.04.1-.03.21-.09.31-.08.31.02.61.06.92.04.25-.02.51,0,.77,0,.05,0,.1.03.15.05.02,0,.05,0,.08,0,.03,0,.06-.03.08-.04.14,0,.28,0,.42-.02.17-.02.34.07.5-.03.02-.01.05.01.08.02.12.02.25.06.38.07.12.01.25,0,.38,0,.06,0,.12,0,.19.01.31,0,.61,0,.92,0,.25,0,.5,0,.75,0,.24,0,.48.05.71.03.4-.04.79,0,1.19.02.34.01.68.02,1.02.03.21,0,.42,0,.64-.02.25-.02.49.08.74.01.02,0,.06.02.08.02.06,0,.13.02.19.01.14-.01.28-.07.41-.04.21.06.42-.02.63.03.21.04.41-.05.63-.01.26.05.53.02.79.03.1,0,.2,0,.31,0,.13,0,.27-.01.4,0,.03,0,.06.05.09.08-.04.03-.07.09-.11.09Z"/>
      <path class="cls-1" d="M41.82,7.65c.29,0,.58.02.87.01.08,0,.11.02.15.1-.05.01-.1.03-.14.03-.17,0-.34-.04-.5-.04-.38,0-.76.05-1.14-.03-.17-.04-.35,0-.53.01-.23,0-.47,0-.7,0-.27,0-.54,0-.81-.01-.09,0-.18-.02-.27-.03-.04,0-.09-.02-.13-.02-.36,0-.71.02-1.07.02-.37,0-.73-.02-1.1-.02-.33,0-.65,0-.98-.01-.28,0-.56-.03-.84-.03-.26,0-.53.02-.79.02-.04,0-.08-.03-.12-.04.04-.03.08-.07.12-.07.09,0,.18.02.27.03.23,0,.46,0,.7,0,.28,0,.55,0,.83.01.62.02,1.23-.05,1.85.02.16.02.32.02.48.02.28,0,.56-.02.84-.02.03,0,.05,0,.08,0,.29,0,.57.02.86.03.28.01.56.03.85.04.22,0,.45,0,.67,0,.19,0,.38,0,.57,0Z"/>
      <path class="cls-1" d="M39.16,16.22s-.07,0-.11,0c-.52.02-1.03.03-1.55.05-.33,0-.66.01-.99.02-.33,0-.67,0-1,.01-.4.01-.79.03-1.19.04-.1,0-.2,0-.29-.01,0-.02,0-.03-.01-.05.05-.02.09-.07.14-.07.13-.01.27,0,.4,0,.3-.01.59-.03.89-.04.09,0,.19,0,.28,0,.16-.01.31-.03.47-.04.22,0,.44,0,.66,0,.23,0,.46-.03.68-.04.08,0,.15.02.23.02.1,0,.19-.01.28-.02.3,0,.6-.02.9-.03.12,0,.25-.03.36.03,0,.11-.05.16-.15.15Z"/>
      <path class="cls-1" d="M39.24,15.87c-.06,0-.12,0-.19,0-.45,0-.9.02-1.36.03-.46,0-.93.02-1.4.02-.57,0-1.14,0-1.71.01-.15,0-.3.03-.45.04-.04,0-.09-.02-.13-.04.04-.03.08-.06.12-.08.01,0,.04,0,.05,0,.11,0,.22,0,.33,0,.2,0,.4-.02.6-.03.22,0,.44,0,.66-.02.21,0,.42-.02.63-.03.24-.01.48-.02.71-.03.24,0,.48-.01.72-.01.15,0,.29.02.44.02.3-.01.59-.04.89-.06,0,0,0,.01,0,.02.02,0,.06-.01.08,0,.04.02.09.05.1.08,0,.06-.05.08-.11.08Z"/>
      <path class="cls-1" d="M27.58,16.41c-.39,0-.78.03-1.17.04-.29,0-.58,0-.87,0-.02,0-.04-.01-.06-.02,0-.01,0-.03,0-.04.07-.01.15-.04.22-.04.11,0,.23,0,.34,0,.16,0,.32,0,.48,0,.36,0,.72.02,1.08,0,.33-.03.65,0,.98-.04.31-.04.64-.01.96-.02.23,0,.46,0,.69-.02.1,0,.2-.02.3-.02.23,0,.46.02.69.02.15,0,.3-.01.45-.02.23,0,.46-.02.69-.02.07,0,.15.01.22.02,0,.02,0,.03,0,.05-.03.01-.07.04-.1.04-.3.01-.59.02-.89.03-.31,0-.62,0-.92.01-.25,0-.5.01-.75.01-.44,0-.87.01-1.31.02-.17,0-.35.01-.52.01-.17,0-.34-.01-.51,0Z"/>
      <path class="cls-1" d="M25.51,7.45c.23,0,.47-.01.7-.01.17,0,.34.02.51.02.39,0,.78,0,1.18,0,.23,0,.47,0,.7,0,.13,0,.27.02.4.02.05,0,.11,0,.16,0,.28,0,.56,0,.84,0,.18,0,.36.02.54.02.3,0,.59,0,.89,0,.13,0,.25,0,.38,0,.14,0,.29,0,.43,0,.03,0,.07.02.1.02,0,.01,0,.03,0,.04-.05.02-.1.05-.14.05-.28,0-.56-.01-.84-.01-.15,0-.3,0-.45,0-.25,0-.51-.02-.76-.03-.22,0-.44,0-.66,0-.38,0-.76-.02-1.14-.03-.54,0-1.07-.01-1.61-.01-.56,0-1.12,0-1.68,0-.04,0-.08-.02-.12-.04,0-.01,0-.03.01-.04.02,0,.05-.01.07-.01.16,0,.32,0,.47,0Z"/>
      <path class="cls-1" d="M31.1,16c-.69.02-1.38.04-2.07.06-.41.01-.82.02-1.23.02-.29,0-.59.02-.88.02-.22,0-.45,0-.67,0-.24,0-.48,0-.72.01-.01,0-.03,0-.04,0-.02-.02-.03-.04-.05-.06.02,0,.04-.03.06-.03.05,0,.11.02.16.02.2,0,.39-.03.59-.03.42,0,.84,0,1.26,0,.3,0,.6-.02.9-.03.37-.01.75-.02,1.12-.04.19,0,.37-.03.56-.03.52,0,1.04,0,1.57-.01.19,0,.39-.02.58-.03.1,0,.21,0,.31-.01,0,.02,0,.04.01.07-.05.01-.11.04-.16.04-.44.01-.87.02-1.31.03Z"/>
      <path class="cls-1" d="M32.16,15.66c-.68.01-1.35.02-2.03.04-.4,0-.79.02-1.19.03-.68.02-1.37.04-2.05.06-.32,0-.63,0-.95.01-.13,0-.26.01-.4.01-.02,0-.05-.03-.07-.04.02-.02.03-.05.06-.05.08-.01.16-.03.24-.03.34,0,.67,0,1.01,0,.29,0,.58-.03.87-.04.23,0,.45.01.68.01.16,0,.32-.03.48-.03.13,0,.27.01.4,0,.14,0,.28-.04.42-.04.24,0,.48,0,.73,0,.33,0,.67,0,1-.02.37-.01.74-.03,1.11-.04.03,0,.07.03.1.05,0,.02,0,.03-.01.05-.14,0-.27.01-.41.01Z"/>
      <path class="cls-1" d="M38.86,15.52c-.49.01-.98.03-1.47.04-.36,0-.72.01-1.08.02-.36,0-.73.01-1.09.02-.19,0-.39.01-.58.02-.17,0-.34.02-.52.02-.04,0-.08-.04-.11-.06.04-.03.08-.07.12-.08.05-.01.11.01.16.01.18,0,.36,0,.54,0,.11,0,.21-.03.32-.04.12,0,.23,0,.35,0,.36-.01.73-.04,1.09-.05.24,0,.48,0,.71,0,.19,0,.37,0,.56,0,.19,0,.39-.03.58-.04.21-.01.43,0,.64-.03.11-.01.21,0,.32.1-.07.02-.11.05-.16.05-.13,0-.26,0-.39,0Z"/>
      <path class="cls-1" d="M40.8,6.92c-.12-.14-.34-3.09-.25-3.24.14,1.07.2,2.14.25,3.24Z"/>
      <path class="cls-1" d="M26.55,17.4c-.09,0-.19,0-.28,0-.12,0-.23,0-.35,0-.05,0-.09,0-.14,0-.24,0-.48-.01-.72-.01-.24,0-.48.01-.73.02-.03,0-.06-.02-.09-.04,0-.01,0-.02.01-.04.06,0,.11.01.17.01.12,0,.23.01.3-.12.03-.06.06,0,.09.02.04.04.08.08.13.1.06.02.13.01.2.01.54,0,1.07,0,1.61-.01.09,0,.18,0,.27,0,0,.01,0,.03,0,.04-.05,0-.09.02-.14.02-.11,0-.23,0-.34,0Z"/>
      <path class="cls-1" d="M26.96,16.81c.3-.01.59-.02.89-.03,0,0,0,.02,0,.03-.3.01-.59.02-.89.03,0,0,0-.02,0-.03Z"/>
      <path class="cls-1" d="M31.73,16.75c-.07.01-.14.03-.22.04-.12,0-.25,0-.37-.01-.02,0-.05,0-.08,0v-.03c.22,0,.43-.01.65-.02,0,.01,0,.02,0,.03Z"/>
      <path class="cls-1" d="M28.77,17.38c-.18,0-.36,0-.54,0,0-.02,0-.04,0-.06.19,0,.38.02.57.02,0,.01-.02.03-.03.03Z"/>
      <path class="cls-1" d="M32.88,4.02s.02,0,.03,0c0,.17.01.35.02.52h-.03c0-.17-.01-.35-.02-.52Z"/>
      <path class="cls-1" d="M32.41,3.2c.01.1.03.2.04.3,0,0-.02,0-.03,0-.07-.09-.1-.19-.04-.3.01,0,.02,0,.03,0Z"/>
      <path class="cls-1" d="M28.59,16.79c.1,0,.2,0,.3-.01,0,0,0,.02,0,.03-.1,0-.2,0-.3,0,0,0,0-.02,0-.03Z"/>
      <path class="cls-1" d="M25.21,16.82s-.03.03-.05.03c-.11,0-.22,0-.32,0,0,0,0-.01,0-.02.12,0,.25,0,.37-.01Z"/>
      <path class="cls-1" d="M28.8,17.35s0,0,0,0c0,0,0,0,0,0,0,0,0,0,.01,0,0,0,0,0-.01,0h0Z"/>
      <path class="cls-1" d="M29.12,17.38c-.1,0-.21-.02-.31-.03.1,0,.21,0,.31,0,0,.01,0,.03,0,.04Z"/>
      <path class="cls-1" d="M25.49,16.81c.07,0,.15,0,.24,0-.09.09-.17.04-.24,0Z"/>
      <path class="cls-1" d="M30.4,16.8s0-.03,0-.04c.06-.01.13-.02.19-.04,0,.01,0,.03,0,.04-.06.01-.13.02-.19.04Z"/>
      <path class="cls-1" d="M26.31,16.83c-.07,0-.14,0-.21,0v-.03c.07,0,.14,0,.21,0v.02Z"/>
      <path class="cls-1" d="M8.14,15.79c.13-.02.28.01.35-.16,0-.02.04-.03.08-.05,0,.06,0,.1,0,.13-.02.1.03.16.12.17.13,0,.26.01.38.02.35.03.7.07,1.06.09.26.01.52,0,.77,0,.18,0,.35-.04.53-.03.24.01.48-.02.72.06.14.05.27.09.38.2-.05.08-.11.11-.2.11-.27,0-.54-.02-.82-.02-.18,0-.36.04-.53.05-.29.01-.59.02-.89.01-.33-.01-.66-.06-.98-.09-.2-.02-.4-.04-.6-.05-.17,0-.21-.04-.2-.21,0-.1-.04-.13-.12-.08-.05.03-.07.1-.09.16-.02.05-.01.1-.03.15,0,.03-.05.07-.07.06-.03,0-.07-.04-.08-.07-.01-.09-.02-.19-.01-.28,0-.1.13-.18.23-.19Z"/>
      <path class="cls-1" d="M2.32,14.77s.04-.05.06-.07c.02.03.06.05.05.08-.01.09-.04.18-.05.27-.03.12-.05.25-.08.37,0,.03-.03.05-.04.07-.03-.02-.07-.04-.07-.06-.02-.06-.02-.12-.03-.2,0-.02.02-.07.04-.12.04-.11.08-.21.12-.32Z"/>
      <path class="cls-1" d="M7.95,14.85s.04.03.04.04c0,.07-.02.14-.02.2-.02.13-.03.26-.05.41-.06.05-.13.02-.14-.06-.03-.2.02-.39.11-.57,0-.02.04-.03.06-.03Z"/>
      <path class="cls-1" d="M2.79,15.19c.07-.07.14-.06.23,0-.02.02-.04.04-.06.05-.09.06-.2.1-.18.24,0,0-.08.04-.1.03-.06-.05-.08-.11-.02-.18.04-.05.08-.09.13-.13Z"/>
      <path class="cls-1" d="M6.73,14.35c-.09,0-.17,0-.27,0,.09-.08.21-.08.27,0Z"/>
      <path class="cls-1" d="M23.76,4.91c-.03.11-.06.21-.11.34-.02-.03-.06-.06-.06-.08.04-.2.08-.41.13-.61.05-.22.14-.43.17-.64.02-.18.06-.34.11-.51.05-.14,0-.22-.15-.23-.56,0-1.12,0-1.69,0-.09,0-.19.08-.28.14-.08.06-.14.17-.27.08-.05-.03-.13,0-.19-.01-.03,0-.06,0-.1-.01.03-.05.05-.09.06-.11-.04-.05-.1-.09-.11-.14-.01-.1,0-.21,0-.32,0-.02-.04-.04-.07-.04-.11-.03-.23-.03-.26-.18-.08.02-.16.04-.27.07.05.1.1.18.15.28-.07-.02-.11-.04-.15-.04-.09,0-.11-.04-.1-.12,0-.03,0-.06.01-.09-.04,0-.08,0-.12,0-.06,0-.08.02-.09.08-.02.15-.02.15-.18.15.02.04.04.07.06.11-.05,0-.08,0-.12,0-.04.13-.12.18-.27.17-.07,0-.14,0-.21,0-.04,0-.09.04-.1.07,0,.08-.06.08-.12.09-.12,0-.25.02-.37.02-.03,0-.09,0-.1,0-.02-.04-.02-.09,0-.13.05-.18.1-.35.14-.53.03-.1.12-.21.19-.22.18,0,.37-.03.55-.02.17,0,.35-.05.52.03.11.05.15.03.19-.07.17.04.34.08.52.12-.02-.04-.03-.06-.05-.1.05,0,.09,0,.12,0,.14,0,.29,0,.43,0,.23,0,.47-.02.7-.03.17,0,.35,0,.52,0,.13,0,.26,0,.38.02.15.03.3.03.45,0,.22-.04.41.13.43.31.02.24.09.49-.07.72-.01.01,0,.04,0,.06.02.13-.04.25-.07.37-.02.08-.05.16-.04.23.03.16.03.3-.1.43-.01.01,0,.04-.01.06-.01.1-.02.19-.04.28Z"/>
      <path class="cls-1" d="M20.58,3.73c.02-.05.03-.1.06-.14.02-.03.08-.08.1-.07.04.01.08.06.08.1,0,.08-.02.15-.04.22-.08,0-.17-.04-.2,0-.09.08-.14.04-.22-.04.09,0,.09-.2.23-.07Z"/>
      <path class="cls-1" d="M20.36,3.08c.06-.04.11-.07.16-.09.08-.04.15-.02.22.02-.1.04-.19.07-.27.11-.07.04-.1.02-.12-.04Z"/>
      <path class="cls-1" d="M21.73,3.53s-.02.1-.03.15c-.05,0-.09-.01-.15-.02q.09-.17.18-.14Z"/>
      <path class="cls-1" d="M20.68,3.42s.04-.06.06-.06c.04,0,.07.03.11.05,0,.01,0,.02,0,.03-.05,0-.09,0-.14.01,0-.01-.01-.02-.02-.03Z"/>
      <path class="cls-1" d="M15.75,13.52c.04-.07.1-.13.16-.2.05.04.08.05.1.08.03.05.06.1.09.15.03.06-.06.23-.13.26-.09.03-.1-.04-.13-.1-.01-.02-.04-.04-.05-.06-.02-.04-.06-.1-.04-.13Z"/>
      <path class="cls-1" d="M15.59,13.77c.13.03.24.26.18.37-.02.03-.06.05-.09.05-.09,0-.23-.16-.23-.24,0-.08.08-.2.14-.19Z"/>
      <path class="cls-1" d="M15.23,14.32c.05-.11.09-.11.17-.01.02.02.04.04.07.05.08.05.05.13.03.2,0,.03-.06.07-.1.08-.07,0-.19-.12-.19-.21,0-.02.01-.06.03-.1Z"/>
      <path class="cls-1" d="M14.05,16.95c-.08-.25.04-1.33.12-1.39-.04.47-.08.93-.12,1.39Z"/>
      <path class="cls-1" d="M15.04,16.28c-.03.08-.04.19-.07.19-.08,0-.18,0-.24-.06-.03-.03-.01-.13-.01-.22.13.03.22.06.33.08Z"/>
      <path class="cls-1" d="M15.04,15.01c-.02-.05,0-.13.01-.19,0-.02.05-.03.08-.04.05,0,.16.14.15.2,0,.05-.02.09-.03.15-.1,0-.18-.04-.22-.13Z"/>
      <path class="cls-1" d="M14.62,15.26c-.06.32-.12.64-.18.96-.03-.33.02-.65.14-.96.02,0,.03,0,.05,0Z"/>
      <path class="cls-1" d="M14.87,15.43s.02-.1.04-.15c0-.01.06,0,.1,0,.15.04.13.17.13.28-.08.01-.26-.07-.27-.14Z"/>
      <path class="cls-1" d="M14.78,15.93s0-.09,0-.14c.06.01.11.04.14.03.08-.02.11.02.12.08,0,.04.02.08.02.12-.11.04-.21,0-.27-.09Z"/>
      <path class="cls-1" d="M15.08,14.06c-.04.1-.08.16-.12.25-.04-.1,0-.2.12-.25Z"/>
      <path class="cls-1" d="M4.44,10.57c.09.18-.09.22-.16.31-.06.08-.45.09-.56.02-.05-.03-.13-.06-.1-.15.15.02.3.04.44.06.18.02.24-.17.38-.23Z"/>
      <path class="cls-1" d="M40.23,17.39c.06,0,.18.11.18.17,0,.06-.15.19-.21.18-.08-.01-.12-.07-.13-.14,0-.11.08-.21.17-.22Z"/>
      <path class="cls-1" d="M8.74,11.56c-.19,0-.36.01-.53.02.07-.08.41-.1.53-.02Z"/>
      <path class="cls-1" d="M37.43,5.52c-.07-.15-.09-.44-.03-.54.06.13.07.46.03.54Z"/>
      <path class="cls-1" d="M36.99,4.86c-.02-.17-.04-.31-.05-.45.01,0,.02,0,.03,0,.06.07.08.33.02.46Z"/>
      <path class="cls-1" d="M37.38,4.35c0,.16.01.31.02.47-.03-.16-.09-.31-.02-.47Z"/>
      <path class="cls-1" d="M37.46,5.66c0,.14,0,.28.01.43-.02,0-.02,0-.03-.01-.03-.14-.06-.28-.02-.42.01,0,.02,0,.03,0Z"/>
      <path class="cls-1" d="M37,5.15c0-.08,0-.15,0-.23.08.07.05.15,0,.23Z"/>
    </g>
  </g>
</svg>