<?xml version="1.0" encoding="UTF-8"?>
<svg id="Layer_2" xmlns="http://www.w3.org/2000/svg" viewBox="0 0 55.7 21.33">
  <defs>
    <style>
      .cls-1 {
        fill: #2c489e;
      }
    </style>
  </defs>
  <g id="Layer_1-2" data-name="Layer_1">
    <g>
      <polygon class="cls-1" points="4.82 13.28 4.81 13.28 4.81 13.29 4.82 13.28"/>
      <path class="cls-1" d="M54.19,3.58c-.71-.44-1.48-.42-2.24-.31-1.07.15-2.13.41-3.21.53-.39.04-.8-.18-1.2-.29-.02,0-.04-.06-.05-.09-.17-.3-.38-.59-.52-.9-.33-.75-.95-1.03-1.72-1.08-1.12-.07-2.24-.15-3.35-.2-1.62-.08-3.24-.18-4.86-.22-1.89-.04-3.78-.03-5.67-.04-.36,0-.74,0-1.08.1-.19.06-.3.07-.43-.06-.14-.14-.47-.43-.77-.58-.05-.1-.15-.16-.32-.17-.31-.02-.62-.08-.93-.09-1.27,0-2.54-.46-3.82.07-.49.2-.81.48-.96.95-.18.55-.15.56-.75.6-.12,0-.24.01-.36.01-1.14,0-2.25.12-3.3.6-.31.14-.65.28-.89.51-.23.23-.35.58-.51.88-.2.38-.4.77-.6,1.15,0,.02-.06.01-.07.01.1.14.19.28.31.45.11-.17.18-.28.25-.38.41-.6.81-1.22,1.25-1.8.13-.17.37-.33.58-.36.81-.09,1.62-.18,2.43-.17,1.21.02,2.41.12,3.62.21.12,0,.29.11.32.21.06.18.03.39.05.58.01.11.06.21.09.31.11-.26.14-.49.18-.72.04-.21.15-.32.38-.28.91.16,1.81.31,2.72.47.09.02.24.1.24.16.02.72.03,1.44.02,2.16,0,.34-.09.67-.13,1.01-.02.21-.23.43-.4.39-.65-.13-1.17-.5-1.81-.85.15-.14.26-.28.4-.35.26-.14.34-.34.25-.62-.03-.11,0-.27.07-.37.07-.12.21-.2.31-.29.33.08.28.32.27.56,0,.08.07.16.12.24.06-.06.14-.11.17-.19.07-.16.12-.33.15-.5.06-.34.1-.68.16-1.05-.15.02-.26,0-.31.04-.26.21-.55.19-.85.18-.5,0-.8.34-.77.87.01.25-.05.43-.38.42.05-.11.09-.2.16-.35-.19.02-.34.06-.5.06-.12,0-.25-.05-.37-.08-.26-.08-.53-.27-.77-.23-1.22.17-2.43.38-3.64.61-.64.12-1.28.2-1.93.18-.18,0-.35-.06-.53-.06-.71.03-1.42.08-2.13.11-.23,0-.46-.05-.68-.02-.19.03-.35.16-.54.21-1.42.33-2.84.64-4.26.99-1.46.36-2.92.73-4.37,1.13-1.47.41-2.92.88-4.38,1.33-.21.07-.43.17-.61.3-.1.07-.17.23-.19.36,0,.06.13.2.2.2.39-.02.6.25.84.49.51.51.48,1.29-.09,1.72-.28.22-.61.37-.92.55.38.34,1.14.48,1.47.24-.15-.06-.29-.1-.32-.12.22-.29.45-.56.65-.86.41-.6.27-1.33-.32-1.74-.07-.05-.15-.1-.27-.17,1.07.13,1.28.22,2,.84.03.3.03.55.08.78.1.45.16.88-.16,1.27-.04.05-.05.12-.09.21.1,0,.17.01.24.02.11-.24.28-.33.56-.28.18.04.38.02.57,0,.26-.02.51-.07.77-.11,0-.05,0-.1,0-.14-.46,0-.93-.02-1.39-.02,0-.04,0-.07,0-.11.41-.26.98.05,1.43-.38-.37,0-.66-.02-.94-.02-.28,0-.4-.1-.34-.39.11.01.22.02.32.03.52.06,1.05.08,1.56.18.6.11,1.19.29,1.8.15,1.27-.27,2.44.09,3.63.48.12-.32-.09-.47-.31-.59-.82-.42-1.67-.69-2.61-.61-.22.02-.45.02-.68.03-.02-.04-.03-.08-.05-.12.3-.21.59-.46.92-.62.36-.18.77-.28,1.13-.45.37-.17.72-.39,1.08-.59-.02-.03-.03-.06-.05-.1-1.26.41-2.53.81-3.78,1.25-.29.1-.53.34-.8.5-.11.06-.26.12-.38.11-.43-.05-.85-.12-1.27-.21-.42-.09-.87-.09-1.13-.55-.25-.45-.69-.64-1.15-.79-.12-.04-.23-.09-.38-.15.09-.07.14-.13.2-.15.58-.19,1.15-.38,1.73-.57.58-.18,1.16-.37,1.75-.52.4-.1.81-.11,1.21-.22,1.22-.32,2.42-.68,3.64-1.01,1.14-.31,2.27-.64,3.43-.88.8-.17,1.63-.2,2.44-.28.08,0,.17.07.21.08-.2.16-.35.34-.54.41-.32.11-.66.18-.99.23-.36.05-.73.06-1.09.09-.18.02-.4-.04-.45.25-.01.06-.2.1-.32.13-.33.08-.66.12-.98.21-.17.05-.31.19-.49.24-.73.22-1.48.4-2.21.63-1.5.48-2.99.99-4.48,1.49-.26.09-.54.15-.75.31-.16.12-.21.37-.31.56.19,0,.39.06.55,0,.49-.16.96-.39,1.44-.55,1-.34,2-.67,3-.99,1.3-.42,2.59-.86,3.91-1.23,1.38-.39,2.78-.71,4.18-1.06.35-.09.7-.15,1.04-.27.33-.12.69-.21.88-.6.03,0,.08.03.14.04,1.62.28,3.26.53,4.87.85.44.09,1.08-.02,1.24.66.01.05.16.06.27.09-.04.08-.08.16-.12.25.1.02.17.03.26.05-.05.06-.08.11-.17.22.42-.1.77-.18,1.17-.27-.15-.12-.24-.18-.33-.25,0-.02.02-.04.03-.06.17.03.33.07.51.1-.02.06-.04.11-.06.17.14.03.27.06.4.08,0,.03,0,.06,0,.09-.27.11-.55.23-.82.34,0,.03.02.05.03.07.42-.1.84-.19,1.26-.29,0,.04.01.07.02.11-.49.13-.99.27-1.48.4-1.52.38-3.04.74-4.55,1.15-1.62.45-3.24.95-4.85,1.44-.11.03-.27.14-.28.24-.04.31-.2.24-.41.21-.6-.09-1.2-.21-1.8-.2-.56,0-1.13.14-1.69.22.13-.1.27-.18.42-.23,1.11-.34,2.21-.68,3.33-.99,1.66-.46,3.33-.88,4.99-1.32.2-.05.39-.16.59-.25-.01-.04-.03-.08-.04-.13-.25.04-.51.06-.76.11-.73.15-1.47.3-2.2.47-.77.18-1.54.36-2.3.58-.75.22-1.49.49-2.23.75-.58.21-1.17.42-1.73.69-.5.24-.59.47-.49,1.03.45-.28.92-.52,1.34-.18.1.25.15.44.24.62.29.6.2.89-.4,1.19-.02,0-.02.04-.04.06.02,0,.04.02.06.03-.04.09-.07.18-.11.28.4.19.79.32,1.14.06,0-.2,0-.34,0-.48.11.02.22.04.33.05.04,0,.08,0,.12,0-.12-.15-.28-.29-.35-.47-.07-.18-.07-.4-.08-.6-.01-.26-.04-.54.02-.79.03-.15.21-.37.33-.37.4,0,.8.07,1.21.12,0,.03,0,.06,0,.09-.07.04-.13.08-.2.12.44.51.43.59.05,1.06-.06.07-.11.23-.07.29.04.07.19.12.29.12.25-.01.56-.39.55-.67,0-.29-.04-.58-.07-.92.61.84.2,1.49-.32,2.13.33-.06.63-.14.93-.24.08-.03.18-.11.19-.19.1-.53.37-1.06-.01-1.65.38-.1.69-.18.99-.26,1.7-.47,3.39-.97,5.1-1.42,1.13-.3,2.28-.53,3.42-.8.68-.16,1.35-.32,2.02-.5.08-.02.13-.18.2-.27-.09-.03-.2-.11-.28-.1-.53.09-1.05.21-1.58.31-.55.1-1.09.2-1.64.3,0-.04-.02-.08-.02-.12,3.98-1.05,7.97-2.09,11.95-3.14-.03-.04-.08-.1-.12-.17,0,0,0,0-.01,0,0,0,0,0,0,0-.19.08-.37.16-.56.24-.03-.03-.06-.05-.08-.08.03-.11.04-.24.1-.34.17-.31.25-.61-.05-.9-.05-.05-.08-.19-.05-.22.23-.21.18-.46.19-.72,0-.13.23-.24.39-.39-.15-.32-.48-.41-.85-.51.31-.02.63-.03.98-.04,0,.18,0,.35,0,.52,0,.64,0,1.29,0,1.93,0,.17-.05.34-.07.52,0,0,0,0,0,0,0,0,0,0,0,0,.1.02.2.07.29.05.55-.09,1.1-.2,1.65-.29.85-.14,1.69-.27,2.54-.4.38-.06.76-.08,1.13-.15.41-.08.81-.2,1.22-.31-.92.66-1.98.86-3.03,1.08-.01-.03-.02-.06-.03-.09.27-.1.55-.2.82-.3-.77-.03-1.39.28-1.97.73.1.03.19.02.28,0,.45-.09.89-.18,1.33-.27.7-.14,1.41-.26,2.11-.44.34-.08.8-.04.88-.65.23.45.54.33.82.26,1.2-.28,2.39-.59,3.59-.86.7-.16,1.41-.29,2.12-.42.36-.07.71-.12,1.07-.17.25-.04.37.13.37.33,0,.22.06.53-.24.6-1.31.33-2.63.64-3.94.94-1.12.26-2.25.47-3.36.76-.32.08-.59.22-.96.23-.66.02-1.31.26-1.96.4-.51.11-1.01.21-1.45.51-.04.03-.14-.03-.19,0-.07.03-.13.09-.13.09-.12-.05-.23-.14-.3-.11-.13.06-.3.16-.32.28-.06.3-.28.41-.46.58,0-.17-.01-.29-.02-.41-.18.04-.37.08-.51.12-.01.17-.02.32-.03.47-.57.11-1.04.19-1.17.19-.01.13-.03.28-.06.53.24-.09,1.07-.3,1.81-.48.23-.05.46-.1.69-.16,1.37-.35,2.74-.7,4.1-1.06.15-.04.29-.18.44-.2.33-.06.68-.03,1.01-.11,2.38-.59,4.75-1.19,7.12-1.8.11-.03.21-.13.28-.23.1-.14.16-.31.26-.46.28-.44.11-.93-.33-1.2ZM24.67.3c1.16.05,2.32.09,3.48.15.33.02.65.13.97.2,0,0,0,0,0,0,0,0,0,0,0,0,0,0,0,0,0,0,.19.57.39,1.14.6,1.77-2.18-.39-4.38-.43-6.57-.61,0-.73.82-1.55,1.52-1.52ZM28.82,8.04s-.08-.16-.12-.25c.03-.02.05-.04.08-.06.14.05.28.1.42.15,0,.03,0,.06.01.09-.13.03-.27.08-.39.07ZM40.74,5.43c-.48.02-.97-.21-1.45-.35-.06-.02-.13-.22-.1-.3.03-.09.17-.21.26-.21.39.01.78.05,1.17.1.65.07,1.29.16,1.94.24.05,0,.11.03.16.04,0,.04,0,.08,0,.12-.66.13-1.32.34-1.99.36ZM45.4,4.52c-.63.19-1.18-.02-1.77-.17-1.25-.3-2.52-.51-3.78-.76-.2-.04-.4-.06-.59-.15,2.16.3,4.32.6,6.54.9-.04-.16-.03-.26-.07-.33-.33-.6-.67-1.21-1.02-1.8-.05-.09-.18-.19-.28-.2-1.51-.06-3.01.03-4.5.28-1.76.29-3.52.58-5.27.91-.87.17-1.72.45-2.58.68-.41.11-.61.46-.75.81-.37.88-.69,1.78-1.02,2.68-.14.39-.23.46-.62.33-.12-.04-.24-.08-.4-.13.8-.79,1.21-1.75,1.45-2.8.14-.63-.09-1.07-.7-1.26-1.43-.45-2.9-.71-4.39-.92-.86-.12-1.71-.27-2.57-.41,0-.03,0-.06,0-.1.36-.02.73-.07,1.09-.05.92.04,1.83.1,2.75.19.84.08,1.68.2,2.53.28.27.03.55,0,.81-.05.08-.02.18-.21.17-.32-.02-.21-.1-.42-.17-.67.34-.02.66-.04.97-.04.73,0,1.45,0,2.18.01,1.79.01,3.58,0,5.36.05,1.82.04,3.64.14,5.46.21.47.02.95.04,1.42.06.4.01.62.28.79.59.31.57.61,1.13.93,1.74-.17.04-.33.07-.49.1-.49.11-.99.18-1.47.33ZM39.22,2.9c.61-.1,1.22-.22,1.83-.28,1.04-.12,2.09-.19,3.14-.3.28-.03.48,0,.59.31.13.35.32.68.45.97-.49-.1-.96-.21-1.43-.3-.58-.12-1.17-.24-1.75-.34-.27-.04-.56-.03-.84-.01-.59.03-1.19.08-1.78.11-.07,0-.14-.05-.21-.16ZM45.94,5c-.01-.05-.02-.1-.03-.15,1.06-.21,2.13-.43,3.19-.64,0,.03.01.07.02.1-1.06.23-2.12.46-3.18.69Z"/>
      <path class="cls-1" d="M55.64,5.89c-.03-.1-.16-.25-.25-.29-.03-.07-.27-.1-1.17.02-.12.14-.23.27-.39.46.15-.02.62-.09.99-.15.1.04.2.07.23.14.09.21-.1.24-.26.28-.61.16-1.22.32-1.83.49-1.39.4-2.78.8-4.18,1.21-.07.02-.15.08-.2.14-.15.19-.28.38-.47.64-.41-.71-.95-.83-1.57-.66-.79.22-1.58.48-2.36.71-.51.15-.91.48-1.15.92-.22.39-.5.56-.91.67-.88.24-1.73.55-2.6.82-1.06.34-2.12.67-3.18,1-.54.17-1.08.35-1.63.51-.55.16-1.12.29-1.67.43-.06.01-.13.04-.16.08-.19.26-.38.12-.64.01.12-.06.18-.11.25-.13.89-.29,1.78-.58,2.67-.87.97-.32,1.93-.63,2.9-.97.1-.03.17-.16.26-.24-.02-.03-.04-.06-.06-.09-.21.03-.42.06-.63.09.21-.17.44-.24.64-.37.09-.06.1-.24.14-.36-.12-.02-.24-.08-.35-.05-.76.19-1.52.39-2.27.59-.7.18-1.41.36-2.11.54-.78.2-1.55.43-2.33.62-.74.17-.88.29-.91,1,0,.15.08.29.14.47-.16.03-.32.06-.55.1.19-.24-.46-.51.11-.66-.05-.15-.1-.29-.16-.48-.61.16-1.21.34-1.82.46-.29.06-.6.02-.9,0-.4-.04-.81-.19-1.19-.15-.54.06-1.07.27-1.6.41-.01-.12.09-.5-.06-.54-.15-.03-.21.07-.31.1.08.05.19.04.19.11,0,.07-.25.06-.37.07-.14.02-.29.04-.41.1-.23.12-.44.28-.66.4-.04.02-.15-.03-.21-.08-.29-.25-.88-.07-1,.29-.02.07-.1.16-.17.18-.27.06-.55.1-.72.13-.15.28-.23.6-.41.69-.18.09-.47.31-.72.04-.04-.04-.06-.09-.1-.15.13,0,.22,0,.32,0,0-.04.02-.08.02-.12-.11-.02-.22-.05-.33-.06-.1,0-.23.07-.29.03-.47-.3-1.2-.18-1.54.22.02.31-.01.58.07.8.09.22.3.4.51.67-.41.13-.77.24-1.17.36.49.36.95.05,1.41,0-.11.1-.22.18-.34.26-.29.2-.38.69-.15.94.09.1.3.19.42.16.35-.09.57-.48.58-.88,0-.22.04-.44.07-.66.02,0,.04.01.07.02-.04.42-.07.85-.11,1.28.15-.02.3-.03.45-.05-.59.56-1.24.88-2.05.65-.01,0-.02-.04-.03-.06.06-.04.12-.08.19-.13-.45-.47-1.02-.56-1.6-.64-1.03-.14-2.06-.27-3.08-.41-.47-.07-.6.06-.54.5-.2.1-.39.19-.52.26-.25-.08-.47-.2-.71-.24-.85-.13-1.72-.24-2.58-.35-.79-.1-1.59-.23-2.38-.28-.44-.03-.88.09-1.22-.3-.03.06-.07.11-.1.17-.07-.08-.17-.16-.21-.25-.06-.18-.09-.38-.14-.59-.05.07-.08.12-.11.16-.16-.11-.29-.25-.45-.29-.33-.09-.67-.2-1-.18-.56.02-1.11-.3-1.67-.06-.05.02-.18-.04-.22-.1-.17-.31-.52-.54-.42-.97.02-.08-.03-.23-.08-.24-.08-.03-.21,0-.29.04-.27.18-.32.47-.26.77.05.24.16.45.46.47.1,0,.19.09.28.14.13.06.26.12.4.15.2.05.4.07.61.1,0,.04-.02.08-.02.12-.09-.02-.19-.08-.26-.06-.17.07-.33.19-.49.29.11.09.22.25.34.27,1.11.14,2.22.26,3.35.39.03.25.13.35.46.34.13,0,.26-.06.38-.05.17.02.39.05.5.16.31.31.55.68.86.99.15.15.41.2.66.31-.58.29-1.29.17-1.71.81.33.04.59.07.84.12,1.99.37,3.97.76,5.97,1.11,1.28.22,2.58.38,3.88.55.35.05.73.11,1.06.03,1.75-.48,3.5-1.01,5.24-1.52.58-.17,1.12-.28,1.74-.03.54.22,1.14.19,1.73.01.85-.25,1.39-.92,1.94-1.53.45-.5.53-1.18.64-1.83.03-.19.07-.38.11-.57.04,0,.08.01.12.02-.04.35-.08.7-.12,1.07.1-.02.18-.02.26-.04,1.11-.4,2.22-.81,3.34-1.21,1.36-.48,2.71-.94,4.08-1.4,2.02-.68,4.04-1.35,6.06-2.02.37-.12.71-.19,1.04.15.47.48,1.1.62,1.74.64,1.32.03,2.62-1.06,2.89-2.36.07-.35.1-.71.15-1.1.26.47,0,.92,0,1.41,1.81-.65,3.59-1.28,5.38-1.92-.67-.15-1.33-.23-1.99-.29-.38-.04-.77-.13-1.13-.07-.68.11-1.34.32-2.02.48-.12.03-.24.01-.37.01.49-.21.98-.38,1.47-.53,1.61-.48,3.23-.94,4.85-1.42.85-.25,1.11-.62.92-1.36ZM22.56,16.28c-.15-.06-.23-.09-.32-.13-.03.02-.05.04-.08.07-.07.08-.14.2-.22.22-.45.1-.91.17-1.36.24-.24.04-.47.08-.75.13-.11-.17-.21-.51-.45-.66-.25-.15-.62-.12-.98-.17.04-.04.08-.12.14-.13,1.11-.28,2.22-.55,3.33-.84.15-.04.27-.21.41-.29.08-.05.2-.05.3-.06.1,0,.21,0,.35,0-.35-.58-.35-.58.26-.79.21-.07.43-.13.65-.19-.72.71-1.1,1.59-1.29,2.59ZM27.14,18.35c-.5.61-1.62.72-2.07.24-.42-.44-.58-1.01-.61-1.61,0-.13,0-.26,0-.4-.03,0-.07-.02-.1-.03.16-.54.28-1.1.48-1.63.09-.22.35-.38.55-.54.21-.17.42-.4.66-.43.32-.04.71-.01.98.15.29.17.57.49.67.8.38,1.22.29,2.42-.55,3.44ZM47.61,10.98c-.03-.1-.05-.17-.09-.29-.34.84-.91,1.32-1.81,1.11-.59-.14-1.19-.79-1.18-1.83,0-.31.17-.54.56-.75-.1.82-.05,1.53.76,2-.26-.32-.48-.58-.68-.83.45-.12.84-.23,1.26-.34-.2-.32-.55-.32-.88-.38-.11-.02-.21-.06-.31-.1,0,0,.02-.15.03-.15.1,0,.23,0,.3.05.49.35.86,0,1.26-.2.08-.04.16-.07.33-.15-.07.65-.12,1.19-.17,1.71.22-.07.36-.25.51-.89.08-.35.03-.73.03-1.07.35.2.41,1.13.06,2.11Z"/>
      <path class="cls-1" d="M30.55,11.2c0,.06.17.18.24.17.59-.12,1.17-.26,1.75-.41.85-.22,1.7-.47,2.55-.7,1.09-.3,2.17-.58,3.26-.89.09-.02.2-.18.2-.27-.02-.18-.07-.37-.18-.5-.04-.06-.25.02-.42.04,0-.02-.05-.11-.08-.2-.57-.01-.83.48-1.25.68-.3-.25-.63-.33-1.01-.22-.21.06-.44.09-.65.17-.5.18-1.08.15-1.51.55-.08.07-.25.06-.37.07-.25.02-.51,0-.77.04-.22.03-.43.1-.64.15-.92.22-1.14.35-1.11,1.31Z"/>
      <path class="cls-1" d="M1.11,13.26c.24.23.21.4.08.62-.28.48-.29.48.23.63.06.02.12.03.17.04.8.14,1.57.48,2.41.38.03,0,.05-.04.1-.07-.08-.07-.15-.12-.22-.18.16-.21.37-.38.43-.6.05-.19-.05-.44-.13-.65-.03-.06-.22-.08-.34-.08-.52,0-1.05.03-1.57,0-.25-.01-.55-.06-.75-.2-.75-.53-1.27-1.19-1.05-2.21-.04-.02-.08-.04-.13-.07-.09.19-.24.37-.24.57-.04.8.5,1.32,1.02,1.81Z"/>
      <path class="cls-1" d="M13.85,16.12c.89.12,1.78.24,2.67.34.26.03.53-.03.65-.35.11.05.21.09.3.13.03-.02.05-.03.08-.04-.15-.31-.32-.61-.43-.93-.11-.34-.34-.36-.62-.32-.98.15-1.93.11-2.77-.51-.35-.26-.69-.53-.55-1.06.04-.16.04-.33.06-.5-.42.45-.4,1.19.02,1.6.07.07.1.19.2.36.51.19.85.66,1.2,1.23-.34-.02-.61-.04-.88-.06.02.08.05.11.08.11Z"/>
      <path class="cls-1" d="M5.95,16.41c1.26.51,2.6.6,3.92.78.15.02.31.02.47,0,.17-.02.27-.15.12-.26-.2-.14-.25-.31-.33-.51-.06-.13-.2-.23-.3-.35-.02.02-.03.03-.05.05.07.15.14.29.23.46-.24-.05-.43-.1-.63-.13-.33-.05-.67-.06-1-.11-.63-.1-1.26-.23-1.9-.34-.06-.01-.14,0-.2.02-.38.13-.45.09-.48-.31-.02-.25-.07-.47-.4-.47-.08,0-.16-.13-.25-.21.02-.01.03-.03.05-.04.18.05.37.09.55.14.02-.04.05-.08.07-.12-.18-.16-.35-.32-.57-.52.2.03.36.07.53.08.16,0,.31-.02.47-.04-.69-.43-1.67-.45-1.96-.08.18.03.33.06.46.09-.04.2-.08.38-.12.61.18-.1.28-.16.35-.2.4.35-.18.79.18,1.13.01,0-.01.09-.03.09-.2.09-.15.26-.14.42.08-.06.17-.11.25-.16.38.36.48.35.73-.03Z"/>
      <polygon class="cls-1" points="4.97 16.6 4.96 16.61 4.96 16.61 4.97 16.61 4.97 16.6 4.97 16.6"/>
      <path class="cls-1" d="M25.32,7.23c-.09.12-.19.23-.28.35-3.45.16-6.66,1.47-10,2.17.01.04.02.09.04.13.2-.02.4-.02.59-.07,1.02-.25,2.01-.56,3.07-.71,1.64-.23,3.27-.58,4.9-.9.58-.11,1.2-.05,1.7-.46.17.25.7.25,1,0-.16,0-.31-.02-.41-.02.03-.16.11-.39.06-.42-.14-.1-.34-.18-.49.05-.04.06-.14.07-.22.1,0-.01-.01-.03-.02-.04.05-.04.09-.08.14-.12-.02-.02-.05-.04-.07-.07Z"/>
      <path class="cls-1" d="M11.65,12.75c-.92-.32-1.87-.4-2.83-.3-.04.51-.09,1.01-.1,1.52,0,.1.16.27.25.28.4.04.8.03,1.21.05.33.02.66.05.99.08,0-.06.01-.12.02-.19-.68-.1-1.35-.19-2.03-.29,0-.03,0-.06,0-.1.35,0,.71,0,1.06-.02.34-.02.7.12,1.03-.05,0-.05,0-.09,0-.14-.65-.07-1.3-.14-1.94-.2,0-.03-.01-.06-.01-.09.08-.02.16-.07.25-.07.51,0,1.03.01,1.55.01.12,0,.23-.03.35-.04,0-.05,0-.09,0-.14-.7-.06-1.41-.13-2.11-.19,0-.04,0-.07,0-.11.77-.19,1.56.15,2.32-.03Z"/>
      <path class="cls-1" d="M11.39,17.42c.09-.08.26-.15.26-.23.03-.38.03-.77,0-1.15,0-.07-.18-.14-.25-.19.04-.08.19-.22.16-.29-.04-.1-.2-.17-.32-.23-.1-.05-.22-.09-.33-.13-.68-.23-1.35-.55-2.08-.24,0,.04-.02.09-.03.14.65.12,1.3.24,1.96.35,0,.12-.01.22-.02.34.13-.06.23-.1.38-.16.1.62-.29,1.3.28,1.8Z"/>
      <path class="cls-1" d="M26.18,11.99c-.05.53,1.08.3,1.21.27l2.48-.72c.1.02.33-.07.35-.14.07-.35.09-.71.13-1.07-.05-.03-.1-.06-.14-.09,0,0-3.98,1.22-4.03,1.75Z"/>
      <path class="cls-1" d="M49.54,7.2c1.35-.37,2.7-.74,4.05-1.11,0-.03-.02-.07-.03-.1-.49-.11-3.56.74-4.03,1.21Z"/>
      <path class="cls-1" d="M2.24,12.14c.06,0,.14-.03.2-.06.32-.18.38-.48.33-.8-.05-.3-.47-.76-.68-.77-.07,0-.14.05-.29.1.45.2.39.52.32.85-.08.34-.34.42-.66.41,0,.04,0,.08-.01.12.11.03.21.08.32.1.16.03.32.05.48.06Z"/>
      <path class="cls-1" d="M40.44,9.92c-.17-.02-.3-.07-.42-.04-.37.07-.74.17-1.11.26-.26.07-.28.25-.24.47.59-.04,1.56-.4,1.77-.69Z"/>
      <path class="cls-1" d="M8.86,14.64c.8.1,1.53.18,2.33.28-.33-.44-1.84-.61-2.33-.28Z"/>
      <path class="cls-1" d="M4.51,13.8c.36.31,1.84.3,2.05.02-.67-.09-1.32-.2-2.05-.02Z"/>
      <polygon class="cls-1" points="4.82 13.28 4.81 13.29 4.82 13.29 4.82 13.28"/>
      <path class="cls-1" d="M6.51,13.46c.07,0,.13-.07.25-.14-.52-.13-1.46-.28-1.94-.03.15.08.29.21.44.21.41.02.83-.02,1.25-.04Z"/>
      <path class="cls-1" d="M4.37,11.6c-.24.31-.14.94-.8.87.34.25.68.23.9-.04.22-.27.19-.55-.11-.82Z"/>
      <path class="cls-1" d="M27.92,5.6c-.04.13-.13.26-.11.38.02.14.12.28.18.4.09-.06.21-.1.23-.17.05-.14.11-.32.06-.44-.04-.09-.24-.11-.36-.16Z"/>
      <path class="cls-1" d="M16.23,14.15s0,0,0-.01c0,0-.01,0-.02,0,0,0,0,0,0,0,0,0,.01,0,.02,0Z"/>
      <path class="cls-1" d="M16.33,14.34c.36.08.72.14,1.08.21.02-.05.03-.1.05-.15-.1-.05-.19-.13-.29-.14-.31-.04-.63-.06-.94-.09.03.07.06.17.11.18Z"/>
      <path class="cls-1" d="M31.8,8.69c-.36.01-.73.03-1.12.04,0,.09,0,.21,0,.38.42-.13.78-.24,1.14-.36,0-.02,0-.04,0-.06Z"/>
      <path class="cls-1" d="M14.68,13.03s-.06.04-.07.07c-.06.15-.13.3-.18.46-.02.07.02.16.03.24.09-.02.19,0,.26-.06.22-.17.2-.47-.05-.7Z"/>
      <path class="cls-1" d="M38.54,11.21c.27-.12.47-.21.67-.29-.01-.03-.02-.06-.04-.09-.19.11-.49-.06-.63.38Z"/>
      <path class="cls-1" d="M27.83,1.7c.08-.06.12,0,.17-.07.05-.07.03-.37.08-.42.07-.07.27.06.38.04.02,0,.06.14.06.17,0,.07.04.11-.04.16-.03.02-.26.04-.29.05,0,.04-.02.08-.02.12.19.03.4.13.55.08.09-.03.14-.31.12-.48-.01-.13-.13-.31-.23-.34-.25-.07-.52-.07-.75-.09,0,.27,0,.53-.01.78Z"/>
      <path class="cls-1" d="M24.7.58c-.11,0-.25.09-.33.17-.05.05-.1.19-.14.25-.03.05-.14-.04-.17.01-.04.07,0,.19-.05.26.1.02.28.04.41.07.24-.15.09-.66.59-.5-.03.12-.06.23-.07.35,0,.05,0,.21.04.24.04.02.14,0,.15-.03.06-.19.23-.57.16-.65-.12-.13-.39-.16-.59-.17Z"/>
      <path class="cls-1" d="M26.24.74s-.02.12-.03.16c.08.03.19.05.21.12.03.1-.04.27-.1.35-.04.05-.12.04-.19.03-.05.05-.04.12-.12.17.16.04.44.09.48.02.11-.22.14-.49.15-.74,0-.03-.26-.07-.4-.11Z"/>
      <path class="cls-1" d="M27.06.79c.05.35.08.6.11.85.05,0,.11,0,.16,0,.05-.23.12-.46.12-.69,0-.05-.24-.1-.39-.16Z"/>
      <path class="cls-1" d="M25.16,15.15c-.23.23-.32.7-.14.84.19.14.4.27.61.37.34.15.45.07.57-.27.08-.24.2-.47.3-.7.05.02.11.04.16.06-.06.28-.13.55-.19.83.03.02.05.04.08.06.16-.1.32-.19.52-.31.1.48.06.93-.26,1.33-.46.57-1.01.68-1.69.35.09.16.13.4.27.48.46.27,1.19.41,1.57-.3.18-.33.36-.67.47-1.03.2-.62.14-1.24-.31-1.72-.59-.62-1.36-.58-1.97.02Z"/>
      <path class="cls-1" d="M26.07,17.02c.03.17.07.33.1.52.17-.08.26-.12.35-.17-.06-.21-.08-.45-.45-.35Z"/>
      <path class="cls-1" d="M25.62.68s-.06.37,0,.41c.06.04.22.06.23-.06.03-.36-.02-.28-.24-.35Z"/>
    </g>
  </g>
</svg>