<?xml version="1.0" encoding="UTF-8"?>
<svg id="Layer_2" xmlns="http://www.w3.org/2000/svg" viewBox="0 0 14.99 51.95">
  <defs>
    <style>
      .cls-1 {
        fill: #2c489e;
      }
    </style>
  </defs>
  <g id="Layer_1-2" data-name="Layer_1">
    <g>
      <path class="cls-1" d="M14.98,20.83c-.08-1.19-.12-2.38-.15-3.57-.04-1.94-.06-3.88-.09-5.82-.01-.8-.04-1.6-.06-2.41-.03-1.29.14-2.6-.32-3.85-.24-.67-.51-1.36-.92-1.92-.43-.59-1.04-1.06-1.61-1.54-.63-.53-1.38-.81-2.21-.83-.3,0-.52-.08-.71-.31-.16-.19-.35-.42-.57-.5-.56-.19-1.09-.05-1.55.31-.07.05-.19.11-.26.09-.78-.34-1.73.04-1.98.89-.03.1-.12.2-.2.28-.32.32-.69.59-.95.96-.16.23-.21.59-.2.88,0,.13.28.24.4.39.1.14.15.32.22.48-.12.05-.25.15-.36.14-.43-.04-.62.19-.72.56-.02.09-.05.18-.09.26-.3.69.12,1.34.87,1.36.13,0,.25.1.39.17.12-.2.25-.41.41-.69.15.47-.16,1.04-.45,1.03-.27,0-.55-.02-.82,0-.41.04-.89.81-.74,1.17.17.43.33.88.57,1.27.16.26.09.31-.13.42-.43.21-.78.81-.66,1.18.13.38.32.74.48,1.1.24-.05.42-.09.61-.13-.05-.15-.08-.27-.12-.4.13-.02.24-.04.39-.06.03.38.06.73.09,1.13-.11-.03-.24-.07-.38-.09-.14-.02-.29-.06-.42-.02-.89.25-1.27,1.23-.79,1.96.17.26.15.44-.06.65-.37.35-.55.77-.47,1.3.15.91.65,1.63,1.25,2.28.48.52,1.03.96,1.52,1.47.15.15.23.41.24.62.04.52-.05,1.06.06,1.57.18.9.48,1.77.71,2.66.08.28.08.58.19.85.43,1.05.58,2.14.56,3.26-.01.52-.07,1.04-.06,1.56.03,1.56-.48,3.03-.81,4.53-.17.78-.43,1.53-.71,2.28-.55,1.47-1.12,2.93-1.71,4.38-.22.55-.52,1.06-.75,1.61-.59,1.38-1.11,2.79-1.49,4.25C.13,49.16.03,50.33,0,51.52c0,.23.07.33.32.33.47-.01.95,0,1.42,0,.86,0,1.71-.01,2.57-.02.09,0,.19,0,.26-.05.19-.11.37-.24.61-.39.12-.06.28-.15.43-.23.04.05.08.09.12.14-.13.18-.26.37-.45.63,1.05-.04,2.11.17,3.21-.15-.04-.25-.11-.49-.11-.74.03-1.46.04-2.91.12-4.37.07-1.34.2-2.69.3-4.03.06-.69.11-1.39.19-2.08.04-.38.13-.75.2-1.12.1-.63.2-1.26.3-1.89.03-.17.04-.33.08-.5.11-.44.26-.87.35-1.3.13-.6.19-1.22.36-1.8.27-.91.62-1.79.92-2.69.33-.96.62-1.93.98-2.87.38-1,.81-1.98,1.24-2.97.32-.75.64-1.5,1.02-2.21.4-.75.59-1.52.54-2.37ZM.99,49.22s-.1-.02-.15-.02c.05-.34.11-.68.16-1.01.04,0,.09.01.13.02-.05.34-.1.68-.15,1.02ZM1.56,48.94s-.05,0-.08,0v-1.15s.05,0,.08,0v1.14ZM12.85,5.36c.01-.05.17-.07.27-.1.04.14.08.27.12.41-.03,0-.05,0-.08.01-.04-.06-.08-.12-.18-.26-.04.28-.06.47-.08.66-.04,0-.08,0-.12,0,.02-.24.03-.48.07-.71ZM13.2,6.12v3.13s-.05,0-.07,0v-3.13s.05,0,.07,0ZM12.93,6.28v6.29s-.06,0-.09,0v-6.29s.06,0,.09,0ZM12.43,4.04c.07,0,.14.02.21.03-.02.16-.05.31-.07.47-.07-.02-.19-.05-.19-.06,0-.15.04-.29.06-.43ZM8.23,17.08c-.31-.31-.62-.61-.92-.93-.12-.12-.12-.91,0-1.03.16-.15.34-.25.56-.07.22.18.57.2.68.53.01.03.07.06.07.09.08.93.87,1.4,1.37,2.05.52.68,1.12,1.31,1.71,1.94.21.23.48.42.75.66-.56.36-.59.35-1.02-.08-1.06-1.06-2.13-2.11-3.2-3.17ZM10.84,21.24v2.73s-.06,0-.09,0v-2.73s.06,0,.09,0ZM8.16,19.34c-.67-.68-1.35-1.37-2.01-2.07-.1-.1-.09-.31-.13-.46.15.06.33.09.43.19.72.71,1.42,1.45,2.15,2.15.14.14.4.16.63.24-.09.05-.17.1-.25.15-.01.04-.03.09-.04.13.2.09.43.14.6.27.25.19.47.43.7.66.05.05.06.14.09.23-.3.38-.54.15-.76-.06-.48-.47-.95-.94-1.42-1.42ZM9.09,21.57v1.17s-.05,0-.07,0v-1.17s.05,0,.07,0ZM8.64,22.1v1.13s-.06,0-.09,0v-1.12s.06,0,.09,0ZM6.82,13.91c.11.11-.01.47-.03.76-.38-.13-.73,0-1.06-.32-.22-.22-.16-.45-.21-.62-.14-.43.18-.72.67-.74.08,0,.16,0,.23-.02.23-.04.34.07.29.28-.05.24-.12.42.12.65ZM5.99,15.28c.07.12.15.25.24.42.12-.1.23-.19.38-.32v1.07c-.17-.16-.26-.24-.44-.4.15.51-.2.55-.44.7-.03-.1-.04-.21-.09-.29-.48-.7-.44-.86.35-1.18ZM10.29,23.06s.05,0,.08,0v1.11s-.05,0-.08,0v-1.11ZM7.48,6.71c0,.11-.03.23-.05.43-.41-.39-.73-.68-1.03-.99-.35-.36-.35-.75.04-1.19.04.1.08.17.09.25,0,.07-.01.15.06.24.02-.15.04-.31.08-.57.2.39.34.67.48.94.13-.02.26-.03.44-.06-.05.21-.1.36-.12.51-.02.14.01.29.01.44ZM9.77,12.18c.63.51,1.17,1.14,1.75,1.73.19.19.38.39.55.6.06.08.05.21.07.32-.1,0-.21.04-.3.01-.11-.03-.21-.11-.3-.19-.44-.4-.89-.81-1.32-1.23-.33-.32-.61-.69-.97-.98-.34-.27-.72-.5-1.12-.69-.25-.12-.43-.39-.32-.66.03-.08.04-.16.09-.33-.17.15-.26.23-.35.31-.25-.35-.25-.4.06-.65-.05-.09-.1-.19-.17-.35.2-.02.36-.04.55-.06.03.15.05.28.1.51.14-.2.24-.34.33-.47,1.07,1.15,2.15,2.31,3.22,3.47-.03.04-.07.07-.1.11-.41-.42-.82-.83-1.22-1.26-.43-.45-.84-.91-1.29-1.4-.13.05-.32.13-.51.21.72-.06.83.67,1.24,1.01ZM10.75,16.26s0,0,0,0c-.26.13-.4-.06-.55-.22-.52-.55-1.03-1.11-1.58-1.63-.12-.11-.37-.11-.56-.12-.39-.03-.62-.24-.58-.62.12.01.24.03.37.04.02-.02.03-.05.05-.07-.1-.08-.19-.16-.28-.23.03-.08.09-.16.1-.25.03-.33.26-.53.58-.49.47.06.61.22.53.62-.04.22,0,.33.19.49.35.29.63.66.94,1,.09.1.2.17.29.27.07.08.11.17.16.26-.03.02-.06.04-.09.06-.42-.46-.85-.92-1.27-1.38-.04.01-.07.02-.11.03.03.11.04.24.1.31.43.47.87.93,1.3,1.4.15.16.26.35.4.52,0,0,0,0,0,0,0,0,0,0,0,0,.43.45.87.89,1.3,1.34-.02.03-.05.07-.07.1-.11-.05-.26-.07-.34-.16-.32-.39-.62-.79-.93-1.19-.01-.02.02-.06.03-.1,0,0,0,0,0,0ZM6.27,7.53s.14.18.21.28c.03.05.04.11.06.17.03,0,.06,0,.1,0,0-.06,0-.12.03-.16.06-.1.13-.2.19-.29.08.08.19.14.25.23.23.34.08.69-.01,1.02-.08.29-.13.52.23.7-.96-.02-1.58-.76-1.45-1.64.02-.12.25-.22.39-.29ZM12.09,14.21c-.1-.16-.25-.28-.38-.42.01-.01.03-.02.04-.03.28.14.56.29.86.44-.15.22-.3.35-.52.01ZM12.06,11.79s-.04.07-.07.1c-.1-.03-.22-.04-.29-.1-.81-.72-1.6-1.47-2.43-2.17-.23-.19-.55-.28-.85-.38-.41-.14-.78-.57-.83-1.01-.03-.19-.1-.38-.12-.57-.02-.22.1-.3.33-.35.62-.13,1.02.04,1.21.68.06.2.29.34.48.56-.18.04-.28.06-.46.11,1.04,1.08,2.04,2.11,3.03,3.14ZM11.46,8.96c-.15-.06-.33-.09-.43-.19-.79-.77-1.41-1.71-2.42-2.26-.27-.14-.61-.36-.55-.81.02-.16-.14-.34-.15-.51,0-.19.08-.38.13-.56.44.04.78.11.92.52,0,0,0,0,.01,0,0,0,0,0,0,.01.4.03.31.31.29.59-.41-.06-.24-.38-.29-.59,0,0,0,0-.01,0,0,0,0,0,0,0-.1.06-.21.13-.41.24.34.41.63.8.95,1.16.6.67,1.22,1.31,1.82,1.98.09.1.1.29.14.44ZM8.93,1.78c.19.24.39.49.58.73-.04.03-.08.07-.12.1-.19-.24-.39-.48-.58-.72.04-.03.09-.07.13-.1ZM8.08,1.05c.08-.01.2-.01.25.04.13.13.23.29.35.43-.02.02-.04.04-.07.06-.15-.07-.3-.14-.44-.23-.07-.04-.14-.1-.18-.16-.01-.02.05-.13.09-.14ZM7.44,1.98c.08.14.16.28.25.44.1-.09.2-.24.33-.28.25-.08.8.31.74.55-.19.89.48,1.31.93,1.85.39.48.79.96,1.18,1.43-.04.03-.08.06-.11.1-.28-.31-.56-.63-.84-.94-.22-.25-.44-.52-.68-.75-.28-.27-.6-.45-1.03-.35-.13.03-.35-.04-.45-.15-.35-.38-.75-.75-.7-1.35,0-.06-.02-.12-.03-.14.13-.14.24-.26.39-.43ZM6,2.41c.58.11.94.7.75,1.29,0,.03-.02.05-.03.07-.13.18-.02.63-.36.54-.25-.06-.46-.37-.66-.6-.19-.22,0-.38.14-.53.01-.01,0-.05,0-.12h-.39c-.11-.65-.01-.76.56-.65ZM4.83,5.72c.14.2.17.52.5.26.09-.07.38.04.52.15.05.04-.06.29-.08.45-.02.15-.02.3-.04.45-.67.06-1.13-.54-.89-1.31ZM4.72,5.39q.14-.19.79-.23c.07.16.15.34.23.51-.05.04-.11.08-.16.12-.07-.14-.13-.27-.24-.48-.1.21-.14.3-.19.39-.14-.1-.28-.19-.44-.3ZM4.91,3.21c.02.07.05.15.07.22-.18.04-.36.09-.54.13-.02-.05-.04-.1-.05-.15.17-.07.35-.14.52-.2ZM3.83,6.32c-.07-.2-.14-.4-.25-.68.28.07.45.11.61.15-.13.19-.23.34-.36.53ZM4.13,3.92c.42-.09.72-.16,1.03-.22.04.03.07.06.11.09-.13.26-.26.53-.4.79-.02.04-.17.06-.2.04-.17-.2-.32-.41-.54-.69ZM4.31,7.84s.05-.09.07-.09c.3.04.6.07.89.16.08.03.11.26.14.4.02.06-.03.17,0,.19.59.33,0,.91.32,1.29-.03.05-.06.09-.1.14-.16-.07-.33-.11-.46-.21-.22-.16-.41-.36-.61-.55-.24-.23-.38-1.04-.23-1.33ZM4.54,10.66c.04.15.08.3.12.45.12-.16.23-.32.35-.49.07.11.16.24.32.48.13-.22.31-.39.32-.56.03-.39.25-.35.53-.33-.02.14-.03.26-.03.3.3.05.57.09.83.13.09.48.13.89-.14,1.26-.03.05.02.16.04.24.02.07.04.13.06.2,0,0,0,0,.01,0,0,0,0,.01-.01.02,0,.01-.01.02,0,0,0,0,0,0,0,0,0,0,0,0,0-.01-.28-.07-.53-.1-.77-.18-.31-.11-.54-.34-.53-.69,0-.26-.11-.36-.37-.38-.04.3-.04.6-.12.88-.11.4-.39.49-.77.3-.48-.24-.43-.7-.45-1.11-.02-.46.15-.58.62-.51ZM3.92,13.43c.04-.14.41-.25.61-.23.18.02.33.25.5.38-.03.04-.05.09-.08.13-.11.03-.21.06-.32.09,0,.05,0,.1,0,.1.46.07.47.38.43.75-.01.12.08.25.16.48-.44-.25-.97-.06-1.31-.5-.3-.4-.13-.82,0-1.2ZM2.98,8.07s.06-.06.1-.09c.19.09.39.18.57.28.19.1.22.24.07.41-.15.16-.16.28.06.4.07.04.09.21.09.32,0,.18-.04.36-.08.64-.15-.04-.39-.1-.61-.16.03-.25.05-.41.07-.58,0,0,0,0,0,0h0s0,0,.01,0c0,0,0,0,0,0,.1.03.2.07.3.1.02-.03.04-.06.06-.08-.21-.42-.43-.83-.64-1.25ZM3.53,11.64c-.26-.15-.52-.3-.77-.47-.03-.02,0-.21.04-.23.14-.06.29-.08.44-.11.02.12.03.25.05.42.07.06.19.16.31.26-.02.04-.05.08-.07.12ZM3.91,15.7c.15-.01.3-.04.49-.06-.09.12-.15.21-.22.31.02.04.04.07.07.1.15-.09.3-.17.53-.31.07.38.15.76.22,1.13-.26.05-.52.11-.86.18.66.58,1.2,1.08,1.63,1.72.31.46.81.79,1.22,1.19.22.21.41.46.64.66.13.12.32.17.48.25.14.07.27.16.37.32-.05,0-.1,0-.15-.02-.06-.02-.11-.06-.2-.1.01.1.02.17.03.24-.02.03-.05.05-.07.08-.12-.1-.26-.19-.37-.31-1.09-1.08-2.18-2.15-3.25-3.24-.16-.16-.24-.39-.36-.59-.03-.04-.05-.12-.08-.12-.58-.08-.4-.61-.52-.93-.1-.27.07-.48.39-.51ZM2.69,14.03s.07.05.1.08c.04-.1.09-.21.14-.33.19.17.52.26.23.56.13.31.26.6.36.91.02.07-.05.2-.12.26-.04.03-.17-.01-.24-.06-.38-.27-.44-.66-.17-1.14-.15-.01-.28-.02-.5-.04.09-.11.14-.18.2-.24ZM2.53,16.85c.18-.31.18-.31-.16-.56-.09.09-.17.17-.25.24,0-.1-.02-.25-.03-.39.52-.16.76-.08.97.33.18.35.09.66-.26.94-.09-.12-.18-.24-.26-.38-.03-.05-.03-.13,0-.18ZM4.14,19.68c-.49-.52-.99-1.04-1.48-1.56.04-.04.08-.08.12-.11.51.51,1.02,1.01,1.52,1.52-.05.05-.11.1-.16.16ZM4.3,19.89c.35-.05,1.52,1.08,1.46,1.41-.49-.47-.97-.94-1.46-1.41ZM6,43.36c-.07.96-.14,1.93-.21,2.89-.05,0-.09,0-.14-.01.07-.96.14-1.93.21-2.89.05,0,.09,0,.14,0ZM5.78,46.57v1.72c-.06,0-.12,0-.18,0,.04-.57.08-1.15.12-1.72.02,0,.04,0,.06,0ZM5.55,40.35c-.08.4-.15.81-.23,1.21-.05,0-.1-.02-.14-.03.07-.4.14-.81.2-1.22.06.01.11.02.17.03ZM5.25,41.88c-.01.29-.03.59-.04.88-.03,0-.06,0-.1,0v-.89s.09,0,.14,0ZM5.08,37.62s.09.02.14.03c-.2.92-.4,1.83-.6,2.75-.05-.01-.1-.02-.15-.04.2-.92.41-1.83.61-2.75ZM5.04,40.84c-.07.34-.13.61-.19.89-.03,0-.06-.01-.1-.02.02-.28-.15-.6.28-.87ZM1.81,50.76c0-1.48.04-2.86.33-4.29.17.49-.07,3.92-.33,4.29ZM2.36,49.46c.14-1.46.27-2.93.41-4.39.05,0,.1,0,.16.01-.11,1.47-.22,2.94-.32,4.4-.08,0-.16-.02-.24-.03ZM2.89,50.42c.08-1.26.17-2.53.25-3.79.05-.72.06-1.45.15-2.16.12-.91.31-1.81.47-2.71.07-.42.14-.84.21-1.27.05.01.11.02.16.03-.67,3.36-.89,6.76-1.15,10.19-.03-.1-.09-.2-.09-.29ZM3.76,47.92c-.04.98-.06,1.96-.09,2.94,0,.06-.04.11-.09.23-.05-.11-.1-.16-.1-.21,0-.93-.02-1.87,0-2.8.03-.72.11-1.43.19-2.15.01-.11.12-.21.19-.31-.25-1.19.13-2.33.28-3.49.05,0,.1,0,.14.01-.14,1.16-.28,2.31-.42,3.47-.04.77-.08,1.53-.11,2.3ZM4.24,51.24c-.29-.23-.29-1.07,0-1.6v1.6ZM4.27,49.42s-.07.04-.11.06c-.06-.09-.19-.18-.18-.27.04-.78.11-1.56.17-2.35,0-.04.03-.07.04-.1.03.01.05.02.08.04v2.62ZM4.16,46.45c.05-.68.1-1.31.16-2.04.25.45.13,1.88-.16,2.04ZM4.4,44.22c.06-.68.13-1.36.19-2.04.05,0,.1,0,.15.01-.08.68-.15,1.36-.23,2.04-.04,0-.08,0-.11,0ZM4.59,51.14c-.08-2.72-.07-5.36.5-7.97-.13,2.6-.49,5.18-.27,7.79,0,.03-.09.08-.23.18ZM5.25,50.45s-.08,0-.12,0c-.15-1.35-.08-2.63.12-3.03v3.02ZM5.49,43.33c-.01.48,0,.96-.04,1.44-.03.51-.1,1.01-.15,1.52-.04,0-.09-.01-.14-.02.13-1.37.26-2.74.39-4.11.04,0,.07,0,.1,0,0,.33.16.66-.12.97-.04.04-.05.12-.05.18ZM5.74,49.01v1.11c-.05,0-.11,0-.16-.01,0-.41-.02-.82.01-1.23,0-.08.17-.2.27-.22.08-.01.18.1.36.21-.23.06-.35.1-.48.13ZM6.12,46.96h-.02v-1.01s.09,0,.14.01c-.04.33-.08.66-.13.99ZM6.08,45.48c.07-.63.14-1.26.22-1.89.24.22.06,1.76-.22,1.89ZM6.01,37.63c.05-.39.1-.78.15-1.17.07.01.13.03.2.04-.09.38-.18.76-.27,1.14-.03,0-.05,0-.08,0ZM6.58,32.25s-.1-.02-.14-.03c.04-.24.08-.48.12-.71.06.01.11.03.16.04-.05.23-.09.47-.14.7ZM7.25,31.11c.03-.75.29-1.45.55-2.15.05.01.11.03.16.04-.2.71-.4,1.42-.61,2.13-.03,0-.07-.02-.1-.02ZM7.79,32.05s.09.02.13.03c-.06.25-.12.51-.18.76-.06-.02-.12-.03-.18-.05.08-.25.15-.49.23-.74ZM7.73,48.74h-.11v-1.31s.07,0,.11,0v1.31ZM7.57,47.2c.08-.88.15-1.76.23-2.64.18.53.06,2.48-.23,2.64ZM8.06,43.12s-.1,0-.15,0c.06-.66.11-1.33.17-1.99.04,0,.07,0,.11,0,.11.67-.23,1.32-.13,1.99ZM8.06,31.72c-.06-.02-.13-.04-.19-.06.26-.78.53-1.56.79-2.34.05.02.11.04.16.06-.26.78-.51,1.56-.77,2.35ZM9.59,29.72c-.17-.44.07-1.07.52-1.39-.19.5-.34.91-.52,1.39ZM10.25,32.04c-.07.23-.14.46-.21.69-.04,0-.08-.02-.12-.03.12-.46.25-.93.37-1.39.05,0,.1.02.16.02-.06.24-.13.47-.2.71ZM11.82,27.84s-.08-.04-.12-.06c.12-.27.24-.54.36-.81.05.02.09.04.14.06-.13.27-.25.54-.38.8ZM13.37,21.44c-.16.48-.38.93-.59,1.39-.29.61-.6,1.22-.89,1.83-.18.38-.33.78-.53,1.16-.23.43-.35.92-.74,1.29-.27.25-.37.68-.52.98-.21.03-.37.05-.54.08,0,0,0-.01,0-.02-.31.04-.61.09-.92.14-.06.01-.13.07-.18.06-.33-.08-.46.09-.47.41-.24-.32-.44-.36-.54-.13-.03.08-.01.18-.03.27-.01.08-.04.16-.14.24-.01-.2-.02-.4-.03-.61-.04,0-.08-.01-.11-.02-.3.45-.22,1.02-.51,1.5,0-.34-.02-.68,0-1.02.02-.24.12-.48.12-.72-.02-1.23-.32-2.39-.79-3.53-.38-.91-.61-1.89-.88-2.84-.06-.2,0-.43,0-.71.1.07.15.09.18.12.55.58,1.25.95,1.9,1.39.14.1.23.27.36.4.18.18.38.33.54.52.1.11.14.26.24.34.79.69,1.58,1.38,2.46,2.15v-1.16s.04,0,.06,0c.04.08.08.16.11.24.04,0,.07,0,.11,0v-2.04s.09-.01.14-.02c.04.28.08.57.12.85.07,0,.14,0,.21-.01v-2.36c.06,0,.12,0,.17,0v1.67c.06,0,.12.01.18.02.04-.34.08-.68.13-1.02.03,0,.06,0,.1,0,.05.07.1.15.2.31.02-.36.03-.61.05-.91.11.02.19.03.29.04.05-.27,0-.55.31-.71.1-.06.05-.4.06-.57.13.13.32.23.36.37.06.21.09.48.02.69ZM13,20v-1.63s.06,0,.09,0v1.64s-.06,0-.09,0ZM13.28,13.73c-.06.15-.18.3-.18.45-.02.47,0,.93.08,1.42.04-.08.07-.16.11-.24.03,0,.05,0,.08,0v1.1s-.06,0-.08.01c-.02-.19-.05-.38-.07-.57-.03,0-.06,0-.09,0v2.12c-.06,0-.11,0-.17,0,0-.22-.02-.44-.03-.66-.03-1.01-.06-2.02-.08-3.03,0-.44-.04-.88.02-1.32.04-.3.21-.57.37-.86-.06.43-.11.86-.18,1.33.15-.05.21-.08.37-.13-.07.17-.1.28-.15.38ZM14.19,15.44c-.03-.25-.1-.49-.15-.73-.01-.07-.04-.17,0-.23.36-.57.12-1.18.14-1.77,0-.25,0-.5,0-.75.05,0,.1,0,.15,0v4.18s-.08,0-.12,0c0-.24.02-.49,0-.72ZM14.32,18.11s-.04,0-.06,0v-1.3s.04,0,.06,0v1.3Z"/>
      <path class="cls-1" d="M3.91,16.82c.06.02.19-.03.2-.06.02-.18,0-.35,0-.53-.05,0-.09,0-.14,0-.05.13-.11.26-.14.4-.01.06.03.17.07.19Z"/>
    </g>
  </g>
</svg>