<?xml version="1.0" encoding="UTF-8"?>
<svg id="Layer_2" xmlns="http://www.w3.org/2000/svg" viewBox="0 0 33.17 46.4">
  <defs>
    <style>
      .cls-1 {
        fill: #2c489e;
      }
    </style>
  </defs>
  <g id="Layer_1-2" data-name="Layer_1">
    <g>
      <path class="cls-1" d="M32.94,37.99c-.22-.16-.44-.34-.65-.51-.3-.24-.61-.48-.91-.72-.27-.22-.55-.43-.82-.66-.25-.21-.5-.43-.73-.66-.34-.34-.68-.68-.98-1.06-.41-.52-.77-1.07-1.15-1.6-.09-.12-.1-.22-.02-.35.27-.44.52-.89.78-1.34.06-.1.09-.22.15-.32.02-.03.08-.08.1-.07.03.01.06.06.07.11.01.04,0,.08,0,.12-.04.27,0,.35.24.45.13.05.27.07.41.09.04,0,.1-.01.13-.04.2-.18.38-.38.58-.56.17-.15.35-.29.53-.43-.02.1-.07.17-.12.24-.38.49-.61,1.09-1.05,1.54-.08.08-.1.18-.06.31.08.28.14.57.18.86.03.23.03.28.27.31.17.02.26.13.31.27.09.22.25.27.41.09.14-.16.27-.35.33-.55.17-.54.49-1.01.76-1.5.17-.33.39-.63.58-.95.04-.07.08-.16.06-.23-.06-.4.06-.78.07-1.17,0-.14-.03-.32-.12-.42-.1-.12-.28-.1-.44-.03-.15.06-.33.09-.5.11-.59.06-1.18.11-1.77.17-.13.01-.24.06-.28.22-.03.12-.12.22-.3.24.01-.08.01-.14.03-.19.08-.22.16-.44.25-.66.2-.54.38-1.09.62-1.6.25-.52.59-1.01.88-1.51.01-.03,0-.07,0-.1-.07-.37-.15-.75-.2-1.12-.04-.3,0-.61-.03-.91-.07-.62-.13-1.24-.09-1.86.03-.42.08-.83.09-1.25,0-.41.19-.82-.09-1.23-.18-.27-.3-.58-.41-.89-.08-.22-.28-.41-.22-.69.05-.22.09-.44.12-.65.05-.36-.02-.71-.18-1.02-.14-.27-.29-.55-.53-.78-.23-.23-.47-.44-.76-.59-.16-.08-.25-.2-.32-.35-.18-.39-.41-.73-.84-.87-.3-.1-.6-.2-.89-.32-.07-.03-.16-.12-.16-.19,0-.12,0-.27.06-.38.11-.22.11-.42.03-.67-.07-.25-.23-.37-.43-.48-.07-.04-.18-.09-.17-.13,0-.08.06-.16.13-.21.31-.24.32-.63.48-.94,0-.02,0-.05,0-.07-.11-.43-.22-.85-.58-1.16-.27-.23-.55-.39-.9-.45-.45-.08-.67-.34-.75-.84-.02-.12-.12-.24-.19-.35-.02-.04-.1-.06-.1-.09-.01-.2-.18-.3-.28-.45-.2-.28-.37-.58-.53-.89-.09-.17-.14-.36-.23-.53-.13-.22-.3-.41-.44-.63-.08-.13-.12-.29-.2-.42-.25-.35-.52-.69-.78-1.04-.07-.09-.13-.19-.22-.28-.18-.18-.38-.34-.56-.51-.24-.23-.45-.49-.71-.7-.41-.34-.9-.5-1.44-.51-.13,0-.27-.06-.39-.13-.15-.09-.28-.24-.44-.32-.27-.13-.55-.24-.83-.32-.25-.07-.51-.13-.77-.14-.28-.01-.56.03-.84.05-.24.01-.48.02-.72.04-.53.04-1.04-.02-1.53-.24-.36-.16-.71-.3-1.11-.32-.28,0-.55-.03-.83-.05-.4-.03-.78,0-1.15.17-.09.04-.19.07-.28.11-.29.12-.59.23-.87.38-.14.08-.27.11-.43.11-.5,0-.97.14-1.41.37-.11.06-.22.12-.31.2-.23.21-.47.42-.67.66-.2.25-.36.53-.53.8-.08.12-.14.25-.21.39-.01.03,0,.06,0,.13.07-.04.14-.05.18-.09.21-.23.44-.46.62-.71.22-.3.54-.44.82-.66.02-.02.07-.02.1-.03.09-.03.19-.07.28-.09.33-.08.65-.17.99-.23.14-.03.19.06.16.21-.01.07-.02.14-.03.21.02,0,.04.01.06.02.06-.11.12-.24.19-.34.3-.4.66-.75,1.12-.98.18-.09.35-.05.51.08.08.07.19.09.29.13.08.03.19.04.23.09.1.12.18.26.24.4.02.04-.05.17-.09.18-.15.04-.32.01-.46.06-.23.08-.45.12-.69.06,0,0-.01,0-.02,0-.2,0-.33.16-.44.29-.09.1-.19.28-.15.38.06.16.21.3.34.43.07.07.14.03.14-.08,0-.08-.01-.17-.02-.26q.22.09.43.03s.07-.02.08,0c.16.14.31.06.47.01.1-.03.2-.03.27-.14.02-.03.08-.05.11-.04.13.05.21,0,.29-.1.02-.03.1-.03.15-.03.27-.01.52-.05.69-.3.02-.03.1-.06.13-.05.12.04.25.1.36.16.11.06.21.14.3.21.08.06.15.05.22-.02.13-.13.2-.12.32.02.18.21.37.41.56.61.21.21.2.32-.06.47-.11.06-.2.12-.17.27.01.05,0,.15-.02.16-.05.02-.13.01-.18,0-.14-.06-.28-.15-.42-.22-.13-.06-.19,0-.18.13,0,.04-.02.08-.03.12-.04-.02-.08-.03-.12-.04-.07-.02-.14-.03-.22-.03-.07,0-.15.03-.22.02-.12-.02-.19.04-.18.17,0,.06,0,.13-.02.19-.05-.03-.11-.06-.16-.09-.12-.1-.19-.08-.2.06,0,.15-.08.13-.18.09-.04-.01-.08-.04-.11-.04-.17.03-.24-.08-.32-.2-.18-.31-.43-.56-.71-.78-.07-.06-.13-.12-.2-.18,0,.06,0,.1.03.13.21.25.43.49.65.74.04.05.07.12.1.17-.09.01-.15-.01-.2-.02-.04-.01-.09,0-.13-.01,0,.05,0,.1,0,.15.01.07.03.14.05.22-.01,0-.02.02-.03.03-.12-.07-.24-.15-.36-.22-.01.01-.03.02-.04.04.04.12.09.25.13.37-.14-.05-.25-.13-.36-.19-.1-.06-.34-.04-.37.06-.02.07.04.16.08.24.08.16.18.32.26.48.21.44.21.45.7.43.02,0,.04,0,.05,0,.04-.03.11-.06.11-.09,0-.14.08-.16.2-.14.05,0,.12,0,.17-.03.39-.21.8-.28,1.23-.29.21,0,.42,0,.64-.02.3-.02.59-.01.88.11.09.04.21.04.3,0,.16-.07.32-.16.45-.27.32-.26.63-.53.94-.8.02-.02.03-.04.05-.05.22-.19.42-.41.66-.57.19-.13.43-.19.64-.27.16-.06.22-.13.19-.31-.05-.25-.06-.51-.08-.77-.01-.12.04-.15.14-.13.05.01.09.03.13.05.28.14.57.23.86.01.02-.01.04-.02.07-.03.18-.01.36-.08.53.07-.08.04-.17.05-.23.08-.07.04-.12.11-.18.17.07.02.14.05.21.06.07.01.16-.01.22.01.09.03.17.1.26.15-.09.03-.18.07-.28.08-.09.01-.17.02-.19.14-.02.08-.08.15-.12.23-.06.12-.21.29-.18.35.14.24-.03.31-.15.44-.06.06-.12.19-.09.25.06.15.01.21-.1.29-.13.08-.23.18-.12.36.07.11.01.18-.12.21-.12.03-.25.06-.35.13-.13.1-.11.19.04.26.22.1.45.19.67.29.33.15.66.3.99.45.09.04.16.11.24.17-.1.01-.21.03-.31.04-.06,0-.14,0-.16.04-.11.15-.24.16-.39.09-.14-.06-.27-.14-.41-.2-.07-.03-.15,0-.23-.01-.07,0-.15,0-.22-.04-.07-.03-.11-.11-.18-.14-.35-.18-.69-.38-1.05-.52-.22-.08-.47-.08-.7-.1-.03,0-.08.02-.08.04,0,.03,0,.08.03.1.04.04.1.07.15.08.32.08.64.14.95.24.52.17.93.49,1.26.92.03.04.05.09.08.15-.08,0-.13,0-.18,0-.25-.03-.5-.07-.75-.08-.18,0-.4-.03-.53.06-.14.09-.24.21-.44.22.06.06.13.11.2.11.14.01.28.01.42,0,.52-.03,1.02.01,1.45.36.05.04.07.12.11.17-.07,0-.15.03-.22.01-.24-.07-.46-.17-.7-.24-.07-.02-.16.01-.24.02.03.08.06.11.09.14.34.23.68.46,1.03.67.28.17.58.21.89.05.32-.17.65-.33.97-.5.24-.13.48-.27.72-.41.16-.09.3-.23.46-.28.39-.11.78-.06,1.17.03.05.01.12.11.1.15-.02.06-.09.12-.15.13-.59.11-1.11.41-1.63.69-.09.05-.16.12-.24.18.01.02.02.04.03.06.06-.02.13-.05.19-.07.41-.19.81-.39,1.23-.55.31-.12.63-.21.98-.15.41.07.94.59,1.02.99.11.51.32.97.89,1.14.09.03.2.17.22.27.05.27.05.54-.12.78-.09.13-.18.28-.24.43-.09.26-.1.26-.38.25-.37,0-.74-.1-1.12.01-.15.04-.31.03-.47.04-.02-.03-.04-.07-.06-.1.07-.04.13-.07.2-.11.27-.18.55-.36.82-.55.24-.18.55-.12.61.22,0,.06.07.1.11.15.04-.07.11-.13.11-.2.01-.35-.22-.58-.57-.58-.43,0-.81.16-1.17.37-.89.52-1.78,1.05-2.83,1.23-.09.02-.19,0-.29.01.04-.1.06-.2.11-.29.04-.08.07-.13-.02-.19-.2-.14-.2-.14-.02-.32.03-.03.07-.09.06-.11-.03-.04-.08-.07-.12-.08-.11-.02-.22-.02-.33-.05-.42-.1-.84-.21-1.26-.31-.25-.06-.36.06-.26.28.14.3.29.62.51.86.62.68,1.4.82,2.27.57.16-.05.32-.09.48-.12.04,0,.1.02.12.05.01.02-.01.08-.03.11-.04.05-.11.08-.13.14-.04.08-.08.2-.05.25.04.06.16.09.24.08.2-.02.39-.07.59-.11.04,0,.08,0,.16,0-.2.16-.37.28-.53.41-.21.17-.2.21.01.36.11.08.12.15,0,.23-.05.03-.11.08-.17.1-.39.1-.77.09-1.16-.08-.28-.12-.58-.19-.88-.28,0,.02-.02.05-.03.07.39.23.86.32,1.29.61-.12.02-.18.02-.23.04-.05.02-.09.06-.14.09.03.05.05.11.1.14.31.19.63.38.96.55.16.08.25.04.35-.12.03-.05.07-.11.12-.15.08-.06.17-.13.08-.22-.1-.1-.15-.31-.37-.24-.07.02-.14.03-.21.05.29-.15.57-.29.84-.42.04-.02.1-.01.15,0,.06.02.12.05.18.07.19.06.19.09.07.25-.24.33-.49.66-.68,1.02-.17.31-.25.66-.38.98-.02.05-.07.1-.1.14-.04-.05-.1-.09-.13-.15-.03-.09-.03-.2-.06-.29-.07-.21-.15-.27-.37-.26-.24,0-.46-.06-.66-.2-.06-.04-.14-.06-.22-.09,0,.02-.02.04-.03.06.06.05.12.1.18.15.07.07.13.14.19.21.09.11.17.23.26.34.04.04.1.07.13.12.15.2.35.27.58.27.09,0,.13.03.12.12-.02.31-.04.62-.04.93,0,.29,0,.59.07.87.1.44.22.88.42,1.3.18.4.42.71.8.92.12.06.15.15.04.25-.08.07-.17.14-.27.2-.25.17-.55.3-.62.64-.04.2-.04.41-.08.61-.02.13-.06.26-.14.37-.14.2-.31.37-.46.56-.33.43-.66.86-.96,1.3-.13.2-.19.45-.28.68-.04.1-.06.21-.12.29-.13.18-.27.35-.42.52-.19.22-.31.47-.33.76-.01.31,0,.62,0,.93,0,.14-.02.25-.19.26-.04,0-.08.02-.12.04-.46.26-.92.53-1.37.79-.12.07-.12.16-.03.27.08.11.2.14.32.09.25-.1.49-.22.72-.35.14-.07.26-.18.4-.26.13-.07.22,0,.21.14-.01.15-.04.29-.05.44,0,.05.02.09.03.14.04-.03.09-.04.12-.08.22-.24.22-.54.22-.83,0-.41-.05-.82-.08-1.23-.02-.24,0-.47.16-.65.43-.51.86-1.01,1.31-1.5.24-.26.42-.55.6-.84.02-.03,0-.07.01-.11-.04,0-.09,0-.13.02-.02,0-.04.04-.06.06-.23.25-.47.5-.7.74-.04.04-.09.07-.14.1-.02-.06-.02-.11,0-.14.21-.31.4-.64.63-.93.31-.4.65-.79.98-1.18.15-.18.34-.23.54-.11.25.15.54.16.81.2.43.05.86.09,1.29.15.27.04.54.1.82.14.38.06.76.12,1.15.18.39.06.78.12,1.16.19.25.04.5.1.74.15.04,0,.07.04.1.06.16.13.31.26.49.42.01-.08.04-.14.02-.19-.09-.2-.19-.39-.43-.45-.51-.12-1.02-.25-1.54-.38-.37-.09-.73-.18-1.09-.28-.18-.05-.31-.13-.34-.35-.02-.13-.13-.25-.22-.37-.08-.11-.18-.2-.26-.31-.08-.12-.13-.26-.2-.39-.02-.04-.08-.06-.12-.09-.01.05-.04.09-.04.14,0,.1.04.21.05.31.02.24-.07.38-.31.43-.11.02-.2.04-.24.17-.01.04-.1.08-.15.08-.63,0-1.27.04-1.9-.1-.06-.01-.14-.08-.16-.13-.09-.39.13-.71.48-.87.31-.14.59-.33.88-.51.34-.22.66-.46,1-.69.08-.06.2-.06.29-.11.26-.13.52-.27.78-.4.04-.02.11-.02.15-.01.2.05.37.13.5.3.17.22.33.45.53.63.47.44.89.91,1.26,1.42.04.06.12.1.19.16.02.07.04.19.1.28.24.32.47.65.76.92.34.32.61.71,1,.97.04.03.06.1.06.15-.02.19-.05.37-.08.56-.04.2-.09.39-.12.59,0,.06.06.13.09.2.05-.04.12-.08.16-.14.03-.04.03-.1.06-.15.02-.04.05-.08.08-.12.05.03.12.05.15.1.12.18.08.34-.12.6-.4.51-.75,1.06-1.02,1.66-.16.34-.31.67-.47,1-.23.49-.48.98-.71,1.48-.28.61-.71,1.15-.78,1.85,0,.01,0,.02-.01.03-.05.15-.15.17-.27.06-.13-.13-.25-.26-.39-.38-.05-.04-.11-.06-.17-.09.01.07,0,.15.04.2.15.23.32.45.48.68.09.13.2.26.24.41.1.35.27.65.47.94.19.26.37.53.55.8.09.14.05.2-.11.21-.04,0-.07,0-.11,0-.45,0-.91.02-1.33.19-.45.17-.87.41-1.24.72-.17.15-.34.31-.46.5-.14.21-.21.47-.33.7-.12.23-.22.21-.37,0-.26-.37-.54-.72-.81-1.09-.26-.34-.57-.64-.63-1.11-.04-.37-.15-.73-.24-1.1-.04-.19-.06-.38-.15-.55-.15-.3-.33-.58-.5-.86-.23-.38-.35-.8-.29-1.25.06-.4.15-.8.25-1.19.15-.55.36-1.08.65-1.57.15-.25.28-.52.4-.79.09-.19.01-.32-.18-.35-.11-.02-.14-.08-.15-.18-.03-.28.12-.51.22-.75.18-.46.43-.85.9-1.05,0,0,.01,0,.01,0,.02-.05.04-.11.06-.16-.05,0-.12-.02-.16,0-.08.04-.15.12-.23.17-.4.24-.77.51-1.03.92-.14.22-.34.24-.57.11-.04-.03-.09-.06-.14-.07-.25-.05-.28-.09-.26-.35,0-.08,0-.16-.01-.24-.02,0-.04,0-.07,0-.02.07-.06.14-.05.21.01.16.03.33.08.48.04.14.02.25-.08.36-.18.2-.35.42-.51.63-.07.09-.13.13-.24.07-.03-.02-.07-.02-.13-.03,0,.07.02.12.01.17-.02.25,0,.51-.09.74-.1.29-.26.57-.44.82-.37.49-.7,1.01-1.19,1.41-.25.21-.48.25-.75.06-.24-.17-.39-.4-.51-.66-.11-.24-.22-.52-.41-.66-.44-.33-.92-.61-1.4-.87-.44-.23-.92-.38-1.36-.6-.39-.2-.73-.12-1.09.05-.43.19-.85.4-1.3.53-.7.21-1.33.53-1.91.95-.12.08-.21.1-.31,0-.25-.22-.52-.43-.74-.67-.35-.37-.69-.76-.99-1.16-.31-.41-.61-.84-.83-1.3-.22-.45-.41-.91-.68-1.33-.3-.46-.57-.93-.86-1.4-.37-.6-.64-1.25-.73-1.95-.09-.76-.11-1.53-.17-2.3-.02-.29-.05-.58-.08-.87-.03.01-.04.02-.05.03,0,.01-.02.03-.02.05.01.16-.02.29-.23.3-.03,0-.06.04-.07.07-.09.26-.18.52-.26.78-.04.14-.05.29-.07.44-.02,0-.04,0-.06,0-.03-.13-.07-.26-.08-.38,0-.12.04-.24.05-.36,0-.07-.04-.15-.05-.22-.06.05-.14.08-.17.14-.15.28-.19.58-.13.89,0,.04,0,.07,0,.14-.06-.05-.1-.07-.11-.1-.12-.19-.25-.38-.36-.58-.09-.16-.15-.34-.38-.38-.11-.02-.13-.14-.03-.2.25-.14.5-.31.81-.26.29.05.48-.12.67-.29.11-.1.08-.24,0-.35-.06-.08-.14-.14-.21-.22-.12-.12-.09-.25-.01-.37.02-.02.14-.02.14,0,.11.27.36.38.6.5.3.15.62.21.92-.03.03-.02.12,0,.16.04.1.07.17.18.26.25.13.1.25.07.34-.07.12-.19.23-.38.14-.62-.05-.12,0-.21.15-.24.46-.1.92-.14,1.38-.05.1.02.12.07.11.16,0,.05.04.14.06.14.06,0,.15-.03.18-.07.14-.23.06-.44-.21-.49-.27-.05-.55-.09-.82-.09-.52,0-1.04.04-1.57.05-.07,0-.14-.05-.21-.08.05-.07.09-.18.16-.2.3-.1.62-.1.91-.27.09-.05.23-.01.35-.02.12,0,.23,0,.35,0,.17,0,.33,0,.5,0,.07,0,.14,0,.21,0,0-.02.01-.04.02-.06-.08-.04-.16-.11-.25-.13-.18-.04-.36-.07-.53-.09-.27-.02-.55-.04-.83-.04-.29,0-.51.17-.71.34-.15.13-.32.25-.43.41-.13.18-.24.34-.49.24,0,0-.02.01-.04.04.05.05.11.1.15.16.04.05.07.12.11.18-.08.01-.15.04-.23.04-.05,0-.1-.05-.14-.09-.05-.05-.08-.12-.13-.17-.04-.04-.1-.06-.15-.09,0,.06,0,.13.02.18.05.08.13.15.19.23.02.03.02.08.03.13-.04,0-.09.03-.12.02-.09-.05-.2-.09-.26-.17-.16-.19-.22-.46-.48-.57-.02-.01-.03-.08-.03-.12,0-.01.07-.03.1-.03.37.06.43,0,.33-.36,0-.03-.03-.07-.03-.1-.02-.16-.07-.32-.05-.48.02-.17.09-.33.15-.49.21-.59.91-.96,1.51-.81.45.11.91.23,1.36.36.16.05.25-.03.3-.14.05-.09.08-.25.04-.3-.12-.14-.27-.29-.43-.34-.4-.12-.83-.17-1.24-.26-.3-.07-.58-.07-.84.11-.14.1-.31.17-.44.29-.11.1-.2.22-.26.36-.08.18-.1.37-.16.56-.01.04-.08.09-.13.09-.03,0-.07-.06-.09-.1-.02-.03-.02-.08-.02-.12-.1-.71-.17-1.42-.31-2.13-.13-.65-.17-1.29-.15-1.94,0-.04,0-.08,0-.12.04-.28.06-.57.13-.85.13-.58.28-1.16.42-1.75,0-.04-.03-.12-.07-.13-.18-.06-.43.05-.52.22-.09.17-.16.18-.28.03-.26-.31-.37-.66-.35-1.06,0-.06.04-.11.06-.17.06.03.12.05.17.09.15.12.28.25.43.36.04.03.13.01.19.01,0-.06,0-.12-.03-.17-.11-.22-.26-.44-.35-.67-.1-.28-.21-.57-.23-.86-.03-.4.06-.8.29-1.14.19-.27.34-.58.59-.79.3-.27.58-.59,1.01-.67.06-.01.1-.13.14-.2-.08,0-.17-.04-.24-.02-.49.18-.93.44-1.27.85-.35.41-.69.82-.81,1.36-.07.29-.2.56-.09.87.04.12.07.3.01.4-.18.31-.27.63-.25.99,0,.07-.04.16-.09.21-.4.39-.61.86-.65,1.42-.01.18-.02.36-.04.54,0,.04-.01.1-.04.13-.26.21-.34.52-.37.82-.03.28-.1.45-.33.63-.37.28-.5.74-.67,1.15-.01.03,0,.07,0,.11.05.64.3,1.18.85,1.54.12.08.18.18.17.32-.03.3-.05.6.06.9.11.29.15.6.35.86.14.17.25.37.38.55.24.33.56.58.93.75.16.07.34.12.52.16.23.05.34.25.5.39.18.16.19.32-.03.41-.16.07-.35.12-.52.1-.42-.04-.75.11-1.04.38-.07.07-.12.17-.16.26-.11.26.01.48.13.72.22.43.58.69,1,.9.09.04.19.07.27.12.24.13.26.24.05.42-.17.15-.38.26-.56.4-.66.52-.77,1.26-.42,1.91.2.37.46.72.88.94.26.14.52.26.81.31.17.03.34.08.5.15.06.02.13.09.15.16.12.45.38.81.68,1.16.34.39.71.66,1.26.6.26-.03.4.1.53.3.09.15.2.29.31.43.16.19.16.3-.05.44-.38.26-.75.53-1.04.89-.15.18-.31.35-.48.52-.15.16-.25.12-.33-.08-.07-.19-.17-.37-.27-.55-.04-.09-.12-.1-.19-.02-.06.07-.12.15-.17.22-.07.09-.13.2-.22.27-.04.04-.16.05-.2.02-.15-.12-.3-.26-.35-.47-.04-.16-.09-.33-.16-.48-.06-.15-.18-.16-.29-.05-.06.07-.11.15-.17.22-.13.16-.28.31-.41.48-.24.32-.47.64-.71.96-.23.3-.47.58-.69.88-.13.18-.24.39-.35.58-.09.15-.18.3-.27.46-.06.11-.1.24-.18.34-.14.16-.24.34-.29.55-.04.13-.11.26-.16.39-.15.34-.31.67-.45,1.01-.07.18,0,.3.14.39.21.14.41.31.61.46.09.07.19.14.29.19.26.13.53.24.79.38.45.24.78.66,1.28.83.04.01.07.05.09.08.31.4.74.67,1.15.95.18.12.35.12.52,0,.32-.23.7-.34,1.08-.44.13-.03.27-.04.39-.1.46-.2,1.01-.18,1.41-.53.02-.02.06-.01.08-.02.28-.09.58-.12.79-.35.04-.04.11-.07.18-.08.29-.04.52-.21.75-.37.11-.08.25-.13.38-.17.12-.04.2,0,.27.13.05.09.14.17.23.22.19.09.41.15.6.24.46.23.93.45,1.43.59.31.08.61.2.92.29.09.03.19.05.28.03.24-.08.48-.17.7-.28.43-.22.86-.46,1.28-.71.37-.22.77-.24,1.17-.15.08.02.17.12.18.2.04.27.08.53.21.77.06.11.1.23.15.35.04.1.07.2.09.3.03.12.01.23-.15.24-.15.01-.18-.08-.18-.2.01-.18-.07-.32-.18-.44-.1-.11-.21-.21-.31-.31-.13-.14-.29-.21-.47-.14-.17.06-.33.13-.49.19-.24.08-.4.23-.49.47-.05.13-.12.24-.19.36-.07.11-.15.14-.3.09-.23-.08-.48-.2-.71.03-.02.02-.1,0-.14-.01-.09-.05-.16-.12-.24-.17-.21-.12-.42-.23-.68-.18-.24.05-.39.2-.54.36-.12.14-.16.15-.27,0-.16-.24-.31-.48-.47-.72-.05-.08-.1-.16-.15-.24-.02,0-.05,0-.07.01,0,.07-.04.14-.02.2.03.14.07.29.13.42.11.27.25.51.54.64.09.04.15.17.18.28.06.2-.04.37-.15.52-.05.06-.11.13-.15.2-.24.38-.48.75-.72,1.13-.03.05-.09.08-.14.11-.04-.05-.1-.1-.12-.16-.12-.35-.24-.7-.34-1.05-.1-.36-.2-.72-.25-1.09-.05-.38-.05-.77-.08-1.15,0-.08-.04-.16-.07-.24-.03,0-.06,0-.08,0-.03.07-.08.14-.09.22-.05.29-.1.59-.13.88-.03.3-.05.61-.05.91,0,.34.05.68.08,1.01,0,.08,0,.17.05.24.18.27.34.55.64.7.17.09.22.23.13.4-.1.22-.22.44-.35.65-.19.32-.27.66-.25,1.02,0,.05.05.13.09.15.05.02.14,0,.17-.04.07-.09.14-.19.16-.3.11-.58.31-1.14.61-1.64.29-.49.62-.96.94-1.42.24-.35.44-.71.5-1.15.04-.31.22-.38.49-.33.19.04.36.1.55.02.02,0,.05,0,.1,0,0,.06-.01.11,0,.16,0,.06.01.14.04.16.05.02.12,0,.17-.03.08-.04.14-.11.22-.14.13-.06.29-.12.39.02.12.16.25.34.29.53.06.25.21.42.38.58.18.17.43.12.52-.11.1-.27.18-.55.1-.84-.06-.21-.11-.42-.16-.63-.11-.47-.06-.64.28-.84.12-.07.23-.08.33.04.08.1.17.18.32.19.07,0,.14.07.2.13.18.18.09.42.12.64,0,.08.05.19.11.23.04.03.16,0,.22-.04.23-.15.27-.15.44.07.37.49.75.98,1.12,1.46.08.1.19.18.26.29.43.58.91,1.14,1.13,1.85.09.29.27.55.28.86,0,.09.03.17.04.26.05.47.19.94.08,1.42-.02.07-.02.14,0,.21.01.05.06.09.1.13.04-.04.09-.07.11-.12.03-.07.03-.15.04-.22.02-.36.09-.73.06-1.09-.05-.56-.21-1.11-.44-1.62-.3-.67-.69-1.3-1.19-1.85-.45-.49-.89-.98-1.28-1.52-.36-.51-.68-1.03-.78-1.67-.09-.6-.08-1.17.16-1.73.02-.04.02-.08.04-.18-.09.06-.14.09-.19.11-.04.01-.1.02-.13,0-.02-.01-.04-.07-.03-.11.03-.23.24-.37.46-.3.08.02.15.06.22.1.19.1.22.19.09.37-.27.39-.41.8-.31,1.28.02.1.03.2.06.29.13.38.23.77.41,1.12.27.54.67,1,1.08,1.45.35.39.64.84.96,1.26.08.11.15.24.22.36.09.16.19.33.27.49.11.2.23.4.3.62.29.9.43,1.83.26,2.78-.01.06.03.17.08.21.19.16.36.07.4-.21.06-.51.19-1.02.07-1.54-.09-.37-.18-.75-.25-1.13-.03-.15-.02-.34.04-.47.13-.27.31-.51.47-.76.06-.1.11-.22.16-.33.11-.22.22-.44.31-.67.09-.21.16-.43.23-.64.17-.48.39-.95.44-1.46.01-.13.05-.25.08-.38-.02,0-.04-.01-.06-.02-.04.08-.09.16-.13.24-.17.41-.32.82-.49,1.22-.25.6-.5,1.19-.76,1.78-.12.27-.24.53-.38.79-.07.14-.18.13-.25,0-.08-.14-.15-.28-.24-.41-.19-.31-.36-.64-.59-.91-.24-.28-.37-.63-.64-.89-.23-.23-.41-.52-.64-.75-.3-.3-.5-.65-.68-1.02-.13-.29-.23-.59-.36-.88-.1-.23-.07-.3.18-.37.17-.05.36-.11.49-.22.33-.28.65-.59.95-.91.13-.13.26-.21.44-.26.44-.1.84-.28,1.12-.65.14-.19.27-.4.4-.6.08-.12.14-.13.24-.01.15.18.23.38.25.61,0,.07-.04.16-.1.2-.13.12-.29.22-.42.34-.35.32-.69.66-1.04.97-.16.14-.36.24-.54.36-.42.29-.83.6-1.25.89-.13.09-.16.24-.07.36.04.06.09.11.13.17.1.13.23.17.37.07.18-.11.35-.24.53-.35.7-.43,1.27-1.02,1.86-1.58.19-.18.37-.38.56-.56.12-.11.17-.09.21.07.04.16.09.33.13.49.05.19.1.36-.1.52-.19.15-.35.33-.5.52-.4.5-.79,1-1.17,1.51-.24.32-.45.66-.67,1-.04.06-.05.13-.08.2.02.01.03.02.05.04.09-.07.18-.13.27-.2.39-.3.8-.58,1.07-.98.41-.59.77-1.22,1.16-1.82.04-.07.11-.14.19-.16.03-.01.11.08.15.14.21.27.4.55.61.81.23.3.5.58.71.9.46.71.88,1.44,1.31,2.17.16.28.35.55.45.85.14.4.38.75.58,1.12.17.33.35.65.52.98.04.08.05.17.06.26.03.18.05.36.22.48.06.04.1.12.13.18.14.3.25.63.43.9.26.39.32.88.65,1.24.17.19.3.43.46.63.1.12.26.21.43.13.09-.04.2-.15.2-.23,0-.16-.03-.35-.11-.48-.24-.38-.51-.74-.76-1.11-.08-.12-.15-.24-.22-.36-.21-.37-.43-.74-.64-1.11-.07-.12-.12-.25-.19-.37-.18-.32-.37-.63-.55-.95-.28-.5-.54-1.01-.83-1.51-.21-.36-.43-.71-.66-1.06-.15-.23-.32-.45-.46-.68-.04-.07-.05-.22,0-.27.12-.11.13-.24.12-.38-.03-.39.08-.74.38-1,.25-.21.52-.39.78-.57.1-.07.22-.13.34-.18.25-.1.49-.2.75-.26.26-.06.53-.09.8-.09.16,0,.29,0,.44-.08.06-.04.19-.04.25,0,.12.06.21.16.31.26.39.38.77.78,1.16,1.15.47.44.94.88,1.43,1.3.25.21.57.3.9.31.14,0,.23-.09.23-.22-.01-.18-.06-.36-.22-.48ZM23.08,19.24c-.18-.2-.23-.41-.25-.65.15.08.3.45.25.65ZM22.77,16.38c-.07.43-.05.88-.07,1.31,0,.04,0,.09-.01.13-.02,0-.04.02-.06.03-.08-.1-.17-.2-.24-.31-.09-.15-.22-.24-.4-.24-.15,0-.23-.08-.23-.23,0-.21.02-.42.04-.63,0-.09.07-.15.18-.11.27.11.47.02.59-.24.14-.3.26-.6.33-.92.01-.06.04-.12.08-.18.13-.21.19-.43.05-.67-.03-.05,0-.16.03-.21.1-.12.23-.22.35-.32.22-.16.44-.06.65.02.1.04.09.14,0,.2-.45.32-.72.8-.96,1.27-.17.33-.29.71-.35,1.08ZM24.18,18.02c-.05-.1-.09-.21-.14-.31-.12-.23-.27-.25-.41-.03-.07.11-.1.25-.17.42-.04-.07-.07-.11-.07-.14-.02-.35-.05-.7-.05-1.05,0-.19.07-.22.24-.11.1.07.18.06.29.03.09-.03.22-.02.28.03.06.05.07.17.08.26.01.22.01.45.02.68,0,.07,0,.14,0,.21-.03,0-.05,0-.08.01ZM24.2,14.89c.06-.24.41-.57.62-.6.03,0,.07,0,.1.01.19.07.37.15.55.22.12.05.14.14.04.23-.1.08-.19.19-.3.23-.12.04-.29.06-.4.02-.2-.08-.38-.18-.61-.11ZM25.81,17.15c-.12.11-.17.31-.25.47-.03.06-.06.11-.1.16-.05-.03-.11-.06-.15-.1-.13-.14-.27-.12-.34.06-.05.12-.09.25-.15.42-.04-.07-.05-.09-.06-.12-.02-.22-.04-.43-.04-.65,0-.07.05-.13.08-.2.05.03.11.05.16.08.17.13.37.15.54.04.06-.04.1-.12.12-.2.08-.22.15-.44.23-.69.18.28.16.55-.06.73ZM30.08,20.63c-.02.21,0,.43-.05.63-.15.58-.08,1.18-.14,1.77-.03.25.05.5.07.75,0,.07.01.14.02.26-.08-.07-.13-.09-.16-.14-.19-.23-.38-.45-.56-.68-.2-.26-.4-.53-.6-.8-.08-.1-.19-.18-.25-.29-.07-.12-.14-.26-.13-.38.02-.39.08-.77.13-1.15,0-.05.03-.09.05-.13.05-.09.04-.17-.02-.26-.2-.3-.31-.64-.34-.99-.03-.42-.21-.69-.59-.89-.43-.23-.76-.6-1.01-1.03-.15-.26-.23-.57-.4-.82-.17-.24-.16-.46-.09-.72.02-.09-.01-.22-.07-.29-.03-.04-.17,0-.25.02-.07.01-.13.04-.19.06-.01-.01-.02-.03-.03-.04.09-.11.16-.24.27-.33.3-.23.6-.47.99-.49.16,0,.33.02.48.08.14.05.13.15,0,.22-.06.03-.14.05-.18.1-.18.19-.36.25-.6.11-.11-.06-.17.02-.15.13.01.08.05.15.08.23-.24.09-.25.13-.13.36.09.18.19.35.3.52.04.06.11.11.17.14.09.05.2.07.3.11.3.11.35.09.45-.21.03,0,.05,0,.06,0,.25.19.49.39.74.59.21.17.42.35.64.53.12.1.26.17.36.28.11.14.2.3.28.46.09.19.14.41.26.59.34.53.39,1.11.32,1.71ZM5.72,17.39s.09.07.16.12c-.06.08-.1.13-.14.17-.06-.06-.12-.12-.18-.18.05-.04.1-.11.16-.12ZM2.18,8.05c.1-.11.17-.1.23,0,.06.12.12.24.16.37.04.1,0,.2-.1.25-.17.08-.21.22-.21.39q0,.26-.22.41c.18.45.18.49.08.66-.16-.11-.14-.29-.18-.44-.03-.13-.05-.27-.05-.4-.01-.44-.01-.88.3-1.25ZM2.58,13.85c-.21,0-.32-.09-.29-.26.1.09.19.17.29.26ZM.7,13.29c-.32-.19-.41-.76-.23-1.16.11-.24.26-.47.4-.7.09-.14.15-.13.23.03.06.12.12.24.17.37.12.25.35.37.57.5.06.04.11.1.16.15-.02,0-.04.02-.06.03,0,.27,0,.54,0,.82,0,.13-.04.25-.08.38-.01.03-.1.07-.14.05-.34-.14-.7-.27-1.02-.46ZM1.59,15.31s-.04-.1-.06-.15c-.11-.37.01-.57.4-.58.11,0,.24.1.34.18.09.07.28.15.03.28-.02.01-.02.09-.01.13.03.08.07.16.12.23.22.29.45.57.68.85.03.04.05.08.09.17-.68-.23-1.26-.48-1.59-1.11ZM4.18,23.51c-.27-.05-.54-.31-.55-.55,0-.04.02-.1.05-.13,0-.01.09,0,.1.03.14.18.27.37.4.56.01.02,0,.06,0,.1ZM4.03,22.21s.06-.08.09-.11c.03.03.07.06.09.09.05.15.09.29.13.44-.26-.08-.36-.25-.31-.42ZM9.86,34.45s-.1-.01-.12-.04c-.36-.41-.67-.84-.85-1.36-.15-.44-.2-.89-.13-1.34.06-.41.16-.83.32-1.22.12-.29.36-.54.55-.81.02-.03.06-.03.1-.05.01.01.03.02.04.03-.07.13-.15.25-.21.38-.3.59-.53,1.19-.45,1.87,0,.05-.02.11,0,.16.02.08.05.17.11.24.08.11.19.19.28.29.06.06.14.12.19.2.05.07.11.16.1.23-.08.44.08.86.13,1.29,0,.04-.02.09-.03.13ZM11.09,33.52c.01.29.13.58.19.88.06.28.13.56.19.84,0,.05-.03.1-.04.16-.05-.04-.12-.07-.14-.13-.29-.59-.34-1.23-.39-1.87-.02-.27-.06-.55-.08-.82,0-.1,0-.2.02-.29.06-.22,0-.42-.21-.49-.2-.07-.21-.17-.18-.36.06-.43.26-.8.51-1.14.07-.1.15-.13.26-.07.05.03.1.04.15.06.26.11.41.07.6-.13.02-.02.05-.04.07-.06,0,0,.01.01.02.02-.16.32-.33.63-.48.95-.36.78-.51,1.6-.47,2.45ZM12.43,32.77c-.05.41-.03.82-.05,1.23,0,.06-.01.12-.02.18-.02,0-.04,0-.06,0-.02-.14-.07-.28-.07-.42,0-.27.03-.54.04-.81,0-.32.03-.64,0-.95-.02-.15-.16-.29-.23-.44-.04-.08-.07-.19-.05-.27.04-.14.12-.28.19-.41.23-.43.48-.85.83-1.2.12-.12.25-.22.4-.31.32-.2.65-.39.98-.59.04-.02.09-.04.13-.04.03,0,.08.03.08.04,0,.03-.01.09-.04.1-.06.03-.13.06-.2.07-.38.08-.65.33-.9.61-.17.19-.32.41-.47.61-.14.18-.12.29.08.41.24.15.24.16.08.4-.36.55-.66,1.13-.73,1.79ZM14.87,31.23c-.03.11-.05.22-.08.32-.02.06-.06.12-.09.18-.07.12-.17.24-.21.37-.07.21-.12.25-.33.25-.16,0-.34,0-.48.07-.12.06-.23.21-.27.34-.08.31-.1.63-.15.95.01,0,.02,0,.04,0,0,.12,0,.24,0,.35,0,.05-.06.08-.09.13-.03-.04-.1-.08-.1-.12,0-.35,0-.7.02-1.05.02-.57.25-1.07.51-1.56.12-.23.27-.44.42-.65.07-.1.17-.12.23.01.08.16.18.25.38.18.14-.05.23.07.19.22ZM15.46,31.75c-.09.01-.17.03-.31.05-.02-.05-.07-.12-.06-.17.06-.15.14-.3.22-.44.02-.03.1-.07.11-.06.11.12.27.22.31.37.05.16-.12.22-.28.25ZM16.81,32.13c-.07.16-.19.31-.3.46-.03.04-.08.07-.16.12,0-.09,0-.13.02-.16.2-.62.55-1.15,1.02-1.6.02-.02.05-.05.08-.07.09-.03.2-.14.28-.03.08.12-.06.17-.12.24-.3.32-.64.62-.82,1.04ZM18.38,33.41s0,.02-.01.03c-.12.33-.11.3-.42.17-.22-.09-.49-.09-.73-.13-.06,0-.12,0-.18.01,0-.03-.02-.05-.02-.08.08-.04.16-.07.24-.11.2-.07.39-.15.59-.22.08-.03.15-.07.23-.07.25-.02.37.15.3.39ZM19.38,33.83c-.08.17-.18.33-.29.48-.06.09-.16.14-.24.22-.02-.02-.03-.03-.05-.05.07-.15.14-.29.2-.44.04-.1.06-.2.11-.3.03-.07.12-.17.16-.16.11.03.17.14.12.25ZM20.42,29.99c-.04.06-.13.09-.2.14.01-.08,0-.17.04-.23.2-.3.42-.59.62-.89.13-.19.24-.38.35-.58.21-.38.41-.76.62-1.14.03-.05.12-.1.16-.09.06.02.1.1.15.16-.09.18-.15.36-.26.51-.49.72-.99,1.42-1.49,2.13ZM25.52,36.49c-.19.2-.3.43-.37.69-.05.19-.06.39-.09.59-.01.07-.04.13-.07.19-.05-.05-.11-.09-.16-.15-.06-.08-.11-.16-.17-.25-.09-.13-.1-.26-.05-.43.2-.59.69-.87,1.18-1.15.03-.02.06-.01.15-.03-.16.2-.28.38-.43.53Z"/>
      <path class="cls-1" d="M5.32,4.28c.16-.33.37-.61.76-.69,0,0,.01-.02.02-.03-.09-.17-.2-.2-.39-.12-.36.15-.6.43-.78.76-.13.25-.26.5-.32.77-.09.41.07.79.27,1.14.04.07.06.15.1.22-.02,0-.04.02-.06.03-.02,0-.05-.01-.06-.03-.37-.45-.57-.94-.44-1.53.01-.06,0-.14-.01-.21-.03-.12-.09-.12-.19-.04-.16.12-.32.23-.5.31-.23.11-.52.12-.62.42-.05.14-.09.29-.11.44-.05.5.13.93.49,1.26.14.13.31.32.55.11.04-.03.13,0,.19,0,.14.03.28.08.42.12.32.09.57,0,.69-.23.09-.17.11-.17.28-.07.16.1.32.22.5.28.35.13.61-.02.69-.38.01-.06,0-.12.03-.17.04-.07.1-.15.16-.2.06-.05.15-.06.22-.09.2-.09.38-.16.56.05.09.11.23.19.36.28.12.08.22.05.3-.07.03-.05.1-.12.14-.11.18.02.26-.08.35-.21.05-.07.14-.1.21-.15.08-.04.16-.07.24-.12.2-.12.2-.2.03-.36-.22-.21-.43-.41-.64-.63-.18-.18-.36-.37-.54-.56-.18-.19-.35-.15-.43.09-.03.11-.1.11-.17.06-.13-.09-.18-.03-.2.09-.02.1-.08.17-.19.11-.09-.05-.18-.17-.25-.16-.08.02-.13.15-.19.23-.01.01-.02.03-.04.04-.1.1-.2.09-.25-.04-.04-.11-.04-.24-.04-.36,0-.17,0-.34-.02-.51,0-.05-.09-.11-.15-.13-.03,0-.1.07-.13.13-.07.14-.11.3-.2.43-.22.34-.23.69-.03,1.04.18.31.38.59.68.79.12.08.13.14,0,.24-.15.13-.3.12-.47.07-.36-.11-.55-.4-.77-.66-.29-.35-.38-.74-.27-1.17.05-.18.13-.35.21-.52Z"/>
      <path class="cls-1" d="M9.51,23.51c-.13,0-.27.06-.37.13-.39.27-.55.67-.56,1.14,0,.08-.04.16-.06.23-.02.06-.04.12-.06.18.07,0,.14.03.21.02.22-.02.43-.12.66-.03.04.02.13,0,.15-.04.02-.03,0-.11-.01-.16-.02-.07-.06-.14-.07-.22,0-.1-.02-.25.04-.29.23-.18.47-.36.8-.38.17,0,.35-.05.51-.11.2-.07.39-.18.6-.24.3-.08.61-.15.93-.19.62-.08,1.25-.12,1.87-.2.29-.04.33.07.26.34-.02.1-.04.2-.05.3.02,0,.03.01.05.02.13-.09.25-.19.38-.28.25-.17.55-.29.58-.66,0-.05.02-.13,0-.16-.03-.03-.11-.03-.16-.01-.4.1-.8.09-1.2.01-.52-.11-1.04-.19-1.58-.18-.71.01-1.32.25-1.88.67-.05.04-.12.09-.18.09-.28,0-.56-.02-.83,0Z"/>
      <path class="cls-1" d="M14.08,24.2s.02-.09.03-.14c-.04,0-.09-.02-.13,0-.03,0-.06.03-.08.06-.09.09-.16.08-.23-.03-.02-.02-.04-.04-.1-.09.02.36-.21.45-.46.52-.2.05-.39.1-.59.14-.22.05-.44.08-.65.12-.29.06-.57.11-.85.19-.28.07-.55.16-.83.24-.06.02-.11.05-.16.07.05.04.1.11.15.12.24.02.49.07.72.03.44-.08.86-.21,1.3-.32.28-.07.55-.14.83-.22.02.03.03.05.05.08-.05.07-.09.17-.16.21-.14.08-.3.14-.45.18-.15.04-.27.08-.32.24-.04.11-.1.11-.18.03-.04-.04-.12-.07-.16-.06-.26.09-.57.08-.78.31-.02.02-.07.02-.1.02-.14,0-.28-.01-.42,0-.04,0-.11.03-.13.07-.09.17-.17.1-.25,0-.09-.11-.16-.23-.26-.34-.03-.03-.1-.03-.15-.05,0,.05-.01.12.01.16.09.14.19.29.3.41.15.16.31.32.55.36.52.07,1.03.08,1.53-.12.32-.13.66-.26.96-.43.22-.13.4-.33.58-.51.1-.1.17-.24.24-.36.06-.1.1-.21.17-.3.08-.1.08-.21,0-.29-.1-.11-.1-.18.03-.26Z"/>
      <path class="cls-1" d="M13.15,12.39c-.18.09-.38.18-.58.2-.55.06-.94.4-1.36.7-.06.04-.11.16-.09.23.05.26.44.45.68.32.39-.22.77-.46,1.16-.69.65-.38,1.31-.75,2.13-.6,0-.02,0-.04,0-.06.15.05.3.1.45.15.21.08.41.18.62.26.04.01.09-.02.14-.03-.02-.04-.03-.08-.06-.12-.04-.05-.1-.08-.14-.13-.43-.49-1.02-.56-1.61-.55-.45,0-.91.11-1.33.31Z"/>
      <path class="cls-1" d="M15.8,15.22c.09-.05.19-.09.28-.15.15-.09.33-.15.4-.35-.57-.04-.62-.12-.61-.36-.04.02-.07.03-.09.05-.23.14-.45.3-.69.43-.08.05-.2.05-.3.05-.43-.03-.85-.09-1.28-.11-.18,0-.36.04-.54.05-.33,0-.61.12-.84.35-.07.08-.13.21-.12.31.01.2.03.37-.13.52-.03.03-.02.09-.02.14.05,0,.11.03.14,0,.13-.07.26-.14.23-.33,0-.04.04-.1.07-.15.05.03.1.04.14.08.04.05.07.11.09.17.12.23.24.3.5.27.24-.03.29-.07.35-.36.02-.1.03-.21.02-.31,0-.12.03-.18.13-.23.61-.3,1.23-.15,1.84-.02.17.04.29.04.43-.05Z"/>
      <path class="cls-1" d="M10.74,15.26c-.02-.1-.14-.17-.21-.25-.07.08-.16.15-.2.25-.13.29-.23.59-.35.88-.03.07-.05.14-.06.17.04.25.07.45.09.65.03.3.12.58.33.81.06.07.16.11.24.16,0-.09.03-.19.02-.28-.04-.37,0-.71.28-.98.13-.13.27-.24.41-.36.17-.14.16-.18,0-.34-.2-.22-.47-.39-.55-.72Z"/>
      <path class="cls-1" d="M22.6,9.52c.11.02.23,0,.33.02.3.08.6.06.9,0,.19-.03.21-.15.09-.29-.12-.15-.26-.29-.34-.46-.16-.33-.56-.48-.8-.45-.27.03-.53.07-.8.11.07.14.13.26.19.38.06.11.11.24.2.33.07.08.14.15.12.27,0,.02.07.08.11.08Z"/>
      <path class="cls-1" d="M7.35,3.81c.06,0,.12,0,.18-.01.26-.02.45-.36.34-.6-.09-.19-.16-.39-.26-.57-.04-.08-.13-.14-.21-.22-.1.06-.16.1-.22.14-.08.06-.15.14-.24.19-.31.18-.5.53-.44.78.06.24.21.46.35.68.04.06.18.09.26.08.12-.02.12-.14.09-.25-.03-.14.03-.2.16-.21Z"/>
      <path class="cls-1" d="M24.75,23.62c-.66.01-1.32.04-1.98.05-.35,0-.69-.03-1.04-.04-.09,0-.19,0-.28.01.06.09.11.2.18.28.04.04.13.05.2.07.08.02.17.03.26.04.31.02.62.05.93.06.19,0,.37-.02.56-.04.29-.02.57-.03.86-.07.26-.03.51-.15.79.04-.07-.28-.22-.4-.47-.4Z"/>
      <path class="cls-1" d="M13.41,38.92c-.14.31-.24.64-.35.97-.09.25-.24.5-.19.79,0,.05-.01.1-.02.16-.08.47-.16.94-.22,1.41,0,.06.06.13.11.18,0,0,.11-.04.13-.08.06-.13.12-.27.14-.4.11-.66.17-1.33.32-1.98.1-.45.31-.89.47-1.33.04-.11.07-.23.11-.34-.03-.01-.06-.03-.09-.04-.13.22-.29.43-.39.67Z"/>
      <path class="cls-1" d="M25.72,27.49c-.04.11-.08.22-.11.33-.03.11-.06.21-.09.32-.04.17-.08.34-.13.5-.06.19-.12.37-.18.56.03,0,.05.02.08.03-.04.11-.08.22-.13.33-.03.06-.08.13-.08.19,0,.07.03.16.09.2.03.02.15-.02.18-.07.12-.17.27-.34.33-.53.14-.46.25-.93.35-1.41.04-.17.03-.36-.1-.5-.03-.04-.09-.08-.13-.07-.03,0-.06.07-.08.12Z"/>
      <path class="cls-1" d="M19.55,10.35c.13-.02.31-.03.48-.06.36-.07.73-.13,1.08-.22.15-.03.29-.1.42-.17.06-.03.09-.11.13-.17-.07,0-.14-.04-.21-.03-.3.06-.6.14-.91.18-.38.06-.75.13-1.13.13-.39,0-.78-.1-1.17-.15-.06,0-.13.03-.2.05.05.05.08.12.14.15.42.17.86.25,1.36.29Z"/>
      <path class="cls-1" d="M12.12,21.29s.06-.01.09-.03c.19-.08.38-.15.56-.25.06-.03.13-.14.11-.19-.06-.24-.11-.48-.32-.65-.23-.19-.44-.39-.67-.56-.09-.07-.22-.1-.34-.12-.06,0-.12.06-.19.09.04.05.08.14.13.16.12.05.25.07.37.11.21.06.27.13.25.34-.03.31-.07.61-.12.92-.02.11,0,.17.13.18Z"/>
      <path class="cls-1" d="M12.03,14.98c.05-.12.11-.19.24-.23.23-.08.45-.19.68-.28.14-.06.29-.14.44-.14.49-.02.97-.02,1.44.16.02,0,.04,0,.1,0-.09-.15-.18-.25-.34-.26-.36-.03-.73-.04-1.09-.09-.35-.05-.68,0-1.01.09-.37.11-.67.54-.61.92.06-.05.12-.1.15-.16Z"/>
      <path class="cls-1" d="M18.12,17.31c.03.05.06.1.1.15.02.02.05.02.08.04.44.23.88.47,1.33.68.26.13.54.22.81.32,0-.02.02-.04.03-.05-.15-.11-.3-.24-.47-.34-.45-.27-.91-.53-1.37-.79-.1-.06-.22-.07-.34-.08-.05,0-.11.04-.16.07Z"/>
      <path class="cls-1" d="M17.99,17.84s-.08.03-.12.05c.02.04.02.09.05.12.07.06.16.1.24.14.56.29,1.13.57,1.69.86.19.1.38.2.56.3.01-.02.03-.04.04-.06-.13-.1-.27-.17-.38-.29-.56-.58-1.3-.82-2.02-1.11-.02,0-.05-.02-.07-.01Z"/>
      <path class="cls-1" d="M17.62,18.42c.03.05.04.13.09.15.27.17.54.33.82.48.47.26.95.51,1.42.76.04.02.09.03.17.06-.03-.07-.03-.11-.05-.13-.2-.16-.39-.32-.6-.46-.36-.22-.74-.43-1.11-.63-.19-.1-.38-.19-.57-.27-.04-.02-.11.01-.16.02Z"/>
      <path class="cls-1" d="M26.53,25.29c.03.15.15.23.29.21.14-.02.21-.15.18-.31-.02-.1-.02-.2-.05-.29-.09-.25-.2-.5-.31-.74-.02-.04-.1-.07-.14-.06-.04.01-.07.08-.08.13-.01.07,0,.15,0,.23-.01,0-.02,0-.03,0,.04.28.09.55.14.83Z"/>
      <path class="cls-1" d="M14.89,15.48c-.17.12-.34.23-.48.38-.2.2-.44.29-.71.31-.09,0-.19.04-.28.06,0,.03,0,.06,0,.09.08.02.16.06.24.05.28-.04.56-.08.82-.17.24-.09.45-.24.67-.38.11-.07.13-.26.05-.35-.1-.11-.21-.05-.3.02Z"/>
      <path class="cls-1" d="M9.75,21.17s.05.12.07.17c.04-.03.1-.05.12-.09.03-.04.04-.1.05-.15.04-.27.13-.5.42-.59.05-.02.11-.11.11-.16-.03-.15-.07-.3-.14-.43-.05-.1-.13-.22-.27-.15-.14.06-.18.18-.15.32.02.08.03.16.06.26-.04.11-.08.24-.12.37-.05.15-.11.3-.15.45Z"/>
      <path class="cls-1" d="M21.24,13.14s.07-.07.1-.11c-.05-.02-.1-.07-.14-.07-.77.04-1.51-.06-2.2-.41-.05-.02-.11-.02-.17-.03,0,.02-.01.04-.02.06.04.03.07.07.12.1.56.31,1.15.52,1.8.52.17,0,.35-.03.52-.06Z"/>
      <path class="cls-1" d="M10.8,20.68c-.16.09-.3.22-.43.35-.03.03.01.14.02.22.07,0,.17,0,.2-.03.17-.2.39-.19.61-.18.12,0,.25.02.37,0,.06-.01.13-.08.15-.14.01-.04-.05-.12-.11-.15-.26-.14-.54-.2-.82-.05Z"/>
      <path class="cls-1" d="M19.14,20.79s.02-.04.03-.06c-.02-.02-.03-.05-.05-.06-.6-.44-1.21-.87-1.88-1.2-.09-.04-.19-.17-.28-.05-.02.02.11.19.2.24.5.31,1.02.61,1.53.9.15.08.31.15.46.22Z"/>
      <path class="cls-1" d="M19.76,20.28c-.05-.04-.1-.09-.15-.13-.46-.28-.91-.56-1.37-.83-.28-.17-.58-.31-.87-.46-.04-.02-.11.01-.17.02.02.05.03.12.07.14.14.1.28.19.44.26.48.25.96.48,1.45.73.19.1.38.2.57.31.01-.01.02-.03.04-.04Z"/>
      <path class="cls-1" d="M15.89,11.75c.34.34.73.62,1.17.82.1.05.21.06.31.09,0-.02.01-.03.02-.05-.01-.02-.02-.05-.04-.07-.42-.34-.84-.67-1.26-1-.04-.03-.15.01-.23.02.01.06,0,.14.04.18Z"/>
      <path class="cls-1" d="M18.36,16.66c.13.29,1.64,1,1.87.92-.14-.09-.26-.17-.39-.23-.4-.22-.8-.43-1.21-.64-.08-.04-.18-.03-.27-.05Z"/>
      <path class="cls-1" d="M18.39,20.99s.02-.03.03-.05c-.02-.03-.03-.06-.06-.08-.4-.22-.68-.61-1.12-.77-.14-.05-.26-.13-.4-.18-.07-.02-.15-.01-.22-.02.04.06.08.12.13.18,0,.01.03.02.04.03.42.24.84.48,1.27.72.11.06.22.12.33.17Z"/>
      <path class="cls-1" d="M16.01,11.26c.44.29.89.59,1.33.88.04.03.1.02.15.04,0-.02.02-.03.02-.05-.02-.03-.04-.07-.07-.09-.43-.31-.86-.62-1.3-.93-.05-.03-.11-.05-.17-.06-.03,0-.09,0-.09.02,0,.03,0,.08.02.11.02.03.06.05.1.08Z"/>
      <path class="cls-1" d="M27.26,27.89c.15-.4.3-.79.44-1.19.02-.07-.01-.16-.02-.24-.02,0-.04,0-.06,0-.01.02-.03.03-.04.05-.19.44-.37.88-.55,1.33-.03.06,0,.14-.01.21.06-.03.13-.06.19-.09.02-.01.04-.04.05-.07Z"/>
      <path class="cls-1" d="M17.8,21.26c-.29-.39-1.36-1.02-1.58-.92.22.3,1.42.99,1.58.92Z"/>
      <path class="cls-1" d="M17.53,10.67c-.06-.04-.13-.06-.19-.1-.37-.22-.74-.44-1.11-.64-.05-.03-.13,0-.19.02.04.05.06.12.11.15.25.15.5.31.76.44.23.11.47.19.7.28,0-.01.02-.03.03-.04-.04-.04-.07-.08-.11-.1Z"/>
      <path class="cls-1" d="M5.73,18.46c.19.14.42.11.62-.07.14-.12.3-.22.45-.33.03-.02.06-.05.1-.08,0-.01-.01-.02-.02-.04-.41.12-.82.24-1.27.37.05.06.08.11.12.15Z"/>
      <path class="cls-1" d="M17.61,11.5c-.36-.24-.72-.47-1.09-.7-.12-.08-.26-.13-.38-.19,0,.02-.02.04-.03.06.47.44,1.04.74,1.6,1.05.02-.01.03-.03.04-.04-.05-.06-.08-.14-.14-.18Z"/>
      <path class="cls-1" d="M17.39,10.04s.03-.05.05-.07c-.51-.27-.96-.66-1.52-.85.44.4.9.75,1.47.93Z"/>
      <path class="cls-1" d="M18.83,16.18s-.1.02-.16.04c.01.05.01.11.04.14.06.06.13.12.21.16.1.05.21.08.31.11.19.06.38.13.62.21-.02-.07-.02-.1-.03-.11-.33-.19-.66-.37-.99-.55Z"/>
      <path class="cls-1" d="M8.98,21.67c.06,0,.13.02.19,0,.05,0,.14-.03.15-.06.01-.05-.02-.12-.05-.17-.13-.15-.38-.2-.54-.08-.05.03-.1.12-.09.17.02.06.09.11.15.14.06.02.13,0,.19,0Z"/>
      <path class="cls-1" d="M15.51,8.42c.26.17.52.34.78.5.12.08.25.14.38.22.01-.02.02-.04.04-.06-.36-.37-.82-.6-1.29-.83.01.07.04.15.09.18Z"/>
      <path class="cls-1" d="M18.3,15.49c.03.06.05.15.1.18.2.12.41.23.62.33.14.07.28.11.43.17,0-.02.01-.03.02-.05-.02-.02-.05-.05-.08-.06-.3-.18-.6-.36-.9-.54-.05-.03-.12-.02-.18-.03Z"/>
      <path class="cls-1" d="M23.05,26.71c.19-.23.48-.37.51-.72-.35.05-.67.48-.51.72Z"/>
      <path class="cls-1" d="M28.52,25.13c.07-.17.13-.35.19-.53-.04-.07-.07-.12-.1-.18-.04.05-.1.1-.13.16-.06.15-.11.31-.15.47-.01.06.01.12.02.19.06-.03.14-.05.17-.1Z"/>
      <path class="cls-1" d="M15.71,7.84c-.08-.05-.18-.08-.31-.14.02.09.02.12.04.14.21.16.41.32.63.47.03.02.09,0,.13-.02,0-.05,0-.12-.03-.14-.15-.11-.3-.22-.46-.32Z"/>
      <path class="cls-1" d="M26.12,26.58c.03-.05.09-.11.08-.15-.04-.18-.09-.36-.16-.53-.02-.04-.08-.07-.12-.11-.02,0-.03.01-.04.02.03.22.05.45.1.67,0,.04.09.07.14.11Z"/>
      <path class="cls-1" d="M12.31,16.23s-.14.07-.13.09c.01.06.07.11.13.2.06-.08.13-.13.12-.16-.01-.05-.07-.12-.12-.13Z"/>
    </g>
  </g>
</svg>