<?xml version="1.0" encoding="UTF-8"?>
<svg id="Layer_2" xmlns="http://www.w3.org/2000/svg" viewBox="0 0 43.4 20.17">
  <defs>
    <style>
      .cls-1 {
        fill: #2c489e;
      }
    </style>
  </defs>
  <g id="Layer_1-2" data-name="Layer_1">
    <g>
      <path class="cls-1" d="M43.26,7.64c0-.36.13-.72.14-1.08.01-.61-.03-1.22-.05-1.83-.03-.8-.11-1.61-.06-2.4.05-.78-.22-1.4-.8-1.8-.38-.26-.91-.27-1.36-.41-.92-.29-1.77.01-2.59.37-.75.33-1.41.8-1.36,1.81,0,.04-.1.12-.15.13-.51.04-1.02.12-1.52.1-1.79-.07-3.59-.17-5.38-.28-.92-.06-1.83-.14-2.74-.25-.78-.09-1.56-.23-2.35-.34-.53-.08-1.06-.17-1.6-.23-.75-.08-1.51-.1-2.26-.2-.76-.1-1.5-.27-2.26-.39-.19-.03-.39,0-.58-.02-.49-.06-.99-.13-1.48-.2-.19-.02-.38-.03-.57-.04-.32,0-.63.01-.95-.02-.3-.03-.6-.14-.91-.15-.71-.01-1.42.03-2.13.03-.47,0-.95-.07-1.42-.07-.51,0-1.03.04-1.54.06-.07,0-.17.03-.22,0-.26-.18-.46-.14-.75,0-.23.12-.57.02-.87.03-.3,0-.6,0-.9.04-.2.03-.39.11-.58.17-.11-.03-.21,0-.31.02-.13.02-.27.02-.4.06-.1.02-.19.1-.29.12-.57.13-1.17.16-1.7.38-.75.31-1.46.72-2.17,1.13-.53.3-.94.75-1.04,1.4-.07.49-.09.99-.1,1.48-.01.56,0,1.12.01,1.69,0,.63,0,1.27.03,1.9.01.4.08.79.09,1.18,0,.29-.07.58-.08.87,0,.28.03.56.05.84,0,0,0,0,.01,0v2.98s0,0,0-.01c0-.05.03-.08,0,0H.12c0,.51.01,1,.03,1.5.01.42.12.86.03,1.26-.18.86.23,1.9,1,2.22.49.2,1,.35,1.51.46.28.06.59,0,.88-.03.74-.08,1.49-.12,2.21-.3.44-.11.99-.28,1.05-.88.06-.57.03-1.16.04-1.74,0-.04.04-.12.07-.12.24,0,.49,0,.73.02,1.02.07,2.03.15,3.04.21.9.05,1.79.07,2.69.12.76.05,1.53.13,2.29.19.68.05,1.36.08,2.04.15.76.08,1.52.2,2.29.27.51.05,1.03.02,1.54.06.48.05.96.16,1.45.22.31.04.63,0,.94.03.32.03.64.13.97.15.76.05,1.53.05,2.29.13.47.05.93.25,1.4.3.69.07,1.38.03,2.06.08.98.07,1.97.17,2.95.26.38.03.76.09,1.14.11.55.03,1.11.02,1.67.03.11,0,.22.04.42.08.03,0,.15-.05.26-.04.55,0,1.11.09,1.65.03.86-.08,1.7-.24,2.55-.39.66-.12,1.3-.33,1.7-.96.39-.61.33-1.3.33-1.98,0-1.35.02-2.7.04-4.04,0-.77.03-1.55.01-2.32-.02-.72-.1-1.43-.11-2.15ZM2.69,19.5c-.46-.06-.93-.14-1.37-.3-.23-.08-.57-.36-.56-.52.02-.24.26-.53.48-.69.35-.24.76-.38,1.14-.57.36-.17.54-.07.51.36-.01.16-.03.32-.03.48,0,.36.15.59.51.72.17.06.27.32.44.53-.43,0-.77.04-1.11,0ZM3.29,18.64c0-.06,0-.13,0-.19.22-.03.44-.07.65-.1,0,.12,0,.24,0,.35-.22-.02-.44-.04-.66-.06ZM6.33,18.96c-.37.21-.76.42-1.17.53-.36.1-.75.06-.99.08.05-.43.07-.82.18-1.2.03-.1.33-.18.49-.16.48.05.96.13,1.42.26.07.02.13.46.07.5ZM6.54,18.1c-.56-.09-1.09-.25-1.6-.24-.54.01-1.07.19-1.6.29-.04,0-.14-.02-.14-.03-.02-.25-.07-.5-.04-.74.01-.11.19-.26.3-.27.86-.09,1.72-.15,2.59-.2.16,0,.38.02.47.12.08.08.02.31.02.47,0,.23,0,.45,0,.61ZM42.29,18.21c-.97.57-2.06.66-3.12.71-1.13.04-2.27-.05-3.41-.11-1.38-.07-2.76-.15-4.14-.23-1.41-.08-2.81-.15-4.22-.26-.68-.05-1.36-.17-2.04-.23-.47-.04-.94.01-1.41-.03-.66-.06-1.31-.2-1.97-.27-.93-.09-1.87-.13-2.79-.22-.78-.08-1.56-.21-2.34-.29-.48-.05-.96-.03-1.44-.07-1.03-.1-2.05-.22-3.08-.32-.69-.07-1.38-.15-2.07-.19-.66-.04-1.33-.02-2-.04-.91-.02-1.83-.09-2.74-.08-.58,0-1.16.08-1.73.19-.68.13-1.36.3-2.01.53-.37.13-.69.42-1.03.64-.05.03-.1.05-.14.08-.02-.06-.05-.12-.05-.18,0-1.36,0-2.72-.01-4.09,0-.39-.02-.79-.03-1.18-.01-.98-.02-1.95-.04-2.93-.01-.99-.03-1.98-.03-2.97,0-.9-.01-1.79.04-2.69.04-.58.37-1.03.86-1.33.06-.04.11-.1.17-.15,0-.04-.02-.07-.02-.11,1.13-.34,2.24-.74,3.39-1,1.14-.26,2.31-.37,3.4-.54.19,0,.33,0,.48,0,.26,0,.52.03.79.03.76,0,1.52-.02,2.28,0,.78.02,1.56.07,2.35.1,1.23.05,2.47.06,3.7.16,1,.08,1.99.29,2.99.42.8.1,1.6.15,2.4.25.6.07,1.19.21,1.78.29.96.14,1.93.28,2.89.38,1.4.14,2.8.26,4.21.35,1.01.07,2.02.1,3.04.11.57,0,1.14-.07,1.71-.09.08,0,.23.13.23.21.01,1.11,0,2.23,0,3.34,0,.49.03.98.03,1.47,0,.97-.03,1.93-.04,2.9-.01,1.05-.02,2.09-.03,3.14,0,.84.01,1.68,0,2.52-.01,1.07.23,1.37,1.25,1.65.86.23,1.68.18,2.49-.2.46-.21.29-.63.32-.97.03-.36.02-.6.5-.4.42.18.96.09,1.19.66.13.33-.13.8-.55,1.05ZM39.98,17.13c.23.03.46.06.68.12.07.02.15.11.16.18.01.05-.07.14-.13.17-.96.45-1.93.44-2.88-.03-.43-.21-.17-.5.03-.66.76-.62,1.64-.77,2.58-.61.17.03.33.08.5.12-.02.47-.05.7-.44.55-.12-.05-.26-.08-.39-.06-.2.03-.4.1-.6.16.16.02.33.03.49.06ZM42.24,16.33c-.89-.28-1.79-.5-2.71-.3-.62.13-1.21.42-1.82.64-.06.02-.16.06-.17.04-.04-.06-.06-.14-.06-.21,0-1.02.02-2.03.03-3.05.02-1.55.03-3.1.05-4.64.01-1.33,0-2.65.03-3.98.02-1.03.01-2.07.13-3.09.03-.28.46-.61.77-.72.53-.2,1.12-.27,1.69-.34.23-.03.47.1.71.14.24.04.48.05.73.06.57,0,.99.39,1.23.95.2.47.05.87-.02,1.32-.07.46,0,.94,0,1.41,0,.69,0,1.38,0,2.07,0,.03-.02.06-.03.07.03.33.07.6.08.86.02,1.52.04,3.03.06,4.55.02,1.21.04,2.42.07,3.64.02.84.02.85-.78.59Z"/>
      <path class="cls-1" d="M27.19,4.93c-.19-.23-.41-.42-.52-.71-.09-.21-.21-.24-.42-.14-.11.05-.24.12-.3.22-.37.55-.73,1.11-.56,1.84.01.06,0,.14-.02.2-.06.44.08.7.48.87.09.04.18.09.28.15-.13.22-.12.41-.04.61.03.08.03.19,0,.27-.1.24-.22.47-.34.71-.06.11-.14.21-.2.32-.19.4-.35.81-.62,1.17-.22.29-.41.61-.65.88-.14.16-.32.3-.52.38-.54.24-1.11.23-1.69.16-.35-.05-.41-.12-.29-.45.2-.56.4-1.12.74-1.62.1-.15.17-.32.25-.49.19-.4.38-.81.58-1.2.05-.11.16-.19.25-.29.42.35.66.32.94-.09.06-.09.14-.19.17-.3.1-.3.34-.56.31-.9-.04-.41,0-.83-.31-1.17-.05-.05-.07-.12-.1-.18-.17-.31-.37-.61-.51-.93-.15-.33-.26-.38-.56-.16-.08.06-.17.13-.22.21-.18.28-.34.57-.51.86-.04.07-.07.15-.08.22-.12.61-.05,1.18.3,1.71.11.16.14.34.04.52-.05.1-.1.21-.15.31-.25.5-.58.96-.73,1.51-.02.06-.06.12-.09.18-.06.13-.13.27-.19.4-.26.55-.52,1.09-.79,1.63-.02.05-.11.08-.17.08-.04,0-.08-.07-.11-.11-.03-.05-.03-.11-.05-.17-.22-.89-.4-1.79-.38-2.71,0-.29.05-.6.13-.88.11-.37.38-.45.72-.28.43.22.56.18.77-.27.04-.08.06-.17.08-.26.05-.16.09-.33.15-.49.15-.4.1-.8-.04-1.17-.18-.47-.62-.75-.97-1.09-.03-.03-.08-.06-.12-.06-.24-.02-.39-.17-.53-.34-.16-.19-.29-.17-.43.05-.05.08-.1.17-.1.25-.03.4-.18.77-.14,1.19.04.44.1.83.38,1.18.04.05.1.11.12.17.03.16.09.34.06.5-.04.21-.14.41-.24.6-.35.66-.3,1.38-.32,2.09-.02.64,0,1.28,0,1.92,0,.24-.04.48-.06.72-.02.24-.02.48-.05.71-.04.3-.11.59-.14.88-.03.29.13.49.41.48.39-.01.78.05,1.16.07.45.02.91-.06,1.36.08.03,0,.07,0,.1,0,.25,0,.5.02.75.03.09,0,.18.01.27,0,.46-.02.75-.35,1.02-.64.48-.51.74-1.15.89-1.83.04-.16.05-.32.09-.47.09-.42.22-.84.29-1.27.09-.54.2-1.08.43-1.58.07-.16.16-.31.19-.48.06-.38.27-.65.52-.91.29-.29.51-.63.56-1.04.03-.27.09-.57,0-.81-.1-.31-.3-.59-.52-.84Z"/>
      <path class="cls-1" d="M17.89,3.87c-.19-.06-.35-.14-.47-.31-.11-.15-.19-.15-.3-.01-.24.31-.45.64-.47,1.05-.01.16-.01.34-.1.46-.23.33-.17.64-.04.98.12.31.15.34.49.36.3.01.4.09.51.36.03.07.06.15.11.21.18.21.21.46.15.71-.09.34-.08.71-.28,1.02-.04.05-.04.13-.05.2-.1.56-.21,1.12-.5,1.63-.25.43-.59.76-.98,1.04-.25.18-.53.06-.63-.24-.04-.13-.06-.27-.06-.41-.02-.35-.11-.68-.25-1-.13-.32-.25-.64-.36-.97-.16-.46-.22-.94-.24-1.42-.02-.43.11-.55.53-.56.13,0,.27-.03.4-.08.24-.08.36-.27.42-.5.06-.22-.03-.38-.2-.51-.04-.03-.05-.09-.1-.2.14,0,.2.01.27.01.23,0,.35-.1.34-.32,0-.09-.03-.18-.06-.27-.16-.52-.56-.86-.97-1.17-.23-.17-.47-.31-.67-.53-.25-.29-.44-.26-.59.08-.11.27-.17.57-.26.85-.15.47-.06.91.12,1.34.1.24.23.48.3.73.05.19.1.42.05.6-.17.64-.18,1.29-.15,1.94.02.46.15.9.36,1.32.2.37.4.74.59,1.12.06.12.09.26.11.39.02.19-.06.33-.24.41-.39.19-.77.41-1.17.58-.24.1-.32.26-.33.5-.02.43-.08.87-.11,1.3-.02.24-.06.48-.05.72.02.39.26.53.62.37.31-.14.62-.3.92-.44.59-.27,1.13-.64,1.73-.9.1-.04.2-.12.3-.17.12-.07.24-.15.37-.18.45-.13.74-.46.89-.85.19-.5.33-1.02.25-1.58-.07-.54-.09-1.1-.09-1.64,0-.7.02-1.41.08-2.11.03-.31.08-.67.47-.81.06-.02.12-.08.15-.13.19-.43.4-.84.38-1.34-.03-.67-.55-1.46-1.19-1.66Z"/>
      <path class="cls-1" d="M33.87,13.95c.08-.59.11-1.18.12-1.77,0-.21,0-.41,0-.62.02-.64.05-1.27.08-1.91,0-.03-.01-.07,0-.1.02-.26.04-.52.06-.78,0-.08.03-.16.03-.24-.03-.39-.06-.77.02-1.16.02-.08,0-.18-.03-.27-.08-.25-.18-.5-.26-.75-.16-.46-.51-.77-.91-.93-.5-.2-1.03-.39-1.6-.29-.12.02-.25-.01-.37-.03-.31-.04-.61-.12-.92-.13-.23,0-.42-.06-.59-.21-.27-.24-.49-.18-.65.15-.14.28-.19.59-.17.9,0,.14,0,.27-.02.41-.08.54-.04,1.05.37,1.46.02.02.03.04.04.05.2.19.2.4.08.62-.11.19-.22.38-.32.57-.21.43-.38.86-.23,1.35.02.05,0,.11.01.17.02.37.03.73.08,1.1.06.46.02.85-.5,1.03-.19.06-.28.21-.31.42-.05.46-.1.91-.16,1.36,0,0-.02,0-.03,0,.01.29.01.57.04.86.02.24.12.35.36.4.17.03.34.03.51.06.7.12,1.44-.52,1.65-1.15.12-.37.14-.76.19-1.15.01-.08-.01-.16-.03-.23-.15-.61-.37-1.2-.66-1.76-.1-.18-.18-.38-.2-.58-.06-.66-.22-1.3-.09-1.98.1-.48.33-.8.86-.75.28.03.58.03.86,0,.59-.08,1.05.24,1.55.46.09.04.16.13.21.22.14.24.27.48.38.73.06.14.08.31.09.47.02.35.02.71.03,1.06,0,.09.02.19,0,.27-.12.54-.17,1.09-.06,1.64.02.09,0,.18,0,.27-.03.46-.05.91-.09,1.37-.02.19-.07.38-.09.57-.02.18-.05.36-.04.54,0,.08.1.21.17.23.09.01.25-.04.29-.11.16-.29.33-.57.3-.93-.03-.3-.06-.6-.02-.89Z"/>
      <path class="cls-1" d="M9.42,9.3c-.15-.7-.3-1.39-.44-2.09-.04-.19-.02-.37.17-.5.1-.07.19-.17.27-.27.16-.2.36-.39.36-.67,0-.3.03-.61-.02-.9-.11-.57-.38-.88-.92-.94-.35-.04-.72-.04-1.08-.04-.59,0-1.18.03-1.77.03-.26,0-.52,0-.77-.05-.38-.06-.6.03-.66.4-.07.41-.07.82-.08,1.24,0,.08.05.16.07.25.05.18.1.36.16.53.09.25.23.48.52.52.38.04.77.08,1.15.08.71,0,1.42-.01,2.16-.02.04.11.1.22.11.33.08.66.13,1.32.1,1.99-.02.44-.03.89-.04,1.33,0,.41.02.82.02,1.24,0,.39.01.77,0,1.16,0,.11-.02.23-.05.34-.06.25-.13.5-.18.75-.01.07.02.18.07.23.09.1.21.17.37.3.12-.22.26-.39.32-.59.21-.62.4-1.25.57-1.89.05-.19.05-.4.01-.59-.14-.73-.3-1.45-.46-2.17Z"/>
      <path class="cls-1" d="M5.58,10c.03-.24.08-.48.12-.74-.23-.02-.38.04-.46.19-.1.2-.21.41-.25.63-.08.43-.13.86-.17,1.29-.05.58-.11,1.16.02,1.74.04.19.04.39-.03.6-.11.32-.17.65-.24.98-.05.25.1.38.39.33.22-.03.36-.16.45-.31.19-.33.36-.67.54-1,.02-.04,0-.1.02-.14.08-.62.01-1.22-.15-1.83-.15-.56-.32-1.14-.24-1.73Z"/>
      <path class="cls-1" d="M12.91,2.44c-.1,0-.19.01-.29.02-.19.02-.33.12-.41.27-.12-.09-.3-.14-.49-.14-.1,0-.19.01-.29.02-.25.03-.4.18-.48.4-.09.23-.16.48-.2.72-.08.47-.15.94-.2,1.42-.02.22-.01.45.02.67.04.24.18.28.39.15.19-.12.31-.29.37-.51.03-.1.06-.21.1-.3.12-.25.25-.51.38-.76-.03.2-.05.4-.07.6-.02.22-.01.45.02.67.04.24.18.28.39.15.19-.12.31-.29.37-.51.03-.1.06-.21.1-.3.28-.56.55-1.12.84-1.67.31-.57-.07-.9-.57-.9Z"/>
    </g>
  </g>
</svg>