<?xml version="1.0" encoding="UTF-8"?>
<svg id="Layer_2" xmlns="http://www.w3.org/2000/svg" viewBox="0 0 40.25 22.61">
  <defs>
    <style>
      .cls-1 {
        fill: #2c489e;
      }
    </style>
  </defs>
  <g id="Layer_1-2" data-name="Layer_1">
    <g>
      <path class="cls-1" d="M40.25,16.6c.05-.2-.4-.54-.67-.78-.32-.28-.69-.51-1.1-.81.47-.38.82-.68,1.18-.97.81-.67.78-1.19-.11-1.79-.32-.21-.61-.46-.95-.72.46-.42.84-.76,1.21-1.11.48-.45.45-.94.04-1.42-.13-.16-.3-.3-.44-.45-.51-.55-.52-.93-.04-1.53.12-.15.23-.31.38-.41.53-.34.37-.68.03-1.02-.39-.39-.81-.75-1.24-1.16.43-.5.82-.99,1.23-1.45.33-.38.28-.71-.05-1.04-.44-.42-.9-.81-1.3-1.27-.46-.53-.76-.34-1.09.13-.3.42-.64.82-1,1.27-.52-.62-.95-1.13-1.38-1.65-.5-.6-.68-.6-1.16.01-.4.51-.81,1.01-1.25,1.54-.45-.52-.88-.97-1.25-1.47-.38-.5-.69-.46-1.05,0-.37.49-.76.97-1.13,1.44-.46-.55-.89-1.03-1.3-1.53-.46-.56-.58-.56-1.06.02-.43.53-.87,1.05-1.34,1.62-.47-.6-.88-1.07-1.24-1.58-.33-.47-.58-.42-.9,0-.4.53-.86,1.02-1.32,1.56-.3-.34-.55-.6-.78-.89-.11-.14-.17-.32-.27-.48-.4-.68-.76-.7-1.25-.08-.29.36-.58.73-.88,1.08-.28.32-.53.3-.78-.06-.26-.38-.56-.74-.85-1.1-.3-.37-.6-.37-.92.01-.39.48-.82.93-1.3,1.47-.44-.58-.78-1.1-1.19-1.57-.48-.55-.69-.52-1.16.03-.41.48-.83.96-1.28,1.48-.46-.54-.84-.99-1.22-1.42-.29-.34-.58-.33-.87.03-.3.39-.6.77-.92,1.14-.22.27-.41.29-.66-.04-.43-.56-.92-1.06-1.44-1.64-.61.69-1.16,1.3-1.66,1.86-.52-.41-1.02-.7-1.38-1.12-.49-.58-.85-.4-1.27.02-.41.41-.82.83-1.23,1.24-.51.51-.5.7.09,1.15.49.38.97.75,1.52,1.17-.57.45-1.05.82-1.52,1.2-.72.58-.72.68.05,1.25.39.3.79.59,1.26.95-.57.44-1.01.79-1.44,1.13-.64.5-.64.62.03,1.12.49.37.97.75,1.52,1.18-.53.45-.92.81-1.34,1.13-.91.7-.91.86-.02,1.53.38.28.74.6,1.19.96-.6.51-1.09.93-1.59,1.33-.5.4-.52.64-.03,1.05.32.27.66.51,1.02.73.37.24.51.46.1.8-.32.27-.59.59-.9.87-.33.28-.29.53-.03.83.44.54.87,1.09,1.29,1.65.33.45.7.46,1.06.1.35-.36.65-.77.95-1.18.31-.43.57-.29.81.05.22.3.42.62.66.9.5.59.63.58,1.13,0,.4-.47.81-.94,1.29-1.5.4.53.74.96,1.07,1.41.44.6.7.61,1.2.05.42-.47.85-.94,1.32-1.45.39.54.73,1.01,1.07,1.48.34.46.68.53,1.06.04.24-.31.53-.59.76-.91.33-.47.62-.51.96-.01.22.33.48.63.72.95.46.62.59.63,1.08.03.4-.49.81-.97,1.25-1.51.5.66.9,1.2,1.31,1.73.29.38.58.4.91.02.46-.54.95-1.06,1.46-1.63.42.55.78,1.02,1.16,1.49.34.43.67.41,1.02-.01.41-.49.86-.94,1.36-1.48.43.6.76,1.1,1.13,1.57.45.58.76.54,1.19-.05.36-.5.76-.97,1.21-1.54.35.52.61.9.87,1.28.54.8.91.81,1.54.06.34-.4.7-.78,1.1-1.22.33.46.59.81.85,1.17.63.86.84.89,1.62.13.4-.39.74-.85,1.16-1.33.38.53.73.99,1.05,1.46.32.47.67.54,1.09.13.47-.45.92-.92,1.4-1.36.66-.61.46-1.19-.34-1.83-.28-.22-.59-.39-1.01-.67.49-.32.88-.52,1.2-.81.31-.28.66-.63.75-1.01ZM38.21,19.08c.38.33.74.69,1.17,1.08-.45.45-.84.84-1.23,1.23-.27.27-.49.2-.69-.08-.23-.32-.46-.64-.69-.96-.44-.56-.76-.58-1.24-.08-.47.48-.94.95-1.44,1.45-.41-.5-.79-.93-1.15-1.39-.38-.48-.7-.52-1.1,0-.37.47-.8.9-1.25,1.39-.4-.5-.75-.95-1.11-1.39-.31-.38-.61-.46-.96-.02-.42.52-.87,1.01-1.38,1.6-.44-.59-.79-1.08-1.16-1.56-.42-.54-.65-.53-1.1-.02-.41.47-.84.92-1.31,1.43-.4-.52-.74-.98-1.1-1.42-.35-.43-.73-.44-1.11,0-.41.47-.84.92-1.34,1.47-.36-.49-.67-.91-.99-1.32-.5-.64-1.01-.92-1.49-.06-.25.45-.7.79-1.13,1.27-.39-.5-.71-.94-1.05-1.37-.52-.64-.8-.63-1.32,0-.33.41-.66.82-1.08,1.34-.42-.56-.8-1.01-1.14-1.5-.3-.44-.57-.47-.94-.07-.44.5-.92.97-1.43,1.5-.4-.49-.76-.91-1.09-1.35-.35-.47-.72-.57-1.14-.11-.43.48-.86.96-1.35,1.51-.37-.46-.71-.87-1.04-1.29-.45-.59-.72-.61-1.2-.04-.39.46-.77.92-1.26,1.52-.39-.62-.74-1.12-1.02-1.66-.07-.13.04-.41.14-.56.17-.25.39-.46.6-.68.68-.7.54-1.3-.38-1.72-.32-.15-.63-.33-1.1-.59.5-.36.84-.63,1.21-.85,1-.61,1.04-1.25.12-1.93-.77-.57-.8-.99-.12-1.61,1.21-1.1,1.21-1.1-.05-2.08-.42-.32-.47-.69-.18-1.08.22-.29.51-.53.77-.79.37-.37.48-.74,0-1.1-.09-.07-.17-.15-.26-.23q-.96-.89.02-1.7c.05-.04.11-.09.16-.13.89-.71.86-1.08-.1-1.69-.38-.24-.72-.57-1.09-.88.07-.1.11-.18.18-.24q1.28-1.19,2.44.14c.46.53,1.03.47,1.49-.17.2-.28.41-.56.62-.84.27-.36.54-.3.79.03.27.35.54.7.81,1.05.3.41.6.38.92.04.32-.34.67-.65.96-1,.38-.45.65-.3.93.1.17.25.39.47.55.72.33.51.67.39,1.01.02.31-.34.61-.7.91-1.05.3-.36.59-.34.86.02.28.37.54.75.82,1.13.29.39.61.47.98.07.3-.33.65-.61.93-.94.4-.46.7-.34,1,.09.16.23.33.45.5.67.43.56.69.56,1.15,0,.22-.27.42-.55.66-.81.38-.41.75-.52,1.13.03.22.33.49.62.75.92.28.33.6.36.89.02.44-.5.86-1.02,1.37-1.63.37.48.7.91,1.03,1.35.42.56.83.56,1.27.01.4-.5.82-.99,1.28-1.55.43.58.81,1.13,1.22,1.66.46.6.74.58,1.17-.05.31-.45.61-.91.98-1.46.42.54.76.97,1.09,1.4.57.73,1.36.6,1.76-.26.2-.43.49-.81.8-1.32.46.6.85,1.12,1.25,1.61.54.66.76.66,1.31.03.35-.4.71-.8,1.11-1.25.4.4.79.75,1.13,1.15.09.11.07.41-.02.54-.28.4-.61.76-.92,1.13-.29.35-.29.66.07.97.27.23.5.49.78.7.45.35.4.67,0,1.03-.29.26-.54.58-.84.84-.43.39-.34.69.07,1.02.45.35.87.75,1.35,1.16-.53.52-.98.98-1.46,1.42-.41.38-.38.69.07,1.02.44.32.86.69,1.36,1.09-.51.47-.95.88-1.39,1.29-.54.49-.53.72.04,1.14.43.31.85.62,1.33.97-.49.45-.91.87-1.37,1.26-.63.53-.63.68.01,1.22Z"/>
      <path class="cls-1" d="M26.74,6.64c-.02-1.16-.04-1.16-1.18-1.29-.61-.07-.7-.05-.94.52-.37.89-.93,1.62-1.7,2.17-.44.32-.61.7-.6,1.21,0,.24-.03.48-.01.72.02.22.09.44.16.77.35-.14.61-.23.86-.35.56-.27.73-.21.75.43.08,1.79.12,3.58.18,5.38.01.36.02.72.03,1.08,0,.35.17.54.53.53.48-.01.96-.04,1.43-.05.41-.01.62-.23.63-.62.01-.55.01-1.1,0-1.65-.05-2.94-.09-5.89-.15-8.83Z"/>
      <path class="cls-1" d="M34.58,10.19c-.73-.64-1.6-.96-2.51-1.14-.51-.1-.69-.36-.64-1,.04-.53.31-.78.83-.79.74-.02,1.48-.03,2.21-.05.71-.02.71-.02.85-.76.05-.26.12-.51.16-.77.08-.55-.07-.68-.62-.65-1.02.06-2.05.09-3.07.12-.5.02-1,.05-1.5.04-.62,0-.63-.02-.76.57-.27,1.21-.53,2.43-.8,3.64-.12.56-.27,1.11-.37,1.68-.07.37.08.54.42.46.84-.19,1.66-.05,2.49.04.7.08,1.2.34,1.54.99.4.75.25,1.71-.5,2.11-.39.21-.85.27-1.28.4-.73.21-1.4.13-2.02-.34-.11-.08-.26-.12-.4-.16-.39-.09-.56,0-.59.38-.04.59-.05,1.2-.03,1.79.02.61.14.74.76.84.64.1,1.28.13,1.92.19.99.08,1.9-.25,2.81-.57.64-.22,1.1-.68,1.47-1.21.71-1.01,1.09-2.11.86-3.37-.17-.94-.47-1.78-1.22-2.44Z"/>
      <path class="cls-1" d="M11.88,15.1c-.8.02-1.61.04-2.5-.17.18-.33.31-.61.48-.85.73-1.01,1.38-2.06,1.85-3.22.42-1.03.55-2.08.33-3.17-.25-1.25-1-2.1-2.2-2.52-1.43-.5-2.84-.18-4.23.23-.16.05-.34.31-.35.48-.04.68-.02,1.37-.02,2.21.4-.12.65-.17.89-.26.59-.24,1.19-.29,1.82-.18,1.23.22,1.56.99,1.29,2.02-.18.7-.53,1.32-.94,1.92-.77,1.12-1.45,2.3-2.21,3.43-.46.69-.99,1.35-1.5,2.01-.14.18-.3.38-.13.56.12.13.37.18.57.18.36,0,.71-.09,1.07-.08,1.62.02,3.25.04,4.87.1.51.02.81-.23,1.03-.63.19-.33.35-.68.52-1.02.15-.29.48-.61.21-.9-.16-.17-.57-.15-.86-.15Z"/>
      <path class="cls-1" d="M15.33,5.34c-.22.14-.45.28-.6.48-.51.66-.92,1.38-1.16,2.2-.23.77-.23,1.55-.31,2.33-.12,1.27-.07,2.5.25,3.75.29,1.13.82,2.08,1.66,2.86.27.25.61.44.94.63.69.4,1.4.07,2.1,0,.28-.03.57-.1.82-.24,1.1-.63,1.71-1.67,1.99-2.84.27-1.11.32-2.26.41-2.98-.07-1.79-.12-3.13-.61-4.45-.76-2.02-3.44-3.07-5.47-1.75ZM18.17,13.55c-.05.26-.1.52-.21.76-.25.53-.73.61-1.18.23-.37-.32-.52-.76-.54-1.21-.04-.69,0-1.38,0-2.08-.03,0-.05,0-.08,0,.06-.86.1-1.71.2-2.57.03-.29.18-.59.36-.84.33-.47.81-.48,1.09.02.23.4.4.88.46,1.34.17,1.45.22,2.91-.09,4.36Z"/>
    </g>
  </g>
</svg>