<?xml version="1.0" encoding="UTF-8"?>
<svg id="Layer_2" xmlns="http://www.w3.org/2000/svg" viewBox="0 0 51.69 12.06">
  <defs>
    <style>
      .cls-1 {
        fill: #2c489e;
      }
    </style>
  </defs>
  <g id="Layer_1-2" data-name="Layer_1">
    <g>
      <path class="cls-1" d="M21.84,9.67c-.13-.31-.25-.63-.35-.95-.12-.38-.22-.76-.34-1.15-.03-.11-.09-.21-.12-.32-.07-.25-.14-.5-.19-.75-.06-.24-.11-.49-.15-.74-.02-.14-.03-.25-.23-.22.03-.05.04-.08.06-.1.2-.13.1-.29.06-.45-.01-.04-.04-.08-.04-.12,0-.11.04-.23,0-.34-.1-.42-.23-.84-.34-1.26,0-.02,0-.03-.02-.05-.24-.33-.44-.71-.81-.93-.14-.08-.28-.16-.42-.23-.03-.01-.06-.01-.1-.01-.13,0-.26-.02-.38-.02-.12,0-.25,0-.37.03-.15.03-.31.14-.45.11-.18-.03-.25.05-.34.15-.02.02-.06.05-.08.05-.28,0-.44.24-.61.39-.31.26-.56.6-.76.96-.21.36-.41.71-.62,1.07-.02.04-.04.09-.08.12-.03.02-.11.04-.13.02-.11-.12-.14-.06-.18.06,0,.03-.08.06-.12.05-.03,0-.07-.08-.06-.11.02-.09.06-.17.1-.26.06,0,.11.02.16.02.02-.03.04-.05.07-.08-.05-.02-.11-.06-.14-.04-.14.08-.19-.07-.31-.11.14-.07.28-.11.36-.02.12.12.22.09.31.04.07-.22.12-.41.18-.61.15-.47.23-.93-.13-1.34-.01-.01-.02-.03-.03-.04-.17-.26-.42-.37-.73-.34-.1.01-.2.01-.3,0-.11,0-.21-.04-.31-.03-.22,0-.45.03-.67.03-.21,0-.43.02-.64.01-.25-.01-.5-.04-.75-.08-.12-.02-.22-.08-.29-.11-.11-.09-.18-.15-.25-.21-.05-.04-.12-.05-.18-.09-.36-.29-.63-.65-.86-1.04-.02-.03-.06-.04-.1-.07-.02.04-.06.09-.06.12.03.11.07.22.11.32.08.22.17.43.25.65.08.21.18.41.25.62.05.14.08.3.09.45.01.19,0,.37-.02.56,0,.17.01.34-.02.5-.06.24-.17.47-.22.72-.05.2-.14.33-.33.42-.07.03-.13.19-.12.27.03.12.14.12.27.08.21-.06.43-.09.64-.1.33-.01.67,0,1,0,.13,0,.26.01.38,0,.25-.02.49-.14.74.02.01,0,.05,0,.06-.01.15-.12.29-.02.43.01.17.04.33.16.34.32.02.26.03.55-.07.79-.11.29-.33.54-.5.8-.01.02-.03.04-.04.07-.05.08-.09.18-.16.24-.11.1-.11.18,0,.29.23-.21.45-.41.67-.61.01,0,.02-.03.02-.04.14-.27.26-.55.42-.81.2-.33.5-.56.83-.75.04-.03.12-.03.14-.06.08-.12.19-.15.32-.19.16-.04.3-.15.47-.21.15-.05.27-.16.45-.14.07.01.15.02.22.02.35,0,.7-.03,1.05,0,.33.04.66.14.99.22.14.03.29.05.39.14.39.32.77.65,1.13,1,.09.09.14.23.17.36.04.15.02.3.05.45.07.31-.02.6-.11.89-.05.16-.17.18-.32.1-.03-.02-.07-.02-.11-.02-.37.05-.75.1-1.12.16-.1.02-.2.06-.32.1-.05-.08-.16-.1-.29-.06-.08.03-.17.04-.26.05-.18.02-.36.03-.54.04-.12,0-.24.01-.36.03-.11.02-.22.08-.33.11-.08.02-.19.08-.23.05-.13-.12-.26-.09-.4-.07-.28.04-.56.08-.84.12-.03,0-.07.03-.1.06-.12.08-.23.17-.35.26,0,0-.02-.01-.03-.02.03-.08.06-.17.1-.29-.1.04-.16.05-.21.08-.07.04-.12.07-.22.04-.13-.04-.3-.03-.43,0-.14.04-.26.04-.4,0-.04-.01-.13.02-.15.06-.07.15-.14.31-.19.47-.05.16-.07.33-.1.49-.03.15-.14.3-.16.43-.03.17-.1.3-.16.45-.13.32-.23.65-.35.97-.04.11.02.17.1.17.08,0,.16-.03.23-.05.05-.01.11-.06.14-.04.15.08.26-.02.39-.05.16-.04.33-.06.49-.07.11-.01.22,0,.32-.02.15-.02.3-.06.45-.09,0,.03.02.06.02.09.23-.06.45-.11.68-.16.03,0,.06.02.1.04.1.03.22.11.29.08.27-.14.56-.15.85-.15.09,0,.19.01.28,0,.27-.05.53-.12.8-.17.04,0,.08-.01.12,0,.3.02.59,0,.88-.07.16-.04.34-.09.48-.06.23.06.44.03.64-.05.12-.05.22-.07.3.03.07-.03.13-.07.19-.08.2-.03.4-.06.6-.08.15-.02.29-.02.44-.02.09,0,.19.01.29.02,0,.02,0,.03,0,.05.12-.07.24-.14.36-.2.15-.08.21-.2.14-.35-.09-.22-.21-.43-.29-.65ZM11.6,3.42c.1-.09.18-.16.25-.23.04.11.08.18.1.23h-.35ZM12.32,4.53s-.04-.03-.07-.04c.03-.08.06-.16.09-.23.04.04.11.1.1.12-.02.06-.08.11-.13.16ZM12.53,3.29c-.09.06-.18.1-.27.16-.01-.02-.03-.04-.05-.06.09-.06.17-.13.26-.19.01,0,.05,0,.06.01,0,.03.01.08,0,.09ZM18.23,3.29c.06-.17.24-.21.44-.07-.15,0-.28-.01-.3.16,0,.02-.07.02-.11.03-.01-.04-.04-.09-.03-.13ZM18.79,4.42c-.14-.03-.28-.06-.42-.09.13-.14.24-.27.35-.39.07.04.14.09.22.14-.05.11-.1.23-.15.35ZM18.54,3.74c.04-.09.06-.15.09-.21.01-.02.07-.03.1-.02.06,0,.12.02.19.04.01,0,.02.02.04.03-.13.05-.26.1-.41.16ZM19.7,4.31c-.1-.32-.09-.34.09-.3-.02.04-.03.09-.05.14.1.03.26-.08.3.11-.12.02-.23.04-.35.06ZM20.23,4.25c-.06-.15-.33-.13-.24-.37.19.02.33.21.24.37ZM13.92,11.02c-.07-.01-.15-.02-.22-.03,0-.01,0-.03-.01-.04.04-.03.08-.08.11-.08.05.01.1.07.14.1,0,.02-.01.03-.02.05ZM14.24,10.86s-.03-.04-.03-.07c0,0,.02-.03.03-.03.08-.02.27.12.31.24-.12-.05-.22-.1-.31-.15ZM14.66,10.55c-.06-.02-.11-.04-.17-.06.02-.05.04-.1.08-.19.05.09.09.15.12.21,0,.01-.02.03-.03.04ZM15.22,9.01c-.07,0-.13-.03-.25-.05.11-.04.17-.08.23-.09.03,0,.07.04.11.07-.03.03-.06.07-.08.07ZM16.99,8.58s.07-.02.11-.03c0,.04.02.08,0,.11-.04.07-.1.13-.15.19-.02,0-.04-.02-.07-.03.03-.08.06-.17.1-.25ZM15.73,9.83c-.1-.04-.18-.06-.25-.09-.05-.03-.1-.08-.14-.13.06-.03.13-.09.18-.08.12.03.23.09.37.14-.07.08-.12.12-.15.16ZM16.83,10.53s.11.05.15.09c.03.04.04.11.06.16-.05,0-.1-.01-.18-.02,0,0-.01.04-.04.05-.04.02-.1.03-.13.01-.03-.01-.04-.07-.04-.11,0-.04.03-.08.03-.11-.02-.09-.05-.19-.09-.27,0-.01-.12.03-.18.04-.03,0-.05,0-.05-.03-.09-.09-.16-.18-.26-.25-.08-.06-.18-.08-.27-.12.07-.12.13-.21.19-.3.02,0,.04.01.06.02,0,.07-.02.14-.02.21.04.04.09.08.14.12.05.03.1.05.16.07.03-.07.06-.15.09-.22,0-.03-.02-.07,0-.09.01-.02.06-.04.09-.03.03.01.06.05.06.08,0,.07,0,.14,0,.21.08.02.16.05.25.07.16-.11.28-.05.32.15-.11.05-.22.09-.32.15,0,0,0,.09.03.11ZM17.48,10.44c-.07-.07-.14-.14-.21-.2.02-.02.04-.04.06-.06.07.07.14.14.21.2-.02.02-.04.04-.06.06Z"/>
      <path class="cls-1" d="M51.65,3.97s0-.02,0-.03c.02-.28-.06-.37-.39-.36.1-.1.18-.16.25-.23-.01,0-.02-.02-.03-.03-.06.01-.11.02-.14.03-.11-.14-.2-.27-.3-.4-.03.02-.07.05-.12.09.01-.25-.19-.1-.28-.15,0-.02,0-.04,0-.05.17-.01.33-.03.52-.04-.11-.11-.2-.21-.3-.28-.13-.09-.27-.15-.42-.21-.11-.05-.24-.1-.35-.1-.22,0-.45-.12-.67,0-.02,0-.05-.01-.08-.02-.14-.04-.26-.1-.42-.07-.19.03-.4.02-.6.02-.12,0-.25-.05-.35.09.06,0,.11.01.2.02-.07.05-.12.11-.14.1-.1-.05-.19-.12-.28-.18-.03.06-.07.14-.11.21-.01,0-.02-.01-.04-.02,0-.07.01-.14.02-.23-.1.02-.17.05-.25.05-.1,0-.21-.03-.31-.05-.17-.03-.36.08-.52-.08,0-.01-.05,0-.08.01-.21.03-.41.07-.62.1-.04,0-.08.02-.12.04-.07.04-.14.08-.25.13v-.16c-.06,0-.11-.01-.17-.02-.02.06-.05.13-.07.19-.1-.02-.19-.04-.28-.06,0-.01,0-.02,0-.04.07-.02.14-.05.22-.08-.15-.15-.24,0-.34.05-.14.07-.23.27-.43.13-.03-.02-.1.04-.15.07-.01,0-.03.01-.05.02-.03-.03-.07-.06-.11-.09.12-.06.24-.11.37-.18-.21,0-.39,0-.56,0-.25-.01-.49-.03-.74-.04-.24,0-.48,0-.72-.01-.16-.01-.33-.09-.48-.07-.23.04-.45.12-.69.06-.02,0-.04,0-.07,0-.26.07-.51.03-.75-.05-.21-.06-.41-.18-.61-.27-.15-.07-.28-.16-.36-.31-.05-.09-.13-.18-.22-.25-.31-.24-.53-.54-.67-.9-.02-.06-.08-.11-.13-.16-.02,0-.03,0-.05.01,0,.11-.03.23-.02.33.01.08.09.15.11.23.03.09.02.19.04.28.05.16.12.31.18.47.03.08.03.17.06.25.1.31.21.61.3.92.05.18.07.37.09.56.02.26.06.52.04.77-.02.2.04.45-.17.56.12.27-.18.38-.19.6.24.06.48.12.74.09.15-.02.3-.06.44-.04.31.06.65.05.88.29.17.18.35.37.46.59.09.19.21.4.14.64,0,0,0,.01,0,.02.14.28-.02.53-.08.79-.02.07-.04.15-.06.22-.02.09-.05.18-.07.27-.02.09-.04.18-.07.29-.15.07-.31.31-.27.45.04.13.08.25.13.37.16.39.33.77.48,1.16.04.09.04.2.07.3.09.27.18.53.3.79.05.11.05.26.2.31.13-.24.22-.48.22-.75,0-.27.04-.53.07-.8.01-.11.07-.22.1-.33.02-.08.04-.16.06-.24.01-.05.03-.1.04-.15,0-.12.01-.24,0-.36,0-.07-.04-.14-.07-.2.14-.01.15-.06.14-.24,0-.18-.14-.17-.24-.23.04,0,.08,0,.14-.01-.03-.1-.05-.2-.09-.27-.18-.31-.38-.61-.56-.92-.04-.07-.04-.17-.05-.26-.02-.17-.01-.35-.07-.5-.06-.16-.04-.3,0-.45.06-.28.12-.56.18-.83.03-.12.1-.22.23-.22.14,0,.27.01.41,0,.21,0,.42-.03.63-.02.16,0,.31.04.47.04.22,0,.44-.02.66-.02.26,0,.53,0,.79-.01.08,0,.21-.07.24-.04.16.2.35,0,.54.05.2.06.44-.04.67-.05.18,0,.37.02.55.03l1.45.44s-.04.07-.07.1c.01.01.02.03.03.04.07-.05.14-.1.19-.14.27.12.53.22.78.35.12.06.24.14.33.23.1.11.16.26.25.39.11.15.19.3.15.5-.03.11,0,.24,0,.35-.04.05-.11.1-.1.13.03.14-.02.25-.1.37-.04.05-.02.14-.03.21,0,.04,0,.09-.02.12-.06.15-.12.3-.19.45-.08.19-.16.38-.26.56-.08.15-.1.28-.01.43.12.22.31.4.34.66.02.18.25.29.15.5,0,0,0,0,.01.02.04.02.09.03.13.05-.01,0-.03.02-.04.03.03.08.06.17.09.25.01.04.03.07.04.11.03.07.06.14.09.21.01.03.04.07.05.1.04.18.07.36.11.54,0,.04.04.11.07.11.15.03.29-.1.3-.26,0-.09,0-.17.03-.26.02-.08.05-.16.07-.24-.01,0-.03-.01-.04-.02-.03.02-.05.03-.1.06.06-.19.11-.35.16-.51.04-.13.08-.26.11-.39.04-.17.09-.35.12-.52,0-.05-.02-.12-.06-.14-.11-.07-.05-.09.01-.14.06-.05.12-.12.16-.19.09-.16-.13-.34.01-.5,0,0-.04-.04-.05-.06-.06-.11-.11-.23-.16-.34-.07-.15-.02-.36-.24-.42.01-.1.09-.22-.07-.19,0-.07.02-.15.02-.22,0-.21-.2-.36-.16-.6.02-.14-.08-.3-.12-.46-.01-.05-.01-.12,0-.16.07-.18.15-.35.22-.53.03-.07.06-.15.1-.2.08-.09.1-.17.02-.27.38-.22.4-.27.25-.65.03,0,.05-.01.08-.02.15-.05.31-.12.32-.31,0-.18.12-.36.02-.54ZM39.74,3.68s-.04,0-.06,0c-.02-.04-.06-.09-.04-.11.04-.06.1-.11.15-.17.02.01.03.02.05.03-.03.08-.07.16-.1.24ZM40.61,3.51c.11.09.2.17.31.26-.13.07-.31-.07-.31-.26ZM41.77,4.27c-.04.06-.11.1-.18.12-.02,0-.1-.08-.1-.09.05-.07.1-.13.18-.22.05.09.11.17.09.19ZM42.7,3.3s-.11-.03-.21-.05c.08-.07.13-.13.21-.2v.25ZM44.42,2.98c-.14.02-.28.04-.42.04-.02,0-.06-.05-.06-.07,0-.08.22-.21.34-.2-.02.05-.03.08-.04.11.06.02.13.05.19.07,0,.01,0,.02-.01.03ZM45.75,3.19c-.07.02-.13.05-.2.06,0,0-.03-.06-.04-.09.07-.02.14-.04.21-.06,0,.03.02.06.03.09ZM44.94,3.67c-.03-.07-.06-.14-.09-.2.04,0,.09-.02.1,0,.03.05.05.12.07.18-.03,0-.06.02-.09.03ZM45.07,3.3c-.05-.06-.1-.12-.13-.19,0-.01.04-.06.09-.12.05.1.09.17.12.24,0,.02-.05.05-.08.08ZM45.25,2.85c.08-.09.13-.15.21-.23.05.12.1.22.12.32,0,.02-.12.09-.14.08-.07-.04-.13-.11-.19-.17ZM45.7,4.26s-.04-.08-.06-.13c-.08.05-.15.1-.22.15.14-.31.42-.13.63-.2-.11.06-.22.12-.35.18ZM46.43,3.02c.05.07.1.11.13.17,0,.02-.04.06-.05.1-.04-.06-.09-.11-.13-.17,0-.01.02-.05.05-.1ZM46.65,4.78s-.02.01-.04.02c-.05-.07-.1-.14-.18-.24.1-.01.15-.02.22-.03v.25ZM47.08,2.42c-.06-.02-.12-.05-.18-.07.01-.03.02-.06.03-.09.06.02.12.03.17.06,0,0-.02.07-.03.1ZM47.83,3.35c.16.16.15.23-.07.36.03-.13.05-.23.07-.36ZM47.24,2.98c.04-.16.12-.18.24-.07-.08.02-.15.04-.24.07ZM47.58,3.54c.16.28.15.31-.05.44.02-.16.03-.3.05-.44ZM47.86,4.9c-.07-.14-.32-.14-.25-.35.09.05.17.08.24.13.05.03.08.08.12.12-.04.03-.07.07-.11.1ZM48.38,5.22c-.02-.08-.05-.14-.06-.21,0-.04.02-.08.04-.12.03.02.07.04.08.07.11.21.1.23-.06.26ZM48.58,3.17s-.02.07-.04.1c0,0-.05,0-.05-.01,0-.04-.01-.08,0-.12,0-.03.03-.06.06-.11-.07.02-.12.03-.16.04,0-.02-.01-.03-.02-.05.1-.04.2-.08.3-.12-.03.09-.05.18-.08.26ZM48.88,4.9s-.05-.09-.09-.18c.08-.03.17-.07.26-.1.02,0,.07.02.08.04.01.02,0,.06-.02.09-.03.04-.07.07-.11.1,0,0,0,.02.01.02.12-.05.23-.1.35-.15,0,.01.01.03.02.04-.12.07-.24.15-.36.21-.03.01-.11-.04-.15-.08ZM49.24,4.03s0-.1.03-.12c.02-.02.1-.01.11,0,.03.04.07.11.05.16-.02.06-.08.12-.16.21-.02-.12-.03-.19-.04-.25ZM49.22,5.32c-.07-.02-.19-.09-.18-.13,0-.09.07-.17.12-.26.02,0,.03.02.05.03-.04.07-.08.13-.14.25.13-.02.22-.04.31-.04.06,0,.13-.02.17.01.03.03.03.1.04.15-.14,0-.25.02-.36,0ZM49.04,2.53s-.04-.14-.02-.16c.08-.05.18-.09.27-.09.09,0,.18.07.32.13-.19.04-.36.08-.57.12ZM50.79,3.23v.29s-.09.02-.15.01c-.03,0-.03-.09-.05-.14-.06.04-.21.03-.1.19.01.02-.01.07-.03.09-.02.02-.08.02-.08,0-.02-.04-.04-.1-.03-.12.14-.13.03-.22-.06-.3.13-.22.12-.16.5-.02ZM50.3,5.55c-.06,0-.12-.01-.2-.02.06-.08.09-.12.14-.18.04.05.09.09.12.14,0,0-.04.06-.06.06ZM50.63,9.94s.02.05.03.07c-.09.05-.19.09-.28.14-.01-.03-.03-.05-.04-.08.1-.04.19-.09.29-.13ZM50.63,5.09s-.08,0-.08,0c0-.06,0-.12,0-.18,0-.04.04-.08.07-.13.04.03.08.06.08.07-.02.08-.05.17-.08.25ZM50.85,4.65c-.08-.02-.16-.03-.23-.05.04-.16.16-.27.35-.29-.04.12-.08.23-.12.34ZM51.02,3.98s0,0,0,0c0,.06,0,.11,0,.17h-.31c.03-.08.07-.16.11-.25.03.05.05.11.08.12.04,0,.09-.02.13-.04h0s0,0,0,0c-.05-.09-.19-.16-.03-.28-.05.1.15.17.03.28,0,0,0,0,0,0Z"/>
      <path class="cls-1" d="M9.33,2.6c-.13-.15-.3-.28-.52-.3-.14-.01-.29.04-.39-.11,0-.01-.04,0-.06,0-.19,0-.38.02-.57.03-.41,0-.82.01-1.23.01-.21,0-.42,0-.63,0-.1,0-.2,0-.31,0-.1,0-.2.03-.31.02-.24-.01-.48-.04-.72-.05-.13,0-.26,0-.39.01-.27.04-.54-.07-.82,0-.19.04-.39.04-.59.04-.09,0-.19,0-.25-.06-.09-.06-.15-.05-.23,0-.11.06-.22.08-.33-.02-.06-.05-.15-.08-.23-.08-.18,0-.34,0-.37-.2-.1.02-.21.07-.25.04-.22-.17-.43-.34-.63-.54-.13-.12-.22-.28-.34-.41-.02-.03-.09-.05-.11-.03-.03.02-.06.08-.05.12.02.08.1.16.09.23-.03.13.05.22.09.32.14.33.3.65.41.98.07.22.2.45.1.7-.03.08-.07.18-.04.24.09.18,0,.27-.11.32.05.14.14.28.12.39-.04.24-.07.49-.21.7-.08.12-.13.26-.2.42.21.02.4.07.58.04.24-.04.45.02.65.11.31.14.59.34.63.72.01.14.02.29-.03.41-.12.28-.12.59-.29.85-.05.07-.12.17-.1.24.04.2-.08.3-.19.42-.04.04-.08.12-.07.17.06.16,0,.36.17.48.02.01.02.05.03.08.05.1.1.2.15.3.04.08.09.15.12.23.13.34.25.69.38,1.03.01.03.05.07.08.08.12.05.1.12.06.22-.02.04-.02.09-.01.12.03.09.07.17.11.26.02.05.06.09.1.17.08-.12.18-.21.21-.32.04-.15,0-.32.06-.45.09-.21.04-.47.22-.65,0,0,0-.02,0-.03-.01-.19.05-.37.11-.55.07-.19.1-.39.14-.59.02-.09.08-.19.05-.25-.08-.21-.2-.4-.3-.6-.02-.03-.05-.06-.07-.09-.09-.24-.21-.46-.32-.69-.13-.25-.29-.52-.21-.84,0-.03-.01-.06-.03-.09-.07-.09-.05-.17.02-.25.03-.04.05-.11.06-.16.05-.19.13-.36.3-.45.07-.04.17-.02.26-.02.03,0,.07-.01.1-.01.18,0,.36,0,.55,0,.16,0,.32.03.47.03.28,0,.55-.01.83-.04.23-.02.46.08.69.01.02,0,.05.01.07.02.91.1,1.5.38,1.65.48.17.11.3.26.45.4.17.16.21.38.2.59-.02.26-.05.52-.1.77-.03.16-.16.29-.19.42-.09.38-.35.71-.32,1.12,0,.05-.05.11-.03.15.04.15.09.29.15.43.13.33.28.66.41.99.05.12.1.24.11.36.02.16.03.32.17.41-.02.06-.07.13-.05.16.02.04.1.06.15.07.12.02.18-.06.19-.16.03-.17.04-.35.06-.53,0-.02,0-.04.01-.06.1-.2.2-.4.16-.64,0-.04.03-.09.04-.14.07-.19.14-.38.2-.57.02-.05.02-.13,0-.18-.08-.15-.02-.21.13-.23,0-.08,0-.16.03-.22.12-.22-.06-.37-.11-.55-.02-.08-.06-.16-.1-.23-.11-.19-.23-.37-.34-.56,0-.01-.01-.03-.02-.05-.03-.1-.06-.2-.08-.31-.05-.21-.17-.43-.14-.62.05-.35.18-.7.31-1.04.16-.41.44-.78.5-1.24.01-.1.04-.2.07-.3.04-.2.1-.4.13-.6.02-.12,0-.25-.03-.37-.03-.15-.05-.32-.14-.43ZM3.33,5.15c.06-.11.09-.19.14-.26.02-.02.09,0,.14,0,.01.02.02.04.03.06-.09.06-.18.12-.31.21ZM6.8,3.36c.08-.08.15-.14.24-.24,0,.25-.03.28-.24.24ZM7.67,5.05c-.04-.05-.08-.09-.08-.11.02-.13.18-.35.24-.32.07.04.12.12.17.19-.02.01-.03.03-.05.04q-.22-.08-.29.2ZM7.65,3.87v-.28s.04,0,.05,0c0,.09.02.19.02.28-.03,0-.05,0-.08,0ZM7.85,3.55c.12.03.2.05.27.08,0,.02-.02.04-.03.07-.09.01-.2.08-.25-.14ZM8.32,5.23s-.11.03-.16.02c-.07-.02-.14-.06-.21-.1,0,.01-.02.03-.03.04-.03-.03-.06-.05-.1-.08.03-.03.06-.08.1-.09.08-.02.17-.04.26-.03.06,0,.12.05.15.1.02.04.01.13-.01.15ZM8.03,3.08s0,0,0,0c-.1.23-.25.05-.4.07.11-.17.28-.19.4-.07h0s0,0,0,0c0,0,0,0,0,0,.12-.04.24-.07.36-.11,0,.02,0,.03.01.05-.13-.02-.21.26-.38.06Z"/>
      <path class="cls-1" d="M32.41,3.48c.07-.27-.07-.5-.18-.71-.1-.19-.29-.33-.41-.5-.18-.25-.46-.21-.7-.27-.15-.04-.34.04-.51.06-.09,0-.18,0-.26,0-.04,0-.08.01-.12.02.01.04.02.08.03.12,0,.01-.02.02-.03.03-.08-.07-.16-.13-.25-.2-.01.07-.02.11-.02.17-.09-.13-.36-.23-.46-.21-.15.03-.31.07-.47.07-.12,0-.19.03-.28.1-.14.1-.08.17-.05.27.01.03,0,.07,0,.1-.02.11-.07.22-.07.32.01.22.06.44.08.66.01.13.02.26.02.4,0,.12-.04.24-.06.36-.01.08-.08.19-.04.23.09.13.04.26.07.39.02.1.04.2.2.17.11-.02.24,0,.36,0,.14,0,.29-.01.43-.02.26,0,.51-.02.77,0,.12,0,.25.04.36.11.13.08.25.18.36.29.05.05.03.16.08.21.04.04.13.04.22.07-.09.07-.17.12-.24.17.01,0,.03.02.04.02-.03.07-.06.15-.1.2-.08.11-.19.2-.27.3-.08.1-.13.25-.23.29-.31.15-.49.47-.83.6-.27.11-.52.28-.79.39-.21.08-.43.16-.65.2-.2.03-.41.02-.62,0-.18-.02-.35-.05-.51.08-.02.02-.07,0-.1-.01-.19-.05-.38-.11-.57-.16-.31-.09-.63-.18-.94-.28-.12-.04-.25-.07-.35-.14-.19-.13-.37-.27-.54-.42-.09-.08-.18-.12-.3-.06-.02-.06-.02-.12-.04-.15-.1-.14-.21-.29-.33-.42-.27-.29-.34-.64-.3-1.01,0-.1.07-.21.2-.21.1,0,.21,0,.31.01.28.05.46-.08.49-.36.02-.26-.04-.51-.02-.78.04-.38-.02-.78.04-1.16,0-.02-.01-.04-.01-.06,0-.06-.02-.13,0-.18.08-.24-.02-.41-.24-.52-.15-.07-.28-.04-.42-.04-.26,0-.51-.04-.77-.05-.22-.01-.44-.03-.66-.04-.15,0-.29.01-.44,0-.09,0-.17-.02-.27-.04-.01-.13-.1-.21-.23-.24-.05-.01-.11-.04-.14-.07-.2-.2-.39-.4-.58-.6-.03-.04-.06-.08-.08-.12-.11-.24-.29-.42-.51-.55-.04-.02-.1-.01-.18-.02.08.1.15.15.18.22.1.18.18.38.29.56.06.1.13.19.1.32,0,.03.02.06.03.09.03.08.07.16.09.24.03.1.03.22.09.3.22.3.26.66.38,1,.06.17.09.35.14.53.03.13.02.27.1.39.03.05-.02.17.15.18-.14.13-.19.27-.1.43.02.03.02.08.01.11-.02.2-.05.39-.08.59-.02.14.04.2.17.16.1-.03.21-.07.3-.1.02-.05.03-.11.05-.15.14,0,.18.07.15.15.22.09.46.14.64.26.26.17.58.31.65.68.02.08.07.16.08.25.02.11.02.21.03.36.02.07.07.18.11.3.07.23.08.48.21.67.13.19.08.44.27.62.11.1.11.32.15.47-.04.05-.07.09-.13.16.22-.03.34.01.42.17.09.2.19.39.31.57.13.18.3.34.46.5.08.08.19.13.28.2.12.1.23.22.36.29.12.06.27.07.41.11-.02.07.03.12.14.11.08-.01.17-.07.23-.05.27.08.48-.11.72-.16,0,0,.01-.02.02-.02.11-.08.2-.21.37-.16.02,0,.06-.01.09-.03.26-.2.52-.39.76-.6.19-.17.36-.36.54-.54.11-.11.2-.24.33-.31.1-.06.12-.1.09-.19.07-.05.14-.1.2-.14-.02-.06-.04-.11-.05-.13.21-.27.42-.52.59-.78.13-.2.22-.42.33-.64.02-.05.07-.08.1-.13.03-.04.07-.08.07-.12,0-.24.23-.36.29-.58.06-.2.2-.38.32-.59-.08-.01-.13-.02-.2-.03.08-.04.18-.05.21-.1.11-.19.21-.38.31-.58.04-.08.07-.17.1-.26,0-.03-.02-.07-.02-.09.13-.18.26-.34.29-.56.03-.19.06-.38.09-.54-.01-.09-.05-.16-.03-.21ZM29.03,3.15c.03-.19.06-.21.23-.15-.09.06-.16.11-.23.15ZM29.49,3.51c.09-.06.17-.12.25-.17.08.1.14.17.2.24-.13.13-.28-.04-.44-.07ZM31.08,3.34s-.03.06-.06.07c-.03.01-.08,0-.11,0-.01,0-.02-.06-.02-.07.07-.12.15-.24.22-.35-.01.12-.02.24-.04.36ZM24.39,2.88c.1.11.06.19-.02.24-.07.05-.13.17-.24.04.09-.1.17-.19.26-.29ZM22.58,3.56q-.06.11-.29.09c.06-.15.14-.17.29-.09ZM22.51,5.1c-.09-.02-.17-.06-.26-.1.05-.03.1-.09.14-.08.08.01.14.07.25.12-.06.02-.1.06-.13.05ZM22.68,3.07s-.08,0-.1-.02c-.02-.02-.01-.08,0-.1.08-.09.18-.16.28-.26.05.07.11.14.17.22-.14.06-.25.12-.36.16ZM23.48,2.91c.11.02.22.03.33.05,0,.02,0,.04,0,.06-.11.04-.22.02-.33-.06,0-.02,0-.03,0-.05ZM23.47,4.1c.11-.01.2-.02.31-.03-.12.19-.13.19-.31.03ZM24.82,8.63c-.09-.07-.25-.08-.27-.23.15-.03.27-.05.4-.07,0,.02,0,.03.01.05-.05.03-.09.05-.18.1h.38c-.08.15-.18.27-.34.15ZM27.54,8.21s.02-.04.02-.06c.11.04.22.07.33.11h0s0,0,0,0c.02-.06.02-.14.06-.18.03-.03.11,0,.17,0,0,.02,0,.03,0,.05-.08.04-.16.08-.24.12,0,0,0,0,0,0,0,0,0,0,0,0,0,.04,0,.08-.02.13-.12-.07-.23-.12-.33-.18ZM28.3,9.23s-.08.07-.12.07c-.16-.02-.19.03-.12.18.03.06.03.13.05.22-.07,0-.12.01-.18,0-.04,0-.08-.03-.12-.04.02-.04.03-.08.05-.11.01-.02.05-.05.05-.06-.07-.27.23-.21.31-.35,0-.01.07,0,.08.01.01.01,0,.07,0,.08ZM32.06,2.95s-.03-.02-.04-.02c0-.04,0-.07,0-.1-.06.04-.12.07-.18.11-.02-.02-.03-.05-.05-.07.06-.04.11-.1.18-.11.04,0,.11.04.15.08.01.01-.03.08-.05.12Z"/>
      <path class="cls-1" d="M39.4,11.31c-.01-.13,0-.27,0-.41,0-.25,0-.51,0-.76,0-.06-.02-.13-.03-.19,0-.05-.03-.1-.03-.14,0-.45.02-.9.02-1.36,0-.1-.06-.2-.11-.3-.13-.28-.37-.48-.51-.75-.15-.29-.37-.53-.53-.81-.09-.17-.13-.36-.18-.55-.04-.13-.05-.27-.08-.41,0-.04-.04-.08-.03-.12,0-.24.01-.48.03-.72,0-.1.03-.21.04-.31.02-.23.03-.46.06-.69,0-.08.1-.18.08-.24-.08-.26.04-.5.06-.75,0-.12.08-.23.11-.34.02-.07.04-.17,0-.23-.03-.05-.13-.09-.2-.09-.32,0-.64,0-.97,0-.1,0-.23-.08-.29-.04-.16.09-.29.04-.44.01-.25-.05-.5-.07-.74-.13-.13-.03-.25-.12-.38-.14-.23-.04-.42-.15-.55-.33-.15-.2-.29-.41-.43-.61-.05-.07-.07-.16-.11-.24-.01-.08-.04-.15-.06-.22-.02-.07-.01-.16-.06-.19-.11-.09-.24-.15-.41-.24.06.2.1.37.16.57-.1.08-.03.17.07.27.03.03.06.05.07.09.12.32.23.63.34.95.05.15.1.31.15.47.05.14.12.28.14.42.03.19.02.39,0,.59,0,.07-.07.15-.06.21.08.3-.1.57-.13.85-.03.2-.12.37,0,.51.1.02.16.03.22.04.07.02.17.09.2.06.17-.12.33-.02.5-.01.23,0,.45,0,.68,0,.08,0,.16.01.25.02.37,0,.73.02,1.01.31.31.32.58.65.51,1.14,0,.04.01.09.02.13.02.09.04.17.04.26,0,.27.06.55-.02.83-.07.23-.05.47-.09.71-.01.06-.1.15-.16.16-.29.05-.59.07-.88.11-.12.02-.24.05-.39.08-.08-.11-.22-.05-.36,0-.07.02-.15.04-.22.04-.16,0-.32-.01-.48-.02-.1,0-.21-.02-.28.03-.18.11-.34.24-.41.47-.06.21-.16.42-.27.62-.06.1-.19.17-.03.29-.23.07-.53.49-.5.66-.2.17-.39.33-.58.5-.05.05-.07.12-.09.19-.04.12.06.22.18.19.09-.03.19-.06.28-.09.23-.08.45-.18.68-.24.24-.06.48-.09.72-.13.16-.03.32-.08.47.04.01.01.05.01.06,0,.12-.05.27-.01.37-.14.02-.02.1,0,.14,0,.14.02.34.11.39.06.21-.22.39-.47.55-.73.11-.18.16-.4.25-.6.1-.22.2-.45.31-.66.04-.09.11-.16.19-.22.03-.02.14,0,.16.04.19.34.4.67.65.97.02.02.03.04.04.07.06.16.11.33.18.49.09.2.21.4.31.6.09.17.18.34.26.51.03.09.02.19.05.29.03.09.11.12.19.02.12-.15.04-.29-.01-.43-.03-.08-.07-.16-.08-.25ZM36.56,4.6c.04.1.09.2.13.29-.21-.06-.22-.1-.13-.29ZM35.66,9.67s.02-.03.02-.05c.06,0,.12.01.19.02,0,.08.02.14.03.25-.1-.09-.17-.16-.25-.22ZM36.64,9.65s-.09,0-.14,0c0-.03,0-.05,0-.07.06-.02.13-.03.19-.05-.02.05-.02.11-.05.13ZM38.18,8.28c.19-.16.43-.15.46.02-.15,0-.29-.01-.46-.02Z"/>
      <path class="cls-1" d="M25.49,2.88c.01.22,0,.44,0,.66.02,0,.04,0,.06,0,.02-.06.04-.13.06-.21.09.09.09.16,0,.23-.12.08-.17.18-.14.33.01.06,0,.13.02.2.03.08.07.16.1.23-.02.02-.07.05-.12.09.13.05.26,0,.27.13-.1.05-.22.08-.26.15-.03.05.04.16.07.25-.01.01-.03.05-.06.08.03.02.07.05.1.06.09.01.18.01.27.01.16,0,.32.04.45-.11.02-.02.1,0,.14,0,.04.02.07.06.09.08-.02.18-.05.34-.06.51-.02.32-.02.64-.03.97,0,.22-.01.43-.01.65,0,.04.02.09.03.13.03,0,.06,0,.09,0,.02-.28.24-.52.16-.78.14-.2.35-.36.38-.55.05-.24.18-.41.3-.59.09-.14.23-.28.38-.36.23-.13.25-.14.2-.42-.03-.14-.02-.29-.02-.44,0-.1,0-.19,0-.29,0-.13,0-.27.02-.41,0-.07.02-.14.02-.21,0-.06,0-.11,0-.17-.02-.12-.06-.23-.05-.35,0-.18.04-.36.07-.54-.14-.11-.3-.16-.48-.13-.18.03-.39.08-.54.02-.22-.09-.29.15-.44.15-.03-.12-.06-.22-.2-.21-.11.01-.22.02-.33.03-.1,0-.19,0-.29.01-.04,0-.09.02-.12.05-.07.09-.13.2-.19.3.15.12.05.29.06.45ZM26.74,4.67c.11.04.18.07.3.11-.08.11-.17.21-.26.33-.04-.05-.07-.09-.09-.11.02-.14.04-.25.05-.33ZM26.21,2.71s.02-.02.03-.03c.07.05.15.1.23.15-.02.07-.04.13-.07.21-.07-.02-.14-.04-.23-.07.07-.04.11-.07.15-.1-.04-.06-.08-.11-.12-.17ZM26.19,4.25s.07.06.06.07c-.02.05-.06.1-.09.14-.02-.02-.05-.04-.1-.07.05-.06.09-.1.12-.14ZM25.98,4.48c.1.07.16.12.23.17-.1.08-.19.15-.3.24.02-.14.05-.26.07-.4Z"/>
    </g>
  </g>
</svg>