<?xml version="1.0" encoding="UTF-8"?>
<svg id="Layer_2" xmlns="http://www.w3.org/2000/svg" viewBox="0 0 43.92 30.59">
  <defs>
    <style>
      .cls-1 {
        fill: #2c489e;
      }
    </style>
  </defs>
  <g id="Layer_1-2" data-name="Layer_1">
    <g>
      <path class="cls-1" d="M10.78,24.31c.5-.03,1.01-.18,1.51,0,.1.03.22.03.32.03,1.24-.01,2.47-.03,3.71-.05.12,0,.33-.03.35-.09.04-.12-.02-.28-.06-.42-.06-.23-.2-.45-.21-.68-.03-.81-.02-1.62-.04-2.43-.01-.33.06-.74-.41-.77.11-.16.26-.3.31-.48.06-.19.02-.41.02-.61.04-.86.08-1.73.11-2.59.03-.7.06-1.41.05-2.11,0-.71-.09-1.41-.09-2.12,0-1.03.04-2.05.07-3.08.04-1.37.09-2.73.13-4.1,0-.1,0-.19-.03-.28-.08-.3-.31-.58,0-.91.05-.05-.06-.31-.15-.43-.11-.15-.27-.26-.42-.38-.51-.41-1.13-.68-1.44-1.3-.03-.07-.13-.09-.19-.15-.22-.23-.48-.43-.65-.69-.17-.26-.35-.37-.65-.42-.85-.14-1.66.2-2.5.19-.66,0-1.33.01-1.99.06-.51.03-1.05.03-1.51.21-.42.16-.76.54-1.12.84-.38.32-.75.65-1.13.97-.31.26-.64.51-.93.78-.81.75-1.61,1.51-2.42,2.27-.37.34-.72.7-1.09,1.03-.1.09-.22.14-.34.2v.65c.39.39.78.78,1.17,1.18.25.25.51.49.74.76.57.68,1.11,1.4,1.7,2.07.45.52.96.99,1.44,1.48.35.36.67.34,1.01-.05.22-.26.48-.47.87-.36-.09.29-.24.57-.25.86-.03.77,0,1.54,0,2.3,0,.72-.03,1.44-.04,2.17-.01,1.03.02,2.06-.04,3.09-.04.79.24,1.3,1.01,1.51.09.03.18.06.25.12.57.46,1.15.91,1.69,1.4.37.33.78.38,1.25.35ZM16.11,12.05s.09.03.14.04c-.07.2-.14.4-.23.64-.13-.03-.25-.06-.35-.09.15-.21.29-.4.43-.6ZM15.11,18.85c.15,0,.42-.04.43,0,.07.19.13.32.36.33.03,0,.06.17.09.26-.04.04-.08.08-.12.12-.25-.12-.52-.22-.75-.37-.05-.03-.01-.22-.01-.34ZM14.87,19.9c.02.11.04.21.06.29.19.07.5-.31.56.11-.36.06-.71.11-1.09.17.01-.14.02-.31.04-.51.14-.02.27-.04.43-.06ZM14.02,12.9c.18.21.35.41.53.62-.01.03-.03.07-.04.1-.18-.09-.39-.16-.54-.29-.08-.07-.05-.26-.07-.4.04,0,.08-.02.12-.03ZM13.14,16.46c.09-.1.09-.26.15-.46.09.15.15.26.21.37.21-.04.19-.58.58-.24-.08.11-.16.22-.24.33.1.07.2.14.29.21,0,.04,0,.07,0,.11-.29.03-.59.09-.88.06-.17-.02-.31-.17-.11-.39ZM8.64,21.23c-.29-.04-.61.09-.91.16-.28.06-.41-.04-.41-.33,0-1.65-.01-3.29-.02-4.93,0-1.27,0-2.55,0-3.82,0-.01,0-.03,0-.04-.26-.96,0-1.94-.07-2.91-.04-.71-.44-1.01-1.05-.66-.61.34-1.07.87-1.6,1.32-.07.06-.12.14-.2.2-.52.37-.56.35-.98-.15-.53-.63-1.1-1.23-1.66-1.84-.27-.29-.55-.56-.81-.86-.27-.3-.2-.55.17-.83.34-.26.66-.55.99-.82.52-.43,1.06-.84,1.58-1.27.61-.51,1.21-1.05,1.82-1.56.23-.19.49-.35.71-.54.29-.25.57-.53.84-.81.43-.45,1-.39,1.53-.39.91-.01,1.83.05,2.74.06.35,0,.71-.03,1.05-.1.3-.06.39.1.4.32.04,1.18.07,2.37.09,3.55.02,1.29.04,2.58.04,3.87,0,.71-.03,1.41-.02,2.12.01,1.04.05,2.09.06,3.14,0,.5-.05,1-.06,1.5-.01.56-.11,1.14.02,1.67.25,1-.23,1.96-.03,2.94.07.33-.16.72.28,1.01-.26.14-.39.38-.68.11-.13-.12-.41-.13-.62-.11-1.08.11-2.14.2-3.23.03Z"/>
      <path class="cls-1" d="M24.14,23.99c.2-.04.43.02.65.05.16.02.32.1.48.11.76.02,1.51.03,2.27.03,1.01,0,2.01,0,3.02-.02.22,0,.44-.01.65-.03.66-.05,1.32-.22,1.98,0,.13.04.31,0,.43-.06.31-.16.62-.29.95-.4.56-.18,1.07-.51,1.58-.82.33-.2.67-.43.94-.71.42-.44.78-.93,1.16-1.41.06-.08.1-.19.1-.29.01-.53,0-1.05.01-1.58,0-.5.03-.99.02-1.48,0-.61-.06-1.22-.05-1.83,0-1.02.06-2.05.07-3.07,0-.5-.06-1-.06-1.5.01-1.38.08-2.76.05-4.14-.01-.64-.12-1.3-.32-1.91-.42-1.23-1.02-2.35-2.27-2.99-.77-.39-1.48-.89-2.24-1.3-.32-.17-.7-.21-1.03-.37-.43-.22-.87-.29-1.35-.28-1.39.04-2.78.06-4.17.08-.73.02-1.46.11-2.19-.04-.3-.06-.62,0-.94.02-.18,0-.37.07-.55.06-.65-.05-1.26,0-1.81.41-.22.16-.48.26-.71.4-.51.31-1.01.62-1.5.93-.04.03-.07.08-.11.12-.7.93-.9,1.95-.63,3.08.02.09-.03.2-.05.31-.08-.08-.2-.14-.24-.24-.19-.49-.42-.67-.82-.59-.05.43.11.74.46,1.02.25.2.44.48.62.75.07.1.02.28.03.42-.13-.04-.28-.04-.38-.12-.22-.17-.42-.37-.63-.55-.04.02-.09.04-.13.05.02.13,0,.29.06.39.31.51.65,1,.97,1.51.15.24.27.5.04.77-.42-.34-.44-.97-.97-1.23-.14.85-.09.95.41,1.53.26.31.44.69.65,1.03-.08.07-.16.13-.24.2-.25-.29-.51-.58-.76-.88-.15.3-.18.62.05.95.16.22.35.43.48.66.21.37.62.68.39,1.34-.32-.39-.58-.72-.86-1.08-.05.1-.1.15-.1.21.01.54.08,1.06.46,1.48.15.16.28.33.42.5.33.41.35.89,0,1.35-.25-.43-.47-.83-.72-1.27-.28.52-.06,1.39.36,1.64.46.27.63.7.48,1.18-.49-.08-.55-.6-.86-.92-.07.69-.11,1.32.49,1.71.43.28.48.68.51,1.13.02.33-.11.38-.3.33-.22-.43-.4-.81-.59-1.18-.05.02-.1.04-.15.06,0,.43-.02.83.33,1.22.35.39.6.9.79,1.4.14.35.23.61.65.66.12.01.24.17.32.3.4.63.79,1.26,1.19,1.89.13.2.28.38.43.58.31-.3.33-.36.14-.55-.38-.38-.32-.62.18-.76.1.17.16.45.3.49.45.13.7.49,1.03.77.32.27.65.54,1.14.43ZM35.6,21.14c-.07-.04-.1-.15-.12-.23,0-.03.09-.12.12-.12.08.01.16.06.22.12.08.09.14.21.26.38-.21-.06-.36-.09-.48-.15ZM37.06,19.63c-.16-.17-.27-.28-.46-.48.27.1.48.17.69.24-.09.09-.18.18-.23.23ZM37.8,15.88c-.2-.21-.51-.41-.26-.81.2.06.36.11.52.16,0,.03,0,.06,0,.09-.13.03-.26.05-.51.1.22.13.37.23.58.36-.11.03-.3.14-.34.1ZM37.35,13.73c.26.01.52.09.78.14-.17.54-.45.66-.88.4-.07-.04-.14-.19-.12-.25.04-.12.15-.3.22-.29ZM36.41,13.31c.03-.18.01-.41.08-.44.13-.06.31,0,.4.01.06.32.09.52.13.77-.27-.03-.57-.07-.87-.1,0-.03,0-.07,0-.1.1-.06.2-.11.26-.14ZM35.77,14.37c.05.03.1.07.16.12.15-.23-.36-.56.08-.64.21-.04.47.19.7.3-.07.28-.7.08-.25.59q-.84-.17-.86-.41c.07.02.13.02.18.05ZM36.23,18.83v.3c-.29.02-.56.04-.92.07.25.17.41.28.6.41.09-.03.21-.07.4-.14-.2.34-.37.61-.53.88-.02,0-.05-.02-.07-.03v-.28c-.47.12-.93.23-1.39.35-.02-.06-.04-.13-.06-.19.43-.16.85-.33,1.33-.51-.26-.13-.51-.25-.73-.35.18-.13.31-.22.44-.31.09-.06.19-.14.29-.16.2-.03.4-.03.64-.04ZM20.73,20.65c-.16-.07-.37-.05-.47-.07-.33-.8-.65-1.56-.95-2.33-.06-.15-.07-.32-.07-.48,0-.99.03-1.98.04-2.97.02-1.61.06-3.21.04-4.82,0-.8-.16-1.59-.18-2.38-.01-.52.13-1.04.15-1.56.01-.3-.1-.61-.14-.91-.02-.13-.02-.27,0-.4.06-.47.12-.94.2-1.41.02-.13.07-.27.16-.36.78-.84,1.72-1.44,2.77-1.9.49-.22.96-.15,1.44-.15.54,0,1.07-.03,1.61-.04.39,0,.79-.01,1.18-.01.07,0,.15.04.2.01.65-.3,1.32,0,1.97-.04.74-.04,1.48-.04,2.22-.04.21,0,.45-.01.64.07.65.27,1.29.57,1.93.86.48.22.89.53,1.1,1.03.1.25.14.53.16.8.05.7.09,1.41.1,2.12,0,.33-.1.67-.1,1.01,0,1.22.02,2.44.02,3.65,0,.66-.04,1.32-.04,1.98,0,.11.08.24.15.34.17.26.35.52.53.77-.05.04-.09.09-.14.13-.12-.08-.25-.16-.46-.29-.03.19-.08.35-.08.52,0,.73,0,1.46.01,2.19,0,.73.01,1.46,0,2.19,0,.26-.01.55-.12.78-.4.86-.97,1.58-1.91,1.91-.09.03-.19.08-.27.07-.97-.13-1.92.05-2.88.14-.31.03-.62-.06-.93-.05-.36,0-.72.06-1.08.06-.51,0-1.03-.04-1.54-.05-.77,0-1.54-.01-2.32.01-1,.03-2,.08-2.94-.36Z"/>
      <path class="cls-1" d="M16.62,29.28c-.43-.64-.85-1.29-1.29-1.94-.43-.63-.88-1.24-1.3-1.87-.25-.37-.48-.45-.94-.24.44.61.94,1.18,1.31,1.83.38.65,1.05,1.15,1.18,2.02-.15-.06-.23-.09-.34-.13.03.1.05.18.09.34-.17-.06-.32-.07-.38-.15-.56-.71-1.11-1.42-1.64-2.15-.36-.5-.67-1.02-1-1.54-.2-.31-.48-.36-.94-.28.21.34.37.62.56.87.3.4.67.76.94,1.18.69,1.03,1.34,2.08,2.02,3.12.12.19.3.35.55.17.25-.18.16-.4.03-.61-.09-.14-.19-.28-.3-.42.48-.22.82-.13,1.07.29.09.15.21.29.31.43.15.2.36.22.53.06.06-.06-.01-.28-.08-.41-.11-.2-.26-.38-.39-.57Z"/>
      <path class="cls-1" d="M21.34,26.99c-.17-.43-.52-.79-.79-1.18-.56-.8-1.12-1.59-1.67-2.39-.38-.55-.74-1.11-1.16-1.75-.32.96.07,1.89.72,1.91-.16.3-.07.51.23.63.05.02.09.09.12.15.14.28.24.58.4.85.19.32.45.61.65.93.39.6.76,1.22,1.15,1.83.08.13.22.22.33.32.04-.02.08-.05.12-.07-.03-.41.04-.86-.1-1.23Z"/>
      <path class="cls-1" d="M39.64,6.83c.13.27.27.53.4.79h0s0,0,0,0t0,0h0s0,0,0-.01h0s0,0,0,0c0,0,0,0,0,0,.53.75,1.06,1.49,1.58,2.24.34.5.67,1.01.99,1.52.11.17.2.35.29.53.2.39.4.77.65,1.25.08-.18.1-.22.12-.27.26-.72-.24-1.22-.56-1.75-.41-.67-.85-1.31-1.28-1.97-.17-.26-.33-.53-.5-.79-.37-.59-.81-1.14-1.09-1.79-.15-.36-.4-.67-.64-.99-.05-.07-.21-.06-.31-.1-.03.12-.12.26-.09.36.12.34.28.66.44.98Z"/>
      <path class="cls-1" d="M39.47,7.36c-.06.02-.14.15-.13.22.09.54.12,1.09.52,1.54.27.31.53.65.73,1.01.39.72,1.16,1.17,1.37,2.01,0,.02.04.03.06.06.22.3.45.59.65.91.32.51.61,1.04.91,1.57.04-.01.09-.02.13-.03.14-.35.06-.76-.11-1.04-.23-.38-.45-.86-.96-.96,0-.17.07-.39-.01-.52-.31-.51-.67-.99-1.01-1.49-.24-.34-.5-.68-.72-1.03-.12-.19-.12-.46-.27-.61-.36-.39-.65-.79-.61-1.36-.09-.08-.17-.17-.27-.22-.08-.04-.2-.07-.28-.04Z"/>
      <path class="cls-1" d="M43.6,21.81c-.25-.16-.35-.37-.5-.6-.61-.95-1.29-1.86-1.89-2.83-.42-.69-.74-1.44-1.11-2.16-.16-.31-.34-.61-.51-.92-.05.02-.1.04-.14.06-.02.03-.06.07-.05.1.06.61-.04,1.26.43,1.79.22.24.4.51.58.78.67,1,1.35,2,2.01,3.01.36.54.69,1.09,1.03,1.64.08.12.13.26.19.4.34-.53.3-1.06-.04-1.28Z"/>
      <path class="cls-1" d="M41.36,14.53c-.33-.5-.76-.95-.98-1.5-.2-.5-.43-.94-.83-1.34-.04.12-.07.2-.09.29-.09.43.12.73.36,1.06.42.57.77,1.2,1.16,1.8.59.91,1.2,1.81,1.8,2.71.32.48.62.97.93,1.46.05-.02.09-.04.14-.05-.05-.3,0-.66-.16-.89-.75-1.19-1.54-2.36-2.32-3.53Z"/>
      <path class="cls-1" d="M42.61,22.64c-.28-.4-.53-.82-.8-1.23-.64-1-1.28-2.01-1.93-3.01-.09-.14-.22-.26-.33-.39-.06.02-.11.04-.17.07.02.23-.04.49.06.67.32.57.69,1.12,1.06,1.66.5.73,1.03,1.45,1.53,2.19.17.26.26.59.46.81.46.52.79,1.1,1.01,1.75.36-.21.47-.66.24-.98-.38-.51-.77-1.01-1.14-1.53Z"/>
      <path class="cls-1" d="M43.4,15.48c-.28-.22-.38-.64-.59-.96-.39-.59-.85-1.13-1.2-1.74-.34-.6-.89-1.05-1.14-1.72-.19-.52-.51-.99-.78-1.48-.05-.09-.14-.17-.21-.25-.04.02-.08.03-.12.05.03.41-.15.82.14,1.22.35.48.68.97,1.01,1.46.59.86,1.23,1.69,1.76,2.59.35.6.92,1.07,1.08,1.79.03.17.2.31.3.46.05-.02.09-.05.14-.07-.19-.43.11-.95-.39-1.36Z"/>
      <path class="cls-1" d="M12.92,28.61c-.26-.55-.68-1.03-1.02-1.54-.17-.26-.26-.61-.5-.77-.3-.21-.44-.43-.52-.77-.07-.3-.46-.49-.67-.35-.29.19-.1.42.02.6.43.66.88,1.3,1.32,1.95.35.51.68,1.04,1.03,1.54.27.38.55.74.86,1.08.07.08.25.11.37.09.06,0,.11-.16.15-.22-.03-.12-.06-.2-.07-.28-.02-.66-.73-.81-.98-1.34Z"/>
      <path class="cls-1" d="M18.36,21.26c.12.21.21.44.34.65.55.87,1.09,1.73,1.66,2.59.19.28.42.53.66.78.12.13.34.18.37-.06.03-.2-.02-.45-.13-.62-.44-.66-.88-1.33-1.38-1.94-.47-.56-.76-1.21-1.12-1.83-.29-.51-.6-1.01-.95-1.59-.3.69-.2,1.14.22,1.52.14.13.23.33.33.5Z"/>
      <path class="cls-1" d="M41.84,23.79c-.4-.72-.88-1.39-1.31-2.09-.32-.52-.62-1.07-.92-1.6-.05.01-.1.02-.15.04-.06.41-.08.82.15,1.2.48.79.98,1.58,1.47,2.37.47.77.93,1.56,1.41,2.33.07.11.27.15.4.22.09-.19.2-.38.24-.58.02-.09-.09-.22-.18-.31-.46-.46-.8-1-1.12-1.58Z"/>
      <path class="cls-1" d="M28.76,26.93c-.13-.19-.2-.42-.31-.64-.09-.19-.17-.39-.29-.57-.15-.23-.28-.51-.5-.63-.17-.09-.45.02-.68.04.07.19.14.38.22.56.04.08.13.14.18.22.77,1.17,1.53,2.34,2.29,3.5.21.32.44.64.87.67.1,0,.21-.06.35-.1-.09-.17-.14-.27-.2-.35-.65-.9-1.3-1.8-1.94-2.71Z"/>
      <path class="cls-1" d="M17.39,28.27c-.3-.38-.63-.74-.9-1.13-.36-.53-.68-1.07-1-1.63-.18-.31-.41-.4-.76-.29,0,.06,0,.12.02.16.31.54.56,1.14.96,1.6.8.91,1.39,1.96,2.09,2.94.07.1.13.21.21.3.18.2.38.25.6.06.24-.2.08-.35-.05-.52-.39-.5-.78-1-1.18-1.5Z"/>
      <path class="cls-1" d="M19.94,27.36c-.52-.7-1.02-1.42-1.53-2.12-.22-.29-.46-.57-.7-.86-.27.33-.28.34-.11.61.28.44.58.87.87,1.3.8,1.19,1.59,2.39,2.38,3.57.07.1.16.23.26.24.1.01.31-.09.32-.15.02-.4.02-.79-.29-1.12-.42-.47-.82-.97-1.2-1.48Z"/>
      <path class="cls-1" d="M18.38,27.5c-.42-.58-.77-1.21-1.13-1.83-.24-.41-.51-.57-.91-.46.05.69,3.07,4.94,3.69,5.18.18-.2.34-.37.1-.66-.6-.73-1.2-1.46-1.75-2.23Z"/>
      <path class="cls-1" d="M37.02,27.97c-.15-.22-.31-.44-.45-.67-.42-.71-.85-1.42-1.25-2.14-.17-.31-.42-.24-.62-.11-.07.04-.05.33.02.46.17.32.41.61.6.92.66,1.08,1.31,2.17,1.98,3.25.09.14.26.22.4.32.11-.15.22-.31.31-.42-.03-.14-.03-.22-.06-.27-.31-.44-.62-.88-.93-1.32Z"/>
      <path class="cls-1" d="M33.6,29.73c-.41-.57-.83-1.13-1.23-1.71-.11-.16-.16-.37-.26-.53-.46-.74-.92-1.47-1.39-2.2-.09-.14-.25-.24-.38-.36-.17.09-.35.13-.35.19,0,.12.07.26.14.36.28.39.62.74.86,1.15.66,1.09,1.28,2.2,1.93,3.29.09.16.24.31.4.4.08.05.26.02.35-.04.07-.05.08-.21.07-.31,0-.09-.08-.17-.14-.24Z"/>
      <path class="cls-1" d="M42.1,26.28c-.05-.04-.1-.1-.13-.15-.39-.61-.79-1.22-1.17-1.85-.3-.5-.76-.89-.93-1.49-.09-.32-.34-.59-.53-.91-.5.39-.53.51-.33.8.35.5.69,1,1.03,1.51.61.93,1.21,1.86,1.83,2.79.07.11.2.19.31.29.36-.58.36-.61-.07-.99Z"/>
      <path class="cls-1" d="M32.95,26.9c-.28-.56-.57-1.11-.89-1.65-.21-.36-.5-.39-.83-.07.21.27.44.53.62.82.36.55.72,1.1,1.05,1.67.4.7.78,1.41,1.15,2.12.24.47.56.59.91.3-.55-1.01-1.18-1.95-1.96-2.8-.02-.13,0-.28-.06-.4Z"/>
      <path class="cls-1" d="M30.85,27.93c-.35-.51-.72-1-1.08-1.5-.04-.05-.09-.1-.12-.16-.21-.34-.42-.68-.63-1.02-.16-.26-.38-.26-.65-.14.24.39.46.74.68,1.09.76,1.2,1.51,2.41,2.27,3.61.06.09.11.22.19.26.2.09.41.13.62.19-.04-.2-.04-.43-.14-.6-.36-.59-.75-1.15-1.15-1.72Z"/>
      <path class="cls-1" d="M38.24,25.29c-.26-.39-.54-.78-.84-1.14-.1-.11-.32-.12-.48-.17,0,.18-.05.4.04.54.23.38.53.73.79,1.1.44.65.87,1.31,1.31,1.96.08.12.22.2.26.23.23.46.41.83.61,1.18.03.06.2.09.28.06.3-.12.32-.31.14-.58-.71-1.06-1.39-2.13-2.09-3.18Z"/>
      <path class="cls-1" d="M38.06,27.92s-.07-.06-.06-.09c.03-.56-.41-.9-.65-1.33-.34-.61-.82-1.14-.94-1.87-.02-.1-.16-.18-.2-.23-.33,0-.52.22-.42.45.19.4.37.81.64,1.15.47.6.76,1.31,1.29,1.88.36.39.53.95.77,1.45.15.31.38.26.58.15.24-.14.17-.36,0-.51-.35-.33-.46-.89-.99-1.05Z"/>
      <path class="cls-1" d="M40.22,26.09c-.26-.44-.48-.9-.74-1.34-.32-.55-.67-1.08-1.01-1.62-.03-.05-.09-.08-.14-.12-.33.27-.37.49-.14.88.66,1.09,1.51,2.06,1.99,3.25.03.08.12.15.17.22.11.16.23.32.33.49.13.2.24.41.38.64.36-.28.28-.55.1-.84-.32-.52-.64-1.04-.95-1.57Z"/>
      <path class="cls-1" d="M28.13,28.31c-.61-.93-1.21-1.86-1.83-2.78-.15-.23-.39-.4-.58-.6-.37.05-.46.17-.33.43.13.24.28.47.42.7.35.56.71,1.12,1.07,1.68.31.47.62.93.96,1.37.08.1.32.14.45.1.07-.02.13-.28.11-.41-.04-.18-.16-.34-.26-.5Z"/>
      <path class="cls-1" d="M24.62,25.37c-.19-.28-.44-.39-.88-.3.08.22.12.41.22.57.26.42.54.82.82,1.22.08.12.16.29.29.34.46.2.76.54,1.02.96.08.14.27.2.41.3.03-.03.07-.07.11-.1-.06-.14-.1-.29-.18-.42-.59-.86-1.2-1.71-1.79-2.57Z"/>
      <path class="cls-1" d="M43.1,19.61c.05.03.06.16.07.25.03.39.26.56.75.45-.34-.53-.66-1.04-.99-1.54-.39-.61-.81-1.21-1.17-1.84-.17-.31-.35-.42-.78-.31.34.56.59,1.11.96,1.56.4.47.56,1.13,1.15,1.44Z"/>
      <path class="cls-1" d="M32.79,25.12c.65.87,1.27,1.7,1.89,2.54.05-.02.1-.04.15-.05-.03-.21-.01-.44-.1-.62-.25-.49-.55-.96-.84-1.43-.34-.57-.6-.69-1.1-.44Z"/>
      <path class="cls-1" d="M35.72,28.36c-.22-.32-.43-.64-.68-1.03-.23.41-.27.43-.02.91.29.57.65,1.12,1.03,1.65.07.1.4.14.51.06.23-.17.08-.36-.07-.55-.27-.33-.51-.68-.75-1.03Z"/>
      <path class="cls-1" d="M39.56,13.56s-.08.02-.12.03c-.02.45-.08.91.22,1.32.3.42.61.83.93,1.24.15.2.32.29.57.06-.45-.82-.9-1.63-1.36-2.44-.05-.09-.15-.14-.23-.21Z"/>
      <path class="cls-1" d="M11.1,16.63c0-.54.07-1.08.06-1.62,0-.89-.05-1.77-.05-2.66,0-1.39.03-2.79.04-4.18,0-1.12,0-2.23,0-3.35,0-.69.15-1.38-.2-2.05-.25-.48-.79-.68-1.29-.43-.09.05-.24.07-.32.03-.53-.27-1.04-.08-1.54.07-.11.03-.24.17-.27.28-.17.63-.75.91-1.15,1.32-.5.51-1.07.96-1.61,1.43-.2.18-.42.35-.61.54-.19.18-.4.35-.54.56-.37.55-.29.9.25,1.21.26.15.52.28.81.43.21-.16.46-.3.66-.49.89-.84,1.76-1.7,2.65-2.55.1-.09.2-.19.32-.25.07-.04.2-.05.26,0,.06.05.08.17.08.25-.02.71-.05,1.42-.07,2.13,0,.24.07.48.07.73,0,1.44-.04,2.88-.04,4.31,0,.84.04,1.68.06,2.51.02.87.05,1.74.08,2.62,0,.15.12.31.12.46-.01.51-.07,1.02-.09,1.53,0,.31.18.43.48.4.13-.02.26-.02.39-.01.38.02.77.08,1.15.07.12,0,.31-.18.33-.29.05-.38.06-.78.05-1.17-.02-.61-.09-1.22-.09-1.83ZM10.04,7.94s-.1.05-.11.04c-.09-.16-.18-.32-.27-.48.03-.02.07-.04.1-.06.1.04.21.09.33.14-.02.13-.03.24-.05.36Z"/>
      <path class="cls-1" d="M25.43,19.48c.17.06.38.2.6.22.73.04,1.47.05,2.2.05.84,0,1.68-.02,2.52-.08.73-.05,1.49-.14,1.99-.76.21-.27.27-.67.42-.99.35-.72.16-1.49.23-2.23.05-.58-.04-1.16-.05-1.75-.01-.9,0-1.8-.01-2.7,0-.26-.09-.42-.39-.38-.29.03-.59.05-.89.06-.08,0-.17-.04-.25-.06.04-.08.08-.16.14-.23.23-.28.5-.25.81-.13.4.16.55.03.57-.39.02-.45.03-.9.04-1.35,0-1.17.01-2.34,0-3.51,0-.29-.15-.59-.14-.88,0-.89-.47-1.5-1.2-1.87-.77-.39-1.6-.6-2.49-.4-.15.04-.33-.01-.49-.01-.39,0-.79,0-1.18.02-.61.04-1.21.1-1.82.14-.23.02-.46,0-.69,0-.18-.05-.37-.08-.55-.07-.32.02-.64.11-.96.1-.81,0-1.56.09-2.21.65-.66.56-.79,1.36-.9,2.1-.14.92-.08,1.86-.09,2.8,0,.65.01,1.29.02,1.94.01.83.02,1.65.05,2.48.01.35-.07.79.53.86-.64.09-.36.58-.45.89-.14.46.15.67.6.81-.13.05-.19.1-.26.1-.41.02-.47.26-.43.61.1.88.11,1.77.27,2.64.14.77.52,1.28,1.34,1.46.96.21,1.91.14,2.87.09.08,0,.16-.14.27-.24ZM32.24,18.16c-.28.21-.44.38-.6.09-.06-.11-.07-.25-.1-.38.21.08.41.17.7.29ZM32.74,4.94c.16.23.29.42.42.61-.22.1-.45.2-.68.3.05-.16.15-.33.12-.47-.02-.13-.19-.23-.32-.38.19-.03.35-.05.45-.06ZM31.86,7.09c.07.03.13.06.2.1-.06.15-.11.3-.17.45-.08-.04-.23-.11-.22-.12.05-.15.13-.29.2-.43ZM30.9,8.15c.14-.14.3-.3.59-.12.32.21.72.29,1.08.43,0,.07,0,.14-.01.21-.19.04-.4.16-.55.11-.27-.09-.41,0-.56.19-.05.06-.11.13-.18.16-.09.03-.19.02-.28.03.05-.09.1-.18.16-.25.04-.04.11-.04.11-.05-.17-.08-.4-.12-.48-.26-.06-.09.02-.35.12-.45ZM28.44,3.09c.18-.13.38-.24.57-.35.02.04.05.08.07.12-.12.14-.23.29-.37.41-.06.05-.17.04-.26.03-.02,0-.05-.18-.02-.2ZM21.83,17.21c-.2-.09-.35-.15-.5-.21,0-.03,0-.06,0-.09.17-.03.34-.06.62-.12-.07.23-.11.36-.12.42ZM21.39,13.94c0-.31.21-.33.73.05-.24-.02-.48-.03-.73-.05ZM22.17,11.74c-.06,0-.11,0-.17.01-.04-.14-.15-.32-.1-.41.07-.13.26-.2.41-.29.04.04.08.08.11.12-.08.19-.17.37-.25.56ZM24.63,18.06c-.15.21-.31.29-.54-.02.16-.06.27-.1.38-.14,0-.03,0-.05,0-.08-.1-.01-.19-.03-.29-.04-.33,0-.58-.1-.67-.46-.02-.09-.1-.15-.14-.24-.06-.13-.16-.27-.16-.4,0-.43.07-.86.08-1.3.04-.9.07-1.81.08-2.71,0-.95-.02-1.89-.03-2.84,0-.87-.03-1.73-.02-2.6,0-.62,0-1.26.11-1.86.05-.27.33-.56.58-.72.22-.14.54-.11.82-.13.29-.03.59-.04.88-.05.33,0,.67,0,1.01-.01.3-.02.61-.07.98-.12.42.33,1.02.2,1.53.1,1.18-.23,1.39.13,1.33,1.25-.06,1.12.01,2.24.03,3.36.01.88.03,1.76.04,2.64.01,1.07-.06,2.16.05,3.22.08.73-.13,1.42-.1,2.13,0,.07-.08.18-.15.22-.19.1-.4.17-.6.24-.28.09-.56.2-.84.25-.36.07-.73.1-1.1.11-.64.01-1.27,0-1.91-.02-.24,0-.5.02-.73-.05-.3-.09-.46.03-.61.25Z"/>
      <path class="cls-1" d="M25.83,15.97c.65-.03,1.3-.03,1.95.02.65.05,1.09-.33,1.08-.97-.02-.98.01-1.95-.01-2.93,0-.35-.12-.7-.19-1.11.26-.31.26-.32-.15-.44.07-.09.19-.17.21-.27.05-.31.09-.63.09-.95-.01-.5-.09-.99-.09-1.48,0-.49.04-.97.06-1.46.01-.28-.09-.43-.41-.41-.44.03-.88.09-1.3.02-.39-.06-.66-.02-.81.37-.69-.35-1.18-.22-1.15.43.03.68.03,1.36.02,2.04-.01,1.08-.06,2.16-.07,3.24-.02,1.07-.01,2.14-.01,3.21,0,.5.31.72.8.7ZM26.79,11c.06.16.11.31.17.47-.03.01-.06.03-.09.04-.15-.08-.3-.16-.52-.29.17-.08.31-.15.44-.22ZM26.11,13.4c.06.25.11.48.15.69-.11.02-.27.04-.46.07.05-.09.1-.18.16-.3-.15-.03-.27-.06-.39-.09-.01-.03-.02-.07-.03-.1.2-.09.39-.18.58-.26Z"/>
    </g>
  </g>
</svg>