<?xml version="1.0" encoding="UTF-8"?>
<svg id="Layer_2" xmlns="http://www.w3.org/2000/svg" viewBox="0 0 33.86 44.95">
  <defs>
    <style>
      .cls-1 {
        fill: #2c489e;
      }
    </style>
  </defs>
  <g id="Layer_1-2" data-name="Layer_1">
    <g>
      <path class="cls-1" d="M16.1,21.76c-.48-.85-1.26-1.36-2.09-1.74-.87-.4-1.8-.54-2.7-.02-.18.1-.36.19-.62.33,0-.87-.01-1.64,0-2.41.04-1.93.09-3.86.15-5.79,0-.13.08-.28.15-.38.75-1.02,2.08-.91,2.89.22.19.26.23.4-.15.5-.68.18-1.19.62-1.55,1.26-.48.87-.38,1.78-.13,2.69.07.27.2.57.38.77,1.1,1.15,2.19,1.18,3.46.25.58-.43.89-1.03.94-1.67.13-1.55.08-3.08-.94-4.39-.54-.7-1.19-1.3-1.99-1.5-1.03-.26-2.09-.38-3.19-.09-1.29.33-2.16,1.23-3.01,2.12-.69.73-1.03,1.76-1.36,2.75-.06.16-.14.31-.18.48-.2.94-.43,1.88-.58,2.84-.18,1.16-.29,2.34-.41,3.51-.02.25.09.51.11.76.08,1.17.09,2.35.23,3.51.09.77.33,1.52.55,2.27.15.48.38.94.59,1.4.57,1.25,1.17,2.49,2.21,3.39.37.31.75.72,1.18.81.71.15,1.47.14,2.2.09,1.11-.07,2-.7,2.85-1.39.21-.17.43-.34.61-.54.53-.59.9-1.26,1.16-2.04.29-.86.36-1.73.39-2.62.04-1.36-.2-2.68-.57-3.97-.14-.48-.36-.95-.61-1.39ZM12.24,31.54c-.85.33-1.51-.12-1.56-1.06-.05-.87-.11-1.74-.12-2.61,0-.62.1-1.24.1-1.86,0-.8-.08-1.6-.09-2.39,0-.36.06-.72.14-1.07.1-.43,1.02-.66,1.3-.3.23.29.42.67.47,1.03.13.89.17,1.79.24,2.67v3.33c0,.52-.03,1.05,0,1.57.03.41-.21.57-.5.68Z"/>
      <path class="cls-1" d="M28.76,9.58c-.56-.26-1.04.06-1.24.66-.13.39-.4.82-.72,1.04-.67.46-1.37.14-2-.2-.43-.23-.81-.58-1.23-.85-.31-.2-.63-.43-.98-.5-.93-.19-1.64.35-2.27.94-.39.36-.62.89-.94,1.33-.08.11-.23.17-.35.25-.06-.15-.17-.3-.17-.45.01-.46.09-.92.1-1.38,0-.17-.09-.46-.18-.48-.26-.06-.55-.03-.81.01-.06.01-.12.25-.11.38.02.61.09,1.21.1,1.82.02.93.03,2.39.03,3.33,0,.51-.08,1.01-.08,1.52,0,.2.05.51.16.57.36.17.69-.04.74-.41.06-.47.14-.95.17-1.42.05-.71.56-.99,1.07-1.22.38-.17.77-.09,1.12.22.42.38.88.75,1.37,1.01.45.23.98.43,1.47.44.82,0,1.63-.16,2.22-.9.33-.41.75-.73,1.13-1.1,0,.08.04.21.01.32-.1.57-.26,1.13-.33,1.7-.12,1.02-.54,1.92-1.07,2.74-.7,1.08-1.5,2.09-2.27,3.12-.45.6-.97,1.16-1.34,1.81-.63,1.09-1.23,2.2-1.63,3.44-.33,1.02-.59,2-.45,3.07.16,1.28.81,2.24,1.91,2.8.48.25,1.05.32,1.58.47-.01-.06-.03-.12-.04-.18.1-.16.19-.32.29-.48.05.02.1.04.14.07-.02.14-.04.28-.07.42.57.15,1.73-.35,2.06-.93.24-.41.54-.84.6-1.29.1-.75.17-1.56-.02-2.27-.28-1.05-1.03-1.69-2.17-1.64-.08-.22-.18-.41-.21-.62-.15-1.09.12-2.12.59-3.06.72-1.46,1.6-2.85,2.36-4.29.46-.88.81-1.8.92-2.82.06-.54.15-1.08.19-1.63.1-1.29.31-3.1.47-4.38.03-.22.03-.44.02-.65,0-.11-.07-.27-.15-.31Z"/>
      <path class="cls-1" d="M33.82,25.87c0-.21-.2-.42-.19-.63.03-.67.16-1.33.16-2,0-1.05-.13-2.1-.14-3.15,0-.72.12-1.43.14-2.15,0-.35-.16-.71-.15-1.06.02-.89.13-1.78.15-2.66.02-.98,0-1.97-.04-2.95-.04-.95-.15-1.89-.16-2.84,0-1.33.07-2.66.07-3.99,0-.85-.07-1.7-.11-2.63-.69.36-1.28.66-1.86.97-1.54.8-3.14,1.5-4.92,1.6-1.23.07-2.51.42-3.64-.4-1.76,0-2.92-1.11-4.16-2.06-.73-.56-1.4-1.21-2.2-1.91-.23.26-.44.45-.6.68-1.19,1.71-2.71,2.99-4.82,3.57-.08.02-.15.08-.22.15-.14.01-.29.02-.44.02-1.13.82-2.42.47-3.64.4-.99-.06-1.92-.3-2.82-.64-.14-.27-.4-.48-.81-.69-.65-.35-1.32-.66-1.98-1.01-.37-.19-.61-.1-.83.23-.16.24-.4.44-.59.65.12.04.34.11.56.18,0,2.26,0,4.48,0,6.7,0,2.57-.02,5.13,0,7.69,0,.25.18.5.29.77-.45-.04-.3.37-.31.71,0,1.13-.02,2.27-.01,3.4,0,1.54.01,3.07.04,4.61.01.78.08,1.56.09,2.34,0,.36-.11.73-.09,1.1.04.57.14,1.14.23,1.71.09.58.07,1.23.33,1.73.91,1.79,2.06,3.37,4.35,3.7,1.52.22,3.04.58,4.57.66.99.06,1.87.45,2.82.52.77.05,1.13,1.07,1.89.7.11.33.17.62.31.88.32.57.72,1.09,1.03,1.67.44.8.63,2.51,1.26,2.52.14-.3.25-.53.34-.76.5-1.24,1.03-2.47,2.1-3.38.35-.3.79-.5,1.19-.74.26-.15.5-.36.78-.44.59-.16,1.2-.25,1.81-.35,1.51-.26,3.03-.46,4.52-.8,1.34-.3,2.57-.89,3.61-1.8,1.53-1.34,1.94-3.13,2.07-4.96.14-1.94.04-3.9.03-5.84ZM31.42,7.35c.05,1.32.14,2.63.19,3.95.02.51-.03,1.02-.04,1.53,0,.27,0,.55,0,.82,0,.79-.04,1.59-.02,2.39.03.96.14,1.91.16,2.87.01.78-.08,1.55-.09,2.33,0,1.12.04,2.24.03,3.36-.01.96-.09,1.91-.04,2.88.09,1.91.32,3.85-.2,5.76-.42,1.53-1.5,2.45-2.97,2.99-.79.29-1.63.5-2.46.66-1.07.2-2.16.32-3.24.48-.56.08-1.14.13-1.68.29-1.39.41-2.27,1.47-3.17,2.47-.12.13-.06.4-.1.66-.15,0-.36.02-.54.03-.5-1.19-1.16-2.21-2.27-2.87-1.53-.91-3.32-.95-5.02-1.28-1.36-.26-2.76-.37-4.12-.63-.49-.09-1-.35-1.37-.67-.42-.37-.76-.56-1.33-.33-.16.07-.46-.14-.68-.25-.02-.01.04-.18.06-.28.17.05.33.1.5.13.14.02.28,0,.51,0-.24-.68-.46-1.29-.68-1.9-.05-.14-.21-.3-.17-.39.32-.65.12-1.29.08-1.95-.1-1.59-.08-3.2-.08-4.8,0-4.04,0-8.07,0-12.11,0-.26-.03-.52-.06-.85-.35.23-.58.38-.81.53-.07-.04-.13-.08-.2-.12,1.75-1.34.93-2.98.8-4.61-.42.04-.74.07-1.1.1.12.19.19.3.28.44-.63-.05-.67-.14-.44-.8.23.03.46.06.73.09v-.67c.19.06.34.1.49.15.02-.04.04-.07.06-.11-.15-.17-.3-.34-.46-.52.21-.09.4-.17.56-.24-.06-.52-.11-.99-.19-1.68.34.13.64.25.91.36l.17.34c.85.29,1.68.78,2.55.88,1.54.18,3.12.28,4.66-.15.2-.05.39-.11.59-.17.07.02.16.01.26-.01.75-.19,1.59-.26,2.2-.66,1.07-.71,2.25-1.36,2.96-2.48.26-.4.5-.35.83-.02.34.35.73.66,1.15.92,1.4.89,2.92,1.53,4.53,1.98,1.54.43,3.12.33,4.66.15.87-.1,1.7-.59,2.55-.88.3-.1.62-.15.96-.22.06.29.09.49.13.69.27.03.51.06.91.1-.95.44-.97.44-.94,1.35Z"/>
      <path class="cls-1" d="M30.93,26.41c.01-1.17.17-2.34.16-3.51-.04-4.61-.11-9.22-.18-13.83-.01-.77-.03-1.54-.04-2.31,0-.51-.33-.57-.72-.44-.31.1-.58.36-.89.42-2.55.52-5.12.71-7.58-.33-1.43-.6-2.77-1.4-4.16-2.08-.16-.08-.45-.09-.59,0-.23.14-.46.3-.68.47h0c-1.39.67-2.73,1.47-4.16,2.07-.1.04-.21.08-.31.11-.05.01-.11.03-.16.06-2.27.74-5.26.3-7.6-.16-.13-.06-.34-.16-.47-.09-.18.09-.31.42-.31.64.02.65.15,1.3.16,1.95.03,1.26,0,2.53.04,3.79.06,1.93-.23,3.85-.03,5.78.11,1.13,0,2.27,0,3.41,0,2.27-.03,4.53.02,6.8.03,1.32.12,2.64.28,3.95.13,1.06.99,1.73,1.83,2.23.61.37,1.45.44,2.2.52,1.39.15,2.8.13,4.17.36,1.07.18,2.15.51,3.12.98.78.38,1.46,1.02,2.06,1.64.43.44.55.25.9-.05.65-.55,1.35-1.1,2.11-1.47,1.38-.67,2.91-.81,4.44-.95,1.2-.11,2.41-.37,3.56-.73,1.83-.58,3.01-2.16,2.99-3.77,0-1.05,0-2.09-.03-3.14-.03-.78-.17-1.56-.16-2.33ZM30.59,31.12c0,.73-.04,1.53-.34,2.18-.7,1.56-2.25,2.07-3.84,2.36-1.05.19-2.12.23-3.18.35-.66.07-1.36.07-1.97.28-1.24.44-2.42,1.02-3.35,1.98-.27.28-.53.32-.81-.05-.33-.42-.64-.92-1.09-1.18-1.54-.87-3.2-1.46-5.04-1.4-.57.02-1.15.04-1.72-.03-.85-.11-1.71-.24-2.53-.47-.99-.27-1.91-.76-2.21-1.78-.25-.85-.4-1.74-.42-2.62-.07-3.61-.07-7.22-.12-10.84-.02-1.67-.08-3.33-.1-5,0-.32.12-.63.1-.95-.07-2.04-.18-4.08-.23-6.11,0-.21.12-.42.26-.7l.22.19c1.81.41,4.58.76,6.39.47.56-.09,1.09-.23,1.61-.4.84-.17,1.7-.31,2.4-.92.19-.17.39-.32.6-.48.36-.21.72-.42,1.07-.64v-.08c.18-.12.35-.23.53-.34.16-.1.51-.12.66-.02,1.77,1.09,3.57,2.1,5.68,2.44,1.81.29,3.63.34,5.43-.07.55-.13,1.11-.24,1.67-.37.1.84.25,1.6.25,2.37,0,1.16-.14,2.33-.13,3.49.01,1.59.13,3.18.17,4.77.03,1.56.03,3.13,0,4.7-.02,1.46-.14,2.93-.13,4.39,0,1.49.15,2.98.15,4.48Z"/>
    </g>
  </g>
</svg>