<?xml version="1.0" encoding="UTF-8"?>
<svg id="Layer_2" xmlns="http://www.w3.org/2000/svg" viewBox="0 0 52.33 22.18">
  <defs>
    <style>
      .cls-1 {
        fill: #2c489e;
      }
    </style>
  </defs>
  <g id="Layer_1-2" data-name="Layer_1">
    <g>
      <path class="cls-1" d="M10.19.04c-.58,0-1.17-.01-1.75-.01-.49,0-.99,0-1.48,0-.24,0-.47,0-.71,0-.04,0-.08.02-.13.02,0,.04,0,.06,0,.08,0,.43,0,.86,0,1.29,0,.95,0,1.89,0,2.84,0,.42-.01.84-.02,1.26,0,.17.08.27.25.28.19.01.39.01.58.03.23.02.3.11.31.34,0,.36-.02.73,0,1.09.01.25-.15.36-.3.51-.02-.01-.04-.02-.04-.03-.12-.19-.23-.38-.35-.57-.22-.37-.44-.75-.66-1.12-.43-.72-.87-1.43-1.29-2.15-.37-.63-.75-1.26-1.09-1.91-.01-.03-.03-.05-.04-.08-.16-.26-.33-.51-.47-.78-.17-.33-.41-.61-.63-.9-.04-.05-.08-.1-.14-.13-.08-.05-.17-.1-.26-.1-.27-.01-.55,0-.83,0C.91,0,.69,0,.47,0c-.11,0-.23.01-.35.02,0,.07,0,.13-.01.18,0,.79-.02,1.59-.02,2.38,0,1.2,0,2.41,0,3.61,0,.08,0,.15,0,.23,0,.07.04.11.1.12.06,0,.12,0,.17,0,.11,0,.21-.01.32-.01.14,0,.24.06.31.18.35.58.7,1.16,1.06,1.76-.08.1-.15.23-.25.33-.28.31-.51.65-.71,1-.2.34-.38.7-.56,1.05-.11.21-.21.41-.3.63-.1.25-.17.5-.17.77,0,.59,0,1.18,0,1.77,0,1.02-.01,2.04-.02,3.06,0,.89-.02,1.78-.02,2.67,0,.56,0,1.12,0,1.68,0,.09.01.18.02.27.06,0,.11.01.15.01.66,0,1.31,0,1.97,0,.91,0,1.83,0,2.74.01.18,0,.2-.02.21-.2,0-.3.02-.6.02-.9,0-1.32,0-2.63.01-3.95,0-.15,0-.29,0-.44,0-.13-.06-.2-.17-.22-.14-.03-.27-.05-.41-.08-.17-.03-.19-.05-.17-.22.02-.24.02-.47-.02-.71,0-.02,0-.04.01-.06.01-.09.03-.18.04-.27.02-.31.04-.62.05-.93,0-.09.05-.16.1-.22.06-.06.14-.11.22-.18.05.05.1.1.13.15.07.1.13.21.2.32.09.13.2.26.29.4.14.23.27.47.41.7.27.44.54.88.81,1.32.09.14.19.27.27.41.15.25.29.5.44.75.03.05.05.12.05.17,0,.66,0,1.32,0,1.97,0,.64-.02,1.29-.03,1.93,0,.07,0,.14.01.23,1.46.01,2.9.03,4.35.03,0-.09.01-.17.02-.24,0-.08.04-.16.04-.24,0-.36.01-.73.01-1.09,0-.3,0-.6,0-.9,0-.98.01-1.96.01-2.95,0-.14-.03-.31-.1-.43-.32-.54-.61-1.11-.99-1.62-.02-.03-.04-.07-.06-.1-.13-.23-.25-.47-.38-.7-.04-.07-.1-.14-.16-.24.07-.06.16-.11.21-.18.17-.23.35-.47.5-.71.18-.29.34-.59.53-.88.19-.3.33-.63.37-.98.06-.48.11-.97.12-1.46.02-1.34.03-2.68.03-4.02,0-.92-.01-2.38-.01-3.3,0-1-.81-1.68-1.64-1.68Z"/>
      <path class="cls-1" d="M22.3,3.83c-.26-.28-.57-.46-.94-.54-.14-.03-.3-.03-.45-.04-.86,0-1.71-.01-2.57-.02-.15,0-.15.01-.15.16,0,.34,0,.68,0,1.02,0,.99,0,1.97,0,2.96,0,.21.02.42.04.64.01.14.04.29.05.43,0,.07.04.1.11.1.06,0,.12,0,.17,0,.12,0,.13.02.13.12,0,.24,0,.48,0,.73,0,.03-.03.06-.05.11-.04-.05-.06-.07-.08-.1-.19-.33-.41-.64-.58-.98-.13-.27-.31-.51-.46-.77-.25-.41-.51-.82-.75-1.24-.47-.8-.93-1.61-1.4-2.41-.1-.17-.22-.33-.36-.47-.21-.21-.46-.37-.78-.36-.29,0-.58-.01-.87-.02-.14,0-.27,0-.41,0-.12,0-.16.05-.17.17,0,.04,0,.09,0,.13,0,.66-.01,1.32-.02,1.97,0,1.08-.02,2.16-.03,3.24,0,.09,0,.18,0,.26,0,.04.03.1.06.12.08.07.16.12.28.1.09-.01.18,0,.27-.02.1-.01.17.02.22.12.15.27.31.53.48.8.1.16.2.31.3.47-.03.04-.06.08-.09.12-.13.16-.27.32-.39.49-.39.57-.7,1.19-.97,1.83-.13.32-.2.66-.2,1,0,1.07-.02,2.15-.02,3.22,0,1.21,0,2.43-.01,3.64,0,.2,0,.41.01.61.01.22.09.31.31.34.04,0,.09.01.13.01,1.03,0,2.06,0,3.09,0h.51s.22,0,.32,0c.06,0,.12,0,.19,0,.19-.01.31-.11.35-.29.02-.07.02-.14.02-.22,0-.65,0-1.31,0-1.96,0-.78,0-1.57.01-2.35,0-.23-.15-.4-.38-.41-.1,0-.2,0-.3,0-.05,0-.11-.02-.17-.03,0-.1.02-.19.02-.28.01-.37.02-.74.04-1.12,0-.05-.02-.11.08-.15,0,.01.02.04.04.06.08.12.15.23.23.35.37.6.73,1.2,1.1,1.79.18.29.37.57.54.86.04.06.05.15.06.22,0,.15,0,.3,0,.45-.02.91-.03,1.83-.05,2.74,0,.06.02.13.06.17.08.1.18.18.32.17.11,0,.21,0,.32,0,.75.01,1.51.02,2.26.03.12,0,.24.01.36.02.17.01.34.03.5-.02.14-.05.24-.17.22-.3,0-.03,0-.07,0-.1,0-.67.02-1.35.02-2.02,0-.75,0-1.5.02-2.25,0-.27-.03-.52-.19-.74-.01-.02-.03-.04-.04-.06-.21-.35-.41-.7-.62-1.05-.13-.22-.26-.43-.39-.65-.03-.05-.05-.1-.08-.15.02-.03.04-.06.06-.09.25-.3.48-.61.66-.95.15-.27.32-.53.43-.82.14-.38.17-.77.18-1.17.01-.9.02-1.8.03-2.7,0-1.17.01-2.33.02-3.5,0-.25-.03-.5-.15-.73-.14-.26-.29-.52-.49-.75Z"/>
      <path class="cls-1" d="M31.5,6.58c-.25-.11-.51-.17-.79-.17-.28,0-.55,0-.83,0-.52,0-1.04-.02-1.57-.02-.14,0-.17.02-.19.16,0,.03,0,.07,0,.1,0,1.03-.02,2.06-.03,3.09,0,.23,0,.46,0,.7,0,.13.05.18.18.2.07.01.13.02.2.02.12.01.25.03.37.04v1.38s-.03,0-.04,0c-.02-.03-.04-.05-.05-.08-.07-.12-.13-.24-.19-.36-.17-.3-.35-.59-.52-.89-.09-.16-.17-.31-.26-.47-.18-.3-.37-.6-.55-.91-.36-.62-.7-1.23-1.06-1.85-.18-.31-.35-.62-.58-.89-.13-.16-.3-.27-.52-.28-.38,0-.76,0-1.15,0-.14,0-.16.02-.16.16,0,.26-.01.51-.01.77-.01,1.23-.03,2.46-.04,3.68,0,.17.1.27.26.28.07,0,.14.01.2,0,.15-.03.24.04.31.16.01.02.03.05.04.07.13.21.25.44.43.62.04.04.08.1.11.15.07.11.06.23-.04.33-.13.14-.26.29-.38.44-.28.39-.52.8-.73,1.23-.17.35-.27.71-.27,1.1,0,.58-.01,1.15-.02,1.73-.02,1.44-.03,2.87-.05,4.31,0,.11,0,.22,0,.33.01.15.04.18.19.18.17,0,.35.01.52.02.89.01,1.78.02,2.67.03.16,0,.33,0,.49,0,.15,0,.18-.04.2-.18,0-.05.01-.11.02-.16.02-.73.03-1.45.04-2.18,0-.53.02-1.05.02-1.58,0-.02,0-.05-.02-.08-.14,0-.28-.02-.42-.03-.09,0-.17,0-.26,0-.14,0-.14-.01-.14-.15,0-.1.01-.19.02-.29.02-.35.04-.7.06-1.04,0-.12.05-.21.15-.3.03.04.06.07.08.11.14.25.29.49.43.74.11.2.23.39.35.59.28.47.56.94.84,1.41.02.04.04.08.04.12,0,.48,0,.96-.01,1.44,0,.48-.01.96-.01,1.44,0,.14.02.16.16.17.35,0,.7.02,1.04.02.66,0,1.33,0,1.99,0,.15,0,.16-.01.17-.17,0-.2,0-.4.01-.59,0-.68,0-1.35.02-2.03.01-.52-.09-1.02-.24-1.51-.02-.07-.05-.13-.09-.2-.21-.36-.42-.73-.64-1.09-.07-.13-.15-.25-.22-.37-.06-.1-.07-.19.02-.28.03-.03.06-.07.08-.1.15-.19.3-.36.43-.56.14-.21.27-.44.37-.67.1-.23.18-.48.23-.73.06-.32.1-.64.12-.96.02-.35.02-.7.02-1.04.01-1.16.03-2.32.04-3.48,0-.45-.12-.87-.4-1.23-.13-.16-.27-.32-.47-.4Z"/>
      <path class="cls-1" d="M39.47,9.94c-.22-.21-.47-.34-.79-.34-.64,0-1.29,0-1.93,0-.14,0-.18.04-.2.17,0,.04,0,.08,0,.12,0,.81-.02,1.62-.02,2.44,0,.16,0,.33,0,.49,0,.16.04.21.2.23.1.01.2.01.3.02.04,0,.08.01.14.02,0,.31,0,.62-.02.93-.03-.02-.05-.02-.06-.03-.16-.27-.33-.55-.49-.82-.13-.22-.25-.45-.39-.68-.15-.26-.32-.51-.47-.77-.3-.52-.59-1.04-.89-1.56-.07-.12-.15-.23-.23-.33-.13-.16-.29-.25-.5-.24-.27,0-.53,0-.8,0-.16,0-.19.03-.19.2,0,.83-.02,1.66-.03,2.5,0,.32,0,.64,0,.96,0,.17.07.23.23.22.04,0,.08,0,.12,0,.11-.02.18.02.23.12.1.18.21.35.31.52.07.12.15.25.22.37-.05.06-.09.11-.12.15-.07.09-.15.18-.22.27-.29.41-.52.85-.7,1.32-.07.18-.1.36-.1.55,0,.48-.01.96-.02,1.44-.01.92-.02,1.85-.04,2.77,0,.28,0,.56,0,.84,0,.15.02.16.17.17.29,0,.57.02.86.02.67,0,1.33,0,2,.01.04,0,.08,0,.14,0,.01-.08.03-.15.03-.22.02-.97.03-1.93.04-2.9,0-.03,0-.07,0-.1-.01-.11-.05-.14-.17-.15-.13,0-.26-.02-.4-.03.02-.4.04-.77.07-1.15,0-.03.03-.07.04-.1.01,0,.03,0,.04,0,.14.23.29.47.43.7.3.49.6.98.9,1.47.04.07.06.14.06.22,0,.16,0,.33,0,.49-.01.53-.02,1.05-.03,1.58,0,.18.01.2.19.21.15,0,.31,0,.46,0,.59,0,1.19,0,1.78,0,.17,0,.18-.01.18-.17.02-1.01.03-2.01.05-3.02,0-.1-.02-.19-.07-.28-.08-.13-.15-.26-.23-.39-.17-.28-.34-.55-.51-.83-.1-.17-.1-.19.02-.33.2-.23.34-.49.51-.74.21-.33.3-.69.31-1.07,0-.45.02-.91.02-1.36,0-.99,0-1.97,0-2.96,0-.22-.05-.41-.17-.59-.08-.13-.18-.26-.29-.36Z"/>
      <path class="cls-1" d="M45.31,13.12c-.15-.23-.37-.34-.63-.35-.45-.01-.9-.01-1.35-.01-.26,0-.27.01-.27.27,0,.72,0,1.44-.01,2.16,0,.09.02.12.11.13.07,0,.14,0,.2.01.05,0,.1.02.15.02v.81s-.02,0-.03,0c-.01-.01-.02-.03-.03-.04-.22-.37-.43-.73-.65-1.1-.31-.53-.62-1.06-.93-1.59-.1-.17-.21-.34-.32-.5-.09-.13-.23-.2-.4-.2-.15,0-.3,0-.45,0-.23,0-.23,0-.23.24,0,.8-.02,1.6-.03,2.41,0,.24.01.25.25.24.08,0,.13.02.18.09.12.21.24.41.37.61.04.07.05.12-.01.18-.31.34-.52.73-.7,1.15-.07.16-.12.32-.12.49,0,.46-.02.92-.02,1.38,0,.8-.01,1.6-.02,2.39,0,.04,0,.08.01.12.18.02,2.25.06,2.37.02,0-.11,0-.23,0-.35,0-.64,0-1.29.01-1.93,0-.14-.02-.16-.16-.17-.09,0-.17-.02-.25-.02-.01-.02-.02-.03-.02-.04.01-.28.03-.56.05-.84,0-.05.04-.09.07-.17.06.1.11.16.15.23.3.49.6.98.89,1.48.03.05.05.13.05.19,0,.5-.01,1-.02,1.49,0,.06,0,.11.01.18h1.9c0-.07.01-.12.01-.18,0-.16,0-.32,0-.48,0-.48,0-.97.02-1.45.01-.26-.06-.48-.21-.69,0,0-.01-.02-.01-.02-.12-.21-.24-.42-.37-.62-.07-.12-.07-.22.02-.33.09-.1.17-.22.25-.34.2-.3.34-.61.35-.98.01-1.08.03-2.16.04-3.23,0-.22-.07-.41-.2-.58-.02-.03-.05-.05-.06-.08Z"/>
      <path class="cls-1" d="M48.6,15.95c-.14,0-.28,0-.42,0-.12,0-.25-.01-.38.03v1.52c.07,0,.13,0,.19.01.1,0,.12.02.12.12,0,.2,0,.4,0,.59,0,.05,0,.1-.06.1-.03,0-.06-.04-.08-.06-.19-.31-.38-.62-.56-.93-.22-.38-.44-.77-.66-1.16-.09-.16-.23-.26-.43-.22-.01,0-.03,0-.04,0-.15.01-.17.03-.17.17,0,.45-.01.9-.02,1.35,0,.08,0,.15,0,.24.05,0,.07,0,.1,0,.09-.02.13.02.17.1.08.15.17.29.26.44.05.07.04.12-.02.18-.18.17-.28.39-.39.61-.07.14-.13.28-.13.44,0,.79-.01,1.58-.02,2.36,0,.06,0,.12.01.18.04,0,.06.01.07.01.39,0,.78,0,1.17,0,.12,0,.13,0,.13-.14,0-.4,0-.79,0-1.19q0-.18-.18-.19c-.1,0-.11-.02-.1-.11,0-.18,0-.36.03-.54,0-.06.04-.13.07-.18.05-.09.1-.08.16,0,.22.37.45.73.67,1.1.04.06.06.14.06.22,0,.22,0,.43,0,.65,0,.12,0,.24,0,.37.37,0,.73.04,1.09,0,0-.05.01-.09.01-.13,0-.42,0-.84,0-1.26,0-.12-.03-.23-.09-.33-.11-.17-.21-.35-.31-.52-.06-.1-.05-.15.02-.23.04-.05.09-.1.13-.16.11-.17.23-.34.25-.55.02-.12.02-.25.02-.38,0-.58.02-1.16.02-1.74,0-.1,0-.19-.02-.29-.06-.27-.31-.51-.66-.5Z"/>
      <path class="cls-1" d="M52.09,20.18c.13-.19.23-.39.22-.63,0-.5.01-1,.02-1.49,0-.08-.01-.15-.03-.23-.05-.18-.23-.32-.42-.33-.2,0-.4,0-.59,0-.14,0-.15.01-.15.15,0,.23,0,.46,0,.7,0,.12,0,.25,0,.37.05,0,.07.01.1.01.12.01.13.02.13.14,0,.11,0,.22,0,.33,0,.03-.02.06-.04.1-.01,0-.02,0-.03,0,0-.02-.02-.03-.03-.05-.14-.24-.28-.48-.42-.72-.16-.28-.33-.55-.48-.83-.09-.16-.21-.24-.4-.22-.14.01-.16.01-.16.16,0,.36-.01.73-.02,1.09,0,.04,0,.08.01.14.15-.02.21.08.27.18.03.06.07.13.11.19.05.07.05.13-.01.19-.15.16-.24.35-.33.55-.04.09-.06.19-.06.28-.01.59-.01,1.17-.02,1.75,0,.05,0,.1.01.16.24.03.96.02,1.07,0,.04-.19.05-1.03,0-1.14-.03,0-.05,0-.08-.01-.1-.01-.11-.02-.11-.13,0-.12.01-.23.02-.35,0-.07.03-.14.13-.18.01.02.02.04.04.06.17.27.33.54.5.82.03.06.05.14.05.21,0,.2,0,.41,0,.61,0,.04,0,.08.01.13.25,0,.49,0,.72,0,.13,0,.14-.02.15-.16,0-.31.01-.62.01-.93,0-.06-.02-.12-.05-.18-.07-.13-.15-.26-.23-.39-.08-.14-.08-.14.02-.27.02-.02.04-.04.05-.07Z"/>
      <path class="cls-1" d="M31.09,15.95s.02-.02.02-.03-.01-.02-.02-.03c-.01.02-.02.03-.02.03,0,0,.02.02.03.02Z"/>
    </g>
  </g>
</svg>