<?xml version="1.0" encoding="UTF-8"?>
<svg id="Layer_2" xmlns="http://www.w3.org/2000/svg" viewBox="0 0 54.2 9.16">
  <defs>
    <style>
      .cls-1 {
        fill: #2c489e;
      }
    </style>
  </defs>
  <g id="Layer_3">
    <g id="Layer_1-2">
      <g>
        <path class="cls-1" d="M.08,8.27c-.09.16-.12.45-.03.59.08.12.37.14.56.14.41-.02.81-.09,1.33-.15.48.42,1.11.16,1.72.12.17-.01.35.01.53.01h1.49c.06,0,.12-.05.17-.04,1.31.32,2.63.11,3.95.17.58.02,1.15.01,1.72.01.21,0,.41-.06.62-.1.11-.02.26-.09.33-.05.56.37,1.15.02,1.72.09.07.01.18-.08.23-.15.53-.77,1.04-1.55,1.59-2.3.34-.46.66-.98,1.12-1.29.35-.24.9-.26,1.36-.26.69.01,1.39.27,1.99-.31.05-.05.21-.01.31.02.38.12.75.3,1.14.35.56.06,1.14.14,1.67.02.98-.22,1.88.16,2.89.12.05-.06.17-.17.27-.3h0c.27.09.55.2.83.2,1.63.04,4.9.02,6.54.04.51,0,1.01.06,1.52.09.1.01.19.03.29.03.25-.02.51-.06.49-.41-.01-.32-.25-.34-.49-.34-.93-.01-1.87-.03-2.8-.03-1.39-.01-4.42-.03-5.81-.03-.15,0-.29.02-.44.05-.12-.07-.25-.16-.37-.16-.62-.02-1.25,0-1.87,0h-4.91c-.7,0-1.41.05-2.11.03-.19,0-.45-.12-.56-.27-.62-.89-1.2-1.79-1.79-2.7-.23-.35-.41-.74-.65-1.09-.08-.13-.28-.26-.42-.26-2.4,0-4.79.02-7.18,0-1.96-.02-3.93-.07-5.89-.11-.16,0-.33,0-.49.02C.2.07,0,.48.26.84c.94,1.27,1.74,2.67,3.15,3.53.24.15.21.36-.02.46-1.13.52-1.83,1.51-2.61,2.4-.28.32-.51.68-.71,1.06v-.02ZM10.41,6.25c-.1.02-.22-.13-.33-.2.15-.05.29-.11.44-.15.08-.02.17-.03.26-.04.02.05.05.1.08.15-.15.09-.3.22-.46.25h.01ZM9.66,4.05c.09-.23.18-.44.27-.66.16.56.09.66-.27.66ZM7.65,4.02s.17-.22.21-.2c.14.06.24.17.43.32-.18.1-.37.21-.37.21-.12-.07-.21-.2-.27-.33Z"/>
        <path class="cls-1" d="M37.51,4.59h-.95c.36.51.71.64,1.16.6.25-.02.5.07.75.06.92-.05,1.83-.04,2.79.31-.16.13-.26.23-.38.29-1.26.57-2.16,1.62-3.19,2.5-.22.19-.3.54-.45.81.29-.05.58-.06.85-.16.9-.32,1.81-.61,2.66-1.02,1.02-.49,2.15-.56,3.2-.94,1.06-.38,2.19-.55,3.29-.8,1.13-.25,2.27-.52,3.41-.72.82-.14,1.66-.18,2.49-.26.23-.02.47.02.68-.05.15-.05.26-.25.38-.38-.15-.09-.28-.25-.43-.25-1.93-.11-3.85-.34-5.73-.84-1.42-.37-2.86-.67-4.27-1.09-1.39-.41-2.76-.91-4.12-1.41-.62-.22-1.2-.54-1.81-.78-.15-.05-.36.04-.54.07.05.18.05.41.16.52,1.03,1.02,2.08,2.02,3.12,3.04.13.12.21.3.31.45-.18.05-.36.14-.54.14-.95-.02-1.9-.07-2.85-.1h.01Z"/>
      </g>
    </g>
  </g>
</svg>