<?xml version="1.0" encoding="UTF-8"?>
<svg id="Layer_2" xmlns="http://www.w3.org/2000/svg" viewBox="0 0 46.04 41.93">
  <defs>
    <style>
      .cls-1 {
        fill: #2c489e;
      }
    </style>
  </defs>
  <g id="Layer_1-2" data-name="Layer_1">
    <g>
      <path class="cls-1" d="M23.46,16.97c.92.22,2.93-.58,3.97-1.99.85-1.15,1.73-2.75,1.51-4.16-.1.38-.27.72-.49,1.04-.23-.45-.15-1.02-.15-1.51-.3.12-.34.33-.39.62-.35.03-.69-.03-1.03.1-.49.18-.58-.41-1.07.06-.32.31-.54.49-.97.63-.16-.49.38-.5.27-.84-.75.25-1.58-.3-2.02.39.21.26.94.05,1.18.02.14.48-3.34,1.4-3.57,1.4.35-.45.71-.89,1.06-1.34-.66-.26-2.74,2.82-3.17,3.32-.79.93-2.42-.06-3.2.34.16.8,3,1.27,2.56.28.6,0,1.19.08,1.79.17-.37.54-.88.53-1.48.74.24.33,2.98-.04,3.4-.33.95-.65,3.06-1.1,3.95-.05-.22.17-1.33.79-2.14,1.14.49-.21,0-.01,0,0ZM21.76,14.43c.4-1.13,1.92-1.34,2.95-1.5-.01.11-.06.37-.08.48-1.09.14-3.02.89-2.87,1.01Z"/>
      <path class="cls-1" d="M.76,11.03c.6-.83.83-2.01.21-2.4.31-.69.51-1.47,1.23-1.83.67-.27-.32-.65.82-.55.45.04.77-.61,1.14-.81.91-.49.15-1.48.82-1.86.46-.26,2.08-1.06,2.1-1.6-.67,0-1.34,0-2,0-.82,0-.77.13-1.14.83.44-.09.87-.18,1.31-.27.19.57-1.8.46-1.29,1.41.44.82-1.37,1.32-2.02,1.52.06.72.29.78-.53,1-.39.1-.52.95-.63,1.25-.15.39-.34.79-.44,1.2.8.57-.44,2.52-.33,3.1.33-.11.37-.45.76-.98Z"/>
      <path class="cls-1" d="M7.56,1.5c.78-.48,2.46.2,3.27.39-.59.77.36.93.97.89-.11-.21-.22-.42-.33-.64-.07.06,1.39.4,1.5.4.79,0,1.44-.26,2.19-.51.59-.19-.04-.74-.48-.61-1.26.38-1.66.39-2.91-.14-1.62-.7-2.88-.58-4.55-.46-.17.01-1.38.22-1.39.59-.02.57,1.45.25,1.73.07.08-.05-.29.18,0,0Z"/>
      <g>
        <path class="cls-1" d="M11.97,21.89h0s.02-.12.03-.16c0,.03-.02.08-.03.16Z"/>
        <path class="cls-1" d="M12.01,21.72s0-.01,0-.01c0,0,0,0,0,.01Z"/>
        <path class="cls-1" d="M41.76,35.84s0,0,0,0c-.1-.14-.05-.06,0,0Z"/>
        <polygon class="cls-1" points="25.1 25.75 25.11 25.75 25.11 25.75 25.1 25.75"/>
        <path class="cls-1" d="M33.28,29.62c.54-.17-.09-.19,0,0h0Z"/>
        <g>
          <path class="cls-1" d="M1.88,17.63c-.08,0,.25,0,0,0,.86-.03,1.39.2,2.21.47.27-1.15-.72-3.12-.13-4.23.33-.63,1.11-.78,1.33-1.51-.19-.14-.51-.07-1.13.26-1.31.71-1.05,2.41-.8,3.64.18.89-.14.46-.99.74-.09.03-.18.06-.28.09-.05-.24-.1-.47-.15-.71.01.05.05.23,0,0,0,0,0,0,0,0-.21-.9-1.11-.61-.44-1.94.28-.56.44-.71.37-1.48-.06-.74.19-.75.48-1.21-.52-.15-.79.86-.98,1.54-.07.26-.39.28-.52.33-.18.07-.21.96-.22,1.15-.05.73-.05,1.79.39,2.16.27.23.25.11.35.59-.11.16-.08.37.18.65.01-.25.12-.43.32-.53Z"/>
          <path class="cls-1" d="M44.62,38.85c-.92-.99-2.06-1.92-2.86-3.01.06.08.03.05,0,0-1.52-2.06-4.34-2.7-6.58-3.65.9-2.31,2.13-4.74,1.91-7.34-.24-2.87.14-5.7-.88-8.38,0-.02-.52-1.35.28-.85.59.37.61-.52,1.07-.82,1.25-.81,2.21-1.33,1.57-3.01-.19-.49.52-.91.35-1.42-.2-.6-.39-1.18-.37-1.82,1.54-.59,1.21-2.3-.64-4.25-.33.55.97,1.66,1.16,2.13-.28.16-.78-.32-.93-.43-.03.44,1.59,2.08.46,2.01-.67-.04-.63-1.36-1.4-1.01.78.32.25,1.21.48,1.74.19.45.93.51.23.74.46.14.92.44.15.54.06.75.29,1.12-.46,1.46,1.18.85-.42.83-.95,1.15-.37.23-.09.69-.34.94-.3.31-.96-.12-.88-.51-.31.36-.1.88-.62,1.09-.22-.18-.04-.87-.02-1.09.01-.14-.68-1.2-.77-1.44-.38-1.08-.58-2.15-.96-3.23-.81-2.36-2.08-5.31-5.03-6.49.2-.27,1.23-.12,1.46-.36.29-.3,1.26-.69,1.45-.95-.29-.39-1.11.04-1.65.28-.54.23-1.76.74-2.49.57-.24-.06-3.49-1.21-3.98-1.29-.82-.12-1.59-.12-2.36-.14-1.2-.04-2.38.37-2.76.49-1.64.54-2.17,1.2-2.2,1.47.04-.02.62-.37.57-.33,1.42-.94,3.73-1.12,5.38-1.02,2.2.14,5.53,1.45,7.59,2.37,1.1,1.02,2.25,2.1,2.63,3.74.15.66.54-.13.38.87-.1.63.2,1.3.39,1.89.19.58-.17.92.43,1.17.5.21.52.34.72.85-.5-.15-1.75-.16-.68.51-.7.17-.82-.49-1.41-.58-.85-.13-1.25-.1-1.88-.7-.18.72-.49,1.99.18,2.59,1,.89,1.88,1.88,2.66,2.97.82,1.14,1.45,1.01,2.77,1.28.8.16.28,2.52.24,3.13-.78-.13-1.69-.55-2.03-1.34-.2-.46,0-.9-.37-1.37-.49.2-.97.44-1.45.67-1.08.52-2.86.4-4.04.54-.25-.65-.65-.32-.13-1.11.4-.61,1.45-.23,1.37-.95-.73.2-1.45-.03-2.09.51-.86.72-1.43,1.82-1.87,2.83-.5,1.14-1.37,1.05-2.45,1.04-.71,0-2.24.27-2.87-.15-.47-.31-.99-2.1-1.35-2.01-1.03.27-1.57-.88-2.53-.92-1.05-.04-.47-1.59-.33-2,.2-.59-1.3-.33-1.65-.37.4-2.48,2.47-3.16,4.7-3.3-.48.6-1.16.96-1.48,1.68,1.1-.13,1.22-.58,1.99-1.25.72-.63.49-1.28.34-2.11-.59.15-1.23-.93-1.78-.61-.65.38-1.29-.15-1.53-.64-.56.68-.93.52-1.76.52-.09.59-.21.65.33.99,1,.62.08-.53,1.04,0-.61.59-.09.6.29,1.22-.85,0-1.95.99-2.4.41-.34.42-.35.8-.88.49-.56-.33-1.22.47-1.78.75-.14-1.04,1.07-1.89,1.12-3.05-.24.25-.51.47-.82.64-.1-.21-.2-.42-.3-.63-.64.32-1.67,1.34-1.51,2.13.27-.21.53-.41.8-.62.05.67-.17.81-.43,1.41-1.5-.7-2.72.65-2.83,2.2-.01.17.06,1.76-.53,1.14-.43-.45.1-.65-.72-.65-.18-.41-.32-.84-.52-1.25-.76.69.13,1.82.45,2.71-.93.18-1.3-.86-1.69-1.43-.06,1,.03,1.65.88,2.15-.62.49-.87.42-.68,1.26.02.09.31,1.19.24,1.23-.64-.68-.71-.41-1.5.07-.02-.41-.2-1.13-.05-1.53.06-.16.39-.27.4-.47.02-.66.16-.78-.47-1.11-.86-.44-.88-.59-1.52.14.54.22.78.96.96,1.45.21.57,0,1.66.34,2.12.39.54.69.37,1.02,1.12.41.93.87.9,1.77,1.28,0,.52-.14.92.34,1.2.18.09.33,0,.46-.28.31.36.63.88,1.07,1.1.69.36,1.39.73,2.1,1.05.62.28,1.4.32,1.93.76,1.21.98,1.76,2.57,2.33,3.97.24.59-.05.68-.09,1.23-.08,1.12-.02.87-.83,1.52-1.53,1.24-2.6,2.8-3.94,4.2-1.08,1.13-2.5,1.71-3.81,2.49,2.23,0,3.62-2.03,5.58-2.95.67-.32,1.04.61,1.75.03.7-.57,1.14.54,1.49,1.04.22-.51.44-1.03.66-1.54.67,0,1.35-.09,1.96-.39-.36-.61-1.09-1.35-.02-1.75.96-.35,2.23.52,3.19.71,1.5.29,1.39.27.84,1.65-.42,1.06-.64,2.16-.69,3.29.47-.09,1.13-3.13,1.69-3.76,1.06-1.2,3.47-1.4,4.93-.96,1.6.48,2.69,1.99,3.32,3.46.28.65,3.62-.35,2.4,1.36,1.28-.1,1.46-.76,2.52-1.41,1.34-.83,2.92-1.3,4.44-1.66,1.43-.34,2.24-.4,3.57.25.94.47,1.81,1.1,2.77,1.53,1.19.54-.86-1.6-1.05-1.8ZM11.97,21.89s0,0,0,0t0,0c.04-.21.2-1.75.36-1.78.04.09.5,1.17.59,1.16.04-.25.08-.49.11-.74.33.65.68,1.01.11,1.35-.29.17-1.48,1.53-1.18,0ZM7.55,19.05c-.04-.57-.23-.75.42-.98,1.05-.38,2-.01,2.89.57.69.45,1.18,1.56.14.71-.74-.61-1.44-.76-2.36-.54-.74.18-.19.61-1.08.25ZM13.69,25.85c-1.88.5-3.45.23-4.38-1.58.32.13.65.18.99.14-.34-.3-.53-.7-.61-1.15.62.52.65.9,1.33.44.57-.38.8-.24,1.39,0,1.06.41,1.32.99,1.28,2.16ZM35.41,23.77c.42.16,1.51,1.82.66,1.96-.83.14-.68-1.53-.66-1.96ZM33.4,20.53s.04.03.04.03c.64.5,1.17,1.38,1.34,2.17-.19-.09-.37-.08-.54.05-.02-.34-.9-2.19-.85-2.25ZM25.11,25.75s-.03.02,0,0c-2.09,1.38-.96-1.17-.72-2.23,1.01.89,1.08-.47,1.25-1.12.28-1.14.83-2.11,1.66-2.93.59,1.04,1.43.73,2.46,1.1,1.2.43,1.8,1.45,2.89,2.04-.13.34-.75.32-1.03.3-.97-.07-1.72.07-2.7.3-1.82.43-2.37,1.6-3.8,2.54.1-.07.42-.28,0,0ZM33.28,29.62c-.56-1.19-.87-.54-2.05-.77-.54-.11-1.9.39-2.34.09-.55-.38-1.25-.57-1.74-1.05-.68-.68-.74-.39-1.71-.01-.29-1.76,1.86-3.37,3.54-3.5,1.26-.1,3.18-.64,4.4-.24-.69.31-1.59-.28-2.16.5-.3.41-1.19,1.16-.37,1.47.23.01.47,0,.7-.01.46.09.87.36,1.33.46,1.06.23,1.51-.16,2.04-1.01,1.06,1.7.27,3.46-1.66,4.07Z"/>
        </g>
        <path class="cls-1" d="M33.45,20.57s-.03-.02-.04-.03c0,.01.05.04.04.03Z"/>
        <path class="cls-1" d="M12.01,21.71s0-.02,0,0h0Z"/>
        <path class="cls-1" d="M8.63,18.8c.23-.06-.25.06,0,0h0Z"/>
        <path class="cls-1" d="M35.41,23.77c-.02.39.18.07,0,0h0Z"/>
        <path class="cls-1" d="M13.69,25.85c.02-.52-.16.04,0,0h0Z"/>
        <path class="cls-1" d="M16.65,1.63s-.01,0-.02.01c-.05.03-.1.07.02-.01Z"/>
        <path class="cls-1" d="M33.38,1.12c-.05,0-.1,0-.15,0-.2,0,.15.1.15,0Z"/>
        <path class="cls-1" d="M33.23,1.11s.08,0,.15,0v.29c-.34-.02-.7-.02-.99.2.07.21.51-.05.72.2-.13.17-.3.24-.51.19-.09.34-.16.68-.22,1.02.58-.28.98-1.3,1.18-.52.13.49.09.49-.1.96.34.28.76.38,1.19.3-1.19-1.26.62-.14.36.05.87.34,2.09.57.88,1.42.43.37.89-.25,1.17-.02.42.36.56.93.61,1.5.58-.26.15-1.31-.22-1.56-.8-.54-.64-1.35-1.51-1.62-.8-.24-1.67-.66-1.77-1.54-.15-1.25-1.14-1.29-2.3-1.5.06.85.68.59,1.35.6Z"/>
      </g>
      <path class="cls-1" d="M13.43,8.02c-.13.04-.26.07-.4.11.11.28.23.57.34.85.91-.83,1.37-1.46,1.02-2.79-.44-1.67-.49-2.25-2.16-2.83.26.4.64.69.87,1.1.52.93,0,1.08-.69,1.73.35.06.7.11,1.04.17,0,.15-1.28.61-1.44.68.03,0,2.65.47,1.41.97-.12.05.22-.09,0,0Z"/>
      <path class="cls-1" d="M18.13,9.08c.48,1.11,1.32.33,2.06-.05-.45-.26-.9-.12-1.33.11-.11-.38-.23-.77-.34-1.15.23-.06.46-.12.69-.18-.57-.53-1.48-1.87-2.18-1.39.3.35.6.7.91,1.04-.53.61-.11.93.19,1.62.01.03-.18-.4,0,0Z"/>
      <path class="cls-1" d="M16.17,9.64c.68-.22,1-.07,1.63.17-.33-.9-.71-1.88-1.32-2.63-.21.72.4.64.34,1.17-.13,1.17-.62.88-1.61,1.31.32.08.64.08.96-.01.18-.06-.31.1,0,0Z"/>
    </g>
  </g>
</svg>