<?xml version="1.0" encoding="UTF-8"?>
<svg id="Layer_2" xmlns="http://www.w3.org/2000/svg" viewBox="0 0 43.27 31.43">
  <defs>
    <style>
      .cls-1 {
        fill: #2c489e;
      }
    </style>
  </defs>
  <g id="Layer_1-2" data-name="Layer_1">
    <g>
      <path class="cls-1" d="M40.56,11.07c-.63-.53-1.37-.92-2.1-1.4.09-.13.19-.27.28-.42.7-1.24.35-2.05-1.04-2.36-.06-.01-.12-.01-.18-.02-1.31-.07-2.06.09-3.08.21-2.09.24-4.02.96-5.8,2.06-.73.45-1.42.97-2.13,1.45.11.1.15.12.18.1,2.1-1.47,4.33-2.66,6.85-3.22,1.37-.31,2.75-.47,4.15-.24.71.11,1.2.66,1.08,1.18-.17.7-.85,1.07-1.14,1.16-.3-.03-1.02-.12-1.31-.17-1.58-.24-2.35-.18-3.49.27-.16.06-.44.29-.45.45,0,.15.24.41.43.47.47.14,1.2.24,1.67.18.95.02,2-.37,3.1-.6.19-.04.41-.14.57-.08,1.69.6,2.97,1.72,3.73,3.32.84,1.77.73,3.64.26,5.49-.57,2.22-1.9,3.72-4.2,4.26-.34.08-1.04.2-1.04.2,0,0-.37-.41-.59-.67-.77-.93-1.85-1.43-2.99-1.75-.48-.13-1.17-.31-1.45.31-.27.59.31.93.72,1.22,1.03.72,2.19,1.12,3.45,1.18.24.01.6.05.6.05,0,0,.02.36.04.55.08,1.18-.32,2.17-1.04,3.07-2.81,3.48-7.12,2.06-8.46-1.07-.08-.19-.22-.36-.33-.54-.05.02-.09.04-.14.06.03.19.05.38.08.57.26,1.77-.56,3.89-2.73,4.22-.85.13-1.75.18-2.6.06-1.18-.16-2.31-.63-2.87-1.78-.35-.71-.47-1.54-.68-2.32-.05-.19-.06-.4-.09-.6-.06,0-.12-.02-.18-.03-.09.2-.2.39-.27.59-.72,2.02-2.26,2.95-4.29,3.18-1.09.12-2.01-.37-2.88-.96-1.46-.99-2.45-2.19-2.6-4.84.1-.06.18-.05.88-.19,1.17-.23,2.24-.7,3.16-1.47.31-.26.47-.62.22-.94-.16-.21-.5-.3-.78-.38-.15-.04-.35.04-.52.1-1.05.38-2.16.76-2.81,1.68-.31.44-.29.52-.4.73-3.33-.13-5.48-1.92-6.09-4.15-.58-2.12-.59-4.21.54-6.18.69-1.2,1.51-2.27,2.91-2.68.32-.1.71-.13,1.02-.02.77.26,1.47.72,2.25.9.88.2,1.8.2,2.71.23.15,0,.41-.21.45-.37.04-.16-.08-.41-.2-.56-.13-.16-.35-.26-.54-.35-1.25-.58-2.59-.67-3.92-.54-.93.09-1.52-.35-2.06-.96-.4-.46-.27-.89.32-1.02.54-.12,1.1-.22,1.65-.2,3.48.11,6.68,1.13,9.6,3.06.11.07.23.12.35.18,0-.18-.06-.24-.14-.29-2.08-1.37-4.31-2.4-6.75-2.89-1.51-.3-3.04-.58-4.6-.29-.4.07-.81.08-.96.55-.18.54.05.96.44,1.33.22.21.69.58,1.06.79-.33.04-.74.08-1.16.29C1.62,11.36.25,13.41.02,16.21c-.32,4.05,3.02,7.58,6.67,7.57.41,0,.45.05.51.09,0,.89.39,2.69.76,3.47,1.62,3.49,5.98,3.76,8.6.92.29-.31.57-.63.93-1.02.5,1.24.99,2.36,2.01,3.15,1.05.81,2.23,1.19,3.52,1.01,2.32-.33,3.69-1.76,4.25-3.98.6.49,1.16,1.02,1.79,1.45,1.73,1.18,4.52,1.22,5.97.23,1.61-1.1,2.05-2.88,1.98-4.8,0-.27.03-.65.03-.65,0,0,.34-.09.54-.12,2.89-.44,5.22-2.79,5.62-5.79.36-2.72-.56-4.93-2.64-6.65ZM32.84,10.1c-.05-.61,3.69-.59,4.35-.22-.74.51-4.39.69-4.35.22ZM32.26,21.32c1.03-.28,3.65.9,4.09,1.94-1.45.19-3.94-.97-4.09-1.94ZM10.81,21.18c.19-.06.57-.04.78.26.07.23-.13.43-.27.54-.9.73-2.36,1.28-3.66,1.47.88-1.5,2.06-1.91,3.15-2.27ZM10.78,11c-.24.57-4.14-.38-4.8-1.01,1.39-.31,4.99.37,4.8,1.01Z"/>
      <path class="cls-1" d="M20.14,11.03c1.19.79,2.77.85,3.88-.04.39-.32.73-.7,1.06-1.08,2.38-2.7,1.66-6.89-1.03-9.02-1.45-1.15-3.18-1.19-4.45-.09-1.5,1.3-2.36,2.88-2.35,4.84.02.31,0,.63.06.94.31,1.84,1.18,3.34,2.83,4.45ZM19,1.9c.45-.65,1.22-1.13,1.94-1.51.62-.33,1.33-.2,1.99.17,2.11,1.18,2.93,3.07,3.08,5.21-.05,2.23-.84,3.94-2.51,5.19-1.15.86-3.04.51-4.06-.78-1.95-2.48-2.35-5.55-.44-8.27Z"/>
    </g>
  </g>
</svg>