<?xml version="1.0" encoding="UTF-8"?>
<svg id="Layer_2" xmlns="http://www.w3.org/2000/svg" viewBox="0 0 47.57 25.48">
  <defs>
    <style>
      .cls-1 {
        fill: #2c489e;
      }
    </style>
  </defs>
  <g id="Layer_1-2" data-name="Layer_1">
    <g>
      <path class="cls-1" d="M47.4,20.69c-.12-.07-.25-.15-.39-.17-.45-.08-.9-.11-1.34-.2-1.04-.23-2.08-.48-3.12-.74-.44-.11-.57-.65-.26-1.01.11-.13.26-.22.38-.33.31-.28.31-.47-.04-.72-.33-.23-.67-.21-1.04-.08-.16.06-.37.02-.54-.03-.32-.08-.62-.26-.94-.3-.49-.06-.99-.02-1.49-.04-.58-.02-1.17-.06-1.75-.08-.06,0-.14,0-.19.02-.91.44-1.92.3-2.87.48-.13.02-.35-.05-.4-.14-.05-.1.01-.31.09-.43.52-.75,1.06-1.5,1.6-2.24.2-.27.46-.51.62-.81.44-.78.74-1.63,1.31-2.35.45-.58.76-1.27,1.12-1.92.19-.34.38-.68.53-1.04.06-.14.06-.34.03-.49-.1-.42-.37-.69-.78-.86-.39-.17-.78-.37-1.11-.63-.22-.18-.4-.22-.66-.2-.3.02-.64,0-.9-.11-.89-.41-1.44-.13-1.62.77-.1.49-.33.95-.5,1.42-.06.18-.14.36-.18.54-.14.59-.21,1.22-.68,1.68-.4.38-.74.29-.98-.2-.29-.6-.23-1.22-.1-1.8.15-.69.47-1.34.74-2,.23-.56.09-.89-.51-1.04-.37-.09-.75-.18-1.13-.25-.58-.11-1.17-.24-1.76-.27-.41-.02-.57.24-.63.65-.05.36-.1.7.11,1.04.08.13.05.36.02.54-.14.73-.46,1.38-.93,1.95-.34.41-1.09.42-1.29,0-.23-.49-.44-1.03-.27-1.58.21-.65.47-1.29.76-1.92.21-.46.23-.65-.16-.96-.18-.14-.48-.23-.71-.2-.99.13-1.97.2-2.96.09-.2-.02-.43.02-.61.12-.11.06-.22.27-.19.39.06.26.18.52.33.75.3.45.36.94.31,1.46-.02.26-.02.52-.06.78-.04.28-.12.55-.19.82-.05.18-.13.34-.22.56.67-.16,1.2-.85,1.12-1.36-.09-.56-.12-1.14-.21-1.7-.07-.43.24-1.08.57-1.08.23,0,.47.05.7.08.39.06.62.3.58.7-.06.58-.17,1.15-.22,1.73-.02.23.05.46.1.69.05.21.16.42.21.63.07.27.02.59.34.75.17.09.32.23.51.29.27.09.58.23.85.18.73-.13,1.34-.52,1.78-1.12.16-.22.32-.48.35-.73.06-.62.02-1.24.05-1.86.01-.32.04-.65.14-.96.11-.33.32-.35.62-.16.16.1.33.22.51.27.47.13.58.28.47.76-.09.39-.21.78-.31,1.17-.28,1.12-.21,2.15.5,3.15.69.96,2.48.65,2.82-.32.13-.37.32-.72.47-1.08.18-.43.38-.85.53-1.29.09-.27.12-.56.19-.83.07-.31.27-.35.54-.23.28.13.57.26.86.38.74.3.84.55.42,1.24-.5.82-1,1.64-1.53,2.45-.59.91-1.2,1.8-1.79,2.71-.27.41-.62.81-.74,1.27-.24.9-1.13,1.49-2.02,1.2-.25-.08-.48-.23-.73-.27-.79-.13-1.59-.23-2.38-.33-.61-.08-1.21-.17-1.82-.21-1.05-.07-2.11-.12-3.16-.13-.62,0-1.24.13-1.85.17-1.57.1-3.16-.2-4.72.21-.17.04-.46-.03-.56-.16-.22-.28-.36-.62-.53-.94-.3-.54-.56-1.12-.92-1.62-.25-.35-.59-.62-.59-1.11,0-.08-.11-.17-.17-.25-.54-.83-1.09-1.64-1.59-2.49-.28-.48-.44-1.03-.7-1.52-.26-.48-.23-.7.22-1.02.11-.08.23-.13.34-.19.53-.3,1.09,0,1.07.62-.04.79.24,1.49.49,2.2.07.21.23.44.41.55.5.31.85.77,1.5.92.89.21,2.24-.31,2.44-1.21.18-.81.26-1.64.33-2.47.03-.36-.1-.72-.14-1.09-.04-.39.29-.65.81-.63.39.02.35.3.31.58-.05.39-.18.8-.09,1.16.16.63.24,1.27.69,1.84.54.69,1.18.89,1.97.89.1,0,.2-.07.33-.11-.28-.18-.55-.29-.73-.48-.58-.63-1.06-1.3-1.03-2.23.01-.35-.1-.69.12-1.02.04-.06.02-.15.03-.23.03-.25.1-.5.1-.74,0-.2-.03-.44-.15-.59-.13-.17-.34-.13-.56,0-.19.13-.45.2-.68.21-.74.05-1.49.05-2.23.12-.16.01-.4.22-.42.36-.05.33-.02.68.3.92.09.07.22.15.24.25.14.59.4,1.21.33,1.78-.08.74-.43,1.45-.98,2.01-.08.08-.27.11-.38.08-1.14-.35-2.05-1.92-1.7-3.05.11-.37.09-.62-.04-.95-.27-.71-.72-.92-1.42-.61-.19.08-.39.2-.58.2-.81-.02-1.54.27-2.26.58-.38.17-.46.5-.21.83.08.1.16.21.2.33.31.83.55,1.68,1.08,2.43.53.76.94,1.6,1.37,2.42.11.21.16.49.15.74,0,.21.02.35.22.44.09.04.2.11.24.2.34.69.68,1.37.98,2.08.04.1-.08.37-.17.39-.35.08-.72.16-1.06.12-.82-.09-1.64-.31-2.46-.37-.95-.07-1.94-.21-2.84-.01-.94.2-1.83.73-2.71,1.18-.35.18-.33.61-.05.91.3.31.29.44-.13.59-.61.23-1.23.42-1.84.64-.44.16-.88.3-1.3.5-.79.37-.82,1.1-.12,1.61.38.28.7.64,1.05.97.22.21.42.42.64.64.27.26.57.5.79.79.42.55,1.14.76,1.79.5.1-.04.23-.04.34-.04.23,0,.47.02.7,0,.31-.04.62-.18.92-.16,1.39.07,2.76-.32,4.17-.1.87.13,1.79-.02,2.68-.07.63-.03.98-.63.78-1.22-.07-.22-.03-.48,0-.72,0-.07.14-.18.21-.18.28.01.57.03.85.1,1.06.25,2.11.55,3.18.78.67.15,1.36.24,2.04.33.63.09,1.27.17,1.91.19.85.03,1.69-.02,2.54-.02.75,0,1.51.02,2.26.03.08,0,.16,0,.23,0,1.69-.24,3.41-.22,5.08-.62.1-.02.21-.04.31-.06.33-.06.56.04.68.37.04.11.12.26.23.3.47.18.95.46,1.44.47,1.43.03,2.77.46,4.13.79.96.23,1.91.52,2.85.8.38.12.74.06,1.06-.12.8-.45,1.52-1,2.13-1.7.45-.5.7-1.19,1.4-1.47.11-.04.16-.25.24-.39.11-.2.2-.42.34-.6.15-.2.13-.33-.07-.45ZM10.45,22.85c-.81.05-1.62.15-2.42.13-1.2-.03-2.38.09-3.53.43-.36.11-.59-.12-.79-.37-.16-.19-.32-.38-.49-.54-.38-.37-.79-.71-1.17-1.08-.25-.25-.2-.45.13-.59.26-.12.54-.2.81-.3.5-.18,1-.37,1.51-.52.48-.15.98-.26,1.47-.39.14.06.28.1.4.18.67.42,1.34.85,2.01,1.28.66.42,1.32.82,1.98,1.24.08.05.16.1.21.17.06.08.11.18.1.26,0,.05-.14.11-.22.12ZM38.03,20.96c-.23.02-.47,0-.71,0-.68,0-1.35,0-2.03.01-.06,0-.13,0-.19.02-1.19.45-2.46.27-3.68.43-.88.12-1.76.26-2.64.39-.12.02-.23.06-.35.06-1.22.03-2.45.11-3.67.06-.63-.02-1.32.1-1.91-.3-.03-.02-.07-.03-.11-.03-.54.02-1.07.06-1.61.07-.28,0-.57-.02-.85-.06-.63-.09-1.27-.16-1.89-.29-.81-.17-1.62-.4-2.43-.6-.71-.17-1.42-.34-2.16-.2-.09.02-.18.02-.27.02-1.18-.04-2.37-.09-3.55-.14-.09,0-.2,0-.27-.04-.79-.52-1.77-.72-2.47-1.42-.18-.18-.43-.29-.64-.44-.12-.09-.27-.18-.33-.31-.34-.65-.08-1.01,1.08-1,1.45.04,3.27.08,5.1.16.61.03,1.22.21,1.83.3.63.09,1.27.14,1.9.24.94.15,1.87.33,2.81.48.33.05.67,0,1.01.05.47.06.94.2,1.41.24,1.19.1,2.38.16,3.57.23.3.02.6.02.9.01.98-.04,1.95-.1,2.93-.14.77-.03,1.54-.04,2.3-.08,1.55-.08,3.11-.18,4.66-.27.93-.06,1.87-.14,2.8-.18.43-.02.86.02,1.29.08.45.07.58.47.26.8-.55.59-1.12,1.16-1.7,1.71-.1.09-.27.13-.42.14ZM45.09,21.82c-.73.82-1.71,1.32-2.6,1.92-.19.13-.45.16-.69.25-.59-.16-1.15-.33-1.72-.47-.29-.07-.59-.07-.88-.14-.2-.05-.39-.15-.59-.22.11-.18.18-.39.33-.52.41-.34.78-.7,1.1-1.14.43-.6.96-1.17,1.89-.96.42.09.89-.02,1.32.05.32.05.62.23.93.34.25.09.51.17.76.27.14.06.32.15.37.28.03.08-.12.25-.21.36Z"/>
      <path class="cls-1" d="M31.02,14.23c.3.09.85-.12.86-.37,0-.34-.32-.32-.54-.38-.63-.16-1.26-.32-1.9-.43-.91-.16-1.83-.25-2.74-.41-.89-.16-1.76-.3-2.68-.27-1.59.05-3.18.01-4.77.01,0-.03,0-.06-.01-.09-1.17.17-2.34.35-3.51.52-.09.01-.2.02-.26.08-.09.08-.18.2-.19.31,0,.07.13.21.21.22.41.03.82.05,1.23.04.84-.02,1.62-.64,2.51-.25.06.02.15-.03.23-.04.54-.03,1.09-.07,1.63-.07.21,0,.44.17.64.13.43-.08.87.02,1.26-.04.78-.12,1.55.28,2.32,0,.11-.04.26.01.39.03.56.09,1.13.17,1.69.27.13.02.25.07.37.13.06.03.09.11.14.17-.07.05-.13.15-.2.15-.23,0-.46-.06-.69-.07-1.1-.06-2.21-.1-3.31-.16-.13,0-.26-.04-.39-.06-.63-.07-1.26-.14-1.89-.2-.08,0-.17.05-.26.07-.24.05-.48.08-.73.13-.7.13-1.4-.12-2.12.06-.78.2-1.68-.09-2.37.53,0,0-.02,0-.04.01-.18.04-.4.07-.33.33.07.26.26.33.52.27.25-.07.51-.14.76-.17.75-.08,1.5-.14,2.25-.21.55-.05,1.11-.13,1.66-.16.48-.03.96-.04,1.44,0,1.17.09,2.34.33,3.51.3,1.06-.03,2.07.13,3.1.35.69.15,1.38.28,2.07.39.25.04.52,0,.57-.33.03-.22-.32-.49-.61-.49-.1,0-.22.03-.31,0-.11-.05-.19-.15-.29-.23.1-.06.2-.18.3-.18.16,0,.33.05.49.1ZM29.33,14.44c-.17-.15-.31-.27-.45-.39.08-.06.18-.19.24-.17.22.06.42.17.63.27-.11.08-.23.16-.42.29Z"/>
      <path class="cls-1" d="M14.63,2.51c.14.07.25.19.4.24.13.05.31.11.43.06.34-.12.67-.28,1-.44.12-.06.26-.16.32-.27.39-.7-.41-1.94-1.23-1.93-.67.01-1.25.66-1.19,1.33,0,.07-.01.16-.05.22-.19.39-.01.61.32.78Z"/>
      <path class="cls-1" d="M8.36,3.67c.89,0,1.49-.46,1.5-1.18,0-.69-.57-1.33-1.2-1.33-.56,0-1.42.72-1.44,1.2-.02.57.62,1.3,1.13,1.31Z"/>
      <path class="cls-1" d="M22.57,2.19c.21.06.44.06.65.09,0-.01,0-.03,0-.04.16,0,.32.02.47,0,.45-.06.82-.37.82-.9,0-.38-.15-.86-.41-1.11-.43-.4-1.23-.24-1.71.21-.05.04-.09.09-.15.13-.38.24-.33.62-.29.99.04.35.28.56.61.64Z"/>
      <path class="cls-1" d="M38.64,4.34c.64.28,1.01.11,1.34-.51.04-.08.09-.16.15-.23.27-.36.28-.76-.06-1.05-.24-.21-.56-.31-.85-.46-.02.03-.04.06-.06.1-.07,0-.13,0-.2,0-.6.03-1.12.22-1.31.85-.06.21-.08.55.04.68.25.27.59.48.93.62Z"/>
      <path class="cls-1" d="M31.18,2.63c.58-.29.71-.81.6-1.3-.09-.4-.95-.91-1.31-.83-.72.17-1.04.58-1.11,1.4.09.18.12.42.27.52.47.33.98.49,1.56.2Z"/>
    </g>
  </g>
</svg>