<?xml version="1.0" encoding="UTF-8"?>
<svg id="Layer_2" xmlns="http://www.w3.org/2000/svg" viewBox="0 0 33.27 42.43">
  <defs>
    <style>
      .cls-1 {
        fill: #2c489e;
      }
    </style>
  </defs>
  <g id="Layer_1-2" data-name="Layer_1">
    <g>
      <path class="cls-1" d="M32.69,29.27c-1.1,1.21-2.3,2.3-3.63,3.26-1.78,1.28-3.63,2.44-5.76,3.07-1.31.39-2.63.71-3.98.86-2.08.24-4.15.17-6.21-.23-1.86-.36-3.64-.97-5.31-1.86-1.55-.82-3.01-1.79-4.27-3.03-.68-.67-1.33-1.38-1.96-2.1-.31-.36-.53-.8-.79-1.19-.04-.06-.12-.1-.18-.15-.04.07-.1.13-.11.2-.01.14.02.29.02.44,0,2.3-.02,4.6-.03,6.91,0,.06.02.13.06.32.62-.99,1.18-1.89,1.77-2.83.17.18.28.29.38.41.46.56.9,1.15,1.38,1.69,1,1.12,2.12,2.11,3.42,2.87,1.74,1.01,3.58,1.79,5.57,2.2.81.17,1.61.37,2.28.9.49.39,1.02.74,1.27,1.43.22-.28.44-.49.57-.74.4-.77,1.11-1.06,1.87-1.26.61-.15,1.24-.22,1.86-.36,1.93-.42,3.75-1.11,5.41-2.18.66-.43,1.34-.84,1.95-1.34.78-.65,1.5-1.37,2.23-2.08.24-.23.42-.51.69-.84.64,1.02,1.23,1.97,1.83,2.92.02,0,.05,0,.07,0v-7.74s-.05,0-.07,0c-.11.15-.2.32-.33.46Z"/>
      <path class="cls-1" d="M5.37,25.84c.22-.06.45-.11.65-.22.13-.07.27-.22.29-.35.16-1.03.28-2.07.43-3.1.35-2.28.7-4.56,1.06-6.84.18-1.15.4-2.3.6-3.45.19-1.08.39-2.15.57-3.23.14-.88.26-1.75.4-2.63.05-.35-.02-.44-.38-.43-.58.01-1.17.02-1.75.03-.3,0-.45-.09-.42-.43.05-.48.04-.97.07-1.45.04-.7.1-1.41.12-2.11,0-.28.1-.37.36-.37,1.28,0,2.56,0,3.84,0,.27,0,.36.11.35.37-.02.79,0,1.58-.01,2.38,0,.22.04.34.3.34,1.07-.01,2.14,0,3.22,0,.26,0,.33-.1.33-.35-.02-.79,0-1.58,0-2.38,0-.26.09-.36.36-.36,1.05.01,2.1.01,3.14,0,.33,0,.42.12.41.43-.02.72,0,1.44-.01,2.16,0,.31.08.44.41.43,1.05-.02,2.1-.01,3.14,0,.3,0,.41-.1.4-.4-.02-.75,0-1.51,0-2.27,0-.24.07-.35.33-.35,1.15.01,2.29.01,3.44,0,.29,0,.41.09.4.4-.02,1.19-.02,2.39,0,3.58,0,.29-.09.39-.37.39-.54-.01-1.07,0-1.61,0-.49,0-.49,0-.48.48,0,.18.01.37.03.55.31,2.62.63,5.24.93,7.87.16,1.41.28,2.83.43,4.25.2,1.95.41,3.89.63,5.84.04.36.11.72.18,1.08.02.12.09.3.18.33.36.15.75.25,1.21.39-.02-.21-.04-.36-.06-.51-.08-.58-.19-1.15-.26-1.73-.15-1.38-.28-2.76-.43-4.14-.21-1.92-.43-3.85-.65-5.77-.16-1.4-.32-2.8-.48-4.21-.1-.93-.2-1.86-.31-2.79-.04-.3.07-.39.36-.38.51.02,1.02,0,1.53.01.32.01.45-.06.44-.42-.02-2.03-.01-4.07,0-6.1,0-.3-.11-.38-.38-.38-2,0-4,0-5.99,0-.26,0-.35.08-.34.34.01.66.02,1.32,0,1.97-.02.87.19.75-.81.77-.27,0-.36-.09-.36-.36.01-.77-.01-1.54,0-2.3,0-.3-.09-.41-.39-.41-1.99,0-3.97,0-5.96,0-.28,0-.36.1-.36.36.01.6,0,1.19,0,1.79,0,.95,0,.94-.94.93-.26,0-.34-.1-.34-.34,0-.77-.01-1.54.01-2.3.01-.34-.09-.45-.43-.44C10.36.01,8.32.01,6.27,0c-.3,0-.36.12-.37.39-.11,2.06-.22,4.11-.35,6.16-.02.26.08.36.32.36.55,0,1.1,0,1.64,0,.39,0,.44.08.38.46-.28,1.67-.56,3.33-.82,5-.26,1.65-.48,3.29-.74,4.94-.23,1.53-.49,3.05-.73,4.58-.19,1.23-.35,2.46-.54,3.68-.04.25.06.35.3.28Z"/>
      <path class="cls-1" d="M20.75,12.5c1-.03,1.99-.07,2.99-.12.39-.02.52-.21.5-.61-.02-.35-.26-.4-.54-.41-.35,0-.71-.03-1.06-.03-1.32-.02-2.63-.04-3.95-.07-.12,0-.24-.13-.37-.2.1-.08.19-.17.29-.25.14-.11.35-.19.42-.33.11-.24-.12-.38-.31-.46-.41-.19-.82-.38-1.25-.5-.25-.07-.55-.07-.8,0-.47.13-.93.33-1.43.51-.01-.13-.02-.21-.02-.29,0-1.24,0-2.48.02-3.73,0-.25-.06-.38-.35-.37-1.06.01-2.12-.01-3.18,0-1.07.01-.9-.22-.91.96,0,.03-.01.06,0,.07.07.08.16.22.22.22.36-.03.41.16.39.45,0,.13,0,.27,0,.4-.01.3.08.7-.07.87-.15.16-.56.1-.86.1-.24,0-.37.08-.35.34.01.24.01.49,0,.73-.01.25.1.35.35.34.63,0,1.27-.01,1.9,0,.25,0,.32-.09.32-.32,0-.67-.01-1.34,0-2.01.02-.99-.2-.88.92-.91.28,0,.36.1.36.36,0,.66,0,1.32,0,1.97q0,.84.84.89s.06,0,.07,0c.09.09.25.2.24.28-.04.25.11.31.28.4.12.06.2.18.3.28-.13.06-.26.17-.4.17-.43.02-.85,0-1.28.02-1.26.04-2.53.09-3.79.13-.37.01-.48.23-.47.55.01.32.27.36.49.37,1.52.07,3.04.15,4.56.2.8.03.81,0,.78.81-.11,2.83-.22,5.67-.34,8.5-.05,1.13-.11,2.26-.16,3.39-.01.24.07.39.31.46.91.28,1.82.28,2.74.05.26-.07.32-.19.3-.44-.05-.55-.09-1.09-.09-1.64,0-1.29.04-2.58.03-3.87-.01-2.29-.04-4.58-.07-6.87,0-.29.1-.39.39-.38.68,0,1.36-.01,2.05-.04Z"/>
      <path class="cls-1" d="M21.65,24.33c-.74-.03-1.48-.03-2.23-.02-.12,0-.34.12-.35.2-.02.34.01.69.03,1.09.59-.22,1.12-.41,1.64-.6,1.05-.39,2.12-.61,3.25-.46.57.08,1.13.15,1.69.25.28.05.39-.04.4-.31,0-.08.03-.17.04-.25.08-.81.07-.81-.69-1.11-.15-.06-.32-.21-.36-.35-.18-.68-.05-.88.61-1.15.17-.07.41-.31.39-.41-.1-.37.04-.83-.34-1.11-.05-.04-.16-.02-.24,0-.79.1-.77.09-1.1-.59-.17-.35-.13-.56.19-.78.18-.12.43-.38.4-.52-.07-.33-.26-.66-.48-.91-.08-.09-.41.05-.62.1-.32.07-.61.21-.9-.11-.44-.51-.46-.49-.11-1.08.05-.08.11-.17.13-.26.02-.1.02-.23-.02-.31-.37-.61-.82-.66-1.35-.21-.15.13-.42.24-.6.2-.68-.16-.79-.36-.68-1.04,0-.05.01-.1.02-.15.02-.27-.02-.48-.35-.53-.25-.04-.49-.12-.74-.2-.3-.1-.36.04-.35.31.03,1.04.08,2.09.07,3.13,0,.45.02.83.57.9.06,0,.11.05.16.09.55.4,1.05.84,1.47,1.39,1.04,1.36,1.13,2.87.89,4.47-.04.26-.17.32-.43.32Z"/>
      <path class="cls-1" d="M14.62,18.03c.21-.11.29-.22.29-.44.03-1.03.07-2.07.1-3.1h0s0-.07,0-.11q.05-.74-.66-.57c-.62.15-.71.31-.56.93.03.14.09.31.05.42-.16.37-.98.52-1.28.26q-.56-.48-1.16-.02c-.44.34-.45.37-.15.85.08.12.16.25.21.39.03.08.03.2-.01.26-.27.48-.61.58-1.09.33-.48-.24-.6-.23-.87.13-.47.61-.47.63-.05,1.07.5.54.51.54.14,1.14-.07.11-.23.21-.37.23-.2.04-.41.02-.62,0-.27-.01-.4.12-.46.37-.18.72-.18.72.41,1.16.02.01.04.03.06.04.52.36.47,1.21-.11,1.46-.85.37-.79.39-.69,1.27,0,.02,0,.05,0,.07.06.39.14.45.54.38.43-.08.85-.21,1.28-.26.5-.05,1.04-.12,1.52,0,.95.24,1.87.59,2.79.94.64.24.66.26.71-.43,0-.04,0-.07.01-.11.06-.31-.06-.41-.38-.4-.67.02-1.33-.01-2,0-.36,0-.5-.17-.52-.5-.05-.84-.09-1.66.16-2.49.45-1.48,1.34-2.57,2.7-3.27Z"/>
      <path class="cls-1" d="M3.71,28.62c1.12.05,2.15-.37,3.17-.73.91-.32,1.81-.64,2.79-.68.85-.03,1.67.11,2.38.64.67.5,1.35,1,2.03,1.5.08.06.18.08.28.12.04-.1.11-.19.11-.29.01-.32,0-.63,0-.95h.04c0-.27-.02-.54,0-.8.04-.29-.07-.46-.32-.58-.65-.31-1.27-.67-1.94-.92-.72-.27-1.47-.44-2.25-.38-1.47.12-2.78.76-4.15,1.21-.97.32-1.94.34-2.91.07-1.03-.28-1.88-.88-2.68-1.56-.06-.05-.16-.05-.24-.08,0,.09-.04.2,0,.26.11.18.25.36.39.52.63.71,1.24,1.43,1.9,2.1.36.37.87.51,1.4.54Z"/>
      <path class="cls-1" d="M25.61,26.45c-.75-.31-1.52-.52-2.34-.51-1.42.01-2.66.63-3.91,1.2-.12.05-.23.25-.24.39-.02.64,0,1.29.02,1.93,0,.14.09.28.13.42.14-.05.3-.07.42-.16.36-.25.69-.54,1.04-.8.73-.56,1.48-1.05,2.4-1.26,1.34-.31,2.53.17,3.73.65.75.3,1.49.67,2.28.82,1.57.3,2.72-.46,3.59-1.7.2-.28.33-.6.53-.95-.74.27-1.38.48-1.99.73-.73.3-1.49.32-2.25.33-.34,0-.7,0-1.01-.12-.81-.29-1.6-.63-2.4-.96Z"/>
      <path class="cls-1" d="M8.24,30.54c.88-.15,1.75-.04,2.58.26.66.24,1.29.55,1.94.83.49.21.97.41,1.57.66,0-.48,0-.9,0-1.32,0-.07-.08-.15-.14-.19-.95-.66-1.88-1.34-2.85-1.96-.63-.41-1.34-.52-2.1-.42-.85.11-1.61.46-2.35.84-1.06.55-2.13.61-3.25.29-.13-.04-.27-.02-.4-.03-.02.04-.04.09-.07.13.3.25.59.51.9.74.71.52,1.5.71,2.38.52.59-.13,1.19-.24,1.79-.34Z"/>
      <path class="cls-1" d="M30.29,29.82s-.05-.08-.07-.12c-.24.04-.47.1-.71.12-1.34.11-2.63-.13-3.89-.59-1.06-.38-2.17-.53-3.24-.09-.86.35-1.65.87-2.48,1.27-.6.29-.96.67-.74,1.38.02.08-.01.17-.01.25,0,.21.08.31.29.22.35-.16.72-.3,1.05-.49.91-.52,1.85-.97,2.9-1.13.32-.05.66-.04.97.03.65.15,1.27.4,1.92.53,1.12.23,2.21.13,3.14-.63.3-.24.59-.51.88-.76Z"/>
      <path class="cls-1" d="M9.75,33.9c1.35.66,2.78.99,4.25,1.22.21.03.29-.04.3-.25.02-.36.06-.73.05-1.09,0-.1-.13-.23-.23-.27-.98-.42-1.96-.83-2.95-1.23-.51-.21-1.04-.52-1.56-.55-1.09-.05-2.2.05-3.29.09-.02.06-.05.12-.07.18.26.2.49.45.78.59.9.46,1.82.86,2.72,1.3Z"/>
      <path class="cls-1" d="M19.66,35.23c.48-.08.97-.13,1.44-.25.92-.24,1.88-.43,2.75-.82,1.07-.49,2.07-1.15,3.09-1.75.14-.08.27-.17.45-.28-.1-.06-.14-.1-.18-.1-.78-.04-1.55-.13-2.32-.1-.82.04-1.64.12-2.42.45-.98.42-1.99.75-2.98,1.14-.1.04-.2.2-.21.31-.03.34,0,.68-.02,1.02-.01.37.04.43.42.36Z"/>
      <path class="cls-1" d="M20,9.65c-.04.17-.11.38.16.44.8.2,1.08.02,1.26-.8.07-.34.16-.67.26-1.11.24.2.43.32.58.48.43.48.85.97,1.28,1.45.06.07.25.14.28.11.29-.28.55-.59.82-.88-.28-.26-.52-.47-.73-.7-.08-.08-.14-.25-.11-.35.17-.78.35-1.56.54-2.34.06-.23,0-.32-.23-.32-.24,0-.49.02-.73,0-.25-.02-.34.08-.38.32-.08.42-.2.84-.3,1.25-.04,0-.08,0-.12,0-.17-.19-.33-.39-.5-.57-.18-.2-.35-.4-.54-.59-.17-.18-.36-.5-.54-.49-.21,0-.4.3-.6.47-.32.28-.33.34,0,.62.26.22.32.44.21.77-.23.74-.42,1.49-.61,2.24Z"/>
      <path class="cls-1" d="M15.64,6.82c.1.12.42.06.64.07.04,0,.07,0,.11,0,.2.06.32.13.2.39-.23.52-.43,1.06-.64,1.59-.06.16-.05.32.17.29.35-.05.69-.13,1.03-.22.1-.03.19-.15.23-.25.15-.41.28-.83.43-1.23.19-.52.39-1.04.58-1.56.03,0,.07,0,.1-.01.02.12.06.23.06.35,0,.47,0,.95,0,1.42,0,.22.07.32.29.31.27,0,.54-.01.8,0,.27.01.33-.1.32-.35-.02-.55-.02-1.09,0-1.64,0-.28-.1-.36-.36-.36-.78.01-1.56,0-2.34.01-.29,0-.41-.06-.4-.38.02-.91,0-.9-.94-.91-.27,0-.34.1-.34.34.01.49,0,.97,0,1.46,0,.23-.07.53.05.67Z"/>
      <path class="cls-1" d="M18.47,27.86c0-.37-.05-.4-.4-.28-.88.3-1.76.35-2.64-.02-.29-.12-.4-.05-.41.28-.03.67-.04,1.34-.07,2.01-.01.27.11.41.34.49.98.34,1.96.44,2.96.04.18-.07.3-.16.27-.4-.05-.35-.04-.7-.06-1.06,0,0,0,0,.01,0,0-.35,0-.71,0-1.06Z"/>
      <path class="cls-1" d="M15.12,35.27c.55.06,1.11.12,1.56.16.62-.04,1.13-.05,1.64-.13.11-.02.26-.23.28-.37.03-.29-.04-.58-.03-.87,0-.3-.07-.42-.4-.35-1.03.23-2.05.17-3.07-.08-.24-.06-.32.05-.33.25,0,.3-.02.61,0,.91.02.22.08.44.36.47Z"/>
      <path class="cls-1" d="M18.17,31.28c-.24.06-.47.13-.71.18-.74.13-1.47.12-2.17-.22-.11-.05-.24-.08-.36-.13-.02.12-.06.25-.08.37,0,.06,0,.12,0,.18,0,.63.07.77.52.88.93.22,1.87.18,2.81.04.25-.04.39-.17.37-.44-.01-.17.02-.34.03-.51.02-.3-.12-.42-.41-.34Z"/>
    </g>
  </g>
</svg>