<?xml version="1.0" encoding="UTF-8"?>
<svg id="Layer_2" xmlns="http://www.w3.org/2000/svg" viewBox="0 0 32.98 39.44">
  <defs>
    <style>
      .cls-1 {
        fill: #2c489e;
      }
    </style>
  </defs>
  <g id="Layer_1-2" data-name="Layer_1">
    <g>
      <path class="cls-1" d="M32.39,0c-.87.03-1.79.04-2.7.05-.9,0-2.58.05-3.37.03-7.84.04-15.17-.01-22.82-.01H.11c0,.97,0,2.27,0,3.26,0,1.07-.01,2.15-.03,3.33C.04,8.83.01,11.02,0,13.21c-.02,4.38.02,8.75.27,13.1,0,.96,0,1.92,0,2.88,0,.37.02.75.07,1.12.14.99.43,1.91.88,2.75.45.83,1.06,1.58,1.85,2.23,3.21,2.79,8.08,1.81,11.98,3.11.65.33,1.3,1.3,1.62.98,4.22-3.25,10.4,0,13.7-4.46.51-.48.94-1.01,1.29-1.58.35-.57.61-1.2.79-1.87.79-8.33.46-16.78.4-25.28-.04-1.94-.08-3.88-.12-5.84,0-.39.04-.35-.35-.35ZM6.84,33.64c-1.07-.46-1.84-1.2-2.29-2.28-.04-.1-.12-.2-.2-.27-.36-.31-.74-.59-1.09-.91-.11-.1-.17-.29-.2-.45-.03-.15.14-.26.33-.25.25.01.5.28.49.54-.01.29.09.44.4.56-.03-.25-.1-.48-.09-.72.01-.44-.19-.67-.58-.87-1.02-.51-1.55-1.38-1.67-2.5-.05-.52-.07-1.04-.1-1.56,0-.06,0-.12.04-.2.82.84,1.64,1.67,1.8,2.91-.33-.59-.69-1.14-1.29-1.5-.09.59.93,2.27,1.64,2.67,0-.06.02-.12.02-.17,0-.57,0-1.15,0-1.72,0-.19-.05-.36-.17-.5-.12-.14-.22-.29-.35-.41-.08-.08-.2-.13-.31-.16-.18-.05-.31-.21-.3-.42,0-.17.09-.27.26-.29.21-.02.42.1.45.28,0,.03.02.05.01.08-.09.33.2.38.41.56,0-.37,0-.69,0-1,0-.05-.08-.11-.14-.14-.32-.21-.66-.4-.96-.63-.47-.36-.74-.87-.88-1.44-.19-.77-.23-1.55-.21-2.35.64.23,1.89,2.24,1.82,2.96-.31-.65-.68-1.2-1.28-1.56-.08.61.94,2.28,1.62,2.65,0,0,.03-.02.03-.02,0-.67,0-1.34,0-2.01,0-.1-.06-.2-.12-.28-.12-.17-.25-.34-.4-.48-.08-.08-.2-.13-.31-.16-.18-.05-.31-.21-.3-.42,0-.17.08-.27.25-.29.22-.02.42.1.46.27,0,.03.02.05.01.08-.09.33.19.39.4.57,0-.38,0-.7,0-1.03,0-.04-.07-.08-.12-.11-.18-.11-.37-.21-.55-.33-.86-.55-1.3-1.36-1.41-2.36-.06-.54-.07-1.08-.1-1.62,0-.05,0-.1.01-.16.52.34,1.92,2.05,1.8,2.91-.31-.6-.69-1.15-1.28-1.51-.08.61.99,2.35,1.65,2.67,0-.06.01-.12.01-.17,0-.57,0-1.13,0-1.7,0-.21-.06-.38-.19-.54-.11-.12-.21-.25-.31-.38-.09-.11-.19-.18-.34-.19-.18-.01-.3-.2-.3-.42,0-.17.1-.26.26-.28.22-.02.41.1.45.28,0,.03.02.05.01.08-.09.33.19.38.36.52.02,0,.04,0,.07-.01,0-.24,0-.47,0-.71,0-.05-.08-.11-.13-.15-.28-.18-.57-.34-.84-.53-.67-.48-1.01-1.17-1.11-1.97-.08-.59-.09-1.19-.13-1.79,0-.05,0-.11.04-.18.81.84,1.63,1.67,1.83,2.89-.02.01-.03.02-.05.03-.18-.28-.33-.59-.53-.84-.21-.26-.48-.47-.75-.68.23,1.09.74,1.99,1.65,2.72,0-.09.02-.15.02-.21,0-.57,0-1.13,0-1.7,0-.2-.05-.37-.18-.52-.11-.13-.21-.27-.33-.39-.08-.08-.19-.14-.3-.17-.21-.06-.35-.24-.32-.47.02-.16.13-.26.31-.26.25,0,.45.15.41.36-.06.34.2.38.41.56,0-.28,0-.5,0-.73,0-.05-.09-.1-.14-.14-.36-.26-.75-.49-1.09-.78-.55-.47-.76-1.13-.84-1.82-.07-.57-.08-1.14-.11-1.71,0-.04.01-.08.03-.19.82.89,1.65,1.72,1.8,2.97-.33-.59-.69-1.15-1.3-1.51-.02.71.98,2.33,1.65,2.67,0-.05.02-.09.02-.13,0-.61,0-1.22,0-1.84,0-.33-.35-.72-.67-.78-.21-.03-.33-.23-.31-.47.02-.17.13-.26.31-.26.24.01.41.15.4.36,0,.2.01.35.28.39,0-.23,0-.45,0-.67,0-.06-.07-.13-.13-.16-.22-.13-.46-.25-.68-.38-.7-.4-1.13-1.01-1.24-1.8-.09-.62-.11-1.24-.16-1.86,0-.08.02-.17.02-.25.78.39,1.89,2.07,1.81,2.8-.38-.67-.81-1.25-1.35-1.74-.15.73.74,2.2,1.65,2.72,0-.05.02-.1.02-.15,0-.1,0-.2,0-.29.05-.85,0-1.69-.39-2.47-.09-.18-.12-.38-.18-.58-.23-.79-.11-1.54.22-2.28.17-.38.34-.76.52-1.15.02.04.04.09.06.15.15.34.28.68.45,1.01.3.59.45,1.19.3,1.85-.08.35-.15.7-.25,1.05,0-1.02.04-2.05-.54-2.97v5.58c.26-.66.46-1.36.8-1.98.34-.64.93-1.09,1.5-1.64.03.21.06.37.07.53.04.68.07,1.35-.24,1.99-.23.47-.57.84-1,1.11.17-.38.37-.75.51-1.13.15-.39.21-.8.2-1.21-.02,0-.03-.02-.05-.02-.22.3-.45.59-.66.91-.4.6-.71,1.26-.89,1.96-.08.31-.01.67-.01,1.01.13-.04.19-.11.15-.24,0-.03,0-.06,0-.1,0-.14-.01-.29.17-.32.15-.03.34.12.38.28.04.18-.04.3-.21.37-.08.03-.16.1-.21.17-.19.31-.28.65-.26,1.02.02.25,0,.51.02.77.13-.68.26-1.37.68-1.94.41-.55.86-1.07,1.32-1.63.41,1.57-.19,3.3-1.33,4.15.49-.76.73-1.54.73-2.39-.81,1.16-1.51,2.35-1.39,3.87.13-.12.24-.21.2-.41-.05-.23.08-.36.31-.37.17-.01.37.15.38.3,0,.2-.17.38-.37.36-.12-.01-.16.04-.21.12-.24.39-.4.8-.35,1.27.02.19,0,.39,0,.6.24-.62.43-1.24.72-1.8.3-.57.76-1.02,1.21-1.49.02.03.04.04.04.05.02.8.13,1.61-.1,2.41-.19.65-.55,1.19-1.11,1.58-.04.03-.07.04-.12.06.4-.62.66-1.28.77-2,.03-.17.03-.34.05-.57-.06.07-.08.08-.1.11-.44.69-.86,1.4-1.13,2.18-.12.34-.21.68-.19,1.05.01.2,0,.4,0,.6.26-.09.37-.26.34-.52-.03-.22.1-.37.35-.41.18-.03.32.05.36.21.05.2-.07.42-.25.49-.1.04-.21.1-.29.17-.42.41-.63.9-.54,1.49.02.15,0,.3.04.47.39-1.3,1.11-2.39,1.99-3.39.68.99-.17,3.78-1.36,4.36.58-.89,1-1.81,1.03-2.88-.04.02-.06.03-.07.04-.63.88-1.16,1.82-1.55,2.84-.01.03-.03.06-.03.09,0,.44,0,.89,0,1.37.16-.18.42-.25.32-.58-.06-.2.11-.37.36-.4.19-.02.32.06.35.23.04.21-.08.42-.27.48-.1.03-.2.09-.27.16-.43.42-.64.92-.54,1.53.02.14,0,.28,0,.44.28-.62.51-1.24.84-1.8.33-.57.77-1.07,1.19-1.63.37,1.43-.05,3.65-1.34,4.39.57-.9.98-1.81,1.02-2.84-.02-.02-.04-.04-.07-.06-.01.04-.01.08-.03.11-.57.81-1.07,1.66-1.43,2.59-.08.21-.12.44-.13.66-.02.31,0,.62,0,.93.28-.12.36-.26.34-.53-.02-.22.11-.37.35-.41.2-.03.33.06.36.24.04.21-.09.41-.28.47-.09.03-.19.08-.25.15-.43.42-.64.92-.55,1.53.03.18,0,.37.04.57.42-1.31,1.17-2.43,1.99-3.5.68.97-.18,3.8-1.33,4.34.16-.3.34-.59.48-.89.14-.31.27-.64.36-.97.09-.32.12-.65.18-.98-.02,0-.04-.01-.06-.02-.02.03-.05.05-.07.08-.61.84-1.1,1.75-1.46,2.73-.08.23-.13.45-.07.69.08.35.16.7.25,1.06.3-.16.38-.38.27-.64-.09-.2-.01-.34.13-.47.13-.13.28-.11.43-.03.17.08.23.22.22.4,0,.17-.13.24-.27.27-.23.05-.33.2-.37.4-.04.19-.08.37-.1.56-.03.32.11.57.34.77.34.3.75.47,1.17.61.12.04.18.09.22.22.09.34.2.68.31,1.07-.12-.04-.2-.05-.27-.08ZM11.03,34.36c0,.25-.08.47-.28.64-.51.44-1.14.61-1.8.84.06-.33.11-.62.18-.91,0-.03.09-.05.14-.07.21-.06.43-.1.64-.17.16-.05.28-.16.29-.33.01-.23,0-.46-.04-.68,0-.05-.16-.12-.24-.12-.69-.01-1.38,0-2.07,0-.08,0-.15,0-.2,0,.02-.69.04-1.35.06-2.01,0-.16-.02-.31-.02-.47,0-.07,0-.15.05-.2.17-.25.17-.26-.17-.34.06-.31.12-.61.17-.88.42,0,.81,0,1.19,0,.06,0,.11.04.17.06-.03.05-.04.1-.08.15-.22.28-.25.61-.27.94-.03.49,0,.99-.02,1.48,0,.16.09.18.21.18.64,0,1.29,0,1.93,0,.08,0,.15,0,.21,0-.02.65-.04,1.27-.06,1.89ZM15.21,35.72c-.06.12-.14.09-.22.03-.23-.17-.47-.33-.7-.5-.45-.33-.9-.67-1.35-1-.06-.04-.11-.08-.22-.15,0,.27,0,.5,0,.72,0,.03.1.07.16.07.19,0,.39,0,.62,0-.12.31-.23.59-.35.86-.02.03-.08.07-.13.07-.44,0-.87,0-1.34,0,.02-.12.02-.22.04-.32.15-.69.14-1.37-.05-2.05-.04-.15-.01-.26.08-.38.1-.13.19-.27.27-.41.14-.23.2-.24.42-.06.49.41.99.81,1.49,1.21.15.12.32.21.51.34.07-.21.11-.42,0-.55-.1-.11-.3-.14-.47-.21.11-.32.22-.64.34-.96,0-.03.06-.05.09-.05.32.01.64.04.95.05.16,0,.21.09.2.24,0,.32-.01.64,0,.96,0,.24-.09.4-.28.52-.07.05-.14.09-.21.15-.11.1-.1.23.02.31.15.1.31.19.49.3-.14.28-.27.54-.39.8ZM18.67,35.54c-.25.09-.49.2-.77.31,0-.09-.02-.16-.02-.23,0-.57,0-1.13,0-1.7q0-.3-.29-.3c-.4,0-.79,0-1.19,0-.37,0-.48-.16-.38-.5.08-.27.16-.55.25-.85.27.26.57.24.88.24.48,0,.95,0,1.43,0,.23,0,.3.07.3.31,0,.81,0,1.61,0,2.42,0,.17-.05.27-.22.32ZM23.72,33.4c-.02.3-.03.6-.07.9-.02.14-.07.3-.15.4-.53.69-.54.69-1.42.82-.77.11-1.53.21-2.3.32-.03,0-.06,0-.11,0,0-.05-.02-.1-.02-.15,0-.47.02-.95.03-1.42,0-.18.04-.33.17-.46.13-.14.11-.21-.07-.28-.05-.02-.1-.03-.14-.05-.21-.11-.23-.16-.14-.38.11-.24.21-.49.31-.7.36.04.7.07,1.04.11.14.02.17.09.12.23-.12.4-.24.8-.33,1.2-.06.28.03.55.24.81.18-.4.36-.8.55-1.22-.12-.05-.21-.08-.33-.13.11-.28.21-.56.32-.84.01-.04.08-.07.12-.07.3,0,.6,0,.95,0-.2.73-.4,1.44-.61,2.21.31-.07.6-.09.83-.21.14-.07.2-.3.29-.46.02-.03,0-.08,0-.12q.01-.34-.31-.46c.09-.29.17-.58.26-.87.01-.04.07-.08.11-.08.23,0,.45,0,.7,0-.02.32-.03.61-.04.91ZM18.26,16.78c.01.21,0,.37-.24.48-.11.05-.09.32-.2.42-.16.14-.16.27-.07.42.06.12.14.23.2.34.04.08.08.16.12.24.02.04.03.09.06.12.05.05.15.08.15.13.02.15.01.31-.01.47,0,.03-.12.06-.18.06-.16,0-.19.07-.23.22-.08.32.03.56.27.75.51.4.7.95.78,1.56.05.39.24.57.65.57.71,0,1.42,0,2.13,0,.2,0,.26.05.26.25,0,.87,0,1.73,0,2.6,0,.19.05.26.25.25.48-.01.96,0,1.45,0,.17,0,.22.06.22.23,0,1.03,0,2.06,0,3.09,0,.19-.06.24-.24.24-2.55,0-5.1,0-7.66,0h-6.5c-.26,0-.26,0-.26-.25,0-1.02,0-2.03,0-3.05,0-.2.07-.25.26-.25.49.01.98,0,1.46,0,.16,0,.21-.05.21-.21,0-.89,0-1.77,0-2.66,0-.18.05-.24.23-.23.69.01,1.38.01,2.07,0,.18,0,.36-.05.53-.1.24-.07.38-.23.4-.49.06-.62.28-1.16.79-1.55.29-.22.31-.52.22-.84-.02-.05-.12-.11-.19-.1-.17,0-.22-.07-.21-.22,0-.09,0-.18,0-.27,0-.04,0-.1.04-.13.27-.23.4-.54.54-.85.03-.07-.03-.18-.06-.27-.03-.07-.1-.14-.1-.22,0-.17-.08-.28-.23-.32-.14-.04-.17-.13-.16-.27,0-.1,0-.21,0-.31,0-.27,0-.28-.28-.3-.61-.03-1.17-.23-1.72-.47-.12-.05-.27-.03-.39-.08-.11-.05-.2-.14-.3-.22-.04-.03-.09-.07-.13-.1-.16-.1-.32-.2-.47-.3-.1-.06-.2-.12-.29-.19-.34-.29-.75-.5-.99-.91-.14-.24-.34-.44-.52-.65-.17-.21-.38-.4-.52-.63-.23-.37-.43-.75-.63-1.14-.15-.3-.29-.61-.42-.92-.08-.2-.16-.41-.19-.63-.11-.75-.24-1.5-.29-2.26-.04-.59.02-1.18.01-1.77,0-.21-.05-.44-.14-.63-.21-.43-.09-.75.36-.9.28-.09.56-.11.85-.04.38.09.53.52.33.85-.08.14-.15.32-.15.49,0,.43.02.87.06,1.3.02.21.12.42.18.63.02.08.04.17.02.24-.05.25-.04.49.09.72.04.07.04.17.06.26.05.23.07.46.15.68.15.42.38.82.49,1.25.09.37.23.71.45,1,.17.23.37.44.56.65.09.1.18.2.28.29.13.11.27.21.4.32.11.09.22.18.32.28.04.03.07.09.11.11.6.32,1.11.76,1.76.99.46.17.93.29,1.39.42.08.02.16.03.27.04.03-.23.07-.43.08-.63.01-.15-.03-.24-.22-.28-.29-.05-.57-.16-.86-.24-.16-.04-.34-.06-.49-.13-.31-.15-.61-.34-.91-.51-.19-.11-.38-.22-.56-.35-.12-.08-.22-.18-.32-.27-.14-.13-.27-.26-.4-.39-.15-.15-.31-.28-.42-.45-.27-.45-.52-.91-.78-1.38-.34-.62-.48-1.31-.54-2-.06-.69-.1-1.37-.15-2.06-.03-.37-.15-.71-.34-1.03-.18-.31-.14-.51.16-.69.47-.29.96-.26,1.44-.05.24.1.34.51.18.74-.17.23-.18.48-.17.74,0,.25.01.51,0,.76-.03.39.03.76.11,1.14.02.08.02.16.02.23,0,.25-.01.48.15.7.08.11.05.31.08.47.01.08,0,.16.04.22.25.4.49.81.77,1.19.26.35.53.71.86.98.24.19.5.39.83.49.33.1.64.29.96.43.11.05.23.1.34.14.04.01.11,0,.12-.02.03-.16.07-.32.08-.48,0-.08-.04-.18-.09-.25-.03-.04-.09-.08-.15-.09-.56-.09-1.08-.3-1.48-.7-.36-.36-.67-.78-1.01-1.18-.02-.03-.04-.07-.05-.11-.17-.64-.3-1.29-.53-1.91-.17-.47-.03-.92-.09-1.38-.06-.45-.15-.87-.37-1.26-.16-.29-.12-.47.15-.67.35-.25.74-.22,1.13-.2.23.01.46.07.69.1.41.05.5.51.28.79-.13.17-.26.34-.38.52-.31.49-.32,1.03-.24,1.58.01.08.02.17,0,.25-.1.35.03.63.24.9.02.03.04.05.06.08.12.27.25.55.37.82.01.02,0,.06.03.07.36.31.62.76,1.17.82.23.02.23.03.23-.21,0-.26.02-.51.04-.77,0-.08.07-.16.11-.26-.16-.18-.2-.38-.07-.63.05-.09.06-.22-.05-.33-.13-.14-.13-.37,0-.52.1-.12.09-.2,0-.3-.1-.11-.11-.22.02-.32.02-.02.05-.05.05-.08.02-.3.07-.6.04-.89,0-.13-.15-.26-.25-.35-.25-.22-.33-.49-.28-.81.02-.11.08-.24.17-.31.61-.47,1.41-.48,2.04-.05.29.2.33.38.15.67-.13.22-.26.44-.4.65-.14.21-.13.44-.09.68.04.29.04.59.07.89.04.44.1.87.14,1.31,0,.07-.02.16-.06.23-.07.12-.15.23-.07.39.05.1.02.24.02.36,0,.22,0,.44,0,.65.64.04,1.11-.25,1.49-.71.04-.04.05-.1.08-.15.09-.16.17-.32.26-.47,0-.01.02-.02.03-.03.12-.43.44-.8.41-1.28-.05-.83-.06-1.67-.69-2.33-.11-.11-.11-.24-.05-.36.2-.36.45-.67.91-.65.3.01.61.05.9.12.28.07.35.26.32.54-.08.72-.14,1.43-.21,2.15,0,.03,0,.05,0,.08.27.6,0,1.16-.16,1.71-.15.57-.45,1.08-.8,1.55-.37.5-.82.9-1.44,1.07-.23.06-.46.14-.7.19-.12.03-.18.07-.16.21.03.25.03.5.04.78.07-.02.13-.02.17-.04.27-.13.55-.28.82-.41.13-.06.27-.12.41-.18.1-.05.2-.12.3-.16.47-.2.69-.72,1.14-.94.35-.18.49-.5.64-.83.06-.14.1-.28.18-.41.16-.26.31-.53.24-.85,0-.02,0-.06,0-.08.17-.22.06-.47.07-.71.02-.35.08-.7.13-1.04.01-.1.03-.2.02-.3-.04-.32-.08-.63-.13-.95-.02-.11-.07-.23-.12-.33-.21-.36-.18-.67.14-.93.3-.24.65-.39,1.05-.36.23.02.41.11.55.29.11.15.14.31.04.48-.29.52-.34,1.08-.26,1.66.04.25.01.52,0,.78-.04.49-.06.99-.16,1.47-.18.84-.41,1.67-.88,2.41-.02.04-.05.07-.09.13-.04-.23-.18-.36-.38-.41-.05-.01-.18.05-.18.07,0,.22-.16.24-.3.3-.03.01-.07.03-.16.08.18.14.33.26.49.37.02.01.11-.06.16-.1.08-.06.15-.13.22-.19.02.02.05.04.07.06-.13.15-.25.31-.39.46-.17.19-.36.35-.51.56-.17.23-.42.29-.65.4-.23.11-.46.22-.68.36-.27.18-.56.28-.88.36-.35.08-.7.2-1.04.32-.06.02-.09.16-.09.25,0,.17.03.33.04.53.14-.03.26-.06.37-.09.49-.13.98-.24,1.46-.4.29-.09.56-.24.83-.37.13-.06.26-.15.38-.23.19-.14.38-.28.57-.42.14-.1.29-.18.42-.28.12-.09.24-.18.32-.29.35-.46.69-.93,1.04-1.39.03-.04.06-.07.07-.11.21-.71.44-1.42.63-2.14.07-.25.02-.52.05-.78.07-.57.17-1.15.22-1.72.03-.34-.01-.69-.04-1.03,0-.09-.05-.19-.1-.27-.25-.37-.1-.84.32-.98.29-.1.59-.12.88-.03.36.1.58.49.39.81-.27.47-.18.95-.17,1.43,0,.25.08.5.08.76,0,.36-.03.71-.07,1.07-.07.5-.14,1.01-.26,1.5-.1.43-.26.85-.43,1.27-.16.4-.34.79-.52,1.18-.1.2-.23.39-.36.58-.14.2-.28.4-.43.59-.2.25-.38.52-.62.72-.32.27-.69.48-1.03.71-.03.02-.09.02-.1.05-.15.28-.43.4-.69.54-.16.08-.34.1-.52.15-.14.04-.28.08-.42.12-.22.06-.44.13-.65.19-.25.07-.5.13-.76.19-.11.02-.15.08-.15.19,0,.1,0,.2,0,.29ZM25.85,32.69c-.1.41-.24.81-.29,1.23-.03.31-.15.42-.43.46-.17.02-.33.08-.53.14.04-.32.07-.61.1-.94-.18,0-.33,0-.48,0-.15,0-.22-.07-.16-.24.14-.36.27-.73.41-1.12.35.22.72.13,1.08.12.25,0,.35.11.29.36ZM30.55,17.5c-.62.87-1.15,1.8-1.53,2.8-.08.21-.06.46-.07.69-.01.25,0,.5,0,.76.29-.14.37-.26.35-.53-.02-.23.12-.39.37-.41.19-.02.31.06.34.23.04.22-.09.42-.3.48-.09.03-.16.09-.24.14-.03.02-.04.05-.06.08-.5.62-.61,1.09-.43,1.91.31-1.34,1.11-2.38,1.98-3.4.45,1.47-.3,3.96-1.33,4.33.56-.88.97-1.78,1-2.82-.02-.01-.04-.03-.06-.04-.01.03-.02.06-.04.09-.61.87-1.13,1.79-1.52,2.79-.03.07-.05.14-.05.21,0,.4,0,.79,0,1.19.24-.06.37-.25.34-.49-.03-.24.1-.39.35-.43.2-.03.33.06.36.23.04.22-.09.42-.3.48-.09.02-.16.09-.24.14,0,0,0,.01-.01.02-.41.42-.62.9-.54,1.5.03.19,0,.39,0,.6.3-.64.56-1.27.89-1.85.33-.58.74-1.12,1.13-1.71.57,1.54-.16,3.74-1.29,4.38.22-.44.46-.89.66-1.36.2-.47.3-.96.29-1.48-1.01,1.36-1.79,2.81-1.83,4.55.26-.09.38-.25.37-.52,0-.31.26-.59.54-.56.22.02.31.15.26.36-.04.18-.14.31-.29.42-.38.29-.74.6-1.1.9-.05.04-.07.12-.1.19-.43,1.05-1.18,1.79-2.21,2.25-.1.04-.2.07-.35.12.13-.42.23-.8.36-1.17.02-.05.11-.08.17-.11.36-.18.76-.33,1.09-.56.49-.34.58-1.17.22-1.65-.05-.06-.15-.09-.23-.12-.26-.1-.35-.26-.26-.5.07-.18.33-.3.5-.23.21.08.33.33.25.54-.11.27-.04.47.24.64.03-.06.07-.12.09-.19.06-.3.12-.61.18-.92.02-.12-.03-.19-.14-.24-.16-.08-.31-.18-.47-.28-.8-.52-1.31-1.24-1.43-2.2-.07-.6-.09-1.2-.13-1.81,0-.05.01-.11.02-.23.83.9,1.65,1.72,1.81,2.96-.33-.58-.7-1.14-1.29-1.5-.06.65.96,2.32,1.64,2.66,0-.05.02-.1.02-.15,0-.56,0-1.12,0-1.68,0-.23-.06-.43-.21-.61-.11-.12-.2-.26-.32-.37-.08-.07-.19-.13-.29-.15-.18-.04-.31-.2-.31-.41,0-.17.08-.27.25-.29.21-.03.42.1.46.27,0,.03.02.05.01.08-.08.33.19.39.41.55,0-.37,0-.69,0-1.01,0-.04-.08-.09-.13-.12-.26-.16-.53-.31-.78-.48-.61-.43-.96-1.03-1.11-1.76-.14-.69-.18-1.38-.17-2.08,0-.04.01-.07.03-.17.83.89,1.65,1.72,1.84,2.94-.02.01-.03.02-.05.03-.18-.28-.33-.59-.53-.84-.21-.26-.48-.47-.74-.67.23,1.09.74,1.99,1.64,2.7,0-.09.02-.14.02-.19,0-.55,0-1.11,0-1.66,0-.25-.07-.46-.23-.64-.1-.11-.18-.24-.29-.34-.09-.08-.2-.13-.31-.16-.18-.05-.31-.21-.3-.42,0-.17.08-.27.25-.29.22-.02.42.1.45.28,0,.03.02.05.01.08-.08.33.19.39.41.56,0-.36,0-.68,0-1.01,0-.05-.09-.1-.14-.14-.25-.16-.51-.31-.76-.48-.67-.48-1.05-1.16-1.15-1.96-.08-.61-.1-1.23-.14-1.85,0-.05,0-.1.02-.22.83.89,1.65,1.72,1.81,2.96-.33-.59-.72-1.13-1.29-1.51-.06.63.9,2.21,1.64,2.69,0-.06.02-.12.02-.17,0-.56,0-1.12,0-1.68,0-.23-.06-.43-.22-.61-.12-.13-.22-.27-.34-.4-.06-.06-.15-.1-.23-.12-.22-.04-.36-.2-.35-.44,0-.18.13-.28.31-.28.25,0,.44.15.4.37-.05.33.21.36.37.51.02,0,.05,0,.07-.01,0-.24,0-.49,0-.73,0-.05-.08-.11-.14-.14-.45-.23-.86-.51-1.21-.87-.47-.49-.67-1.1-.75-1.75-.07-.57-.08-1.15-.11-1.73,0-.03,0-.06.01-.1.67.29,1.91,2.28,1.8,2.91-.18-.29-.34-.6-.55-.85-.21-.25-.47-.46-.73-.7-.09.64.99,2.41,1.64,2.71,0-.06.01-.12.01-.17,0-.55,0-1.11,0-1.66,0-.23-.06-.43-.21-.61-.1-.12-.19-.25-.3-.35-.08-.07-.19-.13-.29-.16-.23-.06-.39-.32-.31-.54.05-.13.15-.2.29-.18.16.02.33.05.39.24.01.04.02.08.02.11,0,.09-.03.21.01.26.09.11.23.18.39.31,0-.28,0-.52,0-.75,0-.04-.09-.08-.14-.12-.32-.21-.65-.41-.95-.64-.59-.46-.87-1.1-.96-1.82-.08-.6-.1-1.2-.14-1.81,0-.05.01-.11.04-.18.81.84,1.63,1.67,1.79,2.91-.33-.59-.7-1.14-1.33-1.53.27,1.11.78,2.02,1.7,2.74,0-.15,0-.25,0-.36,0-.53,0-1.07,0-1.6,0-.37-.25-.58-.49-.8-.03-.03-.09-.02-.13-.03-.27-.03-.43-.28-.35-.54.05-.15.16-.2.3-.19.19,0,.36.13.39.27,0,.05.02.11,0,.15-.04.2.08.28.27.34,0-.25,0-.49,0-.73,0-.04-.08-.09-.13-.12-.23-.13-.47-.26-.7-.39-.69-.4-1.11-.99-1.22-1.77-.09-.62-.11-1.24-.16-1.86,0-.09.02-.18.02-.27.78.38,1.88,2.06,1.82,2.78-.22-.32-.41-.64-.63-.93-.22-.28-.48-.54-.75-.84.09,1.24.68,2.11,1.67,2.76,0-.05.02-.1.03-.14,0-.14,0-.29,0-.43.05-.79-.02-1.55-.37-2.28-.12-.24-.17-.52-.24-.78-.18-.65-.08-1.28.16-1.89.18-.47.41-.92.61-1.38,0,0,.01,0,.02.01.2.44.39.89.59,1.33.27.57.34,1.16.19,1.77-.07.3-.14.6-.24.9,0-1.01.04-2.03-.54-2.98v5.58c.26-.65.47-1.34.81-1.96.34-.63.93-1.08,1.49-1.62.03.2.06.36.07.51.04.62.07,1.24-.17,1.83-.22.55-.58.97-1.1,1.28.48-.71.73-1.48.75-2.36-.04.02-.07.03-.08.05-.72.83-1.24,1.77-1.53,2.83-.08.31-.01.66-.01,1.01.12-.05.19-.1.15-.23-.01-.04-.01-.08-.01-.12,0-.14,0-.29.18-.32.15-.03.34.12.37.28.04.18-.04.29-.19.36-.09.04-.17.1-.22.18-.19.31-.28.64-.25,1,.02.26,0,.52.04.79.08-1.51,1.03-2.52,2-3.55.38,1.6-.21,3.23-1.3,4.08.45-.72.7-1.5.69-2.36-.81,1.16-1.51,2.35-1.4,3.87.15-.11.26-.19.22-.39-.05-.24.08-.38.31-.39.17,0,.37.16.37.31,0,.21-.16.35-.38.36-.07,0-.15.06-.19.11-.25.38-.41.8-.35,1.27.02.2,0,.39,0,.59.24-.6.43-1.22.72-1.78.3-.57.77-1.02,1.21-1.5.02.04.04.06.04.08,0,.75.11,1.5-.06,2.24-.17.72-.55,1.31-1.17,1.74-.03.02-.06.04-.11.05.5-.77.79-1.6.81-2.55-.04.04-.07.05-.08.07-.54.8-1.01,1.63-1.26,2.56-.11.41-.08.85-.12,1.31.33-.15.41-.28.39-.55-.02-.22.11-.37.35-.41.19-.03.33.06.36.23.04.21-.08.4-.28.48-.11.04-.21.11-.3.19-.41.4-.59.87-.51,1.45.02.16,0,.32.04.49.38-1.3,1.12-2.38,1.99-3.39.57,1.32-.1,3.67-1.36,4.37.58-.9,1-1.81,1.04-2.9-.04.04-.07.05-.08.07Z"/>
      <path class="cls-1" d="M18.69,25.96c-.17,0-.23.05-.23.22,0,.82,0,1.64,0,2.46,0,.16.04.23.22.23,1.55,0,3.11,0,4.67,0,.18,0,.23-.05.23-.23,0-.81,0-1.63,0-2.44,0-.19-.06-.24-.25-.24-.77,0-1.54,0-2.3,0s-1.56,0-2.34,0ZM22.99,26.31c.14,0,.2.04.19.19,0,.61,0,1.21,0,1.82,0,.15-.06.19-.19.19-.64,0-1.28,0-1.91,0s-1.26,0-1.89,0c-.16,0-.23-.04-.23-.22,0-.59,0-1.17,0-1.76,0-.16.05-.22.21-.22,1.28,0,2.55,0,3.83,0Z"/>
      <path class="cls-1" d="M18.22,23.12c0,.72,0,1.43,0,2.15,0,.16.06.2.21.2.5,0,1,0,1.5,0s1.03,0,1.54,0c.15,0,.19-.05.19-.19,0-.72,0-1.44,0-2.17,0-.15-.06-.19-.2-.19-1.02,0-2.03,0-3.04,0-.16,0-.2.05-.2.2ZM18.55,23.44c0-.12.04-.17.17-.17.79,0,1.58,0,2.36,0,.14,0,.18.05.18.18,0,.53,0,1.05,0,1.58,0,.16-.06.2-.21.2-.38,0-.77,0-1.15,0s-.77,0-1.15,0c-.14,0-.2-.03-.2-.19,0-.53,0-1.07,0-1.6Z"/>
      <path class="cls-1" d="M12.75,5.86c-.03.2.06.36.16.53.21.35.21.34-.09.63-.05.05-.08.18-.05.23.03.05.15.1.22.09.26-.04.45-.26.47-.52,0-.12,0-.25-.02-.37-.03-.21,0-.4.13-.57.06-.08.11-.16.16-.24.13-.22.07-.38-.18-.43-.2-.04-.4-.06-.61-.1-.1.02-.22.02-.33.06-.09.03-.19.11-.21.18-.02.05.08.16.15.21.11.08.22.15.2.31Z"/>
      <path class="cls-1" d="M17.76,19.75c0-.21-.08-.26-.26-.25-.46.02-.91,0-1.35-.13-.08-.02-.17-.02-.25,0-.27.03-.37.22-.25.47.28-.08.37-.01.31.25-.02.07-.12.11-.18.17-.04.04-.07.07-.11.11.05.03.1.1.13.09.08-.02.16-.07.2-.14.04-.05.01-.14.04-.21.03-.08.09-.16.13-.23.07.05.16.1.21.16.06.08.07.18-.06.24-.09.04-.08.11.01.15.13.05.23.03.26-.12.02-.1.02-.2.04-.37.12.09.26.14.26.21,0,.08-.1.17-.18.29.06.02.14.06.22.06.27-.02.08-.31.25-.44.03.06.1.13.08.16-.08.22.08.21.21.22.11,0,.22-.02.32-.02-.02-.24-.07-.45-.06-.66Z"/>
      <path class="cls-1" d="M16.64,5.89c.03.3.06.59.08.89.02.39-.12.6-.48.73-.03.01-.06.03-.15.08.13.05.2.09.28.12.07.02.14.01.21.03.28.05.4,0,.43-.29.02-.21,0-.44-.06-.65-.06-.26-.12-.52-.01-.78.06-.14.16-.28.25-.41.14-.19.19-.38.08-.6-.11-.22-.31-.34-.52-.33-.02.56-.3.53-.9.59,0,.02-.01.04-.02.06.14.04.27.08.41.12.28.07.36.15.39.43Z"/>
      <path class="cls-1" d="M17.38,16.83c-.24.29-.55.35-.9.33-.21-.01-.43-.02-.64-.02-.08,0-.17,0-.23.04-.05.03-.08.11-.08.17,0,.03.08.1.1.09.17-.08.26.04.35.15.03-.02.05-.03.07-.05.1-.08.19-.08.26.04.06.11.05.18-.09.21-.02,0-.06.06-.05.08,0,.03.04.06.08.08.15.07.27,0,.29-.17,0-.06,0-.12.02-.17.02-.05.07-.09.11-.13.04.05.11.11.1.16-.01.09-.07.17-.13.32.23-.01.43-.02.62-.04.13-.01.2-.1.23-.23.01-.07.05-.15.1-.2.19-.15.25-.36.16-.58-.08-.19-.23-.23-.36-.08Z"/>
      <path class="cls-1" d="M19.69,5.83c.08.18.2.29.39.34.14.04.17.14.06.25-.02.03-.05.05-.08.09.03.01.05.03.06.03.2,0,.26.12.25.29-.01.2-.1.31-.27.34-.09.02-.17.08-.26.13.07.06.15.13.23.19.02.02.06.02.09.03.29.06.5-.08.49-.34,0-.25,0-.51-.06-.76-.08-.33-.18-.65.02-.97.04-.07.02-.16-.1-.16-.33.01-.66.02-.99.04-.16.01-.19.13-.07.25.08.08.21.14.25.24Z"/>
      <path class="cls-1" d="M22.34,5.84c.03.24.04.49-.23.65.02.06.03.11.04.16.07.26.09.52-.06.77-.02.04-.06.1-.04.13.02.03.08.05.13.05.43.01.58-.15.53-.58,0-.03-.01-.06-.01-.1-.03-.53-.15-1.07.15-1.57.04-.07.04-.17.03-.25-.02-.08-.08-.15-.12-.22-.07.04-.14.08-.21.13-.1.07-.19.16-.31.21-.1.04-.22.03-.32.06-.06.02-.12.06-.17.1.06.04.12.1.18.11.23.03.39.12.42.36Z"/>
      <path class="cls-1" d="M24.3,5.6c.16.13.25.29.26.5,0,.14.02.28.06.4.07.19.02.33-.1.48-.05.06-.06.17-.09.25.1.03.21.09.31.08.19-.01.31-.19.28-.4-.02-.13-.06-.25-.11-.37-.1-.23-.1-.45-.01-.68.07-.18.15-.36.22-.54.07-.2,0-.33-.2-.38-.12-.03-.24-.03-.33-.05-.12,0-.19,0-.27.02-.28.04-.37.25-.21.48.06.08.13.15.2.21Z"/>
      <path class="cls-1" d="M10.67,6.34c.21.22.24.46.17.74-.03.11-.08.21-.09.32,0,.06.05.15.11.18.04.02.13-.02.18-.06.05-.04.09-.12.1-.18.02-.21.06-.43.03-.64-.06-.44-.05-.88.02-1.32.03-.2-.02-.26-.22-.26-.17.02-.34.03-.5.06-.07.01-.18.04-.2.09-.02.06.01.18.06.22.16.13.19.29.2.48,0,.13.05.29.14.38Z"/>
      <path class="cls-1" d="M20.51,15.39c.05-.08.08-.22.05-.31-.04-.13-.17-.11-.28-.07-.31.13-.63.25-.92.41-.68.38-1.4.58-2.17.62-.16,0-.33.04-.49.07.19.17.27.21.6.14.99-.22,1.97-.46,2.96-.7.1-.02.21-.08.26-.16Z"/>
      <path class="cls-1" d="M17.68,21.14c.08.38.17.76.27,1.14.02.07.11.16.18.16.2.01.41-.01.67-.03-.17-.54-.3-1.03-.56-1.48-.08-.14-.16-.23-.34-.18-.15.05-.26.21-.22.39Z"/>
      <path class="cls-1" d="M16.02,16.12s.04-.03.08-.07c-.08-.04-.13-.07-.19-.08-.17-.03-.33-.05-.5-.05-.7-.01-1.35-.19-1.97-.49-.2-.1-.34-.24-.41-.45-.03-.09-.08-.17-.13-.26-.02,0-.05,0-.07-.01-.07.1-.14.19-.19.3-.14.29-.14.3.13.46,1,.61,2.11.74,3.25.65Z"/>
      <path class="cls-1" d="M16.41,13.77s0,.05,0,.08c.42.17.87.23,1.31.16.71-.11,1.33-.45,1.97-.73-.13-.35-.22-.37-.51-.23-.4.2-.81.42-1.24.54-.33.1-.71.07-1.06.1-.16.02-.32.05-.48.08Z"/>
      <path class="cls-1" d="M14.22,26c1.05,0,2.09,0,3.14,0,.06,0,.12,0,.18,0,.04,0,.06-.05.1-.07-.03-.03-.06-.07-.09-.07-.05-.01-.1,0-.16,0h-1.7c-.57,0-1.15,0-1.72,0-.18,0-.25.05-.25.24,0,.85,0,1.7,0,2.56,0,.05,0,.11,0,.15,0,.03.05.07.07.06.02,0,.06-.04.07-.07.01-.06,0-.12,0-.17,0-.75,0-1.51,0-2.26,0-.37-.05-.34.33-.34Z"/>
      <path class="cls-1" d="M8.8,7.45c.04-.49.06-.98.08-1.48.01-.25.02-.5.03-.75,0-.06,0-.13-.02-.23-.12.09-.2.16-.28.21-.09.06-.21.09-.29.16-.04.03-.04.14,0,.19.02.05.1.07.16.11.19.13.3.42.19.6-.14.22-.18.45-.23.69-.03.13-.12.25-.18.38-.02.04-.05.13-.04.13.09.06.18.14.27.14.12,0,.31.04.33-.15Z"/>
      <path class="cls-1" d="M14.08,25.41s.07-.05.08-.09c.01-.05,0-.1,0-.15,0-.64,0-1.29,0-1.93,0-.19.06-.24.24-.24,1.08,0,2.16,0,3.24,0,.06,0,.12,0,.18,0,.03,0,.06-.04.08-.06-.03-.03-.05-.07-.09-.08-.05-.01-.1,0-.15,0-.57,0-1.13,0-1.7,0h-1.68q-.28,0-.28.29v1.85c0,.11,0,.22,0,.33,0,.03.05.06.07.09Z"/>
      <path class="cls-1" d="M9.97,26.28c.9,0,1.79,0,2.69,0,.06,0,.12,0,.17,0,.02,0,.06-.04.06-.06,0-.03-.03-.07-.06-.08-.05-.01-.1-.01-.15-.01-.48,0-.95,0-1.42,0-.5,0-.99,0-1.48,0-.06,0-.18.07-.18.11,0,.86,0,1.73,0,2.6,0,.03.05.06.07.09.03-.03.06-.06.07-.09.01-.05,0-.1,0-.16,0-.72,0-1.44,0-2.17,0-.17.04-.23.23-.23Z"/>
      <path class="cls-1" d="M16.44,12.53c.06.11.13.23.21.32.16.18.49.15.6-.07.13-.26.11-.53.02-.82-.49.15-.97-.15-1.48.06.05.03.08.06.11.06.29.02.43.21.55.44Z"/>
      <path class="cls-1" d="M17.35,26.3c-.06-.03-.12-.09-.18-.09-.47,0-.95,0-1.42,0-.48,0-.96,0-1.45,0-.15,0-.22.03-.22.2,0,.68,0,1.35,0,2.03,0,.06.05.12.08.18.02-.06.07-.12.07-.18,0-.61,0-1.21,0-1.82q0-.26.27-.26c.88,0,1.77,0,2.65,0,.06,0,.12-.04.18-.07Z"/>
      <path class="cls-1" d="M16.17,11.53s-.02.04-.03.06c.09.05.18.13.28.14.75.1,1.45-.06,2.1-.44.14-.08.17-.19.08-.33-.09-.13-.19-.1-.3-.02-.4.3-.86.46-1.35.54-.25.04-.51.03-.77.04Z"/>
      <path class="cls-1" d="M14.75,23.39c.88,0,1.77,0,2.65,0,.06,0,.13-.04.2-.07-.07-.03-.13-.08-.2-.08-.47,0-.94,0-1.4,0s-.98,0-1.46,0c-.13,0-.18.04-.18.18,0,.53,0,1.07,0,1.6,0,.06.05.11.07.17.03-.06.08-.11.08-.17,0-.46.01-.92,0-1.39,0-.19.06-.24.25-.24Z"/>
      <path class="cls-1" d="M12.74,26.59c-.06-.03-.12-.08-.18-.08-.4,0-.81,0-1.21,0s-.81,0-1.21,0c-.15,0-.21.04-.2.2,0,.61,0,1.21,0,1.82,0,.04,0,.08.01.12,0,.02.04.05.07.05.02,0,.07-.03.07-.05.01-.06.01-.12.01-.17,0-.53,0-1.05,0-1.58,0-.17.06-.22.22-.22.75,0,1.5,0,2.25,0,.06,0,.12-.05.18-.07Z"/>
      <path class="cls-1" d="M11.53,24.65c0,.21,0,.43,0,.64,0,.04.05.08.07.11.03-.04.07-.07.08-.11.01-.05,0-.1,0-.15v-1.85q0-.29.28-.29c.51,0,1.03,0,1.54,0,.06,0,.11-.05.17-.08-.06-.03-.11-.08-.17-.08-.6,0-1.2,0-1.79,0-.15,0-.19.05-.19.2,0,.36,0,.73,0,1.09,0,.18,0,.35,0,.53Z"/>
      <path class="cls-1" d="M17.25,14.25c-.4-.02-.8-.04-1.22-.06.02.03.02.05.04.05.03.02.06.04.08.05.3.05.46.22.48.52,0,.03.02.06.04.09.09.17.26.18.42.17.16,0,.29-.09.31-.25.02-.16.01-.32,0-.49,0-.04-.09-.09-.14-.09Z"/>
      <path class="cls-1" d="M16.01,10.26c.01.06.08.13.14.15.14.05.29.06.37.08.43,0,.59-.17.54-.54-.02-.11-.03-.22-.05-.33-.01-.11-.02-.22-.17-.21-.14,0-.23.1-.22.23.03.25-.12.33-.31.39-.07.02-.14.04-.2.08-.05.04-.13.11-.12.15Z"/>
      <path class="cls-1" d="M17.17,18.76c-.32-.11-.49-.04-.63.28.09,0,.18.04.24,0,.25-.13.41-.01.55.17.1.13.21.15.36.1.1-.03.2-.02.31-.04.07,0,.14-.02.21-.03-.02-.08,0-.19-.06-.24-.08-.08-.22-.18-.31-.16-.24.06-.44-.03-.65-.1Z"/>
      <path class="cls-1" d="M17.39,22.28c.05.03.13.04.2.04.02,0,.05-.09.04-.13-.05-.33-.1-.65-.15-.98-.02-.12-.1-.2-.21-.17-.08.02-.18.11-.21.18-.03.11,0,.23,0,.38-.09.3.08.52.33.68Z"/>
      <path class="cls-1" d="M12.29,23.39c.32.01.64,0,.96,0,.06,0,.11-.05.17-.08-.06-.03-.11-.07-.17-.07-.39,0-.78,0-1.17,0-.13,0-.19.04-.18.18,0,.27,0,.53,0,.8h0c0,.29,0,.57,0,.86,0,.04.05.08.07.11.03-.04.07-.07.08-.11.01-.05,0-.1,0-.16,0-.43,0-.86,0-1.29,0-.19.06-.25.25-.24Z"/>
      <path class="cls-1" d="M12.48,14.21c-.13.02-.25.09-.37.11-.14.03-.22.1-.26.23-.02.07-.06.14-.09.21-.07.13.03.21.11.25.11.05.24.07.36.09,0,0,.01-.03.02-.05.09-.14.17-.28.26-.42.06-.1.13-.19.23-.34-.11-.04-.19-.09-.25-.07Z"/>
      <path class="cls-1" d="M12.04,13.71s-.09,0-.12.03c-.08.07-.15.16-.24.22-.1.06-.2.09-.2-.09,0-.05-.05-.12-.08-.13-.05,0-.12.03-.16.06-.04.03-.07.08-.09.12-.03.13-.11.28-.07.39.03.1.19.16.28.23.12-.05.23-.06.27-.11.16-.2.31-.41.45-.62.01-.02-.01-.1-.04-.11Z"/>
      <path class="cls-1" d="M17.54,27.23c-.16,0-.25.09-.28.24-.01.06-.06.11-.1.17-.05-.05-.13-.1-.16-.16-.09-.21-.32-.38-.47-.26-.27.22-.47.15-.69-.03,0,0-.02,0-.04-.01-.24-.06-.47-.12-.71-.17-.21-.05-.4.04-.45.24-.06.21-.02.4.09.58,0-.12-.03-.24-.04-.36-.02-.32.16-.46.46-.37.1.03.2.09.29.15.12.09.23.2.36.31.18-.21.37-.09.55-.03.07-.25.27-.33.45-.19.18.14.2.41.02.56-.12.09-.27.14-.42.19-.07.03-.14.03-.22.04.23.06.42,0,.61-.12.05-.03.13-.06.17-.04.29.15.54.04.79-.11.15-.09.18-.22.13-.37-.06-.17-.19-.24-.36-.25ZM15.61,27.2c.12.03.23.06.37.1-.17.15-.24.13-.37-.1ZM17.68,27.82c-.13.06-.26.11-.35.15-.1-.02-.16-.01-.2-.04-.05-.03-.13-.08-.13-.13,0-.1.08-.1.16-.1.06,0,.14-.1.16-.17.04-.13.06-.24.23-.23.15,0,.26.09.3.23.04.15-.05.23-.17.29Z"/>
      <path class="cls-1" d="M14.15,10.65c-.12.14-.12.31.08.47.36.28.77.44,1.22.48.08,0,.16,0,.24,0,0-.03,0-.06.01-.08-.29-.1-.59-.16-.85-.31-.26-.14-.47-.37-.7-.56Z"/>
      <path class="cls-1" d="M15.82,13.75s-.07-.04-.11-.04c-.67-.06-1.28-.28-1.84-.64-.06-.03-.16,0-.24.01.05.07.08.16.15.2.58.31,1.2.5,1.86.54.06,0,.13-.01.19-.02,0-.02,0-.04,0-.06Z"/>
      <path class="cls-1" d="M21.92,9.37c.06,0,.16.04.17.08.02.06,0,.15-.04.21-.02.05-.1.07-.13.11-.03.04-.05.13-.03.14.08.06.17.13.26.14.06,0,.16-.07.18-.13.06-.14.08-.3.13-.45.04-.11,0-.19-.11-.21-.21-.05-.42-.08-.66-.12,0,.24.11.22.22.23Z"/>
      <path class="cls-1" d="M23.94,10.79s-.04.12-.01.17c.06.11.31.15.47.09.16-.06.2-.2.19-.35-.04-.28-.48-.48-.74-.34.01.03.02.04.02.05.28.11.28.15.08.39Z"/>
      <path class="cls-1" d="M22.46,7.9c-.04.06-.09.12-.12.18-.06.15-.1.31-.16.46-.05.11-.08.21.05.29.12.07.25.08.33-.05.08-.13.13-.28.19-.4-.04-.13-.06-.25-.11-.34-.03-.06-.11-.09-.17-.14Z"/>
      <path class="cls-1" d="M19.07,10.92c.18,0,.48-.24.49-.42,0-.08-.06-.2-.13-.25-.05-.03-.18-.01-.23.03-.11.1-.21.21-.38.2-.03,0-.08.07-.08.1,0,.15.19.33.34.33Z"/>
      <path class="cls-1" d="M24.2,8.08c.16.29.51.19.7.4.14-.29.16-.54.04-.82-.15.32-.49.26-.75.42Z"/>
      <path class="cls-1" d="M16.59,21.04c-.05,0-.14.09-.16.16-.1.3.03.66.28.84.02.01.05.01.13.03-.02-.31-.03-.6-.06-.88,0-.06-.12-.14-.19-.15Z"/>
      <path class="cls-1" d="M9.3,10.5c.02-.14,0-.31-.06-.43-.06-.12-.16-.29-.39-.2.19.14.21.27,0,.4-.05.03-.09.1-.11.16-.01.06,0,.13.04.18.02.03.09.03.14.06.19.1.34.05.37-.16Z"/>
      <path class="cls-1" d="M22.89,13.53s.13,0,.17-.03c.09-.08.16-.18.25-.27.08-.09.09-.19,0-.25-.1-.07-.23-.11-.35-.16,0,0-.05.06-.04.09.04.22-.05.27-.25.22-.02,0-.06.01-.15.04.14.14.24.26.36.37Z"/>
      <path class="cls-1" d="M21.9,14.62c.03-.07.05-.13.08-.2.07-.15.03-.22-.13-.26-.19-.04-.38-.08-.56-.11-.02,0-.05,0-.12.02.16.22.3.43.46.62.11.12.21.09.27-.07Z"/>
      <path class="cls-1" d="M10.56,13.19c-.07.05-.14.11-.21.16-.03.02-.09.03-.1.06-.07.23.23.21.26.38,0,.02.13.05.16.02.12-.1.22-.21.32-.32.01-.01.02-.03.05-.1-.13-.09-.26-.18-.4-.26,0,0-.05.05-.08.07Z"/>
      <path class="cls-1" d="M21.2,15.11c.13-.12.15-.32.02-.43-.08-.07-.17-.12-.27-.18-.1.22-.1.22-.28.07-.03-.03-.08-.03-.12-.05-.01.02-.03.03-.04.05.12.17.22.35.35.5.08.1.21.17.34.05Z"/>
      <path class="cls-1" d="M9.13,8.44c0-.07,0-.15-.01-.21-.01-.07-.05-.13-.08-.2-.04.06-.11.11-.12.18-.03.21-.13.34-.31.44-.07.03-.12.1-.22.18.08.03.11.04.14.05.39.13.6-.02.6-.43Z"/>
      <path class="cls-1" d="M20.28,8.78s-.17.03-.18.06c-.04.15-.13.23-.27.29-.05.02-.09.08-.16.15.13.06.2.12.29.13.09.01.23,0,.27-.05.09-.13.15-.29.19-.44,0-.04-.09-.13-.15-.15Z"/>
      <path class="cls-1" d="M24.45,10.16s.08-.05.1-.08c.08-.13.17-.26.23-.4.03-.06,0-.15,0-.22-.08.03-.22.04-.24.09-.08.27-.27.33-.51.3-.04,0-.07.01-.13.03.07.11.46.32.56.29Z"/>
      <path class="cls-1" d="M23.73,11.82c.11-.04.24-.1.3-.2.09-.13.02-.28-.09-.39-.09-.09-.2-.16-.37-.07.09.1.16.18.23.26,0,.02-.02.04-.02.06-.07,0-.15-.01-.22,0-.06.01-.12.06-.17.09.03.06.05.13.1.17.07.04.17.09.23.07Z"/>
      <path class="cls-1" d="M13.33,23.99s-.03.05-.04.08c-.11.23-.24.27-.43.12-.13-.1-.33-.09-.44.03-.15.17-.18.39-.08.5.02-.12.03-.27.09-.38.05-.08.2-.16.28-.14.08.02.17.15.19.25.04.23-.09.41-.32.5-.09.03-.17.06-.26.09.21-.01.41-.1.62-.11.21-.01.43.04.64.07,0-.01,0-.03.01-.04-.22-.05-.45-.09-.68-.14.06-.21.04-.46.33-.53.02,0,.04-.02.04-.04.1-.2.22-.11.34-.02.05.03.08.07.13.11-.07-.2-.24-.26-.42-.32Z"/>
      <path class="cls-1" d="M17.59,24c-.08-.12-.18-.18-.31-.14-.11.03-.23.09-.33.16-.18.12-.36.18-.57.11-.16-.06-.32-.14-.48-.21-.22-.11-.31-.09-.49.07-.06.05-.14.09-.21.11-.16.04-.48.48-.46.66.07-.08.13-.16.19-.24.03-.05.08-.09.09-.15.01-.14.08-.2.22-.21.07,0,.15-.05.2-.1.2-.18.25-.2.47-.06.4.24.79.33,1.2,0,.19-.16.36-.08.45.15.06.14.15.2.26.18-.08-.1-.16-.21-.24-.32Z"/>
      <path class="cls-1" d="M9.85,11.17s-.1-.12-.12-.11c-.27.12-.54.25-.82.38.04.06.04.08.05.09.23.15.84-.1.88-.37Z"/>
      <path class="cls-1" d="M23.72,12.53s0-.11-.02-.14c-.1-.11-.53-.08-.68.05.17.15.34.3.5.45.07-.13.14-.24.2-.36Z"/>
      <path class="cls-1" d="M16.6,9.02c-.07,0-.13,0-.19.01-.04.01-.08.05-.1.09,0,.02.05.09.08.09.19.02.37.04.55.02.15-.02.18-.17.15-.31-.03-.11-.06-.24-.25-.21.05.29.04.3-.24.31Z"/>
      <path class="cls-1" d="M13.15,12.87c0,.08.08.15.12.23.06-.04.14-.06.17-.12.1-.19.18-.4.28-.63-.21.03-.58.38-.57.52Z"/>
      <path class="cls-1" d="M19.96,13.07c.14,0,.3-.03.41-.1.05-.03.03-.21.01-.31-.01-.07-.08-.12-.13-.18-.06.15-.03.31-.25.32-.05,0-.11.05-.16.08.04.07.08.2.11.2Z"/>
      <path class="cls-1" d="M13.94,9.51c-.11-.1-.25-.09-.32.02-.1.15-.16.32-.25.48.02.01.04.03.06.05.16-.08.32-.15.46-.26.09-.07.17-.18.05-.29Z"/>
      <path class="cls-1" d="M16.02,21.12c-.25,0-.17.21-.2.32-.03.21.1.26.25.26.23,0,.13-.2.15-.31.03-.13-.02-.27-.2-.27Z"/>
      <path class="cls-1" d="M24.77,8.66c-.2-.04-.41-.04-.61-.04-.03,0-.07.06-.07.09,0,.02.04.07.07.08.21.06.42.11.66.16.01,0,.09-.05.08-.06-.03-.09-.07-.22-.12-.24Z"/>
      <path class="cls-1" d="M20.9,12.36c-.05-.16-.14-.32-.22-.47-.01-.02-.13-.02-.15,0-.06.08-.1.18-.16.3.1.07.21.17.33.25.11.07.24.02.21-.08Z"/>
      <path class="cls-1" d="M13.51,7.74c-.22-.13-.79-.11-.94.02.14.18.78.18.94-.02Z"/>
      <path class="cls-1" d="M10.36,7.77c.16.23.83.22,1-.01-.34-.05-.66-.06-1,.01Z"/>
      <path class="cls-1" d="M10.13,12.06c-.11.05-.19.09-.27.13-.09.04-.19.07-.28.11-.07.03-.14.07-.21.1.07.06.13.14.21.17.2.05.48-.19.55-.5Z"/>
      <path class="cls-1" d="M21.9,10.73c-.08-.03-.15-.08-.22-.12-.27.25-.27.25.03.43.16.09.23,0,.3-.11.09-.13-.02-.16-.12-.21Z"/>
      <path class="cls-1" d="M19.91,8.35c.17.06.33.12.49.17.04.01.1,0,.14-.03.02-.01,0-.08-.02-.12-.16-.33-.35-.34-.61-.02Z"/>
      <path class="cls-1" d="M12.97,8.95s-.01.14-.02.19c.31-.05.58-.1.87-.15-.2-.17-.74-.18-.85-.04Z"/>
      <path class="cls-1" d="M12.59,12.54c-.05.09.12.21.2.12.13-.13.22-.3.31-.46.01-.02-.05-.08-.11-.17-.16.19-.31.34-.4.51Z"/>
      <path class="cls-1" d="M15.76,24.24s0,.01,0,.02c0,0,.02,0,.02,0,0,0-.01-.01-.02-.02Z"/>
      <path class="cls-1" d="M16.92,24.57c0,.07.02.12.03.18.07-.12.14-.22.21-.33-.17.05-.32.11-.47.13-.29.05-.55-.04-.77-.25-.03-.03-.09-.04-.14-.04.33.34.7.47,1.14.31Z"/>
      <path class="cls-1" d="M15.69,24.25c0,.08-.03.19,0,.24.07.1.19.17.29.25.01-.02.03-.03.04-.05-.11-.12-.33-.16-.27-.44-.02,0-.04,0-.06,0Z"/>
      <path class="cls-1" d="M11.19,8.98c.07-.06.2-.11.2-.18,0-.09-.07-.19-.12-.29-.06.06-.13.11-.19.17-.02.02-.03.04-.04.06-.03.05-.06.1-.09.15.06.04.13.07.15.08.07,0,.09,0,.09,0Z"/>
      <path class="cls-1" d="M9.87,12.82s-.06.1-.1.15c.07.03.15.1.21.09.17-.03.32-.24.35-.48-.17.09-.32.15-.46.24Z"/>
      <path class="cls-1" d="M20.06,7.82c.17.09.35.15.52.2.02,0,.07-.04.08-.07.01-.1.01-.2.02-.31-.02-.02-.05-.03-.07-.05-.11.29-.37.1-.55.22Z"/>
      <path class="cls-1" d="M14.35,10.15s0-.05,0-.08c-.06-.02-.12-.07-.18-.07-.05,0-.11.04-.15.09-.07.09-.19.24-.17.28.1.14.2-.01.29-.06.08-.04.14-.11.21-.17Z"/>
      <path class="cls-1" d="M12.13,11.77s-.03.12-.01.18c0,.03.09.05.13.04.14-.02.29-.25.25-.47-.12.08-.25.16-.37.25Z"/>
      <path class="cls-1" d="M11.19,27.3c-.02.06-.02.11-.04.17-.04.15-.15.22-.3.24-.15.02-.21-.08-.24-.2,0-.03-.03-.05-.05-.1-.01.29.17.45.4.34.11-.05.22-.17.26-.28.12-.35.1-.35.45-.19.05.02.11.03.16.05-.08-.08-.17-.13-.26-.18-.19-.1-.31-.04-.37.16Z"/>
      <path class="cls-1" d="M12.57,28.34c-.36,0-.44-.09-.38-.44.02-.09,0-.19,0-.28-.01,0-.02,0-.03,0-.02.13-.04.26-.07.39-.04.22.06.38.27.39.21,0,.42-.03.62-.09.1-.03.18-.15.27-.23-.01-.02-.03-.04-.04-.05-.16.23-.39.31-.66.32Z"/>
      <path class="cls-1" d="M19.7,10.03s-.05.15-.02.2c.03.04.16.08.19.06.12-.1.22-.22.15-.42-.12.06-.23.09-.31.16Z"/>
      <path class="cls-1" d="M22.28,10.47c-.28-.12-.5-.28-.8-.19.15.17.62.3.8.19Z"/>
      <path class="cls-1" d="M11.52,27.56c-.08.09-.02.18.03.28.05.09.1.22.06.29-.04.08-.18.16-.28.17-.17.01-.34-.04-.52-.06-.07-.01-.13-.03-.19-.05.25.15.52.24.81.17.26-.06.34-.3.21-.51-.05-.08-.09-.18-.13-.28Z"/>
      <path class="cls-1" d="M13.21,27.5c-.18.09-.32.16-.51.26.05-.23.12-.41-.07-.52-.18-.11-.33.02-.53.08.21,0,.43-.06.5.02.08.08.02.3.02.47.21-.01.42-.08.58-.31Z"/>
      <path class="cls-1" d="M11.45,10.5s.02-.08,0-.09c-.02-.02-.07-.04-.1-.03-.11.04-.21.09-.33.14.16.14.37.11.43-.03Z"/>
      <path class="cls-1" d="M11.38,11.02s-.06.08-.05.1c.01.03.08.07.1.06.11-.05.21-.11.31-.17-.02-.04-.04-.07-.05-.11-.1.04-.21.07-.31.12Z"/>
      <path class="cls-1" d="M15.02,27.4c.02.08.04.16.07.24.01,0,.03,0,.04,0,0-.05,0-.11,0-.18.17.11.32.2.51.33-.14-.2-.46-.4-.61-.38Z"/>
      <path class="cls-1" d="M14.73,28.33c.27-.04.42-.47.74-.16-.28-.24-.35-.23-.74.16Z"/>
      <path class="cls-1" d="M13.01,8.65c.09-.02.19-.04.28-.07.03-.01.04-.07.06-.1-.04,0-.09-.04-.13-.02-.09.03-.16.08-.25.12,0,.03.02.05.03.08Z"/>
      <path class="cls-1" d="M15.08,24.8c.17-.22.35-.3.57-.07-.14-.29-.38-.27-.57.07Z"/>
      <path class="cls-1" d="M25.06,7.47h-.47c.14.14.25.14.47,0Z"/>
      <path class="cls-1" d="M13.37,24.53s-.03.11,0,.14c.06.06.14.1.21.15,0-.01.01-.02.02-.03-.06-.06-.11-.12-.17-.18.06-.04.12-.08.19-.12-.09-.02-.17,0-.24.04Z"/>
      <path class="cls-1" d="M17.3,24.77c.1-.25.27-.23.47-.13-.23-.23-.4-.18-.47.13Z"/>
      <path class="cls-1" d="M6.37,32.7c-.1-.06-.21-.09-.31-.15-.15-.09-.3-.19-.45-.29.13.33.39.52.66.7.05.03.15.06.17.04.04-.04.07-.13.06-.19,0-.04-.08-.08-.13-.11Z"/>
      <path class="cls-1" d="M26.54,32.95s.11.06.15.05c.31-.18.6-.4.79-.73-.32.16-.62.3-.91.47-.04.02-.04.15-.03.22Z"/>
      <path class="cls-1" d="M23.16,33.05c-.04.11-.06.22-.09.34.1.02.18.04.28.07-.03.26-.04.51-.08.76-.05.29-.25.51-.5.58-.38.12-.78.15-1.21.22.22-.71.43-1.37.63-2.03-.45-.12-.58-.06-.66.29.1.01.21.03.34.04-.19.46-.38.88-.53,1.32-.11.31-.28.43-.6.42-.28-.01-.3-.01-.31-.31-.03-.5.03-.98.19-1.46.13-.41.09-.45-.34-.48-.05,0-.12.03-.14.07-.06.1-.1.22-.16.35.08.03.15.06.21.08.18.06.2.1.1.27-.06.09-.16.18-.17.28-.04.52-.05,1.03-.08,1.57.09,0,.15,0,.2-.01.63-.08,1.25-.19,1.88-.24.46-.04.83-.19,1.14-.54.12-.14.22-.27.23-.46.03-.36.07-.71.09-1.07,0-.06-.06-.16-.09-.17-.11,0-.26-.08-.32.09Z"/>
      <path class="cls-1" d="M12.54,33.18c-.11-.1-.19-.1-.29.03-.11.15-.08.3-.08.46.01.49.02.97.02,1.46,0,.1-.02.2-.02.3.04.01.06.02.08.02.16,0,.32,0,.49,0,.24,0,.31-.06.35-.32-.07,0-.13,0-.19,0-.48,0-.38.03-.41-.4-.02-.35,0-.7,0-1.1.89.61,1.72,1.19,2.58,1.78.07-.13.12-.24.19-.37-.78-.3-1.43-.77-2.05-1.28-.23-.19-.45-.39-.68-.59Z"/>
      <path class="cls-1" d="M14.75,33.25c.23-.01.27.02.27.26,0,.13-.02.26-.03.41.33-.1.34-.35.34-.6q0-.53-.52-.52s-.02,0-.02,0c-.03.02-.09.04-.1.07-.05.12-.08.24-.12.39.08,0,.13,0,.18,0Z"/>
      <path class="cls-1" d="M10.53,32.98c-.59,0-1.19,0-1.78,0-.18,0-.25-.04-.25-.24.02-.69.02-1.38.04-2.07,0-.21,0-.44.17-.62.09-.09,0-.15-.1-.15-.2,0-.4,0-.62,0,0,.1.03.22.02.34,0,.15.04.21.2.21.14,0,.2.05.1.19-.04.05-.07.12-.07.17-.03.81-.05,1.62-.07,2.45.07,0,.15,0,.22,0,.61,0,1.22,0,1.84,0,.11,0,.23,0,.24.14,0,.38.01.75,0,1.13,0,.16-.11.27-.27.33-.17.06-.32.14-.49.19-.17.06-.21.18-.2.38.36-.18.7-.32,1.02-.51.11-.07.22-.23.22-.36.03-.52.01-1.05.01-1.59h-.23Z"/>
      <path class="cls-1" d="M18.32,32.92c-.35,0-.7,0-1.05,0-.21-.01-.42-.06-.65-.1-.14.28-.04.45.32.46.36,0,.73.01,1.09,0,.19,0,.24.06.24.24-.01.47,0,.94,0,1.4v.29c.28.01.34-.04.35-.27,0-.58,0-1.16,0-1.74,0-.22-.06-.28-.28-.28Z"/>
      <path class="cls-1" d="M25.17,32.91c-.07,0-.14-.03-.21-.02-.06,0-.14.03-.16.07-.06.11-.09.23-.15.38.19.01.33.02.48.03-.02.22-.04.42-.07.63.16.02.23-.03.25-.18.02-.2.06-.4.11-.59.07-.3.07-.3-.25-.32Z"/>
      <path class="cls-1" d="M19.03,26.58c0,.55,0,1.09,0,1.64,0,.16.06.2.21.2,1.22,0,2.43,0,3.65,0,.16,0,.22-.05.21-.21,0-.53,0-1.07,0-1.6,0-.18-.07-.22-.23-.21-.6,0-1.2,0-1.8,0s-1.24,0-1.85,0c-.14,0-.19.05-.19.19ZM22.11,26.84c.07.07.07.19.08.3-.06-.1-.09-.26-.17-.29-.1-.04-.24.02-.37.04.15-.06.31-.2.46-.05ZM21.55,27.62c.02-.12.05-.23.1-.34-.02.1-.03.2-.05.3-.03.21.06.33.28.33.21,0,.42-.05.61-.08-.22.16-.5.16-.77.1-.14-.03-.2-.16-.18-.31ZM20.57,27.97c-.28.07-.54,0-.79-.14.18.04.35.09.53.11.34.04.49-.09.49-.4.09.21,0,.37-.23.43ZM20.02,27.34c.15-.03.23-.12.27-.27.1-.39.16-.42.51-.22.04.03.09.05.12.11-.09-.04-.17-.09-.26-.13-.14-.07-.23-.04-.29.11-.18.47-.3.54-.87.47.19-.02.36-.03.51-.05Z"/>
      <path class="cls-1" d="M18.85,25.15c.35,0,.7,0,1.05,0s.7,0,1.05,0c.14,0,.21-.03.21-.19,0-.47,0-.95,0-1.42,0-.13-.04-.19-.18-.19-.72,0-1.44,0-2.17,0-.14,0-.18.05-.18.19,0,.48,0,.95,0,1.42,0,.16.07.2.21.19ZM20.16,24.7c-.21.04-.41.07-.62.11,0-.01,0-.03,0-.04.21-.04.42-.08.63-.11,0,.01,0,.03,0,.05ZM19.71,23.82c.22.34.33.39.5.23.12-.12.26-.14.4-.03.16.12.2.34.12.54.02-.2.01-.4-.17-.51-.08-.04-.22,0-.33.02-.02.16-.05.32-.07.44-.03-.07-.06-.21-.14-.3-.09-.1-.22-.17-.38-.28-.08.05-.2.12-.33.2,0-.01-.01-.02-.02-.03.14-.09.28-.18.41-.27Z"/>
    </g>
  </g>
</svg>