<?xml version="1.0" encoding="UTF-8"?>
<svg id="Layer_2" xmlns="http://www.w3.org/2000/svg" viewBox="0 0 33.04 40.02">
  <defs>
    <style>
      .cls-1 {
        fill: #2c489e;
      }
    </style>
  </defs>
  <g id="Layer_1-2" data-name="Layer_1">
    <g>
      <path class="cls-1" d="M33.03,19.51c0-.15,0-.29-.01-.44-.02-.49-.05-.98-.06-1.48,0-.76,0-1.52,0-2.27,0-.4.03-.81.02-1.21,0-.56-.03-1.13-.05-1.69-.01-.52-.02-1.04-.03-1.56,0-.49-.03-.98-.03-1.47,0-.29.04-.58.04-.86,0-.74-.02-1.49-.03-2.23,0-.41,0-.83,0-1.24-.02-.68-.06-1.37-.06-2.05,0-.75.04-1.5.06-2.25,0-.2,0-.4-.02-.6-.01-.07-.11-.15-.19-.17-.13-.02-.26.02-.39.02-.89.01-1.77.03-2.66.04-.78,0-1.56,0-2.33,0-1.06,0-2.12.02-3.19.03-.65,0-1.3.02-1.95.02-.91,0-1.83,0-2.74,0-.67,0-1.34.02-2,.03-1.09.02-2.17.04-3.26.05-.54,0-1.08,0-1.62,0-.71,0-1.42.04-2.14.05-.54,0-1.08,0-1.62,0-.76,0-1.52.03-2.27.04-.31,0-.63-.03-.94-.03-.29,0-.58.05-.87.06-.35,0-.71,0-1.06,0-.82.02-1.64.05-2.46.06-.32,0-.65-.04-.97-.05-.05,0-.15.1-.15.16,0,.32,0,.63.01.95.01.73.03,1.46.03,2.18,0,.61-.03,1.23-.03,1.84,0,.85.04,1.71.04,2.56,0,1.06-.01,2.12-.02,3.18,0,.91,0,1.82,0,2.72,0,.44,0,.87,0,1.31,0,1.54,0,3.07,0,4.61,0,1.77-.03,3.55-.04,5.32,0,.49,0,.98.01,1.47.02.52.02,1.04.11,1.55.12.73.47,1.37.87,2,.39.61.87,1.13,1.38,1.62.47.44.97.85,1.56,1.14.46.23.89.51,1.34.76.18.1.41.15.36.46.2-.12.36-.09.51.03.04.03.09.05.14.08.51.28,1.02.56,1.52.85.31.18.61.38.93.54.14.07.3.1.29.27.15.03.27.02.36.07.19.09.37.21.55.32.12.07.3.13.33.23.05.18.16.24.29.29.19.08.39.1.57.2.46.24.92.49,1.37.74.72.41,1.43.82,2.15,1.23.53.3,1.07.6,1.6.91.2.11.37.16.58,0,.32-.23.67-.41,1.02-.61.21-.12.43-.24.63-.37.3-.18.59-.37.88-.56.38-.23.76-.46,1.14-.7.53-.32,1.05-.65,1.58-.97.33-.2.68-.38,1.01-.58.43-.26.86-.53,1.28-.8.27-.17.54-.35.81-.53.34-.23.68-.47,1.03-.69.38-.24.79-.42,1.16-.67.72-.49,1.42-1.02,2.14-1.52.61-.42,1.18-.9,1.65-1.48.44-.54.84-1.1,1.06-1.77.14-.41.24-.84.41-1.24.24-.58.31-1.19.35-1.81.05-.78.04-1.57.03-2.35,0-.24-.07-.48-.06-.72.01-.42.07-.84.08-1.26.01-.6,0-1.2,0-1.8ZM20.33,1.34c-.02-.42.09-.52.53-.55.52-.04,1.05-.05,1.58-.05.45,0,.91.03,1.36.03.27,0,.54,0,.81-.03.37-.03.49.1.48.55,0,.21,0,.43,0,.64-.02.31-.16.42-.49.42-.46.01-.91.05-1.36.06-.3,0-.61-.04-.91,0-.53.07-1.04-.02-1.56-.03-.23,0-.45-.15-.43-.44.01-.2.01-.41,0-.61ZM8.85.89c.13,0,.26-.01.39-.01.08,0,.18-.02.24.01.18.11.35.07.55.05.65-.05,1.3-.06,1.96-.07.34,0,.69.03,1.03.01.34-.01.6.47.52.75-.06.22-.06.45-.11.67-.02.08-.09.2-.17.22-.17.05-.36.06-.55.06-.43,0-.85-.04-1.28-.04-.6,0-1.2.03-1.79.05,0,0,0,0,0-.01-.38,0-.76,0-1.14-.02-.22-.01-.36-.18-.39-.4-.02-.18-.08-.37-.07-.55.03-.53.29-.75.81-.72ZM22.51,34.46c-.91-.01-1.81-.02-2.76-.03.12-.06.21-.13.31-.15.2-.04.38-.11.54-.25.05-.04.12-.07.18-.07.45,0,.89-.01,1.34.02.07,0,.12.2.19.33.04.01.13.04.21.07,0,.03,0,.06,0,.09ZM22.64,33.91c.08-.06.13-.1.23-.18.02.13.04.22.06.37-.12-.08-.19-.13-.29-.19ZM23.77,34.81s-.02-.03-.04-.04c.05-.09.12-.18.14-.27.02-.07,0-.19-.06-.23-.04-.04-.15,0-.23.02-.17.05-.34.11-.54.13.3-.13.42-.35.38-.66-.04-.3-.24-.45-.54-.61.43-.01.8-.1,1.1.06.86.04,1.66-.07,2.45-.31.02.03.05.06.09.13.03-.09.04-.15.07-.26.05.09.08.13.11.18-.99.62-1.96,1.23-2.94,1.85ZM32.3,25.16c0,.38,0,.77-.06,1.15-.04.33-.14.66-.23.98-.09.32-.2.63-.34.93-.05.12-.18.2-.28.29.07.31-.16.53-.28.76-.16.29-.36.57-.56.83-.13.17-.31.29-.46.44-.5.51-1.09.91-1.68,1.3-.17.11-.35.21-.53.32-.11.07-.21.15-.32.21-.02.01-.06-.01-.06-.01.17-.22.35-.44.5-.67.02-.03-.03-.16-.08-.18-.12-.06-.28-.12-.36.05-.12.26-.31.38-.59.38-.66.01-1.33.02-1.99.05-.35.01-.7.05-1.05.1-.11.01-.22.07-.37.13.03-.08.03-.15.07-.17.14-.1.29-.21.45-.29.24-.12.48-.23.72-.33.31-.13.63-.24,1-.38-.1-.04-.17-.08-.25-.1-.09-.03-.18-.04-.28-.06.05-.09.09-.19.15-.28.05-.07.12-.13.18-.19-.02-.03-.04-.06-.06-.09-.3.15-.61.31-.96.49,0-.2,0-.32-.02-.44-.01-.07-.06-.13-.1-.2-.07.04-.15.06-.19.11-.05.07-.07.16-.1.24-.18.54-.49.95-1.09,1.15.09-.29.16-.55.24-.81.14-.43.27-.87.43-1.3.07-.17.2-.32.34-.48.01.46.13.83.64.8.35-.02.57-.32.53-.78-.03-.36-.38-.5-.83-.45.15-.19.26-.32.35-.45.09-.12.29-.19.18-.42-.34-.13-.62.1-.89.25-.33.18-.63.43-.92.66-.52.41-.72.99-.89,1.61-.19.68-.26,1.36-.32,2.05,0,.1-.05.19-.06.28,0,.04,0,.09.02.11.01.02.08.02.1,0,.16-.15.39-.2.5-.43.05-.1.19-.15.34-.27-.09.13-.14.21-.22.32.1.03.19.06.34.1-.12.1-.22.2-.33.26-.18.09-.24.22-.19.43.08.02.16.04.24.06-.15.15-.29.3-.39.4-.08-.04-.13-.08-.2-.09-.19-.04-.39-.07-.58-.1.08-.24.15-.43.2-.62.01-.06-.03-.13-.05-.2-.06.02-.13.04-.19.08-.17.11-.34.24-.51.35-.04.03-.11.03-.19.05.02-.13.04-.23.04-.33,0-.05,0-.14-.04-.15-.05-.02-.15-.02-.18.02-.08.07-.16.16-.19.26-.14.42-.48.69-.78.99-.2.19-.4.38-.58.58-.05.06-.05.17-.07.26.02.01.04.02.06.03-.07.03-.14.05-.21.08-.02-.01-.04-.03-.06-.04.09-.17.17-.34.26-.5.1-.2.24-.38.31-.58.11-.29.15-.6.25-.89.15-.41.32-.82.5-1.22.04-.08.15-.13.23-.19.02-.02.07-.01.08-.03.12-.43.58-.52.81-.85.06-.08.15-.15.21-.23.04-.05.07-.14.05-.19-.02-.05-.12-.1-.17-.09-.26.05-.53.08-.76.2-.43.23-.85.49-1.23.78-.19.14-.3.39-.46.6-.06-.37-.3-.48-.66-.47-.28,0-.56-.05-.83-.1-.19-.03-.35-.33-.34-.56.02-.49.03-.98.04-1.47,0-.39.02-.77.02-1.16,0-.3-.06-.6-.06-.9,0-.36.29-.56.68-.51.09.01.19.02.28.02.33-.03.65-.06.98-.08.06,0,.12.03.18.04-.02.06-.03.14-.07.19-.17.24-.45.4-.53.72-.06.25-.17.48-.21.73-.01.08.12.25.2.25.27.03.54,0,.81,0,.09,0,.19-.03.27-.01.34.06.67.05.99-.13.21-.12.44.01.67.02.34,0,.71.03,1.02-.09.27-.1.5-.37.67-.62.1-.15.05-.41.05-.62,0-.36-.02-.72-.02-1.08,0-.51.07-1.02.04-1.52-.02-.35-.12-.69-.31-1.02-.18-.3-.25-.65-.35-.99-.06-.2-.08-.42-.13-.62-.09-.34.02-.66.08-.98.06-.34.12-.68.14-1.03.01-.22.12-.35.29-.42.19-.08.39-.15.6-.18.53-.07.96-.3,1.3-.7.22-.27.37-.57.42-.92.03-.21.08-.41.08-.61,0-.34-.01-.67-.03-1.01-.02-.38-.06-.77-.09-1.15-.04-.44-.11-.88-.14-1.33-.04-.56-.04-1.12-.06-1.67-.01-.57-.02-1.14-.04-1.7-.01-.37.17-.66.4-.91.04-.05.08-.11.1-.17.11-.41.24-.81.31-1.22.07-.42.09-.87-.13-1.26-.19-.35-.85-.68-1.27-.28-.14.13-.35.22-.43.38-.16.3-.26.64-.36.96-.04.14-.03.3-.04.46-.02.17.07.37-.12.51-.02.01-.01.07,0,.1.1.2.22.39.32.59.04.08.04.19.05.28,0,.16,0,.32,0,.49,0,.06,0,.13-.02.17-.24.43-.16.89-.16,1.35,0,.48-.01.96.02,1.44.04.46.14.92.2,1.37.02.2,0,.41,0,.61,0,.2,0,.4.04.6.07.32.05.63-.04.95-.02.08-.04.16-.04.24.02.33-.16.56-.42.68-.29.13-.62.23-.93.25-.19,0-.44-.02-.6-.25-.22-.32-.55-.5-.92-.65-.14-.06-.25-.2-.36-.32-.19-.21-.36-.42-.54-.64-.23-.27-.32-.6-.36-.94-.05-.44-.1-.89-.11-1.33-.01-.41-.06-.83.19-1.21.02-.03.04-.07.03-.1-.06-.39.17-.69.3-1.03.09-.24.21-.46.29-.7.08-.24.05-.47-.16-.66.12-.2.22-.42.36-.6.16-.21.15-.46.19-.69.04-.23.1-.45.13-.67.02-.16.03-.33.01-.5-.03-.32-.08-.65-.11-.97-.03-.3-.13-.57-.38-.75-.08-.06-.18-.09-.28-.12-.13-.04-.19-.08-.12-.23.06-.14.11-.31.11-.47,0-.33-.25-.52-.47-.72-.18-.17-.39-.32-.54-.52-.09-.12-.08-.31-.11-.46-.06-.24-.09-.48-.3-.66-.2-.17-.44-.21-.64-.1-.51.28-1.08.29-1.62.44-.44.12-.87.28-1.29.46-.21.09-.39.26-.56.42-.21.19-.43.29-.71.31-.18.02-.38.07-.54.17-.3.19-.32.42-.13.81.09.19.18.38.26.57.15.36.35.46.72.39.24-.04.48-.09.72-.09.23,0,.34.13.35.38,0,.16-.14.34-.32.38-.27.06-.54.11-.8.17-.28.06-.31.17-.2.42.13.29.33.51.61.66.28.15.66.09.89-.14.03-.03.05-.05.08-.08.08-.09.17-.21.29-.11.06.05.04.2.03.3-.03.17-.01.32.13.44.18.16.47.07.52-.17.02-.1.04-.22.02-.31-.08-.29-.17-.58-.28-.85-.1-.24-.09-.47.09-.67.09-.1.18-.22.24-.34.12-.26.21-.54.33-.8.04-.1.12-.19.19-.27,0-.01.12.03.12.05.01.07,0,.15-.01.22-.06.21-.13.41-.1.64.03.24.18.39.43.36.33-.04.39.01.42.33.03.37.24.5.61.4.3-.09.38,0,.32.3-.01.06-.03.11-.05.17-.1.36.15.54.39.71.11.08.22.14.33.22.04.03.05.08.07.13-.04.02-.08.05-.13.06-.4.12-.54-.19-.72-.44-.06-.09-.18-.2-.25-.19-.1.01-.22.12-.26.22-.11.25-.21.52-.14.81.05.17.12.29.3.3.14.01.29,0,.43,0,.05,0,.13,0,.14.02.11.19.21.38.29.59.01.03-.16.18-.18.17-.31-.21-.73-.17-.99-.47-.06-.07-.14-.12-.23-.17-.2-.1-.35-.02-.39.2-.02.08-.03.16-.05.24-.08.29.14.52.43.47.15-.03.32-.12.42.05.11.19-.07.31-.18.43-.43.44-.65.27-.85-.14-.06-.12-.11-.27-.31-.23-.19.03-.27.15-.31.33-.02.1-.07.2-.09.31-.04.22,0,.48.2.57.14.06.37,0,.52-.08.18-.09.22-.08.29.11.07.21.21.4.32.59.06.11,0,.32-.15.36-.1.03-.21,0-.31.03-.13.04-.33.09-.37.19-.05.12,0,.35.09.42.32.26.37.57.3.93-.02.08-.09.16-.15.22-.02.01-.12-.05-.17-.1-.04-.05-.07-.11-.1-.17-.12-.23-.27-.39-.57-.35-.17.02-.4-.2-.45-.39-.02-.11-.05-.23-.08-.34-.09-.26-.23-.34-.51-.31-.19.02-.39-.17-.45-.45-.01-.07,0-.15-.03-.22-.08-.2-.28-.24-.42-.07-.13.17-.24.16-.36.02-.25-.29-.48-.59-.74-.87-.2-.22-.16-.5-.18-.75-.02-.18.04-.37.09-.54.1-.35,0-.57-.34-.69-.47-.16-.89-.4-1.28-.73-.31-.26-.69-.44-1.02-.68-.24-.18-.45-.4-.67-.6-.27-.24-.32-.58-.46-.89-.07-.16-.22-.3-.38-.39-.41-.24-.85-.08-1.27-.03-.41.05-.59.28-.68.65-.06.27-.05.3.25.52.25-.1.5-.17.78-.05-.06.02-.12.06-.18.06-.38-.01-.58.22-.72.52-.04.08-.06.22-.02.26.06.06.18.09.28.08.28-.02.38-.01.56.16-.14,0-.24.02-.35.02-.16,0-.53.25-.56.4-.04.21.05.39.23.49.11.06.24.06.37.08.11.02.24,0,.31.05.31.25.68.31,1.04.39.27.06.48.18.64.41.18.26.42.46.65.68.28.27.61.46.9.72.29.26.59.51.98.59.12.03.25,0,.37.01.07,0,.17.04.19.09.02.07,0,.19-.04.23-.14.14-.32.24-.47.37-.29.25-.62.41-.96.57-.24.1-.44.29-.67.43-.2.13-.42.24-.61.39-.2.16-.38.19-.6.06-.2-.12-.4-.23-.61-.32-.57-.23-1.31-.06-1.67.42-.11.15-.15.38-.16.58,0,.18.13.22.3.17.07-.02.16.01.23.02-.05.05-.09.11-.14.16-.23.22-.42.45-.42.79,0,.16.06.21.2.22.11,0,.22.04.33.09-.45.2-.79.78-.68,1.23.02.1.21.22.32.22.36-.01.72-.03,1.08-.12.37-.09.67-.29,1.01-.41.28-.11.54-.29.81-.44.04-.02.06-.06.09-.09.17-.22.33-.41.65-.49.3-.07.57-.3.86-.45.17-.09.34-.2.52-.23.61-.1,1.03-.52,1.51-.85.1-.07.23-.1.35-.15.01.02.03.04.04.06-.06.07-.12.16-.19.22-.17.14-.19.31-.15.5.13.58.43,1.05.88,1.44.08.07.13.16.21.22.4.31.8.63,1.21.93.19.13.41.22.61.33.04.02.08.04.11.07.38.31.39.35.01.63-.26.2-.58.33-.82.55-.39.35-.88.54-1.27.88-.21.19-.36.44-.56.65-.21.21-.44.39-.66.59-.21.2-.42.39-.62.6-.38.39-.46.86-.42,1.39.05.6.31,1.12.51,1.66.11.31.26.6.35.92.03.12-.04.3-.13.41-.04.06-.27.05-.32,0-.34-.38-.76-.37-1.21-.35-.33.01-.66-.07-1-.11-.03,0-.07-.02-.1-.01-.28.02-.57.04-.85.05-.26.02-.53.04-.79.03-.19,0-.39-.06-.57-.13-.08-.03-.17-.16-.17-.25,0-.34.04-.68.06-1.02,0-.18-.02-.37-.02-.55,0-.46-.06-.93.02-1.37.07-.38-.04-.74,0-1.12.04-.34.22-.55.56-.55.35,0,.69.02,1.04.02.19,0,.38-.05.57-.06.39-.02.78-.03,1.17-.03.32,0,.63-.01.95-.02.13,0,.26.02.39.01.24,0,.46-.22.43-.44,0-.09-.09-.21-.17-.24-.35-.14-.72-.18-1.11-.11-.23.04-.5.06-.68-.16-.05-.07-.1-.17-.09-.25.03-.41.07-.82.1-1.23,0-.1-.03-.2-.04-.31,0-.24.02-.49,0-.73-.02-.2-.08-.4-.14-.59-.04-.13-.17-.23-.3-.16-.13.07-.29.2-.31.33-.06.28,0,.6-.07.88-.16.57.12,1.1.1,1.65,0,.04,0,.07.01.11.04.39-.06.5-.45.5-.41,0-.83-.04-1.24-.04-.22,0-.45.09-.67.11-.46.02-.93.02-1.39.03-.2,0-.39.18-.4.36,0,.18.15.34.36.36.11.01.23,0,.33.03.38.11.48.38.31.78-.02.06-.04.12-.04.18,0,.31.09.63.02.92-.1.37-.05.71-.02,1.07,0,.03.02.06.01.09-.19.58.01,1.16-.02,1.74-.01.2-.12.29-.31.3-.22.02-.44.06-.58.26-.13.19-.06.3.13.41.21.12.4.03.6.04.48.01.97.03,1.45.03.28,0,.55,0,.83,0,.2,0,.4.02.6,0,.32-.01.64-.03.96-.05.03,0,.06-.02.09-.02.09.02.17.04.26.07-.03.09-.05.2-.1.27-.17.22-.39.41-.51.66-.08.16-.04.39-.02.59.02.26.23.27.42.28.17,0,.35,0,.52,0,.18,0,.37.01.55,0,.42,0,.84-.03,1.26-.04.21,0,.42.04.63.02.27-.03.53-.1.79-.18.09-.03.18-.13.23-.22.17-.28.37-.52.47-.87.17-.61.08-1.17-.04-1.77-.12-.59-.01-1.18.45-1.61.21-.2.52-.32.8-.44.24-.11.51-.17.76-.26.21-.08.27-.28.33-.47.03-.1.05-.21.08-.38.18.27.34.5.5.73.08.12.16.26.27.34.33.26.67.51,1.01.75.11.08.27.09.34.19.14.18.29.38.35.6.1.36.11.75-.03,1.11-.11.27-.47.3-.63.05-.17-.27-.39-.3-.67-.25-.13.02-.27,0-.41,0-.32,0-.64-.02-.97,0-.39.01-.78.06-1.17.07-.35.01-.52.28-.36.58.16.29.05.6.05.89,0,.23,0,.47.01.7,0,.1,0,.2-.01.3-.01.25-.02.5-.03.75-.01.34-.03.67-.03,1.01,0,.13.04.26.08.39.1.33-.07.63-.41.66-.17.01-.35-.02-.52-.02-.37.02-.74.02-1.1.09-.11.02-.22.23-.25.37-.04.19.12.3.28.36.37.12.75.12,1.14.03.62-.14,1.25-.08,1.88-.06.2,0,.41-.06.6-.02.27.06.5-.03.77-.1,0,.07,0,.12-.01.16-.15.4-.29.8-.45,1.2-.19.48-.37.96-.59,1.43-.1.21-.25.4-.39.59-.03.05-.12.06-.18.08-.02-.06-.06-.12-.06-.18.01-.36.02-.72.06-1.08.02-.19.08-.37.14-.55.19-.5-.18-1.04-.71-1.07-.33-.02-.65.5-.53.8.06.16.1.33.27.46.09.06.11.27.1.41-.02.46-.03.93-.1,1.38-.06.36-.22.69-.62.84-.18.06-.33.21-.51.29-.2.09-.42.13-.63.2-.05.02-.14.04-.15.07-.03.18-.07.37-.04.54.04.19.44.35.6.28.24-.11.48-.23.72-.35.29-.13.57-.27.87-.39.14-.06.31-.06.46-.09.09-.02.19-.04.28-.1.17.05.35.08.52.15.2.08.38.2.57.3.1.05.21.1.3.16.05.03.08.08.13.09.07.02.16.05.22.02.13-.08.27-.17.36-.29.24-.3.02-.89-.46-.97-.13-.02-.25-.08-.38-.09-.16-.01-.33,0-.49,0-.08,0-.16-.02-.26-.04.2-.24.43-.13.64-.16.04,0,.08.02.13.02.43,0,.86,0,1.29-.02.57-.02,1.13-.07,1.7-.1.18-.01.35-.02.53-.03.05,0,.1-.03.2-.05-.01.07,0,.16-.04.18-.4.27-.8.53-1.21.78-.49.3-.97.61-1.46.9-.66.4-1.31.79-1.98,1.18-.24.14-.5.24-.73.37-.24.14-.44.01-.63-.09-.3-.15-.58-.34-.87-.51-.38-.22-.77-.44-1.15-.65-.1-.06-.22-.08-.32-.14-.35-.19-.69-.39-1.04-.6-.05-.03-.07-.09-.1-.14-.04-.04-.07-.1-.12-.11-.54-.12-1-.43-1.49-.68-.44-.23-.88-.47-1.32-.71,0-.02,0-.04.01-.07.11,0,.22-.02.33-.02.12,0,.25.02.37.04.05,0,.08.05.14.09.13-.02.29-.04.46-.06.48-.07.96-.14,1.45-.2.17-.02.36,0,.53.04.48.11.95.23,1.42.36.07.02.14.09.19.15.16.22.58.32.77.18.18-.14.17-.49.03-.67-.19-.23-.47-.27-.69-.42-.12-.08-.25-.21-.3-.34-.23-.65-.42-1.32-.64-1.97-.18-.51-.56-.87-.94-1.24-.3-.29-.69-.42-1.04-.64-.19-.12-.4-.22-.49-.47-.07-.19-.51-.25-.65-.1-.04.04-.04.14-.01.2.11.28.32.48.56.66.3.22.61.44.84.72.19.23.29.53.39.82.19.55.34,1.1.51,1.66.02.05,0,.11,0,.18-.41,0-.82-.05-1.22,0-.45.05-.9.17-1.33.31-.33.1-.62.01-.92-.08-.09-.03-.18-.08-.32-.14.1-.04.15-.07.21-.09.35-.1.55-.58.52-.85,0-.05-.04-.12-.08-.15-.24-.14-.48-.29-.78-.24-.21.04-.38.15-.37.37,0,.2.08.39.14.59.02.07.07.12.12.19.07,0,.16.02.24.03,0,.02,0,.04,0,.06-.05,0-.1.01-.15.01-.1,0-.2,0-.3,0,.04.12.06.25.12.37.04.09.11.17.13.28-1.17-.59-2.31-1.2-3.42-1.87.01-.04.02-.07.03-.11.09,0,.2-.01.27.03.26.18.53.1.8.06.34-.04.68-.12,1.02-.16.42-.06.84-.1,1.26-.14.14-.02.28-.03.42-.02.31.03.31.04.39-.27.04.02.07.04.11.05.34.1.41.04.43-.31.02-.37-.11-.69-.23-1.02-.16-.43-.25-.89-.36-1.34-.11-.49-.4-.84-.82-1.11-.33-.21-.64-.46-.98-.67-.09-.06-.22-.08-.33-.07-.17.01-.33.26-.14.41.12.09.24.19.38.25.35.14.68.31.88.64.08.13.12.3.15.45.08.53.11,1.07.24,1.59.08.32.3.6.5.95-.18-.08-.33-.13-.46-.21-.54-.35-1.1-.39-1.7-.2-.26.09-.54.15-.79.25-.6.24-1.17.18-1.73-.12-.09-.05-.18-.1-.27-.14-.05-.02-.11-.02-.16-.02,0,.06-.04.14-.01.18.1.16.21.3.32.46.03.04.04.1.07.14-.02.01-.03.03-.05.04-.4-.23-.82-.43-1.2-.69-.36-.25-.72-.52-1.02-.83-.35-.36-.64-.77-.93-1.18-.18-.24-.32-.51-.48-.76-.28-.47-.36-.99-.46-1.51-.15-.86-.02-1.71-.05-2.57-.02-.79.01-1.59.03-2.38.04.38.06.77.11,1.15.06.42.19.82.47,1.15.16.19.34.36.52.54.27.27.55.54.82.8.06.06.2.15.21.13.09-.09.22-.21.21-.31-.05-.4-.12-.79-.44-1.11-.35-.36-.67-.76-.95-1.17-.15-.22-.23-.51-.11-.84.22.11.44.24.65.07.12-.1.21-.27.27-.42.08-.22-.02-.65-.24-.75-.3-.13-.55-.05-.85.31-.19-.41.06-.94-.42-1.31-.04.11-.09.2-.1.29-.03.35-.06.71-.08,1.06,0,.07-.02.14-.07.21-.01-.04-.03-.07-.03-.1,0-1.04-.02-2.08-.02-3.12,0-1.12,0-2.24,0-3.35,0-.77-.01-1.53-.02-2.3,0-.48-.01-.97-.02-1.45-.01-.87-.03-1.73-.04-2.6,0-.69-.02-1.38-.01-2.06,0-.78.02-1.56.02-2.34,0-1.02,0-2.04,0-3.07,0-.28.02-.55.03-.82.01-.19.2-.31.42-.31.31,0,.63-.01.94-.03.62-.03,1.25-.08,1.87-.11.31-.01.62-.02.92,0,.47.02.95.08,1.42.11.25.01.5,0,.76-.02.24-.02.39.12.47.33.14.37-.03.72,0,1.08,0,.04-.07.12-.12.14-.13.05-.27.09-.4.12-.15.03-.28.11-.26.25.01.11.13.25.24.28.22.07.46.11.7.11.25,0,.51-.07.76-.08.17-.01.34.02.51.02.25,0,.5,0,.75,0,.27,0,.4.12.4.45,0,.44,0,.88,0,1.32,0,.27.19.36.4.39.21.02.43.02.64,0,.14-.02.25,0,.31.11.12.24.27.47.21.77-.05.28-.12.58.04.85.04.07.13.15.21.16.06,0,.16-.08.19-.15.13-.28.11-.58.02-.87-.1-.31-.01-.58.1-.85.02-.05.07-.1.1-.15.13-.21.07-.38-.18-.39-.29-.02-.58,0-.87.04-.2.02-.28-.05-.4-.22-.24-.38-.11-.76-.11-1.14,0-.2.27-.36.5-.36.43,0,.85.02,1.28.02.1,0,.22-.01.3-.06.23-.15.46-.05.7-.04.27,0,.55-.03.81-.08.18-.04.2-.26.04-.36-.28-.19-.38-.46-.37-.78,0-.22,0-.45,0-.67.01-.27.17-.38.42-.39.45,0,.89-.03,1.34-.05.05,0,.1-.02.15-.01.62.12,1.24.03,1.86,0,.15,0,.31,0,.46.01.06.01.12.09.13.1.07-.04.13-.09.19-.1.19-.02.38-.03.57-.03.19,0,.39.01.56.08.1.04.2.18.23.29.07.26.13.53.13.8,0,.15-.14.3-.21.46-.05.09-.1.18-.15.27-.11.2-.03.38.19.4.39.03.79.06,1.18.08.12,0,.21.02.25.16.07.24.17.47.21.72.05.33-.15.64-.46.76-.14.05-.22.14-.17.26.05.12.15.23.26.29.1.06.24.04.37.04.31.02.63.04.94.04.32,0,.64-.04.96-.04.75,0,1.49,0,2.24,0,.18,0,.36,0,.53-.04.17-.03.26-.15.24-.34-.03-.18-.11-.34-.31-.34-.29,0-.58.03-.88.03-.34,0-.68-.03-1.01-.03-.53,0-1.06.01-1.59,0-.36,0-.61-.16-.58-.56.01-.17,0-.34,0-.51.01-.28.2-.51.48-.55.17-.02.35,0,.53,0,.22,0,.44.02.66.02.7,0,1.41.02,2.11,0,.21,0,.42-.1.62-.15.06-.25,0-.42-.22-.52-.23-.11-.35-.27-.38-.53-.02-.18-.09-.35-.12-.53-.08-.43.26-.64.67-.59.43.05.86.05,1.3.07.24,0,.47,0,.71,0,.29-.02.59-.05.88-.07.05,0,.1-.02.15-.01.63.12,1.27,0,1.9.02.2,0,.41.04.61.07.17.03.25.13.25.31,0,.58,0,1.17.03,1.75.02.64.06,1.29.09,1.93,0,.24-.02.48-.02.71,0,.54-.03,1.08-.02,1.62,0,1.22.04,2.45.04,3.67,0,1.06,0,2.12,0,3.19,0,.95.04,1.89.05,2.84,0,.68-.02,1.36-.02,2.05,0,.83.02,1.66.02,2.48,0,1.26-.01,2.52-.03,3.78ZM24.51,29.3c.08-.11.14-.19.21-.27.06.07.18.17.16.2-.04.09-.14.15-.22.22-.04-.05-.08-.09-.14-.16ZM19.5,6.79c-.17,0-.33-.29-.32-.5.2.07.39.13.57.21.03.01.07.12.06.13-.1.07-.2.17-.3.16ZM18.28,5.24c.13.13.3.23.5.38.02.09-.11.14-.21.1-.26-.11-.51-.24-.75-.39-.06-.04-.08-.16-.14-.29.25.05.44.04.59.2ZM18.2,4.33c.11-.12.34-.1.47.03-.12.07-.21.15-.31.19-.05.02-.13-.03-.18-.07-.02-.02-.01-.12.02-.15ZM15.19,3.98c-.03.08-.12.14-.2.18-.03.01-.15-.08-.14-.12.01-.08.07-.16.15-.3.1.12.21.2.19.24ZM18.18,12.15s.02-.11.02-.16c.04.02.09.04.13.05.37.05.25.38.33.59.02.07-.09.18-.14.27-.09-.07-.19-.12-.26-.2-.03-.04-.01-.13-.02-.19.01,0,.02,0,.03-.01-.04-.11-.08-.23-.11-.34ZM18.27,11.78c.02-.15.04-.29.07-.44.01-.04.07-.11.1-.11.04,0,.08.06.12.1-.04.08-.08.14-.1.2-.02.07,0,.15-.01.22,0,.05,0,.11-.02.15-.01.02-.1.03-.11.01-.03-.03-.05-.09-.05-.13ZM1.81,22.68c.04-.06.1-.13.17-.15.03-.01.13.09.13.12,0,.06-.08.12-.16.23-.08-.11-.15-.18-.14-.2Z"/>
      <path class="cls-1" d="M31.39,28.51h0,0c.05-.15.08-.32.16-.46.2-.38.26-.79.27-1.21,0-.17-.02-.33-.05-.5-.02-.08-.08-.14-.13-.21-.06.06-.14.11-.17.17-.15.42-.29.85-.42,1.27-.1.35-.34.53-.68.61-.82.19-1.62.47-2.4.78-.57.23-1.03.63-1.5,1.01-.04.03-.05.17-.02.21.03.04.17.07.21.04.32-.26.7-.23,1.07-.27.16-.02.34,0,.49-.04.27-.07.52-.2.79-.26.61-.16,1.24-.24,1.79-.59.23-.15.5-.27.61-.56,0,0,0,0,0,0h0s0,0,0,0Z"/>
      <path class="cls-1" d="M31.85,20.8c0-.07-.11-.18-.12-.17-.09.04-.17.1-.24.17-.04.04-.05.11-.06.17-.03.49-.11.98-.04,1.48.06.36.02.72-.33.96-.18.13-.33.3-.51.41-.71.44-1.06,1.11-1.25,1.88-.03.1-.05.21-.07.31-.09-.02-.15-.04-.19-.04,0-.17,0-.33,0-.49,0-.56-.32-1-.62-1.44-.24-.34-.51-.67-.74-1.02-.13-.19-.27-.4-.31-.62-.07-.45-.06-.91-.09-1.37,0-.13,0-.28-.18-.3-.18-.02-.26.09-.29.24-.12.58-.25,1.15-.23,1.75.02.52.23.97.51,1.39.25.37.54.71.8,1.07.14.2.26.42.42.68-.11-.03-.18-.03-.23-.05-.33-.17-.61-.02-.66.36,0,.07-.06.14-.09.21.06.08.14.15.19.23.14.19.39.3.58.25.2-.05.37-.28.39-.48.11,0,.22-.01.38-.02-.17.34-.32.66-.48.98-.13-.16-.24-.29-.35-.41-.03,0-.05.02-.08.02-.21.61-.39,1.22-.48,1.88.11-.01.2-.04.26-.09.1-.08.17-.21.28-.27.28-.13.58-.24.87-.35.09-.04.19-.06.28-.12.19-.12.37-.27.57-.37.16-.08.13-.21.1-.31-.02-.04-.18-.05-.27-.04-.08,0-.15.07-.22.11-.25.15-.28.15-.47-.08.11-.25.23-.49.34-.74.08,0,.17.03.21,0,.2-.14.39-.28.57-.44.29-.27.58-.56.86-.84.09-.09.17-.18.24-.29.18-.28.37-.55.5-.84.14-.33.28-.69.31-1.05.05-.5,0-1.01-.01-1.51,0-.26-.04-.51-.08-.76Z"/>
      <path class="cls-1" d="M26.88,19.07c.3.55.67,1.07,1.04,1.58.26.36.56.68.86,1.03.11-.06.2-.11.3-.16.02.34.04.68.04,1.02.01.34-.05.4-.37.39-.19,0-.23.06-.16.25.1.28.2.55.28.83.07.23.08.47.16.69.07.2.19.21.3.04.09-.14.15-.3.21-.46.11-.32.25-.62.54-.81.16-.11.21-.27.12-.47-.2.01-.4.03-.62.04-.05-.45-.09-.86-.13-1.28-.02-.2-.08-.38-.31-.43.03-.04.07-.07.07-.09,0-.4-.04-.79-.27-1.14-.14-.21-.29-.4-.44-.61-.23-.33-.46-.66-.69-.99-.26-.37-.51-.73-.48-1.22.02-.31-.05-.63-.08-.94-.02-.15-.12-.26-.24-.24-.1.02-.22.14-.25.24-.05.16-.05.33-.06.5,0,.24.05.5,0,.73-.12.52-.08,1.04.17,1.49Z"/>
      <path class="cls-1" d="M2.24,16.47c.12.06.22.17.3.28.12.16.21.34.31.51.06.1.15.19.19.29.05.14.07.3.09.45.02.23.03.47.04.73-.15-.07-.25-.12-.35-.17-.03.01-.05.03-.08.05.2.69.4,1.38.59,2.07.02,0,.05,0,.07,0,.06-.18.1-.37.17-.55.11-.29.24-.56.36-.85.11-.26.22-.51.32-.77.02-.04,0-.11-.03-.16-.01-.02-.09,0-.13.02-.11.05-.22.11-.35.18,0-.12,0-.2-.01-.28-.03-.31-.05-.62-.1-.92-.01-.08-.1-.18-.17-.2-.26-.07-.28-.28-.28-.49-.02-.52-.23-.95-.58-1.32-.25-.26-.52-.51-.76-.78-.11-.12-.24-.26-.26-.41-.05-.3-.02-.61-.05-.91-.03-.39-.07-.78-.12-1.17-.02-.16-.09-.37-.27-.34-.11.02-.19.23-.29.36,0,.01,0,.03,0,.04,0,.75,0,1.5-.02,2.26,0,.52.21.94.55,1.32.27.29.53.57.89.76Z"/>
      <path class="cls-1" d="M26.17,26.21c.12-.09.19-.18.15-.3-.03-.09-.12-.19-.21-.24-.12-.06-.27-.06-.41-.08-.19-.03-.29-.17-.27-.35.03-.34.05-.68.07-1.01.02-.38.04-.76.06-1.14,0-.11.01-.23.01-.34,0-.32,0-.65,0-.97,0-.17-.01-.35-.01-.52,0-.18-.03-.37,0-.55.04-.21.26-.22.42-.3.13-.06.29-.15.23-.35-.05-.16-.26-.26-.44-.25-.33.03-.66.05-.99.06-.18,0-.36-.05-.5-.07-.4.03-.75.05-1.09.1-.09.01-.2.11-.25.19-.03.06,0,.2.04.24.15.11.29.21.51.19.33-.04.67-.03,1.01-.03.19,0,.36.22.35.37-.02.41-.02.82-.01,1.22,0,.37.03.73.03,1.1,0,.36-.03.72-.03,1.08,0,.34.02.68,0,1.02,0,.17-.09.28-.28.3-.31.03-.61.06-.91.11-.17.03-.25.16-.24.32.01.16.12.26.28.26.53,0,1.06-.01,1.59-.02.12,0,.25-.03.36.01.19.06.34.07.52-.06Z"/>
      <path class="cls-1" d="M3.01,14c-.21.04-.29.2-.19.38.21.4.4.8.42,1.27,0,.09.15.17.23.26.05-.08.11-.16.14-.25.15-.42.18-.88.44-1.27.08-.12.05-.25-.1-.29-.27-.07-.28-.27-.27-.49.02-.27.05-.54.07-.81.02-.34-.14-.45-.42-.37-.05-.28-.1-.54-.14-.8-.08-.51-.39-.9-.74-1.23-.47-.45-.81-.96-.92-1.6-.05-.27-.04-.54-.05-.81,0-.21-.18-.46-.41-.54-.06.39-.11.78-.17,1.16-.1.63.03,1.24.28,1.8.19.43.51.81.8,1.19.24.32.54.59.78.9.2.26.2.28.49.14,0,.17,0,.34,0,.51,0,.17,0,.34,0,.51.01.18-.04.29-.24.33Z"/>
      <path class="cls-1" d="M29.22,7.76c-.01.17.03.25.21.18,0-.1-.01-.2.03-.26.2-.3.24-.63.29-.97.06-.38.18-.76.26-1.14.04-.18.06-.36.09-.55.05-.32.16-.64.14-.96-.05-.68-.15-1.35-.25-2.03-.05-.35-.15-.68-.53-.84-.12-.05-.18-.05-.21.08-.1.43-.25.85-.31,1.28-.09.6-.11,1.21-.16,1.81-.04.53,0,1.05.13,1.56.16.6.37,1.18.31,1.82Z"/>
      <path class="cls-1" d="M22.88,14.61c-.05,0-.1,0-.16,0-.45-.03-.66-.29-.59-.73,0-.06,0-.12,0-.18.06-.46-.03-.92.06-1.38.04-.2.05-.41.05-.62,0-.39-.04-.77-.03-1.16,0-.37-.06-.52.48-.54.24,0,.41-.22.31-.39-.07-.11-.24-.21-.37-.22-.43-.02-.87,0-1.3.02-.09,0-.19.02-.25.07-.09.09-.18.2-.21.32-.03.15.1.2.24.23.1.03.19.11.27.19.3.31.16.7.17,1.05.01.39-.05.78-.07,1.18,0,.06.02.13.03.2.02.12.04.23.05.35.03.34.03.68.08,1.01.07.42-.14.65-.56.58-.1-.02-.21-.02-.31-.03,0-.02-.01-.03-.02-.05-.17.07-.36.11-.51.2-.13.08-.15.24-.02.34.12.08.28.15.42.16.45,0,.9-.02,1.35-.04.29,0,.59-.02.88-.04.14,0,.3-.06.3-.23,0-.16-.12-.29-.31-.3Z"/>
      <path class="cls-1" d="M5.64,24.44c.27-.68.36-1.41.41-2.14.03-.48-.02-.97-.05-1.45,0-.06-.07-.16-.09-.16-.08,0-.2.04-.23.09-.09.2-.16.41-.2.62-.07.39-.09.78-.15,1.16-.02.11-.09.21-.13.31-.02,0-.03-.02-.05-.03,0-.17.02-.34,0-.51-.03-.36-.47-.72-.81-.4-.15.15-.29.35-.34.56-.1.39.14.69.55.68.18,0,.36-.1.55-.15-.08.16-.18.35-.29.54-.27.46-.67.82-.82,1.35-.11.4-.49.73-.27,1.2.04.08.09.15.13.23.09-.06.2-.09.27-.17.1-.1.16-.24.26-.35.29-.3.59-.57.87-.87.15-.16.3-.34.38-.54ZM4.8,22.51c-.04.12-.16.21-.25.32-.08-.11-.15-.21-.25-.35.1-.1.15-.21.23-.24.12-.04.31.15.27.27Z"/>
      <path class="cls-1" d="M5.59,7.47c-.05.45-.1.87-.15,1.29-.09-.06-.13-.15-.19-.2-.12-.09-.26-.21-.4-.21-.16,0-.37-.04-.49.16-.14.24-.06.64.16.9.14.15.53.2.8.04.02.01.04.03.06.04-.19.25-.39.5-.58.76-.19.24-.35.52-.57.73-.21.19-.3.4-.34.65-.04.28-.08.55-.1.83,0,.06.04.16.09.18.04.02.15-.01.19-.06.11-.13.17-.3.29-.42.24-.24.54-.44.76-.7.31-.37.57-.79.84-1.19.08-.11.15-.23.19-.36.11-.42.17-.85.1-1.29-.04-.27-.11-.55-.2-.81-.06-.19-.23-.28-.46-.34Z"/>
      <path class="cls-1" d="M27.38,6.59c.27.38.62.71.94,1.06.11.12.23.22.39.37-.24,0-.25.07-.12.19.06.05.08.14.14.19.07.08.16.14.24.21.02-.01.04-.03.07-.04,0-.11-.02-.22-.02-.33.07-.06.13-.15.13-.23,0-.24-.04-.47-.06-.7-.05-.53-.23-1.01-.56-1.42-.24-.29-.5-.56-.74-.85-.1-.12-.21-.26-.22-.39-.03-.4,0-.8,0-1.19,0-.21,0-.44-.07-.62-.05-.12-.24-.23-.37-.24-.18-.02-.28.18-.28.4.02.75.03,1.5.06,2.24.03.5.2.97.48,1.36Z"/>
      <path class="cls-1" d="M2.62,7.87c.08.08.19.12.26,0,.09-.15.17-.32.2-.49.03-.13.01-.28-.02-.42-.08-.33-.12-.69-.28-.97-.28-.46-.64-.87-.96-1.31-.21-.28-.38-.57-.34-.95.04-.33,0-.67-.36-.95-.05.12-.1.21-.12.31-.04.25-.04.51-.11.74-.34,1.02-.12,1.94.52,2.75.36.46.81.85,1.22,1.27Z"/>
      <path class="cls-1" d="M3.1,5.59c.04.43.12.86.18,1.29.02.14.04.28.05.42.03,0,.05.01.08.01.06-.08.16-.14.19-.23.15-.4.3-.8.42-1.21.17-.61.22-1.24.18-1.88-.04-.72-.11-1.45-.2-2.17-.02-.14-.21-.29-.35-.35-.07-.03-.28.09-.32.18-.14.33-.29.67-.32,1.02-.05.51-.01,1.04,0,1.55.02.45.04.9.09,1.35Z"/>
      <path class="cls-1" d="M5.2,29.55c-.36-.16-.74-.27-1.11-.38-.52-.15-1.04-.3-1.57-.42-.54-.12-.72-.52-.86-.98-.11-.35-.22-.71-.35-1.05-.04-.1-.18-.15-.28-.22-.03.1-.07.2-.08.3-.02.53.09,1.04.23,1.55.17.62.54,1.06,1.09,1.39.21.13.44.15.67.19.37.07.73.19,1.1.26.45.08.91.13,1.36.19.18.02.36.05.59.08-.18-.45-.42-.75-.79-.92Z"/>
      <path class="cls-1" d="M3.69,7.75c.05.08.16.17.24.16.19-.02.4-.07.56-.16.19-.11.35-.29.52-.43.42-.33.83-.67.88-1.26,0,0,0-.01,0-.02.27-.46.27-.99.32-1.5.02-.28.01-.56.01-.9.08-.34-.15-.65-.3-.99-.02-.05-.1-.12-.13-.11-.06.01-.12.07-.15.13-.21.41-.24.85-.22,1.3.02.38.03.75-.23,1.09-.24.31-.44.67-.59,1.03-.22.53-.46,1.04-.88,1.45-.04.04-.06.17-.03.22Z"/>
      <path class="cls-1" d="M6.02,17.47c-.02-.29-.01-.58-.04-.87,0-.07-.12-.17-.18-.17-.07,0-.17.08-.21.15-.05.09-.05.2-.06.3-.05.51-.08,1.04-.36,1.49-.25.39-.56.74-.83,1.12-.24.34-.48.69-.64,1.07-.15.33-.14.7-.05,1.06.02.1.07.2.1.29.1-.07.21-.12.28-.2.12-.15.2-.33.32-.47.35-.42.73-.83,1.08-1.26.46-.56.55-1.24.63-1.9-.02-.22-.03-.41-.04-.6Z"/>
      <path class="cls-1" d="M30.16,6.39c-.09.27-.18.55-.25.83-.07.24-.12.49-.18.71.02.15.02.28.07.37.04.06.15.08.23.12.03-.06.07-.12.09-.19.02-.08.01-.17.05-.24.19-.31.38-.64.6-.93.42-.56.82-1.11,1.07-1.79.18-.47.19-.94.2-1.41,0-.44-.2-.88-.03-1.34.04-.12-.07-.19-.19-.13-.07.04-.16.07-.2.14-.22.33-.43.68-.4,1.1.02.2.03.4.04.6.01.25-.03.49-.21.69-.39.44-.71.92-.9,1.47Z"/>
      <path class="cls-1" d="M31.71,16.07c-.21.05-.27.21-.27.4,0,.49,0,.98-.02,1.47,0,.09-.01.2-.06.27-.18.26-.39.49-.57.74-.31.44-.61.89-.9,1.33-.32.48-.25,1.02-.2,1.55,0,.05.05.09.12.21.16-.22.29-.4.42-.58.24-.34.49-.67.72-1.02.2-.31.37-.64.57-.95.24-.4.35-.84.44-1.29.13-.66-.02-1.33-.02-1.99,0-.16-.1-.19-.22-.16Z"/>
      <path class="cls-1" d="M26.83,25.03c-.04.09-.11.18-.13.28-.02.15-.02.31-.02.47,0,.39-.15.73-.35,1.05-.25.4-.49.81-.48,1.31.02.57.06,1.13-.06,1.7-.05.22.11.33.28.23.15-.09.31-.19.4-.32.19-.28.36-.59.51-.89.07-.15.11-.32.13-.48.05-.29.07-.58.1-.87.04-.38.08-.76.12-1.14-.09-.38-.16-.76-.27-1.13-.02-.08-.16-.13-.24-.2Z"/>
      <polygon class="cls-1" points="27.34 26.35 27.34 26.36 27.35 26.35 27.34 26.35 27.34 26.35"/>
      <path class="cls-1" d="M26.86,9.32c-.08.6.07,1.15.46,1.59.38.44.82.83,1.23,1.24.11.11.21.23.32.34.07.07.15.13.22.2.03-.01.05-.02.08-.03,0-.1.02-.19,0-.28-.02-.12-.09-.22-.11-.34-.14-.87-.64-1.52-1.22-2.14-.29-.31-.52-.65-.45-1.12.05-.34.04-.69.06-1.04.01-.24-.1-.44-.26-.47-.16-.03-.37.14-.4.37-.02.19-.03.4.02.59.1.37.1.73.05,1.1Z"/>
      <path class="cls-1" d="M31.93,11.83c-.06.06-.12.11-.17.18-.2.27-.19.6-.24.91-.05.28-.11.58-.27.8-.47.64-1.01,1.23-1.47,1.88-.29.41-.34.89-.12,1.37.03.06.14.14.19.13.06-.01.12-.11.16-.18.04-.08.05-.18.1-.25.13-.19.29-.36.43-.54.34-.43.69-.86,1-1.31.19-.27.35-.59.43-.9.09-.37.08-.77.08-1.16,0-.3-.04-.6-.06-.9-.02-.01-.05-.02-.07-.04Z"/>
      <path class="cls-1" d="M6.05,26.37c-.12-.37-.37-.66-.57-.98-.01-.02-.05-.03-.07-.04-.18.1-.24.25-.21.44.02.14.06.27.1.41.08.25.2.5.24.76.06.41.07.83.08,1.24,0,.48.11.94.29,1.38.11.26.43.44.7.4.05,0,.12-.04.14-.08.06-.18.15-.37.14-.55-.04-.56-.11-1.11-.2-1.67-.03-.17-.14-.32-.22-.48-.14-.28-.31-.54-.41-.82Z"/>
      <path class="cls-1" d="M2.86,21.68c.08-.03.15-.17.15-.26,0-.29-.01-.58-.08-.86-.1-.41-.26-.79-.59-1.09-.25-.22-.49-.48-.66-.76-.28-.47-.34-1.01-.36-1.56,0-.23.09-.5-.27-.68-.06.12-.16.23-.17.35-.08.89,0,1.76.27,2.62.13.42.41.74.64,1.09.07.1.14.19.23.28.2.23.43.45.61.7.07.1.12.21.23.16Z"/>
      <path class="cls-1" d="M5.93,12.04c-.01-.06-.09-.14-.13-.14-.07,0-.17.04-.2.09-.05.08-.07.19-.07.29.03.57.1,1.15-.26,1.65-.24.33-.5.64-.75.96-.48.63-.73,1.34-.65,2.15.01.13.08.18.21.1.2-.12.33-.3.4-.5.16-.49.48-.87.8-1.25.51-.61.81-1.3.88-2.12-.08-.41-.15-.82-.23-1.23Z"/>
      <path class="cls-1" d="M32.02,7.42c0-.09-.11-.17-.17-.25-.05.06-.11.12-.16.19-.04.05-.07.11-.09.17-.06.14-.16.28-.16.43,0,.37.04.73.06,1.1,0,.11-.01.25-.08.33-.39.54-.79,1.08-1.19,1.61-.31.42-.47.9-.45,1.43,0,.07.08.17.14.19.05.02.14-.06.19-.12.14-.16.26-.32.39-.49.14-.19.29-.37.42-.56.25-.37.49-.74.73-1.11.21-.32.39-.66.4-1.06,0-.34,0-.68.01-1.02,0,0,0,0-.01,0,0-.28,0-.57-.04-.85Z"/>
      <path class="cls-1" d="M27.38,12c0-.06-.08-.14-.15-.16-.16-.05-.19.07-.2.18-.05.58-.12,1.16-.13,1.75,0,.34.03.7.11,1.03.11.43.44.72.73,1.04.2.22.43.43.65.63.13.12.29.22.49.37.03-.47.07-.88-.15-1.23-.26-.42-.58-.81-.87-1.22-.31-.44-.54-.9-.49-1.46.03-.31,0-.62,0-.93Z"/>
      <path class="cls-1" d="M13.97,8.75c.3.15.6.3.9.46.13.07.25.17.38.22.17.06.24.15.29.32.05.15.16.36.29.4.39.11.81-.11.98-.46.05-.09.04-.18-.1-.19-.19-.01-.32-.11-.41-.29-.09-.17-.17-.37-.43-.35-.05,0-.11-.07-.15-.12-.11-.12-.21-.25-.32-.37-.11-.11-.21-.2-.39-.09-.06.04-.2.01-.27-.03-.19-.1-.37-.23-.59-.37-.11.1-.24.16-.27.25-.07.25-.1.53.09.62Z"/>
      <path class="cls-1" d="M3.49,25.08c.11.03.19.03.15-.13-.03-.12-.05-.26,0-.36.16-.36.35-.71.48-1.09.04-.13.12-.26-.03-.35-.15-.09-.23.05-.33.15-.08.08-.17.13-.26.2-.03-.02-.07-.04-.1-.06,0-.38.01-.77.01-1.15,0-.13-.02-.27-.04-.39,0-.04-.08-.1-.12-.09-.04,0-.1.06-.12.1-.02.05-.02.12-.03.18-.04.46-.08.92-.13,1.42-.09-.04-.16-.09-.23-.1-.08-.02-.18-.04-.23,0-.04.03-.04.14-.04.22,0,.07,0,.14,0,.21,0,.06.03.12.07.17.06.08.16.13.19.22.08.25.13.51.2.76.07.25.14.5.21.74.38-.11.26-.42.36-.62Z"/>
      <path class="cls-1" d="M3.31,28.18c0,.05.08.13.14.17.4.24.79.49,1.2.72.18.1.35.3.62.17-.01-.06-.02-.12-.04-.17-.14-.37-.25-.74-.19-1.14.01-.08,0-.16-.02-.24-.04-.18-.18-.24-.35-.14-.05.03-.1.06-.15.09q-.33.17-.49-.16c-.03-.07-.07-.13-.11-.19-.17-.31-.34-.62-.51-.94-.2.03-.31.15-.27.35.04.22.1.44.18.65.07.19.18.38.28.58-.06.03-.12.04-.16.08-.06.06-.13.13-.14.2Z"/>
      <path class="cls-1" d="M6,29.9s-.05.05-.08.07c.04.12.04.28.13.36.15.15.34.26.51.38.15.1.29.2.44.31,0,.02,0,.05-.02.07-.22.04-.45.07-.67.13-.07.02-.18.12-.18.17.02.08.1.16.18.21.05.03.13.02.2.02.42,0,.83-.03,1.25-.03.1,0,.19.07.29.07.13,0,.27-.03.4-.05-.03-.09-.04-.19-.08-.28-.11-.28-.23-.57-.36-.85-.04-.09-.1-.16-.15-.24-.03.01-.06.02-.09.03-.03.09-.05.18-.08.27-.05.17-.15.21-.3.12-.3-.18-.6-.37-.9-.54-.15-.09-.32-.15-.48-.22Z"/>
      <path class="cls-1" d="M3.13,9.89c-.07-.02-.19-.03-.22,0-.04.05-.04.16-.02.23.09.25.19.49.29.73.06.15.12.3.19.44.02.04.1.07.15.08.23.03.3-.15.37-.31.12-.27.26-.53.37-.8.04-.09.06-.24.01-.3-.06-.07-.2-.06-.3-.1-.07-.02-.17-.05-.18-.1-.02-.09,0-.19.02-.28.03-.11.07-.23.12-.38-.06-.17-.1-.38-.2-.56-.08-.16-.26-.12-.32.02-.08.18-.11.38-.12.57-.01.2.03.41.04.61,0,.15-.07.19-.21.15Z"/>
      <path class="cls-1" d="M15.31,10.49s-.04-.03-.06-.02c-.21.03-.28-.08-.36-.26-.06-.14-.24-.26-.4-.31-.14-.05-.29.06-.35.21-.06.15-.13.3-.15.46-.05.36.18.51.52.37.08-.04.16-.08.25-.09.05,0,.15.03.16.06.02.16.12.33-.07.45.08.09.13.2.21.23.15.06.33.14.48.1.29-.06.58-.55.57-.92-.32.05-.59-.03-.81-.29Z"/>
      <path class="cls-1" d="M7.43,10.18c.39-.12.6.11.59.47-.02.51-.06,1.02-.06,1.52,0,.12.11.24.16.36.11-.06.24-.09.32-.18.22-.24.23-.51.14-.82-.07-.22-.04-.46-.07-.69-.02-.15-.04-.29-.06-.44,0,0,.02,0,.03,0,0-.08.03-.18,0-.24-.06-.12-.13-.31-.23-.33-.3-.08-.6-.1-.91-.12-.19-.01-.34.15-.31.29.02.17.19.25.4.19Z"/>
      <path class="cls-1" d="M11.29,32.48c-.02.12,0,.23,0,.4-.19-.07-.34-.15-.5-.19-.09-.02-.25-.02-.28.03-.07.11,0,.22.12.29.17.1.17.17.03.3-.12.1-.12.25,0,.3.08.03.17.05.25.07.32.05.64.1.96.14.18.02.37.03.59.05-.03-.12-.02-.22-.06-.29-.16-.27-.33-.55-.51-.81-.1-.14-.23-.27-.36-.39-.12-.11-.21-.05-.23.1Z"/>
      <path class="cls-1" d="M29.85,13.94c-.19,0-.24-.11-.27-.26-.03-.18-.03-.37-.07-.55-.02-.1-.08-.2-.15-.27-.03-.04-.13-.06-.18-.03-.04.02-.06.11-.06.16.02.24.04.49.07.74,0,.24-.03.26-.28.2-.07-.02-.15,0-.23,0,0,.09,0,.17.02.25.03.09.1.17.13.25.12.32.23.64.36.95.02.06.11.11.17.14.02.01.1-.04.11-.08.17-.45.34-.89.49-1.35.01-.04-.08-.17-.12-.17Z"/>
      <path class="cls-1" d="M29.99,9.8c-.11,0-.21,0-.36.01-.01-.15-.04-.29-.04-.43,0-.27,0-.53-.01-.8,0-.18-.1-.28-.31-.25-.2.03-.18.16-.16.29.02.1.04.19.04.29,0,.29,0,.59,0,.83-.15-.02-.34-.1-.4-.04-.14.14,0,.28.09.43.14.24.27.49.39.74.06.14.12.26.24.22.15-.32.28-.58.4-.86.06-.13.08-.28.12-.42Z"/>
      <path class="cls-1" d="M29.16,19.25c.07.11.13.23.19.35.06-.06.11-.08.13-.12.17-.29.33-.58.49-.87.13-.25.11-.3-.16-.28-.16,0-.23-.04-.23-.21,0-.21-.03-.43-.04-.64,0-.18-.1-.27-.3-.3-.19.38.04.85-.22,1.24-.08-.06-.14-.12-.21-.13-.09-.03-.19-.02-.29-.03.04.09.06.19.11.27.17.25.35.49.51.74Z"/>
      <path class="cls-1" d="M2.81,17.43c-.12-.35-.31-.52-.71-.43-.31.07-.39.08-.45.38-.1.51,0,.91.56.99.25.03.36-.05.44-.3.05-.18.15-.36.23-.57,0,0-.06-.03-.08-.07ZM2.46,17.61c-.04.11-.17.19-.26.28-.08-.13-.15-.25-.26-.42.1-.07.16-.14.23-.15.15-.02.34.16.29.29Z"/>
      <path class="cls-1" d="M2.38,8.43c-.45-.02-.56.22-.58.53-.03.31.36.72.63.73.24.01.57-.33.57-.71,0-.25-.34-.56-.61-.55Z"/>
      <path class="cls-1" d="M21.42,31c-.21-.12-.41-.05-.55.1-.21.23-.31.52-.22.84.07.24.31.38.51.31.42-.14.51-.4.54-.79.05-.25-.1-.36-.29-.46Z"/>
      <path class="cls-1" d="M7.71,30.17c.34.02.63-.2.64-.47,0-.27-.41-.69-.7-.71-.25-.02-.49.21-.53.57-.04.33.22.59.58.61Z"/>
      <path class="cls-1" d="M2.37,28.01c.16-.07.32-.09.4-.18.23-.26.12-.74-.21-.87-.33-.13-.56-.14-.71.06-.18.23-.21.52,0,.74.12.13.34.17.52.26Z"/>
      <path class="cls-1" d="M30.62,26.14c-.35-.02-.6.28-.62.75-.01.23.19.45.43.46.27.01.74-.33.74-.57,0-.37-.19-.67-.55-.65ZM30.46,26.8c-.08-.19.04-.27.2-.35.12.33.1.37-.2.35Z"/>
      <path class="cls-1" d="M5.32,30.71c-.39-.03-.65.18-.66.53,0,.21.4.57.67.58.26,0,.51-.22.52-.49.01-.26-.28-.6-.53-.62Z"/>
      <path class="cls-1" d="M10.98,32.25c.2,0,.58-.37.57-.54,0-.37-.31-.71-.62-.7-.17,0-.47.33-.47.5,0,.35.28.75.52.75Z"/>
      <path class="cls-1" d="M4.84,18.19c.4,0,.52-.32.53-.77,0-.3-.25-.48-.62-.47-.33.01-.5.22-.49.58,0,.33.31.66.59.66ZM4.66,17.31s.17-.06.23-.03c.14.07.11.25-.06.46-.19-.13-.28-.32-.17-.43Z"/>
      <path class="cls-1" d="M26.9,31.63c.15.02.35.03.44-.06.18-.15.3-.38.43-.58.02-.03,0-.1-.02-.12-.16-.16-.32-.36-.59-.3-.28-.07-.4.12-.53.3-.23.31-.09.71.27.75ZM27.13,30.93s.1.04.16.07c-.08.08-.16.17-.24.25-.03-.03-.06-.06-.1-.08.06-.08.11-.17.18-.24Z"/>
      <path class="cls-1" d="M31.22,13.13c0-.31-.22-.53-.55-.54-.32,0-.58.28-.59.65,0,.22.31.54.54.53.32,0,.58-.28.6-.64ZM30.7,13.06c.05,0,.15.1.15.16,0,.06-.09.13-.19.25-.09-.14-.18-.22-.17-.28,0-.06.13-.13.2-.13Z"/>
      <path class="cls-1" d="M5.29,13.24c.01-.22-.26-.58-.45-.58-.33,0-.58.17-.6.62,0,.22.22.51.42.48.41-.05.6-.11.63-.52Z"/>
      <path class="cls-1" d="M28.34,18.11s.12-.04.13-.07c.07-.17.12-.36.18-.53-.02-.22-.26-.5-.49-.56-.16-.04-.29-.02-.39.14-.12.19-.16.63-.02.81.14.17.34.28.58.23ZM28.14,17.34c.03.1.04.2.06.3-.05,0-.1.02-.14.02-.02-.1-.03-.2-.04-.31,0,0,.12-.02.12-.02Z"/>
      <path class="cls-1" d="M28.27,13.73c.27,0,.49-.21.48-.5,0-.44-.18-.63-.54-.65-.29-.02-.44.17-.45.54-.02.25.23.61.5.61ZM28.33,12.91c.03.16.05.26.07.36-.03.02-.06.03-.09.05-.05-.06-.13-.11-.14-.17,0-.05.08-.11.16-.23Z"/>
      <path class="cls-1" d="M31.2,17.35c.01-.24-.18-.42-.42-.42-.3,0-.55.24-.56.54,0,.3.15.56.34.56.41.01.62-.36.64-.68Z"/>
      <path class="cls-1" d="M1.68,13.09c-.02.39.13.62.41.64.32.02.53-.22.54-.59,0-.26-.23-.5-.5-.52-.27-.02-.44.16-.46.47ZM2.21,13.34s-.06,0-.08-.01c-.08-.11-.11-.21.1-.31,0,.13-.01.22-.02.32Z"/>
      <path class="cls-1" d="M30.67,22.85c.31,0,.47-.22.49-.68,0-.17-.19-.37-.37-.38-.26-.01-.6.29-.62.51-.01.23.28.54.5.55Z"/>
      <path class="cls-1" d="M28.02,8.58c-.17.1-.22.25-.2.41,0,.26.14.52.32.58.24.09.34-.09.45-.25,0-.01.02-.02.03-.03.14-.16.15-.36.03-.52-.15-.18-.47-.28-.63-.19Z"/>
      <path class="cls-1" d="M4.71,26.15c-.26-.05-.23.19-.29.33-.03.07-.06.14-.07.21,0,.19,0,.38.23.45.43.12.54.04.6-.45,0,0,0-.04,0-.07-.03-.31-.12-.4-.47-.47Z"/>
      <path class="cls-1" d="M27.69,21.59c-.1.23,0,.69.17.87.17.17.37.18.51,0,.07-.08.06-.22.09-.33,0-.36-.08-.54-.3-.64-.18-.08-.42-.03-.48.1ZM28.08,22.12s-.05,0-.07,0c-.01-.11-.03-.22-.04-.35.23.06.24.09.11.34Z"/>
      <path class="cls-1" d="M15.96,11.87c-.16.2-.17.5-.04.69.09.14.47.27.64.19.1-.04.22-.17.23-.26.02-.2-.4-.69-.71-.67,0,0-.08.01-.11.06Z"/>
      <path class="cls-1" d="M30.14,8.98c0,.22.29.56.48.56.18,0,.46-.37.47-.63,0-.19-.19-.41-.36-.41-.24,0-.58.28-.59.48ZM30.66,9.2c-.18-.05-.17-.18-.12-.31,0-.02.13-.03.15,0,.07.11.1.22-.03.31Z"/>
      <path class="cls-1" d="M17.57,7.8c.23,0,.44-.21.44-.42,0-.17-.31-.47-.48-.46-.14,0-.37.32-.37.5,0,.17.23.38.41.37Z"/>
      <path class="cls-1" d="M25.75,10.01c.26,0,.41-.13.42-.36,0-.22-.14-.36-.38-.37-.22,0-.45.19-.46.39,0,.18.18.33.42.33Z"/>
      <path class="cls-1" d="M13.58,9.91c.22.01.42-.17.44-.4.01-.2-.15-.44-.32-.45-.18,0-.39.23-.4.45,0,.19.13.4.28.4Z"/>
      <path class="cls-1" d="M16.45,8.57c0,.14.22.31.41.31.22,0,.42-.16.42-.34,0-.21-.17-.41-.36-.41-.15,0-.46.29-.47.44Z"/>
      <path class="cls-1" d="M16.73,7.05c.17,0,.28-.11.28-.3,0-.27-.1-.38-.32-.39-.22,0-.26.14-.27.3-.01.2.14.39.31.39Z"/>
      <path class="cls-1" d="M25.68,14.89c0,.14.17.29.31.29.14,0,.28-.17.29-.33.01-.2-.14-.2-.24-.24-.21,0-.36.13-.36.28Z"/>
    </g>
  </g>
</svg>