<?xml version="1.0" encoding="UTF-8"?>
<svg id="Layer_2" xmlns="http://www.w3.org/2000/svg" viewBox="0 0 43.52 19.17">
  <defs>
    <style>
      .cls-1 {
        fill: #2c489e;
      }
    </style>
  </defs>
  <g id="Layer_1-2" data-name="Layer_1">
    <path class="cls-1" d="M42.94,9.6c-.34-.72-.78-1.36-1.27-1.98-1.11-1.41-2.47-2.52-4.04-3.38-1.22-.67-2.49-1.25-3.81-1.71-.81-.28-1.63-.55-2.45-.77-.76-.2-1.54-.35-2.32-.5-.88-.17-1.76-.31-2.64-.45-.66-.11-1.33-.2-1.99-.3-.53-.08-1.06-.17-1.59-.22-.66-.07-1.33-.12-1.99-.17-.4-.03-3.44-.16-4.84-.1,0,0-.1.08-.11.11.06.01,4,.44,4.06.45.82.1,2.14.35,3.2.59,1.28.3,2.54.65,3.8,1.02,1.47.43,2.92.93,4.3,1.62,1.42.71,2.77,1.52,3.98,2.55.84.71,1.59,1.5,2.16,2.45.52.88.7,1.66.19,2.56-.41.72-.87.88-1.63,1.12-1.08.34-2.51.46-3.63.49-.74.02-1.49-.06-2.23-.12-.87-.07-1.74-.15-2.6-.27-.95-.14-1.9-.32-2.85-.51-1.79-.36-3.58-.75-5.37-1.13-1.68-.36-3.34-.77-4.96-1.35-1.48-.53-2.96-1.04-4.44-1.58-.9-.33-1.79-.68-2.68-1.03-.09-.03-.19-.05-.17-.2.18-1,.36-2,.54-2.99.04-.23.07-.45.1-.68-.09.02-.12.06-.16.08C6.03,3.92,1.96,6.78.05,8.21c-.05.04-.06.14-.05.2.3.9,4.99,8.19,5.12,8.58.02,0,.05,0,.07,0,.19-1.06.38-2.12.58-3.2.62.23,1.22.46,1.81.67,1.19.42,2.39.86,3.59,1.25,1.13.37,2.27.72,3.41,1.02,1,.26,2.02.44,3.03.66.81.17,1.63.36,2.44.5,1,.18,1.99.34,3,.49,1.07.16,2.15.29,3.23.42.63.08,1.27.15,1.9.2.88.07,1.77.17,2.65.18,1.16,0,2.32-.05,3.48-.12,1.04-.06,2.07-.22,3.08-.5.88-.24,1.72-.57,2.52-1,.63-.33,1.21-.74,1.74-1.21.62-.56,1.05-1.25,1.38-2.02.69-1.59.63-3.16-.1-4.72Z"/>
  </g>
</svg>