<?xml version="1.0" encoding="UTF-8"?>
<svg id="Layer_2" xmlns="http://www.w3.org/2000/svg" viewBox="0 0 33.34 51.45">
  <defs>
    <style>
      .cls-1 {
        fill: #2c489e;
      }
    </style>
  </defs>
  <g id="Layer_1-2" data-name="Layer_1">
    <g>
      <path class="cls-1" d="M29.86,35.06c-.37-.73-.92-1.35-1.67-1.73-.39-.2-.81-.33-1.21-.49-.08-.03-.14-.09-.21-.14.07-.04.13-.1.2-.13.23-.09.47-.15.69-.26.65-.33.95-.56.87-1.17-.05-.38-.16-.45-.51-.29-.04.02-.09.05-.13.08-.42.3-.9.48-1.39.64-.69.22-1.4.19-2.12.14-.25-.02-.51-.02-.75.01-.18.03-.36.12-.53.19-.33.12-.69.21-1,.39-.37.21-.71.48-1.05.74-.09.07-.18.18-.21.28-.17.62-.61,1.04-1.04,1.47-.14.14-.28.14-.46.05-.4-.19-.59-.58-.86-.89-.26-.28-.45-.63-.63-.97-.37-.7-.71-1.42-1.05-2.14-.07-.16-.1-.34-.12-.51-.03-.16.06-.3.21-.32.09,0,.23.09.28.19.4.72.77,1.46,1.16,2.18.27.48.57.95.87,1.42.06.09.18.16.29.2.07.03.19.01.23-.04.04-.06.05-.18.02-.25-.05-.13-.14-.24-.21-.36-.29-.56-.57-1.13-.86-1.69-.2-.39-.41-.77-.61-1.16-.06-.12-.04-.25.08-.29.29-.1.59-.19.89-.24.18-.03.28-.07.34-.25.19-.54.39-1.07.58-1.61.16-.47.3-.94.45-1.41,0-.01,0-.03,0-.04-.02-.06-.05-.11-.07-.17-.05.03-.12.04-.15.08-.22.32-.43.66-.66.98-.25.34-.52.67-.8.98-.12.14-.28.21-.47.06-.14-.12-.3-.22-.45-.31-.09-.06-.21-.13-.31-.12-.23.04-.36-.09-.5-.21-.29-.25-.57-.51-.89-.72-.56-.39-1.02-.88-1.46-1.4-.09-.11-.1-.22-.02-.33.15-.22.31-.44.47-.65.16-.21.36-.41.21-.72-.02-.04,0-.11,0-.17-.01-.11-.01-.22-.06-.32-.1-.21-.09-.39.07-.56.06-.06.12-.12.17-.19.02-.03.03-.1.01-.13-.02-.03-.1-.04-.13-.02-.09.06-.18.13-.27.2-.1.07-.19.16-.31.2-.14.04-.29.04-.44.05-.04,0-.08-.04-.12-.06.03-.04.04-.09.08-.11.16-.08.34-.14.5-.23.41-.24.88-.44.94-1.02,0-.03.02-.07.05-.09.16-.21.32-.42.49-.63.26-.32.38-.33.64-.01.23.27.5.42.86.32.34-.1.65-.25.67-.68,0-.13.04-.26.05-.4.02-.17.09-.28.27-.26.3.03.6.09.89.14.17.03.29.11.35.29.07.2.32.27.49.14.05-.03.1-.1.1-.15,0-.04-.08-.08-.12-.12-.11-.07-.25-.11-.35-.2-.45-.38-.96-.55-1.54-.48-.37.05-.74.11-1.1.21-.77.23-1.35.71-1.7,1.45-.03.06-.09.15-.13.14-.06,0-.14-.07-.18-.12-.13-.18-.06-.37-.01-.57.03-.13.07-.29-.11-.37-.17-.07-.25.06-.32.17-.12.18-.22.37-.35.53-.11.13-.21.24-.13.43.02.04-.07.14-.12.19,0,.01-.13-.05-.14-.08-.03-.18-.1-.38-.05-.55.12-.38.13-.44-.15-.7-.07-.07-.15-.14-.2-.22-.15-.21-.2-.49-.07-.68.18-.26.44-.51.72-.63.32-.14.71-.2,1.05-.17.46.04.9,0,1.35-.03.32-.03.64-.04.95-.08.47-.07.94-.17,1.42-.25.36-.06.69-.19.97-.43.21-.18.21-.35.01-.54-.11-.1-.22-.2-.34-.29-.24-.17-.5-.3-.81-.27-.3.03-.61.04-.9.1-.31.07-.61.2-.92.3-.08.02-.17.03-.25.03-.53-.01-1.06.01-1.56.2-.33.13-.65.28-.98.39-.25.08-.47.18-.65.38-.12.13-.24.25-.38.37-.06.05-.15.06-.22.08-.02-.07-.07-.14-.05-.2.14-.57.23-1.16.73-1.56.04-.03.05-.08.08-.12.12-.13.07-.22-.06-.31-.12-.08-.28-.14-.35-.25-.16-.25-.37-.33-.64-.33-.19,0-.26-.1-.3-.28-.04-.17-.14-.33-.21-.49-.03-.08-.1-.17-.08-.25.03-.19-.05-.29-.18-.39-.13-.1-.24-.22-.19-.39.08-.26.16-.52.28-.77.11-.24.09-.37-.16-.47-.17-.07-.23-.18-.17-.35.09-.25.19-.49.27-.74.04-.11.06-.23.06-.35,0-.22-.01-.43-.01-.65,0-.2.07-.42.01-.61-.12-.37-.35-.69-.63-.97-.09-.09-.22-.13-.32-.01-.11.13-.21.26-.31.4-.08.12-.15.26-.23.38-.13.17-.47.17-.6,0-.03-.04-.03-.15,0-.18.09-.09.22-.15.32-.24.07-.06.16-.21.14-.23-.12-.13-.26-.32-.42-.35-.37-.08-.76-.03-1.12.11-.1.04-.19.12-.29.18.07.11.15.22.22.32,0,.01.02.02.03.03.28.2.28.29-.01.45-.15.09-.15.16-.04.3.19.23.53.24.83.15.14-.04.26-.13.4-.18.06-.02.18-.03.2,0,.04.06.04.16.03.23-.02.11-.06.22-.1.32-.1.29-.21.55-.59.63-.42.09-.81.28-1.22.4-.46.13-.93.39-1.42.05-.18-.12-.22-.2-.05-.33.25-.2.51-.38.77-.55.26-.17.39-.42.21-.59-.23-.22-.2-.5-.27-.75-.04-.15,0-.26.16-.32.08-.03.15-.08.22-.12.15-.1.24-.21.13-.41-.08-.14-.04-.26.1-.37.06-.05.11-.14.13-.22.09-.32.28-.46.6-.42.47.07.95.15,1.42.23.15.03.31.05.46.08.49.07.98.15,1.46.22.29.04.58.09.87.11.11,0,.24-.03.34-.08.11-.05.2-.14.3-.22-.1-.09-.2-.21-.32-.26-.53-.22-1.08-.42-1.61-.64-.42-.17-.43-.22-.11-.55.01-.01.02-.02.03-.03.24-.31.33-.34.68-.16.25.13.49.3.73.46.37.25.72.51,1.1.75.3.19.6.44.99.33.24-.07.46-.2.68-.33.27-.16.29-.4.04-.58-.46-.33-.93-.65-1.41-.94-.32-.2-.67-.34-1-.52-.19-.1-.18-.22.01-.32.3-.15.61-.28.9-.46.31-.19.56-.08.82.11.77.56,1.55,1.11,2.32,1.67.05.03.11.04.16.06.01-.02.02-.03.04-.05-.09-.1-.17-.23-.27-.31-.64-.5-1.28-.99-1.92-1.49-.07-.05-.15-.16-.14-.23,0-.07.11-.15.19-.19.32-.15.71-.14.95-.45.03-.04.12-.04.18-.05.2-.04.24-.12.14-.28-.19-.3-.18-.5.06-.76.35-.38.83-.55,1.32-.67.23-.06.46-.06.68.05.1.05.21.09.31.11.08.02.16,0,.24,0,0-.08,0-.17-.02-.25-.03-.11-.06-.21.08-.26.18-.06.36-.14.54-.19.24-.07.47-.04.68.12.29.23.59.46.89.68.08.06.19.08.3.13q.05-.39.43-.36c-.06-.11-.09-.18-.14-.24-.05-.07-.14-.11-.18-.18-.04-.06-.08-.16-.06-.22.02-.05.12-.1.19-.1.35,0,.64.15.88.39.36.36.68.75.9,1.22.17.37.35.73.51,1.11.15.37.26.76.4,1.13.08.23.22.25.39.07.07-.07.15-.14.23-.17.34-.12.44-.29.33-.63-.1-.3-.19-.61-.34-.88-.34-.63-.67-1.26-1.08-1.84-.42-.62-.99-1.08-1.71-1.36-.42-.16-.82-.33-1.27-.36-.22-.02-.43-.16-.65-.24-.11-.04-.22-.1-.32-.09-.42.03-.82.12-1.25.1-.54-.03-1.08.06-1.62.11-.34.03-.68.07-1.02.11-.35.05-.71.1-1.06.17-.18.03-.35.1-.52.16-.37.14-.74.32-1.12.45-.92.31-1.81.67-2.63,1.19-.2.12-.4.23-.6.35-.5.29-.99.6-1.48.89-.28.16-.49.4-.7.63-.26.28-.56.53-.85.79-.37.34-.71.72-1.25.83-.11.02-.25.18-.29.31-.12.37-.2.76-.29,1.14-.09.35-.16.7-.26,1.04-.15.5-.3,1-.47,1.49-.14.41-.28.81-.43,1.21-.07.19-.17.37-.24.56-.04.09-.08.2-.07.29.06.58.11,1.15.2,1.72.12.79.26,1.59.43,2.37.1.45.27.88.4,1.31.04.15.08.3.09.45,0,.08-.05.19-.11.23-.24.14-.5.26-.75.39-.32.17-.66.32-.78.73-.04.14-.2.27-.33.37-.27.2-.56.37-.83.57-.11.09-.2.23-.24.36-.11.35-.2.7-.28,1.05-.08.35-.16.7-.44.97-.16.16-.3.34-.44.51-.33.42-.48.88-.31,1.4.08.23,0,.37-.13.53-.16.19-.37.39-.42.62-.1.46-.12.93-.14,1.41-.01.34.03.68.05,1.01.02.37,0,.75.04,1.11.04.39.13.78.17,1.17.01.13-.02.3-.09.41-.11.17-.26.34-.43.47-.31.24-.31.56-.22.86.13.48.33.95.51,1.41.29.74.58,1.48.87,2.22.22.54.43,1.09.66,1.62.14.33.35.63.47.97.22.61.58,1.14.9,1.7.4.68.78,1.38,1.17,2.07.38.68.23,1.33-.08,1.98-.15.32-.33.63-.45.95-.06.16-.08.38-.02.53.06.15.23.27.38.36.59.37,1.19.72,1.77,1.09.55.35,1.1.71,1.64,1.07.33.22.66.43.99.66.5.35,1,.71,1.49,1.08.21.16.37.36.58.52.52.41,1.04.82,1.56,1.23.13.1.27.19.42.06.15-.13.11-.3,0-.42-.13-.16-.29-.32-.46-.44-.33-.24-.69-.44-1.02-.68-.24-.18-.5-.38-.41-.75.06-.24.13-.48.2-.71.09-.28.2-.55.29-.83.09-.3.15-.61.26-.91.29-.8.61-1.59.89-2.39.26-.74.58-1.45.72-2.22.08-.43.15-.86-.02-1.27-.14-.35-.34-.67-.49-1.02-.14-.33-.39-.54-.66-.75-.19-.15-.36-.32-.52-.5-.04-.05-.02-.15-.02-.23.08.02.17,0,.22.05.4.34.79.68,1.19,1.02.35.3.68.63,1.07.86.64.38,1.31.73,1.98,1.05.6.28,1.24.51,1.86.77.14.06.27.16.38.27.26.26.48.56.75.8.36.33.6.7.64,1.2.04.5.17,1,.05,1.51-.15.59-.25,1.19-.46,1.75-.22.59-.55,1.14-.85,1.7-.26.5-.55.98-.81,1.48-.1.19-.05.26.16.26.13,0,.26,0,.38-.03.09-.02.19-.08.23-.16.27-.49.55-.97.79-1.47.29-.6.55-1.21.81-1.81.3-.7.46-1.43.45-2.2,0-.55-.05-1.1-.2-1.64-.06-.21.01-.3.23-.27.36.05.67-.09.99-.23.16-.07.37-.12.54-.08.23.05.41,0,.61-.09.48-.22.96-.43,1.52-.3.37.08.76.11,1.15.13.23,0,.49,0,.68-.1.7-.37,1.39-.78,2.08-1.18.34-.2.71-.32.89-.75.24-.57.61-1.08.86-1.64.37-.82.54-1.68.47-2.6-.05-.54-.24-1.03-.47-1.48ZM17.15,20.64c.05.01.11.01.15.05.33.3.55.26.72-.15.02-.04.07-.06.11-.09.02.05.06.1.06.14-.01.31-.26.5-.73.5-.12.01-.27-.09-.34-.28-.02-.05.02-.11.03-.17ZM15.92,34.88c.06-.04.18-.01.27,0,.01,0,.03,0,.04.02.51.34,1.01.68,1.52,1.02.11.07.13.16,0,.22-.45.18-.91.34-1.36.51-.02,0-.04,0-.06,0-.02.01-.03.02-.05.03-.06-.09-.14-.17-.16-.27-.09-.43-.15-.85-.22-1.28-.01-.08-.01-.21.04-.25ZM13.25,22.7c.3-.11.59-.21.89-.31.15-.05.31-.06.44-.13.2-.1.39-.24.59-.35.07-.04.17-.04.31-.06-.2.38-1.47.87-2.41.96.09-.06.13-.09.17-.11ZM12.03,26.73c.09.31.22.61.32.92.02.06,0,.14,0,.21-.07-.03-.17-.04-.22-.09-.27-.31-.52-.63-.79-.94-.16-.19-.33-.36-.49-.55-.05-.07-.08-.16-.1-.21.02-.08.02-.12.03-.17.07-.35.12-.34.45-.19.45.21.67.57.8,1.02ZM11.05,19.84c.13.03.16.12.04.21-.09.07-.2.11-.33.17-.27-.14-.52-.26-.77-.4-.02,0-.02-.07,0-.09.02-.03.07-.06.1-.05.32.05.64.09.96.16ZM10.45,18.84c.06,0,.12.08.19.13-.05.05-.1.14-.16.16-.26.08-.51-.02-.76-.04,0-.03,0-.06,0-.09.25-.05.49-.12.74-.15ZM10.27,18.26s0,.05,0,.08c-.3.1-.59.25-.92.17-.05-.01-.12-.09-.12-.14,0-.05.08-.11.13-.12.06-.02.14,0,.21,0,.17,0,.33,0,.49,0,.06,0,.13,0,.19.01ZM9.51,19.02s-.06.06-.09.09c-.1-.1-.21-.2-.31-.3-.01-.01,0-.06,0-.07.01-.02.06-.03.07-.02.11.1.21.2.32.29ZM8.62,12.38c.41-.16.81-.32,1.23-.46.2-.06.18.12.18.24.01.17-.06.27-.22.32-.28.09-.56.2-.85.26-.11.02-.26-.04-.37-.11-.13-.08-.11-.21.03-.26ZM8.48,13.59c.15-.04.3-.04.42-.05.29,0,.54,0,.78,0,.07,0,.13.07.2.11-.04.06-.07.13-.13.16-.21.11-.42.2-.63.3-.26.12-.6,0-.75-.26-.08-.14-.04-.24.11-.28ZM6.74,16.4s.07.03.1.02c.53-.11.7.29.93.62.08.12.19.2.27.32.04.06.06.16.04.23-.01.04-.1.07-.17.12-.1-.05-.19-.1-.29-.14-.13-.05-.28-.15-.41-.14-.27.02-.41-.08-.49-.33-.06-.17-.13-.34-.18-.52-.04-.15.03-.22.19-.2ZM5.42,18.7c.44-.21.88-.41,1.34-.59.35-.13.69-.02.99.17.5.32.97.68,1.32,1.18.15.21.29.41.41.64.26.5.56.98.64,1.56.01.09.07.17.14.3-.08.06-.16.14-.25.17-.54.19-1.08.38-1.63.56-.14.05-.15.14-.13.27.05.29.09.58.11.88,0,.12-.08.24-.13.36-.06-.1-.14-.2-.17-.3-.07-.28-.09-.58-.18-.85-.2-.58-.41-1.16-.66-1.71-.13-.29-.36-.54-.56-.79-.31-.39-.62-.78-.94-1.16-.09-.11-.22-.19-.33-.29-.15-.14-.14-.29.04-.37ZM4.42,20.65s.13-.05.2-.07c.14-.04.28-.08.42-.13.2-.07.39-.17.59-.23.22-.07.66.28.66.57-.03.04-.08.13-.16.17-.14.07-.29.11-.43.16-.18.07-.37.11-.44.35-.04.14-.17.12-.25.03-.18-.2-.36-.41-.53-.63-.04-.05-.07-.16-.04-.21ZM3.12,20.84c.05-.15.14-.24.32-.21.35-.04.52.25.75.43.1.08.09.23-.05.3-.16.08-.33.16-.51.18-.3.03-.61-.41-.51-.7ZM2.77,23.86c.06-.16.15-.32.25-.47.14-.21.29-.41.46-.61.04-.05.16-.11.21-.09.06.04.11.14.13.22.02.07,0,.15,0,.23-.02,0-.03.01-.05.02.07.2.12.41.2.6.07.18.03.29-.16.33-.25.05-.51.09-.77.12-.25.02-.36-.12-.27-.36ZM1.55,24.98c.33-.12.68-.2,1.02-.25.76-.12,1.52-.23,2.29-.33.3-.04.6-.07.9-.1.51-.09.82.22,1.15.53.14.13.28.26.43.37.18.14.19.22,0,.36-.31.23-.64.44-.96.65-.21.14-.41.28-.62.41-.06.04-.14.03-.21.05,0-.07-.01-.14,0-.21.01-.1.05-.19.05-.29,0-.04-.04-.12-.08-.13-.04-.01-.11.02-.14.06-.08.1-.14.21-.2.32-.11.19-.22.38-.34.56-.22.31-.48.39-.81.23-.25-.12-.49-.28-.74-.4-.08-.04-.17-.04-.26-.06.04.09.05.21.12.26.19.15.41.27.61.41.08.05.17.11.23.18.14.16.11.29-.06.43-.55.42-1.09.86-1.64,1.28-.19.15-.39.28-.59.41-.14.09-.24.04-.25-.12-.03-.48-.04-.96-.06-1.44-.01-.27-.03-.54-.03-.8,0-.28.04-.55.02-.82-.02-.28-.05-.59-.17-.84-.16-.34-.09-.54.35-.7ZM1.86,31.41c0,.47.02.94.03,1.41,0,.12,0,.25,0,.37-.03,0-.05.01-.08.02-.04-.07-.09-.13-.12-.21-.21-.54-.42-1.09-.64-1.64-.07-.18-.05-.31.11-.43.73-.53,1.46-1.05,2.18-1.61.65-.51,1.27-1.06,1.91-1.58.25-.2.5-.39.77-.56.75-.47,1.5-.92,2.25-1.39.09-.06.17-.14.27-.2.33-.22.7-.22,1,.04.44.38.87.76,1.26,1.19.51.55.98,1.13,1.46,1.71.16.19.31.38.44.59.04.05.01.14.02.22-.07-.01-.15-.01-.2-.05-.3-.19-.6-.4-.9-.6-.71-.49-1.48-.56-2.29-.34-.19.05-.31.03-.39-.17-.08-.19-.23-.2-.29-.02-.14.42-.48.49-.83.6-1.09.35-2.17.71-3.26,1.07-.52.17-1.04.32-1.56.49-.2.07-.39.15-.59.24-.36.17-.57.44-.56.84ZM12.64,34.16c-.27-.07-.33-.23-.15-.44.16-.19.34-.38.49-.58.07-.08.19-.19.05-.28-.05-.03-.21.03-.28.1-.23.22-.43.47-.67.68-.42.37-.93.38-1.45.32-.03,0-.06-.03-.1-.03-.37-.06-.55-.12-.56.34,0,.42-.3.56-.59.71-.11.06-.23.09-.32.17-.06.05-.08.15-.11.23.08.01.17.06.24.04.14-.04.27-.13.4-.18.17-.06.28-.02.31.19.12.76.49,1.42.89,2.07.29.48.57.96.87,1.43.31.49.67.95.95,1.45.14.25.16.56.21.85.01.07-.07.18-.14.24-.49.41-.99.81-1.48,1.23-.15.13-.29.28-.4.44-.32.46-.77.66-1.32.69-.22.01-.44.05-.65.09-.14.03-.29.07-.42.13-.05.02-.09.1-.13.15.05.03.09.08.15.1.31.11.6-.01.89-.06.18-.03.36-.1.54-.11.08,0,.19.08.23.15.08.14.16.14.26.04.17-.17.38-.24.59-.34.26-.13.48-.36.7-.57.23-.21.43-.45.65-.67.06-.06.16-.08.24-.12.01.1.06.22.03.31-.13.38-.29.75-.43,1.13-.18.51-.34,1.03-.52,1.55-.17.47-.37.93-.53,1.41-.18.53-.33,1.08-.49,1.62-.09.3-.21.36-.47.18-.38-.27-.73-.58-1.13-.83-1.09-.68-2.2-1.34-3.29-2.01-.22-.13-.42-.28-.64-.42-.14-.1-.23-.24-.18-.4.11-.31.2-.64.38-.91.3-.44.43-.93.52-1.44.05-.28-.08-.49-.21-.71-.21-.39-.41-.79-.61-1.18-.04-.07-.06-.18-.03-.25.09-.23-.02-.41-.11-.6-.15-.31-.3-.62-.45-.93-.02-.04-.02-.08-.03-.13.02,0,.04-.01.06-.02.03.06.06.12.08.18.12.45.48.78.87.82.16.02.22-.03.23-.2.02-.26-.12-.44-.21-.65-.23-.55-.48-1.1-.68-1.66-.25-.71-.45-1.43-.66-2.14-.04-.12-.04-.25-.05-.38-.03-.22-.18-.36-.39-.31-.37.08-.42-.06-.5-.35-.13-.45-.23-.92-.32-1.38-.05-.26-.06-.53-.07-.8-.01-.22-.02-.43-.19-.61-.13-.14-.11-.29.04-.4.16-.12.33-.25.52-.32.39-.15.8-.26,1.22-.31.52-.07,1.02-.25,1.52-.4.43-.12.85-.26,1.27-.4.4-.14.79-.3,1.19-.43.45-.14.9-.28,1.36-.38.12-.03.27.05.39.11.12.06.23.17.34.25.04.03.13.04.15.02.03-.04.05-.12.04-.17-.02-.08-.08-.15-.11-.23-.02-.06-.04-.18-.01-.19.06-.04.16-.05.21-.02.23.11.46.24.68.38.47.3.93.6,1.39.92.38.27.79.53,1.08.87.25.3.37.72.54,1.09.02.04-.02.1-.03.15-.07-.03-.15-.03-.2-.08-.3-.25-.59-.51-.89-.76-.08-.07-.18-.13-.27-.19-.03.02-.06.04-.09.06.05.1.08.23.16.3.44.4.89.79,1.34,1.17.46.39.82.82.9,1.46.09.74.25,1.47.37,2.21.01.07-.03.15-.04.23-.07-.03-.17-.04-.22-.09-.18-.2-.35-.4-.52-.61-.24-.29-.47-.58-.71-.87-.1-.12-.1-.21-.01-.34.04-.06.05-.15.07-.23-.08-.02-.18-.08-.25-.05-.44.12-.87.06-1.3-.05ZM19.99,43.02c-.14-.08-.28-.15-.41-.25-.1-.08-.06-.2.05-.23.15-.04.32-.07.47-.05.15.02.27.13.24.31-.03.18-.18.18-.36.22ZM21.37,40.24c-.48.16-.48.16-.63-.33-.06-.2-.09-.41-.14-.62,0-.03-.01-.07-.03-.1-.34-.58-.68-1.16-1.25-1.54-.54-.35-1.12-.48-1.7-.07-.29.21-.56.44-.83.68-.22.19-.31.22-.56.09-.65-.36-1.22-.82-1.73-1.35-.32-.33-.67-.64-.96-.99-.16-.2-.23-.47-.35-.71.01,0,.03-.02.04-.03.03-.14.06-.28.11-.41.07-.2.21-.23.36-.07.09.1.16.22.24.32.41.54.81,1.09,1.23,1.62.35.43.8.5,1.32.34.68-.21,1.31-.5,1.95-.8.09-.04.26,0,.36.07.45.3.92.57,1.3.94.36.35.64.8.92,1.23.24.38.42.79.61,1.2.13.28.04.42-.24.51ZM23.78,36.24c-.15-.12-.23-.11-.34.06-.08.13-.16.27-.26.38-.08.09-.2.14-.3.21-.06.04-.12.07-.16.12-.17.2-.34.39-.65.36-.07,0-.18.08-.22.15-.07.14-.15.16-.3.13-.24-.06-.43-.17-.61-.35-.32-.31-.68-.59-1.03-.88-.17-.14-.18-.23.02-.35.07-.04.14-.08.21-.1.41-.09.63-.41.87-.7.12-.14.12-.29,0-.46-.09-.12-.13-.32-.11-.47.08-.47.38-.74.89-.73.18.08.5.16.74.33.7.51,1.29,1.14,1.73,1.89.08.13.14.28.18.43.02.07,0,.2-.05.24-.05.04-.18.02-.25-.01-.13-.07-.25-.16-.36-.25ZM24.72,42.15c-.28-.02-.56-.05-.84-.08,0-.02,0-.05,0-.07.03-.03.06-.07.09-.07.25.01.5.03.76.06.03,0,.07.05.08.09,0,.03-.05.08-.07.08ZM28.41,35.26c.08.3.17.6.25.9.16.64.32,1.27.47,1.91.02.09.02.2,0,.3,0,.06-.05.11-.08.17-.05-.05-.12-.1-.13-.16-.05-.23-.07-.46-.12-.69-.19-.82-.33-1.65-.74-2.4-.16-.29-.25-.62-.42-.9-.14-.23-.33-.43-.52-.64-.05-.05-.14-.06-.26-.11,0,.1,0,.15.01.19.07.32.02.36-.27.48-.38.15-.73.36-1.1.54-.05.02-.09.06-.14.09-.29.16-.32.31-.1.57.25.3.42.63.47,1.02.02.17-.11.4-.28.42-.08,0-.2-.05-.24-.11-.16-.3-.29-.62-.46-.91-.37-.64-.71-1.29-1.27-1.81-.38-.36-.82-.62-1.26-.89-.06-.04-.15-.05-.21-.08-.06-.03-.14-.08-.14-.12,0-.05.06-.13.11-.16.26-.14.52-.29.79-.41.36-.16.74-.28,1.1-.42.27-.11.53.02.79.05.58.09,1.06.42,1.52.76.12.09.25.17.39.2.47.09.87.35,1.3.55.55.26.92.71,1.3,1.16.06.07.05.19.07.29-.09.01-.18.04-.27.04-.13,0-.27-.03-.4-.03-.14,0-.2.08-.17.21Z"/>
      <path class="cls-1" d="M33.22,25.81c-.06-.89-.14-1.77-.21-2.66-.06-.75-.09-1.51-.16-2.26-.06-.59-.16-1.17-.27-1.75-.11-.6-.27-1.19-.15-1.8.03-.17.02-.35,0-.52-.01-.19-.06-.38-.07-.57-.03-.54-.02-1.08-.08-1.61-.04-.39-.24-.78-.71-.73-.2.02-.32-.14-.34-.36,0-.14.01-.29-.03-.42-.21-.66-.25-1.35-.31-2.03-.03-.29,0-.58-.04-.86-.04-.31-.11-.62-.17-.93-.09-.44-.13-.89-.28-1.3-.34-.91-.73-1.79-1.11-2.68-.09-.21-.18-.44-.33-.61-.53-.63-1.18-1.14-1.83-1.63-.3-.23-.59-.47-.89-.71-.08-.06-.16-.11-.25-.15-.13-.06-.19,0-.18.13,0,.05.02.11.05.16.15.31.3.62.45.93.03.05.08.1.13.12.28.12.58.21.85.34.2.09.39.21.46.44.02.06,0,.14-.03.2,0,.02-.09.04-.11.02-.23-.18-.25.01-.31.16-.06.14-.13.27-.17.41-.03.09-.03.2-.05.33.36-.09.22-.49.5-.64-.02.09-.02.14-.03.18-.07.23-.15.46-.22.69-.11.36.09.68.47.76.15.03.25.1.3.26.04.16.1.32.16.48.2.45.45.88.6,1.35.2.61.32,1.24.5,1.86.17.6.35,1.2.56,1.8.13.36.33.69.46,1.06.18.5.33,1.02.47,1.54.11.41.16.83.29,1.23.21.68.46,1.35.67,2.03.18.58.36,1.16.46,1.75.08.43.04.87.05,1.31.01.36.03.72.04,1.08.02.44.01.89.09,1.33.09.52.19,1.04.22,1.57.02.39.04.79.09,1.18.11.83.07,1.65-.03,2.47-.04.29-.08.59-.13.88-.01.05-.08.1-.12.15-.02-.05-.07-.09-.07-.14-.02-.48-.03-.96-.07-1.44-.06-.64-.13-1.28-.22-1.92-.07-.53-.24-1.05-.12-1.59.01-.05.03-.13,0-.17-.04-.08-.11-.18-.18-.2-.05-.02-.16.07-.2.14-.05.1-.08.22-.07.33.04.53.09,1.05.15,1.58.1.85.25,1.7.32,2.56.07.81.09,1.63.13,2.45,0,.19-.06.34-.24.44-.07.04-.14.13-.16.21-.13.48-.22.96-.37,1.43-.2.63-.38,1.27-.74,1.85-.06.09-.09.21-.1.32-.01.1.06.18.16.11.18-.14.39-.28.48-.47.15-.32.3-.64.52-.91.06-.07.1-.15.13-.24.23-.68.45-1.36.67-2.05.04-.12.04-.25.07-.37.17-.66.35-1.31.52-1.97.08-.31.12-.62.16-.94.03-.26.03-.52.05-.78,0-.07.02-.14.02-.21-.04-.66-.07-1.33-.12-1.99ZM28.95,6.49c-.12.25-.28.49-.21.81-.19-.38-.65-.54-.71-.98-.01-.09-.03-.19,0-.27.1-.3.21-.58.32-.87.02-.05.09-.13.12-.12.06.01.13.06.16.12.13.31.27.62.37.94.04.11,0,.26-.05.36ZM32.01,17.33s-.12-.04-.13-.07c-.11-.27-.22-.54-.32-.82.02,0,.04-.01.06-.02-.02-.08-.03-.16-.05-.25-.08-.5-.17-1-.24-1.5-.02-.14-.05-.33.17-.38.16-.04.33.12.36.34.05.44.09.89.13,1.33.03.41.05.82.08,1.23,0,.05-.03.1-.05.15Z"/>
      <path class="cls-1" d="M20.7,21.19c-.12.27-.07.57.14.64.28.09.28.27.23.48-.03.13-.06.26-.1.39-.1.34-.04.64.17.92.1.13.22.2.39.12.29-.14.29-.14.5.1.25.29.33.29.61.01.01-.01.02-.03.03-.03.09-.04.19-.11.26-.09.06.02.1.15.13.23.06.13.09.28.16.4.07.13.18.24.26.36.13.19.1.32-.12.36-.43.08-.83.21-1.19.46-.15.1-.27.01-.28-.18,0-.11,0-.21,0-.32.02,0,.03,0,.04,0-.05-.19-.07-.4-.15-.58-.04-.08-.2-.17-.28-.15-.08.02-.18.16-.2.25-.05.27-.06.55-.07.82-.03.6.37,1.22.92,1.44.1.04.22.07.33.06.49-.05.95.06,1.43.14.27.04.55.05.82.05.09,0,.2-.06.25-.13.28-.36.55-.72.8-1.1.06-.09.07-.26.02-.36-.02-.06-.2-.08-.3-.07-.29.03-.57.01-.81-.17-.6-.48-1.08-1.05-1.1-1.88,0-.13-.06-.27-.02-.37.1-.27,0-.48-.11-.7-.41-.77-.8-1.54-.94-2.41-.05-.29-.19-.55-.45-.74-.33-.24-.64-.51-.96-.76-.17-.13-.38-.14-.58-.07-.14.05-.28.09-.42.14-.05.02-.13.05-.14.09,0,.04.04.11.08.16.08.11.19.2.23.32.07.21.2.31.39.4.45.22.67.43.44.92-.13.29-.27.58-.39.87ZM23.78,25.55c-.2.14-.41.13-.63.17.13-.21.37-.28.63-.17Z"/>
      <path class="cls-1" d="M27.89,14.27c-.14.06-.27.12-.41.18-.09.04-.19.08-.28.11-.12.04-.26.06-.37.12-.26.14-.48.38-.81.39-.09,0-.2.09-.26.17-.3.34-.59.69-.87,1.04-.07.09-.12.19-.16.29-.16.37.05.67.44.62.24-.03.48-.09.69-.19.41-.19.82-.39,1.18-.65.71-.5,1.48-.89,2.23-1.3.06-.04.16-.07.22-.04.29.12.57.26.85.4.09.05.17.14.25.21.03-.11.06-.22.11-.38-.06-.15-.09-.37-.21-.5-.22-.25-.49-.46-.75-.68-.1-.08-.22-.1-.36-.02-.06.03-.18-.04-.27-.07-.08-.03-.15-.13-.22-.13-.25,0-.47.06-.65.25-.09.09-.24.12-.36.18Z"/>
      <path class="cls-1" d="M28.52,28.04c.04.13.08.26.14.37.08.14.21.14.28,0,.24-.46.47-.92.69-1.38.03-.05.01-.17-.02-.2-.05-.04-.16-.05-.23-.04-.09.02-.18.09-.26.14-.58.38-1.13.82-1.82,1.01-.09.02-.17.07-.25.1-.37.14-.72.33-1.1.42-.64.15-1.29.23-1.94.35-.32.06-.64.13-.95.21-.43.11-.88.2-1.29.37-.42.17-.8.41-1.2.62-.06.03-.13.12-.13.19,0,.07.07.16.14.19.16.06.34.08.51.12,0-.01,0-.02,0-.03.06,0,.13,0,.19-.01.07,0,.14-.02.21-.04.22-.07.25-.15.17-.36-.07-.18.04-.33.24-.34.15,0,.29-.04.43-.06.13-.03.26-.07.39-.1.63-.14,1.25-.26,1.88-.41.44-.1.87-.24,1.3-.37.44-.14.88-.28,1.31-.45.33-.13.64-.31.97-.46.23-.1.27-.07.34.17Z"/>
      <path class="cls-1" d="M19.93,5.93c-.14.08-.28.14-.42.22-.08.05-.17.1-.21.17-.07.15-.15.14-.27.06-.53-.38-1.05-.75-1.58-1.13-.11-.08-.26-.21-.37-.08-.11.13.03.26.13.36.19.19.4.37.6.56.4.38.8.76,1.3,1,.17.08.33.12.47-.07.08-.1.16-.06.26,0,.35.21.71.23,1.09.09.11-.04.23-.08.34-.12,0,.01,0,.03.01.04.06,0,.11,0,.17,0,.22-.02.31-.25.18-.42-.25-.34-.57-.61-.99-.73-.24-.07-.5-.08-.73.05Z"/>
      <path class="cls-1" d="M30.3,17.47c-.14.05-.26.14-.39.21-.16.09-.31.08-.42-.07-.17-.21-.39-.32-.65-.36-.48-.08-.97-.08-1.42.08-.91.33-1.53,1-2.07,1.81.19.1.35,0,.47-.13.13-.14.23-.32.34-.48.23-.31.49-.27.67-.03.32.41.6.45,1.06.24.04-.02.09-.04.14-.06.27-.1.47-.48.41-.75-.02-.09,0-.26.04-.27.1-.03.24-.02.33.02.28.14.63.18.84.46.01.02.05.02.08.02.29.03.56.01.82-.15.18-.12.26-.28.19-.44-.06-.13-.25-.2-.45-.12ZM27.61,18.6c-.18.06-.47-.05-.56-.23-.02-.04,0-.1,0-.16.06,0,.12,0,.17,0,.04,0,.06.05.1.07.29.17.54.04.57-.29,0-.05.03-.1.04-.15.02,0,.04,0,.05,0,.03.06.08.11.09.17.03.2-.2.5-.45.58Z"/>
      <path class="cls-1" d="M25.14,30.56c.67-.13,1.33-.36,1.99-.56.22-.07.46-.14.54-.39.03-.09.02-.22-.03-.29-.04-.05-.18-.04-.26-.01-.62.2-1.24.43-1.86.62-.44.13-.9.18-1.33.33-.47.17-.93.13-1.4.11-.18,0-.38-.02-.59.15.15.04.26.09.37.1.34.02.67.03,1.01.03.52-.01,1.05.02,1.56-.08Z"/>
      <path class="cls-1" d="M30.25,25.66s.01.04.02.06c.23-.1.46-.2.68-.31.04-.02.07-.12.07-.18.02-.51-.65-.9-1.06-.92-.03,0-.06.03-.09.05-.24.18-.32.18-.57,0-.25-.17-.52-.34-.78-.49-.04-.02-.14-.02-.17,0-.03.03-.04.13-.02.17.06.1.14.19.23.27.1.1.23.16.33.26.26.26.52.52.78.78.16.16.3.35.57.3Z"/>
      <path class="cls-1" d="M18.88,21.6c-.08.04-.15.11-.24.13-.54.16-1.06.38-1.64.35-.06,0-.14.04-.18.09-.02.03.02.12.05.16.19.24.46.3.76.32.14-.02.28-.04.42-.06.23-.05.46-.09.68-.16.2-.06.4-.13.57-.24.21-.14.25-.36.14-.51-.11-.15-.35-.19-.56-.08Z"/>
      <path class="cls-1" d="M21.52,4.46c-.03.08-.04.15-.01.2.24.41.48.82.73,1.21.1.16.23.29.41.05.16.2.31.38.46.57.03,0,.05,0,.08,0,.02-.09.07-.2.04-.28-.1-.38-.19-.77-.36-1.12-.18-.36-.44-.69-.67-1.02-.03-.04-.11-.04-.17-.06,0,.06-.04.13-.02.19.04.13.1.25.16.37.17.35.33.7.35,1.15-.3-.5-.57-.95-1-1.27Z"/>
      <path class="cls-1" d="M27.34,20.16c.56-.06,1.08-.24,1.55-.54.07-.05.13-.21.11-.28-.05-.16-.2-.28-.38-.24-.24.06-.48.16-.72.23-.39.12-.78.24-1.2.2-.09,0-.18.03-.27.05.04.1.04.22.11.29.22.2.48.33.79.3Z"/>
      <path class="cls-1" d="M28.86,12.46c-.13-.03-.28.04-.42.07,0,0,0,.13.01.13.13.02.3.07.39.01.19-.12.28-.06.41.08.04.05.15.09.2.06.05-.02.07-.12.09-.16-.02-.1-.02-.17-.04-.23-.09-.38-.19-.75-.28-1.13-.09-.41-.15-.82-.24-1.22-.03-.15-.08-.35-.28-.3-.19.05-.13.27-.1.41.08.38.2.76.29,1.15.07.32.13.64.18.96.03.21-.02.21-.21.17Z"/>
      <path class="cls-1" d="M18.93,19.07c-.39.03-.78.08-1.17.14-.5.08-.99.23-1.43.49-.11.06-.19.17-.28.25.01.02.02.04.04.06.07-.01.15-.01.21-.04.15-.07.29-.18.45-.23.41-.13.82-.25,1.23-.35.41-.1.82-.12,1.24-.02.08.02.17,0,.25-.02.04,0,.1-.07.1-.09-.02-.05-.06-.1-.1-.11-.17-.04-.35-.09-.52-.08Z"/>
      <path class="cls-1" d="M20.59,4.39c0,.08,0,.18.03.24.27.44.55.89.84,1.32.12.17.27.32.42.48.03.03.1.05.15.05.02,0,.04-.06.09-.13-.17-.31-.33-.64-.54-.94-.23-.32-.51-.6-.78-.89-.05-.06-.14-.08-.21-.12Z"/>
      <path class="cls-1" d="M24.2,17.82c.02-.05,0-.12-.01-.18-.04-.02-.07-.03-.11-.05-.02.05-.03.1-.06.14-.2.3-.28.64-.32.99,0,.06,0,.13.02.19.11.34.21.68.35,1.02.03.08.16.12.24.18.02-.09.09-.18.07-.26-.09-.3-.19-.59-.31-.88-.1-.23-.16-.45-.05-.69.07-.15.13-.31.18-.48Z"/>
      <path class="cls-1" d="M26.89,17.09s0,0,.01,0h0s0,0,0,0Z"/>
      <path class="cls-1" d="M25.07,18.41c.17-.06.33-.14.45-.27.4-.42.9-.71,1.37-1.05-.89.04-1.4.6-1.82,1.31Z"/>
      <path class="cls-1" d="M26.9,17.09s0,0,0,0c0,0,0,0,.01,0,0,0-.01,0-.02,0Z"/>
      <path class="cls-1" d="M28.69,16.88c.07.02.15-.03.26-.06-.34-.32-1.49-.14-2.03.26.19-.04.39-.08.58-.11.39-.07.78-.2,1.19-.09Z"/>
      <path class="cls-1" d="M26.74,24.73c.15.02.3-.08.29-.24,0-.09-.15-.17-.28-.3-.15.14-.32.23-.34.34-.03.2.2.19.33.2Z"/>
      <path class="cls-1" d="M22.38,31.74c.11.03.22.07.32.1,0-.05.03-.12,0-.15-.09-.09-.2-.13-.33.04Z"/>
      <path class="cls-1" d="M11.67,30.71s0-.02,0-.03c-.74.05-1.48.07-2.22.16-.95.11-1.89.26-2.83.4-.29.04-.59.09-.88.15-.08.02-.14.12-.2.18.08.05.16.15.24.15.39-.01.79-.04,1.18-.09.59-.08,1.18-.2,1.77-.26.89-.1,1.79-.16,2.68-.24.29-.03.57-.05.86-.1.07-.01.12-.11.18-.17-.08-.05-.15-.14-.23-.15-.18-.02-.37,0-.55,0Z"/>
      <path class="cls-1" d="M5.4,35.05c-.1-.3-.2-.6-.28-.91-.1-.38-.2-.76-.29-1.14-.05-.2-.19-.38-.39-.43-.22-.06-.37.07-.33.29.06.35.14.69.21,1.03.08.37.17.73.27,1.09.08.27.49.63.71.63.21,0,.3-.14.2-.33-.04-.07-.07-.15-.1-.23Z"/>
      <path class="cls-1" d="M7.6,41.81c-.23-.09-.36-.26-.48-.45-.15-.23-.31-.45-.49-.65-.06-.06-.2-.04-.31-.06,0,.1-.06.22-.02.31.18.4.4.78.58,1.18.16.37.48.47.81.58.15.05.25-.03.26-.19-.03-.13-.04-.28-.1-.41-.06-.12-.14-.27-.25-.31Z"/>
      <path class="cls-1" d="M9.26,46.89c.57-.35.77-.95,1.01-1.52.02-.05-.07-.15-.12-.26-.12.1-.21.15-.26.23-.11.16-.2.34-.3.51-.17.29-.34.59-.5.88-.03.05,0,.13,0,.19.06,0,.13,0,.18-.03Z"/>
      <path class="cls-1" d="M8.82,43.03c-.14.01-.28.03-.42.04-.17,0-.29.07-.3.26,0,.17.18.34.35.32.27-.03.55-.08.82-.14.06-.01.15-.08.16-.13.01-.06-.03-.17-.08-.2-.16-.08-.34-.14-.51-.2,0,.02-.01.03-.02.05Z"/>
      <path class="cls-1" d="M6.46,19.58c.37.42.77.81.99,1.34.07.16.21.29.39.22.21-.08.39-.21.58-.32.13-.08.26-.18.38-.29.06-.05.13-.16.11-.21-.05-.15-.13-.3-.23-.42-.24-.3-.48-.59-.76-.86-.28-.27-.6-.5-1-.56-.06,0-.12,0-.17.03-.25.1-.51.2-.76.31-.12.06-.14.16-.04.26.17.17.36.32.51.5Z"/>
    </g>
  </g>
</svg>