<?xml version="1.0" encoding="UTF-8"?>
<svg id="Layer_2" xmlns="http://www.w3.org/2000/svg" viewBox="0 0 43.87 41.87">
  <defs>
    <style>
      .cls-1 {
        fill: #2c489e;
      }
    </style>
  </defs>
  <g id="Layer_1-2" data-name="Layer_1">
    <g>
      <path class="cls-1" d="M11.07,17.74c.02.05.06.16.15.1.06-.04.15-.16.13-.18-.13-.18-.06-.49-.36-.56,0-.14-.12-.17-.22-.23,0,0-.06.04-.06.06.01.13.1.19.21.22-.08.23.08.4.14.59Z"/>
      <path class="cls-1" d="M31.15,27.43c-.21.27.6.46.74.49.45.11.84.18,1.19.52.5.48.37,1.33.45,1.97.04.37-.01.72,0,1.08,0,.13.31.68.39.32.03-.12-.03-.28-.03-.4,0-.22.02-.44.06-.66.06-.38.16-.76.2-1.15.02-.16,0-.35.05-.5.05-.14.16-.25.09-.41-.12-.28-.08-.6-.21-.88-.21-.45-.89-.23-1.27-.26-.38-.03-.75-.12-1.11-.25-.28-.1-.4-.08-.6.16.01-.02.09-.12.03-.04-.27.34.09-.12,0,0Z"/>
      <path class="cls-1" d="M12.45,19.32c-.33.21-.06.33.04.44.14.15.28.05.41-.06.14-.1.13-.16.03-.28-.14-.18-.11-.41-.03-.59.06-.13.08-.25.07-.38.02-.09-.02-.13-.11-.13-.09,0-.13.03-.13.12-.1.24-.23.06-.34.01-.04.12-.05.22.07.3.25.18.17.43-.01.55Z"/>
      <path class="cls-1" d="M31.19,37.26c-.01-.47.03-.91-.12-1.34-.14-.39-.15-.82-.16-1.22,0-.32.08-.64.04-.96-.02-.2-.13-.3-.13-.5,0-.27-.05-.54-.1-.81-.21-1.11-.4-2.19-.71-3.28-.05-.17-.14-1.02-.36-.92-.46.22-.98.23-1.47.36-.6.17-1.11.02-1.63-.23-.3-.14-.59-.42-.96-.28-.29.11-.59.08-.88.1-.09,0-.19,0-.27.04,0,0-.02,0-.03.01-.14,0-.28-.04-.4-.11-.06-.04-.11-.09-.17-.13-.16-.16-.25-.38-.25-.6s.09-.44.25-.6c.11-.11.28-.21.44-.24.08-.03.18-.05.27-.05.12,0,.23.03.34.07.03,0,.05,0,.08,0l.36-.21c-.09-.07-.07-.06-.19-.12.08-.08.19-.06.17-.21-.02-.16-.36-.08-.47-.16-.35-.27-.02-.9.26-1.09.45-.3.62.2,1.06.26.23.03.4-.13.62-.14.22-.01.41.13.63.16-.02.25-.64.05-.79.33-.04.07-.17.39-.17.38.03.05.15.04.2,0,.24-.17.57-.09.84-.15.4-.09.82-.1,1.21-.24.08-.03.52-.36.3-.44-.27-.11-.78-.02-1.07-.02.03-.35,1.07-.24,1.34-.24.11,0,.26-.14.27-.24.02-.17-.13-.15-.12,0-.54,0-.99.23-1.55.08-.26-.07-.52-.16-.8-.2-.22-.03-.47.04-.67-.09.17-.06.39-.04.57-.06.33-.04.66-.1.98-.15.22-.03.43-.12.65-.12.15,0,.32.03.45-.04.28-.15.58-.36.62-.66.35-.05.35.12.53.39.12.18.26.47.44.29.18-.18-.34-1.21-.26-1.03-.15-.32-.48.22-.77.16-.18-.03-.35-.12-.54-.08-.18.04-.27.22-.46.24-.43.05-.86-.07-1.29,0-.14.02-.22.17-.38.14-.2-.03-.4-.02-.6.01,0-.31,0-.3.29-.44.23-.11.37-.26.55-.45.37-.37.72-.07,1.01.22l.06-.29c.06.09,0,.19.15.19.11,0,.22-.21.24-.31.08-.34-.08-.65.27-.88-.05-.02-.11-.04-.16-.06.14-.12.29-.24.43-.36-.02-.43-.64-.41-1.01-.37-.38-.02-.74.1-1.09.23-.06.02-.33.08-.3.21.02.08-.1.16-.19.17-.42.04-.79-.58-.97-.88-.29-.47.32-.77.28-1.24-.08.03-.15.07-.22.1.1-.16-.14-.08-.26-.15-.13-.07-.09-.23-.06-.34.12-.21.12-.47.01-.84-.06.07-.11.14-.15.21l-.09-.43h-.32s0-.02,0-.03c.32-.2.54-.46.63-.84.03-.1.04-.38.29-.17.08.07.18.13.25.01.1-.16.37-.24.28-.47-.13-.32-.31-.64-.51-.92-.15-.22-.03-.29.12-.35.26-.1.43-.29.61-.48.11-.12.1-.28,0-.35-.12-.08-.25-.18-.43-.18-.71.01-1.42-.02-2.12.14-.17,0-.34,0-.52,0-.31.02-.65-.13-.91.13-.26.24-.53.47-.83.65-.18.11-.32.34-.53.32-.64-.07-1.36.44-1.68.97-.19.32-.46.82-.51,1.19-.04.32.19.64.33.9.06.12.14.56.35.43.17-.11.22-.6.54-.29.29.28-.05.49.05.78.03.1.23-.02.3,0,.14.05.32-.04.4.15-.18.01.01.19.14.09.13-.12.38-.24.45-.4.03-.07.09-.3-.03-.33-.17-.04-.13.32-.29.27,0-.47-.21-1.29.3-1.58.26-.15.53-.1.66.19.16.36.43.39.71.19.14-.1.2-.32.43-.27.17.19.34.18.51,0,.27-.03.49-.14.63-.38.04.01.08.02.11-.03.02-.04.01-.1-.03-.09-.12.01-.27-.06-.35.11-.26,0-.55.07-.77-.03-.34-.16-.54.01-.79.16-.05.03-.1.14-.13.08-.08-.13-.26-.17-.28-.33-.02-.14.1-.2.2-.25.38-.16.68-.44.99-.73.1.27-.08.62.29.75.13.18.25.18.37,0,.16-.08.31-.18.45-.3.11-.09.24-.19.31.04,0,.17,0,.33,0,.5.02.26-.07.5-.13.75-.03.01-.08.02-.1.04h-.08l-.25.74c-.24.22.38.28.45.72.07.44,0,.95-.14,1.36-.26.73-1.07,1.2-1.79,1.37-.3-.05-.66-.02-.87-.3-.19-.26-.44-.45-.71-.63-.58-.39-1.17-.67-1.87-.67.08-.25.66-.57.25-.74-.33.1-.66.25-1.02.25s-.4-.07-.61-.34c-.36-.45-.3-.79-.35-1.34-.03-.33.17-.45.39-.67.19-.18,0-.22-.15-.38-.11-.11-.21-.22-.33-.32-.46-.4-.42-1.18-.52-1.76.16-.36,1.15.41,1.63.89.16.16.37.55.57.37.29-.27-.15-.36-.22-.65-.09-.37.37-.76.1-1.09-.29-.34-.4-.97-1.1-.75.2-.06-.08.41-.12.62-.12-.12-.25-.25-.37-.37l-.49-.37-.16-.27c.09-.03.18-.07.28-.11-.18-.08-.33-.12-.46-.21,0,0,0,0,0,0l-.12-.21s.03-.03.05-.05c.09-.07.06-.2-.02-.29-.14-.15-.28-.3-.46-.49-.1.55-.35.94-.88,1.1-.06.02-.09.1-.14,0-.12-.24-.24-.12-.35,0-.1.1-.21.23-.35.16-.11-.06-.27-.12-.28-.28,0-.17.14-.24.27-.32.14-.1.32-.16.35-.39.05-.36.1-.74.44-.99.48-.35-.47-.48-.65-.49.42-.26.56-.69.73-1.13.03-.09.32-.52.16-.58-.22-.08-.27.19-.43.31-.57.44-.15-.22-.38-.43-.02-.02-.21-.1-.05-.15.08-.02.03-.15.13-.15.06,0,.31-.37.05-.37-.22-.3-.29-.64-.26-1,.01-.14,0-.29,0-.44,0-.45.35-.8.8-.79.3,0,.59.08.88.1.62.05,1.22.21,1.83.3.2.03.42.07.62.12.53.15,1.07.3,1.6.48.41.13.81.3,1.22.44.3.1.55.31.88.32.02.19.22.17.31.21,1.04.47,1.94,1.15,2.83,1.86.46.37.95.69,1.42,1.05.49.37.97.75,1.45,1.13.25.2.27.54.14.87-.12.31-.36.54-.46.86-.07.23-.06.48-.2.69-.17.23-.24.5-.25.78-.18.17-.19.34,0,.51.1.37.37.62.63.86.26.24.49.48.63.79.23.51.62.9.99,1.3.05.05.11.15.24.11.39-.13.7-.32.98-.66.58-.73.91-1.52.9-2.45,0-.19-.01-.37,0-.56.08-.89-.21-1.76-.13-2.64.01-.11-.04-.19-.15-.25-.35-.2-.77-.21-1.08-.06-.5.23-.99.18-1.49.19-.06,0-.09-.04-.14-.08-1.14-1.03-2.32-2.02-3.56-2.92-.93-.68-1.88-1.33-2.92-1.83-.78-.41-1.6-.73-2.43-1-.79-.26-1.6-.47-2.42-.61-.69-.12-1.39-.18-2.09-.27-.27-.03-.54-.01-.79-.2.4-.36.79-.72,1.2-1.06.2-.17.38-.27.63-.24.25.03.45-.05.6-.24.09-.11.22-.14.37-.14,1.05,0,2.09,0,3.14,0,.11,0,.24,0,.34.03.54.18,1.1.25,1.67.22.45-.02.73-.69.84-1.05.16-.5.31-.69.85-.69.07,0,.7.03.7.02-.05.13.52.4.62.46.33.21.65.43.94.67.23.19.47.52.8.53-.03-.39-.25-.58-.56-.78-.18-.13-.36-.26-.47-.47-.06-.12-.06-.38-.21-.42-.21-.06-1.12-.61-1.31-.72-.16-.1-.38-.07-.53-.2-.48-.43-1.06-.65-1.66-.86-.82-.29-1.67-.4-2.52-.46-.61-.04-1.22-.01-1.83,0-.08,0-.17,0-.24.02-.51.19-1.04.31-1.56.48-.32.11-.65.2-.97.32-.46.18-.89.46-1.39.57-.27.06-.55.13-.73.39-.06.09-.2.14-.32.19-.8.33-1.63.6-2.35,1.12-.75.55-1.34,1.19-1.29,2.21.01.27-.02.53.12.79.19.36.16.36-.23.54-.2.09-.48.1-.47.44.04,0,.08,0,.12,0,.08,0,.12-.16.2-.06.06.08-.03.15-.1.22-.18.21-.28.46-.27.74-.21.08-.08.25-.11.38,0,.21,0,.41,0,.62,0,.29,0,.58,0,.87,0,.53,0,1.07,0,1.61-.05.25,0,.5,0,.75.03.17-.12.38.11.51.08.47.15.93.23,1.4.09.52.28,1,.42,1.49.03.1.09.24.27.23.39-.01.75.14,1.11.27.28.1.54.3.59.63.04.32.21.52.49.7,0-.22.12-.38.13-.57.01-.21.14-.18.25-.13.06.03.12.07.19.09.34.08.62.23.85.44l-.16.08c.1.07.19.14.28.23.34.34.54.81.54,1.3,0,.09,0,.18-.02.27.04.15.06.3.06.45,0,.31-.08.61-.22.88-.02.24-.09.47-.2.68l.14.03-.09.27c-.15.06-.32.09-.48.12-.15,0-.24.08-.34.23h.21c-.06.04-.12.08-.19.12h.15c.06-.05.13-.09.21-.12h.09c.33.08.72.05.93.41.07.11.13.23.19.35,0,.08,0,.16-.02.25-.16.16-.36.12-.56.13-.12,0-.25.01-.37,0-.2-.03-.24.12-.16.21.16.19.04.44.2.62.05.05.04.18-.05.29-.22.26-.36.57-.58.83-.16.18-.26.42-.57.46-.21.02-.43.13-.62.25-.79.47-1.54,1-2.24,1.59-.19.15-.38.28-.64.23-.17-.18-.33-.18-.5,0-.33-.03-.67.04-.95.17-.46.21-.86.53-1.29.8-.75.48-1.54.79-2.44.78-.34,0-.68,0-1.03,0-.22,0-.38.11-.55.23-.07.05-.1.07-.06.16.12.33-.53.13-.93.82-.25.43-.99,3.24-1.09,4.01-.11.92.08,1.13.17,1.72.08.48,4.87,1.55,5.23,1.6.92.11,1.82.29,2.71.57.84.27,1.77.31,2.64.49.44.09.88.2,1.33.26.38.05.85.05,1.14.34.36.37.9-1.58,1.37-1.22,0-.54,0-1.02,0-1.5,0-.22.4-.62.6-.61.05,0,.09.02.13.07.29.42.69.74,1.02,1.13.07.09.16.19.3.15.56-.13.96.15,1.32.53.06.06.13.08.18.15.02.03.12.05.14.03.15-.2.41-.24.58-.42.11-.12.02-.16-.02-.23-.53-.8-1.07-1.6-1.63-2.44.51,0,.95.18,1.39.32.23.07.28-.02.36-.15.49-.8.98-1.59,1.46-2.4.44-.74.86-1.48,1.28-2.23.17-.31.23-.35.48-.11.22.21.4.24.69.13.2-.08.45-.09.69.03.67.35.71.33,1.28-.19.13-.11.25-.22.37-.35.11-.11.24-.18.42-.17.47.03.93,0,1.38-.22.22-.11.99-.56.93-.03-.06.57-.02,1.13-.14,1.7-.23,1.15-.68,2.26-1.18,3.32-.36.76-.75,1.51-1.2,2.22-.46.72-.84,1.5-1.61,1.98-.51.31-.97.7-1.45,1.05-.4.29-.82.57-1.19.9.23.17.5.14.73.22.47.16.95.22,1.43.32.47.11.94.2,1.41.3.22.05.48.01.67.14.24.16.29-.02.37-.16.03-.06.02-.15.05-.21.42-.79.7-1.64,1.1-2.44.29-.59.55-.98,1.06-1.41.15-.12.39-.41.56-.15.19.3.3.65.39,1,.05.21-.04.51.25.57.04,0,.53.29.46.02-.05-.2-.14-.38-.2-.58-.1-.36-.03-.81-.02-1.19.19.12.39.23.58.35.09-.46-.21-.88-.05-1.35.13.15.35.13.45.31.1.18.12.4.15.6.09.53.16,1.11.38,1.61.35-.23.32-.56.35-.92,0-.05,0-.65-.09-.67.05.03.07.07.06.12-.15.02-.08-.12-.06-.12.03,0,.09.09.06.12-.04,0-.07-.01-.09-.04,0-.24.21.18,0,0,0-.24.21.18,0,0,0-.24.21.18,0,0,0-.24.21.18,0,0,0-.24.21.18,0,0,0-.24.21.18,0,0,0-.24.21.18,0,0,0-.24.21.18,0,0,0-.24.21.18,0,0-.01-.47.21.18,0,0-.01-.47.21.18,0,0-.01-.47.21.18,0,0-.01-.47.21.18,0,0ZM24.14,15.96c-.16,0-.2-.1-.2-.24,0-.1.04-.14.14-.14.16,0,.18.14.24.18,0,.18-.08.2-.18.2ZM24.12,15.35c-.4.09-.79.26-1.18.41-.37.14-.73.3-1.1.46-.31.2-.51-.3-.23-.49.26-.18.53-.35.81-.5.16-.09.28-.21.42-.32.15-.11.3-.22.51-.2.26.02.47-.22.75-.13.21.07.48.06.48.37,0,.3-.2.34-.46.39-.4.09.26-.06,0,0-.4.09.26-.06,0,0Z"/>
      <path class="cls-1" d="M10.89,20.28c.37.09.71.29,1.09.3,0,.14.12.13.2.12.27-.04.49.02.63.27.06.11.13.12.23.08.19-.07.37-.15.56-.23.08,0,.13-.03.13-.12,0-.09-.05-.12-.13-.12-.09.02-.24-.08-.25.11-.41-.08-.82-.16-1.23-.23-.28-.24-.53-.5-.63-.88,0-.08,0-.17,0-.25.2-.26.44-.5.53-.84.02-.08.15-.18.07-.25-.09-.08-.26-.08-.35-.01-.47.34-.93.71-1.1,1.3-.08.28.04.7.26.75Z"/>
      <path class="cls-1" d="M32.13,30.54c.22.21.6.55.94.51.38-.05.04-.37-.09-.47-.16-.12-.39-.36-.61-.37-.23-.01-.29.29-.16.41-.02-.02-.16-.15-.08-.07.23.22-.14-.13,0,0Z"/>
      <path class="cls-1" d="M22.34,36.88c.32-.05.7-.06.81-.49.06-.26.23-.38.5-.42.08-.01.24,0,.32-.16-.34-.07-.56-.33-.87-.44-.11-.04-.19-.18-.12-.33.15-.32.28-.65.45-.96.25-.44.07-.73-.46-.79-.06,0-.13-.03-.14.06,0,.13-.14.21-.14.36,0,.16-.09.26-.27.34-.24.1-.47.09-.71.09.03-.12-.04-.12-.12-.1-.03,0-.05.03-.08.04.06.07.07.2.2.19.21.15.34.37.5.56.13.15.07.22-.04.32-.34.34-.8.32-1.22.35-.32.03-.55.23-.6.45-.14.6-.41,1.13-.64,1.69-.1.02-.13.08-.11.17,0,.02.04.03.06.04.04-.09.21-.06.17-.21.02,0,.04,0,.06-.02.28-.23.47-.52.57-.87.03-.12.07-.28.3-.14.16.1.29.28.51.27.35,0,.71.03,1.06-.02Z"/>
      <path class="cls-1" d="M27.45,3.94s-.02,0,0,0c0,0,0,0,0,0Z"/>
      <path class="cls-1" d="M34.66,30.23c0,.54.58,1.17,1.15,1.06.26-.05.68-.08.89.12.23.22.31,0,.59,0,.25,0,.59-.07.57-.42-.01-.16-.28-.29-.33-.48-.05-.2-.14-.44-.4-.3-.25.14-.32.14-.23-.23.05-.23-.21-.66-.41-.77.22-.05.36.05.55.13.23.1.39-.07.6-.15.14-.04.17.05.29.14.12.09.32.06.19-.1-.33-.46-1.48-.48-1.98-.54-.33-.03-.41-.08-.54-.41-.09-.24-.71.04-.32.26.21.12.18.28-.01.42-.23.16-.12.39-.27.55-.1.11-.39.1-.45.23-.06.14.11.5.11.6,0-.02,0-.13,0-.1,0,.53,0-.09,0,0Z"/>
      <path class="cls-1" d="M38.67,30.79c.21,0,.05.13.18.23.16.12.43.2.61.29.28.15,1.38.26,1.69.34.27-.18-.03-.44-.1-.64-.09-.27-.01-.56-.36-.27-.17.14-.54.13-.69-.02-.17-.16.31-.5.39-.65.24-.45.49-.02.51-.03-.18.13.08.28.26.27.33,0,.34-.29.52.08.13.28.53.3.7.55.09-.31-.16-.38-.35-.53-.18-.15-.27-.43-.46-.55-.19-.13-.4-.05-.59-.22-.28-.24-.45-.3-.8-.37-.22-.05-.38-.29-.62-.19-.25.11-.38.36-.65.44-.1.03-.46.1-.46.25,0,.12.13.17.18.26.08.16.17.32.18.5-.11,0-.24-.02-.35.02-.11.04-.16.16-.26.21.17,0,.34.02.52.03-.02,0-.13,0,0,0,.05,0-.14,0,0,0Z"/>
      <path class="cls-1" d="M30.25,20.71c.13.15.26.33.48.35.1,0,.32-.11.34-.21.08-.48-.37-.38-.48-.78-.03-.07-.04-.15-.03-.22,0-.14-.12-.1-.11-.23.02-.24-.23-.15-.19-.08.08.17.07.35.07.53-.02.17-.19.51-.07.64.13.15-.1-.11,0,0Z"/>
      <path class="cls-1" d="M31.44,31.78s0-.01,0,0c0,0,0,0,0,0Z"/>
      <path class="cls-1" d="M31.18,32.16c.02.29.28.58.41.84.17.32-.02.69-.06,1.02-.08.77.54,1.13.78,1.77.11.29,0,.46-.15.68-.18.27-.04.23.09.44.36.58,1.02.96,1.21,1.63.37-.25.26-.64.09-.98-.26-.54-.54-1.08-.79-1.62-.23-.49-.5-.98-.72-1.47-.04-.09-.18-.75.06-.49.14.28.2.61.41.84.23.25.28.63.47.94.42.71.88,1.46,1.11,2.27.42-.36-.08-1.03-.3-1.37-.35-.54-.66-1.04-.94-1.63-.12-.24-.39-.58-.42-.82-.01-.12-.08-.22-.17-.3-.12-.12-.06-.26-.17-.41-.3-.42-.68-1.17-.66-1.71-.17.07-.3.18-.25.38.02.27-.05-.22,0,0,.01.15-.05-.22,0,0Z"/>
      <path class="cls-1" d="M43.06,33.93c-1.06-.37-2.02-.99-3.12-1.27-1.23-.32-2.52-.29-3.78-.25-1.11.04-2.39-.24-3.43-.62-.52-.19-.88-.56-1.3-.9-.17-.14-.69-.68-.61-.97.26,0,.62.17.81.35.08.08.46-.28.53-.33.16-.12.35-.11.54-.16.25-.07-.14-.34-.21-.5-.24-.58-.64-1.36-1.38-.88-.2.13-.71.4-.72.68,0,.28.33.48.44.72-.54.01.51,1.82.63,1.96.77.95,1.38,2.11,2.04,3.16.03-.18-.03-1.56.13-1.59.31-.06.73.13,1.02.22.51.16,1.05.21,1.56.37.52.16.52.64.67,1.09.04-.19.08-.9.27-.96.19-.06.53-.06.72.04.13.07.28.25.41.05.06-.1.15-.38.28-.41.25-.05.49.2.72.25.39.09,1.08.14,1.4.41.27.24.1.75.05,1.05-.12.86.18,1.7.18,2.57,0,.12,0,.54.23.36.06-.05.02-.34.03-.4.03-.28.11-.55.18-.82.11-.43.27-.9.12-1.34-.12-.36-.07-.83-.08-1.22-.01-1.09,1-.14,1.39.12.28.18.82-.13.65-.48-.13-.27-.48-.34-.74-.43.11.04.34.12.39.13-1.07-.37.17.06,0,0Z"/>
      <path class="cls-1" d="M43.86,32.69c-.07-.12-.08-.45-.2-.6-.27-.35-.65-.58-.96-.88-.06.09-.05.2-.06.31-.2.03-.23-.25-.29-.37-.11.12-.26,1.01-.02,1.02.1,0,.98.29,1.02.38.05.11.18.06.25.14.06.07.03.17.12.21.04-.1.2-.11.13-.24,0,0,.05.09.02.03-.07-.12.05.09,0,0Z"/>
      <path class="cls-1" d="M12.3,22.52s.14.09.18,0c.03-.05.07-.16-.01-.19-.14-.06-.18-.27-.37-.25-.03,0-.06,0-.08.02.02-.02.04-.04.08-.02,0-.08-.06-.11-.12-.12.03-.11-.16-.12-.12-.25,0-.09,0-.18,0-.27-.04-.26-.15-.42-.44-.5-.43-.11-.8-.34-1.04-.73-.04-.07-.07-.17-.16-.11-.03.02-.17.13-.01.26.21.18.36.44.55.64.35.37.68.77,1.1,1.07.03.04.01.1.08.11.04,0,.06-.02.07-.05-.06.23.2.26.28.4ZM12.02,22.09h0s0,0,0,0Z"/>
      <path class="cls-1" d="M10.01,18.83c-.09.01-.2-.04-.26.03-.04.06,0,.15.07.2.05.03.05.08.06.13,0,.09,0,.18,0,.27,0,.14.1.11.17.1.09,0,.07-.09.07-.14,0-.16,0-.31,0-.46,0-.08,0-.15-.11-.14Z"/>
      <path class="cls-1" d="M27.45,19.13c-.29.11-.56.24-.84.37-.04.02-.55.29-.18.33.19.27.36.23.64.17.28-.06.57-.03.85-.07-.06-.14-.26-.88-.48-.8-.34.13.13-.05,0,0Z"/>
      <path class="cls-1" d="M41.9,30.78c-.29,0-.24,1.08-.25,1.25,0,.2-.03.44.13.58.23.2.57.02.73-.18-.46-.09-.68-.31-.59-.78.03-.16.24-.87-.06-.87.01,0,.13,0,.03,0-.27,0,.13,0,0,0Z"/>
      <path class="cls-1" d="M10.49,16.7c-.18-.14-.42-.07-.6-.15-.49-.22-.73-.14-.9.32-.04.12-.08.25-.17.33-.2.19.02.32.07.45.06.14.26.07.39.05.18-.03.06-.2.08-.31.02-.1,0-.21,0-.31,0-.14.1-.22.21-.24.12-.02.23-.03.33.12.11.16.04.32.06.47-.17.17-.29.37-.36.6-.01.05-.05.16.05.18.07.02.13,0,.2-.07.15-.17.09-.39.22-.56,0-.05,0-.12.03-.15.14-.18.03-.52.36-.58.05,0,.11.02.12-.05.02-.1-.08-.06-.12-.09Z"/>
    </g>
  </g>
</svg>