<?xml version="1.0" encoding="UTF-8"?>
<svg id="Layer_2" xmlns="http://www.w3.org/2000/svg" viewBox="0 0 16.84 47.22">
  <defs>
    <style>
      .cls-1 {
        fill: #2c489e;
      }
    </style>
  </defs>
  <g id="Layer_1-2" data-name="Layer_1">
    <g>
      <path class="cls-1" d="M5.66,25.25s0,.04,0,.06c0,.08.01.16.02.24,0-.1-.02-.2-.02-.3Z"/>
      <path class="cls-1" d="M16.83,44.91c-.06-.62-.21-1.24-.36-1.85-.38-1.62-1.17-3.07-1.92-4.54-.53-1.04-1.21-2.01-1.87-2.98-.38-.57-.84-1.09-1.31-1.59-.51-.54-1.16-.65-1.77-.32-.34.18-.64.44-.96.66.26-.12.51-.25.8-.39.01.07.05.19.04.19-.35.15-.71.29-1.07.43-.39.32-.96.39-1.24.88-.02.04-.18.01-.27-.02-.66-.24-.96-.75-.95-1.41.03-1.6.11-3.21.14-4.81.04-1.94.07-3.87.07-5.81,0-1.63-.02-3.26-.05-4.9-.01-.75-.05-1.5-.08-2.25-.04-.88-.24-1.76.05-2.64-.08.2-.15.4-.23.61-.04,0-.08,0-.13-.01,0-.28-.1-.63.02-.83.16-.26.49-.51.78-.58.96-.23,1.94-.38,2.91-.55.03,0,.07.01.1.04.2.18.2.18.28-.11.38.4.88.2,1.27.34.13.1.26.21.39.31.04-.05.09-.11.15-.19.06.1.1.19.14.27.02-.03.03-.06.05-.1.13.05.25.09.39.14.03-.04.08-.1.17-.22v.5c.08-.06.2-.11.22-.18.03-.18.01-.38.01-.57.02,0,.04,0,.06,0l.06.54s.06.03.08.05c.02-.06.04-.11.06-.17.01.41.24.35.48.26.04-.22.09-.42.28-.61.14-.15.23-.12.37-.08h0s.05-.09.07-.14c-.02.05-.05.1-.07.14,0,.07,0,.14,0,.22.58-.5.76-1.22,1.01-1.88.74-1.98,1.2-4.03,1.41-6.14.1-1.01.18-2.02.02-3.04-.14-.92-.74-1.51-1.67-1.56-1.46-.08-2.92,0-4.35.34-1.21.28-2.41.62-3.49,1.28-.54.33-1.15.55-1.69.89-.36.23-.74.52-.95.87-.25.41-.34.91-.49,1.38-.61,1.88-1.25,3.76-1.81,5.65-.4,1.37-.71,2.78-1.02,4.17-.17.75-.28,1.51-.39,2.27-.19,1.33-.4,2.65-.52,3.99C0,21.91,0,22.97,0,24.02c0,1.18.02,2.37.08,3.55.04.98.1,1.96.23,2.93.2,1.46.42,2.93.74,4.37.38,1.73.86,3.45,1.34,5.16.41,1.44.88,2.87,1.34,4.3.07.21.18.46.35.56.85.48,1.71.98,2.61,1.36,1.94.83,3.98,1.13,6.09.93.32-.03.67.09.98.01.7-.18,1.4-.38,2.05-.68.63-.29,1.09-.82,1.02-1.58ZM16.35,1.58s.03,0,.04-.01c.04.37.08.74.11,1.1-.13.04-.23.06-.31.08.05-.39.1-.78.16-1.17ZM14.35,10.88c.04-.16.08-.33.11-.5.03-.17.04-.34.12-.49,0,.38-.1.8.03,1.13.17.42-.06.66-.19.96-.02.05-.11.08-.17.12-.03,0-.04,0-.05.03-.03,0-.06,0-.09,0-.01-.03-.02-.06-.03-.08.09-.39.19-.78.28-1.17ZM14.05,12.05c0,.05-.01.1-.02.15.02,0,.05,0,.07,0,0,.03,0,.05,0,.08-.03,0-.06,0-.08,0,0-.02,0-.05,0-.07-.02,0-.05.01-.07.02.04-.06.07-.12.11-.18ZM13.56,6.64s.03,0,.04,0c.03.43.14.88.08,1.3-.05.4-.27.77-.42,1.15-.05-.01-.09-.03-.14-.04.14-.81.29-1.61.43-2.42ZM13.01,7.5c-.08.42-.17.92-.26,1.42-.22-.05-.39-.08-.55-.12-.44-.1-.62-.47-.82-.81-.02-.03.12-.23.22-.26.27-.09.55-.14.83-.19.19-.03.39-.03.59-.04ZM12.16.21s.02.07.03.1c-.08.01-.16.02-.24.03-.39.06-.78.1-1.16.19-.67.16-1.35.24-1.95.67-.37.27-.86.38-1.3.56.39-.56,2.06-1.33,4.62-1.55ZM6.63,35.59c.1.04.2.09.32.14-.46.1-.95-.11-1.17-.55-.14-.28-.2-.6-.29-.9.04.06.09.12.11.18.13.58.53.9,1.04,1.13ZM5.82,16.66s.08,0,.11,0c.04.45.09.9.11,1.35.03.93.07,1.86.05,2.79-.02.66-.14,1.33-.19,1.99,0,.14.08.28.12.42.01.05.03.12.01.14-.38.39-.21.91-.11,1.27.19.64.03,1.25.06,1.88-.02-.09-.04-.19-.06-.28-.02,0-.05,0-.07.01.06.35.12.71.19,1.12-.12-.05-.18-.08-.33-.14.47.39.31.83.3,1.24,0,.7-.04,1.4-.07,2.09,0,.12-.05.25-.09.41-.23-.14-.28-.21-.25-.46.06-.54-.05-1.09-.06-1.64,0-.34.03-.69.05-1.03,0-.01.11-.01.15-.02-.35-.83-.07-1.68-.1-2.52-.23-2.57.14-5.14-.12-7.7.04,0,.08,0,.12,0,.01.2.02.4.04.65.04-.57.08-1.08.12-1.6ZM5.61,4.44c.21-.52.48-1.03.74-1.53.09-.18.12-.16.25,0-.03.06-.06.12-.08.18-.26.19-.45.41-.36.68-.36.47-.34,1.02-.65,1.46.03-.27.02-.56.12-.8ZM5.47,32.39v1.74c-.03-.58-.05-1.16-.08-1.74.03,0,.05,0,.08,0ZM4.74,28.01c0-.18.04-.37.13-.55v5.33s.05,0,.07.01c.05-2.14.09-4.29.13-6.43.02,0,.04,0,.06-.01.02.07.06.14.06.22,0,1.44.02,2.89,0,4.33-.01.81-.09,1.62-.12,2.44-.01.33.04.66.07.99,0,.08,0,.16-.01.23-.03.11-.08.21-.21.34-.06-.33-.18-.66-.18-.99-.01-1.97,0-3.93,0-5.9ZM4.56,27.08s.04,0,.07,0v1.9s-.04,0-.07,0v-1.9ZM2.94,40.74c-.06-.17-.11-.35-.17-.52l-.1.02c.05-.11.11-.22.22-.43.07.38.11.66.16.93-.04,0-.07,0-.11,0ZM3.7,29.68c.04.32.1.55.09.78,0,.15.39.33.06.42.13.49.3.96.38,1.43.13.82.18,1.64.3,2.46.03.23.09.52.44.53h0s.03.03.04.04c0,0,0,0,0,.01,0,0,.02,0,.03,0,0,0,.01.01.02.02v-.02s.01,0,.02,0c.06.1.11.23.2.3.11.09.26.13.33.16-.32.39-.61.72-.89,1.06.17-.34.33-.67.5-1.01-.45.39-.69.89-.76,1.48.04-.08.09-.16.13-.24-.04.08-.09.16-.13.24-.08.21-.15.42-.25.69-.66-.87-.56-6.12-.5-8.37ZM6.1,45.57c.23.13.46.27.69.4-.89-.89-1.54-1.95-2.06-3.11-.01.3.26.58.01.87-.34-.28-.42-.63-.5-1.07-.06-.39.07-.76-.07-1.16-.18-.51.09-1.06.16-1.58.06-.45.41-.86.64-1.29.08-.14.17-.27.27-.4.01-.02.06,0,.17-.02-.12.22-.23.39-.29.57-.03.1.03.22.05.33.18-.37.46-.63.86-.89-.02.55-.36.76-.65,1.01.12.1.09.14-.04.24-.34.28-.46,1.24-.27,1.66.04.08,0,.25-.08.31-.24.22-.09.36.05.52.07.08.16.18.16.27.02,1.12.55,2.03,1.26,2.84.5.57,1.08,1.06,1.58,1.54-.67-.16-1.41-.4-1.94-1.05ZM10.39,33.54c.12.03.22.08.34.12.22.15.45.28.67.44.1.08.18.19.28.27.23.2.38.41.17.71-.02.02-.04.07-.03.09.09.22.2.44.29.66,0,.02,0,.05,0,.07.02,0,.04,0,.06,0,0-.02,0-.05,0-.07.03.03.05.06.08.08-.02,0-.05,0-.07,0,0,.02,0,.04,0,.07.02,0,.05,0,.08,0-.1.13.41.13.07.32-.05-.1-.11-.21-.16-.31h.01s0,0,0,0c0,0,0,0-.01,0-.02-.02-.04-.04-.06-.06,0,0,0,0,0-.01h-.01.01c-.02.06-.04.12-.06.17-.13-.26-.32-.5-.36-.77-.06-.4-.31-.64-.58-.88-.04-.03-.17.04-.2,0-.12-.12-.21-.27-.31-.41-.07.13-.11.24-.31.1-.12-.08-.35-.02-.53-.02-.07-.42.19-.66.64-.56ZM12.74,42.2c-.11-.12-.21-.26-.34-.37-.08-.07-.2-.1-.3-.15-.02.65-.5.8-1,.93-.24.06-.54.03-.55.53-.29-.62-.53-1.12-.75-1.58.43-.29.76-.54,1.12-.75.1-.06.28-.01.41.04.29.11.59.22.64.6,0,.03.08.05.12.08-.05-.14-.06-.3-.15-.4-.15-.17-.17-.29.06-.45.27.49.54.99.8,1.48-.02.01-.04.03-.06.04ZM13.2,42.24c-.35-.63-.7-1.25-1.05-1.88.04-.02.08-.04.12-.07.27.67,1.06,1.05.93,1.95ZM15.38,42.7c-.12-.19-.24-.38-.36-.57-.1-.2-.21-.4-.31-.6-.08-.06-.15-.12-.23-.18.02,0,.04,0,.06,0-.02-.2-.03-.4-.05-.6,0,0,0,0,0,0,.02-.02.04-.04.06-.06-.02,0-.04-.01-.06-.02,0-.02,0-.05,0-.07.02,0,.04-.02.06-.02-.07-.17-.14-.34-.22-.51-.03.07-.05.15-.08.22.03.05.06.1.08.15.02.03.04.06.06.08-.02,0-.04.02-.06.01,0,.02,0,.04,0,.05.02,0,.04,0,.06,0,0-.02,0-.04,0-.07.02.02.04.04.06.07-.02,0-.04.01-.06.01,0,.02,0,.05-.01.07-.02.01-.04.02-.06.01-.05.05-.11.1-.16.14-.05-.1-.11-.21-.16-.31.08.03.15.05.23.08-.01-.02-.02-.04-.01-.06,0-.08.01-.16.02-.25h0s0,0,0,0c-.05-.05-.1-.1-.15-.15h0s0,0,0,0c0,0,0,0,0,0h0s-.05-.05-.07-.07c0,0,0,0,0,0,.02.03.05.05.08.08.03-.05.07-.11.1-.16-.08-.02-.17-.04-.25-.06v.07h-.01s0,0,0,0h0s0,0,.01,0c-.02.01-.04.01-.07.01-.03.05-.06.09-.1.14-.13-.25-.26-.5-.39-.76-.05-.1-.1-.21-.14-.32,0-.15,0-.31,0-.46-.27-.16-.17-.38-.1-.6-.43-.35-.72-.8-.89-1.32,0-.07,0-.15,0-.22,0,.07,0,.15,0,.22.02-.08.04-.15.07-.23.16.18.34.34.49.53.25.3.48.61.71.92.03.04.03.09.05.14.2.29.44.57.6.88.28.54.52,1.1.76,1.66.05.11.01.26.01.38l.32.83c.09.28.18.56.26.84-.05.03-.1.05-.15.07ZM14.47,40.67s0,.04,0,.06c-.02-.02-.04-.04-.07-.06.02,0,.04,0,.06,0ZM16.53,44.91c-.06-.35-.13-.71-.17-.98.07-.18.11-.29.14-.38.31.66.3,1.26.03,1.36Z"/>
      <path class="cls-1" d="M10.92,12.92c.51.14,1.02.29,1.58.45-.06-.09-.08-.13-.11-.17-.49-.11-.97-.22-1.46-.33,0,.02,0,.03-.01.05Z"/>
      <polygon class="cls-1" points="12.4 13.2 12.4 13.2 12.4 13.2 12.4 13.2 12.4 13.2 12.4 13.2 12.4 13.19 12.39 13.19 12.4 13.2"/>
      <polygon class="cls-1" points="14.54 41.34 14.54 41.34 14.54 41.34 14.54 41.34"/>
      <path class="cls-1" d="M14.03,12.22s0,0,0-.01c0,0-.01,0-.02,0h.01Z"/>
      <path class="cls-1" d="M14.01,12.2v.02s0,0,.01,0h-.01Z"/>
      <path class="cls-1" d="M12.18,35.91h0s0-.01-.01-.01h0s0,.01.01.01Z"/>
      <path class="cls-1" d="M14.71,41.15s0-.07,0-.1c-.02-.01-.02-.03-.02-.05,0,.05,0,.1.01.15Z"/>
      <path class="cls-1" d="M13.22,38.3s.02.04.03.06c0-.02,0-.03,0-.05-.01,0-.02,0-.02-.01Z"/>
      <path class="cls-1" d="M13.87,39.74l-.07.07s.04,0,.06,0c0-.02,0-.05,0-.07Z"/>
      <path class="cls-1" d="M13.8,39.81h-.01.01s0,0,0,0Z"/>
      <path class="cls-1" d="M13.87,39.84v-.02s0,0-.01,0c0,0,0,0,0,.01,0,0,0,0,.02.01Z"/>
      <path class="cls-1" d="M13.93,39.89s.01,0,.02.01c0,0,0,0,0,0h0s-.01-.02-.02-.02Z"/>
      <path class="cls-1" d="M13.87,39.89s.04,0,.05,0c-.02-.02-.04-.03-.06-.05,0,.02,0,.03,0,.05Z"/>
      <path class="cls-1" d="M13.2,38.26s-.01-.01-.02-.02c0,0,.01.01.02.02,0,.02,0,.03.02.03,0-.01-.01-.02-.02-.03h0Z"/>
      <path class="cls-1" d="M13.78,39.84s0,.01,0,.02v-.03s0,.01,0,.01Z"/>
      <path class="cls-1" d="M13.78,39.81v.02s0,0,.01-.01h-.01Z"/>
      <path class="cls-1" d="M13.78,39.86s0,.03,0,.04h.02s0,0-.01-.01c0,0,0-.02-.01-.03Z"/>
      <path class="cls-1" d="M13.86,39.9h.01s0-.01-.01-.01c0,0,0,0,0,.01Z"/>
      <path class="cls-1" d="M13.86,39.96s0-.04,0-.06c-.02,0-.04,0-.05,0,.02.02.03.04.05.06Z"/>
      <path class="cls-1" d="M14.32,40.65s0-.04,0-.06c-.02,0-.05,0-.07-.01.02.02.04.04.07.07Z"/>
      <path class="cls-1" d="M14.29,40.5h.03s0-.03,0-.05c-.02.02-.04.04-.05.05h.03Z"/>
    </g>
  </g>
</svg>