<?xml version="1.0" encoding="UTF-8"?>
<svg id="Layer_2" xmlns="http://www.w3.org/2000/svg" viewBox="0 0 42.04 51.24">
  <defs>
    <style>
      .cls-1 {
        fill: #2c489e;
      }
    </style>
  </defs>
  <g id="Layer_1-2" data-name="Layer_1">
    <g>
      <path class="cls-1" d="M30.97,37.07c-.39,0-.77.47-.76.94,0,.54.21.8.62.79.37-.01.75-.52.75-1.02,0-.42-.25-.71-.61-.71Z"/>
      <path class="cls-1" d="M36.12,29.38c-.51.16-.82,1.09-.48,1.5.11.13.35.22.53.21.4-.02.64-.43.66-1.02.01-.42-.37-.79-.71-.69Z"/>
      <path class="cls-1" d="M41.72,6.3c-1.7-.56-3.4-1.13-5.1-1.69-1.28-.42-2.55-.84-3.82-1.28-1.26-.43-2.51-.88-3.76-1.32-.98-.34-1.96-.66-2.93-1.01-.92-.33-1.82-.68-2.75-.99-.1-.03-.36.14-.41.26-.23.68-.41,1.38-.62,2.07-.43,1.42-.86,2.85-1.31,4.27-.42,1.31-.88,2.61-1.3,3.91-.63,1.95-1.23,3.9-1.86,5.85-.08.26-.22.51-.34.77-.7-.31-1.34-.56-1.95-.86-1.41-.68-2.86-.59-3.94.43-.8.76-1.36.56-2.1.19-.07-.04-.13-.09-.2-.13-.46-.25-.84-.17-1.02.21-.25.51-.13.85.37,1.11.36.18.72.35,1.05.57.1.06.16.26.16.4-.03.52-.21,1.06-.12,1.56.11.66.42,1.28.65,1.94-.07,0-.17,0-.28-.02-.51-.04-1.02-.13-1.53-.12-1.03.02-1.86.52-2.58,1.21-.28.27-.52.44-.9.17-.3-.21-.64-.36-.96-.53-.49-.25-.73-.18-.99.28-.22.38-.11.77.3,1.01.29.17.58.35.9.46.43.16.48.41.34.82-.37,1.07-.69,2.16-1.03,3.24-.62,1.98-1.23,3.95-1.86,5.93-.58,1.81-1.14,3.63-1.76,5.43-.16.47,0,.67.35.89,1.58.94,3.15,1.89,4.73,2.83,1.45.87,2.9,1.73,4.35,2.6.48.29.96.57,1.43.86-.19.11,6.44,3.61,6.28,3.61l.33-.64c.5-1.12,1.21-2.87,1.3-3.16.19-.63.37-1.25.57-1.87.45-1.41.91-2.82,1.36-4.24.24-.76.46-1.53.69-2.29.1-.31.22-.48.57-.21.26.2.6.31.85.44-.19-.74-.45-1.45-.55-2.18-.11-.75.14-1.47.4-2.17.06.05.08.1.07.14-.24.94-.15,1.85.08,2.79.26,1.05,1.45,2.28,2.51,2.28,1.42,0,2.37-.81,3.15-1.88.23-.32.18-.55-.18-.73-.56-.28-1.11-.57-1.65-.87-.37-.2-.59-.51-.48-.95.16-.61.52-.75,1.14-.45.64.31,1.26.65,1.94,1,.5-1.31.29-2.51-.22-3.68-.29-.67-.75-1.27-.98-1.96-.43-1.27-.16-2.53.37-3.73.15-.35.4-.65.61-.97.04.02.07.05.11.07-.48.65-.72,1.39-.79,2.18-.1,1.16-.12,2.33.58,3.34,1.01,1.43,2.37,1.57,3.61.88.78-.43,1.44-1.04,1.8-1.97-.32-.17-.65-.35-.98-.53-.52-.28-1.05-.53-1.55-.85-.35-.22-.35-.59-.18-.94.17-.34.44-.45.8-.32.19.07.39.14.58.23.62.29,1.24.59,1.92.91.15-.55.27-1.04.42-1.52.56-1.81,1.14-3.62,1.7-5.43.52-1.66,1.03-3.32,1.55-4.99.35-1.13.72-2.25,1.09-3.37.74-2.25,1.47-4.5,2.23-6.73.12-.34.02-.46-.28-.55ZM24.18,30.72c-1.02.32-1.75,1.02-2.29,1.92-.78,1.28-1.14,2.73-1.56,4.15-.49,1.68-.94,3.38-1.45,5.05-.44,1.43-.94,2.84-1.41,4.27-.26.79-.49,1.58-.74,2.38-.05.15-.1.29-.17.5-.89-.52-1.75-1.01-2.59-1.52-1.37-.83-2.72-1.68-4.08-2.51-2.49-1.51-4.97-3.01-7.46-4.51-.34-.21-.48-.43-.34-.85.65-1.94,1.27-3.89,1.89-5.83.75-2.33,1.47-4.67,2.24-6.99.3-.93.68-1.83,1.44-2.51,1.22-1.08,2.66-1.09,4.08-.66,1.12.34,2.19.87,3.25,1.37,1.26.59,2.49,1.24,3.73,1.85,1.56.77,3.13,1.52,4.7,2.29.87.42,1.73.85,2.52,1.24-.56.11-1.17.18-1.75.36ZM39.83,7.98c-.78,2.33-1.53,4.67-2.27,7.02-.65,2.08-1.26,4.17-1.9,6.25-.38,1.24-.78,2.47-1.17,3.7-.03.1-.1.19-.19.35-.57-1.08-1.6-1.39-2.56-1.81-1.48-.65-2.95-1.3-4.43-1.95-1.52-.67-3.04-1.34-4.56-2.01-1.11-.49-2.21-.99-3.32-1.49-.23-.1-.25-.23-.17-.5.65-1.99,1.24-3.99,1.89-5.98.53-1.64,1.14-3.25,1.67-4.89.43-1.31.81-2.63,1.2-3.95.19-.66.21-.69.84-.47,1.13.41,2.26.84,3.39,1.23,2.2.77,4.41,1.51,6.62,2.27,1.56.54,3.1,1.1,4.66,1.64.32.11.42.22.29.59Z"/>
      <path class="cls-1" d="M18.02,32.92c-1.09-.63-2.19-1.25-3.3-1.85-1.24-.67-2.49-1.31-3.73-1.96-.86-.46-1.72-.92-2.57-1.39-.22-.12-.36-.11-.44.14-.28.87-.58,1.73-.85,2.6-.09.3-.05.53.28.71,2.01,1.12,3.99,2.27,6,3.38.35.2.49.4.37.8-.23.76-.42,1.54-.64,2.31-.12.43-.25.87-.39,1.32-.46-.26-.84-.46-1.21-.68-1.77-1.05-3.53-2.11-5.3-3.16-.45-.27-.54-.23-.71.28-.26.79-.49,1.58-.76,2.37-.15.43,0,.71.37.92.4.23.79.46,1.18.71.84.53,1.67,1.07,2.51,1.59,1.26.78,2.54,1.54,3.81,2.3,1.06.64,2.13,1.28,3.21,1.94.08-.15.2-.29.25-.46.22-.69.34-1.42.64-2.06.37-.76.19-1.2-.53-1.53-.28-.13-.31-.36-.19-.68.26-.7.45-1.43.67-2.15.28-.93.55-1.87.82-2.8.22-.74.45-1.47.65-2.21.04-.14-.05-.4-.15-.46Z"/>
      <path class="cls-1" d="M36.78,9.09c-1.03-.36-2.06-.7-3.09-1.06-.32-.11-.45.06-.54.31-.23.68-.45,1.37-.68,2.05-.3.9-.62,1.79-.93,2.69-.15-.16-.2-.32-.24-.48-.46-1.86-.92-3.72-1.36-5.59-.08-.35-.29-.5-.6-.6-.53-.17-1.05-.38-1.58-.57-.7-.25-1.4-.51-2.24-.81.53,2.18,1.04,4.25,1.56,6.39-.22-.05-.3-.05-.37-.08-.79-.35-1.58-.71-2.36-1.07-.29-.13-.55-.21-.68.2-.56,1.69-1.11,3.37-1.68,5.05-.14.4.02.59.36.74.77.32,1.53.64,2.29.97.09.04.18.08.24.15.28.29.62.24.76-.14.35-.96.68-1.92,1.02-2.88.19-.53.4-1.05.63-1.67.09.22.15.33.18.45.41,1.73.83,3.45,1.22,5.18.1.42.26.72.69.89,1.09.45,2.17.93,3.26,1.39.21.09.43.15.74.26-.6-2.37-1.16-4.63-1.76-7.01,1.18.51,2.26.97,3.4,1.46.13-.36.26-.66.36-.98.54-1.59,1.06-3.19,1.61-4.77.11-.3-.04-.39-.24-.46Z"/>
    </g>
  </g>
</svg>