<?xml version="1.0" encoding="UTF-8"?>
<svg id="Layer_2" xmlns="http://www.w3.org/2000/svg" viewBox="0 0 30.75 46.31">
  <defs>
    <style>
      .cls-1 {
        fill: #2c489e;
      }
    </style>
  </defs>
  <g id="Layer_1-2" data-name="Layer_1">
    <g>
      <path class="cls-1" d="M30.38,32.82c-.9-.87-2.08-.95-3.24-1-.46-.02-.76-.14-.87-.61-.03-.13-.08-.25-.13-.38-.68-1.97-1.32-3.94-2.04-5.89-.42-1.13-.66-2.26-.72-3.46-.06-1.09-.23-2.17-.35-3.25-.12-.98-.22-1.95.09-2.94.24-.76.51-1.59.45-2.37-.07-1.03-.36-1.56-1.58-1.57-.15,0-.31.03-.44-.02-1.02-.36-1.73.17-2.43.81.41.74.78-.1,1.16,0-.34.55-.69.74-1.08.59-.43-.15-.63-.59-.59-1.13.06-.79,0-1.56-.65-2.14-.17-.15-.31-.33-.46-.5.04,0,.09,0,.13,0,.11-.73.21-1.45.33-2.25-.31.13-.53.26-.76.31-.53.13-1.06.26-1.6.32-.22.03-.54-.04-.66-.19-.13-.17-.16-.5-.08-.72.1-.3-.32-1.07-.39-1.27-.02-.08-.38-1.21-.54-1.7-.15-.45-.22-1.65-.19-1.77.06-.25.33-1.62,1.99-1.15-.23.1-.39.2-.57.26-.78.27-.92.59-.67,1.4.13.44.21.9.31,1.35.2.89.36,1.78.62,2.65.07.23.42.52.66.53.24,0,.55-.25.71-.48.21-.31.31-.7.45-1.04.2.06.31.09.51.15-.28-1.29-.54-2.51-.8-3.72-.07.01-.15.03-.22.04-.05,1.02.49,1.96.55,3.08-.17-.16-.25-.23-.32-.31-.06.11-.1.19-.17.31-.04-.11-.07-.15-.08-.2-.04-.19-.08-.39-.11-.54.12-.12.3-.22.3-.3-.01-.16-.1-.4-.22-.44-.42-.15-.42-.35-.2-.67.2-.28.09-.84-.18-.89-.43-.08-.34-.37-.39-.66.22.02.39.03.62.05-.04-.13-.05-.23-.1-.31-.54-.91-1.26-.94-2.25-.62-.27.09-.52.41-.66.68-.28.54-.28,1.14-.14,1.74.25,1.04.45,2.1.71,3.14.17.7.29,1.43.84,1.97.1.1.17.26.19.4.07.59.33,1.03.96,1.15-.52.94-.38,2.15.3,2.86.5.52.41.99-.22,1.39-.61.38-1.21.78-1.79,1.22-.47.35-.91.75-1.35,1.15-.17.15-.27.4-.46.48-.52.21-.84.55-.89,1.03-.28.12-.57.16-.72.32-.53.55-1.08.52-1.67.15-.1-.06-.21-.14-.32-.13-.41.03-.97-.07-1.21.16-.8.76-1.5,1.62-2.22,2.46-.35.41-.4,1.04-.08,1.31.59.49,1.91,1.64,1.99,1.68.35.19.15.47.07.65-.39.87-.82,1.73-1.25,2.58-.71,1.41-1.45,2.8-2.15,4.22-.5,1.01-.94,2.04-1.41,3.06-.82,1.8-1.6,3.63-2.47,5.4-.5,1.01-.23,1.88.42,2.6.76.84,1.62,1.6,2.51,2.32,1.68,1.35,3.6,2.05,5.78,2.01.68-.01,1.23-.18,1.6-.8.15-.26.34-.49.51-.73.96-1.41,1.92-2.81,2.87-4.23.55-.82,1.05-1.68,1.6-2.5.91-1.37,1.85-2.73,2.77-4.1,1.05-1.57,2.08-3.14,3.14-4.7.63-.93,1.28-1.85,1.33-3.03.02-.47-.05-.91-.36-1.31-.08.75-.14,1.43-.22,2.12-.09.73-.75,1.62-1.21,1.59.14-.23.26-.44.4-.64.48-.67.73-1.41.63-2.24-.02-.18-.13-.34-.25-.63-.24.6-.39,1.06-.61,1.47-.21.41-.48.79-.77,1.15-.27.34-.39.87-.89.97-.04-.04-.09-.07-.13-.11.43-.63.86-1.27,1.37-2.02h-1.65s-.04-.09-.06-.14c1.54-.19,2.34-1.08,2.49-2.61.24.27.44.49.64.7.04-.03.08-.05.12-.08-.09-.27-.18-.55-.26-.82.3-.03.57-.08.85-.09.37-.01.79.57.54.78-.37.3-.13.55-.11.83,0,.13.07.31,0,.39-.36.47-.2.97-.12,1.46.26,1.6.54,3.2.81,4.8.07.44-.06.76-.48.98-.5.27-.67.74-.59,1.3.27,1.87.5,3.74.77,5.6.23,1.59.48,3.17.73,4.76.15.97.74,1.59,1.66,1.84,1.04.28,2.08.2,3.04-.29.58-.3.98-.78,1.06-1.46.09-.79.16-1.58.22-2.37.08-1.09.16-2.17.21-3.26.08-1.75.14-3.5.17-5.26,0-.23-.19-.52-.37-.69ZM16.05,5.9c-.06.01-.12.03-.17.04-.31-1.3-.62-2.61-.93-3.91.06-.02.13-.03.2-.05.3,1.31.6,2.61.9,3.92ZM20.88,14.46c.13-.19.3-.37.37-.58.06-.17.1-.47,0-.56-.38-.39-.41-.71,0-1.07.08-.07.12-.19.21-.32.46.27.88.51,1.28.75.06.04.13.13.12.19-.09.72-.13,1.45-.3,2.14-.1.41-.4.77-.64,1.13-.51.78-1.05,1.56-1.57,2.33-.14.21-.29.42-.44.63-.06-.02-.12-.04-.18-.06.03-.16,0-.34.08-.47.44-.75.97-1.47,1.35-2.25.45-.92.8-1.88,1.16-2.83.07-.18,0-.41,0-.62-.04,0-.08-.01-.12-.02-.06.07-.13.14-.17.21-.87,1.65-1.73,3.3-2.6,4.95-.37.7-.42.72-1.09.29-.47-.3-.92-.62-1.39-.93-.31-.2-.25-.44-.05-.67.47-.54.93-1.08,1.43-1.59.28-.29.63-.38,1.04-.21.83.34.96.29,1.47-.46ZM20.54,19.9c-.53.21-.99.03-1.16-.48.35.14.69.29,1.16.48ZM18.02,20.13c-.85-.22-2.9-1.87-3.11-2.59.24.05.46.05.6.14.57.39,1.11.82,1.68,1.22.44.31.89.59,1.34.88-.03.03-.05.07-.08.1-.14-.03-.27-.07-.45-.11,0,.14.02.24.02.35ZM14.88,16.91c.83-.56,1.65-1.11,2.48-1.67.04.05.09.09.13.14-.34.42-.72.83-1.02,1.27-.4.59-.96.43-1.5.41-.03-.05-.06-.1-.09-.15ZM17.69,18.72c-.42-.29-.84-.58-1.25-.89-.07-.05-.06-.21-.09-.32.11,0,.24-.02.31.03.69.48,1.37.97,2.05,1.46.06.05.11.12.25.27-.2.02-.34.08-.41.03-.3-.18-.58-.38-.86-.58ZM20.62,13.76c-.28.65-.96.79-1.78.41.56-.13,1.12-.26,1.78-.41ZM18.37,13.05c-.38.43-.92.56-1.32.24.42-.08.83-.15,1.32-.24ZM17.74,11.15c.03.13.08.38.07.38l-.84-.13c.25-.08.51-.17.77-.25ZM17.41,10.28c-.07.17-.24.29-.36.43-.1-.15-.29-.31-.28-.45l.64.02ZM19.28,13.33c.17-.05.37,0,.57.1-.06.05-.11.12-.18.14-1.71.37-2.98,1.52-4.34,2.51-.47.34-.95.65-1.49,1.02-.1-.25-.15-.39-.22-.57l5.65-3.2ZM11.69,18.06c.34-.73.86-.72,1.52-.56.32.07.67-.04,1.01-.07-.03.79-.03.81-.83.92-.79.11-1.59.17-2.4.26.24-.18.59-.31.7-.55ZM8.08,18.43c-.62.7-1.24,1.41-1.95,2.21.02-.58,1.28-1.98,1.95-2.21ZM7.29,20.64c.05.11.1.2.19.39.6-.65,1.16-1.28,1.73-1.9-.03-.04-.06-.08-.09-.12-.13.03-.26.06-.43.1.05-.18.09-.35.14-.52.9.32,1.07.84.63,1.6-.41.71-.76,1.46-1.16,2.23-.88-.87-1.23-1.47-1.01-1.77ZM1.93,36.75c.63-1.33,1.29-2.64,1.92-3.96.52-1.09,1-2.19,1.52-3.27.77-1.62,1.56-3.23,2.34-4.84.07-.14.19-.26.29-.39l.17.11c-2.08,4.37-4.16,8.74-6.25,13.12-.06-.01-.12-.03-.17-.04-.11-.24.06-.51.17-.73ZM7.02,43.71c-.27.44-.48.92-.76,1.48-.1-.03-.33-.04-.51-.15-1.05-.65-2.16-1.23-3.11-2-.78-.63-1.38-1.5-2.05-2.26-.05-.06-.08-.14-.1-.22-.13-.48.3-1.62.85-1.92-.05.23-.08.48-.16.7-.08.21-.21.41-.32.61-.19.35-.12,1.03.05.98.25-.07.48-.32.66-.54.19-.24.3-.53.46-.83.46.32.85.58,1.25.86.25.27.45.6.75.8.91.63,1.84,1.22,2.79,1.8.32.19.42.34.21.69ZM8.71,45.7c-.38-.04-.76-.08-1.16-.12.45-.25.85-.48,1.25-.7-.02.22-.05.49-.09.83ZM8,42.14c-.23.4-.48.43-.8.22-1.02-.67-2.05-1.33-3.03-2.05-.51-.38-.96-.86-1.39-1.33-.13-.14-.19-.48-.11-.65.5-1.11,1.05-2.2,1.59-3.29.58-1.16,1.17-2.32,1.77-3.48.52-1,1-2.04,1.53-2.99.43-.89.84-1.59,1.2-2.42.3-.69.43-.67,1.04-.23,1.21.89,2.43,1.77,3.68,2.6.57.38,1.24.62,1.85.93.12.06.22.16.35.26-.22.38-.4.72-.6,1.04-1.39,2.23-2.8,4.44-4.19,6.67-.98,1.57-1.96,3.14-2.9,4.73ZM9.73,24.34s.09-.04.14-.07c.38.33.73.71,1.15.98,1.55,1.01,3.12,1.99,4.67,2.98.15.09.26.23.39.35-.05.07-.1.14-.14.2-.51-.24-1.05-.43-1.53-.72-1.02-.61-2.03-1.24-3-1.93-.55-.39-1.03-.88-1.51-1.35-.11-.1-.12-.3-.17-.45ZM10.11,45.23s-.1-.06-.14-.1c.24-.36.48-.72.71-1.09.05.03.1.07.15.1-.24.36-.48.72-.72,1.08ZM10.02,43.09s-.07-.04-.11-.05c.01-.07,0-.16.05-.21,2.67-4.08,5.33-8.15,8.01-12.23.05-.08.18-.12.28-.17l.13.11c-2.79,4.19-5.57,8.37-8.36,12.56ZM19.5,30.75c.06.04.11.08.17.11l-8.1,12.16c-.06-.04-.11-.09-.17-.13,2.72-4.03,5.35-8.13,8.1-12.14ZM20.11,22.23c-.32-.1-.43,0-.44.31-.04,1.18-.79,2.06-1.97,2.19-.73.08-1.48.03-2.21.03-.17,0-.35,0-.53,0-.03.04-.06.08-.09.13.13.17.24.36.39.5.47.44.85.93.91,1.6.02.17,0,.35,0,.65-.61-.31-1.17-.52-1.64-.85-1.25-.86-2.48-1.76-3.69-2.67-.65-.49-.65-.64-.27-1.36.25-.47.02-1.21-.47-1.39-.12-.04-.34.05-.45.14-.14.12-.22.31-.45.46,0-.17-.04-.35,0-.5.56-1.6,1.67-2.47,3.4-2.57.57-.03,1.12-.23,1.69-.33.17-.03.4-.03.54.06,1.26.82,2.5,1.65,3.75,2.49.14.1.46.16.18.44.14.14.29.28.37.35.27-.13.44-.28.54-.24.5.18,1.08.25,1.42.75-.33-.07-.66-.11-.98-.21ZM21.06,21.5c-.21-.03-.43-.07-.68-.11.07-.2.12-.34.21-.64.24.22.42.39.6.56-.05.06-.09.12-.14.19ZM22.18,22.37c-.34-1.21-.73-2.42-.85-3.68.06-.01.12-.02.19-.03.27,1.23.54,2.45.81,3.68-.05.01-.1.02-.14.03ZM22.89,22.28c-.09-.19-.23-.36-.27-.56-.23-1.18-.45-2.36-.65-3.55-.06-.37-.06-.75-.09-1.25.05-.03.21-.13.37-.22.08.19.2.37.22.56.2,1.39.38,2.77.56,4.16.03.26.03.53.05.8-.07.02-.13.04-.2.05ZM26.35,32.54c.26.78.53,1.56.78,2.34.11.35-.11.4-.29.38-.45-.06-.71-.1-.76-.61-.06-.63-.33-1.23-.47-1.86-.03-.16.04-.44.15-.51.23-.13.49-.06.59.25ZM23.71,24.88c.28.87.55,1.75.84,2.62.42,1.23.85,2.46,1.27,3.7.06.19.32.45-.04.57-.35.12-.42-.14-.5-.43-.44-1.62-.9-3.24-1.35-4.86-.14-.52-.24-1.05-.36-1.57.04,0,.09-.02.14-.03ZM23.9,28.83c-.05-.29-.1-.57-.15-.86.06,0,.12-.01.17-.02.32,1.26.64,2.52.94,3.78.02.07-.13.19-.2.28-.1-.1-.27-.18-.29-.3-.17-.96-.32-1.93-.47-2.89ZM23.65,33.04c.33-.3.47-.27.62.15.04.1.1.2.26.28,0-.16-.03-.32,0-.47.06-.2.12-.48.27-.55.33-.14.33.19.4.4.19.58.39,1.16.57,1.73.05.15.08.31.12.48-.56.17-.85-.03-.91-.63-.2.17-.32.27-.46.38-.23-.11-.48-.2-.7-.33-.54-.33-.62-1.03-.17-1.44ZM30.29,36.17c-.02.44-.01.88-.05,1.32-.02.23-.09.46-.14.7h-.19c-.05-.3-.11-.6-.15-.85-.26-.13-.53-.32-.82-.4-.16-.04-.37.12-.57.18-.27-.54-.31-.53-.82-.15-.14.1-.43.13-.57.05-.35-.19-.62-.16-.9.17-.11-.14-.2-.26-.38-.49-.13.28-.22.48-.33.71-.04,0-.13.03-.2.01-.39-.11-.67-.08-.63.43,0,.09-.06.19-.1.28-.31.62-.21.98.43,1.26.89.4,1.8.51,2.7.43-.09.08-.15.19-.15.32,0,.23.19.42.43.42s.42-.19.42-.42c0-.17-.1-.31-.24-.38.42-.07.84-.18,1.26-.32.15-.05.28-.18.39-.3.11-.11.2-.26.39-.51-.02.44-.04.75-.06,1.06-.09,1.47-.15,2.94-.28,4.41-.06.66-.49,1.09-1.11,1.33-.93.36-1.88.31-2.82.1-.47-.1-.75-.48-.84-.95-.24-1.37-.46-2.74-.68-4.11-.26-1.6-.52-3.19-.78-4.79-.04-.24-.04-.49-.06-.8,2.33,1.07,4.59,1.31,6.94-.24-.05.62-.09,1.06-.12,1.51ZM25.39,38.98c.03.09.16.23.21.22.13-.03.28-.11.35-.21.05-.08-.01-.25-.07-.35-.11-.18-.26-.35-.39-.52.05-.04.1-.08.15-.12h.34c.1.22.19.41.27.6.11-.06.31-.14.31-.18-.06-.23-.15-.44-.26-.71.19-.25,1.27-.34,1.83-.04-.15.31-.3.63-.47,1,.13.02.31.04.51.06.07-.19.16-.34.18-.51.05-.31.13-.56.52-.49.35.07.76.09.86.54.07.36-.07.63-.43.8-1.28.61-2.6.52-3.92.23-.56-.13-.81-.58-.61-1,.1.06.19.12.28.17.1.05.21.09.34.14,0,.13-.03.27,0,.39ZM29.91,34.45c-.62.34-1.34.51-2.03.7-.11.03-.39-.19-.45-.34-.26-.69-.47-1.4-.7-2.1-.08-.26.01-.42.29-.44.15-.01.3,0,.45,0,1.02,0,1.66.31,2.39.68.8.4.81,1.08.04,1.51Z"/>
      <path class="cls-1" d="M13.89,19.49c-.4-.02-.79-.01-1.19-.02-1.28-.01-1.38.71-1.44,1.78,0,.11.15.3.24.31.12,0,.3-.1.37-.21.46-.8,1.16-1.23,2.06-1.37.18-.03.34-.13.51-.2,0-.05,0-.11,0-.16-.18-.05-.35-.13-.53-.14Z"/>
      <path class="cls-1" d="M29.41,44.32c.04-.05.07-.1.11-.15-.08-.12-.14-.3-.25-.34-.57-.21-.95-.53-1.53-.68-.38-.1-.63-.17-1.39-.04-.5.21-.85.65-1.3,1,.03.07.06.15.08.22,1.43-.75,2.86-.91,4.28-.01Z"/>
      <path class="cls-1" d="M25.99,42.54s.18-.12.33-.24c-.15-.14-.24-.26-.36-.3-.04-.02-.23.17-.21.23.03.12.13.25.24.31Z"/>
      <path class="cls-1" d="M29.2,31.01c.19,0,.35-.16.35-.35s-.16-.35-.35-.35-.35.16-.35.35.16.35.35.35Z"/>
      <path class="cls-1" d="M23.16,30.61c0-.22-.18-.4-.4-.4s-.4.18-.4.4.18.4.4.4.4-.18.4-.4Z"/>
      <path class="cls-1" d="M25.87,27.64c.13,0,.24-.11.24-.24s-.11-.24-.24-.24-.24.11-.24.24.11.24.24.24Z"/>
      <path class="cls-1" d="M25.41,26.31c.12,0,.22-.1.22-.22s-.1-.22-.22-.22-.22.1-.22.22.1.22.22.22Z"/>
      <path class="cls-1" d="M23.2,29.19c.1,0,.19-.08.19-.19s-.08-.19-.19-.19-.19.08-.19.19.08.19.19.19Z"/>
      <path class="cls-1" d="M27.02,38.41c.16,0,.28-.13.28-.28s-.13-.28-.28-.28-.28.13-.28.28.13.28.28.28Z"/>
      <path class="cls-1" d="M26.9,41.61c.16,0,.28-.13.28-.28s-.13-.28-.28-.28-.28.13-.28.28.13.28.28.28Z"/>
      <circle class="cls-1" cx="22.88" cy="31.82" r=".25"/>
      <path class="cls-1" d="M25.46,40.82c.16,0,.28-.13.28-.28s-.13-.28-.28-.28-.28.13-.28.28.13.28.28.28Z"/>
      <path class="cls-1" d="M28.58,42.37c.16,0,.28-.13.28-.28s-.13-.28-.28-.28-.28.13-.28.28.13.28.28.28Z"/>
      <path class="cls-1" d="M27.02,28.92c.16,0,.28-.13.28-.28s-.13-.28-.28-.28-.28.13-.28.28.13.28.28.28Z"/>
      <path class="cls-1" d="M26.86,30.44c0,.19.15.34.34.34s.34-.15.34-.34-.15-.34-.34-.34-.34.15-.34.34Z"/>
    </g>
  </g>
</svg>