<?xml version="1.0" encoding="UTF-8"?>
<svg id="Layer_2" xmlns="http://www.w3.org/2000/svg" viewBox="0 0 50.04 19.09">
  <defs>
    <style>
      .cls-1 {
        fill: #2c489e;
      }
    </style>
  </defs>
  <g id="Layer_1-2" data-name="Layer_1">
    <g>
      <path class="cls-1" d="M15.27,6.23c-2.52-1.12-5.14-1.27-7.78-.49-1.8.53-3.39,1.37-4.29,3.15-.02.04-.03.07-.04.09-.39-.34-.73-.92-1.07-.87-.57.08-1.13.26-1.62.54-.4.23-.18.7-.09,1.07.02.09.03.18.03.27-.03,2.36-.05,4.72-.09,7.08,0,.33-.05.68-.18.97-.32.69.02,1.22.95,1.01.59-.13.76-.44.75-1.15-.01-1.86,0-3.72,0-5.58,0-.15.06-.3.11-.56.17.19.26.29.35.4.33.42.62.88.97,1.27,3.15,3.48,9.35,4.17,13.21,1.81,2-1.22,2.87-3.83,1.95-5.99-.62-1.46-1.77-2.4-3.16-3.02ZM16.77,12.91c-1.62,1.99-3.79,2.56-6.16,2.73-1.78.13-3.44-.26-4.93-1.29-.23-.16-.42-.37-.63-.56.03-.05.06-.09.08-.14.24.06.48.1.72.17,1.68.54,3.36.59,5.06.09.12-.04.29-.06.35-.15.14-.22.39-.57.31-.71-.12-.21-.46-.37-.73-.41-.2-.03-.43.17-.64.29-1.55.92-3.39.8-4.81-.32-.88-.69-1.13-1.75-.65-2.77.59-1.23,1.6-2.03,2.83-2.5,2.59-.98,5.18-1.03,7.83-.07,2.26.82,2.91,3.71,1.36,5.62Z"/>
      <path class="cls-1" d="M22.7,6.2c-.05-.08-.12-.13-.21-.17-.02,0-.04-.01-.05-.02-.04-.01-.08-.02-.12-.02-.14,0-.27-.01-.41-.01-.14,0-.27,0-.41,0-.27.02-.55.05-.81.1-.11.02-.21.07-.28.12-.06.04-.1.09-.14.15-.02.04-.04.08-.06.12,0,.02-.01.04-.02.07-.01.05-.01.1-.01.15,0,.1.02.22.06.34.12.4.21.82.23,1.24,0,.11,0,.22,0,.34.02.81,0,1.62,0,2.43h0c0,.62,0,1.25,0,1.87,0,.13,0,.25,0,.38,0,.25,0,.5,0,.74,0,.06,0,.12.02.18,0,.04.02.08.03.11.09.28.28.52.54.68.02,0,.03.02.05.03.19.11.42.16.66.16.27,0,.47-.09.61-.26.15-.19.23-.47.24-.86l.2-7.41c0-.14-.02-.26-.06-.37-.01-.04-.03-.07-.05-.1Z"/>
      <path class="cls-1" d="M50.03,13.34c-.04-.36-.04-.75-.5-.81-.42-.06-.56.3-.76.6-.33.52-.67,1.08-1.13,1.46-.72.57-1.51,1.07-2.34,1.46-.98.46-2,.92-3.05,1.12-1.71.31-3.45.25-5.17-.14-1.53-.35-2.96-.92-4.2-1.9-.29-.23-.53-.52-.79-.78l.08-.2c.43-.02.85-.06,1.28-.06,2.99-.03,5.97-.27,8.9-.89,1.74-.36,3.44-.83,4.92-1.9,1.77-1.28,2.45-2.83,1.93-4.67-.38-1.33-1.09-2.49-2.18-3.39-1.76-1.45-3.85-1.8-6.02-1.78-2.89.02-5.57.83-7.99,2.41-1.17.76-2.19,1.69-2.96,2.86-1.19,1.8-1.22,3.74-.64,5.74.17.59.1.69-.52.63-.46-.05-.91-.15-1.36-.21-.36-.05-.51-.23-.5-.59.05-2.97.09-5.94.16-8.9.02-.74.12-.81.88-.78,2.07.08,3.99-.61,5.95-1.1.19-.05.43-.45.4-.65-.07-.37-.41-.3-.72-.22-.65.17-1.31.4-1.98.42-1.69.04-3.4.03-4.95-.84-.41-.23-.83-.13-1.14.25-.34.4-.53.82-.28,1.37.17.37.3.79.33,1.19.06.92.05,1.84.05,2.76,0,1.95.02,3.91,0,5.86-.01.78-.05.78-.84.65-.43-.07-.78.05-.97.45-.18.38-.23.74.09,1.13.52.66,1.01,1.35,1.45,2.07.24.39.44.74.97.59.51-.14.9-.66.85-1.15-.02-.2-.09-.4-.11-.6-.08-.59.06-.73.65-.71.55.02,1.11.05,1.66.03.48-.02.83.14,1.16.5,1.36,1.48,3.03,2.45,4.99,2.91,2.85.66,5.7.72,8.54-.07,1.86-.52,3.64-1.19,5.15-2.46.54-.45.83-.96.76-1.67ZM31.05,12.52c-.81-2.63.08-5.11,2.58-6.81,2.94-1.99,6.21-2.77,9.73-2.4,1.32.14,2.59.47,3.68,1.34,1.12.9,1.4,1.77.86,3.11-.83,2.07-2.54,3.19-4.47,4.05-2.09.93-4.29,1.31-6.56,1.37-.96.03-4.09.2-4.72.22-.6.02-.93-.32-1.11-.88Z"/>
      <path class="cls-1" d="M9.5,2.58h2.28c.29,0,.52-.2.52-.45v-.2c0-.25-.23-.45-.52-.45h-2.28c-.29,0-.52.2-.52.45v.2c0,.25.23.45.52.45Z"/>
      <path class="cls-1" d="M1.58,3.84h.29c.3,0,.54-.21.54-.47V1.18c0-.26-.24-.47-.54-.47h-.29c-.3,0-.54.21-.54.47v2.19c0,.26.24.47.54.47Z"/>
      <path class="cls-1" d="M3.77,3.81h3.44c.34,0,.63-.24.63-.54v-.11c0-.3-.28-.54-.63-.54h-.25v-1.4c0-.27-.25-.49-.57-.49h-2.69c-.31,0-.57.29-.57.56v.21c0,.27.25.42.57.42h1.88v.7h-1.81c-.35,0-.63.24-.63.54v.11c0,.3.28.54.63.54Z"/>
      <path class="cls-1" d="M22.72,3.32v-.21s0-.07-.01-.1v-1.72c0-.27-.25-.49-.56-.49h-2.69c-.31,0-.57.22-.57.49v.21c0,.27.25.49.57.49h1.88v.63h-1.87c-.31,0-.57.22-.57.49v.21c0,.27.25.49.57.49h2.7c.31,0,.57-.22.57-.49Z"/>
      <path class="cls-1" d="M13.93,1.92c.09.04.19.07.3.07h2.31v.63h-1.13c-.29,0-.52.2-.52.45v.29c0,.25.24.45.52.45h2.22c.27,0,.49-.17.52-.4.02-.05.03-.11.03-.16v-1.91c0-.29-.28-.53-.62-.53h-2.56v-.42c0-.21-.19-.37-.43-.37h-.51c-.24,0-.43.17-.43.37v.85s-.01.07-.01.11v.12s0,.08.01.11c0,.17.13.31.3.36Z"/>
    </g>
  </g>
</svg>