<?xml version="1.0" encoding="UTF-8"?>
<svg id="Layer_2" xmlns="http://www.w3.org/2000/svg" viewBox="0 0 50.07 34.93">
  <defs>
    <style>
      .cls-1 {
        fill: #2c489e;
      }
    </style>
  </defs>
  <g id="Layer_1-2" data-name="Layer_1">
    <g>
      <path class="cls-1" d="M.58,24.42c.16-.01.32-.03.47-.03.63,0,1.26.02,1.89.04.66.02,1.32-.11,1.98-.02.27.04.55,0,.82,0,.3,0,.59,0,.89,0,.28,0,.56-.03.84,0,.47.06.81-.08,1.03-.52.05-.09.07-.19.13-.27.11-.17.22-.33.33-.49.08-.12.18-.23.24-.35.09-.2.13-.42.23-.61.06-.13.19-.23.27-.37.11-.19.02-.34-.2-.34-.32,0-.64.02-.96.04-.17,0-.3-.06-.33-.22-.04-.2-.04-.41-.04-.62,0-.64,0-1.28,0-1.92,0-.17.04-.27.22-.27.48,0,.97,0,1.45.02.08,0,.2.11.21.19.04.29.05.58.05.87,0,.36-.03.72-.04,1.07,0,.19.11.29.3.24.3-.08.6-.17.89-.27.45-.16.89-.33,1.34-.5.29-.11.38-.1.35-.46-.03-.3,0-.6,0-.89,0-.26.05-.29.31-.29.46,0,.92,0,1.38,0,.42,0,.84,0,1.25,0,.54,0,1.09-.02,1.63-.02.2,0,.37.03.37.29,0,.27,0,.55,0,.82.01.56.02,1.13.04,1.69,0,.16-.05.22-.21.22-.39,0-.78,0-1.17,0-.55,0-1.1,0-1.65-.01-.43-.02-.48,0-.63.32-.18.37-1.17,1.75-1.2,2.16,0,.1-.12.25-.08.28.08.08.22.15.33.15.52,0,1.04-.06,1.56-.07.55,0,1.1.02,1.65.02.48,0,.96,0,1.44,0,.28,0,.56-.01.84-.02.24,0,.49-.03.73.01.39.07.78-.04.99-.37.15-.23.25-.5.38-.74.27-.51.55-1.02.83-1.54.09-.16.04-.27-.14-.28-.16-.01-.32-.02-.48,0-.22.01-.28-.11-.29-.29-.02-.29-.04-.57-.04-.86-.01-.67-.01-1.34-.02-2.01,0-.4-.02-.81-.03-1.21,0-.28-.05-.57-.02-.84.05-.43.04-.48-.38-.5-.39-.02-.78-.03-1.17-.03-.37,0-.73.03-1.1.02-.69,0-1.39-.04-2.08-.03-.44,0-.73-.2-.96-.54-.04-.06-.12-.15-.18-.14-.06,0-.13.1-.16.17-.19.49-.44.96-.73,1.4-.23.35-.38.75-.58,1.12-.1.18-.22.34-.32.51-.03-.01-.06-.03-.1-.04.02-.25.04-.51.07-.76,0-.07.03-.15.03-.22-.01-.4-.04-.8-.05-1.21,0-.14-.04-.23-.18-.25-.12-.02-.24-.02-.36-.01-.2,0-.39.02-.59.02-.19,0-.39-.06-.56-.01-.43.11-.89-.02-1.03-.43-.02-.05-.09-.11-.15-.12-.04,0-.11.05-.13.1-.3.55-.59,1.12-.9,1.67-.26.47-.54.93-.8,1.39-.02,0-.05,0-.07-.01-.01-.05-.04-.1-.04-.16.01-.31.04-.63.04-.94,0-.34-.03-.69-.04-1.03,0-.26-.14-.43-.4-.43-.64,0-1.29.01-1.93.02-.48,0-.96,0-1.44,0-.3,0-.6,0-.89.03-.36.03-.67-.14-.85-.47-.04-.08-.12-.14-.2-.22-.05.07-.08.1-.1.14-.29.5-.57,1.01-.85,1.51-.29.52-.6,1.05-.88,1.58-.14.26-.09.31.21.31.78,0,1.56-.02,2.34-.03.65-.01,1.3-.02,1.95-.04.16,0,.21.09.21.24,0,.85.02,1.7.01,2.55,0,.07-.1.18-.18.21-.1.04-.23.02-.34.02-.24,0-.49-.04-.73-.03-.65,0-1.3.03-1.95.04-.26,0-.46.11-.49.31-.03.25-.32.67-.35.74-.08.18-.2.34-.3.51-.2.35-.41.69-.6,1.05-.09.18,0,.29.2.27ZM14.28,16.85c.09-.15.17-.3.25-.44-.1-.09.18-.22.25-.46.04-.15.14-.2.26-.05.15.19.36.23.59.23,1-.01,2.01,0,3.01-.01.21,0,.43,0,.64,0,.2-.01.28.08.28.26,0,.26.01.52.01.78,0,.75.01,1.51.01,2.26,0,.73,0,1.45,0,2.18,0,.22.12.34.36.35.24,0,.27.03.16.24-.14.26-.26.55-.46.74-.13.12-.4.12-.61.13-.38.02-.77,0-1.15,0-.54,0-1.08,0-1.62,0-.56,0-1.11.03-1.67.04-.09,0-.18-.01-.26-.05-.12-.06-.19-.13-.08-.28.11-.15.2-.33.27-.5.09-.2.26-.26.44-.27.46-.02.93-.02,1.4-.02.6,0,1.19,0,1.79-.02.23,0,.3-.09.3-.32,0-.7.01-1.41,0-2.11,0-.39-.02-.77-.04-1.16-.01-.26-.03-.53-.04-.79-.02-.34-.12-.38-.45-.35-.39.04-.78.03-1.17.03-.69,0-1.38,0-2.07,0-.08,0-.15,0-.23,0-.27-.03-.33-.15-.18-.38ZM9.36,17.1c.03-.09.08-.17.12-.24.14-.22.28-.43.42-.66.14-.23.22-.26.46-.13.05.03.11.04.17.04.32.04.63.05.95.02.22-.02.3.07.31.29,0,.22,0,.44,0,.66h0c0,.63,0,1.27,0,1.9,0,.07-.05.17-.11.19-.27.11-.54.21-.81.3-.25.08-.32.03-.32-.23,0-.55-.01-1.09,0-1.64,0-.2-.09-.32-.22-.43-.03-.03-.1-.03-.15-.02-.22.05-.43.12-.65.16-.16.03-.23-.06-.17-.22ZM1.6,22.95c.1-.23.23-.44.34-.66.04-.08.05-.17.06-.22.24-.03.48-.07.71-.07.26,0,.52.04.78.06.02,0,.03,0,.04,0,.49-.13.98-.02,1.48-.06.2-.02.41.04.61.02.06,0,.17-.12.17-.18,0-.45-.03-.91-.04-1.36,0-.35.02-.69.04-1.04,0-.05.03-.09.02-.13-.14-.52-.03-1.04-.09-1.56-.02-.17.03-.35-.15-.47-.03-.02-.07-.06-.1-.05-.59.18-1.19.1-1.79.09-.65,0-1.3,0-1.95,0,0,0-.01,0-.06-.03.01-.05.01-.12.04-.17.22-.38.44-.76.65-1.15.08-.15.21-.12.28-.04.25.34.62.29.96.29.73,0,1.47,0,2.21-.02.28,0,.56-.02.83-.04.21,0,.3.09.3.3,0,.43.03.86.04,1.29.01.55.02,1.1.03,1.65,0,.65,0,1.3,0,1.95,0,.14-.02.27-.03.41-.01.17.06.25.23.27.17.01.35.04.59.08-.1.2-.18.37-.25.54-.16.39-.46.5-.86.49-.44-.02-.89,0-1.33,0-.88,0-1.77-.02-2.65-.01-.26,0-.53.05-.8.06-.09,0-.19,0-.26-.03-.06-.03-.12-.15-.09-.2Z"/>
      <path class="cls-1" d="M33.39,18.41c.21,0,.42-.02.64-.02.31,0,.63.03.94.02.63,0,1.25-.03,1.88-.05.25,0,.3.06.31.32.02.74.04,1.48.08,2.22.02.3-.04.37-.34.36-.36-.01-.73-.01-1.09-.01-.17,0-.26.1-.33.24-.1.21-1.1,2.03-1.27,2.26-.13.17-.04.36.18.37.22.01.44.02.67.02.65,0,1.3-.01,1.95-.03.5-.01,1-.02,1.5-.06.14-.01.32-.14.39-.26.34-.6.66-1.22.98-1.83.04-.07.08-.15.1-.22.14-.43.06-.86.06-1.29,0-.39-.04-.79-.04-1.18,0-.67,0-1.35,0-2.02,0-.42-.08-.84.03-1.27.09-.34-.07-.52-.36-.52-.5,0-.99.02-1.49.04-.67.01-1.33.03-2,.03-.24,0-.3-.11-.25-.34.12-.53.22-1.06.32-1.59.07-.35.13-.7.19-1.05.05-.24.15-.49.15-.73,0-.31.11-.6.17-.9.1-.48.18-.96.27-1.44.03-.16.08-.33.11-.49.09-.48.17-.97.26-1.45.07-.4.16-.81.22-1.21.05-.31.06-.63.11-.95.02-.14.09-.3.18-.41.3-.39.62-.77.93-1.15.18-.22.35-.45.55-.66.16-.17.19-.44.02-.6-.36-.35-.72-.68-1.08-1.03-.4-.4-.82-.78-.95-1.37,0-.03-.04-.06-.11-.15-.13.18-.24.35-.37.49-.46.51-.92,1.01-1.39,1.51-.15.16-.16.31-.03.47.23.27.47.52.71.78.31.35.63.69.93,1.05.05.06.07.19.04.24-.25.35-.5.69-.78,1.02-.3.36-.63.69-.94,1.05-.11.13-.21.29-.26.45-.06.17-.08.36-.08.54,0,.15-.13.71-.16.86-.07.31-.1.63-.17.94-.04.18-.13.35-.16.53-.08.43-.14.87-.22,1.3-.08.44-.15.88-.23,1.32-.07.42-.15.84-.23,1.26-.12.6-.25,1.21-.37,1.81-.06.31-.11.62-.16.93-.1.51-.21,1.01-.3,1.52-.04.2.09.34.3.34ZM37.03,3.52c-.33-.37-.68-.74-1.02-1.1-.1-.1-.11-.16,0-.27.27-.26.5-.55.75-.83.05-.06.13-.09.2-.13.08.03.15.05.19.08.17.16.35.32.5.5.19.2.35.42.54.62.08.09.1.16.01.25-.27.3-.53.6-.79.89-.13.15-.25.13-.38-.02ZM33.87,16.77c.06-.23.19-.47.17-.69-.03-.4.09-.78.15-1.16.07-.49.2-.96.29-1.45.04-.18.04-.36.07-.54.06-.36.12-.72.18-1.08.06-.31.14-.61.18-.91.05-.41.22-.8.24-1.2.02-.4.2-.76.2-1.14,0-.48.22-.91.25-1.37,0-.05.03-.11.06-.15.18-.23.36-.45.55-.67.03-.04.1-.05.15-.07.09.02.06.13.05.18-.07.44-.14.87-.22,1.31-.16.87-.33,1.75-.48,2.62-.06.35-.08.71-.13,1.06-.04.23-.11.45-.16.68-.12.6-.22,1.21-.35,1.81-.11.51-.23,1.02-.36,1.53-.08.3-.02.4.28.42.21,0,.41,0,.62,0v.04c.47,0,.95,0,1.42,0,.46,0,.93-.03,1.39-.06.26-.02.45.21.37.46-.04.14-.05.3-.05.45,0,.45.03.89.04,1.34,0,.11-.02.23-.02.34,0,.58,0,1.17,0,1.75,0,.22-.02.45.01.66.07.5-.21.86-.45,1.24-.09.14-.19.28-.25.43-.06.15-.16.2-.32.21-.56.02-1.11.04-1.67.05-.17,0-.35-.03-.52-.05-.12-.01-.16-.07-.1-.19.12-.23.23-.46.37-.69.03-.06.13-.1.2-.11.47-.03.94-.05,1.42-.08.24-.01.29-.08.28-.31-.02-.48-.03-.95-.04-1.43-.02-.85-.04-1.69-.05-2.54,0-.36-.15-.49-.51-.47-.72.03-1.44.04-2.15.05-.32,0-.64-.01-.96-.02-.19,0-.21-.11-.17-.26Z"/>
      <path class="cls-1" d="M24.49,24.23c.06,0,.14-.04.17-.09.24-.41.47-.83.71-1.24.04-.07.07-.14.1-.2.07-.12.14-.24.2-.36.06-.11.13-.22.18-.33.04-.1.09-.2.08-.3,0-.14-.07-.27-.1-.4.03-.02.06-.04.09-.06,1.05,1.07,2.1,2.15,3.17,3.24.18.15.52-.46.77-.67.07-.06.15-.13.22-.2.27-.28.52-.58.8-.84.24-.23.27-.3.03-.54-.21-.21-.44-.4-.66-.61-.35-.33-.7-.66-1.03-.99-.06-.06-.13-.17-.12-.25,0-.06.12-.12.2-.15.13-.05.27-.07.39-.11.19-.06.37-.15.56-.2.25-.06.35-.18.35-.43-.02-.65-.04-1.31-.05-1.96,0-.56.03-1.13.01-1.69,0-.09-.13-.25-.22-.27-.21-.05-.44-.04-.66-.03-.44.01-.88.12-1.33-.02-.23-.07-.4-.16-.5-.38-.03-.06-.1-.13-.16-.13-.07,0-.16.05-.2.11-.06.09-.07.22-.12.32-.35.65-.7,1.3-1.06,1.94-.06.11-.14.14-.24.04-.11-.12-.2-.24-.32-.35-.24-.24-.49-.47-.74-.71-.38-.38-.76-.77-1.15-1.16-.12-.12-.26-.13-.39-.01-.23.22-.46.44-.68.67-.19.19-.36.39-.55.58-.12.12-.26.24-.36.37-.04.05-.03.18,0,.23.14.18.29.36.45.52.39.39.79.76,1.18,1.16.2.2.18.25-.08.33-.1.03-.19.04-.29.07-.13.04-.27.06-.38.12-.18.11-.02.24,0,.36.11.5.2,1,.33,1.5.05.2.04.31-.18.32-.09,0-.18,0-.25.04-.09.04-.17.09-.24.16-.03.03-.02.1-.05.15-.15.28-.31.55-.46.83-.08.14-.14.28-.23.42-.19.3-.4.59-.58.89-.1.15,0,.32.18.33.3.02.61.01.91.02.12,0,.24.03.36.03.36,0,.71-.02,1.07-.02.28,0,.56,0,.84-.02ZM27.13,16.75c.16-.28.34-.55.52-.82.03-.04.1-.08.15-.07.13.02.26.05.37.11.31.15.64.14.96.08.17-.04.25.02.25.22,0,.59,0,1.19,0,1.78.02,0,.05,0,.07,0-.05.24-.09.49-.14.73-.01.04-.05.1-.09.12-.24.1-.48.19-.73.27-.21.07-.28.02-.28-.2,0-.49,0-.98,0-1.47,0-.17-.05-.26-.23-.27-.2-.01-.41-.03-.61-.05-.1-.01-.27-.02-.29-.07-.03-.11-.01-.25.04-.35ZM27.65,17.97c.1.07.06.59.09.76.01.07,0,.27-.02.34-.08-.03-.2-.16-.25-.21-.15-.14-.65-.73-.82-.92.24-.03.91-.05,1,.02ZM23.24,17.6c-.2-.21-.41-.41-.59-.63-.04-.04-.05-.16-.02-.2.13-.17.27-.34.42-.48.05-.04.2-.05.25,0,.27.22.53.46.78.71,1,1.02,2,2.04,3,3.06.43.44.87.88,1.3,1.32.29.31.56.63.85.94.09.09.09.15.01.25-.23.3-.4.43-.65.42-.05-.04-.15-.1-.22-.18-.55-.54-1.09-1.09-1.63-1.64-.62-.62-1.23-1.25-1.84-1.88-.55-.56-1.1-1.12-1.65-1.69ZM23.27,22.98v.02c-.21,0-.43,0-.64,0-.06,0-.14-.03-.17-.08-.02-.04.01-.12.04-.18.09-.22.18-.44.3-.64.05-.09.19-.15.3-.17.16-.03.33-.01.49-.03.16-.02.22-.14.18-.29-.11-.45-.22-.9-.33-1.35-.04-.17-.12-.33-.16-.5-.01-.05.05-.15.1-.18.17-.07.36-.14.54-.17.07-.01.22.06.24.13.13.43.23.86.35,1.3,0,.03,0,.06.02.09.25.47,0,.85-.23,1.23-.11.18-.23.36-.32.55-.13.26-.35.26-.58.26-.04,0-.08,0-.12,0Z"/>
      <path class="cls-1" d="M40.6,18.28c.43,0,.86,0,1.28,0,.14,0,.27.02.32.18-.24.13-.46.24-.67.36-.13.08-.24.18-.11.35.03.04.04.08.05.12.15.57.3,1.13.46,1.7.04.15,0,.2-.15.2-.12,0-.25-.02-.37-.02-.26,0-.54.04-.67.27-.13.25-.21.52-.36.77-.16.27-.69,1.31-.7,1.36-.04.12-.13.25-.1.35.02.07.2.12.31.12.67,0,1.33-.02,2-.02.41,0,.82.03,1.23.03.14,0,.28,0,.41-.04.04-.02.05-.16.07-.24,0-.01.01-.03.02-.04.24-.42.47-.83.71-1.25.03-.05.04-.1.07-.14.27-.29.42-.64.52-1.02.02-.09,0-.19-.03-.28-.13-.4-.28-.79-.4-1.19-.11-.38-.18-.78-.29-1.16-.09-.31,0-.45.32-.45.57,0,1.14,0,1.72,0,.16,0,.26.07.27.24,0,.41.02.83.02,1.24,0,.27,0,.55,0,.82,0,.47,0,.93,0,1.4,0,.16-.02.32-.01.48,0,.34.01.68.03,1.03,0,.14.02.29.05.43,0,.05.09.12.14.12.13,0,.26,0,.39-.04.35-.11.7-.24,1.05-.37.14-.05.29-.1.43-.15.17-.06.34-.11.5-.18.17-.08.24-.18.25-.41.02-.3-.07-.58-.06-.88,0,0,0-.01,0-.02,0-.25,0-.5-.02-.75-.02-.17.02-1.35.02-1.37-.02-.36-.04-.73-.05-1.09,0-.36,0-.73,0-1.09,0-.67.01-1.35,0-2.02,0-.08-.05-.2-.11-.22-.14-.05-.29-.06-.44-.06-.17,0-.35.05-.52.06-.26.01-.52,0-.78,0-.79.02-1.59.04-2.38.05-.42,0-.83-.02-1.25-.03-.52,0-1.01-.07-1.36-.52-.06-.08-.16-.14-.28-.24-.15.33-.25.61-.39.87-.19.35-.4.7-.63,1.03-.12.17-.15.3-.04.41-.13.09-.28.14-.35.25-.15.22-.27.47-.39.72-.12.26-.07.35.23.35ZM43.54,21.45c-.17.36-.36.72-.56,1.06-.08.14-.21.22-.4.21-.35,0-.7.03-1.05.05,0,0,0-.01,0-.02-.17,0-.34,0-.51,0-.08,0-.23-.05-.23-.08,0-.11.03-.23.08-.34.03-.08.12-.14.14-.22.06-.24.22-.36.44-.39.25-.03.51-.02.77-.05.11-.01.3-.03.32-.1.04-.14.02-.31,0-.46-.02-.13-.06-.25-.1-.38-.05-.14-.12-.26-.15-.4-.1-.36-.2-.73-.28-1.09-.01-.06.04-.17.09-.2.14-.09.3-.15.45-.22.18-.08.31,0,.38.15.09.2.15.41.21.62.15.51.29,1.02.43,1.53.03.1.04.23,0,.31ZM42.25,15.55s.08,0,.12.03c.49.39,1.07.36,1.64.36.65,0,1.3-.01,1.95-.02.53,0,1.07,0,1.6-.01.47-.02.68.23.58.69-.04.22-.02.45-.02.68,0,.13,0,.26,0,.39,0,.13.01.25,0,.38,0,.18,0,.37,0,.55,0,.4,0,.81.01,1.21,0,.18-.04,1.94-.05,2.25,0,.16-.11.25-.26.27-.17.03-.35.05-.52.08-.15.02-.24-.07-.24-.22,0-.38,0-.75,0-1.13,0-.23.02-.46.02-.68,0-.46-.02-.92-.03-1.39,0-.36-.02-.73-.01-1.09,0-.23.04-.45.04-.68,0-.22-.12-.31-.34-.31-.76.02-1.52.08-2.27.04-.65-.03-1.28.05-1.92.07-.29,0-.59,0-.88-.01-.08,0-.15-.04-.24-.06.27-.47.53-.92.81-1.39Z"/>
      <path class="cls-1" d="M14.79,25.76c-.46-.04-.93-.08-1.39-.12-.05,0-.11,0-.16.01-.62.05-1.72.13-1.77.12-.08-.02-.15-.04-.23-.04-.42,0-.84,0-1.27.02-.12,0-1.14-.1-1.21-.09-.16.03-.33.05-.48.12-.11.06-.23.18-.25.29-.03.21,0,.43,0,.64,0,.08-.04.15-.06.23-.07-.05-.17-.08-.21-.15-.16-.25-.28-.52-.45-.77-.07-.1-.19-.19-.3-.22-.56-.12-1.13-.1-1.7-.01-.25.04-.5.05-.75.04-.19,0-1.94.02-2.53.02-.23,0-.46.02-.69.03-.17,0-.31.04-.38.24-.05.16-.13.33-.24.45-.34.38-.57.82-.74,1.29-.02.07-.01.18.03.23.05.05.15.05.23.05.07,0,.13-.06.2-.06.46-.01.93-.02,1.39-.02.22,0,.45.06.67.07.16,0,.2.09.18.23-.02.11-.04.21-.04.32-.01.54,0,1.08-.03,1.62,0,.29-.07.57-.08.86,0,.32.06.64.06.96,0,.43,0,.87-.02,1.3,0,.11-.04.21-.04.32,0,.19.03.37.01.56-.04.47.11.71.6.61.04,0,.08,0,.12,0,.64-.02,1.29-.03,1.93-.05.28,0,.36-.12.3-.39-.01-.06-.03-.12-.03-.18.01-.56.03-1.13.04-1.69,0-.45-.01-.9,0-1.36,0-.52.02-1.04.03-1.56,0-.44-.01-.88,0-1.32,0-.32.07-.35.39-.36.52,0,1.04-.02,1.55-.04.4-.01.55.11.55.52,0,.48-.02.96-.03,1.44,0,.35-.03.69-.03,1.04,0,.28.04.56.04.83-.01.61-.04,1.21-.06,1.82,0,.32-.01.65-.02.97,0,.21.14.3.32.3.54,0,1.08,0,1.61-.01.54-.01,1.07-.04,1.61-.05.61,0,.97,0,1.58,0h0c.09,0,.19-.01.28,0,.21.02.36-.06.46-.25.29-.54.59-1.07.87-1.61.04-.06.04-.17.01-.23-.02-.05-.13-.07-.2-.07-.52,0-1.05,0-1.57,0-.69,0-1.13,0-1.81.02-.21,0-.29-.05-.3-.25-.02-.27-.04-.54-.05-.81-.01-.25.08-.35.34-.36.4-.01.56,0,.96-.03.11,0,.25-.07.32-.15.12-.13.19-.3.28-.45.2-.34.45-.65.61-1.01.14-.31-.16-.47-.32-.47-.67,0-1.09.02-1.76.03-.26,0-.35-.08-.37-.35-.02-.21-.05-.42-.02-.63.01-.09.13-.23.21-.24.31-.04.37-.04.68-.04.62,0,1.24.01,1.86,0,.22,0,.4-.08.41-.34,0-.03.04-.06.06-.09.2-.27.4-.54.59-.82.12-.19.21-.42.32-.62.09-.17.04-.25-.15-.26ZM6.13,26.8c-.53.02-1.05.05-1.58.07-.17,0-.22.11-.22.25,0,.41,0,.83-.01,1.24,0,.61-.02,1.23-.02,1.84,0,.54.02,1.07.02,1.61,0,.33-.02.67-.03,1,0,.24,0,.47,0,.71,0,.14-.02.18-.16.18-.21,0-.41-.13-.63-.03-.04.02-.23-.15-.24-.25-.03-.41-.02-.82-.02-1.22,0-.53-.02-1.06-.01-1.58,0-.57.05-1.14.06-1.72,0-.41-.01-.82-.02-1.23,0-.14,0-.28.01-.42.03-.32-.08-.45-.41-.44-.37.01-.73.04-1.1.06-.14,0-.28,0-.42-.01-.14-.02-.13-.11-.07-.2.14-.22.28-.44.53-.32.79,0,1.51-.03,2.22-.02.63,0,1.26.02,1.89.06.12,0,.25.11.34.2.11.12.03.23-.14.24ZM13.27,26.63c-.1.07-.24.13-.36.13-.7.02-1.16.02-1.86.02-.33,0-.67,0-1-.01-.33,0-.39.02-.41.34-.02.41-.02.82-.01,1.22,0,.28.04.56.06.84,0,.01,0,.03,0,.05-.07.37-.07.37.32.37.55,0,1.09,0,1.64.01.16,0,.08,0,.23.03.05,0,.11.07.12.12.03.11-.21.36-.34.36-.65,0-1.05,0-1.69.01-.33,0-.4.09-.36.41,0,.06.03.13.02.19-.06.28-.04.56-.01.85.04.41,0,.84-.02,1.26,0,.32.04.39.36.39.33,0,.66-.03,1-.03.15,0,.29.03.44.03.59.02.93.03,1.51.05.07,0,.14.08.2.11-.08.07-.16.19-.25.19-.33.02-.67,0-1.01.01-.66,0-1.08,0-1.74.02-.45,0-.9.03-1.35.06-.16,0-.24-.07-.25-.21-.02-.26-.02-.52-.03-.79,0,0,0-.02,0-.02-.04-.53,0-1.05.04-1.58.04-.58-.03-1.17-.03-1.75,0-.38.07-.76.09-1.14.01-.31-.02-.62-.02-.92,0-.1,0-.2,0-.3v-.64c.25-.02.51-.02.77-.05.16-.02,1.26-.06,1.61-.07.36,0,.48.02.84.03.47.01.93.02,1.4.04.08,0,.21.07.21.12,0,.08-.04.2-.11.25Z"/>
      <path class="cls-1" d="M49.9,25.72c-.43-.01-.87-.02-1.3,0-.3.01-.39.13-.48.42-.12.38-.26.76-.4,1.14-.07.2-.18.4-.25.6-.13.38-.23.77-.36,1.15-.19.56-.39,1.11-.59,1.66-.05.12-.13.23-.2.35-.07-.1-.16-.19-.2-.3-.23-.56-.46-1.12-.66-1.68-.16-.44-.28-.9-.44-1.35-.17-.48-.38-.95-.57-1.43-.22-.56-.22-.55-.82-.52-.42.02-.84,0-1.27.01-.35,0-.69,0-1.04.01,0,0-.01,0-.02.01-.04-.03-.07-.05-.1-.06-.19-.02-.38.03-.57.03-.51,0-1.02,0-1.53,0-.17,0-.34,0-.51.02-.01,0-.03.01-.05.03-.03,0-.07-.01-.13-.02-.11-.01-.22-.04-.32-.04-.31,0-.62.05-.93.03-.39-.02-.49.03-.61.4-.11.34-.25.68-.37,1.02-.16.47-.31.94-.47,1.4-.11.32-.21.65-.34.97-.11.3-.24.59-.37.88-.02.05-.05.1-.07.16-.05-.04-.12-.07-.15-.12-.11-.26-.22-.52-.32-.79-.22-.59-.42-1.18-.64-1.77-.24-.66-.49-1.31-.74-1.97-.07-.17-.19-.25-.39-.18-.07.03-.15.01-.23.01-.36,0-.71-.03-1.07-.03-.38,0-.76.03-1.14.03-.23,0-.29.06-.21.27.11.29.24.57.35.86.2.57.39,1.15.59,1.72.18.49.38.98.57,1.47.22.58.42,1.17.64,1.75.17.48.35.96.52,1.43.16.43.3.87.49,1.28.05.11.23.22.36.23.28.04.56.01.84.01,0,0,0-.01,0-.02.23,0,.45,0,.68,0,.18,0,.27-.1.33-.24.16-.43.32-.85.47-1.28.09-.26.15-.52.25-.78.15-.38.34-.75.49-1.13.21-.53.38-1.07.58-1.6.24-.66.49-1.31.74-1.96.1-.27.24-.54.33-.81.07-.19.12-.38.18-.58,0,.02,0,.03,0,.05,0,.25.02.5.02.75-.01.8-.03,1.6-.05,2.39,0,.39,0,.77,0,1.16,0,.92,0,1.84,0,2.76,0,.36,0,.72,0,1.07,0,.15.07.21.23.21.4-.01.8,0,1.19,0h0c.43,0,.86,0,1.29,0,.23,0,.31-.1.3-.33-.03-.57-.04-1.14-.05-1.71,0-.81,0-1.62,0-2.42,0-.24-.02-.48-.02-.71,0-.35.04-.71.04-1.06,0-.43-.03-.86-.03-1.29,0-.29,0-.58.01-.88.16.41.31.81.47,1.22.14.37.29.73.43,1.11.12.34.21.68.34,1.02.25.67.52,1.34.77,2.01.18.49.33.99.53,1.46.15.35.37,1.03.42,1.16.1.32.13.39.47.39.54,0,1.09,0,1.63,0,0,0,0,0,0,.01.13-.02.27-.02.39-.06.08-.03.19-.1.22-.18.13-.35.24-.71.36-1.06.21-.61.41-1.22.63-1.83.17-.5.36-.99.54-1.49.14-.39.25-.78.38-1.17.1-.29.21-.59.31-.88.11-.33.22-.66.33-.98.13-.38.27-.76.41-1.14.05-.14.06-.29-.14-.29ZM37.57,26.55c-.23.57-.47,1.13-.68,1.7-.17.44-.29.9-.45,1.34-.29.78-.61,1.55-.91,2.33-.18.48-.35.97-.53,1.46-.07.2-.14.34-.41.29-.26-.05-.54,0-.81,0-.2,0-.32-.08-.39-.29-.12-.37-.29-.73-.43-1.1-.16-.43-.31-.86-.47-1.28-.23-.62-.46-1.23-.68-1.85-.14-.38-.26-.76-.39-1.14-.06-.17-.13-.33-.19-.5-.14-.34-.27-.67-.41-1.01-.07-.18-.03-.25.17-.26.06,0,.12,0,.19,0,0,0,0,0,0,.01.11,0,.22-.02.32-.03.3-.02.53.21.65.58.16.48.34.94.5,1.42.07.2.08.42.15.62.06.16.18.3.24.46.24.64.45,1.29.69,1.93.2.55.42,1.08.63,1.62.02.06.09.1.13.15.05-.05.13-.09.15-.16.29-.77.57-1.55.86-2.32.16-.43.31-.86.48-1.28.13-.35.28-.69.42-1.03.03-.07.03-.15.05-.22.03-.09.07-.17.11-.25.03-.05.07-.1.09-.16.1-.32.16-.66.4-.93.05-.05.04-.15.06-.22.04-.13.25-.26.37-.21.16.07.15.2.09.34ZM39.8,33.65c-.19-.02-.38.01-.57.02-.15,0-.21-.06-.21-.21,0-.35,0-.7,0-1.04,0-.59.02-1.18.02-1.77,0-.57-.01-1.13-.01-1.7,0-.37.02-.74.03-1.1,0-.16-.01-.31-.02-.46,0-.32-.04-.65-.01-.97,0-.08.17-.18.28-.21.14-.03.3,0,.46,0,.27-.01.38.1.35.37,0,1.05,0,2.1,0,3.15,0,1.22,0,2.44,0,3.67,0,.24-.08.28-.32.26ZM49.09,26.45c-.12.42-.27.84-.42,1.25-.23.65-.47,1.3-.7,1.95-.3.81-.6,1.62-.89,2.43-.14.4-.29.8-.4,1.21-.08.26-.24.32-.48.31-.34,0-.68,0-1.02,0-.14,0-.29,0-.43-.02-.04,0-.09-.07-.11-.12-.34-.87-.69-1.74-1.03-2.62-.25-.66-.5-1.33-.74-2-.19-.52-.36-1.04-.56-1.56-.08-.21-.17-.41-.27-.61-.14-.29-.04-.45.29-.44.19,0,.39,0,.58.04.1.02.2.13.25.23.1.17.17.36.24.54.09.23.16.47.25.7.33.89.67,1.78,1.01,2.67.14.37.31.73.45,1.1.17.46.32.93.49,1.4.05.14.11.27.31.25.14,0,.19-.05.23-.17.22-.54.45-1.07.65-1.62.23-.62.42-1.25.63-1.87.22-.63.46-1.25.68-1.88.14-.41.27-.82.41-1.23.07-.2.28-.32.46-.22.07.04.14.2.12.28Z"/>
      <path class="cls-1" d="M31.68,34.05c-.16-.4-.33-.79-.47-1.19-.21-.56-.39-1.12-.59-1.68-.16-.44-.35-.86-.51-1.3-.22-.6-.41-1.2-.62-1.8-.11-.31-.24-.61-.35-.91-.15-.42-.29-.85-.45-1.27-.02-.06-.11-.12-.17-.13-.12-.02-.25,0-.38,0-.39,0-.79,0-1.18,0-.29,0-.57-.01-.86-.01-.06,0-.16.02-.18.06-.1.19-.18.38-.26.58-.13.35-.22.72-.36,1.06-.11.29-.28.57-.4.85-.07.18-.11.37-.18.55-.13.36-.25.72-.39,1.08-.11.28-.28.55-.38.84-.19.53-.34,1.08-.53,1.61-.25.69-.53,1.37-.78,2.06-.12.31-.04.39.3.38.38,0,.76,0,1.14,0,.07,0,.17-.03.2-.08.09-.12.18-.26.23-.4.16-.51.27-.58.79-.54.41.03.83.05,1.24.05.37,0,.73-.06,1.1-.04.41.03.93-.12,1.06.52,0,.04.03.09.04.13.05.2.17.33.4.33h2.33c.35.02.44-.06.37-.3-.04-.15-.09-.3-.15-.44ZM29.52,33.66c-.11,0-.22,0-.32-.02-.06-.02-.13-.08-.15-.14-.08-.2-.17-.4-.22-.61-.05-.2-.18-.27-.36-.26-.44,0-.87.01-1.31.01-.78,0-1.56-.01-2.34-.02-.41,0-.48.05-.61.42-.06.17-.15.33-.22.49-.07.15-.2.17-.31.1-.06-.03-.1-.17-.07-.24.15-.45.33-.89.49-1.33.18-.48.34-.96.52-1.44.17-.46.36-.9.53-1.36.25-.68.49-1.37.73-2.05.07-.18.16-.36.23-.54.05-.11.06-.31.14-.33.21-.07.45-.09.68-.1.12,0,.27-.01.36.05.12.08.25.21.3.35.21.57.39,1.15.6,1.71.1.26.26.5.36.77.1.25.16.52.25.77.15.42.33.83.49,1.25.16.44.32.87.48,1.31.14.38.27.77.42,1.21-.25,0-.46,0-.67,0Z"/>
      <path class="cls-1" d="M21.82,32.62c-.31-.03-.62-.03-.93,0-.45.05-.89-.12-1.34-.03-.23.05-.48-.02-.72-.01-.32,0-.15.04-.47.06-.16.01-.25-.06-.27-.22-.02-.23-.06-.47-.06-.7,0-.58.04-1.15.05-1.73,0-.53-.01-1.07,0-1.6,0-.82.01-1.65.03-2.47,0-.14-.06-.21-.18-.23-.1-.02-.2-.02-.3-.02-.59.01-1.18.03-1.77.05-.16,0-.31,0-.47.02-.14.02-.21.11-.19.27.03.3.04.6.04.9,0,.15-.06.31-.05.46.05.44.01.87-.01,1.31-.02.24.03.49.05.73,0,.06.01.12,0,.19-.02.28-.06.55-.06.83,0,.43.05.86.06,1.29,0,.33-.03.67-.04,1,0,.14.02.28.02.41-.01.49-.03.98-.04,1.47,0,.16.08.22.23.21.73,0,1.46-.01,2.19-.01.46,0,.42,0,.88,0,.59,0,1.18,0,1.72,0,.49.05.81-.05,1-.5.21-.48.5-.92.76-1.37.11-.19.08-.29-.14-.31ZM20.07,33.64c-.54-.01-1.08-.03-1.62-.04-.49,0-.49,0-.97,0-.34,0-.68,0-1.02,0-.18,0-.37.02-.55,0-.07-.01-.18-.11-.19-.18-.03-.37-.03-.74-.05-1.12,0-.15-.02-.31-.02-.46,0-.25.04-.5.03-.75,0-.53-.03-1.06-.03-1.59,0-.24.03-.48.03-.72,0-.32,0-.64,0-.96h.01c0-.32,0-.64,0-.96,0-.16.03-.31.05-.46,0-.02.02-.06.03-.06.26-.05.52-.13.78-.13.2,0,.19.2.19.37,0,1.24,0,2.48,0,3.72,0,.87-.01,1.74-.01,2.61,0,.18.06.3.29.29.79-.02,1.1-.02,1.89-.02.41,0,.83,0,1.24.02.06,0,.19.12.18.14-.05.13-.02.34-.26.33Z"/>
      <path class="cls-1" d="M27.97,30.67c-.23-.6-.48-1.19-.71-1.78-.17-.45-.32-.91-.49-1.36-.05-.13-.12-.26-.19-.4-.07.04-.09.05-.09.06-.13.51-.56.89-.6,1.44-.02.25-.18.49-.27.74-.14.36-.28.71-.41,1.06-.17.47-.33.94-.51,1.4-.09.24-.05.31.21.29.25-.02.5-.04.74-.04.37,0,.74.05,1.11.06.45.01.9,0,1.34.01.22,0,.35-.09.3-.25-.14-.41-.27-.83-.43-1.23ZM27.36,31.66c-.24,0-.48.01-.71.01-.32,0-.63,0-.95-.02-.03,0-.09-.13-.08-.18.13-.4.28-.8.43-1.2.13-.36.28-.72.42-1.08.04-.1.09-.18.16-.32.05.09.09.13.11.17.21.58.41,1.17.62,1.75.07.19.17.37.23.55.03.09.02.2.03.29-.09,0-.17.02-.26.02Z"/>
    </g>
  </g>
</svg>