<?xml version="1.0" encoding="UTF-8"?>
<svg id="Layer_2" xmlns="http://www.w3.org/2000/svg" viewBox="0 0 49.58 27.12">
  <defs>
    <style>
      .cls-1 {
        fill: #2c489e;
      }
    </style>
  </defs>
  <g id="Layer_1-2" data-name="Layer_1">
    <g>
      <path class="cls-1" d="M1.34,25.56c.13.05.28.04.42.04.32,0,.64-.03.97-.03,1.1,0,2.2-.01,3.3.02,1.01.03,2.01.12,3.02.15,1.59.04,3.18.04,4.77.07.37,0,.74.1,1.11.11.87.04,1.75.05,2.62.07.32,0,.65,0,.97,0,.34-.02.68-.09,1.02-.08,1.43.03,2.86.09,4.29.13,1.29.03,2.57.04,3.86.05.53,0,1.05-.06,1.58-.03,1.12.06,2.23.05,3.35-.1.2-.03.41,0,.61.02.2.01.4.04.6.03.54-.02,1.07-.06,1.61-.1.21-.02.42-.04.63-.07.18-.03.37-.12.55-.12.8.04,1.59.12,2.39.15.9.04,1.81.05,2.72.05,1.36,0,2.72-.02,4.08-.02.44,0,.87-.26,1.33-.07.19.08.42.07.64.07.25,0,.42-.1.32-.41-.02-.07-.03-.16,0-.22.16-.25.06-.43-.09-.65-.23-.35-.58-.63-.6-1.11,0-.18-.1-.39-.22-.52-.36-.38-.75-.72-.88-1.27-.03-.12-.23-.21-.38-.27-.17-.07-.35-.1-.53-.16-.09-.03-.18-.07-.25-.13-.22-.2-.45-.4-.65-.62-.11-.13-.23-.3-.24-.45-.04-.55-.09-1.12-.01-1.67.08-.61,0-1.18-.14-1.75-.07-.29-.26-.57-.28-.86-.02-.48.06-.96.09-1.44.03-.48.11-.97.07-1.44-.03-.39-.14-.8-.32-1.14-.18-.34-.24-.64-.2-1.01.06-.49.2-1.01-.15-1.47-.14-.18-.28-.38-.52-.3-.25.08-.33.29-.33.57,0,.65-.06,1.29-.57,1.79-.08.08-.1.26-.1.39,0,.45.05.91,0,1.36-.06.59-.19,1.16-.29,1.74-.02.08-.1.15-.15.22-.04,0-.08,0-.12-.01-.03-.32-.1-.65-.09-.97.02-.74.08-1.48.12-2.23.02-.33.02-.66-.18-.96-.14-.21-.27-.46-.29-.71-.07-.74-.09-1.49-.12-2.24,0-.22-.01-.46.05-.67.12-.42.02-.77-.25-1.08-.24-.28-.6-.26-.72.08-.12.33-.19.68-.22,1.03-.04.34,0,.69,0,1.03,0,.13-.04.31-.13.38-.42.33-.4.79-.41,1.24,0,.19,0,.39.01.58.02.43.14.88.05,1.29-.2.92-.09,1.85-.12,2.77-.01.47,0,.94,0,1.4-.03.01-.06.02-.09.03-.22-.26-.46-.51-.66-.79-.62-.85-1.27-1.66-2.25-2.14-.06-.03-.13-.13-.13-.2,0-.74.02-1.49.02-2.23,0-.51.09-1.03-.12-1.53-.1-.23-.24-.47-.24-.71-.02-1.1.01-2.2,0-3.29,0-.38-.03-.81-.21-1.13-.16-.28-.24-.53-.25-.83,0-.3-.02-.6-.06-.9-.04-.39-.33-.65-.66-.61-.26.03-.51.36-.52.7,0,.27.02.54,0,.8-.03.61-.07,1.23-.12,1.84-.02.21-.01.47-.13.61-.37.42-.36.91-.34,1.4,0,.3.06.6.06.91,0,.18-.04.37-.11.52-.17.34-.23.68-.16,1.06.04.22.04.45.02.68,0,.08-.12.19-.2.2-.08,0-.2-.07-.24-.15-.06-.11-.07-.25-.1-.37-.24-.9-.66-1.7-1.38-2.3-.4-.33-.81-.69-1.35-.76-.75-.09-1.51-.24-2.27-.04-.11.03-.31-.01-.36-.09-.17-.29,0-.64.32-.71.19-.04.38-.02.58-.02.18,0,.36.01.55,0,.24-.01.37-.15.4-.39.03-.27.06-.54.06-.81.01-.47-.25-.72-.72-.71-.3,0-.6,0-.91,0-.33-.02-.34-.27-.35-.52,0-.25.12-.34.36-.34.38,0,.76,0,1.13,0,.23,0,.41-.1.41-.36,0-.36,0-.73-.05-1.08-.04-.24-.23-.38-.49-.39-.19,0-.39,0-.58,0-.24,0-.59.09-.71-.03-.14-.15-.06-.49-.12-.73-.05-.18-.16-.43-.3-.48-.25-.1-.55-.1-.82-.1-.65,0-1.29.06-1.94.06-.72,0-1.43-.03-2.15-.04-.42,0-.84.02-1.26.01-.68,0-1.36-.03-2.03-.04-.3,0-.46.14-.47.45-.01.7-.03,1.4-.04,2.1,0,.19.07.39.06.58,0,.69-.04,1.37-.05,2.06,0,.58,0,1.16.02,1.74,0,.26.07.51.08.77.02.43-.07.51-.46.33-.57-.27-1.13-.32-1.76-.2-.89.17-1.65.56-2.29,1.18-.51.49-.94,1.06-1.42,1.59-.05.06-.14.08-.21.12-.04-.07-.1-.14-.11-.22-.03-.33-.05-.66-.05-.98,0-.44.01-.87.02-1.31,0-.42-.05-.82-.4-1.11-.11-.09-.34-.05-.3-.31.03-.16,0-.32.02-.48.11-.76.17-1.52-.09-2.28-.08-.24-.2-.42-.46-.43-.25,0-.42.17-.49.4-.18.63-.37,1.26-.52,1.89-.07.29-.04.6-.09.89-.06.45-.15.89-.22,1.33-.07.43-.05.86-.37,1.25-.19.23-.24.62-.25.94-.02.54.04,1.08.06,1.63.01.33-.02.66.03.98.06.4-.07.7-.4.93-.16.11-.32.33-.34.52-.04.29.07.6.07.9,0,.23.02.53-.11.68-.33.39-.3.84-.32,1.28-.03.58.02,1.16.02,1.74,0,.47-.04.92-.68.94-.02,0-.04.02-.06.03-.26.16-.36.04-.41-.22-.08-.38-.17-.75-.26-1.12-.01-.06-.01-.13-.01-.19-.03-.39-.02-.79-.08-1.18-.14-.92-.31-1.83-.47-2.75-.03-.18-.02-.37-.06-.55-.08-.32-.31-.4-.58-.21-.29.2-.37.52-.41.84-.05.44-.07.88-.11,1.31,0,.08-.04.18-.1.22-.36.26-.34.64-.4,1.02-.07.47.27.97-.11,1.41-.02.03.03.12.04.18.02.08.06.18.03.25-.18.49-.09.99-.04,1.49.01.15-.02.35-.11.45-.21.21-.46.41-.73.54-.62.31-1.05,1.18-.86,1.83.09.32.1.61-.15.88-.09.1-.16.24-.18.37-.06.35-.27.55-.58.68-.08.03-.14.11-.2.17.08.08.15.18.25.22ZM12.16,20.98s-.11-.04-.27-.12c.48-.1.57-.29.34-.61-.02-.03.01-.1.03-.14,0-.01.08-.01.09,0,.05.21.14.42.13.64,0,.08-.2.17-.32.23ZM15.18,25.35c-.08-.03-.22-.06-.22-.09,0-.13.05-.26.08-.38.07.02.14.03.21.05-.02.14-.05.28-.07.43ZM15.3,24.35c0-.28.32-.56.66-.54.07,0,.18.15.18.22-.07.57-.02.56-.46.61-.18-.02-.37-.01-.37-.29ZM26.08,25.64c-.05.02-.13,0-.19,0-.81-.02-1.61-.05-2.42-.05-1.11,0-2.21.03-3.32.02-1.37-.01-2.75-.06-4.12-.09-.22,0-.43-.07-.43-.34,0-.25.23-.29.42-.31.19-.02.39,0,.58,0,0-.01,0-.02,0-.03.85,0,1.7-.02,2.55,0,.81.02,1.63.09,2.44.11.33.01.66-.04.99-.04.8.01,1.6.04,2.4.07.27,0,.54,0,.81.02.13,0,.29-.02.38.05.11.09.2.24.22.38,0,.05-.2.14-.31.2ZM22.17,21.59v.02c1.13,0,2.26,0,3.39,0,.16,0,.32.06.48.04.24-.02.34.08.34.3,0,.26-.17.46-.4.46-.57-.01-1.14-.05-1.71-.04-.75,0-1.51.04-2.26.04-.7,0-1.4,0-2.1-.02-.28,0-.38-.16-.36-.42.01-.24.07-.4.38-.39.74.02,1.49,0,2.23,0ZM21.56,20.49c.14-.01.28-.02.42-.02,0,0,0,0,0,.01.58,0,1.17-.01,1.75,0,.75.02,1.5.07,2.25.11.28.01.43.15.4.43-.03.29-.24.32-.47.32-.62-.01-1.25-.02-1.87-.03-.63-.01-1.27-.04-1.9-.05-.15,0-.3.05-.44.07-.31.05-.36-.03-.44-.54-.04-.27.13-.28.31-.29ZM20.69,22.72c.62.02,1.25.05,1.87.05.51,0,1.01-.05,1.52-.06.62-.01,1.25-.01,1.87-.02.26,0,.41.1.42.37,0,.27-.1.44-.4.44-.17,0-.35,0-.52,0v-.03c-.67,0-1.33,0-2,0-.76,0-1.53,0-2.29.02-.93.02-1.86.04-2.79.07-.23,0-.41-.02-.46-.29-.05-.28.08-.48.32-.52.38-.07.78-.08,1.18-.08.43,0,.86.03,1.29.05ZM19.76,23.81c.95,0,1.89-.05,2.84-.05.6,0,1.2.05,1.8.06.5,0,1.01-.02,1.52-.01.15,0,.39.05.42.13.06.18.03.4,0,.6,0,.05-.15.12-.24.12-.69,0-1.37-.03-2.06-.04-.83,0-1.67.01-2.5,0-1.26-.02-2.51-.06-3.77-.08-.3,0-.6.05-.9.06-.2.01-.43.06-.48-.24-.03-.23.18-.48.44-.51.14-.02.28,0,.42,0v-.03c.84,0,1.68,0,2.52,0ZM26.34,18.8c-.02.38-.02.75-.06,1.13,0,.09-.13.26-.17.25-.12-.03-.29-.11-.32-.2-.07-.25-.13-.53-.11-.79.06-.76.06-1.51-.1-2.26-.09-.41-.35-.6-.86-.63-.5-.03-.9.2-1,.64-.09.39-.11.79-.13,1.19-.03.59-.03,1.17-.05,1.76,0,.27-.21.28-.39.29-.19.01-.34-.03-.35-.28-.02-.53-.06-1.05-.1-1.58.01,0,.02,0,.04,0,0-.88,0-1.77,0-2.65,0-.76.01-1.53.02-2.29,0-.33-.14-.53-.48-.57-.24-.03-.34-.18-.33-.43.01-.33,0-.67,0-1,.02-.5.38-.75.87-.71.44.04.88,0,1.32,0,1.02.01,2.04.03,3.06.05.68,0,1.36.01,2.04,0,.23,0,.31.1.36.31.24,1,.08,2.02.12,3.03.01.3.09.59.11.89,0,.13-.02.27-.08.39-.1.2-.26.37-.37.57-.34.67-.67,1.34-.98,2.02-.14.3-.38.31-.64.32-.36.01-.73,0-1.09.05-.27.03-.34.28-.35.51ZM35.55,22.62c-.15-.03-.31-.02-.44-.1-.74-.42-1.12.07-1.21.65-.02.16-.05.32-.12.46-.11.22-.24.24-.49.11-.33-.17-.71-.35-1.09-.19-.39.17-.5.54-.49.94,0,.11,0,.22,0,.32-.04.26-.17.41-.43.54-.79.38-1.61.21-2.42.26-.56.04-1.12.03-1.68.04-.45,0-.5-.05-.5-.49,0-.7-.02-1.4,0-2.1.01-.73.06-1.45.08-2.18.02-.62.02-1.25.02-1.87,0-.33.09-.48.4-.48.98,0,1.96.04,2.94.05.44,0,.87-.05,1.31-.06.57-.01,1.13,0,1.7,0,.73,0,1.46,0,2.19,0,.23,0,.31.1.3.32,0,.59,0,1.19,0,1.78h.05c-.02.32-.04.65-.05.97,0,.13.07.27.06.4-.02.21-.07.42-.11.63ZM33.98,13.17c.42.03.83.07,1.25.1,0,.06,0,.11,0,.16-.24.03-.48.05-.72.08,0,.03,0,.06-.01.09.2.13.41.22.68.2.27-.03.54,0,.9,0-.32.47-.83.16-1.12.48.24,0,.49,0,.73,0,.39-.01.77-.03,1.16-.04.07,0,.14.07.21.1-.06.06-.12.16-.19.17-.4.01-.79,0-1.19,0-.27,0-.54,0-.81.02-.08,0-.15.07-.23.11.07.05.13.15.2.16.36.03.73.04,1.1.04.48,0,.96-.02,1.44-.02.05,0,.1.06.14.1-.04.05-.07.1-.11.14-.03.02-.08.02-.12.02-.83.02-1.65.04-2.48.07-.09,0-.18.07-.26.11.08.05.16.16.23.16.78,0,1.55-.03,2.32-.04.25,0,.49,0,.74.02.07,0,.13.11.2.18-.08.05-.16.15-.24.16-.52.04-1.05.05-1.58.07-.7.03-1.39.05-2.09.09-.08,0-.17.09-.25.13.09.03.17.1.26.1.74-.01,1.48-.06,2.22-.06.6,0,1.2.04,1.8.07.07,0,.13.05.2.08,0,.03,0,.06.02.09-.13.03-.26.09-.39.1-.55.02-1.1.02-1.65.04-.76.03-1.52.07-2.28.12-.06,0-.11.05-.16.07,0,.04,0,.08.01.12,1.55.06,3.11-.02,4.68-.04-.01.31-.18.4-.4.4-.93-.01-1.85-.04-2.78-.05-.44,0-.88.02-1.33.03-.06,0-.11.07-.17.1.05.05.09.11.15.14.07.03.15.02.22.02,1.01,0,2.03,0,3.04,0,.34,0,.68-.04,1.03-.04.09,0,.18.08.27.12-.07.06-.14.17-.21.17-.49.01-.98,0-1.47,0-1.1.02-2.2.04-3.3.08-.17,0-.34.07-.5.11,0,.03,0,.06.02.09h5.91s.02.06.03.09c-.14.05-.27.13-.41.14-.64.03-1.27.04-1.91.06-.67.02-1.35.06-2.02.07-.47,0-.95-.03-1.42-.03-1.19,0-2.38.02-3.57.03-.26,0-.52.01-.77,0-.28-.02-.29-.21-.19-.4.27-.56.55-1.12.85-1.67.46-.85,1.21-1.46,1.91-2.07.67-.58,1.47-.99,2.42-.93ZM27.17,7.19c.66-.19,1.37-.16,2.06-.02.15.03.31.06.46.1.01.03.02.07.03.11-.21.09-.42.18-.63.26,0,.04.02.09.03.13.25-.02.49-.04.78-.07.05.03.17.14.28.14.1,0,.19-.14.27-.21.07.44.07.43-.35.42-.41,0-.82.02-1.22.06-.09,0-.18.11-.27.17.09.05.18.13.28.14.52,0,1.03-.01,1.55-.01.16,0,.32.03.48.05,0,.05,0,.11,0,.16-.74.07-1.48.13-2.22.2,0,.05,0,.1,0,.15.16.03.31.09.47.09.58.01,1.16,0,1.75.02.15,0,.29.05.44.14-.27.2-.57.14-.85.16-.51.03-1.03.04-1.54.07-.06,0-.12.09-.18.14.06.05.12.13.18.14.52.01,1.03.01,1.55.01.37,0,.73-.02,1.1-.01.18,0,.56.35.5.47-.06.13-.23.27-.36.28-.61.02-1.22,0-1.84-.02-.8-.02-1.59-.07-2.39-.08-.71,0-1.41.04-2.12.04-.38,0-.76-.05-1.16-.08.08-.4.16-.75.45-1.03.15-.14.24-.33.36-.5.52-.78,1.23-1.35,2.12-1.6ZM11.7,12.13c.3-.94.88-1.66,1.58-2.35.48-.48,1.03-.83,1.55-1.23.77-.59,2.22-.56,3.02.08-.13.08-.23.15-.38.25.33.23.77-.2,1.01.29-.11.02-.21.05-.31.06-.21.02-.43.03-.64.06-.07.01-.12.1-.18.16.06.05.12.11.2.14.08.03.17.02.26.02.43,0,.85,0,1.33,0-.11.34-.32.33-.53.32-.42-.03-.84-.05-1.26-.07-.08,0-.17.03-.33.07.28.26.55.16.79.18.46.02.93-.01,1.39,0,.11,0,.21.12.32.18-.11.04-.22.11-.33.11-.71,0-1.42-.02-2.13-.02-.1,0-.2.07-.3.11,0,.04,0,.08,0,.11.15.02.3.06.44.06.76-.02,1.52-.06,2.28-.08.12,0,.24.07.36.1-.13.07-.25.18-.38.19-.79.03-1.57.03-2.36.04-.09,0-.18,0-.26.03-.08.03-.15.1-.23.15.09.05.17.14.26.14.68-.02,1.35-.07,2.03-.09.38,0,.76.02,1.14.04,0,.04,0,.09.01.13-.12.04-.24.1-.36.11-.63.02-1.25,0-1.88.03-.34.01-.68.08-1.02.14-.04,0-.06.07-.16.18,1.3-.13,2.52-.01,3.73.02,0,.05.01.1.02.15-.11.04-.21.11-.32.11-.91-.02-1.81-.08-2.72-.08-.29,0-.58.11-.86.17-.04.01-.1.13-.09.14.06.05.13.13.2.13.37.02.75.02,1.13.02.92,0,1.85-.02,2.77-.02.16,0,.32.1.56.18-.01-.18.02-.37-.05-.5-.41-.82-.83-1.64-1.28-2.44-.12-.22-.31-.45-.53-.55-.72-.34-.81-.95-.81-1.63,0-.6-.05-1.2-.05-1.8,0-.91.06-1.82.06-2.74,0-.73-.04-1.45-.08-2.18-.01-.24,0-.35.29-.25.15.05.33-.02.5-.02,1.59,0,3.17,0,4.76,0,.69,0,1.38,0,2.07,0,.29,0,.52.04.46.43-.02.16.03.34.07.51.07.26.27.33.53.32.33-.01.67,0,1,0,.25.01.38.16.4.42.07.66.08.65-.6.67-.34.01-.69.05-1.02.11-.1.02-.24.17-.26.28-.04.23-.04.47,0,.7.04.33.35.54.72.52.29,0,.58-.02.87-.03.05,0,.11-.01.16,0,.22.07.33.24.24.45-.11.25.26.74-.36.75-.29,0-.58-.02-.87,0-.47.04-.69.34-.63.8.07.55.07.55-.41.83-.89.52-1.6,1.2-2.03,2.15-.12.25-.24.5-.41.73-.07.1-.23.18-.37.2-.32.05-.64.05-.96.07-.5.03-.75.27-.77.76-.01.37,0,.73.02,1.1.02.48-.11.56-.59.51-.48-.05-.98,0-1.47,0-1.2,0-2.39.03-3.59,0-1.04-.03-2.08-.12-3.12-.17-.28-.01-.56.02-.84.05-.5.05-.56-.04-.41-.51ZM10.65,13.41c0-.28.15-.44.44-.43,1.25.04,2.51.09,3.76.12.64.02,1.27,0,1.91,0,.24,0,.33.09.34.32.02.37.05.73.07,1.1-.03,0-.06,0-.1,0,0,.93,0,1.87,0,2.8.01,1.14.05,2.28.06,3.42,0,.87-.03,1.75-.06,2.62,0,.09-.15.2-.26.25-.1.04-.23,0-.35,0-.22.02-.29-.09-.27-.29.07-.64-.11-1.15-.74-1.43-.24-.1-.21-.23-.04-.38.48-.45.57-1.16.16-1.69-.12-.16-.37-.29-.56-.29-.32,0-.6-.05-.85-.24-.19-.14-.38-.15-.6-.04-.21.11-.43.19-.66.27-.29.11-.43,0-.43-.31,0-.26.05-.53-.01-.78-.1-.43-.23-.87-.41-1.27-.1-.23-.37-.27-.63-.23-.06.01-.12.05-.18.06-.49.13-.59.06-.59-.45,0-1.04,0-2.09,0-3.13Z"/>
      <path class="cls-1" d="M49.5,26.33c-.21-.34-.51-.43-.96-.3-.72.21-1.44.39-2.19.14-.11-.03-.23,0-.35,0-.58.04-1.16.13-1.74.13-1.71,0-3.41-.06-5.12-.06-1.1,0-2.19.04-3.29.07-1.01.03-2.01.06-3.02.09-.86.02-1.72.03-2.58.03-.66,0-1.31,0-1.97-.02-.89-.02-1.77-.05-2.65-.06-.54,0-1.07.04-1.61.03-.97-.02-1.94-.06-2.9-.1-.75-.03-1.5-.1-2.25-.11-1.56-.03-3.13-.03-4.69-.06-.31,0-.62-.05-.93-.05-1.16-.01-2.33,0-3.49-.02-1.32-.02-2.65-.06-3.97-.08-.89-.01-1.79,0-2.68-.02-.83-.02-1.65-.09-2.56-.15.02,0-.04,0-.1,0-.22.03-.42.08-.44.35-.01.3.24.3.44.31.39.03.78.03,1.16.04,1.31.05,2.62.13,3.93.16,1.28.03,2.57.02,3.85.03,1.1.02,2.2.05,3.3.08.6.02,1.2.07,1.8.09.21,0,.43-.05.64-.05,1.05.03,2.11.07,3.16.09.48.01.97,0,1.46,0,.87.02,1.75.05,2.62.06.97.01,1.94.01,2.91.02,1.88.02,3.75.05,5.63.06,1.03,0,2.06,0,3.1,0,1.25,0,2.5,0,3.74,0,1.64,0,3.28.08,4.92,0,.6-.03,1.16-.16,1.79-.04.68.13,1.41,0,2.13-.02.86-.02,1.72-.02,2.58-.06.14,0,.34-.09.4-.2.06-.11.02-.32-.05-.44Z"/>
      <path class="cls-1" d="M24.1,11.97c-.29.03-.6.09-.69.43-.07.28-.1.57-.16.85-.14.7.03.9.72.85.15,0,.32.04.45-.01.15-.06.33-.19.37-.33.13-.46.11-.93-.11-1.38-.12-.25-.29-.45-.59-.41Z"/>
      <path class="cls-1" d="M27.48,14.04c.15-.04.34-.12.39-.24.22-.45.12-.93-.02-1.38-.11-.34-.48-.47-.86-.39-.31.07-.63.51-.63.86.03.27.06.53.09.79.03.3.21.4.49.39.18,0,.37.02.54-.03Z"/>
      <path class="cls-1" d="M29.98,20.47c-.26-.23-.85-.4-1.15-.24-.38.2-.71.48-.76.94-.05.42-.02.86-.03,1.28,0,.12,0,.24-.03.35-.09.36-.05.52.3.58.54.09,1.09.12,1.63.13.23,0,.39-.18.4-.43,0-.32,0-.65,0-.97h.02c0-.23-.01-.45,0-.68.02-.38-.08-.69-.38-.95Z"/>
      <path class="cls-1" d="M33.46,20.3c-.24-.2-.54-.29-.84-.13-.31.17-.7.27-.74.73-.03.37-.07.75-.11,1.12.02,0,.03,0,.05,0,0,.34-.02.69,0,1.03.02.22.11.36.39.21.27-.15.56-.21.86-.06.25.13.38.02.45-.23.07-.28.13-.57.26-.82.28-.54.14-1.48-.32-1.86Z"/>
    </g>
  </g>
</svg>