<?xml version="1.0" encoding="UTF-8"?>
<svg id="Layer_2" xmlns="http://www.w3.org/2000/svg" viewBox="0 0 41.93 34.33">
  <defs>
    <style>
      .cls-1 {
        fill: #2c489e;
      }
    </style>
  </defs>
  <g id="Layer_1-2" data-name="Layer_1">
    <g>
      <path class="cls-1" d="M12,18.33c-.07-.1-.13-.2-.17-.31-.03-.07-.07-.09-.13-.07-.05.02-.11.04-.15.08-.16.14-.32.28-.47.43-.15.15-.17.32-.06.5.05.09.1.17.17.25.17.2.25.4.12.66-.21.44-.41.88-.62,1.32-.11.23-.27.44-.52.55-.2.09-.4.17-.61.22-.45.1-.9.18-1.35.27-.03,0-.07-.01-.1-.02,0-.03.01-.06.02-.09.17-.39.34-.78.5-1.17.21-.49.41-.98.62-1.46.08-.18.23-.21.39-.09.07.06.15.12.23.18.12.08.19.08.29-.02.19-.2.32-.43.38-.7.03-.14,0-.25-.11-.34-.21-.17-.41-.35-.61-.53-.15-.13-.27-.11-.36.07-.07.15-.12.3-.19.45-.28.67-.56,1.35-.84,2.02-.19.47-.38.95-.57,1.42-.03.07-.06.15-.1.22-.02,0-.03,0-.05,0-.03-.08-.06-.16-.08-.25-.03-.13-.06-.26-.08-.39-.06-.39-.12-.78-.17-1.18-.02-.22,0-.44.12-.64.05-.1.13-.13.23-.08.03.01.06.03.09.04.12.06.24.03.3-.09.11-.22.21-.44.29-.67.05-.15,0-.23-.12-.31-.2-.12-.4-.25-.6-.37-.22-.14-.46-.23-.63-.44-.06-.07-.13-.05-.19.04-.12.18-.23.36-.34.54-.1.17-.12.41.11.56.19.12.38.24.57.36.16.1.16.1.08.27-.05.11-.11.22-.17.33-.14.29-.24.58-.19.91.13.81.23,1.63.35,2.44.03.19.14.28.33.25.3-.05.59-.11.89-.17.49-.1.98-.21,1.47-.32.2-.05.35-.19.45-.38.1-.2.2-.4.29-.61.29-.61.59-1.23.88-1.84.05-.1.11-.18.2-.24.18-.13.34-.27.5-.41.15-.14.22-.5.1-.67-.13-.17-.26-.35-.38-.52Z"/>
      <path class="cls-1" d="M17.54,11.31c-.01.14-.01.27-.02.41-.02.41-.04.83-.06,1.24-.01.28-.02.57-.04.85-.02.31.15.52.46.52.55,0,1.11.01,1.66.02.42,0,.84,0,1.26,0,.22,0,.4-.09.46-.33.06-.22.13-.44.17-.67.07-.37.14-.74.17-1.12.04-.58.05-1.15.06-1.73,0-.3,0-.6-.04-.9-.04-.32-.21-.4-.48-.41-.33-.02-.66,0-1,0-.57,0-1.14,0-1.71-.01-.18,0-.32-.06-.4-.24-.07-.14-.14-.15-.22-.02-.17.28-.35.56-.49.85-.1.24-.03.37.19.45.13.05.26.09.41.14-.05.09-.09.17-.13.25-.12.22-.25.44-.27.7ZM18.09,10.97c.03-.24.23-.55.58-.57.35-.02.71-.03,1.07-.03.27,0,.54,0,.82,0,.27,0,.43.13.45.4.04.37.06.75.07,1.13,0,.27-.01.54-.04.8-.03.29-.2.45-.5.45-.33,0-.66,0-.98,0v-.02c-.37,0-.75,0-1.12,0-.26,0-.39-.1-.39-.37,0-.35-.02-.7-.02-1.05,0-.25.03-.5.06-.75Z"/>
      <path class="cls-1" d="M41.62,19.93c-.04-.29-.09-.58-.14-.87-.05-.3-.25-.45-.53-.49-.63-.09-1.26-.18-1.89-.27-.12-.02-.25-.03-.33-.15-.11-.16-.18-.16-.28.01-.08.13-.15.26-.23.4-.07.13-.15.26-.21.39-.1.22-.03.38.19.46.08.03.16.03.25.05.06.01.09.03.06.1-.11.28-.22.56-.31.84-.07.19-.14.39-.17.59-.04.21.11.43.31.49.27.09.55.17.83.24.2.05.33-.03.38-.23.05-.18.09-.36.14-.55.06-.25.01-.32-.23-.39-.17-.05-.33-.09-.5-.15-.24-.08-.33-.26-.27-.5.06-.24.23-.37.48-.34.41.05.81.11,1.22.15.36.04.56.21.66.56.05.19.1.37.15.56.08.36.17.72.24,1.08.03.16-.04.3-.18.37-.08.04-.17.08-.26.09-.27.03-.54.06-.81.08-.56.05-1.12.11-1.68.14-.35.02-.6.14-.71.49,0,.02-.02.04-.03.05-.06.17-.13.33-.18.51-.04.14.05.24.2.23.16-.01.33-.03.49-.04.76-.06,1.52-.12,2.28-.18.2-.02.38-.09.51-.24.23-.27.46-.54.69-.82.13-.16.18-.35.18-.55-.02-.2-.04-.4-.07-.59-.07-.51-.15-1.01-.23-1.52Z"/>
      <path class="cls-1" d="M37.39,2.54c-.27.34-.49.71-.49,1.16,0,.27.09.52.21.75.08.15.09.27,0,.41-.05.08-.1.18-.12.27-.03.13.03.17.15.13.09-.03.17-.08.26-.1.12-.02.25-.05.36-.02.14.03.27.12.4.19.17.09.31.08.44-.07.07-.08.14-.18.18-.28.11-.29.1-.45-.15-.61-.17-.11-.34-.25-.49-.39-.19-.16-.37-.33-.53-.51-.14-.17-.2-.39-.09-.6.12-.23.31-.39.52-.54.08-.06.14-.05.21.02.13.14.27.28.41.41.33.31.66.62.99.94.57.54,1.13,1.09,1.7,1.63.11.1.19.1.26-.04.05-.1.09-.21.12-.32.05-.25.09-.5-.06-.72-.1-.15-.23-.3-.36-.43-.32-.33-.65-.65-.98-.97-.08-.07-.08-.13-.02-.2.12-.16.24-.33.37-.48.14-.16.33-.18.5-.05.08.06.16.12.25.17.11.06.2.05.26-.06.23-.44.29-.78-.11-1.15-.26-.25-.51-.52-.75-.79-.1-.11-.16-.13-.26-.01-.12.14-.23.28-.34.43-.08.12-.07.29,0,.38.1.13.19.25.28.38.1.15.1.29-.01.43-.12.15-.25.3-.39.44-.17.17-.16.15-.33,0-.48-.46-.94-.94-1.41-1.41-.19-.19-.4-.37-.47-.65-.01-.04-.05-.08-.08-.12-.04.03-.1.05-.13.09-.12.17-.24.33-.35.5-.15.25-.19.46.03.69.08.08.16.17.23.26.18.24.3.3,0,.63-.07.07-.13.15-.19.23Z"/>
      <path class="cls-1" d="M24.42,10.46c.24-.14.49-.24.77-.24.49,0,.88.24,1.25.52.07.05.12.14.14.21.04.16.06.32.06.47,0,.48-.03.96-.04,1.44,0,.23-.13.37-.36.38-.24,0-.48,0-.72,0-.45,0-.91,0-1.36.02-.2,0-.36.1-.46.27-.12.2-.23.41-.33.62-.09.18-.01.29.19.29.47,0,.94,0,1.41,0h0c.47,0,.95.01,1.42,0,.37,0,.58-.18.62-.54.04-.43.05-.86.06-1.29.01-.34.01-.69.02-1.03.01-.51.03-1.02.04-1.53,0-.13-.05-.25-.15-.33-.29-.25-.61-.46-.96-.61-.15-.06-.3-.06-.44.03-.12.08-.23.15-.35.23-.28.18-.56.35-.84.54-.08.05-.13.04-.19-.02-.1-.1-.2-.19-.29-.28-.18-.18-.38-.33-.45-.6-.05-.2-.14-.22-.28-.07-.15.17-.29.35-.43.53-.22.26-.14.39.03.59.16.18.31.37.46.55.07.08.09.16.05.26-.04.1-.09.21-.13.31-.16.38-.34.74-.49,1.13-.2.52-.34,1.05-.41,1.6-.02.15-.01.3,0,.45,0,.08.06.1.14.09.14-.03.21-.15.27-.26.15-.27.2-.56.25-.86.09-.54.2-1.08.42-1.59.24-.55.58-1,1.1-1.3Z"/>
      <path class="cls-1" d="M7.79,5.08c.11-.16.21-.33.32-.49.18-.29.31-.61.37-.94.06-.34.08-.68.11-1.03.04-.46.07-.93.1-1.39.02-.27-.04-.5-.31-.65-.2-.11-.38-.23-.57-.35-.1-.07-.21-.06-.31,0-.06.05-.12.1-.17.17-.3.37-.6.74-.9,1.11-.14.17-.28.35-.41.53-.03.05-.01.14-.02.21.07,0,.14.02.19,0,.1-.05.2-.12.28-.2.23-.19.46-.39.69-.58.09-.07.18-.12.29-.06.14.08.28.16.42.24.16.09.23.24.23.42,0,.08,0,.16,0,.27-.03.32-.05.67-.08,1.02-.05.52-.3.81-.82.87-.62.07-1.25.11-1.87.12-.46.01-.72-.27-.72-.73,0-.3,0-.6,0-.9,0-.18.02-.36.13-.52.05-.07.08-.14.12-.21.12-.23.13-.24.38-.14.21.08.28.06.41-.13.09-.14.19-.28.27-.43.1-.17.07-.37-.06-.45-.09-.06-.18-.1-.27-.16-.3-.18-.61-.35-.9-.53-.14-.09-.16-.1-.25.03-.13.22-.26.44-.37.67-.08.15-.02.28.12.37.14.09.28.17.42.26.11.07.13.11.05.22-.08.12-.17.23-.25.35-.11.17-.26.33-.27.55-.02.32-.03.64-.04.96-.02.48-.04.96-.06,1.44,0,.26.11.42.38.42.52,0,1.05-.01,1.57-.02.38,0,.77-.03,1.15-.04.27,0,.5-.08.66-.3Z"/>
      <path class="cls-1" d="M5.2,18.1c-.36-.01-.72-.04-1.08-.05-.64-.01-1.27-.02-1.91-.03-.16,0-.27-.07-.33-.23-.05-.15-.14-.16-.22-.04-.19.29-.37.58-.53.88-.11.2-.03.38.19.47.14.05.29.07.43.09.12.02.14.05.09.15-.12.27-.25.54-.37.81-.04.1-.07.21-.08.32-.01.42,0,.83-.01,1.25,0,.19-.05.26-.24.3-.18.05-.37.09-.55.13-.15.04-.26.13-.35.25-.15.22-.21.46-.23.72-.02.21.03.25.24.21.42-.06.83-.12,1.25-.17.15-.02.23-.09.28-.23.05-.16.11-.32.16-.48.04-.15.11-.3.1-.45-.01-.3-.08-.6-.09-.9,0-.43,0-.86.05-1.29.05-.38.13-.57.57-.58.36-.01.72,0,1.08,0v.03c.33,0,.65,0,.98,0,.33,0,.45.13.44.46,0,.3,0,.6,0,.9,0,.47,0,.95,0,1.42,0,.42,0,.84,0,1.26,0,.04.03.09.05.13.04-.02.09-.02.13-.05.2-.15.29-.35.31-.59.04-.5.07-1,.1-1.5.05-.73.09-1.46.14-2.18,0-.14,0-.29,0-.43-.03-.28-.29-.58-.56-.59Z"/>
      <path class="cls-1" d="M6.93,10.23c.05,0,.1.02.18.04-.1.15-.19.28-.27.4-.24.38-.31.79-.24,1.22.09.49.18.98.28,1.48.05.26.1.51.25.73.13.19.38.27.6.19.14-.05.28-.1.42-.15.46-.18.91-.36,1.37-.53.35-.13.64-.33.8-.68.15-.32.32-.64.45-.97.06-.14.09-.32.08-.47-.06-.55-.13-1.1-.21-1.65-.06-.39-.37-.7-.77-.72-.44-.03-.89-.02-1.33-.03-.39,0-.78,0-1.17-.02-.15,0-.25-.08-.31-.22-.05-.13-.13-.14-.21-.03-.08.1-.14.21-.21.32-.11.18-.22.35-.31.53-.11.23-.03.4.22.47.13.04.27.05.4.07ZM7.38,10.45c.15-.1.34-.12.52-.17.1-.02.21-.01.31-.02v.02c.46,0,.91,0,1.37,0,.35,0,.52.18.6.49.07.28.13.57.2.85.08.33-.02.48-.28.65-.24.16-.5.3-.76.4-.4.16-.81.3-1.23.41-.37.1-.59-.07-.68-.44-.11-.49-.21-.98-.3-1.47-.05-.28,0-.55.25-.72Z"/>
      <path class="cls-1" d="M30.62,21c.17-.33.38-.63.65-.89.16-.16.18-.16.38-.06.03.02.08.03.11.05.09.05.17.03.22-.06.1-.17.21-.34.28-.53.1-.23.06-.44-.14-.63-.26-.25-.54-.48-.71-.81-.06-.12-.21-.1-.28.02-.13.2-.25.41-.37.62-.08.14-.09.29,0,.43.08.12.15.24.23.35.06.08.05.15,0,.23-.25.39-.49.78-.73,1.17-.08.12-.1.13-.19,0-.14-.17-.27-.34-.41-.5-.08-.1-.07-.2-.02-.3.09-.18.19-.36.28-.55.12-.23.04-.48-.18-.62-.47-.3-.94-.6-1.41-.9-.09-.06-.16-.03-.2.04-.13.23-.25.47-.36.71-.08.17-.03.32.1.41.38.23.76.47,1.14.69.26.15.26.14.18.43-.05.17-.1.35-.03.52.05.13.14.25.22.37.24.36.49.71.74,1.07.04.05.06.11.11.19-.09.02-.15.03-.21.03-.49.03-.98.06-1.48.09-.12,0-.23.05-.29.15-.15.26-.29.53-.41.8-.07.17.02.28.21.27.29-.01.58-.03.86-.04.55-.03,1.1-.06,1.64-.08.26-.01.42-.11.49-.36.07-.22.13-.45.17-.68.03-.17.02-.34-.11-.48-.21-.24-.41-.49-.62-.73-.05-.05-.05-.09-.02-.15.05-.09.1-.18.15-.27Z"/>
      <path class="cls-1" d="M1.22,15.59c.21-.12.41-.27.61-.4.52-.33,1.04-.67,1.56-.99.46-.29.8-.66.94-1.2.13-.5.26-.99.39-1.49.05-.2.14-.4.28-.55.11-.11.24-.21.34-.32.15-.15.28-.33.21-.56-.03-.11-.1-.22-.17-.32-.14-.19-.3-.36-.43-.54-.08-.11-.15-.23-.2-.35-.07-.15-.16-.18-.27-.05-.14.16-.27.32-.4.48-.16.2-.17.46-.03.64.11.15.23.3.36.43.18.2.21.41.12.65-.12.3-.23.61-.34.91-.12.34-.29.64-.59.84-.15.1-.29.19-.44.29-.2.14-.2.14-.27-.1-.15-.56-.3-1.12-.46-1.68-.05-.18-.1-.36-.14-.55,0-.06.03-.16.07-.18.06-.03.15,0,.22.02.07.03.12.1.18.14.08.06.15.05.2-.03.02-.04.05-.08.06-.12.05-.22.1-.44.15-.67,0,0-.01,0-.02,0,0-.05,0-.1,0-.14,0-.16-.04-.3-.2-.38-.13-.06-.26-.15-.38-.23-.18-.11-.37-.21-.54-.33-.15-.11-.23-.11-.32.06-.1.17-.19.34-.28.52-.11.23-.06.42.17.55.14.08.28.16.42.23.1.05.11.09.06.18-.15.27-.23.56-.17.87.06.33.13.67.2,1,.08.42.17.84.25,1.26,0,.03-.01.09-.04.11-.19.13-.38.26-.57.38-.21.12-.37.28-.5.49-.18.28-.27.59-.29.92,0,.09.02.17.04.26.08-.02.18-.03.25-.07Z"/>
      <path class="cls-1" d="M36.21,20.27c.03.81.06,1.62.1,2.42.02.5.04,1.01.06,1.51.02.39.03.78.05,1.17h0c.01.27.02.55.04.82,0,.05.03.1.05.15.06-.02.13-.03.17-.07.17-.17.27-.35.26-.61-.02-.41-.01-.82-.01-1.23,0-.44.01-.89.01-1.33,0-.52,0-1.05,0-1.58,0-.48,0-.97,0-1.45,0-.32,0-.63,0-.95,0-.31-.1-.43-.4-.48-.34-.06-.69-.12-1.03-.17-.48-.07-.95-.15-1.43-.21-.15-.02-.29-.06-.37-.21-.04-.06-.09-.07-.14-.02-.04.04-.08.07-.1.12-.14.25-.28.51-.43.77-.1.19-.04.38.17.45.08.03.17.04.26.06.07.01.09.04.06.11-.09.23-.18.46-.27.7-.08.21-.15.43-.21.65-.06.22.05.51.31.57.27.06.54.16.81.23.19.05.3-.02.36-.22.05-.18.1-.36.14-.54.06-.27,0-.36-.25-.43-.15-.04-.31-.08-.46-.14-.21-.08-.3-.27-.25-.48.07-.29.26-.39.59-.34.49.08.97.17,1.46.23.37.05.47.14.48.5Z"/>
      <path class="cls-1" d="M32.16,5.45c.53-.04,1.05-.08,1.58-.12.73-.05,1.46-.1,2.18-.15.24-.02.37-.14.38-.39,0-.16,0-.31.01-.47.01-.17-.05-.3-.2-.39-.08-.05-.13-.12-.12-.23,0-.2,0-.39,0-.59-.01-.4-.02-.8-.03-1.2,0-.41,0-.82-.02-1.22-.01-.21-.12-.35-.33-.37-.07,0-.14-.01-.22-.01-.63,0-1.25.01-1.88.02-.21,0-.38-.03-.47-.25-.03-.09-.1-.08-.16-.02-.02.02-.05.06-.06.09-.14.25-.28.5-.41.76-.09.17-.04.35.13.43.12.06.26.11.4.11.42.01.85,0,1.27,0h0c.28,0,.56,0,.84,0,.14,0,.22.05.23.19.04.31.07.63.1.94.05.46.09.93.14,1.39.01.11-.02.16-.14.17-.29.01-.58.03-.88.05-.64.04-1.27.09-1.91.14-.11.01-.23.07-.31.15-.18.2-.31.44-.37.7-.05.2.02.29.22.27Z"/>
      <path class="cls-1" d="M26.1,20.15c.07.09.15.18.22.27.12.17.26.19.38.02.12-.17.22-.37.32-.56.09-.19.06-.38-.06-.55-.11-.15-.22-.3-.31-.45-.13-.22-.33-.41-.39-.68-.03-.15-.13-.18-.24-.06-.17.19-.33.39-.48.6-.14.19-.13.38,0,.57.05.07.1.15.14.22.08.13.09.22,0,.34-.13.17-.26.35-.39.52-.4.53-.8,1.06-1.2,1.6-.02.03-.03.07-.04.1-.02-.01-.04-.02-.06-.04,0-.12,0-.23,0-.35.01-.28,0-.56.14-.82.24-.47.49-.94.73-1.4.13-.25.05-.57-.18-.71-.08-.05-.17-.1-.26-.16-.3-.2-.59-.39-.88-.6-.11-.08-.17-.08-.23.03-.13.23-.25.45-.37.69-.07.15,0,.39.16.49.31.17.61.37.91.56.13.08.16.15.08.28-.16.29-.32.58-.49.87-.11.19-.21.38-.22.61-.02.77-.05,1.54-.07,2.31-.01.42-.03.84-.04,1.26-.01.31-.03.62-.04.94,0,.04.01.1.04.13.01.02.08,0,.11-.01.31-.26.59-.53.59-.98,0-.68.04-1.35.06-2.03,0-.06.02-.12.05-.17.21-.32.43-.64.65-.97.3-.44.6-.88.89-1.33.11-.17.22-.33.34-.5.04-.05.08-.11.15-.03Z"/>
      <path class="cls-1" d="M41.32,12.96c-.1.05-.22.09-.33.11-.37.04-.73.07-1.1.11-.53.05-1.06.1-1.59.16-.07,0-.16.04-.2.09-.18.25-.34.5-.4.81-.04.2.04.29.2.28.24-.02.44-.04.63-.06.7-.06,1.41-.11,2.11-.18.18-.02.36-.07.48-.22.23-.29.48-.58.7-.89.07-.1.11-.25.11-.37,0-.25-.05-.5-.08-.75-.11-.72-.21-1.44-.33-2.16-.05-.33-.25-.51-.59-.55-.64-.09-1.28-.18-1.91-.28-.09-.02-.18-.09-.24-.17-.08-.1-.11-.11-.21-.03-.03.03-.06.06-.08.1-.13.25-.26.49-.39.75-.11.23-.03.41.22.46.32.06.64.1.96.15.44.06.89.12,1.33.19.22.04.37.17.43.39.07.24.14.48.21.73.08.31.15.63.22.95.04.19-.01.33-.15.4Z"/>
      <path class="cls-1" d="M9.53,1.48c.09.03.18.05.27.06.09.02.11.07.09.16-.07.42-.14.85-.2,1.27-.08.52-.16,1.04-.23,1.56-.04.26-.08.52-.12.78-.02.12.03.16.15.15.04,0,.08-.02.11-.04.25-.17.42-.42.46-.71.07-.42.08-.85.11-1.28.03-.49.06-.98.09-1.48.02-.26.11-.38.44-.39.32,0,.63,0,.95,0h0c.08.01.15.01.23.01.25,0,.5,0,.76,0,.2,0,.29.07.32.27.01.08.02.16.02.24,0,.32,0,.63-.01.95,0,.35,0,.69,0,1.04,0,.42-.01.84-.01,1.26,0,.13.09.19.19.11.25-.18.47-.37.44-.73-.03-.43-.04-.85-.05-1.28-.02-.56-.04-1.12-.06-1.68,0-.09,0-.15.09-.19.32-.14.37-.35.29-.66-.05-.2-.12-.4-.18-.6-.02-.07-.08-.13-.12-.19-.06.05-.14.08-.19.15-.09.12-.2.19-.36.18-.3-.01-.6,0-.9,0-.61,0-1.23,0-1.84,0-.15,0-.24-.08-.3-.21-.07-.14-.13-.15-.22-.01-.16.25-.31.5-.45.75-.14.25-.05.43.23.51Z"/>
      <path class="cls-1" d="M28.02,6.39c-.05.28-.09.55-.14.83-.04.22.04.38.22.51.05.04.09.13.09.19-.02.31-.06.62-.09.93-.03.32-.09.64-.04.97.04.28.22.49.5.52.26.03.53.03.79.03.57,0,1.15-.02,1.72,0,.56.02.91.75.58,1.21-.27.39-.56.76-.84,1.14-.26.37-.52.74-.77,1.12-.09.13-.14.3-.19.45-.02.05.03.12.04.18.06-.02.12-.04.17-.06.01,0,.02-.02.03-.02.19-.21.37-.42.56-.63.43-.49.87-.98,1.31-1.46.23-.25.37-.51.33-.87-.08-.59-.13-1.19-.2-1.78-.03-.27-.23-.47-.5-.48-.44-.01-.89,0-1.34,0h0c-.19,0-.38,0-.57,0-.26,0-.51.01-.77,0-.22,0-.33-.12-.35-.33-.03-.37.02-.73.08-1.1.05-.33.12-.66.18-.99.02-.12.02-.24-.06-.34-.09-.12-.21-.21-.36-.25-.23-.07-.33,0-.38.23Z"/>
      <path class="cls-1" d="M33.18,10.24c.16.05.34.08.51.09.36.02.72.02,1.08.02.4,0,.79,0,1.19,0,.1,0,.14.04.13.14-.01.52,0,1.04-.01,1.56,0,.46,0,.91-.02,1.37,0,.34-.01.67-.02,1.01,0,.4,0,.81,0,1.21,0,0-.01,0-.02,0,0,.37,0,.75,0,1.12,0,.15.06.18.18.1.24-.18.44-.4.49-.7.03-.15.02-.3.02-.45,0-.36,0-.71-.02-1.07-.01-.47-.03-.94-.05-1.42-.01-.36-.01-.71-.02-1.07-.01-.47-.03-.94-.05-1.41,0-.19.05-.35.24-.44.05-.02.09-.06.13-.09.11-.08.19-.18.16-.32-.03-.14-.06-.27-.11-.4-.06-.19-.12-.37-.2-.55-.07-.16-.16-.17-.26-.02-.11.17-.25.25-.45.24-.24-.01-.49,0-.73,0-.45,0-.89,0-1.34,0-.17,0-.33-.04-.41-.22-.02-.04-.07-.11-.1-.11-.04,0-.1.05-.13.09-.15.26-.29.51-.43.78-.12.25-.03.48.22.55Z"/>
      <path class="cls-1" d="M21,21.63c-.4.42-.83.83-1.14,1.32-.12.19-.22.4-.31.61-.02.05,0,.14.04.18.06.06.13,0,.19-.05.22-.2.44-.41.67-.61.49-.44.98-.89,1.47-1.33.22-.2.34-.44.33-.73-.03-.73-.07-1.46-.11-2.2-.02-.32-.22-.52-.54-.54-.21-.01-.42-.02-.64-.02-.62,0-1.24,0-1.87-.02-.18,0-.35-.06-.42-.26-.04-.11-.11-.13-.19-.03-.07.08-.12.18-.18.27-.11.19-.22.38-.32.58-.13.25-.05.46.21.55.16.05.33.1.5.1.63.01,1.26,0,1.89,0v.03c.18,0,.35,0,.53,0,.26,0,.45.1.56.34.1.2.14.41.14.64,0,.19-.03.35-.16.48-.22.23-.43.46-.65.69Z"/>
      <path class="cls-1" d="M14.24,18.18c-.14,0-.25-.07-.32-.2-.03-.05-.07-.13-.11-.13-.05,0-.11.06-.15.1-.08.11-.14.22-.21.34-.1.17-.2.34-.28.52-.1.22-.02.41.21.48.17.05.34.1.52.1.43.01.87,0,1.3,0v.04c.34,0,.68,0,1.02,0,.2,0,.33.1.35.29.01.1.02.21.02.31,0,.42,0,.85.02,1.27.01.64.02,1.27.03,1.91,0,.09,0,.18,0,.28,0,.04.02.11.04.12.04.01.1,0,.13-.03.08-.08.16-.17.22-.26.12-.21.11-.45.12-.68.03-.57.04-1.14.07-1.71.03-.64.08-1.27.08-1.91,0-.45-.24-.78-.7-.8-.43-.02-.86-.01-1.29-.02-.35,0-.71,0-1.06-.02Z"/>
      <path class="cls-1" d="M24.29,1.51c.22.07.46.09.69.1.31.01.62,0,.94,0,.37,0,.75,0,1.12-.01.13,0,.18.05.17.18-.01.38-.02.75-.03,1.13-.01.52-.02,1.05-.03,1.57,0,0-.02,0-.03,0,0,.29,0,.58,0,.87,0,.17.06.21.23.16.04-.01.07-.03.1-.06.24-.19.35-.46.36-.76,0-.46-.02-.92-.04-1.38-.02-.51-.04-1.02-.06-1.53,0-.1.01-.16.12-.21.15-.07.3-.17.29-.36,0-.14-.04-.28-.07-.41-.05-.16-.11-.33-.17-.49-.03-.07-.08-.13-.13-.19-.06.04-.11.08-.17.12-.02.02-.04.04-.05.06-.06.12-.16.15-.28.15-.37,0-.73.01-1.09.02-.37,0-.75,0-1.12,0-.13,0-.23-.06-.29-.18-.03-.05-.08-.13-.11-.12-.06.02-.12.06-.15.12-.14.22-.27.44-.39.66-.13.24-.16.45.19.56Z"/>
      <path class="cls-1" d="M19.64,1.52c.16.05.33.09.49.09.66.01,1.32,0,1.98,0h0s.08,0,.12,0c.04,0,.08,0,.12,0,.15,0,.19.04.18.18-.02.52-.04,1.03-.05,1.55-.02.65-.05,1.3-.07,1.95,0,.07.01.2.04.21.07.02.16-.01.24-.04.04-.01.08-.05.1-.08.17-.18.29-.39.29-.64,0-.34,0-.69-.02-1.03-.01-.61-.03-1.21-.04-1.82,0-.14,0-.25.16-.33.23-.1.3-.26.22-.56-.06-.24-.15-.48-.23-.71-.02-.05-.07-.12-.12-.12-.05,0-.11.05-.14.1-.1.16-.23.23-.42.22-.31-.01-.62,0-.94,0-.38,0-.76,0-1.14,0-.16,0-.27-.07-.33-.23-.05-.12-.14-.13-.21-.02-.15.25-.31.5-.45.75-.13.23-.06.43.2.51Z"/>
      <path class="cls-1" d="M14.12,14.38c.13,0,.26-.02.4-.03.56-.04,1.12-.08,1.68-.13.16-.01.26-.11.27-.28.01-.31.01-.62.02-.93.01-.7.03-1.39.04-2.09h.01c0-.33,0-.67,0-1,0-.16-.04-.31-.19-.41-.15-.09-.3-.18-.45-.27-.2-.12-.4-.25-.6-.38-.12-.09-.18-.09-.26.04-.11.19-.22.38-.33.58-.11.21-.06.37.14.49.28.18.55.36.84.52.24.13.34.32.33.58,0,.12,0,.23,0,.35,0,.46,0,.91,0,1.37,0,.21-.07.28-.28.3-.3.03-.6.05-.9.08-.15.02-.33.01-.46.08-.36.2-.46.55-.48.94,0,.16.05.2.21.19Z"/>
      <path class="cls-1" d="M28.86,5.48s.05-.02.07-.03c.38-.2.75-.39,1.13-.59.18-.1.37-.19.55-.29.08-.04.12-.02.14.06.03.11.05.21.1.31.06.13.14.26.23.38.03.04.12.04.19.07.02-.07.04-.13.06-.2,0-.01,0-.03,0-.05-.06-.24-.11-.48-.18-.72-.02-.09,0-.14.05-.22.06-.07.1-.18.09-.27-.01-.16-.07-.32-.11-.48-.04-.13-.12-.22-.23-.29-.07-.05-.13-.14-.15-.23-.05-.19-.08-.38-.12-.58-.04-.18-.03-.36.05-.53.1-.2.19-.41.29-.62.07-.14.03-.28-.11-.35-.2-.11-.4-.21-.6-.32-.25-.14-.5-.28-.75-.43-.09-.05-.16-.02-.2.06-.12.21-.24.43-.34.65-.08.16-.03.3.11.38.31.18.63.34.95.52.3.17.38.16.3.58-.04.21-.07.42-.06.63,0,.14.06.28.09.42.03.09.02.15-.08.21-.32.18-.64.37-.96.54-.23.12-.46.25-.54.52-.08.24-.11.49-.16.73.02.15.09.2.23.15Z"/>
      <path class="cls-1" d="M38.37,27.59c-.35-.12-.7-.22-1.05-.33-.27-.08-.51-.21-.7-.42-.08-.09-.16-.18-.26-.29-.19.37-.37.69-.54,1.01-.1.2-.08.3.12.39.19.09.4.15.6.22.36.13.72.25,1.07.39.22.09.44.2.59.4.11.14.15.31.03.44-.11.12-.25.23-.4.31-.36.18-.75.31-1.11.49-.26.13-.39.27-.29.6.05.18.11.36.17.54.03.09.06.18.09.28.01,0,.02,0,.03,0,.01-.04.03-.09.04-.13.03-.09.06-.18.09-.27.12-.29.38-.45.63-.59.36-.2.68-.45.95-.75.29-.33.55-.67.68-1.09.08-.25.09-.49-.07-.71-.17-.24-.42-.37-.68-.47Z"/>
      <path class="cls-1" d="M13.22,10.65c.09-.16.18-.32.24-.48.09-.25.02-.48-.17-.6-.16-.1-.32-.19-.48-.29-.19-.13-.38-.25-.55-.4-.14-.12-.22-.12-.31.04-.11.19-.21.38-.31.57-.1.2-.04.4.14.52.26.17.53.33.79.5.16.1.19.17.09.35-.13.24-.27.47-.4.71-.11.21-.25.41-.26.67-.04.92-.09,1.84-.14,2.75-.03.52-.06,1.04-.09,1.55,0,.02,0,.04,0,.06,0,.04.02.08.03.12.05-.02.1-.03.13-.06.05-.04.09-.1.14-.14.27-.22.38-.52.39-.86.02-.55.04-1.1.06-1.64.03-.67.06-1.34.1-2,0-.14,0-.29.06-.41.16-.33.36-.64.54-.97Z"/>
      <path class="cls-1" d="M41.44,28.74c-.14-.39-.33-.74-.56-1.09-.23-.34-.48-.65-.8-.9-.02-.02-.07-.03-.09-.02-.07.04-.14.09-.2.14.14.17.27.31.39.47.2.27.33.58.46.9.19.46.31.93.33,1.42.02.5.03,1,0,1.5-.02.41-.08.82-.23,1.2-.11.29-.22.59-.36.86-.1.21-.25.4-.39.59-.09.13-.21.24-.33.36.03.03.06.05.08.07.14.11.15.12.27,0,.21-.2.42-.4.61-.61.44-.51.74-1.11.92-1.76.16-.62.2-1.25.15-1.89-.03-.43-.12-.85-.26-1.25Z"/>
      <path class="cls-1" d="M12.34,26.43c-.07-.05-.11-.19-.24-.09-.3.23-.55.5-.76.81-.26.37-.49.75-.66,1.17-.25.65-.34,1.32-.36,2.13.02.2.02.51.07.82.09.51.26.99.52,1.44.21.38.46.72.78,1.01.12.11.18.06.27-.01.07-.05.08-.09.02-.15-.07-.07-.14-.16-.2-.24-.2-.23-.3-.51-.41-.78-.16-.4-.29-.82-.32-1.25-.03-.41-.03-.83-.02-1.24,0-.33.03-.66.09-.98.08-.41.18-.82.36-1.21.22-.47.44-.94.84-1.29.04-.04.11-.08.03-.14Z"/>
      <path class="cls-1" d="M33.97,29.23c.02.59.04,1.18.05,1.76,0,.11.01.22.02.37.15-.09.27-.15.38-.23.09-.06.15-.15.16-.27.03-.28.06-.56.09-.83.04-.41.08-.83.12-1.24.04-.41.09-.81.11-1.22,0-.18,0-.37-.1-.52-.13-.18-.27-.36-.42-.53-.11-.12-.19-.11-.29.03-.19.26-.39.53-.59.79-.12.16-.12.18.03.3.21.17.33.4.36.67.04.31.06.61.08.92Z"/>
      <path class="cls-1" d="M14.59,1.28c.19.1.39.21.58.32.08.04.12.11.08.2-.04.09-.09.17-.13.25-.16.3-.28.6-.24.95.04.39.06.78.08,1.16.03.4.06.79.09,1.19,0,.05.04.09.06.14.05-.02.11-.03.14-.07.09-.1.17-.2.25-.3.09-.12.13-.25.11-.39-.05-.34-.1-.69-.15-1.03-.06-.4-.11-.8-.17-1.2-.01-.24.11-.43.22-.61.02-.04.11-.06.17-.06.05,0,.1.04.15.06.24.09.31.1.4-.14.07-.17.1-.36.12-.55.02-.13-.03-.25-.16-.33-.11-.06-.22-.12-.32-.18-.28-.17-.56-.34-.83-.52-.07-.04-.13-.04-.18.02-.2.24-.36.51-.4.83-.02.12.03.21.14.26Z"/>
      <path class="cls-1" d="M18.49,23.56c.02-.47.03-.94.05-1.41.02-.5.05-1,.07-1.5,0-.08-.02-.21-.07-.24-.09-.05-.17.05-.23.12-.24.26-.37.57-.4.92-.04.67-.07,1.34-.1,2.02-.02.38-.03.76-.04,1.14-.02.41-.04.82-.06,1.25,0,0,0,.02,0,.04.02.06.04.17.07.18.07.02.17,0,.21-.05.11-.1.21-.22.28-.34.14-.23.15-.5.16-.77.01-.45.04-.91.06-1.36Z"/>
      <path class="cls-1" d="M17.14,1.3c.24.13.47.26.71.37.24.11.34.3.34.56,0,.03,0,.06,0,.08h0c0,.26,0,.51,0,.77-.01.74-.02,1.48-.03,2.22,0,.04,0,.08,0,.12.02.09.07.11.14.05.13-.12.21-.26.22-.44.02-.55.05-1.1.07-1.65.03-.69.06-1.38.09-2.07,0-.18,0-.37-.15-.5-.1-.09-.23-.14-.35-.21-.21-.13-.42-.25-.62-.39-.12-.09-.2-.09-.28.05-.1.19-.2.38-.3.58-.09.19-.04.35.15.45Z"/>
      <path class="cls-1" d="M20.24,28.65c.15-.02.3-.02.44-.06.24-.06.32-.37.16-.55-.12-.14-.34-.13-.48.02-.13.14-.25.29-.39.42-.05.04-.14.06-.2.05-.09-.02-.08-.1-.05-.17.03-.09.07-.19.12-.27.07-.14.14-.29.13-.46-.01-.17-.14-.29-.31-.3-.12,0-.26.13-.27.28,0,.1,0,.22.03.32.03.12.09.23.13.35.03.09.06.19-.04.24-.1.05-.18,0-.25-.09-.08-.1-.15-.22-.24-.31-.08-.08-.17-.17-.27-.2-.16-.05-.3.06-.35.22-.05.17.02.35.17.42.09.04.19.06.29.07.11.02.22,0,.32.03.06.01.14.07.14.11.02.08-.06.12-.14.13-.06,0-.11,0-.17,0,0-.01,0-.02,0-.03-.17.04-.34.07-.51.13-.16.06-.21.23-.16.41.04.15.13.2.31.2.16,0,.23-.13.32-.23.11-.11.2-.23.31-.34.06-.06.14-.09.22-.03.07.05.05.13.02.2-.07.16-.16.33-.21.5-.03.1-.03.22,0,.32.06.21.32.25.46.09.12-.14.1-.31.06-.47-.04-.17-.11-.33-.16-.49-.01-.04.02-.12.05-.14.03-.02.12-.02.15,0,.07.05.13.13.19.2.1.12.18.25.3.36.13.12.34.07.44-.07.11-.15.08-.39-.07-.47-.11-.06-.23-.08-.35-.11-.14-.03-.28-.03-.42-.06-.04,0-.08-.06-.12-.1.04-.03.08-.08.12-.09.08-.02.17-.02.25-.03Z"/>
      <path class="cls-1" d="M17.43,30.32c-.5,0-1-.02-1.5-.02-.7-.01-1.39-.02-2.09-.04-.36,0-.71-.01-1.07-.02-.09,0-.13.03-.13.12,0,.12,0,.23-.01.35,0,.08.02.11.11.11.55,0,1.1.02,1.65.02.72.01,1.44.02,2.16.04.29,0,.58.01.87.01.05,0,.13.02.13-.07,0-.16,0-.32,0-.49-.03,0-.07-.01-.11-.01Z"/>
      <path class="cls-1" d="M2.41,2.05c.12.16.13.31.03.48-.07.12-.15.23-.22.35-.09.14-.18.28-.26.43-.05.1,0,.17.11.13.1-.04.22-.08.28-.16.31-.41.61-.84.89-1.27.07-.11.09-.25.14-.38-.05-.12-.07-.24-.13-.33-.19-.27-.41-.52-.6-.78-.08-.11-.14-.23-.2-.35-.04-.09-.11-.1-.17-.05-.18.15-.37.29-.52.46-.15.17-.16.39,0,.58.22.29.43.6.66.89Z"/>
      <path class="cls-1" d="M30.2,31.64c-.22.05-.34.2-.39.41-.02.11-.03.21-.06.32-.14.52-.26,1.06-.71,1.44-.04.03-.07.12-.05.14.03.04.1.07.15.06.1-.02.21-.06.3-.11.38-.19.61-.53.78-.9.21-.47.38-.95.57-1.43,0-.02-.02-.03-.03-.05-.19.04-.37.07-.56.11Z"/>
      <path class="cls-1" d="M24.12,32.13c-.06.35-.15.68-.31,1-.08.16-.18.31-.29.45-.04.05-.11.09-.15.14-.02.03-.04.09-.02.12.01.03.06.06.1.07.04,0,.09,0,.13-.02.37-.12.64-.37.81-.71.17-.34.32-.7.47-1.05.09-.21.16-.44.25-.68-.12.01-.22.02-.31.04-.46.09-.6.15-.68.65Z"/>
      <path class="cls-1" d="M19.49,5.32c0,.07.04.15.09.19.07.06.15,0,.21-.06.05-.05.1-.09.14-.15.16-.25.22-.52.23-.81.02-.47.04-.94.05-1.42,0-.05-.03-.1-.05-.15-.05.02-.11.03-.15.06-.09.09-.17.2-.26.3-.16.16-.23.36-.23.59,0,.22,0,.43,0,.65-.02,0-.03,0-.05,0,0,.26,0,.53,0,.79Z"/>
      <path class="cls-1" d="M32.33,29.04c-.07-.1-.15-.19-.22-.29-.02.01-.04.02-.05.03-.19.27-.39.54-.58.81-.02.02,0,.09.01.12.14.22.28.44.42.66.04.07.08.13.13.21.04-.05.07-.07.09-.1.19-.24.37-.49.56-.72.07-.08.06-.14,0-.21-.13-.17-.25-.33-.37-.5Z"/>
      <path class="cls-1" d="M30.43,29.05c-.08-.1-.15-.21-.23-.32-.22.28-.43.55-.63.82-.02.03-.01.1.01.14.15.23.31.46.47.69.03.04.06.09.1.14.22-.29.43-.56.63-.83.02-.03.02-.11,0-.14-.11-.17-.23-.32-.35-.49Z"/>
      <path class="cls-1" d="M34.66,32.19c-.11-.14-.21-.28-.32-.42-.04.05-.08.08-.11.12-.17.22-.33.43-.5.64-.06.07-.05.11,0,.18.16.2.32.39.47.59.05.06.09.11.15.17.22-.27.43-.52.63-.78.02-.02,0-.09-.02-.12-.1-.13-.2-.25-.3-.38Z"/>
      <path class="cls-1" d="M32.03,31.53c-.21.28-.41.55-.62.83-.02.02,0,.08.01.1.06.1.12.19.18.28.1.16.21.32.31.48.04.06.08.09.14,0,.17-.23.34-.46.53-.68.07-.08.05-.12,0-.19-.18-.27-.36-.55-.56-.84Z"/>
      <path class="cls-1" d="M22.26,31.54c-.08-.1-.08-.11-.17,0-.18.21-.36.42-.54.62-.06.07-.04.13,0,.19.1.14.21.29.31.43.08.12.17.23.25.35.03-.03.05-.04.06-.05.2-.25.4-.49.6-.74.06-.07.03-.12-.02-.18-.17-.21-.33-.41-.49-.62Z"/>
      <path class="cls-1" d="M36.69,31.98c-.19.22-.37.44-.56.66-.05.06-.02.1.01.15.14.16.27.33.41.49.06.07.11.13.17.21.24-.26.46-.5.69-.75-.23-.26-.46-.52-.68-.77-.02,0-.03.01-.04.02Z"/>
      <path class="cls-1" d="M28.33,26.7c-.16.04-.33.09-.49.12-.07.02-.09.06-.11.12-.07.24-.13.49-.23.72-.12.27-.28.53-.41.8-.02.03-.03.09-.01.11.02.02.07.03.11.02.04,0,.07-.04.1-.06.14-.14.29-.28.41-.44.26-.37.51-.75.76-1.12.02-.04.03-.08.04-.11,0-.12-.06-.18-.16-.16Z"/>
      <path class="cls-1" d="M27.31,26.82c-.01-.11-.07-.15-.16-.13-.18.04-.35.08-.52.14-.03.01-.06.07-.08.11-.11.32-.21.64-.34.96-.08.2-.21.38-.32.58-.02.03-.01.07-.02.1.03,0,.07.02.1.01.03,0,.06-.02.08-.04.14-.14.3-.27.42-.43.25-.34.49-.7.72-1.06.04-.07.07-.15.1-.23Z"/>
    </g>
  </g>
</svg>