<?xml version="1.0" encoding="UTF-8"?>
<svg id="Layer_2" xmlns="http://www.w3.org/2000/svg" viewBox="0 0 54.21 9.15">
  <defs>
    <style>
      .cls-1 {
        fill: #2c489e;
      }
    </style>
  </defs>
  <g id="Layer_1-2" data-name="Layer_1">
    <g>
      <path class="cls-1" d="M54.12,8.29c-.2-.38-.43-.74-.71-1.06-.78-.89-1.48-1.88-2.61-2.4-.23-.1-.26-.31-.02-.46,1.41-.86,2.21-2.26,3.15-3.53.27-.36.06-.77-.39-.82-.16-.02-.33-.02-.49-.02-1.96.04-3.93.09-5.89.11-2.39.02-4.78-.01-7.18,0-.14,0-.34.13-.42.26-.24.35-.42.74-.65,1.09-.59.91-1.17,1.81-1.79,2.7-.11.15-.37.27-.56.27-.7.02-1.41-.03-2.11-.03-1.64,0-3.27,0-4.91,0-.62,0-1.25-.02-1.87,0-.12,0-.25.09-.37.16-.15-.03-.29-.05-.44-.05-1.39,0-4.42.02-5.81.03-.93,0-1.87.02-2.8.03-.24,0-.48.02-.49.34-.02.35.24.39.49.41.1,0,.19-.02.29-.03.51-.03,1.01-.09,1.52-.09,1.64-.02,4.91,0,6.54-.04.28,0,.56-.11.83-.21,0,0,0,0,0,.01.1.13.22.24.27.3,1.01.04,1.91-.34,2.89-.12.53.12,1.11.04,1.67-.02.39-.05.76-.23,1.14-.35.1-.03.26-.07.31-.02.6.58,1.3.32,1.99.31.46,0,1.01.02,1.36.26.46.31.78.83,1.12,1.29.55.75,1.06,1.53,1.59,2.3.05.07.16.16.23.15.57-.07,1.16.28,1.72-.09.07-.04.22.03.33.05.21.04.41.1.62.1.57,0,1.14.01,1.72-.01,1.32-.06,2.64.15,3.95-.17.05-.01.11.04.17.04.5,0,1,0,1.49,0,.18,0,.36-.02.53-.01.61.04,1.24.3,1.72-.12.52.06.92.13,1.33.15.19,0,.48-.02.56-.14.09-.14.06-.43-.03-.59ZM43.79,6.26c-.16-.03-.31-.16-.46-.25.03-.05.06-.1.08-.15.09.01.18.02.26.04.15.04.29.1.44.15-.11.07-.23.22-.33.2ZM44.26,3.39c.09.22.18.43.27.66-.36,0-.43-.1-.27-.66ZM46.27,4.35s-.19-.11-.37-.21c.19-.15.29-.26.43-.32.04-.02.22.17.21.2-.06.13-.15.26-.27.33Z"/>
      <path class="cls-1" d="M16.69,4.58c-.95.03-1.9.08-2.85.1-.18,0-.36-.09-.54-.14.1-.15.18-.33.31-.45,1.04-1.02,2.09-2.02,3.12-3.04.11-.11.11-.34.16-.52-.18-.03-.39-.12-.54-.07-.61.24-1.19.56-1.81.78-1.36.5-2.73,1-4.12,1.41-1.41.42-2.85.72-4.27,1.09-1.88.5-3.8.73-5.73.84-.15,0-.28.16-.43.25.12.13.23.33.38.38.21.07.45.03.68.05.83.08,1.67.12,2.49.26,1.14.2,2.28.47,3.41.72,1.1.25,2.23.42,3.29.8,1.05.38,2.18.45,3.2.94.85.41,1.76.7,2.66,1.02.27.1.56.11.85.16-.15-.27-.23-.62-.45-.81-1.03-.88-1.93-1.93-3.19-2.5-.12-.06-.22-.16-.38-.29.96-.35,1.87-.36,2.79-.31.25.01.5-.08.75-.06.45.04.8-.09,1.16-.6-.4,0-.68,0-.95,0Z"/>
    </g>
  </g>
</svg>