<?xml version="1.0" encoding="UTF-8"?>
<svg id="Layer_2" xmlns="http://www.w3.org/2000/svg" viewBox="0 0 35.57 39.62">
  <defs>
    <style>
      .cls-1 {
        fill: #2c489e;
      }
    </style>
  </defs>
  <g id="Layer_1-2" data-name="Layer_1">
    <path class="cls-1" d="M34.92,8.06c-.07-.38-.34-.5-.7-.37-.23.08-.41.05-.56-.16-.15-.21-.31-.39-.57-.49-.85-.31-1.69-.63-2.53-.94-1.27-.46-2.55-.91-3.83-1.36-.66-.23-1.32-.46-1.98-.69-.7-.24-1.4-.46-2.1-.7-.67-.23-1.33-.47-2-.71-.94-.33-1.87-.66-2.81-.99-.84-.3-1.69-.59-2.53-.89-.68-.24-1.36-.49-2.04-.74-.2-.07-.38-.02-.49.18-.27.49-.53.99-.8,1.48-.4.74-.81,1.48-1.22,2.22-.58,1.05-1.01,2.21-1.59,3.26-.36.65-.86,2.17-1.2,2.83-.43.85-.88,1.69-1.31,2.54-.42.82-.81,1.66-1.22,2.48-.61,1.21-1.23,2.41-1.83,3.62-.49.97-.95,1.95-1.43,2.91-.25.51-.52,1.01-.8,1.51-.19.34-.42.65-.62.98-.16.28-.3.57-.45.86-.15.28-.08.65.18.71.39.09.53.32.55.68.01.2.05.4.07.6,0,.07,0,.14-.03.2-.2.44-.41.88-.61,1.32-.15.33-.31.65-.43.99-.14.39.06.82.4.94,1.19.45,2.37.9,3.56,1.36.62.24,1.24.5,1.86.75.88.35,1.77.68,2.65,1.02.97.38,1.94.78,2.91,1.16.9.35,1.8.67,2.7,1.02,1.15.44,2.29.9,3.44,1.35,1.33.51,3.02,1.23,4.35,1.73.1.04.23.04.33.02.15-.03.23.01.32.14.24.35.54.64.97.72.12.02.29,0,.36-.07.17-.18.34-.38.44-.61.18-.4.3-.83.46-1.23.58-1.42,1.16-2.83,1.74-4.24.44-1.07.89-2.13,1.34-3.19.29-.7.59-1.4.89-2.1.28-.65.59-1.29.86-1.94.34-.84.64-1.7.99-2.54.35-.85.75-1.68,1.11-2.53.38-.9.74-1.8,1.12-2.7.56-1.31,1.15-2.62,1.69-3.94.3-.72.73-1.38.79-2.2.05-.7.16-1.4.25-2.2-.09-.57-.53-1.43-.65-2.07ZM23.47,36.23c-.03.55-.08,1.1-.13,1.65,0,.11-.06.23-.11.32-.09.14-.22.15-.32,0-.08-.11-.12-.25-.18-.37-.05-.12-.32-.34-.37-.46-.08-.17-.23-.26-.4-.15-.44.29-.84.17-1.28-.01-.7-.29-1.42-.51-2.12-.78-.91-.34-1.81-.7-2.71-1.05-.9-.35-1.81-.69-2.72-1.04-.86-.33-1.72-.67-2.58-1-1.03-.4-2.07-.8-3.1-1.2-.74-.29-1.47-.6-2.2-.89-.92-.36-1.85-.72-2.77-1.08-.47-.18-.93-.36-1.4-.54-.14-.06-.17-.14-.08-.27.45-.62.64-1.32.61-2.08-.01-.36-.06-.72-.11-1.08-.02-.17.04-.21.17-.15.31.13.6.29.91.42.22.1.46.16.69.25.84.31,1.67.62,2.51.93.66.25,1.32.49,1.98.75.77.3,1.54.62,2.31.92.63.25,1.27.48,1.9.72,1.32.5,2.63,1,3.95,1.5,1.03.39,2.06.77,3.09,1.16,1.04.4,2.08.81,3.12,1.22.07.03.14.07.19.13.23.3.52.38.88.28.23-.06.35.05.35.32-.06.5-.05,1.03-.08,1.56ZM34.12,8.91c-.23.54-.44,1.08-.68,1.61-.19.41-.41.81-.59,1.22-.27.63-.51,1.28-.78,1.91-.25.58-.51,1.15-.77,1.73-.21.46-.42.92-.63,1.38-.21.47-.44.93-.64,1.41-.27.64-.52,1.3-.79,1.94-.23.54-.49,1.08-.72,1.62-.4.92-.8,1.85-1.21,2.77-.49,1.11-.99,2.21-1.48,3.32-.39.88-.77,1.78-1.16,2.66-.25.57-.51,1.15-.76,1.72-.17.39-.33.77-.48,1.16-.08.19-.19.27-.39.19-.68-.26-1.35-.52-2.03-.77-.98-.36-1.96-.72-2.94-1.09-1.14-.43-2.28-.88-3.42-1.31-.9-.34-1.8-.68-2.7-1.02-.68-.26-1.35-.52-2.02-.78-1.03-.39-2.05-.78-3.08-1.18-.71-.28-1.41-.57-2.12-.85-1.21-.48-2.43-.97-3.64-1.44-.21-.08-.25-.18-.14-.36.19-.32.37-.63.55-.95.23-.42.46-.85.68-1.28.7-1.39,1.39-2.79,2.08-4.19.33-.67.65-1.36.99-2.03.67-1.34,1.36-2.67,2.04-4,.51-1.01,1.03-2.01,1.54-3.02.51-.99,1.05-2.91,1.6-3.88.51-.92,1.03-1.84,1.54-2.75.35-.61.7-1.21,1.05-1.81.09-.15.2-.22.39-.16.57.19,1.14.37,1.71.56.58.19,1.15.39,1.72.59.94.33,1.89.66,2.83.99.68.24,1.35.46,2.03.7.53.18,1.06.38,1.58.57.49.17.99.34,1.48.51.79.28,1.58.57,2.36.85,1.27.45,2.54.9,3.8,1.36.62.22,1.24.42,1.84.67.18.08.35.25.47.42.19.26.37.44.72.33.19-.06.36.05.34.27-.05.1-.13.25-.19.41Z"/>
  </g>
</svg>