<?xml version="1.0" encoding="UTF-8"?>
<svg id="Layer_2" xmlns="http://www.w3.org/2000/svg" viewBox="0 0 53.85 36.34">
  <defs>
    <style>
      .cls-1 {
        fill: #2c489e;
      }
    </style>
  </defs>
  <g id="Layer_1-2" data-name="Layer_1">
    <g>
      <path class="cls-1" d="M53.56,30.59c-.15-.09-.36-.12-.54-.12-1.56-.07-3.12-.14-4.69-.21-.26-.01-.52-.03-.81-.04.04-.17.08-.3.09-.44.05-.6.05-.6.63-.71.41-.08.59-.38.57-.96-.02-.47-.19-.65-.63-.71-.1-.01-.27-.1-.28-.17-.02-.13.02-.29.09-.4.06-.09.21-.14.32-.17.55-.15.86-.86.54-1.34-.09-.13-.28-.24-.44-.27-.5-.09-.5-.08-.47-.6.03-.41-.19-.74-.54-.78-.31-.03-.62-.04-.94-.04-1.23-.02-2.45,0-3.68-.05-.8-.03-1.02.12-1.05.9,0,.22-.08.4-.31.38-.14-.01-.3-.14-.38-.27-.08-.13-.08-.31-.1-.47-.08-.67-.39-1.21-.91-1.63-.14-.11-.34-.19-.5-.18-.52.03-1.04.12-1.56.17-.13.01-.36-.02-.37-.04-.02-.28-.03-.57.03-.84.02-.08.26-.17.4-.17,1.86.05,3.73.11,5.59.16.19,0,.38.02.56.05.31.05.5.19.46.55-.03.25-.05.5-.03.75.01.17.1.33.15.49.13-.14.26-.27.37-.42.04-.06.02-.17.02-.26,0-.26-.03-.53,0-.79.08-.83-.24-.96-.85-.99-.9-.03-1.8-.08-2.7-.09-1.15-.01-2.29,0-3.44.01-.38,0-.49-.07-.46-.44.03-.47.11-.94.12-1.41,0-.13-.12-.35-.23-.39-.28-.08-.58-.1-.88-.11-1.11-.04-2.23-.08-3.34-.1-.47,0-.5-.02-.5-.49,0-.83,0-1.65,0-2.48,0-.27-.1-.43-.38-.45-.41-.03-.82-.09-1.23-.1-1.67-.05-3.35-.1-5.02-.13-.86-.02-1.72-.01-2.57,0-.34,0-.53.18-.51.55.02.29.01.58.02.86,0,.4-.1.53-.5.52-.32,0-.65-.06-.97-.06-.72-.01-1.46-.07-2.17,0-.45.05-.78-.05-1.09-.33-.07-.07-.17-.11-.25-.17-.82-.54-1.65-1.08-2.47-1.61-.54-.35-1.08-.72-1.64-1.05-.34-.2-.72-.34-1.09-.51-.14-.06-.3-.2-.42-.17-.11.03-.18.23-.27.35-.23-.8,2.05-6.62,2.89-7.31.19.17.51.28.22.63-.03.04-.01.15.01.21.17.44.25.87.02,1.3.05.15.13.36.06.43-.3.29.03.66-.16.94.09.05.21.15.27.12.13-.05.24-.16.34-.27.43-.47.55-1.05.61-1.66.08-.86.18-1.72-.11-2.56-.05-.16-.08-.33-.12-.49.03-.02.06-.04.08-.06.25.34.86.22.91.82,0,.06.13.12.19.18.03-.08.08-.17.07-.25,0-.12-.07-.25-.07-.37,0-.07.08-.13.12-.2.06.05.17.11.16.15-.02.28-.04.57-.12.84-.08.26-.08.46.25.63.11-.29.21-.55.31-.81.05.01.1.02.15.03-.02.16-.02.32-.06.47-.05.21-.16.4-.18.61-.01.13.08.27.12.41.1-.06.19-.13.29-.19.04-.02.08-.04.13-.06.17.32.05.67-.26.85-.11.06-.27.25-.25.3.16.35.36.67.55,1.01.47-.31.73-.71.81-1.36.18-1.58-.43-2.81-1.74-3.77.18-.08.29-.16.42-.2.4-.13.42-.2.31-.62-.04-.13-.02-.29,0-.43.01-.06.12-.15.17-.14.06,0,.15.1.16.17.03.22.02.45.05.67.02.16.07.31.11.47.14-.06.28-.12.45-.2-.01.19-.03.38-.04.59.13-.02.23-.04.33-.06.14.31.28.61.44.9.02.03.21.03.22.01.15-.48.47-.94.31-1.48-.17-.56-.41-1.09-.87-1.5-.44-.38-1.34-.62-1.79-.35-.64.38-1.34.69-1.76,1.36-.04.06-.13.1-.19.15-.09-.5-.18-.97-.25-1.44C15.74.91,14.66.02,13.9,0c-.77-.02-1.4.25-2.03.66-.45.29-.57.7-.61,1.17,0,.1.1.22.16.33.08-.1.18-.19.24-.3.07-.11.11-.24.16-.36.04.02.09.04.13.06-.05.18-.11.35-.13.53-.02.16.02.4.25.25.2-.14.37-.29.62-.32.05,0,.08-.13.12-.2-.34-.18-.42-.54-.2-.8.03-.03.22,0,.24.04.04.07.02.19,0,.29-.06.24-.05.46.24.49.3.03.19-.24.23-.4.07-.24-.09-.56.25-.77.13.34.03.6-.1.88-.04.08.02.22.03.33.1-.05.26-.07.3-.15.12-.24.2-.51.31-.76.04-.09.12-.16.19-.24.05.1.14.19.15.29.02.29-.2.46-.39.64-.09.08-.1.26-.15.39.11.03.22.06.33.08,0,0,0,0,0,0,0,0,.01,0,.02,0,.14-.23.27-.45.41-.68.04.03.08.06.12.09-.08.27-.16.55-.53.59,0,0,0,0,0,.01,0,0,0,0,0,0,.04.09.07.19.11.3.2-.11.36-.19.53-.28-.02.19-.04.33-.06.47.16.02.27.03.35.04.05.17.09.31.14.48-1.32-.57-2.38,0-3.19.84-.62.65-1.02,1.55-1.15,2.48-.05.37-.18.79.1,1.15.58-.2.81-.25.63-.94-.05-.2,0-.43,0-.64.04,0,.09,0,.13,0,.02.12.02.25.06.36.03.1.09.21.16.26.03.02.16-.07.23-.13.09-.07.19-.14.25-.23.04-.06.05-.19.01-.25-.19-.27-.25-.97-.05-1.34.07.32.13.59.22.99.44-.31.81-.58,1.09-.78.27-.06.48-.06.62-.16.29-.19.54-.44.8-.66.05-.04.12-.07.18-.1.03.07.09.14.09.22.01.16.02.32,0,.48-.02.08-.14.2-.19.18-.26-.06-.42.09-.53.27-.35.56-.69,1.13-1.01,1.71-.35.63-.67,1.27-1.01,1.91-.03.05-.06.11-.08.17-.31.95-.59,1.91-.94,2.84-.11.3-.24.7-.73.69-.01-.28.22-.58-.16-.77-.46-.23-.89-.5-1.34-.74-.41-.22-.81-.45-1.23-.63-.58-.26-1.17-.5-1.77-.71-.09-.03-.25.11-.38.16.07.11.12.23.21.31.1.09.23.13.36.2-.09.12-.16.2-.26.34.37.07.69.13,1,.19,0,.04,0,.07-.01.11-.26.07-.52.13-.77.22-.22.07-.21.22-.05.32.1.07.25.08.37.09.47.02.94.03,1.41.05,0,.05,0,.1,0,.14-.15.02-.3.05-.45.06-.25.02-.5,0-.75.05-.11.02-.19.16-.28.24.11.07.22.21.33.21.69.03,1.38.04,2.07.05.08,0,.15.03.3.07-.13.07-.19.14-.24.14-.65.02-1.29.03-1.94.04-.11,0-.24-.02-.33.02-.11.05-.2.15-.3.23.1.1.19.26.3.28.31.05.62.06.93.05.66-.01,1.32-.04,1.98-.06.08,0,.16.04.24.06,0,.04,0,.09,0,.13-.47.06-.94.16-1.41.19-.58.04-1.17,0-1.75.03-.13,0-.26.16-.39.24.12.08.24.18.37.23.14.05.29.04.44.05.37.03.74.06,1.11.09,0,.04,0,.07,0,.11-.63.09-1.27.19-1.95.29-.03-.2-.07-.45-.12-.71-.14-.69-.3-1.37-.42-2.06-.1-.56-.12-1.13-.22-1.69-.07-.36-.28-.71-.31-1.07-.09-.88-.34-1.71-.66-2.53-.03-.07,0-.17.02-.24.07-.21.15-.41.24-.61.05-.11.11-.2.17-.3.05.01.09.02.14.03.01.25,0,.51.04.75.01.1.11.18.18.27.06-.08.15-.16.16-.25.02-.13-.03-.27-.02-.41,0-.07.08-.13.12-.2.05.05.14.09.15.14.03.19.03.39.05.59.02.2.06.4.1.67.41-.34-.02-.85.51-1.13-.02.41-.05.75-.04,1.08,0,.17.03.43.14.48.34.19.47.49.58.82.05.15.16.28.24.42.09-.14.24-.27.25-.41.03-.44.02-.89,0-1.34-.02-.77-.34-1.41-1.03-1.75-.52-.26-.36-.73-.49-1.11-.01-.04.07-.11.18-.26.07.26.1.44.16.6.06.15.16.28.25.41.06-.14.15-.28.18-.42.03-.12-.03-.25-.02-.37,0-.1.06-.21.09-.31.05,0,.11,0,.16,0,.03.22.04.44.09.65.04.17.07.44.19.49.48.21.74.59.96,1.02.03.07.12.11.18.16.05-.06.13-.12.15-.19.52-1.58-.43-2.65-1.83-2.9-1.01-.18-1.74.41-2.31,1.18-.4.53-.54.81-.93,0-.03-.06-.06-.11-.1-.16-.43-.59-.91-1.1-1.7-1.17-.68-.07-1.26.52-1.14,1.19.06.33.46.51.72.32.36-.27.53-.25.81.09.04.05.13.06.19.09.1.05.19.1.29.15-.1.05-.2.14-.31.14-1.07.05-1.67.78-2.19,1.57-.24.37-.38.84-.46,1.29-.08.45-.06.93-.04,1.39.01.19.16.36.24.55.16-.18.37-.33.48-.54.22-.42.48-.85.13-1.35-.11-.16-.09-.39.19-.51.08.31.15.59.23.92.44-.39.45-1,.95-1.23.04-.02.05-.11.05-.17,0-.31-.02-.62-.02-.94,0-.11.03-.23.07-.34,0-.02.16-.01.16,0,.02.1.04.22.03.32-.03.21-.14.45.12.47-.13.69-.31,1.34-.36,2-.05.61.03,1.24.07,1.86.03.45.09.91.17,1.36.02.09.2.21.29.2.09-.01.25-.2.23-.26-.07-.23.05-.34.17-.49.06-.07.08-.2.08-.31-.03-.59-.12-1.19.13-1.77.03-.06.03-.16,0-.22-.17-.34-.07-.63.07-.96.17-.39.54-.3.83-.38.06-.02.26.24.3.4.19.65.38,1.3.5,1.96.27,1.56.5,3.13.73,4.7.05.37.05.75.1,1.11.08.57.21,1.13.28,1.7.1.82.09,1.65.26,2.45.14.71.1,1.42.13,2.13.05,1.07.18,2.13.26,3.2.1,1.38.18,2.77.27,4.16.01.22-.03.3-.29.3-.84-.03-1.67-.03-2.51-.03-.15,0-.29.09-.53.17.16.11.22.18.28.19.37.04.73.07,1.1.08.83.02,1.66,0,2.49.04,1.34.06,2.67.16,4,.22,1.14.05,2.28.06,3.42.11.15,0,.29.13.43.2h0s.08-.06.12-.08c.27-.11,2.09-.09,2.38.08-.84,0-1.67,0-2.51,0,0,0,0,0,0,0,0,0,0,0,0,0-.54-.01-1.08-.02-1.61-.04-1.25-.04-2.49-.09-3.74-.14-1.29-.05-2.57-.1-3.86-.15-.29-.01-.58,0-.86-.02-.48-.03-.96-.09-1.45-.1-.17,0-.37.05-.5.14-.08.06-.13.31-.07.38.09.11.28.2.42.2.73.02,1.47,0,2.21.02.31,0,.62.07.93.07,1.04.01,2.08,0,3.11.01,1.06.01,2.13.05,3.19.08,1.84.04,3.68.09,5.52.13,2.24.05,4.48.1,6.72.15,1.18.02,2.35.02,3.53.06,1.18.04,2.36.11,3.54.16.63.03,1.25.03,1.88.05.1,0,.2.06.3.09-.6.08-1.2.14-1.79.13-1.16-.02-2.33-.1-3.49-.13-1.14-.03-2.27-.04-3.41-.07-.29,0-.58-.02-.86-.02-.89.01-1.78.05-2.67.04-.8,0-1.6-.08-2.4-.09-.92-.02-1.85,0-2.77-.01-1.43-.03-2.85-.1-4.27-.13-1.25-.02-2.5.01-3.75-.02-1.55-.05-3.1-.14-4.65-.22-.1,0-.21-.04-.3,0-.1.04-.17.15-.26.22.08.08.15.22.24.24.27.06.54.1.82.11,1.3,0,2.6,0,3.9,0,1.01,0,2.02-.01,3.04,0,1.7.03,3.4.08,5.09.12.78.02,1.55.06,2.33.07,1.39.02,2.78.04,4.17.04.79,0,1.58-.06,2.36-.05.92.01,1.84.07,2.76.11.62.02,1.24.05,1.86.07,1.03.03,2.05.05,3.08.08.91.03,1.83.08,2.74.1,1.15.03,2.3,0,3.45.05,1.28.04,2.56.15,3.85.19,1.06.04,2.12.01,3.19.03,1.1.02,2.2.07,3.3.11.22,0,.47.02.5-.26.04-.29-.24-.3-.43-.37-.06-.02-.12-.01-.19-.02-.73-.01-1.47-.01-2.2-.03-.31-.01-.62-.07-.93-.1.65-.07,1.29-.07,1.94-.07.81,0,1.63.02,2.44,0,.69-.02,1.37-.07,2.06-.14.13-.02.32-.23.33-.35,0-.14-.15-.32-.29-.4ZM17.72,2.51c.32.27.31.58.08.88-.04,0-.09,0-.13,0,.02-.29.03-.58.05-.87ZM13.29,5.13c-.33-.13-.33-.29.04-.63-.01.2-.02.41-.04.63ZM13.71,4.58v-.97c.28.19.31.65,0,.97ZM1.71,6.1s.08-.11.12-.11c.06.01.15.06.16.11.03.17.04.35.06.63-.36-.18-.38-.4-.35-.63ZM38.96,22.85c.21-.03.46.02.67.11.63.3.9.87.98,1.52.01.08-.14.2-.23.28-.04.03-.12,0-.18,0-.53.07-1.08.19-1.33-.52.13-.12.54-.04.44-.41-.05-.17-.22-.3-.33-.45-.05,0-.09,0-.14.01.04-.19.06-.53.12-.54ZM41.56,25.44s.02.08.04.12c-.09.11-.16.25-.27.32-.53.37-.63.9-.62,1.49,0,.38.03.75.01,1.12,0,.11-.1.23-.16.34-.05-.11-.14-.21-.14-.32,0-.59,0-1.17.03-1.76.02-.35-.17-.86-.44-.98-.42-.18-.84-.23-1.28.04-.55.34-.44.86-.47,1.36-.01.16.01.33-.02.48-.01.08-.11.14-.17.21-.06-.08-.17-.15-.18-.24-.03-.25-.02-.5-.02-.75,0-.88-.05-1-.74-1.55,1.48-.13,2.95-.02,4.42.11ZM22.3,27.6c-.03-.27-.09-.55-.22-.78-.05-.1-.33-.16-.47-.12-.48.13-.72.56-.7,1.1,0,.19,0,.37,0,.56-.04.48-.14.55-.65.51-.42-.03-.5-.14-.5-.61,0-.51-.02-1.03-.03-1.54-.01-.51.15-.68.67-.68.59,0,1.18,0,1.77,0,0,.02,0,.03,0,.05,1.15.08,2.29.16,3.44.22.25.01.33.15.34.36.03.66.06,1.32.09,1.98,0,.24-.1.38-.36.37-.74-.03-1.48-.05-2.21-.08-.21,0-.42-.03-.64-.02-.36.01-.5-.18-.52-.5,0-.27.03-.55,0-.83ZM18.17,24.48c.58-.07,1.15-.13,1.81-.2-.27-.46-.58-.23-.82-.27-.28-.04-.56-.06-.84-.13.42-.21.97.09,1.43-.31-.21-.08-.36-.13-.53-.2.14-.21.62-.2.27-.6.39-.18.74-.17,1.06.05.42.29.75.65.89,1.17.1.37.24.74.33,1.11.07.29-.05.5-.39.49-.46,0-.92-.02-1.39-.03-.05,0-.13-.01-.14-.04-.12-.35-.45-.35-.75-.4,0-.03.01-.07.02-.1.14-.06.28-.11.42-.17,0-.04,0-.09,0-.14-.45-.08-.9-.16-1.37-.25ZM33.76,23.94c0,.74.05.8.81.78.1,0,.2,0,.3,0,.32-.02.5.15.52.46.03.32-.15.52-.45.53-.5,0-1.02.06-1.5-.21-1.35-.78-2.73-1.52-4.07-2.31-.7-.4-1.36-.86-2.04-1.3-.08-.05-.2-.14-.19-.2.03-.34.06-.69.14-1.02.06-.25.28-.33.53-.31.92.07,1.84.15,2.77.19.79.03,1.58,0,2.37.03.67.01.71.07.74.74.02.51.22.73.73.76.1,0,.2,0,.3,0,.52.02.76.39.54.86-.03.07-.15.13-.23.15-.23.05-.47.08-.7.11-.41.06-.55.21-.55.61,0,.05,0,.1,0,.15ZM30.81,26.07c.76-.06,1.52-.04,2.28-.05.01,0,.03,0,.04,0,.19.08.55.16.55.24,0,.3-.29.23-.49.25-.47.04-.94.06-1.41.09-.46.03-.92.06-1.38.07-.19,0-.38-.05-.64-.08.26-.54.7-.5,1.05-.53ZM29.6,25.33c.13-.09.26-.25.4-.27.39-.06.79-.06,1.29-.09.2.02.5.02.8.08.1.02.17.17.25.26-.1.06-.19.16-.29.17-.27.02-.55,0-.82,0-.23,0-.47.02-.7.04-.16.01-.33.08-.48.05-.16-.03-.29-.16-.44-.24ZM33.63,27.32c.28-.06.56-.09.84-.13,0,.02,0,.05.01.07.24-.05.49-.1.73-.14.13-.02.27-.03.4,0,.07.01.18.11.17.16,0,.08-.09.21-.15.22-.68.08-1.36.14-2.04.19-.05,0-.17-.13-.16-.16.03-.08.11-.19.18-.2ZM35.49,26.54s-.09-.04-.13-.07c-.09-.07-.17-.16-.25-.23.1-.05.2-.14.31-.15.31-.03.46-.23.54-.49.15-.48.35-.54.88-.23-.14.09-.28.15-.37.26-.15.19-.34.39-.39.62-.11.48-.16.53-.59.3ZM27.4,22.96c.01.07.02.13.04.2-.14.06-.28.15-.42.16-.72.04-1.45.05-2.17.09-.78.05-1.57.13-2.35.2-.06,0-.12.07-.28.16.2.05.31.1.41.1.54.02,1.07,0,1.61.03.63.03,1.27.13,1.9.12.52,0,1.03-.02,1.55.06.37.05.76-.09,1.14-.11.22-.01.44.05.66.09,0,.06,0,.11,0,.17-1.09.08-2.18.19-3.26.25-1.08.06-2.15.07-3.23.11,0,.05-.01.1-.02.14.09.04.22.06.27.14.11.16.24.34.25.52.01.25-.21.2-.39.19-.75-.02-.79-.07-.93-.81-.07-.38-.2-.75-.36-1.1-.18-.42-.11-.59.35-.6,1.01-.03,2.02-.03,3.04-.06.27,0,.55-.06.82-.06.46-.01.92,0,1.39,0ZM24.2,22.44c-.31.02-.61.09-.92.11-.46.03-.92.04-1.38.07-.19.01-.39.06-.58.08-.07,0-.15.03-.21,0-.43-.22-.85-.44-1.27-.67,0-.03-.01-.06-.02-.09,2.06.05,4.12.09,6.27.14-.66.33-1.28.33-1.89.36ZM25.95,25.69c-.56-.03-1.12-.02-1.68-.05-.08,0-.14-.12-.22-.19.09-.08.17-.21.26-.21.49-.02.98-.01,1.46-.01v.15c.98,0,1.96,0,2.94,0,.35,0,.52.19.52.55,0,.36.02.73.03,1.09.02.59.19.73.79.72.71-.01,1.43-.02,2.14.01.25.01.61-.05.64.36.03.54.02.65-.54.63-1.41-.04-2.83-.08-4.24-.12-.06,0-.14.01-.18-.02-.36-.27-.73-.19-1.11-.07-.05.02-.24-.17-.25-.27-.04-.41-.02-.82-.05-1.23-.03-.38-.09-.77-.18-1.14-.02-.09-.21-.19-.32-.19ZM26.46,29.54c3.48.07,6.96.15,10.43.22,0,.05,0,.1,0,.16-3.48.03-6.96-.11-10.44-.24,0-.05,0-.1,0-.14ZM33.57,28.76s-.01-.08-.02-.13c.38-.05.77-.11,1.15-.15.72-.06,1.44-.14,2.16-.16.43-.01.86.05,1.29.1.1.01.19.12.26.25-1.62.24-3.24.27-4.85.08ZM32.51,18.97c.66.02,1.32.07,1.99.1.56.03,1.12.05,1.68.08,1,.05.94.08.95,1.04,0,.56-.06,1.12-.09,1.68.03.59.08,1.17-.24,1.71-.11.2-.14.45-.19.68-.12.48-.36.51-.77.28-.3-.17-.71-.19-1.07-.2-.31,0-.48-.06-.5-.39-.02-.35.23-.36.47-.4.01,0,.03,0,.04,0,.91-.08,1.21-.53.94-1.42-.1-.32-.29-.52-.66-.47-.02,0-.05,0-.07,0-.95-.03-.85-.07-.79-.79.05-.67-.17-.83-.84-.82-.81.01-1.62-.06-2.43-.1-.32-.01-.65,0-.97-.05-.27-.04-.4-.37-.32-.75.06-.28.27-.27.5-.26.8.03,1.59.04,2.39.07ZM23.79,15.46c.01-.08.34-.16.52-.16.76,0,1.52.04,2.28.07,1.1.04,2.2.09,3.29.13.55.02,1.1.02,1.65.03.61,0,.72.11.75.7.01.21.02.43.04.64,0,0,0,0-.01,0,0,.43,0,.85,0,1.28,0,.24-.11.35-.34.34-.73-.01-1.45-.01-2.18-.05-.52-.03-.69.1-.71.61,0,.14-.02.28-.02.41-.02.29-.16.44-.45.44-.35,0-.7.01-1.05,0-.24,0-.32-.17-.32-.38.02-.67.04-1.35.07-2.02.02-.4-.11-.59-.52-.61-.86-.05-1.73-.09-2.59-.15-.15-.01-.4-.12-.41-.21-.05-.35-.06-.72,0-1.07ZM20.3,17.17c.81,0,1.62.02,2.42.05,1.06.04,2.11.11,3.16.17.01,0,.03,0,.04,0,.76.02.86.13.85.88-.01.92-.02,1.84-.04,2.76,0,.12-.06.23-.09.34-.11-.03-.25-.04-.34-.1-1.05-.65-2.09-1.31-3.13-1.98-.86-.55-1.71-1.11-2.58-1.66-.18-.12-.39-.2-.69-.35.21-.07.3-.12.4-.12ZM11.88,13.98c.02-.06.17-.12.25-.11.45.07.88.1,1.3-.15.07-.04.25.09.38.14,0,.05-.01.1-.02.14-.28.05-.56.09-.85.14-.17.03-.35.04-.51.09-.1.04-.24.16-.23.23.02.11.13.23.23.3.07.05.19.05.29.05.71,0,1.42,0,2.13,0,.08,0,.16.02.24.1-1.12.26-2.27.03-3.49.3.1-.44.18-.85.3-1.24ZM8.44,29.05c-.08.13-.19.31-.31.34-.19.05-.37-.07-.37-.31,0-.5,0-1,0-1.5-.03-.95-.07-1.9-.12-2.85-.04-.79-.07-1.58-.14-2.36-.16-1.73-.34-3.45-.51-5.18-.02-.18,0-.37,0-.56,0-.14,0-.29-.03-.43-.07-.45-.15-.9-.23-1.39.34.02.64.06.93.07.93.01,1.85.01,2.78.03.08,0,.16.07.23.11-.07.05-.15.15-.22.15-.52.02-1.05,0-1.57.02-.41.01-.83.04-1.23.09-.1.01-.19.13-.28.19.09.06.18.17.27.17.81,0,1.62-.02,2.42-.01.15,0,.44.1.44.16,0,.26-.2.33-.44.33-.61-.01-1.22-.03-1.84-.02-.12,0-.24.12-.35.19.11.07.21.19.33.2.36.03.73.01,1.09.03.27.02.55.05.82.1.08.01.2.12.19.17-.01.09-.09.21-.17.25-.11.05-.24.03-.37.03-.56,0-1.13-.01-1.69,0-.11,0-.21.13-.31.2.1.07.21.18.32.19.56.03,1.13.02,1.69.05.12,0,.24.11.36.18-.11.11-.22.31-.34.33-.34.05-.7.02-1.05.05-.14.01-.27.09-.41.14,0,.06.01.13.02.19.27.05.55.1.82.14.16.03.33.02.48.08.1.04.17.15.25.23-.08.08-.16.2-.26.24-.14.05-.3,0-.44.04-.1.02-.18.11-.27.17.06.09.1.2.18.25.17.11.45.16.52.3.08.16-.02.41-.06.62-.22,1.33-.48,2.66-.65,4-.18,1.42-.48,2.84-.45,4.28,0,.1.03.22-.01.3ZM17.69,29.64c-1.46-.02-2.92-.11-4.39-.15-1.06-.03-2.12-.04-3.18-.06-.24,0-.47.02-.71.04-.26.01-.38-.12-.35-.37.08-.69.18-1.39.26-2.08.02-.21,0-.42.04-.63.19-1.33.37-2.67.59-4,.22-1.34.47-2.68.74-4.02.18-.85.42-1.69.64-2.54.05-.18.12-.28.34-.23.9.22,1.82.15,2.74.13.66-.02,1.33,0,2.04.06-.12.07-.23.18-.36.19-.96.06-1.92.1-2.88.15-.37.02-.74.01-1.1.05-.13.01-.25.12-.37.19.11.07.22.19.34.2,1.63.15,3.26.24,4.9.12.29-.02.59,0,.88,0,.01.04.03.08.04.12-.2.07-.4.18-.6.19-1.08.06-2.15.09-3.23.12-.72.02-1.45,0-2.17,0-.07,0-.16-.01-.22.02-.08.04-.13.13-.2.19.07.05.14.14.22.15.46.04.92.05,1.38.1.61.06,1.21.19,1.82.2.94.01,1.88-.06,2.81-.08.44-.01.89,0,1.33,0,.02.06.03.11.05.17-.12.07-.24.18-.36.19-1.31.06-2.62.1-3.94.15-.36.01-.73.02-1.09.02-.57,0-1.14,0-1.71.01-.12,0-.25.05-.34.12-.15.13-.12.27.09.32.11.03.22.02.34.02.8-.02,1.59-.01,2.39.11.62.1,1.27.07,1.9.06,1.19-.02,2.37-.07,3.56-.12.2,0,.4-.03.61-.05,0,.05.02.1.03.15-.41.09-.81.22-1.23.26-.82.08-1.65.13-2.47.16-.72.02-1.45-.01-2.18,0-.91,0-1.81.01-2.72.02-.05,0-.11-.01-.15.01-.1.07-.19.15-.28.23.09.07.18.18.27.19.32.03.65.02.98.04.8.04,1.6.09,2.4.12.87.03,1.75.03,2.62.03,1.35,0,2.7,0,4.04-.02.18,0,.35-.05.52-.06.12,0,.24.04.37.05,0,.03,0,.07.01.1-.08.04-.15.11-.24.12-.53.08-1.07.17-1.6.2-1.16.08-2.32.16-3.48.17-1.79.02-3.58-.03-5.37-.04-.15,0-.3.03-.51.06.23.39.57.33.84.34,1.09.05,2.18.06,3.26.08,1.04.01,2.08,0,3.12.02.63.01,1.26.1,1.9.12.61.01,1.22-.04,1.83-.06.58-.01,1.17-.02,1.75-.02.06,0,.12.06.28.15-.21.06-.33.12-.45.13-1.12.1-2.24.23-3.36.27-1.25.04-2.5,0-3.74,0-1.25,0-2.5,0-3.75-.02-.11,0-.23,0-.33-.03-.23-.09-.35,0-.46.28.17.03.31.09.46.09.8.01,1.59,0,2.39.02.88.03,1.76.08,2.64.12.01.05.03.11.04.16-.16.06-.32.16-.48.16-.85.02-1.7.01-2.56.02-.27,0-.54.05-.81.08,0,.05,0,.1,0,.16.15.02.29.06.44.07.7.05,1.39.09,2.09.14.06,0,.12.07.18.1-.05.06-.09.17-.14.18-.16.03-.32.02-.48.02-.79,0-1.57,0-2.36.02-.4,0-.79.05-1.19.09-.1.01-.2.06-.3.1,0,.04,0,.09,0,.13.18.03.35.09.53.09.95,0,1.9,0,2.86,0,.16,0,.32.02.5.03.03.35-.18.47-.42.47-.76,0-1.52-.03-2.27-.03-.1,0-.21.03-.3.08-.03.02-.04.17,0,.19.08.06.19.13.29.13.6,0,1.2-.02,1.79,0,.12,0,.24.1.36.15-.14.05-.27.13-.41.14-.57.04-1.15.06-1.72.14.2.29.46.28.73.26.34-.03.67-.05,1.01-.05.09,0,.18.09.27.14-.09.07-.17.17-.27.19-.15.04-.32.04-.48.05-.36.02-.58.2-.64.57-.04.27-.18.39-.47.32-.17-.04-.35-.03-.52-.02-.73.04-.81.15-.81.86,0,.34,0,.68-.06,1.01-.02.1-.21.24-.33.25-.55.04-1.1.02-1.65.05-.12,0-.27.13-.33.24-.04.07.06.22.12.32.02.04.13.09.16.07.48-.25.96.02,1.43.03,1.37.04,2.74.15,4.12.21.82.04,1.64.02,2.47.04,1.41.04,2.82.09,4.23.14.57.02,1.14.04,1.72.06.06,0,.11.03.17.11-.13.01-.26.04-.39.04-2.13,0-4.26,0-6.38-.02ZM14.29,27.69c-.03.66-.6,1.02-1.21.74-.08-.04-.15-.19-.17-.3-.04-.26-.03-.52-.08-.78-.06-.38.13-.58.47-.64.22-.04.45-.05.67,0,.11.03.22.19.28.32.04.09,0,.22,0,.3,0,.15.03.26.02.37ZM31.32,30.51c-3.89-.04-7.79-.08-11.68-.12,0-.05,0-.11,0-.16.63-.04,1.26-.1,1.89-.1.66,0,1.32.08,1.98.09.66.01,1.32-.02,1.98-.01.65,0,1.3.07,1.95.07.66,0,1.32-.04,1.98-.03.64.02,1.3-.01,1.92.16,0,.03,0,.06,0,.09ZM33.16,30.48c-.25,0-.5,0-.75,0-.22,0-.45.02-.67.03,0-.04,0-.08,0-.12h1.98s0,.08.01.12c-.17.15-.38-.03-.57-.03ZM37.96,31.36h.89c-.33.35-.61.12-.89,0ZM41.23,30.74c-2.42-.01-4.84.07-7.25-.37,2.42.07,4.83.15,7.25.23,0,.05,0,.1,0,.14ZM37.26,29.97s0-.09,0-.14c.37-.04.75-.11,1.12-.13.81-.03,1.62-.03,2.42-.06.28,0,.86.21,1.01.48-1.55-.05-3.06-.11-4.56-.16ZM42.33,29.38c.04-1.29.11-2.57.16-3.86.01-.26-.02-.52-.03-.79-.03-.55.1-.71.66-.68.65.03,1.29.08,1.94.11.46.02.92.03,1.39.03.61,0,.82.19.86.79.02.41.17.56.65.61.2.02.47,0,.41.29-.03.12-.28.24-.45.26-.24.03-.42.07-.47.33-.06.3-.14.6-.14.9,0,.36.16.61.59.63.11,0,.31.21.29.28-.03.13-.18.3-.3.33-.52.09-.72.3-.73.85-.02.76-.02.76-.77.72-.39-.02-.77,0-1.16,0,0,.02,0,.05-.01.07-.72-.1-1.45-.19-2.17-.3-.15-.02-.32-.1-.44-.2-.11-.1-.25-.26-.24-.39ZM44.65,31.53s0-.03,0-.05c.45-.03.9-.05,1.35-.08,0,.04,0,.08,0,.12h-1.35ZM48.03,31.05c-.8-.05-1.6-.17-2.4-.25-.25-.02-.49-.04-.74-.04-.68,0-1.35,0-2.03,0,2.17-.31,4.31-.04,6.46,0,0,.05,0,.11,0,.16-.43.04-.87.14-1.3.12Z"/>
      <path class="cls-1" d="M46.11,32.69c-1.4-.02-2.81.01-4.21-.02-1.32-.04-2.64-.16-3.96-.2-.92-.03-1.85.01-2.77.02-.62,0-1.24.01-1.86,0-1.01-.02-2.02-.07-3.03-.09-.75-.01-1.5.03-2.25.02-.72-.01-1.44-.08-2.16-.1-2.24-.04-4.47-.07-6.71-.1-1.53-.02-3.06-.02-4.58-.05-.75-.01-1.5-.07-2.25-.08-.67,0-1.35.02-2.02.06-.16,0-.45.09-.45.14,0,.27.23.32.45.33.14.01.28,0,.41,0,1.22-.02,2.45-.06,3.67-.05,2.31.02,4.63.08,6.94.12,2.92.05,5.85.1,8.77.14,1.6.02,3.2.03,4.8.05.62,0,1.24.06,1.86.06,1.5.02,3,.01,4.5.04.96.02,1.92.1,2.88.13.85.03,1.7.03,2.55.04.42,0,.84.02,1.26.04.34.02.67.06,1.01.09,0-.02,0-.03,0-.05.28,0,.55.02.82,0,.14-.02.27-.13.4-.2-.13-.07-.25-.21-.38-.21-1.24-.06-2.47-.11-3.71-.13Z"/>
      <path class="cls-1" d="M42.52,34.17c-1.37-.03-2.75-.02-4.13-.05-1.12-.02-2.24-.06-3.36-.08-.58-.01-1.15,0-1.73-.01-.92-.02-1.84-.07-2.76-.08-1.07,0-2.15.01-3.22.03-.22,0-.44.04-.67.07,0,.06,0,.13,0,.19.16.03.32.09.48.1,1.22.04,2.45.07,3.67.09.66.01,1.32-.01,1.99,0,1.3.03,2.6.08,3.89.11.84.02,1.67.03,2.51.04.18,0,.37-.05.55-.04,1.01.03,2.02.08,3.03.1.81.02,1.62.02,2.44.03.57,0,1.14.04,1.71.03.12,0,.25-.12.37-.19-.13-.07-.25-.2-.38-.21-1.46-.06-2.92-.1-4.39-.13Z"/>
      <path class="cls-1" d="M19.51,34.26c.37,0,.75,0,1.12-.02.07,0,.13-.11.2-.17-.06-.05-.12-.13-.19-.15-.16-.04-.32-.05-.49-.05-1.31-.04-2.63-.09-3.94-.13-1.31-.04-2.62-.09-3.93-.11-.14,0-.28.19-.43.29.14.08.27.22.41.22.59.02,1.18.01,1.77.01v.06c.95,0,1.9,0,2.85,0,.88,0,1.75.03,2.63.04Z"/>
      <path class="cls-1" d="M20.51,35.85c-1.08-.03-2.16-.04-3.24-.04-.14,0-.28.13-.42.2.12.1.25.2.38.29.03.02.1,0,.15,0h2.92v.03c.07,0,.16.02.22,0,.21-.07.57.1.58-.28,0-.07-.38-.2-.59-.21Z"/>
      <path class="cls-1" d="M45.59,26.13c.38.02.58-.12.6-.43.05-.54-.15-.75-.73-.79-.28-.02-.57-.04-.62.35-.06.49.25.85.75.88Z"/>
      <path class="cls-1" d="M43.41,26.11c.47-.03.69-.29.67-.8-.01-.31-.23-.47-.6-.45-.46.03-.71.28-.69.69.02.34.29.59.62.57Z"/>
      <path class="cls-1" d="M45.78,28.46c-.57-.03-.89.19-.91.6-.02.35.17.51.65.54.47.03.72-.22.74-.73,0-.36-.21-.44-.48-.41Z"/>
      <path class="cls-1" d="M45.7,26.86c-.66,0-.86.15-.86.69,0,.25.14.41.41.43.53,0,1-.3,1-.64,0-.29-.22-.47-.55-.48Z"/>
      <path class="cls-1" d="M43.71,27.89c.36,0,.39-.23.39-.5,0-.45-.13-.59-.53-.58-.47,0-.63.16-.63.59,0,.43.12.49.76.5Z"/>
      <path class="cls-1" d="M43.65,28.59c-.51.03-.64.16-.62.59.02.43.26.6.8.53.31-.04.32-.3.3-.55-.04-.51-.1-.59-.49-.56Z"/>
      <path class="cls-1" d="M29.61,21.15c-.11-.04-.25,0-.43,0-.02,0-.11-.02-.2-.02-.5-.02-.71.17-.73.67,0,.39.27.63.71.63.61,0,.99-.44.89-1.06-.01-.09-.15-.18-.25-.22Z"/>
      <path class="cls-1" d="M31.39,21.29c-.13-.02-.27-.04-.34-.05-.5-.02-.64.16-.63.66,0,.26.11.52.34.48.36-.05.81.31,1.09-.18.27-.48.09-.83-.46-.92Z"/>
      <path class="cls-1" d="M29.21,17.29c.59-.03.82-.19.8-.56-.03-.62-.15-.71-.87-.67-.32.02-.46.2-.45.49.02.59.15.76.51.74Z"/>
      <path class="cls-1" d="M23.94,28.29c.36.01.61-.27.62-.69,0-.59-.09-.69-.73-.69-.39,0-.46.1-.47.66,0,.54.12.7.57.71Z"/>
    </g>
  </g>
</svg>