<?xml version="1.0" encoding="UTF-8"?>
<svg id="Layer_2" xmlns="http://www.w3.org/2000/svg" viewBox="0 0 50.38 17.36">
  <defs>
    <style>
      .cls-1 {
        fill: #2c489e;
      }
    </style>
  </defs>
  <g id="Layer_1-2" data-name="Layer_1">
    <g>
      <path class="cls-1" d="M25.26,1.64c.58.08,1.31-.18,1.52.19.27.5-.37.78-.62,1.04-.19.2-.58.57-.05.71.12-.1.11-.33.14-.52.68-.19,1.25-1.27.66-1.99-.62-.12-1.09.12-1.47-.14,0-.26.17-.37.14-.66-.07-.18-.38-.32-.57-.24-.12.21.25.35.28.57-.18.3-.29.72-.05,1.04Z"/>
      <path class="cls-1" d="M35.4,1.59c.38.19,1.11.02,1.56.14.39,1.04-1.23,1.08-.76,1.89.25-.03.22-.35.28-.57.66-.26.98-.89.81-1.75-.35-.47-1.19-.01-1.61-.33-.15-.28.18-.35.09-.71-.09-.15-.41-.27-.62-.14.04.24.25.32.33.52-.14.2-.3.68-.09.95Z"/>
      <path class="cls-1" d="M45.72.69c-.21.22-.24.74-.09.95.34.19,1.02.05,1.52.09.51.76-.65,1.08-.85,1.71.12.1.12.36.33.24.13-.06.09-.29.09-.47.24-.3.65-.42.85-.76-.05-.43.22-1.04-.24-1.33-.49-.08-1.21.15-1.42-.09-.07-.2.13-.4.09-.71-.08-.19-.5-.38-.57-.05-.02.26.27.2.28.43Z"/>
      <path class="cls-1" d="M24.12,1.64c.35,1.08,0,1.91.09,3.22.35.07.32-.4.33-.71,0-.3.02-.68,0-.99-.04-.67.16-1.85-.33-2.13-.66-.06-1.13.17-1.47-.14-.26.24-.09.62.05.85-.21.17-.31.79-.14,1.04.23-.1.54-.17.76-.14.2-.47-.23-.5-.47-.57-.07-.6.69-.39,1.19-.43Z"/>
      <path class="cls-1" d="M27.63,3.58c.3,0,.65.05.76-.14.07-.5-.67-.84-.1-1.14.51.35.77.96,1.28,1.33.62-.62-.89-1.26-.09-1.94.11.02.2.09.28,0,.02-.29,0-.54-.14-.66-.28.11-.39-.12-.66-.14-.23.28-.02.67.14.85-.11.08-.04.34-.19.38-.53-.24-.61-.94-1.14-1.18-.41.48.16.85.28,1.23-.63.15-.37.99-.43,1.42Z"/>
      <path class="cls-1" d="M38.57,3.63c.17-.46-.24-.65-.33-1,.1-.09.12-.26.28-.28.5.38.75,1.04,1.33,1.33.54-.67-1-1.32-.09-1.94.06.01.09.07.19.05.32-.68-.48-.61-.71-.9-.13.11-.17.31-.19.52.08.15.23.22.28.38-.08.11-.11.27-.19.38-.53-.24-.68-.86-1.14-1.18-.5.38.14.91.28,1.23-.72.26-.34.81-.47,1.42.3-.04.52.12.76,0Z"/>
      <path class="cls-1" d="M34.64,3.39c.1-.69.14-1.46-.05-2.18-.33-.29-1.29.03-1.71-.28-.2.24-.07.69.09.85-.24.18-.31.73-.14,1.04.23-.12.42-.26.71-.09.06-.14.11-.28.05-.43-.09-.15-.37-.11-.52-.19,0-.19.1-.31.19-.43.37,0,.79-.08,1.14.09.14,1.12-.07,2.19.05,3.13.55-.17.19-1.09.19-1.52Z"/>
      <path class="cls-1" d="M48.09,3.63c.19.18.45,0,.76.05.2-.49-.25-.68-.33-1.04.08-.09.14-.2.28-.24.52.37.8.97,1.33,1.33.63-.62-1-1.3-.1-1.94.06.06.17.06.24,0,.04-.24,0-.25,0-.52-.42-.2-.98-.51-.95.1.01.23.21.22.28.47-.09.12-.1.31-.24.38-.46-.33-.6-.98-1.18-1.18-.3.51.19.87.38,1.18-.65.23-.37.88-.47,1.42Z"/>
      <path class="cls-1" d="M43.07,2.87c.25-.19.54-.16.81-.14v-.38c-.09-.17-.47-.07-.57-.24.07-.14.13-.28.24-.38.43,0,.71-.09,1.09.05.17,1.04-.1,2.24.14,3.22.33-.33.2-1.13.19-1.85,0-.55.13-1.51-.05-1.8-.33-.52-1.11-.01-1.56-.19-.08-.03-.06-.29-.24-.19-.19.23-.07.66.1.81-.2.22-.32.78-.14,1.09Z"/>
      <path class="cls-1" d="M31.84,1.68c.13-.15.29-.28.28-.57-.64-.14-.98-.03-1.66-.05-.09.18-.28.26-.24.57.47.09,1.19.04,1.61.05Z"/>
      <path class="cls-1" d="M41.98,1.78c.16-.18.39-.28.38-.62-.67-.04-1.66-.4-1.94.47.4.2,1.06-.02,1.56.14Z"/>
      <path class="cls-1" d="M.43,2.39c.29.03.94-.15,1.04.19-.08.38-.93.62-.52,1.04.1-.7,1.03-.63.76-1.56-.17-.27-.88,0-1.18-.24.03-.27.02-.29.05-.57-.12-.02-.14-.14-.28-.14.05.43-.08.89.14,1.28Z"/>
      <path class="cls-1" d="M7.35,2.49c.06.43-.01.74.05,1.09.32.02.18-.44.19-.66.02-.39.12-.73-.14-.99-.27.07-.3-.11-.47-.14-.09.16-.11.31-.05.52.1.11.35.06.43.19Z"/>
      <path class="cls-1" d="M16.49,2.06c-.12-.1-.22-.22-.38-.28-.24.25-.06.5.09.71-.16.24-.32.71-.71.57.02-.47.4-.58.38-1.09-.1-.09-.26-.12-.38-.19-.19.43.21.97-.28,1.28-.18-.29-.09-.63.09-.81,0-.11-.08-.14-.05-.28-.11-.05-.23-.08-.38-.1.02.49.03,1.15.24,1.66,1.14.19,1.12-.77,1.37-1.47Z"/>
      <path class="cls-1" d="M16.68,2.87c.04.18.06.38.05.62.12.03.35.03.47,0,.26-.34-.41-.56-.09-.81.44.16.53.67.95.85.01-.11.16-.09.14-.24-.08-.3-.38-.37-.28-.85.09-.04.17-.08.28-.09.01-.17,0-.31-.05-.43-.15-.05-.33-.08-.47-.14-.3.22.17.58-.05.71-.37-.12-.47-.51-.76-.71-.03.13-.2.12-.19.28.06.19.21.3.28.47-.12.08-.2.21-.28.33Z"/>
      <path class="cls-1" d="M18.48,2.25c.28.31.88-.12,1.14.28.06.32-.12.88.09,1.04.27-.32.27-1.34,0-1.66-.47-.03-.89,0-1.18-.09-.08.08-.04.28-.05.43Z"/>
      <path class="cls-1" d="M3.04,3.53c.07-.55.99-1.37.14-1.71-.25.24.03.54.1.76-.17.21-.3.71-.71.52.03-.46.4-.58.43-1.04-.09-.12-.23-.18-.38-.24-.02.12-.14.14-.14.28.22.31.1.81-.19,1-.08-.14-.11-.33-.09-.57.04-.12.24-.08.24-.24-.02-.28-.22-.38-.47-.43.02.57.11,1.18.24,1.71.3,0,.62.02.85-.05Z"/>
      <path class="cls-1" d="M9.2,3.53c.11-.51-.11-.83-.05-1.47-.19-.25-.85-.04-1.09-.24-.12.08-.11.33-.05.47.15.16.6.02.9.14v.66c-.39.07-.6-.03-.95.05-.03.11-.07.22-.05.38.32.08.96.08,1.28,0Z"/>
      <path class="cls-1" d="M10.62,1.87c-.2.24.12.44.14.62.04.39-.29.58-.33,1.04.12.09.45.07.52-.05.08-.41-.33-1,.19-1.14.09-.02.48.04.57.19.11.37-.1.8.1,1.04.19-.41.18-1.2-.1-1.61-.4-.06-.83-.04-1.09-.1Z"/>
      <path class="cls-1" d="M6.5,3.58c.33-.36.18-1.16,0-1.61-.34-.07-.8-.02-1.14-.1-.17.26.07.45.14.62-.07.39-.25.67-.33,1.04.29.05.38.06.57-.1.03-.36-.34-.83.05-1.04.66-.37.8.55.71,1.18Z"/>
      <path class="cls-1" d="M10.1,2.82c.32-.37.2-1.06-.47-.95-.03.11-.07.22-.05.38.35.1.49.22.52.57Z"/>
      <path class="cls-1" d="M13.65,1.92c-.51,0-1.21-.21-1.33.38.45.11,1.3.3,1.33-.38Z"/>
      <path class="cls-1" d="M13.98,1.87c-.17.38.18.51.47.57v.33c.3-.13.25-.67.05-.85-.21.02-.35-.02-.52-.05Z"/>
      <path class="cls-1" d="M29.33,4.05c-.13-.28-.61-.16-.9-.14.11.36.45.44.33.9h.24c.04-.24-.01-.32,0-.62.16,0,.33.02.33-.14Z"/>
      <path class="cls-1" d="M25.5,4.29c.16.11.32.08.43-.09,0-.37-.53-.36-.43.09Z"/>
      <path class="cls-1" d="M26.63,4.34c.02-.11.07-.18.05-.33-.13-.11-.26-.07-.43,0-.03.15.03.22.05.33.2-.01.18.06.33,0Z"/>
      <path class="cls-1" d="M28.01,5c0-.42.12-.66-.05-1.09h-.19c.06.36-.2,1.01.24,1.09Z"/>
      <path class="cls-1" d="M38,3.91c-.01.29-.23,1.13.19,1.14.07-.3.02-.64.05-1.04-.09-.02-.12-.1-.24-.1Z"/>
      <path class="cls-1" d="M39.52,3.96c-.26,0-.64-.06-.9,0-.09.34.28.23.33.43,0,.25-.05.55.24.52.09-.11.05-.4,0-.52.06-.2.44-.07.33-.43Z"/>
      <path class="cls-1" d="M48.43,5.09c.21-.23.19-.99-.1-1.18-.12.21-.24,1.12.1,1.18Z"/>
      <path class="cls-1" d="M35.63,4.19c.06,0,.05.07.05.14.69.24.19-.81-.05-.14Z"/>
      <path class="cls-1" d="M36.58,4.43c.16-.03.31-.07.28-.29-.17-.43-.65.06-.28.29Z"/>
      <path class="cls-1" d="M49.28,4.9c.08,0,.15.01.19.05.17-.1.04-.49.14-.66.14,0,.26,0,.24-.14-.18-.32-.64-.17-.95-.09.01.31.23.19.33.33.02.17-.04.42.05.52Z"/>
      <path class="cls-1" d="M46.39,4.24c-.06-.39-.59-.19-.38.19.2.01.38,0,.38-.19Z"/>
      <path class="cls-1" d="M47.1,4.05c-.18-.03-.12-.02-.33-.05-.08.17-.04.39.1.47.15.02.19-.07.28-.1.03-.15-.03-.22-.05-.33Z"/>
      <path class="cls-1" d="M26.16,5.09c.11-.13.16-.22.09-.43-.24-.05-.36-.03-.38.24.05.11.14.17.28.19Z"/>
      <path class="cls-1" d="M36.3,5.14c.18-.06.17-.21.19-.33-.34-.33-.63.28-.19.33Z"/>
      <path class="cls-1" d="M46.44,5.19c.22.03.29-.09.38-.19-.06-.47-.71-.12-.38.19Z"/>
      <path class="cls-1" d="M8.96,6.99c.13.04.12-.07.24-.05.32.27-.04,1.05.24,1.28.2-.32.22-1.29,0-1.71-.24.04-.36-.05-.47-.14-.16.19-.14.41,0,.62Z"/>
      <path class="cls-1" d="M16.26,6.56c-.36-.13-1.05.07-1.28-.19-.1.12-.16.36-.09.52.29.12.78.05,1.09.14-.07.3-.08.88,0,1.18.45-.26.12-1.26.28-1.66Z"/>
      <path class="cls-1" d="M17.77,7.18c.07.48-.16.78.05,1.04.29-.27.26-1.25.05-1.66-.36-.07-1.06-.03-1.23-.14-.04.12-.06.25-.05.43.23.27,1.05-.04,1.18.33Z"/>
      <path class="cls-1" d="M2.8,6.42c-.05.12-.06.29-.05.47.08.12.33.08.43.19.12.28-.09.92.19,1.14.13-.58.11-1.13-.05-1.66-.16-.06-.36-.08-.52-.14Z"/>
      <path class="cls-1" d="M4.75,6.42c-.07.1-.12.23-.09.43.14.26.73.06,1,.19-.09.2.08.47-.1.66-.21.12-.68-.02-.9.09.04.16-.07.18-.05.33.34.11.87.02,1.28.05.15-.38,0-1.12-.14-1.61-.36-.12-.74.07-.99-.14Z"/>
      <path class="cls-1" d="M6.31,6.42c-.09.1-.03.35-.05.52.11.05.29.03.38.09.18.32-.01.79.14,1.18.14-.23.27-1.08.19-1.42-.08-.33-.36-.26-.66-.38Z"/>
      <path class="cls-1" d="M8.11,6.47c-.15.05-.16.25-.33.28-.09-.19-.28-.29-.52-.33-.19.18,0,.56.19.66-.08.26-.39.77-.14,1.04.12-.34.14-.78.33-1.04.42-.24.94-.02.81.57-.23-.01-.36.08-.62.05-.08.11-.16.22-.14.43.23.13.53-.02.8,0,.26-.52.34-1.46-.38-1.66Z"/>
      <path class="cls-1" d="M19.34,6.94c.22.11.29.37.33.66-.21.14-.36.06-.66.1-.08.11-.11.26-.1.47.26-.07.51.04.81-.05.23-.56.24-1.59-.43-1.66-.15.07-.18.26-.33.33-.04-.26-.29-.31-.52-.38-.08.09-.03.31-.05.47.07.07.22.06.28.14-.11.24-.46.88-.14,1.09.09-.57.14-1.19.81-1.18Z"/>
      <path class="cls-1" d="M21.71,7.89c-.18-.22-.59-.81-.05-.95v-.33c-.16-.08-.29-.18-.52-.19-.17.17-.08.48.09.57-.05.06-.08.14-.14.19-.35-.11-.51-.99-.9-.62-.01.31.21.39.28.62-.37.12-.21.56-.28.9.11.08.36.02.47.1.26-.3-.14-.49-.14-.81.05,0,.06-.04.09-.05.44.16.54.66.95.85.04-.1.07-.21.14-.28Z"/>
      <path class="cls-1" d="M25.68,6.42c-.02.54-.13,1.19.05,1.8.34-.27.17-.66.19-1.14.1-.12.67-.17.76,0-.05.34-.08.89.09,1.14.39-.31.01-1.11.24-1.61-.33-.18-1.01,0-1.33-.19Z"/>
      <path class="cls-1" d="M28.53,7.18c.05-.1.16-.15.28-.19.04-.24.02-.23-.05-.43-.17-.02-.27-.11-.47-.09-.01.05-.05.07-.09.09-.09.29.3.47.05.62-.31-.09-.51-.82-.76-.76-.46.11.14.66.14.76,0,.05-.26.29-.28.47-.03.24.17.32.05.52.17-.02.42.04.52-.05.11-.28-.2-.43-.24-.71.53-.12.58.65,1.04.76.4-.31-.24-.59-.19-1Z"/>
      <path class="cls-1" d="M32.08,7.08c-.05.39-.13,1.01.09,1.19.34-.31.08-1.23.19-1.66-.44-.12-.94.08-1.28-.19-.14.14-.18.39-.05.57.16.11.76-.02,1.04.09Z"/>
      <path class="cls-1" d="M33.79,8.13c.17-.5.48-.85.52-1.47-.12-.1-.22-.22-.43-.24-.17.32.05.55.19.71-.15.23-.25.51-.52.62-.09,0-.16-.03-.19-.09,0-.48.46-.62.33-1.09-.17,0-.21-.14-.38-.14-.21.39.24.95-.28,1.28-.17-.28-.09-.63.09-.85,0-.26-.23-.31-.38-.43-.11.51.04,1.26.24,1.8.19-.04.54-.02.81-.09Z"/>
      <path class="cls-1" d="M4.27,6.66c-.14-.1-.31-.17-.52-.19-.15.28.04.58.28.62-.09.24,0,.39,0,.66-.14,0-.31-.03-.38.05-.05.09-.06.22-.1.33.23.12.5.04.71.09.16-.55-.17-.9,0-1.56Z"/>
      <path class="cls-1" d="M24.93,7.04c.1.33.1.75.09,1.18.34-.39.21-1.42-.09-1.66-.4.02-.76,0-1.04-.09-.21.26.06.4.14.62-.06.41-.27.67-.33,1.09.14.05.36.07.52-.05-.04-.56-.24-1.37.71-1.09Z"/>
      <path class="cls-1" d="M35.92,8.27c.37-.41-.24-.58-.19-1.09.06-.08.16-.13.28-.14v-.38c-.14-.09-.32-.15-.52-.19-.25.25.12.5,0,.71-.42-.1-.43-.61-.85-.71-.03.1-.12.14-.1.28.04.2.23.24.24.47-.37.19-.14.63-.19.99.22.01.41,0,.52-.09.13-.39-.44-.5-.14-.76.42.2.59.64.95.9Z"/>
      <path class="cls-1" d="M43.31,6.52c-.04.23-.03.28,0,.47.1.11.35.06.43.19.13.17-.1.93.19,1.09.29-.56.2-2-.62-1.75Z"/>
      <path class="cls-1" d="M22.04,6.94c.46.07,1.36.19,1.33-.38-.46-.08-1.35-.19-1.33.38Z"/>
      <path class="cls-1" d="M42.98,7.27c-.08.07-.14.22.05.24.34-.43.03-.99-.47-1-.35.41.19.62.43.76Z"/>
      <path class="cls-1" d="M47.15,7.08c.2.08.53.04.81.05.1.16.17.63-.05.71-.38.03-.56-.02-.85.05.01.15-.08.2-.05.38.36.08,1.01.07,1.37,0-.09-.48.01-1.17-.24-1.61-.38,0-.81.05-.99-.14-.15.1-.11.46,0,.57Z"/>
      <path class="cls-1" d="M13.94,6.56c-.23.14-.36.36-.43.66.32.01.77-.47.43-.66Z"/>
      <path class="cls-1" d="M14.5,6.56c-.34.07-.47.35-.57.66.29.07.67-.35.57-.66Z"/>
      <path class="cls-1" d="M29.24,6.99c.18.08.75.04,1.14.05.03-.17.17-.24.14-.47-.56-.02-1.41-.09-1.28.43Z"/>
      <path class="cls-1" d="M44.97,7.27c.17-.03.24-.17.47-.14.29.48-.14.85-.76.71-.07-.15-.11-.33-.09-.57.11-.16.32-.22.24-.57-.17-.04-.25-.16-.47-.14-.2.25,0,.45.09.66-.24.23,0,.64.05,1.09,1.03.44,1.53-.86,1.23-1.47-.28-.57-.84.05-.76.43Z"/>
      <path class="cls-1" d="M46.01,6.56c-.03.17-.08.32,0,.47.31.04.56.23.47.52.46-.34.17-1.1-.47-1Z"/>
      <path class="cls-1" d="M48.85,7.08c.26.1.88,0,.99.09.06.34.02.89.1,1.18.48-.05.2-.68.19-1.04.06-.21.2-.35.09-.62-.6.04-1.72-.44-1.37.38Z"/>
      <path class="cls-1" d="M36.87,6.66h-.19c-.15.2-.34.35-.38.66.3-.09.66-.34.57-.66Z"/>
      <path class="cls-1" d="M37.34,6.66c-.35.06-.53.29-.57.66.31-.09.65-.34.57-.66Z"/>
      <path class="cls-1" d="M41.41,7.23c.1.07.11.24.28.24.07-.06.06-.2.19-.19,0-.34-.46-.45-.47-.05Z"/>
      <path class="cls-1" d="M1.86,7.18c-.48-.09-1.34-.04-1.75-.05-.03.15-.03.09,0,.24.56-.08,1.49.19,1.75-.19Z"/>
      <path class="cls-1" d="M14.88,8.17c.49-.04.28-.54.28-.9-.34.16-.27.47-.28.9Z"/>
      <path class="cls-1" d="M31.32,7.32c-.38,0-.38.58-.28.9.46,0,.22-.66.28-.9Z"/>
      <path class="cls-1" d="M48.85,8.36c.49,0,.21-.62.33-.9-.48-.09-.32.69-.33.9Z"/>
      <path class="cls-1" d="M41.56,7.75c-.38.31.19.82.33.29-.05-.16-.13-.28-.33-.29Z"/>
      <path class="cls-1" d="M33.08,10.86c-.03-.24.08-.33.05-.57-.09-.06-.27-.16-.38-.05.29.32-.01.7.19,1.14.23.23.99-.19,1.14.28-.07.36-.94.61-.52,1,.11-.38.37-.61.71-.76.05-.29.12-.74-.1-.9-.4-.09-.84.16-1.09-.14Z"/>
      <path class="cls-1" d="M1.81,11.05c0-.3.23-.56-.19-.57.05.26-.04.64.05,1,.26,0,.56-.03.62.19-.02.3-.82.46-.38.76-.04-.24.24-.41.47-.52-.02-.26.18-.44,0-.71-.21-.07-.43.06-.57-.14Z"/>
      <path class="cls-1" d="M14.13,10.72c.42.47.41,1.43-.05,1.85.75-.21.76-1.63.05-1.85Z"/>
      <path class="cls-1" d="M17.11,10.82c-.03.53.07.96,0,1.8.54-.08.1-.93.33-1.18.15-.07.62-.1.71.05-.06.29-.13.97.09,1.14.29-.4.09-1.14.19-1.66-.48-.1-.92.07-1.33-.14Z"/>
      <path class="cls-1" d="M18.77,10.82c-.06.15-.13.35-.05.52.79-.07.21,1.04.62,1.28.07-.46.18-1.12,0-1.61-.15-.1-.4-.11-.57-.19Z"/>
      <path class="cls-1" d="M20.81,10.96c-.28,0-.37.3-.43.62.21.04.12-.22.38-.14.01.04.04.06.09.05.32.65-.51.89-.85.52-.25-.47.44-.58.19-1.04-.23.06-.24-.11-.38-.14-.07.09-.12.19-.14.33.31.29-.07,1.03.24,1.47.3-.02.67.04.9-.05.32-.34.56-1.6,0-1.61Z"/>
      <path class="cls-1" d="M22.7,11.01c-.3-.11-.86.04-1.04-.19-.08.14-.14.34-.05.52.19.16.56.05.81.09.14.2.19.63-.05.76-.28.03-.46-.04-.71-.05-.07.11-.18.2-.14.43.37.05.78.03,1.28.05.04-.11.1-.19.09-.33-.28-.25.03-.91-.19-1.28Z"/>
      <path class="cls-1" d="M25.92,11.05c-.31-.18-.94,0-1.42-.19-.06.2-.05.38,0,.52.29.13.74-.08.99.14-.09.41-.05.67-.05,1.14.46.02.26-.72.24-1.04.07-.2.31-.23.24-.57Z"/>
      <path class="cls-1" d="M26.21,10.86c-.11.18-.1.3,0,.52.04.1.3-.02.33.09.16.31-.06,1.01.24,1.18.1-.56.08-1.11,0-1.66-.18-.05-.43-.04-.57-.14Z"/>
      <path class="cls-1" d="M27.25,10.91c-.22.11-.04.47.05.57-.22.45-.11,1.07.28,1.18.97.29,1.29-1.14.71-1.66-.38-.02-.74-.08-1.04-.1ZM27.58,12.19c-.43-.4,0-1.01.66-.71.28.44-.06.86-.66.71Z"/>
      <path class="cls-1" d="M31.13,10.86c-.05.14-.13.24-.09.47.35.27.7-.02,1.09.19-.03.29-.1.84.09,1.14.34-.23.08-1.13.19-1.61-.44-.14-.94.07-1.28-.19Z"/>
      <path class="cls-1" d="M28.95,10.91c-.15.15-.09.4.05.52.53-.12.24.37.47.47.12-.38.19-.69-.09-.95-.26.05-.2-.02-.43-.05Z"/>
      <path class="cls-1" d="M38.57,10.91c-.26.29.13.45,0,.76-.36-.16-.51-.53-.8-.76-.09.09-.11.24-.14.38.1.12.22.22.24.43-.33.13-.18.59-.24.9.18.14.39.1.57,0,.19-.32-.43-.51-.14-.76.38.19.58.56.85.85.57-.23-.19-.57-.09-1.04.12-.16.16-.11.33-.24.02-.48-.29-.37-.57-.52Z"/>
      <path class="cls-1" d="M36.3,11.76c.12-.24.2-.27.19-.57-.04-.01-.06-.04-.05-.1-.18-.17-.45,0-.62-.14-.08.17-.09.29-.05.47.05.11.34-.02.38.1-.16.57-.23,1.35-.05,2.04.43-.28.09-1.14.19-1.8Z"/>
      <path class="cls-1" d="M37.2,11.05c-.23.04-.34-.04-.47-.1-.12.08-.11.33-.05.47.42-.06.46.3.52.47.2-.15.17-.7,0-.85Z"/>
      <path class="cls-1" d="M40.61,10.96c-.23.27,0,.52.14.71-.19.21-.29.74-.71.57.1-.52.8-1.26-.09-1.23-.04.42.24.95-.24,1.18-.2-.42.06-.59.14-.95-.11-.15-.26-.25-.47-.28-.02.6.09,1.16.24,1.75.25-.02.58.08.85,0,.1-.54,1.05-1.48.14-1.75Z"/>
      <path class="cls-1" d="M43.59,12.81c.55-.27.11-1.22.28-1.71-.56-.07-.94.08-1.33-.14-.13.17-.11.44.05.57.38.08.74-.11.99.09-.06.48-.04.77,0,1.18Z"/>
      <path class="cls-1" d="M48.95,12.76c.32.07.64.1.9,0,.12-.51,1.01-1.49.1-1.75-.18.27-.01.52.14.71-.13.28-.23.59-.62.62-.17-.47.37-.61.28-1.14-.15-.06-.25-.16-.43-.19-.19.42.23.96-.24,1.28-.3-.34.1-.65.09-1-.12-.14-.31-.22-.47-.33-.04.66.11,1.18.24,1.8Z"/>
      <path class="cls-1" d="M45.77,11.24c-.11-.14-.36-.15-.52-.24-.24.22-.09.55.19.62-.06.26-.09.54-.33.62-.04-.31-.26-.43-.43-.62.06-.08.23-.06.24-.19.05-.26-.32-.36-.62-.43.01.14-.11.14-.09.28.22.3.39.66.57,1h-.43c-.04.13-.12.38-.05.47,1.15.33,1.32-.61,1.47-1.52Z"/>
      <path class="cls-1" d="M46.58,12.81c.26-.39.14-1.09.05-1.61-.17-.1-.42-.12-.62-.19-.04.12-.06.25-.05.43.1.12.3.15.43.24.13.39-.05.95.19,1.14Z"/>
      <path class="cls-1" d="M47.52,11.39c-.03-.28-.33-.3-.57-.38-.17.34.1.53.24.71-.07.27-.4.76-.14,1.04.04-.67.65-1.64,1.09-1,.07.1.11.26.09.47-.22.1-.32.08-.66.1-.06.15-.19.25-.09.43.24.13.6-.04.81.05.5-.65-.03-2.33-.76-1.42Z"/>
      <path class="cls-1" d="M.86,11.1c-.08.08-.12.2-.09.38.16.06.39.06.43.24.03.21-.19.57.1.66.03-.33.1-.82,0-1.14-.15-.04-.31-.06-.43-.14Z"/>
      <path class="cls-1" d="M8.68,11.1c.01.3,0,.56-.05.81.13.11.32-.03.43-.09.05-.15-.25-.19-.1-.29.3-.1.59.03.52.43-.17.23-.87-.08-.85.33.16.17.68.11.85,0,.17-.35.16-.7.05-1.04-.32-.12-.52-.06-.85-.14Z"/>
      <path class="cls-1" d="M9.91,11.15c.04.44-.17.89.19,1.23.32.03.52-.05.66-.19.03-.39.11-.79-.14-.99-.29-.04-.55-.02-.71-.05ZM10.05,12c-.21-.29.2-.74.57-.43.23.38-.24.6-.57.43Z"/>
      <path class="cls-1" d="M12.85,11.1c-.02.11-.08.18-.05.33.13.17.47.17.71.1.17.16.14.52.14.85.33-.2.18-.84,0-1.14-.22-.09-.64.01-.81-.14Z"/>
      <path class="cls-1" d="M.06,11.15c.02.11-.09.1-.05.24.03.14.21.13.28.24-.02.31-.2,1.04.09,1.37.08-.6-.05-.99.14-1.71-.13-.08-.29-.12-.47-.14Z"/>
      <path class="cls-1" d="M2.71,11.15c-.18.37.24.37.38.57-.03.11-.18.1-.14.28.53-.16.38-.91-.24-.85Z"/>
      <path class="cls-1" d="M8.35,11.24c-.21.03-.27-.08-.47-.05.03.11.07.22.05.38.17-.03.21.08.28.14-.15.29,0,.78-.05,1.33.24-.01.19-.38.19-.57,0-.26-.09-.52-.05-.71.13-.09.11-.37.05-.52Z"/>
      <path class="cls-1" d="M31.09,12.71c.39.04.34-.81.24-.95-.35.13-.29.57-.24.95Z"/>
      <path class="cls-1" d="M42.69,11.86c-.23.21-.21.64-.14.95.45-.04.16-.53.28-.9-.06,0-.07-.06-.14-.05Z"/>
      <path class="cls-1" d="M7.12,12.66c.29-.11.43-.36.47-.71-.41-.2-.39.42-.47.71Z"/>
      <path class="cls-1" d="M12.14,12.29c.09.02.09.14.24.1.14-.04.12-.23.19-.33-.15-.2-.48-.14-.43.24Z"/>
      <path class="cls-1" d="M16.12,12.57c.09.07.14.18.29.19.58-.28-.23-.92-.29-.19Z"/>
      <path class="cls-1" d="M47.29,16.08c-.13-.17.02-.4.05-.57-.11-.03-.1-.18-.28-.14,0,.36,0,.61-.05.9.1.22.57.06.71.24.04.44-.66.37-.43.85.22.04.07-.13.19-.28.14-.18.43-.26.47-.43.11-.43-.13-.75-.66-.57Z"/>
      <path class="cls-1" d="M37.01,15.55s-.04-.06-.1-.05c-.55.3-.7,1.7.1,1.85-.5-.44-.5-1.38,0-1.8Z"/>
      <path class="cls-1" d="M37.81,15.74c-.38.03-.45.38-.57.66.38-.02.63-.35.57-.66Z"/>
      <path class="cls-1" d="M37.72,16.45c.33-.1.54-.31.62-.66-.41-.01-.63.4-.62.66Z"/>
      <path class="cls-1" d="M38.62,15.89c-.02.09-.1.12-.09.24.1.1.15-.04.24.05.22.24-.02.48.14.66.38-.25.28-1-.28-.95Z"/>
      <path class="cls-1" d="M39.38,15.89c.02.21-.06.24,0,.38.32.11.43.07.71.05.21.16.12.74.19.9.23-.28.21-.99-.09-1.23-.33.03-.58-.02-.81-.09Z"/>
      <path class="cls-1" d="M42.5,15.93c-.25.27.15.36.24.57-.09.1-.07.31-.24.33-.48-.21.06-.88-.57-.95.02.15-.14.11-.09.28.19.16.24.46.38.66-.08.08-.3.02-.29.19-.08.09,0,.06,0,.19.8.25.85-.5,1-1.04-.08-.14-.22-.22-.43-.24Z"/>
      <path class="cls-1" d="M40.7,15.93c-.07.15-.02.21,0,.38.22.06.3,0,.57.05.08.11.11.26.1.47-.2.05-.45.05-.71.05.03.15-.05.17-.05.28.34.08.67.1,1,0-.05-.29-.01-.76-.14-1.14-.2-.08-.55-.02-.76-.09Z"/>
      <path class="cls-1" d="M43.17,15.98c-.08.1-.02.19.05.33.1.05.38.05.66.05.07.28-.04.73.14.9.22-.37-.06-.74.09-1.18-.36-.11-.65-.06-.95-.09Z"/>
      <path class="cls-1" d="M48.24,15.98c-.1.59-.13,1.59.76,1.28.25-.24.26-.95,0-1.18-.23-.04-.64-.1-.76-.09ZM48.47,16.88c-.42-.42.35-.76.52-.33.06.37-.26.42-.52.33Z"/>
      <path class="cls-1" d="M50.37,16.12c-.26-.1-.74.01-.9-.19-.12.08-.11.29-.05.43.23.06.37.1.62.05.18.18.1.65.14.85.42-.22.01-.81.19-1.14Z"/>
      <path class="cls-1" d="M45.77,16.17c-.11-.13-.33-.14-.52-.19,0,.11-.08.14-.05.28.26.17.46.2.43.47-.04.27-.58.13-.47.52.22.15.44-.05.52-.19.08.04.08.18.24.14-.05-.34-.21-.58-.14-1.04Z"/>
      <path class="cls-1" d="M46.72,16.12c-.17-.05-.29-.15-.52-.14-.06.06-.05.21-.05.33.07.12.31.07.38.19-.02.16.02.27.05.38-.13.1-.48,0-.47.24-.01.09.05.1.05.19.24-.01.56.06.66-.09-.03-.37-.15-.64-.09-1.09Z"/>
      <path class="cls-1" d="M43.26,16.6c-.1.06-.19.57,0,.62.11-.05.18-.58,0-.62Z"/>
      <path class="cls-1" d="M49.51,16.64c-.12.11-.18.5-.09.66.24.03.28-.59.09-.66Z"/>
      <path class="cls-1" d="M35.92,17.16c.87-.09-.35-.92,0,0h0Z"/>
      <path class="cls-1" d="M4.22,11.2c-.21-.05-.16.16-.33.14-.04-.15-.17-.21-.38-.19-.04.26.12.32.19.47-.05.25-.32.57-.09.71-.12-.42.57-1.17.85-.43-.04.01-.06.04-.05.09-.14.05-.29.09-.47.1.04.13-.07.12-.05.24.15.13.32.04.57.05.14-.46.16-.99-.24-1.18Z"/>
      <path class="cls-1" d="M5.36,11.24c-.02-.11.09-.1.05-.24-.41,0-.47.35-.62.62.19.1.3-.05.47-.09,0,.06.02.1.05.14.32-.09.51-.31.57-.66-.35-.1-.29.21-.52.24Z"/>
    </g>
  </g>
</svg>