<?xml version="1.0" encoding="UTF-8"?>
<svg id="Layer_2" xmlns="http://www.w3.org/2000/svg" viewBox="0 0 31.97 40.27">
  <defs>
    <style>
      .cls-1 {
        fill: #2c489e;
      }
    </style>
  </defs>
  <g id="Layer_1-2" data-name="Layer_1">
    <g>
      <path class="cls-1" d="M31.95,28.58c-.04-.42-.07-.84-.13-1.26-.18-1.32-.37-2.64-.57-3.96-.09-.59-.23-1.17-.32-1.76-.14-.93-.25-1.87-.4-2.8-.14-.92-.32-1.83-.48-2.75-.11-.63-.23-1.27-.33-1.9-.14-.91-.27-1.82-.41-2.73-.13-.84-.28-1.68-.41-2.51-.1-.66-.19-1.32-.3-1.97-.13-.78-.28-1.56-.4-2.34-.1-.61-.16-1.23-.25-1.84-.11-.75-.24-1.5-.34-2.25-.05-.39-.13-.5-.52-.5-2.02,0-4.04,0-6.06,0-.27,0-.36.08-.36.35.01.8-.01,1.59,0,2.39,0,.32-.11.4-.4.39-.26-.02-.53-.02-.79,0-.26.02-.34-.08-.34-.34.01-.81,0-1.62.01-2.42,0-.29-.09-.37-.37-.37-1.97.01-3.95.01-5.92,0-.3,0-.38.11-.37.39.01.85,0,1.71,0,2.56,0,.3-.1.39-.38.38-.3-.02-.6-.02-.9,0-.28.02-.35-.09-.34-.36.02-.88,0-1.75,0-2.63,0-.2-.02-.33-.27-.33C8.53,0,6.44,0,4.35.01c-.1,0-.26.13-.27.21-.1.53-.16,1.07-.24,1.6-.15.98-.31,1.95-.46,2.93-.15.94-.29,1.89-.43,2.83-.09.6-.15,1.21-.23,1.81-.15,1-.31,2-.46,3-.19,1.3-.37,2.6-.57,3.89-.15,1.01-.31,2.02-.46,3.03-.14.91-.26,1.82-.4,2.73-.16.97-.34,1.94-.5,2.92-.09.55-.12,1.1-.22,1.64-.17.93-.12,1.84.17,2.73.37,1.14,1.3,1.82,2.21,2.48.86.61,1.78,1.14,2.68,1.7,1.49.94,2.97,1.89,4.46,2.82,1.03.65,2.08,1.27,3.12,1.9.12.07.26.1.38.16.02-.14.08-.28.06-.42-.05-.71-.15-1.41-.18-2.12-.03-.83-.01-1.65,0-2.48.02-.65.03-.64-.58-.74-.27-.05-.39.07-.43.31-.04.26-.04.53-.11.78-.04.13-.16.3-.27.32-.21.05-.44.02-.65-.01-.32-.05-.53-.21-.48-.59.03-.24,0-.49.04-.72.04-.25-.04-.36-.28-.41-.31-.06-.64-.12-.94-.23-.23-.08-.38-.04-.5.15-.14.23-.26.46-.39.69-.12.2-.26.31-.5.13-.15-.11-.32-.19-.48-.28-.36-.21-.52-.26-.24-.75.1-.17.15-.36.24-.53.1-.18.08-.31-.09-.44-.24-.19-.48-.4-.68-.63-.2-.23-.37-.25-.58-.04-.18.18-.37.34-.55.52-.2.2-.36.2-.55-.02-.18-.21-.38-.4-.54-.63-.06-.08-.05-.24-.01-.34.04-.1.16-.16.24-.24q.55-.55.14-1.21s-.06-.1-.09-.14c-.38-.56-.4-.56-.98-.24-.02.01-.04.03-.06.04-.4.2-.7.11-.89-.29-.07-.15-.15-.31-.22-.47-.09-.19-.07-.32.14-.41.29-.13.59-.27.86-.44.09-.06.17-.23.17-.35-.02-.32-.07-.64-.14-.95-.06-.24-.24-.3-.48-.26-.25.04-.5.06-.75.03-.1-.01-.26-.17-.25-.26.02-1.04-.28-1.09.94-1.17.26-.02.38-.11.37-.38,0-.23.01-.46.06-.68.1-.51,0-.67-.53-.72-.63-.07-.72-.18-.58-.77.02-.07.02-.14.04-.2.15-.66.3-.75.93-.53.02,0,.04.02.06.03q.63.25.89-.35c.02-.05.06-.1.08-.15.25-.67.43-.56-.18-1.02-.07-.05-.15-.12-.19-.2-.08-.15-.23-.37-.18-.47.15-.29.38-.54.59-.79.02-.02.13.01.19.04.22.11.46.19.64.34.3.26.5.18.7-.1.1-.14.24-.2.37-.04.51.59,1.22.84,1.9,1.17.3.14.28.16.05.42-.52.58-1.06,1.15-1.51,1.79-.65.94-.74,2.07-.67,3.14.06.89.39,1.8.76,2.64.39.9,1.1,1.62,1.9,2.2.42.31.87.66,1.36.79.77.2,1.58.24,2.38.33.38.04.64-.24.62-.62-.02-.36-.05-.72-.07-1.08-.04-.82-.08-1.64-.12-2.47-.04-.77-.11-1.54-.12-2.3-.01-.74-.06-1.47-.29-2.18-.09-.28-.21-.58-.2-.87.04-.81-.38-1.48-.54-2.23-.07-.3-.25-.36-.51-.3-.26.06-.51.14-.77.16-1.08.09-2.04-.24-2.92-.85-.33-.23-.66-.46-1.02-.65-.55-.29-1.09-.63-1.74-.59-.46.02-.92.08-1.37.11-.09,0-.18-.03-.28-.05.04-.08.07-.18.14-.24.92-.88,2.06-1,3.25-.9.93.08,1.84.29,2.67.74.25.14.39.04.41-.24.01-.24.01-.48.05-.72.1-.73.18-1.45.32-2.17.1-.5.22-.52.65-.23.79.54,1.52,1.16,2.12,1.92.07.09.17.17.26.25.04,0,.09,0,.14,0,.03-.83.09-1.66.53-2.37.44-.7.87-1.42,1.64-1.85.03.13.05.24,0,.34-.3.74-.26,1.51-.25,2.28.01.57.06,1.17-.08,1.71-.33,1.34-1.1,2.36-2.43,2.89-.12.04-.26.24-.25.35.06.52.16,1.04.25,1.56.2,1.07.46,2.14.47,3.24,0,.24.1.48.15.72.13-.07.2-.15.22-.24.2-.72.37-1.44.59-2.15.26-.85.55-1.7.85-2.53.14-.39.33-.76.5-1.13.25-.57.43-1.2.78-1.71.84-1.25,1.73-2.47,2.98-3.37.06-.04.08-.15.12-.22-.07-.03-.13-.07-.2-.1-.49-.16-1.01-.34-1.1-.92-.08-.48-.08-.98-.01-1.46.09-.6.29-1.18.44-1.77.07-.26.13-.53.21-.85.09.11.15.15.17.2.32.69.62,1.38.95,2.07.06.13.18.23.27.34.05-.15.11-.29.15-.43.01-.04-.03-.09-.02-.13.01-.28.01-.57.05-.85.09-.68.4-1.29.73-1.88.18-.33.41-.64.61-.97.05.01.1.02.15.03.12.87.24,1.74.36,2.61.03.02.07.04.1.06.59-.73,1.14-1.46,1.94-2,.8-.55,1.67-.88,2.65-1.26-.06.27-.06.47-.13.64-.12.31-.29.6-.43.9-.4.94-.98,1.74-1.83,2.32-.11.08-.17.24-.25.36.13.05.27.14.39.13.79-.03,1.52.22,2.24.49.06.02.15.1.16.15,0,.05-.08.13-.14.16-.66.29-1.31.64-2,.84-.89.26-1.81.4-2.72.61-.11.02-.2.15-.31.22.1.06.19.16.3.17.35.06.7.09,1.06.13.57.06,1.15.1,1.72.16.09,0,.18.07.27.11-.05.08-.09.19-.16.24-.28.2-.55.43-.86.57-.85.36-1.71.68-2.57,1-.48.18-.93.02-1.18-.43-.13-.23-.23-.47-.34-.72-.1-.23-.21-.29-.41-.1-.36.35-.74.66-1.07,1.03-.68.77-1.34,1.55-1.98,2.35-.21.26-.37.59-.49.9-.37.97-.71,1.96-1.06,2.94-.14.39-.3.77-.42,1.17-.14.5-.26,1-.37,1.5-.2.92-.42,1.84-.57,2.77-.08.52-.06,1.06-.07,1.59,0,.89,0,1.77,0,2.66,0,.42.21.54.6.39.12-.05.24-.08.36-.12.91-.31,1.61-.97,2.38-1.51.15-.11.29-.23.4-.38.69-.92,1.17-1.93,1.3-3.09.09-.79-.14-1.47-.67-2.02-.31-.33-.71-.59-1.08-.86-.2-.15-.21-.3-.13-.51.34-.88.68-1.76,1.02-2.64.03-.07.1-.17.14-.17.07,0,.14.08.21.13.2.16.39.34.61.47.12.07.29.06.44.09.32.06.65.18.97.18,1.13.02,2.26,0,3.39,0,.18,0,.39.08.53.19.42.34.54.97.35,1.55-.03.09.02.22.04.33.09-.06.2-.11.28-.18.05-.05.07-.14.1-.22.24-.66.48-1.32.72-1.98.09-.24.21-.36.45-.13.06.06.21.09.26.05.06-.04.1-.17.1-.27,0-.18-.04-.37-.04-.55-.02-.63-.03-1.26-.06-1.89,0-.11-.13-.3-.18-.29-.25.04-.34-.04-.34-.29,0-.29.15-.34.4-.34.65,0,1.31-.03,1.96-.05.26,0,.52-.04.79-.05.3-.01.53.18.42.37-.29.5-.58.99-.88,1.48-.13.22-.34.33-.59.24-.06-.02-.14-.19-.12-.24.12-.26.29-.5.43-.75.05-.09.08-.19.12-.29-.12-.03-.23-.08-.35-.08-.25,0-.5-.01-.74.02-.09.01-.24.13-.25.21-.02.39,0,.78,0,1.17,0,.48,0,.96-.02,1.44-.02.34.12.58.41.62.26.03.53.05.78.12.15.05.35.17.4.31.15.41.26.83.35,1.26.16.7.29,1.41.43,2.12.06.31.15.62.21.93.12.63.24,1.26.35,1.9.08.48.21.98.18,1.46-.05.86-.63,1.5-1.1,2.26-.07-.11-.12-.15-.12-.2-.11-.65-.21-1.29-.32-1.94-.03-.17-.06-.34-.13-.49-.09-.2-.22-.15-.29.01-.06.13-.06.3-.13.43-.51,1.01-1.08,2-2.01,2.68-.79.58-1.62,1.13-2.5,1.58-.93.47-1.94.79-2.98.92-.63.08-1.27.28-1.9-.04-.45-.23-.65-.64-.48-1.11.14-.37.33-.73.5-1.09.15-.35.3-.69.43-1.05.02-.06-.07-.17-.1-.26-.08.05-.19.08-.25.14-.32.37-.59.79-.96,1.1-.5.42-1.08.74-1.62,1.11-.63.43-1.32.7-2.08.77-.24.02-.34.13-.33.38.01.73,0,1.47.01,2.2.03,1.14.07,2.28.11,3.42,0,.12.06.29.16.36.7.47,1.4.92,2.12,1.36.12.07.36.08.48.02.66-.37,1.31-.76,1.95-1.17,1.44-.91,2.87-1.82,4.3-2.74,1.48-.95,2.96-1.9,4.44-2.85.76-.49,1.52-.98,2.29-1.46.64-.39,1.27-.78,1.78-1.34.55-.6.89-1.25.8-2.09ZM14.48,10.22c-.61.77-1.19,1.58-1.75,2.38-.16.22-.26.27-.52.13-.67-.37-1.37-.69-2.05-1.05-.25-.13-.38,0-.46.19-.31.69-.61,1.39-.89,2.09-.18.45-.24.47-.71.41-.85-.1-1.71-.29-2.56-.04-.33.1-.49-.06-.67-.27-.49-.58-.7-1.28-.89-2-.29-1.06-.16-2.1.19-3.12.16-.48.45-.9.64-1.37.11-.28.16-.58.23-.88.02-.06.02-.13.05-.28.15.14.25.23.34.34.13.15.24.2.43.04.64-.51,1.39-.78,2.19-.97.5-.12.98-.24,1.5-.14.09.02.24-.16.32-.27.05-.06,0-.19.03-.27.07-.15.16-.29.25-.44.11.11.21.21.32.31.32.29.64.58.98.85.06.05.25-.02.35-.09.16-.12.29-.27.49-.47.03.31-.02.55.07.7.22.34.47.69.79.92.83.61,1.44,1.35,1.61,2.39.05.33-.03.6-.25.88ZM20.68,17.15c0,.31-.19.36-.42.38-.25.01-.31-.16-.3-.36,0-.22,0-.44.03-.66.04-.29-.1-.37-.36-.36-.33.01-.66-.02-.98.03-.11.02-.25.22-.28.36-.05.23-.02.48-.02.72,0,.2-.1.29-.3.29-.22,0-.44.02-.66-.02-.1-.02-.19-.15-.28-.23.09-.09.18-.24.28-.24.21-.02.42,0,.41-.28,0-.24.1-.55-.3-.63-.08-.02-.17-.25-.17-.38,0-.07.18-.19.28-.2.47-.02.94,0,1.42,0h0c.43,0,.85,0,1.28,0,.27,0,.37.1.37.37-.01.41-.01.83,0,1.25ZM22.17,16.73c-.03.12-.1.29-.18.32-.12.04-.31,0-.41-.08-.08-.06-.13-.27-.09-.36.12-.25.02-.36-.18-.5-.1-.07-.13-.27-.13-.41,0-.07.18-.12.28-.17.04-.02.09,0,.14,0,.55-.01.58.02.57.58,0,.07,0,.14,0,.21h0c0,.14.02.28,0,.41ZM24.63,17.54c-.27,0-.45-.07-.43-.39.01-.24,0-.48,0-.73,0-.22-.1-.29-.33-.26-.33.05-.66.07-.99.05-.09,0-.24-.18-.24-.28,0-.15-.04-.4.25-.41.23,0,.46,0,.69,0,0,0,0,0,0,0,.31-.02.62-.04.93-.07.29-.02.42.09.41.4,0,.41.03.83.04,1.24,0,.22-.03.42-.33.43Z"/>
      <path class="cls-1" d="M19.38,28.53c.23.06.47.19.7.17.9-.08,1.8-.18,2.69-.34.27-.05.6-.22.6-.59,0-.49-.04-.99-.09-1.48-.08-.69-.22-1.38-.29-2.07-.06-.59-.44-1.02-1.03-1.04-.44-.02-.87,0-1.31-.03-.33-.02-.44.06-.42.39.02.52.05,1.04.04,1.56,0,.37-.02.75-.12,1.09-.22.76-.49,1.5-.77,2.33Z"/>
      <path class="cls-1" d="M23.93,27.64c-.05.06-.06.15-.09.23.09.02.19.08.27.06.22-.04.46-.09.66-.19.67-.33,1.33-.66,1.97-1.05.32-.2.56-.51.81-.79.08-.08.1-.22.17-.38-.17-.6-.32-1.23-.55-1.82-.09-.24-.34-.47-.57-.58-.27-.12-.61-.09-.91-.15-.27-.05-.53-.14-.79-.21-.11-.03-.22-.07-.33-.11-.02.12-.06.24-.05.36.09.67.2,1.34.28,2.01.04.33.08.67.03.99-.1.64-.47,1.16-.9,1.63Z"/>
    </g>
  </g>
</svg>