<?xml version="1.0" encoding="UTF-8"?>
<svg id="Layer_2" xmlns="http://www.w3.org/2000/svg" viewBox="0 0 42.04 46.51">
  <defs>
    <style>
      .cls-1 {
        fill: #2c489e;
      }
    </style>
  </defs>
  <g id="Layer_1-2" data-name="Layer_1">
    <g>
      <path class="cls-1" d="M41.99,32.97c-.09-.41-.18-.82-.17-1.23.02-.53-.25-.84-.66-1.05-1.79-.86-3.59-1.7-5.39-2.57-.51-.24-.98-.58-1.51-.78-.93-.35-1.63-.96-2.3-1.66-.4-.41-.84-.79-1.28-1.2-.02-.08-.01-.26-.1-.36-.46-.49-.8-1.05-1.13-1.64-.38-.67-.29-1.69-.83-2.22-.22-.22-.17-.5-.8-.35-.26-.57-.28-1.19,0-1.77.5-1.05,1.2-1.99,1.79-3,.85-1.44,1.36-2.98,1.24-4.68-.03-.4.04-.8.03-1.2,0-.61.08-1.25-.07-1.83-.28-1.1-.64-2.2-1.09-3.24-.25-.59-.67-1.17-1.15-1.6-1.18-1.08-2.66-1.67-4.17-2.07-1.68-.44-3.41-.66-5.15-.45-1.25.15-2.47.47-3.72.63-.94.12-1.76.46-2.52.99-.89.63-1.37,1.47-1.19,2.6.06.35-.1,1.41-.21,1.75-.38,1.16-.72,2.34-1.12,3.5-.22.63-.28,1.24-.14,1.9.03.14-.07.32-.11.49.51.25.59.6.34,1.12-.37.8-.73,1.61-.98,2.44-.3.98-.21,1.36.79,1.77.06.03.13.06.28.13-.61.44-1.17.85-1.7,1.24.06.05.2.18.34.31-.03.04-.06.07-.09.11-.22-.02-.44-.04-.73-.07.55.87,1.48,1.02,2.2,1.37-.27.82-.53,1.56-.74,2.31-.25.89-.34,1.84-.7,2.68-.39.9-.38,1.84-.52,2.76-.02.13.11.35.24.42.51.28,1.04.51,1.59.77-1.33.38-2.61.75-3.9,1.12,0,0,0,0,0,0,0,0,0,0,0,0,0,0,0,.01-.01.02-.2.53-.4,1.05-.61,1.58-.11.26-.25.52-.34.79-.15.44-.26.9-.46,1.32.28-1.3.51-2.62,1.41-3.69,0,0,0-.01,0-.02-1.45.37-2.47,1.26-3.09,2.62,0,0,0,0,0,0,0,0,0,0,.01-.01,0,0,.01,0,.02,0,.45-.25.9-.51,1.36-.76.03.05.06.11.09.16-.4.37-.89.57-1.45.6,0,0-.02.01-.03.02-.15.2-.3.4-.45.6-.52.73-1.06,1.44-1.55,2.18-.43.64-.8,1.32-1.2,1.98-.39.63-.62,1.22-.04,1.91.41.49.69.91,1.03,1.22.68.63,1.38,1.24,2.38,1.75.07-.15.12-.27.17-.4-.1.45-.02.85.54,1.1.89.41,1.77.83,2.71,1.19.82.32,1.63.6,2.51.89.28-.87.63-1.96.89-2.77.05,0,.11,0,.16.02-.26.84-.52,1.68-.78,2.52.96.22,1.84.43,2.75.64.03-.25.06-.44.08-.63.03,0,.06,0,.1,0,0,.21-.13.56-.13.78,1.09.13,2.29.14,3.37.24,1,.1.97.07,1.2-.53.17-.44.45-.87.67-1.31.03,0,.06.01.08.02-.28.62-.69,1.37-.99,2.05,3.34.1,6.31-.79,9.2-1.37.02-.16.03-.31.05-.45.02,0,.04,0,.06,0,.02.12.22.41.24.53.28-.07.52-.13.75-.19.83-.22,1.68-.41,2.49-.66.57-.17.89-.58,1.43-.79.08-.03.14-.11.22-.12.38-.03.65-.11.59-.41.08.1.11.14.18.24.04-.12.06-.19.08-.25.03.04.23.26.27.32.86-.39,1.7-.74,2.51-1.13.55-.26.9-.71,1.4-1,.76-.44,1.59-.86,2.22-1.36.94-.76,1.78-1.56,2.58-2.37.39-.4.82-3.64.63-4.54ZM3.77,41.19c-.36-.27-.73-.55-1.09-.82.05-.02.1-.04.15-.06.38.27.75.54,1.12.81-.06.02-.12.05-.18.07ZM4.26,37.04c-.31-.59-.61-1.18-.91-1.77.54.46,1.06.95.91,1.77ZM10.49,16.9s-.11-.16-.23-.27c-.54-.52-.57-.98-.23-1.67.37-.76.67-1.56.98-2.36.21-.55.06-1.01-.31-1.48-.19-.24-.31-.65-.24-.94.14-.67.4-1.31.66-2.1v.41s.09.06.13.08c.12-.22.24-.45.36-.67,0-.05.01-.11.02-.16.11-.16.22-.31.34-.47-.04-.03-.07-.06-.1-.09-.15.08-.31.16-.46.24-.04-.03-.09-.06-.13-.09.13-.23.28-.45.4-.69.12-.23.18-.49.32-.7.22-.31.45-.78.74-.83,1.54-.28,3.1-.52,4.67-.63.88-.06,1.79.13,2.67.27.28.04.54.27.82.42v2.26c-.22-.02-.38-.03-.55-.05.05.19.1.38.15.57-.03.02-.06.03-.09.05-.06-.1-.11-.19-.19-.32-.2.17-.72.04-.55.68.04.15-.3.39-.49.64.02.18.04.47.08.84.07.01.24.04.42.07,0,.03,0,.06-.01.08-.14,0-.28-.02-.48-.02.13.35.24.66.36.98.04-.05.09-.1.25-.27-.1.37-.17.6-.23.84,1.34.99,1.49,3.2.67,4.6-.2.35-.36.75-.63,1.02-.87.88-1.84,1.6-3.11,1.85-1.09.22-1.88-.12-2.33-1.16-.28-.64-.5-1.3-.76-1.94-.24-.59-.77-.71-1.09-.37.24.09.62.11.78.31.11.14,0,.59-.15.78-.25.29-.54.42-1.02.16-.33-.18-.89.07-1.43.13ZM18.14,27.7v1.94s-.1,0-.15,0v-1.94s.1,0,.15,0ZM6.76,34.74c-.13.06-.29.21-.3.33-.04.91-.06,1.82-.07,2.73-.04,2.34-.06,3.76-.11,5.08,0,.25-.11.51-.12.76,0-1.05.04-2.1-.01-3.15-.05-.94.25-3.21,0-4.98,0,0,0,0,0,0-.02.03-.06.04,0,0,0,0,0,0,0,0,.07-.32.11-.66.21-.97.1-.29-.06-.39-.26-.51-.03-.02-.05-.11-.04-.15.07-.16.19-.31.23-.48.04-.17,0-.37.07-.56.09.56.18,1.11.25,1.61.49-.13.98-.25,1.46-.38.01.03.02.06.03.1-.45.18-.91.36-1.35.56ZM7.54,32.65s-.1-.05-.2-.11c.28-.42.54-.8.8-1.19.04.03.09.05.13.08-.24.4-.47.8-.73,1.22ZM8.67,34.11s-.05-.1-.07-.15c.77-.38,1.54-.76,2.31-1.15.02.04.04.08.06.13-.76.39-1.53.78-2.29,1.17ZM12.22,42.05c-.35-.85-.7-1.69-1.05-2.54.07-.02.13-.05.2-.07,0,.14.02.28.03.42.03,0,.06.01.09.02.12-.38.25-.77.37-1.15.07,0,.15,0,.22,0-.71,1.19-.32,2.24.39,3.24-.08.02-.17.05-.25.07ZM12.47,17.3c.27-.15.59-.32.92-.51.26.55.55,1.18.8,1.74-.56-.4-1.18-.84-1.73-1.23ZM15.11,42.98c-.2.23-.53.18-.77.1-.26-.09-.35-.26-.11-.42.25-.18.54-.21.86-.07.17.07.32.16.42.21-.09.04-.31.1-.39.19ZM16.02,42.94c1.04-.9.88-.61.9-1.19.01.12.03.24.04.37.12-.04.21-.07.31-.1.02.04.04.07.06.11-.44.27-.87.54-1.31.81ZM18.47,43.65c-.05,0-.11-.02-.16-.03.27-.48.53-.96.79-1.43.06.01.11.02.17.03-.27.48-.54.95-.8,1.43ZM20.25,40.91c-.29.82-.61.68-1,1.13.26-.51.52-.51.82-1.57.18-.05.28.13.18.44ZM21.04,38.07s-.08-.01-.11-.02c.18-.58.33-1.17.54-1.74.19-.53.45-1.03.79-1.51-.41,1.09-.81,2.18-1.22,3.27ZM16.97,39.37c.01.07.02.14.03.21-.03-.03-.07-.07-.1-.1.02-.04.05-.07.07-.11,0-.05-.02-.1-.03-.16-.03,0-.07-.02-.1-.02-.13.3-.27.6-.35.79-.55.38-.73,1.01-1.33,1.46-.15-1.13-.37-2.18-.41-3.24-.05-1.24.01-2.49.1-3.72.08-1.05.23-2.09.42-3.12.16-.89.21-.88,1.13-.99.16-.02.33-.02.36-.02-.59,2.85-.77,5.78-1.15,8.69.05,0,.1.01.14.02.11-.88.23-1.77.33-2.54.23.02.45.06.66.04.05,0,.14-.32.1-.35-.15-.13-.35-.2-.67-.37.15-.85.32-1.85.48-2.71.48-.06.88-.12,1.42-.19-.5-.2-.88-.36-1.29-.52.18-.69.38-1.46.56-2.16.97-.08,1.91-.21,2.86-.23.36,0,.72.24,1.09.31.62.13,1.25.21,1.92.33-2.21,2.81-4.34,5.67-6.23,8.71ZM21.21,25.77c.93-.45,1.43-.43,1.85.1.29.36.29.69-.02,1.09-.07-.3-.13-.59-.21-.88,0-.03-.11-.03-.14-.07-.45-.47-.88-.36-1.29.05-.02.02-.07.02-.13.04-.02-.13-.04-.23-.06-.33ZM23.3,28.77c-.32,0-.64,0-.97,0-.06,0-.17-.1-.17-.15,0-.07.1-.21.14-.2.34.04.68.11,1.02.17,0,.06-.02.13-.02.19ZM26.08,42.41h-.07v-.99s.05,0,.07.01v.98ZM26.75,24.88c-.31.67-.65,1.33-1.05,1.95-.3.47-.6.88-.06,1.36.02.02,0,.09,0,.14,0,0,0,0,0,0,0,0,.01.02.02.02.11.07.24.12.3.21.31.45.6.91.89,1.36-.05.03-.1.06-.15.09-.35-.55-.7-1.11-1.05-1.66,0,0-.02,0-.03-.02,0,0,0-.01,0-.02-.13-.09-.25-.17-.42-.28-.29.58-.57,1.16-.88,1.77-.32-1.71-.62-3.35-.95-5.08-.45.08-.85.16-1.25.24-.02-.03-.04-.06-.05-.09.38-.22.77-.44,1.14-.67.08-.05.12-.15.18-.22-.5.25-1,.49-1.54.76.01-.11,0-.2.03-.28.2-.56.47-1.1.59-1.68.12-.53.12-1.1.09-1.65-.04-.7-.17-1.39-.24-2.09-.04-.49.08-1.04-.09-1.47-.4-.97.16-1.82.17-2.72.01-1.12,1.12-2.74,2.24-2.97-.22.25-.43.43-.56.67-.11.21-.13.47-.11.72.36-1.09,1.29-1.67,2.27-1.43.64.16,1.09.69,1.16,1.35.15,1.5-.66,2.61-1.37,3.67.27.87,1.24,1.21,1.37,2.17.15,1.09-.33,1.9-1.06,2.6-.57.54-1.22,1-1.82,1.51-.1.09-.17.21-.25.32,1.34-.72,2.45-1.68,3.15-3.05.03-.06.09-.11.28-.18.05.32.16.64.14.95-.11,1.3-.57,2.51-1.11,3.69ZM33.2,30.38c-.13.37-.2.76-.31,1.13-.02.07-.1.12-.26.29.42-1.79-.22-3.43-.05-5.25.13,1.22.23,2.27.35,3.39.35,0,.39.09.26.44ZM36.71,37.99c.08-.27.61-.47.97-.36-.32.12-.63.23-.97.36ZM38.8,31.07s0-.1-.01-.14c.73-.07,1.46-.14,2.18-.21,0,.04,0,.08.01.12-.73.08-1.45.15-2.18.23Z"/>
      <path class="cls-1" d="M13.21,7.87c-.57-.05-1.08-.09-1.59-.13,0,.05-.02.11-.02.16.52,0,1.05.38,1.61-.03Z"/>
      <path class="cls-1" d="M14,13.83c-.12-.1-.24-.21-.47-.41.31.04.53.07.75.09q.11-.39.48-.31,1.02.23,1.41-.56c-.21-.16-.42-.32-.62-.48.02-.05.04-.11.05-.16.62.15,1.24.31,1.86.46.03-.03.07-.06.1-.1-.31-.27-.57-.64-.92-.8-.85-.39-1.74-.7-2.62-1-.83-.28-1.68-.25-2.51.01-.3.09-.65.25-.35.6.41.47.43,1.09.86,1.59.63.75,1.06,1.16,1.98,1.07ZM14.81,12.19c-.56-.09-1.12-.18-1.68-.27.6-.22,1.16-.1,1.68.27ZM13.35,11.26c-.56.11-.67.35-.8.64-.06-.2-.13-.45-.23-.8.38.06.72.11,1.04.16Z"/>
      <path class="cls-1" d="M12.26,10.14c.48-.19.96-.37,1.56-.6-.73-.21-1.13.24-1.56.6Z"/>
      <path class="cls-1" d="M14.67,14.28c-.07-.17-.14-.34-.22-.53-.15.03-.29.06-.44.09-.13.09-.26.19-.46.33.44.04.78.07,1.11.11Z"/>
      <path class="cls-1" d="M14.01,13.84s0,0,0,0h0s-.01,0-.02,0c0,0,0,0,0,0h0Z"/>
      <path class="cls-1" d="M24.85,15.84c.58-.11.8-.43.55-.97-.08-.18-.21-.34-.32-.51-.18-.27-.19-.5.12-.67.14.19.27.36.46.61.11-.56-.3-1.15.39-1.42.65.53.41,1.21.36,1.81-.12,1.32-1.21,1.81-2.17,2.42.27-.04.55-.06.77-.2,1.2-.74,1.88-1.82,1.87-3.25,0-.29-.24-.7-.49-.84-.33-.18-.81-.2-1.08.22-.32.49-.61,1.01-.87,1.45-.05-.25-.12-.59-.19-.94-.05.37-.17.8-.02,1.09.3.59.06.85-.4,1.13-.09.05-.06.31-.09.47.16-.01.34,0,.49-.05.22-.09.4-.31.63-.35Z"/>
      <path class="cls-1" d="M25.51,17.54c-.61.23-1.08.43-1.56.57-.21.06-.45,0-.68,0,.02-.26.01-.53.06-.78.07-.43.18-.86.27-1.29-.05,0-.1,0-.15,0-.16.55-.34,1.09-.47,1.65-.1.45.31.84.76.72.4-.11.8-.27,1.18-.44.18-.08.32-.23.58-.43Z"/>
    </g>
  </g>
</svg>