<?xml version="1.0" encoding="UTF-8"?>
<svg id="Layer_2" xmlns="http://www.w3.org/2000/svg" viewBox="0 0 51.53 14.14">
  <defs>
    <style>
      .cls-1 {
        fill: #2c489e;
      }
    </style>
  </defs>
  <g id="Layer_1-2" data-name="Layer_1">
    <g>
      <path class="cls-1" d="M10.41,1.23c0-.13,0-.27-.02-.4-.02-.09-.07-.2-.13-.26-.06-.05-.17-.06-.25-.07-.08-.01-.17,0-.25,0-.18-.01-.36-.02-.54-.04-.18-.02-.35-.04-.53-.05-.06,0-.12,0-.18,0-.24-.02-.48-.03-.71-.05-.1,0-.21-.02-.31-.03-.07,0-.15,0-.22,0-.13-.01-.26-.03-.39-.04-.06,0-.12,0-.19,0-.16,0-.33-.01-.49-.02-.13,0-.27-.03-.4-.04-.09,0-.17,0-.26,0-.12,0-.24.01-.35,0-.11,0-.21-.04-.32-.05-.31-.04-.62-.07-.93-.09-.21-.02-.42,0-.63-.02-.2,0-.41-.02-.61-.03-.13-.01-.26-.06-.4,0-.05.02-.1.03-.15.04-.07.01-.1.05-.11.13-.01.1-.02.22-.06.31-.06.14-.13.27-.12.43,0,.02-.02.04-.02.06-.02.04-.03.08-.04.12-.03.11-.06.21-.09.32,0,.02-.01.04-.01.06,0,.07-.01.14-.03.2-.02.11-.09.2-.06.32,0,.02-.02.05-.03.07-.03.08-.07.16-.09.24-.03.09-.04.18-.07.27-.04.09-.09.17-.07.28,0,.01,0,.02,0,.04-.03.08-.06.16-.09.24-.04.12.05.23.17.23.07,0,.13,0,.2,0,.2,0,.41,0,.61-.01.15,0,.3-.02.46,0,.04,0,.09.05.13.07-.03.04-.04.09-.08.12-.12.09-.25.18-.38.26-.19.12-.23.2-.17.42,0,.03,0,.06,0,.08,0,.11,0,.21.01.32.02.23.04.45.06.68.01.13-.04.26.04.38,0,0,0,.02,0,.04,0,.35,0,.69.01,1.04,0,.08,0,.16,0,.23.01.15.02.31.04.46,0,.06.02.13.03.19.01.14.02.28.03.42,0,.11-.02.14-.14.12-.02,0-.03,0-.05,0-.24,0-.47,0-.71,0-.13,0-.26,0-.4-.02-.13-.01-.21.02-.24.15-.04.13-.06.27-.09.41-.06.2-.13.4-.19.6-.01.04-.01.08-.02.12,0,.04-.01.08-.03.12-.03.08-.06.16-.09.25-.03.08-.05.17-.08.25-.04.11-.09.21-.12.32-.03.13,0,.26-.09.38-.08.13-.11.3-.15.45-.04.12.02.2.14.21.03,0,.07,0,.1,0,.22,0,.44,0,.67.01.18,0,.35,0,.53,0,.32,0,.65,0,.97,0,.47,0,.95,0,1.42,0,.19,0,.39,0,.58.01.08,0,.16,0,.24,0,.15-.03.15-.18.18-.28.09-.27.15-.55.23-.83.06-.2.12-.4.18-.61.04-.13.09-.25.13-.38.04-.14.09-.28.12-.42.02-.1.04-.21.05-.31,0-.07-.03-.14-.04-.21,0-.03,0-.07,0-.1-.08-.26-.07-.53-.08-.79,0-.14,0-.28,0-.42-.02-.24-.04-.48-.06-.72-.02-.22.02-.45-.03-.67-.02-.08,0-.17,0-.26,0-.15-.05-.3-.03-.44.04-.31,0-.62,0-.93,0-.2-.03-.39-.05-.59-.01-.11.01-.14.12-.14.21,0,.41,0,.62-.01.07,0,.14,0,.22,0,.18,0,.36-.01.55-.01.07,0,.15.02.15.11,0,.21,0,.42.05.63.01.05,0,.11,0,.17,0,.04-.03.07-.03.11.01.16.04.32.05.48,0,.08,0,.16,0,.24,0,.1-.01.21-.01.31,0,.16.02.32.02.47,0,.11-.02.22,0,.33.02.18.05.37,0,.55,0,.02,0,.06,0,.08,0,.16.02.32.03.48,0,.13,0,.27,0,.4,0,.14,0,.29,0,.43,0,.11,0,.23,0,.34,0,.08,0,.17,0,.25.02.11-.03.23.05.34.01.02,0,.06,0,.09,0,.1,0,.2,0,.31,0,.17.02.34.02.5,0,.08-.05.15-.05.23,0,.09.04.18.05.26,0,.04,0,.07,0,.11,0,.07-.03.15-.02.22.01.16.05.33.06.49,0,.07.04.12.1.14.07.02.15.04.23.04.27,0,.55,0,.82,0h1.77c.16,0,.19-.03.19-.16,0-.13,0-.26,0-.39,0-.39,0-.78,0-1.18,0-.22.01-.44.02-.66,0-.08,0-.17,0-.25,0-.19,0-.37,0-.56,0-.09.02-.18,0-.26-.04-.2-.02-.4.02-.59,0-.03,0-.07,0-.1,0-.13,0-.26,0-.39,0-.18-.01-.37,0-.55,0-.23-.04-.46.04-.68,0-.01,0-.02,0-.04-.01-.13-.03-.25-.03-.38,0-.12.03-.23.04-.35,0-.03.02-.07.01-.1,0-.12-.02-.24-.02-.37,0-.1.02-.2.03-.3,0-.19.01-.38.01-.57,0-.12,0-.24,0-.37,0-.21,0-.41,0-.62,0-.07,0-.14,0-.21,0-.05,0-.09,0-.14,0-.1,0-.2,0-.3,0-.1,0-.2,0-.3,0-.14.02-.27.02-.41Z"/>
      <path class="cls-1" d="M25.9,9.3c-.08-.11-.15-.22-.24-.32-.06-.07-.14-.13-.2-.2-.17-.2-.32-.4-.49-.61-.1-.12-.2-.24-.3-.37-.07-.09-.13-.19-.2-.28,0,0-.02-.01-.02-.02-.04-.03-.07-.06-.1-.1-.1-.12-.19-.24-.28-.36-.1-.13-.2-.26-.29-.4-.06-.09,0-.21.11-.25.04-.01.08-.02.11-.05.14-.11.27-.23.41-.35.01-.01.03-.02.05-.03.15-.08.29-.16.45-.23.16-.07.23-.2.24-.36.01-.18.02-.35.03-.53,0-.12,0-.24.02-.35.02-.23.05-.45.08-.67.01-.1-.01-.21.02-.31.06-.18.05-.36.05-.55,0-.09-.01-.18.06-.26,0,0,0-.03,0-.04-.04-.12-.04-.24,0-.36.02-.07.03-.14.04-.21.02-.28.03-.57.04-.85,0-.01,0-.02,0-.04.02-.08.03-.16.05-.24,0-.14-.03-.25-.17-.29-.12-.04-.26-.05-.39-.05-.14,0-.29,0-.44-.02-.26-.05-.53-.07-.8-.1-.12-.02-.25-.03-.37-.05-.08,0-.16-.01-.23-.02-.06,0-.13,0-.19-.01-.08,0-.16-.02-.24-.03-.14-.02-.28-.04-.42-.05-.14,0-.28,0-.41.01-.05,0-.13.06-.15.11-.08.27-.13.55-.2.83-.02.08-.05.16-.07.24-.03.1-.06.2-.09.31-.03.12-.06.25-.1.37-.03.1-.03.22-.08.31-.06.11-.07.23-.09.35,0,.05-.11.21-.15.2-.05-.02-.09-.07-.14-.11,0,0,0-.02-.01-.02-.09-.12-.17-.24-.26-.36-.07-.1-.15-.19-.2-.29-.07-.12-.13-.23-.23-.33-.09-.09-.15-.19-.22-.29-.07-.11-.14-.23-.21-.33-.14-.19-.29-.38-.43-.57-.17-.22-.34-.43-.5-.65-.06-.08-.13-.11-.22-.08-.24.09-.42.27-.62.43,0,0,0,.01-.01.02-.11.08-.22.17-.34.25-.05.04-.11.07-.16.11-.07.06-.14.12-.21.17-.04.03-.09.06-.13.09-.13.1-.26.2-.39.29-.17.13-.34.26-.51.39-.11.09-.11.18-.02.29.11.14.22.29.33.43.02.02.04.04.06.06.1.11.21.22.31.34.07.08.12.17.19.26.17.22.35.44.52.66.04.05.09.09.13.15.13.17.18.24-.03.35-.11.06-.23.11-.29.23-.01.03-.05.04-.08.05-.02.01-.05.02-.07.04-.09.07-.18.15-.27.22-.11.09-.26.13-.34.26-.04.07-.1.13-.11.21-.02.16,0,.32,0,.49,0,.14,0,.27,0,.41,0,.12.02.24.02.35,0,.18-.01.36-.01.54,0,.07.02.15.01.22-.02.13.08.26-.01.38-.02.02,0,.06,0,.09.01.13.03.25.03.38,0,.19-.02.37-.03.56,0,.15-.01.29-.02.44,0,.24.04.49,0,.73-.03.19.02.39,0,.58-.03.25-.02.5-.03.76,0,.02,0,.04.02.05.11.09.25.12.39.12.13,0,.26-.02.39-.03.04,0,.08,0,.12.02.06.01.13.03.19.03.14,0,.28-.02.42-.02.19,0,.37.02.56.03.17,0,.34,0,.5,0,.03,0,.06,0,.09,0,.3.01.61.03.91.04.19,0,.39-.01.58-.02.17,0,.23-.04.29-.21.1-.28.17-.58.26-.86.09-.27.18-.53.27-.8.03-.09.09-.17.12-.26.03-.07.05-.14.07-.21.05-.11.1-.11.18-.02.03.04.07.08.11.12.11.12.22.24.33.36,0,0,0,0,0,0,0,.08.06.11.11.15.02.02.04.05.06.07.05.06.09.12.14.18.1.11.2.22.29.34.11.13.21.27.32.4.1.12.2.25.29.37,0,.01.01.03.02.04.07.16.18.19.32.09.01,0,.02-.02.04-.03.12-.07.2-.19.33-.26.12-.07.22-.19.32-.29.02-.02.05-.04.07-.06.15-.12.29-.24.44-.36.05-.04.1-.08.15-.12.1-.07.2-.13.29-.21.15-.14.29-.3.44-.45.05-.06.07-.12.02-.19ZM20.98,8.09c-.04.09-.1.1-.19.08-.07-.02-.15,0-.23,0-.09,0-.19,0-.28,0v.02c-.26,0-.52,0-.78,0-.11,0-.18-.07-.18-.2,0-.07.01-.15,0-.22-.04-.15.02-.28.03-.41.02-.17.03-.34.04-.5,0-.16,0-.31,0-.47,0-.04.06-.08.09-.12.03.02.06.04.08.07.12.13.23.26.35.39.03.04.06.09.09.13,0,0,0,.03.02.03.2.17.28.44.51.59.03.02.04.06.06.09.1.12.21.24.31.36.04.04.12.05.08.14ZM22.67,3.73s-.01.03,0,.05c.03.28-.09.53-.09.81,0,.1-.06.21-.09.31-.02,0-.03,0-.05.01-.07-.1-.14-.2-.22-.29-.12-.14-.25-.27-.37-.41-.07-.08-.12-.17-.19-.25-.03-.04-.07-.07-.11-.11-.04-.05-.09-.11-.12-.17-.03-.06.03-.08.08-.08.15,0,.31,0,.46,0,.19,0,.38-.01.57-.01.14,0,.17.04.13.17Z"/>
      <path class="cls-1" d="M35.16,9.05c.04-.11.08-.23.13-.34.07-.16.15-.32.22-.48.01-.03,0-.08,0-.12-.02-.06-.05-.12-.05-.19,0-.15-.09-.26-.13-.38-.05-.13-.09-.27-.14-.41-.01-.04,0-.08-.03-.11-.1-.18-.11-.39-.21-.58-.09-.16-.14-.35-.21-.52-.03-.07-.06-.13-.08-.2-.04-.12-.06-.25-.1-.37-.08-.23-.17-.46-.26-.69-.03-.07-.06-.14-.08-.21-.02-.06-.02-.12-.04-.18-.05-.13-.1-.25-.15-.38-.07-.21-.15-.41-.22-.62-.01-.04-.01-.07-.02-.11-.05-.17-.11-.34-.16-.5-.02-.06-.05-.11-.08-.16-.09-.18-.11-.4-.24-.57,0-.01-.02-.03-.02-.04,0-.14-.09-.25-.16-.37-.04-.07-.09-.15-.14-.21-.08-.09-.18-.18-.27-.26-.08-.07-.16-.16-.25-.21-.18-.1-.37-.17-.56-.25-.02-.01-.06-.01-.08-.01-.18,0-.35,0-.53-.02-.16-.01-.32,0-.47.05-.05.02-.1.04-.15.05-.15,0-.28.07-.41.15-.14.09-.27.19-.42.27-.24.14-.47.3-.64.52-.01.02-.03.02-.07.05,0-.07,0-.11.01-.15.07-.19.15-.38.23-.57.05-.12,0-.24-.12-.27-.14-.03-.29-.07-.42-.05-.14.02-.27-.02-.41-.03-.12,0-.24-.03-.36-.04-.21-.02-.42-.05-.63-.07-.1-.01-.21-.04-.31-.05-.11-.01-.23,0-.34-.03-.22-.06-.33.04-.38.23-.02.08-.03.17-.05.25-.02.11-.02.23-.08.33-.05.1-.06.2-.08.3-.01.07-.05.14-.07.21,0,.03,0,.07-.01.1-.02.08-.05.17-.07.26,0,.02-.02.03-.02.05-.03.24-.08.46-.2.67,0,.02,0,.04,0,.06-.02.12,0,.24-.05.36-.06.13-.06.24.15.26.17.02.35-.01.53,0,.21,0,.42.03.64-.01.15-.03.32.02.49.04.04,0,.07.03.11.04-.02.03-.04.07-.06.1-.02.03-.05.06-.07.1-.06.11-.11.22-.17.33-.06.14-.13.27-.17.41-.04.14-.05.29-.07.44-.02.12.01.25-.09.36,0,0,0,.01,0,.02-.02.14,0,.29-.11.4,0,0,0,.02,0,.03.02.14.01.27-.07.39,0,.01,0,.02-.01.04-.03.14,0,.29-.1.42,0,0,0,.02,0,.04-.02.13,0,.26-.1.37-.01.02,0,.05-.01.08-.01.09-.02.18-.03.27-.03.15-.07.29-.1.44-.07.29-.14.58-.21.87-.04.17-.11.33-.09.5,0,.03,0,.07-.02.1-.07.12-.1.24-.09.38,0,.05-.03.09-.04.14-.04.15-.08.3-.11.45-.01.05-.02.11-.03.16-.02.11-.05.22-.07.33,0,.02,0,.04-.01.05-.08.07-.06.17-.07.26-.01.07-.02.15-.03.22-.03.17.05.27.22.26.09,0,.18,0,.27,0,.21,0,.41.02.62.02.24,0,.49,0,.73-.02.1,0,.19-.01.29-.01.13,0,.27.03.4.01.08,0,.16-.06.24-.1.02,0,.04-.04.04-.07.04-.18.01-.36.09-.54.06-.15.08-.33.1-.49.02-.17.05-.33.11-.49.02-.06.04-.13.05-.19.02-.13.03-.26.06-.39.02-.07.05-.14.07-.21.03-.11.05-.23.08-.34.05-.2.09-.4.14-.6.02-.09.03-.19.05-.29,0-.05.03-.1.04-.15.02-.05.04-.1.05-.16.03-.18.12-.35.11-.54,0-.02.01-.03.02-.05.05-.16.12-.31.14-.47.04-.24.08-.48.18-.7,0-.02,0-.04,0-.07,0-.04,0-.07,0-.11.06-.23.14-.47.18-.71.04-.2.17-.35.24-.53.06-.15.19-.25.3-.37.12-.14.27-.2.44-.14.12.04.25.1.29.24.04.14.09.29.12.43.07.35.22.68.3,1.04.06.27.15.53.23.8.05.18.12.36.15.54.03.14.07.26.11.39.07.19.1.4.15.6.02.08.03.17.07.24.04.07.03.11,0,.16-.03.06-.07.08-.13.08-.15,0-.3.02-.46.01-.12,0-.25.06-.38-.01-.01,0-.03,0-.05,0-.08.01-.17.03-.25.03-.09,0-.18.02-.26,0-.18-.04-.35-.09-.53-.03-.02,0-.04,0-.06,0-.08,0-.15-.02-.23-.03-.16,0-.19.04-.22.19-.03.18-.06.36-.09.54,0,.02-.01.04-.01.05-.02.11-.05.21-.07.32,0,.03,0,.07-.02.09-.1.11-.08.25-.12.38-.03.11-.03.23-.06.34-.05.17-.11.33-.16.5-.06.19-.12.38-.18.58-.04.15,0,.27.19.24.2-.03.39-.02.59,0,.1.01.21-.03.32-.04.25,0,.49.03.74,0,.2-.02.41,0,.61,0,.17,0,.34,0,.51,0,.11,0,.23,0,.34,0,.15,0,.29,0,.44,0,.13,0,.26,0,.39,0,.13,0,.26.02.39.02.16,0,.31-.02.47-.04.04,0,.08-.04.12-.06.1-.06.09-.18.12-.27.05-.17.11-.34.17-.51.07-.18.14-.35.21-.53.06-.15.12-.29.18-.44.03-.08.04-.16.07-.23.05-.14.11-.28.16-.43Z"/>
      <path class="cls-1" d="M51.47.96c-.07-.05-.16-.08-.25-.1-.12-.02-.24,0-.36-.01-.07,0-.14-.03-.21-.03-.13-.01-.26.03-.38-.05-.02-.01-.05,0-.07,0-.11-.01-.22-.02-.32-.03-.09,0-.18-.02-.26-.03-.09,0-.19,0-.28-.02-.19-.03-.38-.07-.56-.1-.18-.03-.38.02-.55-.07-.04-.02-.09,0-.14,0-.05,0-.11,0-.16.02-.09.03-.08.13-.13.19-.07.09-.11.19-.15.29-.05.14-.12.27-.19.41-.04.08-.07.15-.11.22-.02.05-.05.1-.07.14-.01.03-.01.06-.03.09-.07.11-.14.23-.21.34,0,.01,0,.02-.01.03-.05.12-.11.24-.16.36-.03.06-.06.12-.09.17-.02.03-.06.04-.09.05-.01-.03-.03-.07-.04-.1,0-.01,0-.03,0-.05-.07-.31-.14-.62-.2-.93-.01-.06,0-.14-.02-.2-.07-.13-.08-.27-.08-.42,0-.08,0-.19-.11-.22-.1-.03-.2-.06-.3-.07-.15-.01-.3,0-.44-.06,0,0-.02,0-.04,0-.22-.03-.44-.04-.65-.09-.19-.04-.37-.14-.58-.14-.17,0-.33,0-.5,0-.07,0-.09.05-.11.11-.02.09-.05.17-.08.26,0,.02,0,.04-.01.06-.04.17-.06.35-.14.5-.06.12-.08.24-.12.36-.04.12-.06.25-.13.35-.06.09-.07.18-.09.27,0,.03-.01.07-.03.1-.08.21-.15.43-.23.64,0,.02-.02.03-.03.05-.08.1-.08.23-.06.34,0,.05.07.11.12.12.13.03.26.06.4,0,.08-.04.19-.05.28-.03.2.04.39.06.58,0,.02,0,.04,0,.06,0,.09,0,.17.02.26.03.03,0,.06.02.09.03-.01.03-.02.07-.04.09-.05.04-.1.08-.16.12-.08.06-.17.12-.25.19-.09.08-.18.17-.27.26-.02.02-.03.07-.02.11.03.11.06.22.1.33.02.05.06.1.08.15.04.09.06.18.1.27.1.23.2.46.31.69.04.09.09.17.11.27.07.25.12.5.29.7.01.02.02.04.03.06.09.25.17.51.26.76.03.09.08.17.12.26.03.09.05.19.08.28.03.1,0,.16-.09.16-.21.01-.43.02-.65.03-.07,0-.15.02-.22.03-.06.01-.13.03-.19.04-.05,0-.1,0-.15.01-.18.03-.36.06-.53.09,0,0,0-.01,0-.02-.09,0-.18,0-.27.02-.03,0-.06.02-.08.04-.15.12-.16.32-.2.48-.05.18-.16.35-.13.55,0,.01,0,.02-.01.04-.06.18-.11.36-.17.54-.02.07-.03.15-.05.22-.03.1-.08.2-.09.31,0,.07-.03.13-.06.19-.02.03-.02.06-.03.1-.05.16-.09.33-.15.49-.02.06-.05.09-.03.17.02.09.08.08.13.1.07.04.12-.01.18-.03.2-.04.4-.07.61-.11.09-.02.18-.04.27-.05.06-.01.12-.02.19-.03.15-.01.31-.02.46-.04.14-.02.27-.04.41-.06.03,0,.06,0,.08-.01.28-.05.56-.11.85-.17.17-.03.33-.09.5-.1.05,0,.1-.02.14-.03.04-.01.09-.04.13-.05.11,0,.22,0,.33-.01.11-.01.22-.05.32-.07.06-.01.12-.03.18-.04.06-.01.12-.04.19-.04.07,0,.16.03.2,0,.1-.07.22-.07.33-.09.09-.02.18-.05.27-.08.05-.02.1-.04.13-.08.08-.11.14-.23.22-.35.14-.2.29-.4.43-.6.17-.26.33-.52.5-.78.08-.12.16-.23.25-.35.12-.17.25-.35.37-.53.03-.04.05-.1.09-.13.11-.07.15-.18.21-.28.05-.08.09-.16.14-.24.11-.18.25-.35.27-.58.03-.23.1-.44.14-.67.05-.3.09-.59.14-.89.02-.1.04-.21.06-.31.01-.11.02-.21.03-.32,0-.07.05-.14.05-.2,0-.34.08-.67.14-1,.03-.13.06-.26.08-.4.02-.09.05-.19.06-.28.01-.09,0-.17.02-.26.04-.22.09-.45.13-.67.02-.11.04-.21.06-.32.03-.14.06-.29.08-.43.01-.08.06-.18-.03-.24ZM48.17,4.12s-.03.14-.03.22c0,.09,0,.18,0,.27,0,.02-.02.06-.04.07-.04.04-.05.06-.01.11.01.01,0,.04,0,.06,0,.05-.02.1-.03.14-.04.17-.07.35-.11.52-.02.11-.03.23-.05.34,0,.06-.02.12-.04.17-.03.13-.06.25-.08.38-.02.09-.02.18-.04.26,0,.03-.02.05-.02.08,0,.04,0,.08-.02.12,0,.03-.02.07-.04.08-.03,0-.08-.01-.09-.03-.05-.19-.09-.39-.14-.58,0,0,0,0,0,0,0-.02,0-.06-.02-.07-.09-.09-.08-.21-.1-.31-.03-.13-.02-.27-.05-.4-.04-.19-.09-.37-.13-.56-.04-.18-.08-.36-.12-.55,0-.04-.02-.07-.03-.11-.03-.14-.06-.28-.08-.42,0-.06.06-.09.13-.09.1,0,.2,0,.29-.02.11,0,.21,0,.32-.02.07,0,.14-.03.21-.04.1-.01.2-.02.3-.02.02,0,.05.03.05.06.01.11.06.22-.04.33Z"/>
      <path class="cls-1" d="M42.21,8.77s0-.09-.03-.11c-.1-.07-.18-.13-.23-.26-.03-.09-.12-.16-.18-.24-.13-.16-.26-.31-.38-.47-.1-.13-.2-.26-.31-.38-.17-.19-.18-.26,0-.44,0,0,0,0,.01-.01.15-.2.31-.39.46-.59.05-.07.11-.12.17-.19.05-.06.08-.13.13-.17.23-.18.27-.44.31-.69.03-.15.02-.31.02-.46,0-.09,0-.18.03-.26.07-.22.08-.45.1-.68,0-.04.01-.07.02-.11.01-.05.03-.1.03-.15.02-.2.04-.41.06-.61.02-.2.05-.4.08-.6.02-.14.02-.28.04-.42.01-.1.03-.2.05-.29.03-.14.05-.29.08-.43.04-.14-.06-.26-.2-.25-.09,0-.19.03-.26,0-.11-.06-.22-.05-.34-.07-.16-.03-.32-.06-.48-.08-.21-.03-.42-.03-.63-.06-.2-.03-.4-.08-.61-.12-.11-.02-.22-.03-.32-.07-.26-.11-.39.09-.43.27,0,.04,0,.08-.02.11-.05.17-.11.35-.16.52-.04.14-.08.27-.12.41-.01.04-.02.1-.04.13-.1.12-.1.26-.15.4-.03.08-.02.19-.07.24-.12.11-.09.26-.16.38-.07.12-.1.27-.16.4-.04.09.01.26.09.26.08,0,.16,0,.24,0,.06,0,.12-.01.18-.01.12,0,.25.01.38.01.08,0,.15-.02.23-.02.13,0,.18.1.1.22-.01.02-.03.05-.03.07-.01.09-.02.19-.03.28,0,.02-.01.04-.02.05-.04.04-.08.08-.05.15,0,.01,0,.04-.01.05-.04.1-.07.2-.11.3,0,.02,0,.04,0,.05,0,.03-.02.09-.03.09-.04,0-.09,0-.12-.03-.08-.09-.15-.2-.22-.3-.02-.03-.04-.06-.06-.09-.12-.15-.24-.3-.36-.45-.02-.03-.04-.06-.06-.09-.1-.15-.2-.29-.3-.44-.08-.11-.15-.21-.24-.31-.1-.11-.13-.22-.04-.35.02-.02.01-.06.02-.09.04-.16.12-.31.11-.48,0,0,0-.01,0-.02.06-.16.11-.33.17-.49.05-.14.1-.29.16-.43.08-.19,0-.42-.24-.45-.08,0-.17.01-.25.02-.09,0-.18,0-.27,0-.06,0-.12-.03-.18-.04-.16-.03-.32-.06-.48-.08-.16-.03-.33-.05-.49-.07-.16-.02-.33-.03-.49-.06-.15-.02-.29-.06-.44-.09-.07-.01-.14,0-.2-.02-.17-.06-.29.02-.29.2,0,.02,0,.05-.01.07-.07.15-.14.3-.18.47-.02.09-.06.18-.09.27-.04.13-.08.26-.13.39-.04.11-.08.21-.11.32-.05.17-.07.35-.12.52-.06.18-.14.36-.22.54-.06.14,0,.25.14.27.16.02.32.02.49.02.34,0,.67,0,1.01,0,.1,0,.2,0,.3,0,.03,0,.06.02.08.04,0,0,0,.04,0,.05-.1.11-.2.21-.31.31-.11.11-.23.21-.34.31-.08.08-.07.23,0,.31.09.09.18.19.26.29.08.1.13.21.22.3.2.19.32.45.52.64.01.01.02.03.03.05.03.04.05.08.08.12.09.11.18.21.26.33.06.09.11.18.17.27.14.19.28.37.42.56.16.22.33.43.49.65.12.16.22.33.35.52-.06.02-.11.05-.16.05-.1,0-.19,0-.29,0-.23,0-.46,0-.69,0-.17,0-.34-.02-.51-.02-.24,0-.47,0-.71,0-.02,0-.06,0-.07.03-.07.11-.16.21-.18.32-.03.16-.12.3-.16.45-.04.15-.09.29-.14.44-.06.17-.14.35-.21.52-.05.14-.11.27-.17.41-.05.12-.09.25-.14.37-.05.13-.13.26-.12.41,0,.15.07.21.22.2.17-.02.35-.03.52-.03.4,0,.8.02,1.19.02.31,0,.61-.01.92-.01.3,0,.6,0,.9,0,.2,0,.4.02.6.02.28,0,.56-.01.84-.01.35,0,.7.01,1.05.01.11,0,.21-.08.24-.18.02-.06,0-.13.02-.19.05-.14.11-.27.16-.41.06-.16.12-.33.16-.5.04-.17.09-.33.16-.48.01-.03.02-.07.02-.1,0-.04,0-.08.02-.12.05-.12.11-.23.15-.35.04-.15.06-.31.08-.46Z"/>
      <path class="cls-1" d="M15.49,9.47c-.02-.1,0-.22,0-.33,0-.13,0-.26,0-.39,0-.08-.04-.17-.02-.24.06-.22.03-.44.01-.67-.01-.19,0-.38,0-.57,0-.04-.01-.08-.02-.12-.01-.06-.03-.12-.03-.18,0-.13.03-.25.03-.38,0-.13-.03-.26-.04-.39,0-.08-.02-.18.01-.24.05-.08.05-.14,0-.21,0-.02,0-.04,0-.06-.01-.18-.02-.35.04-.53,0-.02,0-.05,0-.07-.01-.11-.03-.22-.04-.32,0-.24,0-.48,0-.72,0-.17-.01-.33-.01-.5s.01-.34.01-.51c0-.24-.02-.49-.02-.73,0-.48,0-.96.01-1.45,0-.14-.05-.21-.19-.27-.08-.04-.17-.03-.25-.03-.11,0-.21-.04-.32-.06-.22-.02-.44-.04-.65-.06-.11,0-.21-.02-.31-.03-.12-.02-.24-.04-.36-.06-.21-.03-.42-.06-.63-.08-.02,0-.03-.01-.05-.02-.04-.01-.09-.02-.14-.03-.15-.02-.31-.03-.45-.07-.12-.04-.23-.02-.34,0-.04.01-.09.07-.11.12-.07.22-.1.45-.21.66-.07.14-.11.29-.16.43,0,.03,0,.06-.01.09,0,.04,0,.07-.02.11,0,.03-.02.06-.03.09-.03.11-.04.22-.13.31-.02.02-.03.06-.04.09-.06.25-.11.5-.17.75-.02.1-.05.19-.09.28-.07.13.02.25.15.25.34,0,.68,0,1.01,0,0,0,0,.02,0,.02.05,0,.11,0,.16,0,.06,0,.11,0,.17-.01.1,0,.13.03.12.13-.01.09-.03.19-.02.28.02.16.06.32.02.48-.02.11-.02.23-.02.34,0,.14.01.29.02.43,0,.05-.04.1-.04.15,0,.14.03.29.04.43,0,.03,0,.07,0,.09-.09.16-.05.33-.05.5,0,.11,0,.21,0,.32,0,.09-.01.17-.01.26,0,.1,0,.2,0,.31,0,.1-.01.2-.02.3,0,.12,0,.24-.01.36,0,.07-.03.15-.02.22.02.21.07.42-.02.62,0,0,0,.02,0,.03.01.11.03.22.03.32,0,.18-.03.36-.04.55,0,.07.02.14.01.21,0,.25-.02.51-.03.76,0,.08,0,.16,0,.24,0,.16,0,.32-.03.48-.02.12.03.25.14.27.09.01.19,0,.29,0,.1,0,.2,0,.29,0,.09,0,.17,0,.26,0,.12,0,.24-.03.36-.02.19.01.38.07.57-.01.05-.02.12-.02.18-.01.13.02.25.05.38.08.03,0,.06,0,.09,0,.14-.06.29-.06.44-.02.21.06.31-.02.31-.23,0-.29.01-.58,0-.86,0-.29.04-.58-.02-.87Z"/>
      <path class="cls-1" d="M31.19,12.32c-.14,0-.28,0-.42,0-.17,0-.35,0-.52,0-.23,0-.46,0-.69,0-.09,0-.2.01-.27.06-.08.06-.13.16-.2.24-.02.02-.04.04-.07.05-.07.04-.09.1-.07.18.02.07.05.12.14.11.18-.01.37-.02.57-.04.01,0,.04,0,.07,0,.05.01.1.03.15.05-.03.04-.07.08-.1.12-.08.1-.16.2-.25.31,0,0,0,.02,0,.04.03.1.04.21.15.27.04.03.08.08.1.13.07.17.19.2.33.07.09-.08.17-.17.27-.25.12-.09.15-.18.07-.31-.05-.09-.12-.16-.16-.25-.02-.05-.03-.11-.02-.16,0-.02.09-.03.13-.03.12,0,.23.03.35.03.08,0,.17.02.25,0,.09-.02.2-.01.25-.1.05-.09.09-.18.13-.27.1-.21.04-.3-.19-.29Z"/>
      <path class="cls-1" d="M46.79,12.24c-.08-.02-.17-.02-.25-.03-.07,0-.15,0-.22,0-.1,0-.21-.01-.31-.01-.24,0-.48.01-.71.02-.08,0-.16.01-.23,0-.24-.05-.39.05-.5.23-.04.06-.08.13-.11.2-.02.06-.04.13-.03.19,0,.03.09.06.14.06.22,0,.43,0,.65,0,.19,0,.38,0,.57,0h0c.22,0,.44,0,.66,0,.1,0,.26-.18.3-.29.02-.06.06-.13.09-.18.04-.05.02-.18-.04-.19Z"/>
      <path class="cls-1" d="M11.52,5c-.05-.06-.08-.12-.17-.11-.09,0-.25.13-.28.21-.02.04-.05.09-.09.12-.11.09-.13.22-.02.32.09.09.19.17.28.26.02.02.06.03.09.03.09.01.15-.04.21-.15.02-.04.06-.08.1-.1.18-.09.2-.26.05-.4-.06-.06-.11-.13-.17-.19Z"/>
      <path class="cls-1" d="M38.49,12.22c-.08-.08-.19-.07-.27,0-.08.07-.17.12-.19.23,0,.01-.01.02-.02.03-.11.12-.1.26.02.36.07.06.14.12.2.18.06.05.19.08.22.04.09-.11.17-.22.25-.34.03-.04.05-.09.07-.13-.01-.03-.01-.05-.03-.07-.08-.1-.17-.2-.25-.3Z"/>
      <path class="cls-1" d="M38.43,13.3c-.07-.05-.12-.04-.18.02-.07.07-.15.14-.23.21-.06.05-.09.19-.05.25.05.07.1.14.16.2.07.06.17.1.26.16.07-.04.13-.07.17-.11.07-.08.13-.18.19-.27.01-.02.02-.07,0-.09-.08-.15-.19-.27-.33-.37Z"/>
    </g>
  </g>
</svg>