<?xml version="1.0" encoding="UTF-8"?>
<svg id="Layer_2" xmlns="http://www.w3.org/2000/svg" viewBox="0 0 48.03 24.41">
  <defs>
    <style>
      .cls-1 {
        fill: #2c489e;
      }
    </style>
  </defs>
  <g id="Layer_1-2" data-name="Layer_1">
    <g>
      <path class="cls-1" d="M0,2.23c.04.29.05.58.12.85.03.1.12.23.25.32.18.12.42.2.52.46.05.12.24.2.38.26.12.06.27.07.4.11.14.04.27.09.41.13.1.03.24.02.31.08.14.16.34.1.5.16.08.03.17.06.26.07.17.02.33,0,.5.09.13.07.33.03.5.02.24-.02.49-.03.72-.08.1-.02.19-.12.31-.2.24.3.61.14.94.16.37.03.76,0,1.11.12.6.19,1.19.05,1.79.11.29.03.58.15.88.11.06-.01.13,0,.18-.04.11-.07.2-.08.31,0,.05.03.16,0,.23-.03.12-.06.23-.17.35-.23.04-.02.12.03.18.06.06.03.11.09.18.12.11.05.25.06.33.14.15.14.29.07.43.03.09-.02.17-.03.23-.04-.03.04-.06.09-.09.14.05.02.11.04.16.06.17.06.33.12.5.18.06.02.16.04.17.02.09-.12.21-.08.33-.09.08-.01.17-.05.25-.06.05,0,.11.02.16.04-.02.04-.03.1-.07.12-.19.12-.39.22-.58.34-.05.03-.09.09-.12.14-.01.03,0,.09.03.11.02.02.1.03.11.02.31-.28.8-.3,1.05-.69.03-.04.13-.04.2-.04.12,0,.24.02.38.04-.12.17-.06.28.05.34.17-.09.3-.18.44-.24.29-.12.58-.22.88-.32.02,0,.05-.02.07-.01.22.08.41-.02.61-.09.09-.03.22.07.34.11.07.02.14.03.21.05.04,0,.08,0,.1.02.13.14.27.28.38.44.21.29.07.59-.28.65-.07.01-.13.07-.2.11-.02.01-.04.04-.06.04-.17.02-.35.06-.52.06-.3.01-.61,0-.91,0-.06,0-.11.01-.16.04-.18.09-.46,0-.6-.14-.13-.13-.22-.27-.23-.47-.02,0-.03,0-.05,0-.01.06-.05.13-.04.19.05.22,0,.45,0,.67,0,.04.03.11.07.12.14.06.14.18.16.3.02.08.05.17.07.23-.12-.06-.24-.15-.37-.19-.22-.07-.32.13-.45.25-.11.11-.22.16-.38.19-.26.05-.5.19-.75.29-.09.04-.18.08-.26.13-.02.01-.03.05-.06.12.25-.02.47.06.71-.07.25-.13.5-.27.82-.26.16,0,.34.08.5-.07.05-.05.19-.01.29-.02.03,0,.06-.03.1-.05-.04-.06-.08-.11-.11-.16,0,0,.01,0,.02,0,.1.09.19.19.31.26.16.1.33.18.49.27.03.02.08.01.1.04.14.18.34.18.55.18.11,0,.23.07.34.11.1.03.19.05.27-.06.02-.03.09-.03.13-.05,0,.04.03.08.03.11,0,.11.08.12.14.06.16-.16.26.04.39.06.02,0,.03.16.03.25,0,.09-.02.19-.01.28,0,.03.05.06.07.09.02-.03.06-.05.07-.08.04-.14.07-.28.12-.42.03-.09.09-.16.2-.09.05.03.1.05.15.07,0-.02,0-.04,0-.06.11-.03.21-.06.32-.09.05-.01.13,0,.16-.04.12-.14.26-.08.42-.05-.13.21-.1.41-.07.61.02,0,.05,0,.07.01.02-.05.03-.11.05-.16.06-.16.1-.32.17-.47.02-.05.1-.08.15-.11.03.06.06.11.09.17.05.12.08.25.16.37.15-.24-.05-.62.37-.76,0,.11.04.25,0,.31-.16.22-.02.42-.01.63.02.45.39.71.59,1.07.01.02.05.03.08.04.18.05.36.09.6.15-.23.21-.43.4-.66.61-.03-.12-.05-.19-.07-.26.06-.01.13,0,.17-.03.07-.05.14-.12.2-.18-.06-.04-.12-.09-.18-.13-.31-.18-.57-.43-.76-.73-.08-.12-.09-.28-.13-.42-.02-.06-.05-.13-.09-.18-.03-.03-.1-.04-.15-.03-.02,0-.03.08-.03.13,0,.39.18.7.42.99.1.13.05.22-.1.26-.07-.1-.11-.2-.19-.27-.2-.18-.34-.38-.42-.64-.02-.05-.1-.09-.16-.13-.01.09-.06.2-.03.28.05.16.13.32.22.46.05.08.16.11.26.18,0,.15-.03.34.18.42-.02.13-.08.17-.18.08-.17-.17-.35-.34-.51-.53-.1-.11-.16-.26-.24-.39-.02,0-.04,0-.06-.01-.01.06-.06.13-.04.17.12.32.24.64.49.87.14.13.31.22.46.33.07.05.12.11.2.14.06.02.14.03.19,0,.1-.05.14-.12,0-.19-.12-.06-.23-.15-.34-.23,0-.02.02-.05.03-.07.1.03.19.05.29.08.14.04.29.09.44.13-.09.1-.2.25-.34.36-.08.06-.22.11-.32.09-.13-.03-.25-.12-.35-.2-.2-.15-.39-.31-.56-.49-.13-.14-.24-.3-.36-.45-.05-.06-.11-.1-.16-.14-.02.01-.04.03-.05.04.19.33.37.65.57,1-.16,0-.28-.01-.39-.02.2-.13.16-.23,0-.35-.11-.08-.19-.2-.29-.3-.05-.04-.12-.06-.17-.08-.07-.11-.13-.21-.2-.31-.02,0-.05.02-.07.03.06.21.13.41.19.62,0,0,0,0,0,0,0,0,0,0,0,0,.16.04.25.17.35.31-.22,0-.32-.1-.35-.31,0,0,0,0,0,0,0,0,0,0,0,0-.07-.05-.14-.09-.2-.15-.09-.1-.2-.12-.28-.04-.09.09-.1.21,0,.32.17.19.34.39.51.59,0,.01-.02.03-.03.04-.05-.03-.11-.05-.14-.09-.11-.14-.23-.24-.43-.13,0,0-.03-.01-.07-.03.04-.05.07-.1.11-.15-.2-.26-.39-.52-.58-.78-.02.01-.04.02-.06.04.14.33.27.66.41.99-.11.05-.16.03-.23-.08-.17-.24-.37-.46-.56-.69-.03,0-.05.02-.08.03,0,.11-.01.23.04.33.08.15.21.28.31.43.04.06.04.14.06.21-.07-.02-.16-.02-.2-.07-.15-.18-.37-.33-.41-.59,0-.03-.09-.07-.13-.07-.03,0-.08.06-.09.09-.01.13-.05.28.13.35.04.01.05.08.08.12-.14.01-.24.02-.37.03.13-.14.09-.23-.05-.34-.08-.06-.12-.19-.19-.28-.03-.04-.11-.04-.17-.06-.02.07-.07.15-.04.2.13.24.28.48.42.71-.07.04-.27-.07-.34-.18-.11-.18-.23-.34-.37-.53-.22.31.06.48.09.75-.07-.06-.12-.1-.16-.15-.18-.21-.34-.43-.52-.64-.04-.05-.12-.05-.19-.08-.02.09-.05.19-.05.28,0,.04.07.08.12.13.03.09.06.21.09.31-.11-.02-.2-.03-.29-.05,0,.13,0,.26,0,.4h-.41s0-.03,0-.04c.05-.03.11-.06.18-.11-.1-.17-.2-.33-.3-.5-.05-.08-.09-.17-.15-.25-.04-.04-.12-.09-.17-.08-.08.02-.14.09-.25.16-.13-.19-.29-.42-.45-.65-.02-.04-.04-.08-.08-.11-.04-.03-.09-.03-.13-.05,0,.05-.03.09-.03.13,0,.05.04.1.06.16.02.05.03.11.02.17-.21-.12-.41-.24-.47-.49-.06-.23-.08-.25-.31-.2-.02,0-.04-.01-.1-.04.1-.06.19-.12.27-.17-.01-.02-.02-.04-.04-.05-.02-.04-.03-.08-.07-.11-.04-.03-.1-.06-.14-.06-.03,0-.06.07-.09.1-.04.04-.08.08-.11.12-.03-.05-.07-.09-.09-.14-.01-.03,0-.09,0-.11-.04-.04-.09-.07-.14-.08-.02,0-.08.08-.07.12.02.1.06.19.11.31-.43-.17-.61-1.02-.56-1.6-.09-.02-.19-.06-.29-.05-.05,0-.14.09-.14.15,0,.14.02.28.06.41.03.09.1.16.17.25-.11.13-.05.3.06.47.04.06,0,.17.04.24.08.18.16.38.43.38-.04.07-.07.11-.1.15.27.81.82,1.3,1.7,1.44,0,0,.05-.04.14-.1-.12.23.01.28.14.34.24.1.48.21.72.31.03.01.06.03.09.02.3-.03.55.14.83.19.23.04.48.03.72.04.27,0,.54,0,.8,0,.09,0,.17-.05.26-.07.05-.01.11-.03.16-.03.36,0,.72.02,1.08.02.1,0,.21-.04.31-.08.22-.1.34-.05.4.19.02.1.06.12.14.04,0,0,.01-.02.02-.03.23-.19.31-.17.42.11q.11.26.31.34c-.18.15-.06.25.05.36.04.04.06.11.1.17-.04.02-.09.06-.11.05-.06-.03-.11-.08-.14-.13-.07-.14-.18-.08-.28-.06,0,0-.01.13.02.18.07.14.16.28.25.42.02.03.06.06.09.06.19.02.25.14.23.31,0,0,0,0,0,0,0,0,0,0,0,0,.09.03.19.05.27.1.16.11.3.26.53.24.06,0,.13.08.19.12-.01.02-.02.05-.03.07-.07-.02-.16-.02-.22-.05-.18-.09-.36-.22-.55-.27-.14-.04-.18-.1-.19-.22,0,0,0,0,0,0h0c-.09-.05-.2-.08-.28-.15-.17-.15-.34-.12-.41.08.14.13.27.27.41.39.14.12.29.23.49.22.03,0,.08.02.1.04.1.08.2.17.3.26,0,0-.04.03-.04.02-.12-.09-.3-.02-.42-.16-.08-.09-.23-.11-.35-.17-.01,0-.03,0-.04-.01-.14-.09-.24-.27-.46-.1.07-.32.03-.39-.24-.46.13-.15.26-.29.41-.46-.14-.06-.25-.11-.36-.15-.02,0-.09.08-.09.12,0,.08.04.15.07.24-.12.08-.21.09-.31-.03-.05-.06-.12-.11-.19-.16-.02-.01-.08-.01-.1,0-.02.02-.03.08-.01.1.13.18.24.37.4.53.24.25.48.49.82.61.05.02.1.07.15.1,0,.02,0,.04-.01.06-.05,0-.11,0-.14-.01-.37-.25-.73-.51-1.1-.77-.1-.07-.21-.1-.25-.24-.02-.06-.14-.08-.22-.11-.01,0-.08.09-.07.11.04.07.1.13.15.19.03.03.11.04.12.08.06.23.24.27.42.28,0,.09-.01.17-.02.26-.01,0-.06.03-.08.01-.16-.12-.32-.25-.49-.38-.07-.05-.14-.11-.22-.12-.18-.03-.27-.16-.39-.27-.04-.03-.12-.05-.16-.03-.04.02-.08.1-.07.14.01.05.06.12.11.13.09.02.19.02.18.16,0,.01.07.05.11.05.04,0,.09-.03.16-.06-.02.26.09.43.31.55-.17.1-.24-.04-.33-.09-.17-.09-.33-.2-.49-.3-.04-.02-.06-.06-.1-.08-.12-.08-.25-.17-.38-.24-.03-.02-.12.02-.13.04,0,.05,0,.13.03.17.1.09.22.16.33.25.05.04.08.09.13.14-.01.02-.02.04-.03.05-.05-.02-.1-.02-.15-.05-.21-.12-.37-.33-.65-.28-.02,0-.05,0-.05,0,0-.18-.21-.18-.28-.3-.02-.03-.08-.04-.13-.06,0,.05-.01.1,0,.14.08.12.17.22.24.34.03.05.01.13.02.19-.05-.02-.12-.02-.16-.05-.24-.18-.48-.37-.71-.56-.04-.04-.07-.09-.11-.13-.03-.03-.08-.05-.12-.07,0,.05,0,.11.01.15.03.06.09.1.13.16.07.11.12.22.19.32.02.03.05.06.08.08.28.14.55.29.88.46-.09.03-.18.09-.23.07-.43-.21-.83-.46-1.19-.78-.08-.07-.16-.16-.25-.23-.04-.03-.11,0-.17,0,.01.05.01.12.04.15.14.14.2.35.42.44.13.05.22.22.33.33-.09,0-.19.06-.34-.06-.26-.2-.42-.45-.6-.7-.04-.06-.15-.12-.21-.11-.3.06-.43-.16-.58-.33-.11-.13-.2-.22-.37-.19-.05,0-.1-.03-.15-.05.07.42.38.67.66.94.02.02.07,0,.11,0,.16,0,.25.12.22.29-.03-.02-.05-.04-.07-.05-.03-.01-.07-.02-.11-.02,0,.03.01.07.03.1.17.16.32.35.51.47.17.12.39.17.58.24.02,0,.06-.05.1-.05.1,0,.26,0,.29.05.08.13.19.13.32.15.18.03.35.12.52.16.27.06.54.14.82.14.2,0,.41-.1.61-.16.04-.01.09-.05.12-.03.33.15.61-.04.9-.12.41-.11.83-.23,1.24-.34,0,0,.01-.02.03-.05-.04-.03-.09-.07-.14-.1,0-.02,0-.03,0-.05.07.02.14.01.19.05.09.07.16.07.27,0,.24-.15.51-.25.77-.38.04-.02.07-.05.1-.08.08-.08.17-.17.28-.29.06.21.09.36.15.51.02.05.1.07.16.1.01-.02.02-.03.04-.04-.06-.18-.13-.36-.19-.54-.05-.17.1-.24.19-.32.29-.23.6-.44.9-.67.12-.09.23-.2.36-.32.02.12.01.2.04.26.02.04.1.09.14.08.04,0,.1-.09.09-.13-.03-.13-.08-.25-.15-.41.03-.02.12-.12.15-.1.08.04.14.13.18.21.04.08.04.19.09.27.12.22.18.22.34.02-.08-.18-.15-.35-.22-.52,0-.02-.02-.05-.03-.07-.04-.07-.12-.19-.11-.2.1-.1.15-.28.36-.26,0,.09.04.19.02.26-.06.17.01.32.07.47.06.16.14.19.24.03.06.06.12.1.19.17-.1.02-.17.04-.25.06.25.39.48.78.91.99-.1.15-.23.17-.38.01-.18-.2-.43-.33-.52-.6-.03-.08-.13-.18-.21-.19-.08-.01-.19.34-.12.41.22.24.43.5.69.68.25.18.55.11.83-.04-.04-.07-.07-.12-.1-.17.29-.09.39-.3.32-.61-.01-.05.04-.13.07-.19.01-.03.04-.07.04-.09,0-.02-.06-.04-.09-.04-.08,0-.19.1-.24-.04-.02-.06.18-.26.29-.28-.03-.05-.06-.09-.06-.09.11-.25.21-.47.31-.7-.41.14-.51.57-.79.82-.01-.01-.03-.02-.04-.03.07-.18.14-.36.23-.57-.19.03-.49.27-.48.38.02.18.07.36.08.55-.25-.2-.28-.46-.2-.73.1-.36.24-.72.49-1.01.07-.09.17-.16.28-.03.03.03.09.03.13.05.08.03.18.05.25.1.11.08.24.17.3.28.09.16.16.34.17.52.01.13-.07.27-.13.4-.09.21-.2.41-.31.61-.02.04-.05.07-.07.11-.03.05-.08.11-.07.16.01.04.09.06.14.09.04.02.08.03.07.02-.07.15-.13.29-.21.42-.06.1-.15.18-.22.28-.14.2-.27.4-.41.6-.1.13-.22.25-.33.37-.02.02-.08.03-.1.02-.15-.12-.32-.09-.49-.08-.04,0-.09-.02-.13-.05-.01-.01,0-.09.02-.1.04-.02.09-.03.14-.02.15.02.29.06.44.06.05,0,.09-.08.14-.12-.04-.04-.07-.08-.12-.11-.05-.04-.11-.08-.2-.15.17-.03.29-.03.41-.07.08-.02.14-.09.21-.14-.07-.03-.14-.06-.21-.08-.26-.07-.54-.11-.73-.34-.13-.15-.22-.13-.31.09.21.14.41.28.66.44-.22.09-.33-.03-.45-.1-.04-.02-.06-.07-.1-.09-.08-.03-.16-.04-.25-.06,0,.1-.02.2,0,.3,0,.06.07.11.09.18-.16-.02-.3-.07-.41-.2-.1-.12-.19-.25-.39-.16-.05-.13-.06-.31-.27-.27-.13.02-.14.08-.09.18,0,0,0,0,.01.01.22.19.46.36.64.58.18.22.42.27.66.35.02,0,.05.02.06.04.13.13.26.21.43.06.01-.01.06.02.13.04-.09.12-.17.23-.28.38-.05-.27-.25-.28-.41-.34-.18-.07-.36-.16-.53-.26-.19-.11-.33-.29-.56-.32-.03,0-.06-.06-.1-.09-.08-.05-.16-.09-.24-.13-.01.05-.06.14-.04.16.24.25.49.5.75.74.05.04.13.04.19.1-.03.01-.07.04-.09.03-.16-.07-.34-.12-.48-.22-.25-.17-.48-.37-.72-.56-.03-.02-.03-.09-.06-.11-.04-.04-.1-.07-.15-.08-.03,0-.1.04-.1.05,0,.05.03.11.06.15.07.07.17.11.24.18.22.26.44.52.73.72.05.04.14.03.22.03.06,0,.11-.03.17-.02.04,0,.09.04.13.06,0,0-.01.06-.02.06-.04,0-.08-.02-.13-.02-.04,0-.08,0-.13.04.1.07.19.14.29.21,0,.02-.02.05-.03.07-.14-.05-.29-.08-.42-.15-.29-.15-.56-.33-.8-.56-.06-.06-.18-.06-.28-.05.08.15.09.31.27.39.13.06.2.24.33.33.12.08.27.09.43.14-.03.18.12.23.3.25,0,.02-.01.04-.02.06-.1-.02-.2-.02-.29-.05-.25-.09-.49-.2-.73-.3-.03-.01-.08-.04-.08-.06-.03-.25-.24-.27-.41-.34-.09-.04-.18-.08-.27-.12-.01.02-.03.04-.04.06.17.19.33.4.52.57.19.16.41.29.62.47-.08-.01-.17,0-.23-.04-.26-.18-.5-.37-.75-.55-.03-.02-.07-.02-.1-.04-.1-.05-.21-.09-.31-.15-.05-.03-.09-.07-.14-.1-.02,0-.06.03-.09.05.02.03.03.06.05.09.06.06.12.12.19.18.05.05.1.13.15.13.23,0,.25.21.35.33.07.09.18.16.27.23-.01.02-.02.04-.03.07-.06,0-.14.03-.18,0-.13-.1-.25-.23-.38-.34-.05-.04-.13-.06-.19-.1-.11-.06-.21-.14-.32-.2-.04-.02-.11-.03-.13-.01-.03.02-.04.09-.04.13.02.14.47.48.57.48.11.11.18.21.27.27.09.06.21.07.32.11,0,.03,0,.06,0,.09-.06,0-.14.04-.19.01-.21-.11-.41-.23-.61-.37-.17-.12-.61-.2-.72-.13.15.16.31.33.47.49,0,0,0,0,0,0,0,0,0,0,0,0,.19.03.36.09.48.25-.01.02-.03.04-.04.07-.14-.11-.29-.21-.43-.32,0,0,0,0,0,0,0,0,0,0,0,0-.1-.04-.2-.07-.28-.12-.14-.09-.26-.22-.45-.19-.03,0-.05.02-.09.04.14.3.35.5.64.62.16.06.3.15.45.23,0,.02-.01.04-.02.06-.04,0-.09.01-.12,0-.25-.1-.52-.19-.75-.32-.19-.11-.34-.29-.52-.43-.06-.04-.15-.05-.22-.07.01.08.01.16.04.23.04.08.09.17.15.23.06.07.15.11.22.17.04.03.07.08.11.12,0,0,0,0,0,0,0,0,0,0,0,0,.13.03.27.06.43.1-.17.12-.28.08-.43-.1,0,0,0,0,0,0,0,0,0,0,0,0-.14-.02-.27-.06-.36-.2-.04-.06-.14-.07-.2-.11-.21-.15-.42-.3-.64-.45-.02-.02-.07,0-.1-.01,0,.04,0,.08.02.11.28.38.65.65,1.11.79,0,.02,0,.04,0,.05-.1,0-.22.03-.31,0-.12-.04-.22-.13-.33-.2-.2-.11-.42-.21-.61-.34-.12-.08-.22-.19-.3-.31-.07-.1-.11-.22-.28-.21.3.49.65.94,1.18,1.22-.07.13-.15.12-.23.05-.33-.29-.66-.59-.99-.89-.09-.09-.15-.21-.24-.31-.04-.04-.12-.05-.18-.07,0,.06-.05.14-.02.19.1.18.22.35.35.51.04.04.15.03.25.04,0,0,.02.01.01.04,0,.1-.02.19-.04.29-.08-.04-.18-.06-.23-.12-.23-.25-.48-.5-.66-.79-.1-.17-.22-.29-.35-.42-.01-.01-.02-.04-.04-.04-.38-.05-.08-.24-.04-.31.13-.24.12-.4-.11-.6-.03.08-.05.15-.08.22-.02,0-.03,0-.05,0-.01-.05-.05-.09-.04-.14.04-.32.03-.34-.24-.23-.02-.05-.04-.09-.07-.14-.03.04-.1.09-.1.13,0,.1.05.21.06.31.02.14.03.27.05.41.03.17.07.34.1.51.03.12.05.24.09.35.02.04.06.09.11.11.25.1.27.16.11.37.12.15.25.3.36.46.06.09.09.21.16.28.19.19.41.35.68.41.12.03.23.1.35.16.03.02.07.04.1.04.41.06.81.16,1.22.12.18-.02.36.02.53,0,.25-.04.49-.13.74-.2.17-.04.34-.07.51-.12.14-.04.27-.09.41-.14.16-.06.33-.12.49-.19.21-.08.42-.17.63-.25.17-.06.34-.16.51-.17.24,0,.42-.12.63-.19.13-.04.29,0,.44.02.21.04.41.11.62.16.4.1.81.11,1.2.3.24.11.53.11.8.16,0-.02.02-.04.03-.06-.03-.04-.05-.09-.09-.15h.26c-.13.2-.1.25.13.31.17.04.33.12.51.16.11.03.23.02.35.03.08,0,.17.01.3.02-.08.07-.12.1-.18.15.14.06.25.12.37.15.2.05.4.08.6.13.05.01.1.04.15.06.04.02.11.06.13.04.17-.1.28,0,.41.08.05.03.11.02.16.04.08.02.15.05.23.06.08.01.15.02.23.02.09,0,.19,0,.28.02.17.03.34.08.5.12.12.03.24.06.35.09.03,0,.06.02.09.02.16-.01.32-.02.48-.04.03,0,.06-.04.09-.07.18.17.39.22.64.23.46.02.93.06,1.39.11.16.01.31.07.47.08.14,0,.29-.01.43-.03.26-.04.51-.05.76.04.08.03.19-.01.29-.02.01,0,.03-.02.03-.02.27.14.51-.1.77-.06.07.01.16-.07.19-.08.23-.03.42-.06.62-.09.02,0,.04-.02.05-.02.26.14.46-.05.68-.12.17-.06.22,0,.25.18.04.28.1.56.16.84.04.21.09.41.23.58.1.12.2.15.34.12.07-.01.14,0,.21,0,0,.03,0,.06,0,.09-.05,0-.11.02-.16.01-.14,0-.2.07-.13.18.12.18.26.34.41.5.14.14.31.27.47.39.11.08.23.17.36.21.21.07.43.11.65.13.14.02.29.01.44,0,.11,0,.21-.05.32-.08.05-.01.1-.02.15-.02.26,0,.52-.01.77.03.12.02.22.07.34-.02.02-.01.08,0,.1.03.11.09.22.1.35.02.03-.02.08-.02.12-.02.19,0,.39-.02.58-.02.08,0,.16.03.24.04.05,0,.1.04.14.02.34-.14.68-.09,1.03-.02.15.03.31-.03.46-.03.21,0,.43-.01.63.04.42.11.75-.13.77-.55,0-.1.05-.19.08-.29.02-.08.05-.16.03-.24-.04-.15-.13-.29-.16-.45-.04-.18-.03-.36-.04-.54,0-.02.03-.05.06-.07.19-.13.2-.22.06-.4-.03-.04-.05-.08-.08-.12.29-.07.29-.09.3-.42.01-.4-.2-.75-.15-1.16.02-.13-.1-.28-.15-.43-.02-.08-.05-.16-.03-.24.06-.24.12-.48.21-.71.04-.11.15-.19.22-.3.15-.22,0-.56-.28-.6-.01,0-.02-.01-.03-.02,0-.01.02-.04.03-.04.26-.03.28-.03.26-.29-.03-.4-.09-.79-.51-1.01-.14-.07-.25-.21-.37-.31.02-.02.04-.05.06-.07.07.04.13.1.2.13.09.04.19.11.27.09.08-.01.05-.33-.03-.41-.06-.06-.12-.11-.18-.17-.24-.21-.49-.41-.73-.62-.2-.17-.4-.34-.58-.52-.09-.09-.15-.22-.22-.34-.01-.03,0-.07.01-.11.04,0,.09,0,.12.02.05.05.07.12.13.16.46.35.75.87,1.23,1.19.06.04.16.08.2.05.05-.03.07-.13.09-.2.04-.15.05-.31.1-.46.06-.18-.06-.25-.16-.32-.32-.22-.65-.41-.9-.72-.15-.19-.38-.32-.58-.47-.08-.06-.17-.09-.26-.14-.02-.01-.04-.04-.04-.06,0-.13,0-.27,0-.38.28.28.56.56.85.83.14.12.32.2.47.31.19.13.37.28.55.42.06.05.12.11.19.14.05.02.12,0,.18,0,0-.07,0-.15-.03-.21-.03-.06-.11-.09-.16-.13-.27-.19-.55-.37-.81-.57-.22-.18-.42-.4-.63-.59-.1-.09-.22-.17-.32-.26-.04-.03-.04-.1-.06-.15.06,0,.14-.02.18.02.18.15.34.34.53.47.28.2.58.36.87.54.03.02.1.02.1,0,.05-.11.11-.23.13-.35,0-.05-.05-.13-.1-.17-.19-.19-.38-.37-.57-.55-.02-.02-.05-.03-.08-.04-.15-.04-.27-.1-.36-.26-.11-.17-.3-.27-.46-.41-.18-.16-.37-.31-.54-.49-.07-.08-.09-.2-.23-.19,0,0-.01-.06-.02-.11.33.09.53.31.73.54.02.02.05.04.07.06.27.23.54.48.83.7.06.04.17.01.26.01-.02-.04-.03-.09-.05-.14.08-.03.14-.05.25-.08-.12-.07-.23-.1-.29-.18-.25-.34-.63-.52-.95-.78-.05-.04-.08-.1-.11-.15.02-.02.04-.04.06-.06.28.2.56.39.83.6.12.09.23.2.38.34.07-.24.14-.42.17-.6.03-.17-.12-.3-.33-.3,0-.06-.02-.13-.03-.24.09.04.15.08.21.08.07,0,.14-.02.21-.03-.02-.06-.01-.14-.05-.19-.07-.07-.15-.14-.24-.17-.14-.05-.27-.1-.33-.27-.02-.06-.15-.09-.22-.15-.52-.41-1.04-.82-1.56-1.23-.06-.05-.11-.11-.17-.15-.03-.03-.09-.05-.13-.05-.13.02-.17,0-.19-.15-.02-.14-.13-.26-.19-.39-.03-.07-.04-.15-.05-.23.02,0,.04-.01.07-.02.08.14.15.27.21.38.17.09.33.16.48.26.13.09.23.23.35.34.13.11.27.21.4.32.16.14.32.28.47.42.24.21.48.43.73.64.03.03.09.02.13.03,0-.05.03-.1.03-.15-.02-.19-.05-.37-.05-.56,0-.22-.04-.3-.26-.37-.06-.02-.11-.09-.16-.12-.1-.07-.19-.14-.29-.2-.17-.1-.34-.19-.5-.31-.22-.16-.42-.36-.64-.52-.25-.19-.51-.38-.78-.55-.17-.11-.17.06-.24.17-.09-.28-.18-.56-.27-.84.01,0,.03,0,.04,0,.2.17.41.34.61.51,0,0,0,.01.01.01.31-.01.36.31.58.43.22.12.4.35.63.43.38.13.58.47.92.63.09.04.19.06.28.08.02,0,.07-.03.07-.06,0-.03-.03-.08-.05-.08-.17-.01-.23-.15-.34-.24-.12-.11-.27-.19-.41-.28-.1-.07-.19-.14-.29-.21-.27-.2-.55-.38-.82-.59-.24-.19-.46-.4-.7-.6-.13-.11-.29-.18-.43-.29-.05-.04-.12-.15-.1-.19.05-.1.14-.09.22-.01.07.06.13.14.2.19.3.22.61.42.92.64.05.04.11.07.15.11.2.17.4.32.68.29,0,.18.05.27.23.32.12.03.25.12.34.21.14.13.29.16.47.11.18-.05.22-.19.1-.34-.02-.03-.04-.07-.06-.11,0,0,0,0,0,0,0,0,0,0,0,0-.28-.08-.52-.22-.72-.44-.03-.03-.05-.07-.09-.09-.26-.16-.54-.31-.79-.48-.28-.19-.54-.4-.81-.61-.03-.02-.04-.08-.06-.14.35.02.55.22.79.39.25.17.46.43.8.43,0,0,.02.02.02.03-.02.04-.04.09-.07.15.26.16.53.3.77.47.08.06.11.19.16.3,0,0,0,0,0,0,0,0,0,0,0,0,.08.03.15.07.23.08.1.01.2,0,.3,0-.03-.08-.03-.2-.08-.24-.34-.28-.68-.55-1.04-.81-.32-.23-.67-.44-1-.66-.01,0-.02-.03-.04-.06.04-.01.08-.04.1-.04.26.09.52.17.74.35.25.21.49.42.74.62.08.06.19.1.28.13.17.05.22-.02.17-.22-.03.01-.06.02-.08.03-.02,0-.04.02-.08.05-.01-.1-.02-.18-.03-.28.06-.02.11-.04.22-.07-.14-.15-.27-.29-.4-.43.22-.16.23-.22.11-.48-.15-.32-.02-.64.03-.96.02-.11.09-.22.13-.33.02-.06.03-.15,0-.18-.12-.15-.06-.31-.09-.47-.03-.18-.06-.36-.12-.52-.02-.05-.14-.07-.25-.12.1-.03.18-.05.23-.06-.02-.14-.04-.27-.07-.39-.01-.05-.05-.1-.08-.13-.07-.05-.15-.09-.23-.13,0-.02.02-.04.03-.05.02,0,.05-.03.07-.02.37.14.48-.16.63-.38.05-.07.1-.19.08-.26-.05-.13-.18-.15-.32-.14-.22.01-.44,0-.66,0-.04,0-.1,0-.13.01-.19.15-.41.09-.62.1-.09,0-.17.03-.25.05-.05.01-.11.05-.14.03-.32-.13-.62.07-.95.03-.2-.02-.41.05-.62.09-.03,0-.06.05-.09.07-.03.02-.1.07-.11.06-.15-.19-.39.1-.54-.1,0,0-.03-.01-.04,0-.17.16-.42.02-.57.12-.18.12-.34.08-.52.09-.35.02-.71.06-1.06.12-.15.03-.29.12-.44.18-.11.05-.23.1-.35.13-.4.08-.73.3-1.07.51-.15.1-.29.21-.42.32-.17.15-.35.31-.49.49-.2.25-.37.51-.47.82-.03.08-.08.16-.12.25-.07-.06-.12-.09-.17-.13-.31-.27-.66-.47-1.04-.63-.18-.08-.35-.19-.52-.29-.02,0-.03-.02-.05-.03-.48-.05-.85-.34-1.27-.53-.36-.17-.71-.36-1.07-.53-.14-.07-.31-.08-.46-.14-.17-.06-.32-.16-.48-.23-.16-.07-.33-.13-.5-.2-.19-.08-.38-.17-.57-.26-.13-.06-.27-.12-.41-.18-.25-.1-.49-.24-.74-.3-.23-.05-.49-.27-.74,0-.03.03-.13-.02-.2-.03,0-.02,0-.03.01-.05.07-.03.14-.05.22-.08-.07-.04-.13-.08-.2-.12-.06-.03-.12-.05-.18-.07-.16-.06-.33-.11-.49-.17-.03-.01-.07-.05-.1-.04-.27.03-.5-.11-.74-.2-.26-.1-.55-.14-.81-.24-.33-.12-.65-.29-.98-.41-.18-.07-.42-.17-.56-.1-.19.09-.39.1-.54.05-.36-.12-.73-.07-1.09-.08-.4,0-.79.01-1.19.02-.67.02-1.33.05-2,.07-.43.01-.85,0-1.28.01-.04,0-.09.02-.14.03.02.04.03.07.04.07.28.04.58.16.85.1.26-.05.46-.05.71.02.33.09.69.1,1.03.12.35.02.7,0,1.04,0,.06,0,.11-.02.23-.04-.11-.07-.17-.11-.23-.15,0-.02,0-.03.01-.05.17.04.34.08.54.13-.04.05-.07.12-.12.14-.3.07-.32.34-.42.56-.05.1-.07.21-.12.31-.02.03-.1.05-.13.04-.26-.09-.26-.09-.4.14,0,.01-.03.02-.06.05-.09-.19.09-.47-.22-.59-.11.22-.32.25-.56.21-.05.23-.09.43-.14.63,0,.03-.05.06-.08.09,0,0,0,0,0,0,0,0,0,0,0,0-.03.07-.05.14-.09.21-.02.02-.07.03-.11.04,0-.04-.02-.1,0-.12.06-.05.14-.09.21-.13,0,0,0,0,0,0,0,0,0,0,0,0-.01-.16-.03-.32-.04-.48-.17-.05-.27.01-.31.19-.02.12-.06.23-.13.34-.08-.18-.15-.35-.34-.41-.08.17,0,.4-.21.49-.07-.15-.14-.29-.21-.43,0,0-.05.01-.1.03.04.06.08.11.11.15-.24.18-.28.5-.1.62-.05.09-.1.17-.14.24-.05-.08-.09-.2-.17-.24-.08-.05-.22-.09-.26.1-.07-.09-.12-.16-.19-.21-.04-.03-.11-.04-.15-.02-.03.01-.06.08-.05.12.01.12.05.24.07.36.01.07.02.14,0,.21,0,.03-.05.08-.09.08-.02,0-.07-.04-.08-.08-.03-.07-.05-.15-.08-.23-.02-.07-.04-.14-.07-.21-.19.07-.31.25-.3.46-.17-.02-.26-.14-.23-.36,0-.09.02-.17-.09-.15-.05,0-.11.09-.12.15-.02.16,0,.31,0,.47,0,.05-.06.09-.09.13-.04-.04-.09-.07-.1-.11-.02-.12-.08-.14-.19-.13-.13.01-.16.09-.16.19v.25s-.06,0-.09,0c-.04-.18-.07-.36-.11-.54-.03-.11-.08-.22-.12-.35-.29.22-.29.29-.11.38v.85s-.03,0-.05,0c-.09-.29-.19-.59-.29-.89-.28.2-.28.31-.04.44-.03.1-.05.2-.08.3-.02,0-.03.02-.05.03-.09-.14-.17-.27-.26-.41-.08-.14-.13-.28-.03-.44.03-.04-.06-.16-.1-.24-.03,0-.06.02-.1.02v1.15s-.04,0-.06,0c-.08-.22-.17-.44-.26-.66-.02-.04-.09-.05-.14-.08-.02.06-.05.11-.05.17.02.18.06.35.08.52,0,.02-.02.05-.03.08-.02,0-.04,0-.06.01-.06-.15-.12-.29-.18-.45-.04.02-.09.05-.15.08v-.16s-.06,0-.07.01c-.08.14-.04.52.07.63.01.01.03.03.04.03.08-.02.15-.01.13.09,0,.03-.06.09-.08.08-.07,0-.18-.02-.2-.06-.09-.27-.27-.52-.25-.82,0-.07-.09-.14-.14-.2,0,0-.09.03-.1.06-.02.09-.05.19-.03.27.08.24.19.48.26.72.02.06-.06.16-.12.28-.18-.38-.2-.75-.44-1.02-.02,0-.05.01-.07.02v.65c-.05-.02-.08-.02-.08-.04-.1-.25-.19-.51-.3-.76-.02-.04-.07-.06-.1-.09-.02.04-.07.08-.07.11.02.15.06.3.08.45.01.08.02.15.03.27-.23-.12-.24-.33-.32-.48-.08-.17-.14-.19-.27-.11.01.14.01.26.03.38.02.09.06.18.09.27.01.04.04.09.03.13,0,.03-.07.06-.1.05-.04-.01-.08-.05-.1-.09-.08-.25-.15-.5-.24-.74-.02-.05-.09-.08-.14-.12-.03.05-.09.1-.09.16,0,.16.01.32.02.48-.02,0-.03.02-.05.03-.11-.22-.22-.45-.34-.67-.16.04-.19.11-.13.26.05.13.06.26.07.4-.15-.03-.26-.07-.26-.23,0-.03-.02-.08-.04-.09-.03-.01-.09,0-.1.01-.02.03-.02.08,0,.12.03.12.07.23.11.34-.02.01-.04.03-.06.04-.05-.05-.13-.09-.16-.16-.09-.18-.16-.38-.23-.57-.04-.11-.07-.23-.1-.34-.04-.11-.08-.22-.15-.32-.1.14-.1.27-.03.41.03.06.08.15.05.18-.15.23,0,.38.15.55-.06.04-.1.07-.15.1-.03-.04-.06-.09-.08-.14-.04-.09-.05-.2-.1-.29-.1-.17-.2-.16-.3,0-.02.03-.04.07-.1.15-.09-.29-.17-.53-.25-.77-.03-.08-.09-.15-.14-.23-.38.21-.09.57-.23.84-.03-.02-.06-.03-.08-.06-.14-.14-.25-.13-.3.07-.05.18-.24.14-.31.26-.04-.03-.09-.05-.12-.09-.02-.03,0-.09-.02-.11-.06-.06-.13-.15-.19-.15-.06,0-.12.11-.19.18-.23-.08-.34,0-.4.32-.13-.02-.19-.08-.19-.23,0-.08-.06-.18-.12-.23-.09-.09-.19-.03-.2.09-.01.14,0,.26.12.36.05.05.08.13.11.2-.03.02-.05.03-.08.05-.08-.12-.17-.24-.25-.36-.03-.04-.05-.08-.09-.1-.11-.07-.27-.11-.14-.3,0-.01-.06-.1-.1-.11-.05-.01-.13,0-.17.02-.03.02-.04.1-.04.15,0,.02.03.05.06.07.16.1.17.24.1.45-.06-.07-.13-.12-.15-.18-.12-.31-.2-.34-.43-.12-.02.02-.05.04-.08.06-.07-.11-.13-.23-.21-.32-.05-.05-.14-.07-.21-.1-.02.06-.07.13-.07.19,0,.14-.01.25-.2.15-.03-.02-.1,0-.13.03-.11.12-.22.06-.27-.02-.08-.13-.12-.28-.15-.43-.05-.21-.09-.43-.11-.65-.02-.15-.09-.32.04-.46.02-.02.02-.09,0-.1-.1-.08-.2-.18-.32-.22-.06-.02-.16.08-.23.13-.02.02-.01.13,0,.13.09.02.18.03.27.02.02,0,.03-.07.04-.1.02.02.05.03.07.05-.02.06-.03.15-.07.19-.23.19-.12.42-.11.65,0,.17.02.35.02.52,0,.04-.04.09-.05.12-.12-.16-.23-.31-.33-.45-.15.11-.24.2-.12.37.07.1.09.24.11.41-.05-.03-.12-.06-.16-.1-.04-.04-.06-.11-.1-.15-.21-.23-.21-.23-.34.05-.02.04-.05.08-.08.08-.04,0-.08-.03-.1-.06-.02-.04-.02-.1-.03-.15-.03-.07-.06-.14-.09-.21-.06.03-.14.04-.17.09-.04.06-.08.16-.06.23.03.1.14.17-.03.27-.16.09-.21,0-.3-.09.08-.04.14-.07.21-.11-.05-.04-.1-.07-.15-.11.01,0,.03,0,.04-.01-.03-.08-.03-.18-.08-.23-.03-.04-.13-.01-.2-.02,0,.12,0,.25,0,.41-.04.02-.09.01-.15-.09-.08-.15-.2-.29-.21-.48,0-.03-.13-.08-.14-.07-.05.07-.12.15-.12.22,0,.09.06.19.09.28-.01.01-.03.03-.04.04-.04-.04-.08-.08-.12-.11-.07-.05-.14-.13-.2-.13-.12,0-.13.11-.12.21,0,.07,0,.14-.03.23-.19-.23-.56-.33-.52-.73.01-.11-.08-.22-.14-.35-.11.11-.2.13-.14.33.06.18.19.25.3.36-.21.1-.28.08-.36-.1-.06-.15-.13-.3-.23-.42-.04-.05-.18-.02-.28-.02.01.07.02.14.03.21.01.06.04.12.06.19-.17-.08-.3-.14-.44-.2-.02.03-.06.09-.06.09-.09-.05-.25-.12-.25-.16.05-.26-.15-.42-.24-.61-.06-.14,0-.21.06-.3.09-.14.17-.28.26-.43.01-.02,0-.08-.01-.08-.05-.01-.1-.03-.14,0C.15,1.76-.03,1.93,0,2.23ZM46.92,12.83c.09,0,.19,0,.27.03.04.02.05.11.09.23-.16-.05-.25-.07-.34-.11-.02-.01-.01-.09-.02-.14ZM47.25,15.04s.1-.06.16-.1c0,.02.02.04.03.06-.04.08-.07.15-.11.23-.02,0-.03,0-.05,0-.01-.07-.05-.15-.03-.2ZM16.89,19.38c-.14-.17-.26-.32-.4-.49.25.04.41.23.4.49ZM17.72,20.05s0,.07,0,.1c-.08,0-.15-.01-.23-.03,0,0,0-.06,0-.09.08,0,.16.02.24.02ZM20.45,19.74s-.09.08-.16.14c-.06-.06-.1-.09-.14-.13.06-.03.11-.07.17-.08.04,0,.08.04.13.07ZM21.35,19.42c-.27.24-.33.23-.43,0h.43ZM22.47,19.49s-.08.08-.13.1c-.05.03-.12.03-.18.04,0,0-.03-.06-.03-.06.05-.04.09-.08.14-.1.05-.02.11-.02.16-.03,0,.02.02.03.03.05ZM23.66,17.06s-.01.05-.02.07c-.06-.02-.12-.05-.18-.07-.07-.02-.13-.04-.23-.07.21-.16.31.04.44.07ZM24.06,17.07c-.13.17-.24.34-.37.49-.15.17-.2.16-.33-.06.27.01.31-.03.4-.32.04-.13.16-.16.3-.1ZM25.09,18.95c-.09.02-.17.03-.26.05,0-.03-.01-.06-.02-.09.09-.02.17-.03.26-.05,0,.03,0,.05.02.08ZM25.91,17.78s-.01.05-.02.07c-.22.07-.31.05-.35-.16.14.03.25.06.36.09ZM26.08,16.28c-.07.03-.14.06-.2.09-.02-.03-.03-.06-.05-.08.06-.04.12-.08.19-.12.02.04.04.07.07.11ZM17.43,16.05s-.01.04-.02.06c-.29.1-.55-.02-.58-.28.21.08.4.15.59.22ZM17.45,15.68c-.19.02-.34-.08-.38-.25.12.08.24.15.38.25ZM18.07,15.86s.04.06.03.08c0,.03-.04.08-.07.08-.08,0-.16-.01-.23-.05-.09-.05-.17-.12-.27-.2.06-.02.1-.05.13-.04.14.04.27.08.4.13ZM18.61,15.89s-.12.04-.15.01c-.15-.11-.28-.23-.43-.36.14-.04.55.1.61.22.02.03,0,.12-.02.13ZM19.2,15.76c-.11-.1-.18-.15-.24-.2,0-.02.02-.03.02-.05.07.02.15.02.21.06.02.01,0,.09,0,.2ZM15.95,11.93c-.08.05-.16.1-.24.14-.02,0-.07-.04-.13-.08.14-.04.23-.07.33-.1.02.01.03.03.05.04ZM20.88,10.59c-.24.04-.31-.01-.33-.22.11.07.2.13.33.22ZM15.67,7.11c.08.11.16.22.24.34-.14.02-.4-.18-.41-.31,0-.03.02-.08.03-.07.05,0,.11,0,.13.04ZM16.05,6.97c-.11.16-.17.16-.3,0h.3ZM24.08.59c-.05.17-.09.34-.15.51-.02.06-.05.11-.08.17-.04.08-.1.16-.11.24-.02.13-.08.14-.21.1.05-.06.1-.09.1-.13.05-.22.09-.45.12-.67.03-.19.16-.26.32-.21ZM24.7.48c-.02.07-.03.14-.06.2-.04.09-.09.17-.14.26-.11.21-.16.46-.38.6-.02-.01-.05-.03-.07-.04.06-.1.12-.19.18-.29.02-.03.05-.05.06-.07.04-.18.08-.36.12-.53.02-.06.06-.13.11-.16.04-.02.11.02.17.04ZM25.25.63c-.07.12-.15.23-.23.35-.02-.01-.04-.02-.06-.03.01-.16-.08-.34.1-.46.04-.03.12-.02.18-.03,0,.06.04.13.02.17ZM25.79.53c-.08.11-.16.22-.23.34-.03,0-.05-.01-.08-.02.01-.09,0-.2.05-.26.04-.06.15-.08.23-.12.01.02.03.04.04.06ZM26.24.64c.02.18-.21.16-.25.3-.02-.02-.04-.03-.06-.05.08-.1.17-.2.25-.3.02.02.04.03.06.05ZM26.89.59c-.2.31-.22.32-.38.22.21-.28.21-.28.38-.22ZM31.42,2.01c-.11-.03-.33.15-.29-.18.11.07.2.13.29.18ZM32.17,2.76c-.06.21-.19.19-.37.11.12-.12.22-.19.37-.11ZM32.94,3.09s-.03.03-.04.05c-.09-.07-.19-.13-.28-.2.02-.03.05-.05.07-.08.08.08.17.16.26.23ZM34.07,3.14c-.06.04-.12.09-.19.14-.06-.05-.1-.08-.13-.11.06-.05.11-.11.17-.13.04,0,.1.06.14.1ZM35.33,4.39c-.14.07-.35-.03-.49-.27.16.09.31.17.49.27ZM39.67,5.69c.16.21.3.43.45.65.09.13.19.26.29.38.02.03.08.04.12.05.09.02.18.04.27.06,0,.02,0,.04,0,.05-.03.01-.06.03-.09.03-.05,0-.09-.02-.14-.03.01.06.02.12.03.19.01.04.03.08.05.12-.02,0-.04.02-.06.02-.12-.14-.26-.27-.35-.43-.19-.33-.37-.67-.64-.94-.04-.04-.07-.09-.11-.14,0-.01.02-.03.02-.04.05.01.12.01.15.04ZM39.87,6.6c.06.1.1.19.15.28-.02,0-.04.02-.06.03q-.18-.16-.1-.3ZM40.2,10.05c.07-.06.12-.1.17-.14.08-.06.15-.08.19.04.03.13.07.26.09.39,0,.05,0,.1-.02.19-.21-.18-.32-.08-.43.08-.06.09-.14.16-.21.24-.17.19-.33.38-.51.56-.09.09-.24.13-.31.23-.14.19-.26.37-.47.5-.15.09-.22.11-.32-.07.07-.04.11-.08.17-.1.24-.1.43-.26.58-.48.04-.06.06-.13.1-.17.13-.13.28-.24.42-.36.13-.11.21-.23.13-.39.14-.19.59-.12.41-.52ZM38.61,12.7c-.05-.02-.1-.03-.15-.05-.04,0-.08,0-.12-.01.06-.04.1-.03.15-.04.15-.02.32-.02.45-.09.14-.07.23-.23.35-.33.07-.06.16-.09.23-.13.02.02.03.04.05.06-.21.19-.41.38-.62.56-.22.18-.46.32-.67.51-.21.2-.42.38-.69.49-.25.1-.47.26-.7.39-.01-.02-.02-.04-.04-.06.33-.23.66-.45.98-.68.23-.16.46-.33.69-.49.04-.03.06-.09.09-.13ZM38,12.62c-.03.26-.21.14-.33.16.13-.12.25-.25.38-.37.05-.04.13-.04.19-.05,0,.02.02.05.02.07-.1.06-.27.12-.27.19ZM37.23,13.09c.06-.04.14-.05.26-.09-.16.26-.46.27-.57.53-.3.04-.55.3-.86.34,0-.02-.01-.04-.02-.06.05-.03.1-.06.16-.09-.04-.04-.07-.08-.12-.13.09,0,.15,0,.21-.01.1-.01.22,0,.3-.05.22-.13.42-.29.64-.43ZM36.66,12.88s-.02-.04-.03-.06c.09-.04.18-.09.27-.13-.02.2-.1.26-.24.19ZM35.93,14.71s.08.05.13.08c-.12.07-.23.11-.31.17-.4.31-.78.63-1.18.93-.31.23-.62.45-.94.67-.18.12-.35.25-.54.35-.46.24-.96.41-1.38.72-.01.01-.04.01-.05.02-.15.04-.3.08-.44.13-.12.04-.25.08-.37.12-.2.06-.39.13-.59.19-.14.05-.29.09-.42.16-.13.08-.25.07-.39,0,.08-.07.16-.12.25-.16.27-.12.59-.08.82-.3.02-.02.05-.01.07-.02.18-.08.36-.16.54-.24.07-.03.15-.06.22-.09.07-.02.14-.04.21-.07.4-.19.81-.38,1.2-.59.23-.12.43-.29.64-.44.05-.04.11-.07.16-.11.24-.15.48-.3.71-.46.13-.09.24-.22.36-.32.24-.19.49-.37.73-.57.11-.09.44-.24.58-.2ZM35.29,13.71c.12-.04.2-.2.36-.1-.12.05-.2.2-.36.1ZM32.71,18.12c.14,0,.29,0,.43,0,.17,0,.29-.08.39-.22.04-.05.1-.08.16-.11.18-.09.39-.14.55-.25.31-.21.6-.45.89-.69.42-.35.84-.7,1.26-1.05.14-.12.27-.24.41-.35.17-.13.35-.25.53-.37.09-.06.19-.09.28-.14.29-.16.59-.33.88-.5.02.02.03.04.05.07-.19.16-.38.31-.57.47-.15.13-.31.25-.46.38-.13.11-.24.24-.37.35-.54.46-1.15.82-1.65,1.34-.03.04-.08.06-.12.09-.38.23-.75.47-1.13.7-.04.02-.08.03-.12.05-.14.06-.28.12-.41.18-.34.17-.59.5-1.02.49-.05,0-.11.01-.16.04-.28.12-.56.25-.84.37-.05.02-.12,0-.19-.01q.06-.09.33-.21c.22-.1.44-.2.66-.29.07-.03.17-.04.21-.1.03-.04,0-.14-.01-.22ZM34.28,19.09s.01-.09.04-.1c.17-.11.34-.22.51-.33.12-.07.25-.14.37-.21.21-.11.44-.2.64-.33.36-.23.69-.52,1.06-.73.23-.13.45-.27.66-.44.44-.36.91-.68,1.31-1.1.34-.35.69-.69,1.04-1.03.09-.09.27-.14.3-.24.08-.24.22-.14.38-.11-.05.1-.11.18-.19.25-.11.09-.27.15-.34.26-.13.2-.28.35-.48.49-.21.15-.38.36-.57.54-.29.26-.58.52-.87.77-.29.25-.55.55-.93.69-.05.02-.07.08-.12.12-.08.07-.16.13-.24.19-.08.05-.18.07-.26.12-.18.1-.35.2-.55.32.03.13-.12.17-.22.23-.25.14-.5.26-.76.38-.23.1-.46.2-.69.29-.03.01-.07,0-.1-.01ZM34.42,19.62c.18-.09.38-.13.56-.23.28-.14.54-.31.82-.46.11-.06.23-.1.33-.16.16-.1.32-.22.48-.33.2-.13.42-.25.62-.39.33-.23.66-.46.98-.7.05-.04.1-.07.15-.11.22-.15.45-.29.65-.46.19-.15.34-.34.51-.52.02.01.04.02.06.04-.01.05,0,.12-.04.15-.21.2-.42.39-.65.58-.08.07-.24.09-.26.16-.07.25-.34.26-.47.44-.05.06-.12.12-.2.15-.32.13-.59.34-.85.55-.07.06-.12.15-.2.2-.35.2-.72.38-1.07.57-.14.08-.26.19-.4.28-.12.07-.25.14-.37.2-.2.09-.4.18-.6.25-.05.02-.13-.03-.19-.05.04-.06.08-.13.14-.16ZM40.93,13.07s.05-.1.08-.13c.02-.02.1,0,.11.02.04.07.06.15.1.24-.04.02-.11.04-.18.06-.04-.08-.08-.14-.12-.2ZM41.07,13.76v.34c-.15-.22-.15-.26,0-.34ZM40.84,11.22q.12,0,.22-.27c.03.2.07.39.09.59,0,.02-.07.05-.1.07-.08-.15-.15-.27-.21-.39ZM40.98,10.46s-.04,0-.07,0c-.02-.37-.03-.75-.05-1.17.15.15.21,1.05.12,1.17ZM40.83,9.19c.03-.2-.25-.34-.12-.55.06.08.1.17.17.23.04.04.12.06.17.05.03-.01.04-.1.05-.16.01-.07.02-.15.02-.23.09.13.15.25.17.38.05.27.08.55.12.82,0,.01,0,.03,0,.04.15.16.09.36.1.54,0,.15,0,.3,0,.45,0,.06.02.14.06.16.03.02.11-.02.16-.04.05-.02.1-.03.19-.06-.03.07-.03.1-.05.11q-.26.27-.26.65s0,.08,0,.11c0,.04.03.08.04.12.01.08.03.15.02.23,0,.09-.05.18-.06.27-.01.08-.01.15-.02.23-.02,0-.04,0-.06,0,0-.06-.02-.11-.02-.17,0-.2,0-.4-.02-.6-.03-.41-.05-.82-.1-1.23-.03-.22-.1-.44-.14-.62,0-.14-.01-.25-.02-.36,0-.07-.04-.14-.04-.2.02-.21-.05-.34-.3-.31-.03.04-.06.08-.09.12ZM41.67,15.65c-.12.01-.24.2-.35.05,0-.03,0-.05.01-.08.12.01.23.02.34.03ZM41.49,15.23s-.03,0-.05,0v-.39s.06,0,.08,0c-.01.13-.02.26-.03.39ZM42.11,12.48s.02.06.02.06c-.11.06-.21.11-.32.16,0-.02,0-.04-.01-.06.06-.05.13-.12.2-.16.03-.02.08-.01.12,0ZM42.09,9.06c-.13-.1-.21-.15-.32-.24.14-.04.25-.08.32.06.02.04,0,.1,0,.18ZM41.1,8.15s-.05.03-.07.05c-.04-.04-.12-.08-.13-.13-.01-.15-.11-.16-.21-.19-.05-.01-.09-.06-.14-.1.01-.02.03-.03.04-.05.04.03.09.07.16.11.01-.1.02-.18.03-.26.02,0,.04-.01.07-.02.08.19.17.39.25.58ZM40.53,5.7s.03-.03.05-.04c.22.11.51.5.48.71-.19-.24-.36-.45-.52-.66ZM39.67,13.57c-.14.14-.28.25-.46.3,0-.02-.02-.03-.03-.05.12-.12.25-.24.37-.37.24-.26.47-.52.71-.78.1-.11.2-.22.39-.21v.48c-.12.02-.24,0-.3.05-.23.18-.46.37-.67.57ZM40.58,13.23s.04.03.06.04c-.04.18-.07.37-.09.5-.22.07-.39.12-.57.18.21-.25.41-.49.6-.72ZM38.8,13.58s-.11.07-.2.13c.02-.08.02-.12.04-.14.22-.23.51-.38.69-.65.13-.2.38-.29.52-.53.18-.29.5-.5.76-.75.17.19.06.43-.21.5-.08.02-.17.06-.22.12-.2.26-.46.46-.66.72-.19.24-.48.41-.72.61ZM39.62,11.99c.32-.42.64-.84.97-1.27.02.01.04.03.06.04.03.2.02.38-.17.51-.15.1-.31.21-.4.36-.11.19-.34.19-.45.35ZM40.6,8.25c-.07-.09-.19-.16-.12-.3.02,0,.04-.01.06-.02.04.1.09.19.13.29-.02,0-.04.02-.06.02ZM41.08,6.43s.06-.03.08-.05c.05.09.11.19.16.28-.03.02-.06.03-.09.05-.05-.09-.11-.19-.16-.28ZM40.73,17.39c-.02.12-.07.23-.11.34-.02,0-.04,0-.07,0,0-.17.02-.33.02-.49.02,0,.03,0,.05-.01.03.05.1.11.1.16ZM39.72,16.22s-.03-.01-.05-.02c.03-.07.04-.16.09-.21.21-.24.44-.47.67-.72.04.01.1.04.19.07-.32.31-.61.6-.9.89ZM34.26,18.52c-.18.1-.36.2-.54.29-.03.02-.07.03-.1.04-.09.03-.18.06-.28.08-.06.02-.13.02-.23.03.13-.11.22-.18.31-.26.02-.02.05-.03.08-.04.25-.12.51-.22.75-.36.31-.18.6-.4.89-.6.36-.25.74-.47,1.08-.74.4-.32.81-.62,1.21-.93.33-.26.65-.53.98-.8.45-.38.89-.78,1.5-.96-.04.04-.08.1-.13.13-.25.19-.55.32-.76.58-.11.13-.27.22-.4.34-.22.2-.45.4-.65.63-.23.27-.64.33-.77.7,0,.02-.04.02-.07.03-.07.04-.15.06-.21.11-.18.14-.33.3-.52.42-.27.16-.55.29-.83.44-.04.02-.08.05-.12.08-.19.12-.38.24-.57.36-.18.12-.35.24-.52.37-.03.02-.06.04-.09.06ZM40.4,5.53c-.12-.12-.25-.24-.37-.35.02-.01.03-.03.05-.05.1.14.34.15.37.36-.02.01-.03.03-.05.04ZM42.06,2.55s-.02.05-.04.07c-.09-.05-.18-.1-.27-.16.17-.1.26-.05.31.09ZM43.15,3.56c-.1.04-.19.09-.29.13-.01-.03-.02-.05-.03-.08.1-.04.19-.09.29-.13.01.03.02.06.03.08ZM43.68,4.3c-.16.05-.41-.07-.55-.27.26-.05.44.04.55.27ZM44.49,3.31c-.27.09-.45-.01-.42-.23.15.08.27.15.42.23ZM45.47,3.21s-.02.03-.03.04c-.14-.08-.29-.16-.43-.25,0-.03,0-.05,0-.08.09-.03.18-.09.26-.08.22.03.13.24.21.36ZM46.61,3.25s-.09.02-.13,0c-.07-.03-.13-.09-.2-.11-.16-.05-.32-.08-.48-.12,0-.03,0-.06-.02-.09.08-.03.18-.11.24-.09.18.08.35.19.52.3.03.02.04.06.06.1ZM46.74,4.09s-.05.02-.07.01c-.12-.07-.24-.15-.4-.25.16-.06.45.07.48.17,0,.02,0,.05-.01.07ZM47.32,3.15c-.12.04-.23.08-.33.12,0-.02-.01-.04-.02-.06.16-.2.22-.21.35-.06ZM47.38,4.57c-.06-.05-.12-.1-.19-.14-.11-.08-.23-.16-.34-.24.01-.02.02-.05.04-.07.11.05.23.1.33.16.12.07.23.15.36.23-.05.07-.1.15-.2.06ZM47.13,6.38s.02-.06.02-.06c.08.02.16.05.24.08-.01.03-.02.06-.03.1-.08-.04-.15-.07-.23-.11ZM47.05,5.26c-.08-.01-.15-.02-.22-.02-.03-.07-.05-.13-.08-.21.27-.06.46.04.52.3-.08-.03-.15-.05-.21-.07ZM45.84,4.87c.35.22.66.41,1.01.62-.23.04-.95-.38-1.01-.62ZM44.9,3.7c.14.02.25.02.34.06.27.15.53.32.79.5.04.02.03.11.05.17-.05,0-.12,0-.16-.02-.33-.22-.65-.44-1.02-.7ZM45.4,4.6c.1-.07.15-.1.2-.14.02,0,.04.01.06.02-.01.07-.02.13-.03.2-.06-.02-.12-.04-.22-.08ZM45.29,4.48c-.1-.02-.22-.02-.31-.08-.26-.15-.51-.33-.76-.49-.09-.06-.19-.12-.33-.2h.64c0,.11-.03.22,0,.25.13.11.29.19.44.28.11.06.23.11.34.16,0,.02-.02.05-.03.07ZM44.27,4.94c.14-.18.19-.18.33-.05.08.07.16.14.24.2.12.09.26.16.39.24-.02.03-.04.06-.05.09-.3-.16-.6-.32-.91-.49ZM43.98,5.41c-.08-.03-.16-.06-.24-.1.01.07.03.14.04.21-.25-.15-.32-.3-.23-.51.08.03.16.09.24.09.3,0,.39.25.56.42,0,0,0,0,0,0,0,0,0,0,0,0,.22.05.44.11.66.16,0,.02,0,.04,0,.05-.14,0-.29,0-.42-.03-.09-.02-.16-.12-.23-.18,0,0,0,0,0,0,0,0,0,0,0,0-.12-.04-.24-.07-.36-.11ZM46.52,10.24s.02-.03.04-.04c.13.11.26.22.4.33-.24,0-.38-.09-.43-.28ZM45.81,9.76c.27-.01.52.14.64.41-.21,0-.65-.28-.64-.41ZM45.4,10.52s-.03.02-.04.04c-.04-.11-.09-.23-.12-.35,0-.03,0-.08.02-.1.02-.02.08-.02.1,0,.1.07.23.13.29.23.13.21.28.27.49.15,0,0,.02.01.04.03-.06.05-.11.11-.17.16.04.06.09.12.13.19.02.04.01.09.02.13-.04-.01-.1,0-.13-.03-.15-.12-.28-.25-.43-.36-.05-.04-.13-.06-.19-.09ZM45.7,12.55c-.18-.17-.33-.37-.5-.56.01-.01.02-.02.04-.03.12.02.25.04.35.05.12.17.25.35.4.56-.11,0-.24.03-.28-.02ZM45.42,19.87c.02.06.07.12.06.19,0,.04-.06.08-.13.15v-.32s.04-.01.07-.02ZM45.78,20.54s-.09.04-.1.04c-.05-.1-.1-.21-.16-.34.18.04.3.21.26.31ZM45.85,16.66s.08.09.12.14c-.05.03-.1.06-.15.1-.01-.07-.03-.13-.04-.2.02-.01.05-.02.07-.04ZM46.87,18.47s0,.04-.02.06c-.13.04-.2-.06-.28-.15.01-.02.02-.04.03-.06.09.05.18.1.26.14ZM46.66,16.84c.11.08.21.15.32.23-.16.05-.32-.06-.32-.23ZM46.59,18.96c-.12-.09-.25-.19-.39-.3.25-.01.44.15.39.3ZM46,16.26s.03-.03.04-.04c.16.19.32.38.47.56-.17.07-.51-.23-.52-.51ZM45.94,17.68c.14.21.42.24.5.53-.4-.1-.53-.24-.5-.53ZM46.12,18.68c-.06.09-.08.16-.13.17-.1.04-.16-.02-.17-.16.08,0,.16,0,.3-.02ZM47.02,16.04s-.02.03-.03.04c-.06-.03-.12-.06-.17-.1-.2-.13-.41-.25-.58-.4-.17-.16-.46-.27-.36-.63.39.37.77.73,1.14,1.09ZM47.15,17.6c-.2.2-.25.18-.34-.14.13.05.23.09.34.14ZM47.4,19.26c-.04.06-.08.14-.14.16-.04.01-.11-.06-.16-.09.07-.05.15-.1.22-.14l.07.07ZM46.85,22c.22-.16.38-.12.51.13-.16-.04-.31-.08-.51-.13ZM46.65,23.75s.03-.06.05-.1c.06.04.13.07.19.11-.02.03-.03.06-.05.09-.07-.03-.13-.07-.2-.1ZM46.53,22.74s.04-.05.08-.09c.05.06.08.11.12.16-.03.02-.08.07-.09.06-.04-.04-.08-.08-.1-.13ZM45.86,19.25s.03-.05.05-.07c.06.04.13.07.19.12.17.13.3.33.56.23.02,0,.06.01.09.02-.02.02-.03.03-.05.05-.08.04-.16.08-.24.12-.2-.15-.4-.31-.6-.46ZM45.69,20.76c.14.09.27.16.4.24-.28.04-.39-.03-.4-.24ZM45.5,22.43s-.05-.05-.04-.07c.01-.03.04-.05.06-.06.13.03.25.04.36.09.04.02.05.12.07.19-.05,0-.11.02-.15,0-.1-.04-.21-.09-.3-.15ZM45.31,23.99s.02-.06.03-.09c.07.03.14.06.21.08-.01.03-.03.07-.04.1-.07-.03-.13-.05-.2-.09ZM45.05,21.89c.03-.18.07-.41.1-.64,0,.32.3.43.52.64h-.62ZM45.15,14.29v-.31h.06v.31s-.04,0-.06,0ZM45.05,9.53c-.05-.24-.1-.43-.15-.65.29.25.57.49.85.73-.01.02-.03.04-.04.06-.18-.1-.36-.21-.55-.31-.04.06-.06.1-.12.18ZM43.86,23.01s-.03-.02-.04-.04c.12-.27.24-.54.35-.8.02,0,.05.02.07.02-.08.24-.15.49-.24.73-.01.04-.09.06-.14.08ZM43.42,23.45c.09-.14.12-.23.19-.29.05-.05.13-.08.2-.09.02,0,.09.05.09.06,0,.06-.03.13-.07.16-.12.06-.25.1-.4.16ZM43.04,23.99h.43c-.14.16-.28.06-.43.06v-.06ZM42.76,23.27c-.13.07-.3.1-.45.1-.16,0-.33-.04-.49-.07-.02,0-.03-.02-.04-.03-.23-.31-.47-.61-.68-.93-.12-.18-.28-.38-.1-.63.06-.08.08-.2.1-.3.01-.06,0-.15-.03-.19-.12-.13-.07-.24,0-.36.02-.04.06-.07.07-.11,0-.29,0-.58,0-.89h.17c-.04.06-.06.1-.1.16.13.06.2.08.27-.07.14-.31.1-.67.31-.96.1-.15.08-.39.11-.59.05-.28.09-.56.14-.84.05-.28.12-.56.17-.84.02-.13.03-.27.05-.4.02-.11.05-.21.06-.32.03-.18-.15-.39.1-.53.01,0,0-.05.01-.07.02-.1.04-.19.07-.29,0-.06-.04-.12-.03-.19.02-.29.07-.56.03-.86-.04-.24.03-.5.05-.75.01-.21-.02-.42.04-.62.09-.28.06-.56.03-.84,0-.05-.02-.1-.02-.14.01-.43.03-.85.05-1.28,0-.1,0-.2,0-.3-.03-.3-.06-.6-.09-.9,0-.05,0-.1-.01-.15-.1-.3-.2-.6-.31-.89-.03-.09-.08-.19-.16-.23-.06-.04-.17,0-.33.01.13-.09.23-.16.35-.24,0,.02,0-.01,0-.03-.07-.17-.13-.33-.21-.5-.08-.16-.16-.33-.26-.48-.18-.29-.38-.57-.57-.85-.19-.27-.37-.55-.58-.8-.11-.14-.28-.23-.42-.35.29-.24.48-.24.79-.08.21.11.41.28.68.26.04,0,.08.03.12.05.26.17.53.34.78.52.1.07.2.17.27.28.12.18.22.37.33.56.1.17.19.34.28.51.08.15.12.33.23.44.16.15.22.31.21.52,0,.03.01.06.03.09.26.42.36.89.38,1.37,0,.12.03.19.16.21.06,0,.11.07.16.1,0,.02-.02.03-.03.04-.05,0-.1,0-.16,0,.02.15.04.28.07.4.04.15.1.29.12.44.02.17,0,.34,0,.51-.01.35.02.4.32.48-.25.42-.24.64-.01.76,0,.07-.02.13-.01.18,0,.05.03.1.03.14-.01.18-.02.35-.02.53,0,.42.1.84.06,1.26,0,.01,0,.03,0,.04.01.25.04.49.03.74,0,.14-.14.29.08.38.01,0,.01.05,0,.07-.03.13-.04.27-.1.38-.06.11-.05.17,0,.28.04.07.03.17.03.25-.02.15-.05.3-.08.45-.03.14-.07.28-.09.41-.01.1.02.2.03.29,0,.08.03.17.02.25-.01.09-.06.17-.07.26-.01.16,0,.33,0,.49,0,.38-.18.75-.11,1.14,0,.03-.02.07-.03.11-.03.13-.06.25-.08.38-.01.06.02.15-.02.18-.19.23-.09.46-.02.7-.17,0-.16.12-.19.24-.05.21-.15.41-.23.61-.05.13-.16.24-.17.37-.02.22-.13.35-.28.46-.25.18-.5.35-.77.49ZM39.05,21.29c0-.08.1-.2.19-.24.24-.11.49-.2.74-.29.21-.07.43-.05.61-.02-.02.33-.05.63-.07.93-.06.01-.12.02-.17.03.02.07.03.14.05.21,0,.04.04.07.04.1.02.3.22.51.37.75.14.23.39.33.62.46.3.16.6.33.96.32.04,0,.07.02.11.03-.13.08-.25.14-.38.16-.1.02-.24.09-.3-.09,0-.02-.09,0-.14-.01-.07,0-.14.02-.2,0-.24-.09-.44-.29-.73-.22-.01,0-.03-.02-.04-.04-.33-.3-.62-.64-.8-1.06-.15-.35-.28-.72-.65-.99,0,.12-.05.23-.01.3.12.25.25.5.4.74.13.2.29.37.43.55.03.04.03.09.05.14-.01,0-.03.02-.04.03-.06-.05-.12-.08-.17-.14-.18-.24-.35-.48-.53-.72-.07-.09-.15-.18-.25-.3,0,.01.02-.04,0-.07-.13-.17-.09-.37-.09-.55ZM39.22,18.52c.05.02.1.04.1.04-.13.07-.26.14-.4.23-.09.06-.16.14-.25.2-.25.17-.5.34-.76.5-.04.02-.12.01-.15-.01-.02-.03-.02-.12,0-.15.04-.05.12-.07.17-.11.14-.09.29-.17.42-.26.2-.13.38-.28.58-.41.12-.08.24-.14.37-.2,0,0,0,0,0,0,0,0,0,0,.01,0,.13-.18.23-.38.4-.51.15-.12.25-.23.3-.44.07.04.14.07.21.11-.06.08-.12.13-.14.19-.08.18-.16.32-.36.4-.15.06-.27.17-.41.26,0,0,0,0,0,.01,0,0,0,0,0,0-.03.06-.06.11-.1.18ZM37.62,20.32s.1-.03.13-.06c.34-.28.66-.57,1.02-.83.26-.19.5-.41.68-.67.13-.18.25-.2.43-.18.03.17-.03.29-.14.4-.04.04-.07.1-.08.15-.05.34-.05.69-.29.98-.08.09-.13.14-.25.11-.05-.01-.13,0-.17.03-.17.13-.32.27-.48.41-.04.03-.1.05-.17.07,0-.05-.01-.06-.01-.06.16-.19.26-.44.51-.54.38-.16.62-.44.76-.82.02-.06,0-.14,0-.21-.06.03-.12.05-.17.09-.23.22-.42.47-.74.6-.23.1-.42.29-.64.42-.11.07-.25.1-.37.15,0-.02-.01-.03-.02-.05ZM35.44,20.62c.19-.04.39-.08.58-.12,0,0,0,0,0,0,0,0,0,0,0,0,.02-.03.03-.08.06-.1.37-.24.74-.47,1.11-.7.04-.03.11-.02.16-.02-.01.05-.02.12-.05.16-.03.04-.09.07-.13.1-.3.17-.61.33-.91.49-.07.04-.16.05-.24.07,0,0,0,0,0,0,0,0,0,0-.01,0-.11.07-.22.15-.33.2-.07.03-.16,0-.24,0,0-.03,0-.05,0-.08ZM34.55,20.48s-.04-.02-.05-.04c.01-.02.01-.04.02-.04.46-.23.91-.45,1.37-.67.39-.19.75-.43,1.1-.69.25-.19.51-.35.78-.5.25-.14.45-.41.41-.62.17.17.29.05.42-.04.05-.04.1-.07.15-.11.31-.26.63-.52.92-.8.18-.17.33-.38.49-.58.04-.04.09-.08.13-.12.02.01.04.02.06.03-.02.08-.01.17-.06.22-.11.13-.25.24-.37.36-.2.19-.33.43-.55.62-.34.3-.67.61-1.07.84-.32.18-.59.44-.92.62-.25.14-.48.33-.72.5-.07.05-.17.06-.25.11-.29.18-.58.37-.86.56-.03.02-.06.02-.09.03-.16.06-.31.13-.47.19-.15.05-.3.1-.45.14ZM34.23,20.7c.09-.03.18-.06.27-.07.02,0,.06.04.07.07,0,.02-.03.07-.04.07-.09.01-.19.01-.28.02,0-.03-.01-.06-.02-.09ZM33.82,19.99c.11-.06.21-.1.31-.15-.1.23-.14.24-.31.15ZM33.29,19.59c.35-.28.53-.34.71-.23-.23.1-.39.35-.71.23ZM33.03,20.06c.1-.03.2-.06.3-.09.01.02.02.05.03.07-.1.04-.2.07-.3.11,0-.03-.02-.06-.03-.09ZM32.47,19.89c.2-.06.38-.12.55-.17,0,.02.01.04.02.07-.15.17-.34.2-.57.1ZM32.19,20.75c.09.25-.25.13-.25.3q-.1-.18.25-.3ZM31.85,20.05c.23-.05.39-.09.55-.12,0,.02.01.03.02.05-.02.02-.03.06-.05.07-.12.04-.23.09-.35.11-.04,0-.09-.05-.17-.1ZM30.3,19.79c.21-.06.42-.11.63-.16.11-.03.22-.07.33-.1.23-.06.47-.09.69-.17.25-.1.47-.25.71-.35.12-.05.26-.03.39-.05,0,.03,0,.05.01.07-.07.04-.14.06-.2.11-.19.15-.38.28-.65.25-.08,0-.16.05-.24.08-.11.04-.22.11-.34.13-.16.03-.35-.08-.47.11-.01.02-.07,0-.11,0-.05,0-.11,0-.14.03-.2.15-.4.06-.6.03ZM30.39,19.24c.31-.15.64-.22.98-.23-.31.17-.61.36-.98.23ZM29.43,18.88c.3-.09.6-.18.93-.28-.07-.06-.11-.1-.14-.13.2.08.36.04.56-.02.34-.09.61-.33.97-.37.21-.03.4-.19.6-.29.12-.06.25-.13.37-.19.08-.04.16-.1.24-.14.21-.12.43-.24.64-.36.03-.02.05-.05.07-.06.37-.07.61-.36.88-.58.15-.12.38-.19.42-.44,0-.02.07-.05.11-.05.21,0,.33-.08.28-.27.21-.13.41-.25.6-.38.18-.13.34-.28.51-.42.03-.02.08-.03.12-.03.11,0,.22.02.38.04-.02.04-.04.1-.08.13-.16.11-.35.19-.5.32-.35.29-.67.6-1.02.89-.18.15-.38.25-.57.38-.19.12-.38.25-.57.38-.19.12-.39.22-.57.35-.31.21-.63.39-.99.52-.08.03-.15.07-.23.1-.25.1-.49.19-.74.29-.23.09-.46.18-.69.26-.17.06-.35.13-.53.18-.19.06-.38.12-.58.14-.12.01-.23-.03-.33.08-.02.02-.08,0-.13,0,0-.02,0-.04-.01-.07ZM29.13,18.64c.17-.2.22-.2.33-.05-.1.02-.19.03-.33.05ZM28.24,18.54c.06-.05.13-.08.2-.1.16-.04.32-.07.48-.11.09-.02.17-.07.25-.1,0,.03.02.05.03.08-.25.29-.61.25-.96.24ZM27.99,17.99s.03-.08.06-.08c.14-.04.29-.06.44-.1.32-.09.66-.07.97-.22.21-.1.46-.15.69-.22.14-.04.3-.06.43-.13.26-.13.51-.29.77-.43.07-.04.14-.07.22-.08.19-.04.35-.25.3-.4.11,0,.25.02.34-.03.24-.12.46-.28.69-.42.34-.22.62-.54,1.01-.69.06-.02.1-.12.15-.18-.06-.01-.12-.03-.18-.05-.02,0-.04-.02-.06-.03.07-.05.13-.04.19-.05.08,0,.16,0,.24-.02.14-.04.27-.09.4-.16.14-.07.18,0,.21.08-.11.1-.21.2-.31.28-.34.24-.68.48-1.03.71-.32.22-.63.45-.96.66-.41.26-.9.38-1.28.7,0,0-.01,0-.02,0-.18.08-.38.13-.54.24-.19.14-.38.2-.61.19-.08,0-.18.02-.26.04-.17.05-.33.13-.5.17-.21.05-.42.07-.63.11-.02,0-.05.01-.07.02-.19.04-.37.09-.56.13-.02,0-.06-.03-.09-.05ZM27.42,18.03h.42s0,.04,0,.06c-.14.01-.28.02-.42.04,0-.03,0-.06,0-.09ZM27.29,17.49c.05-.03.1-.08.15-.09.29-.06.58-.11.88-.16.02,0,.04,0,.06-.01.16-.07.33-.15.5-.2.34-.11.71-.14,1.03-.31.15-.08.3-.15.46-.21.3-.12.61-.21.89-.36.4-.21.78-.44,1.16-.69.34-.23.66-.51.99-.76.05-.04.14-.03.2-.04-.02.06-.01.15-.05.19-.21.18-.42.35-.64.52-.09.08-.18.17-.29.22-.24.13-.49.23-.73.36-.12.06-.21.19-.33.24-.36.16-.69.39-1.08.5-.07.02-.14.09-.21.11-.41.12-.82.23-1.24.34-.16.04-.32.08-.49.12-.24.06-.48.14-.72.2-.11.02-.23-.03-.33.09-.03.03-.13,0-.19,0,0-.02-.01-.04-.02-.06ZM27.03,17.31c.07-.03.14-.05.21-.07,0,.03.02.05.03.08-.08.03-.15.07-.23.11,0-.04-.02-.11-.01-.11ZM26.59,17.15s.01-.1.04-.11c.16-.05.32-.09.48-.12.25-.05.49-.08.74-.12,0,0,.01,0,.02,0,.18-.07.36-.14.54-.2.15-.05.3-.08.44-.13.14-.05.28-.14.42-.19.14-.05.29-.06.42-.12.5-.24,1-.47,1.49-.73.36-.19.71-.42,1.06-.63.11-.06.21-.21.4-.1-.03.03-.04.06-.07.08-.17.11-.35.2-.52.31-.26.17-.52.34-.78.51-.12.08-.23.18-.36.23-.31.13-.65.2-.94.36-.34.19-.69.3-1.06.4-.31.09-.62.18-.94.27-.2.06-.41.12-.62.16-.24.05-.49.09-.77.14ZM32.06,13.49c.09-.11.19-.2.33-.14,0,.02.02.05.03.07-.11.05-.22.09-.33.14-.01-.03-.02-.05-.03-.08ZM32.34,14.14c-.14.12-.27.19-.45.15.11-.2.25-.21.45-.15ZM31.66,14.58c-.1.13-.19.27-.3.37-.08.07-.21.08-.31.13-.31.14-.62.28-.93.42-.19.09-.39.16-.58.25-.21.09-.42.19-.63.28-.21.08-.42.16-.64.21-.15.03-.31,0-.47,0,0-.02,0-.05,0-.07.3-.09.6-.17.9-.26.1-.03.19-.05.29-.08.13-.04.26-.08.39-.11.17-.03.25-.13.23-.3.52-.05,1.4-.43,1.45-.63-.02-.05-.03-.1-.07-.19.25.13.44-.19.69-.01ZM30.85,13.56s-.02-.05-.03-.07c.06-.19.21-.13.39-.11-.14.07-.25.12-.35.18ZM30.41,14.43s.04.04.06.06c0,.11.07.24-.14.27-.09,0-.17.09-.26.13-.29.13-.57.28-.87.39-.29.12-.59.21-.89.3-.17.05-.35.07-.53.11,0-.03-.01-.05-.02-.08.12-.14.31-.15.47-.19.13-.04.29.02.36-.16,0-.03.08-.03.12-.04.26-.08.52-.15.78-.23.11-.04.23-.08.33-.14.2-.13.4-.27.6-.4ZM29.98,14.53c-.1,0-.21,0-.31-.01,0-.02,0-.04,0-.05h.31s0,.05,0,.07ZM29.1,14.45s.12.02.18.04c-.03.05-.05.13-.1.15-.25.11-.51.23-.78.3-.16.04-.34,0-.51,0,0-.02,0-.04,0-.06.06,0,.11-.01.17-.02.05,0,.1,0,.14,0,.3-.13.6-.27.9-.4ZM27.88,14.36q.23-.16.36-.08c.1-.03.18-.05.25-.08-.15.25-.46.3-.61.15ZM28.93,13.92c.16-.06.28-.11.41-.15,0,.03.02.05.02.08-.15-.05-.2.23-.43.07ZM31.25,14.03c.09-.08.17-.16.28-.26-.04.26-.1.31-.28.26ZM31.49,13.16c.07-.05.14-.11.21-.16.02,0,.04.02.06.03-.01.06-.01.16-.04.17-.06.03-.15,0-.22,0,0-.02,0-.03-.01-.05ZM27.14,16.4c-.22.19-.35.22-.5.12.07-.07.14-.13.22-.2.09.03.18.05.29.09ZM26.79,11.39s-.03-.06-.05-.08c.06-.03.13-.07.19-.1.01.03.04.07.04.07-.06.04-.12.07-.18.11ZM26.32,8.87s0-.03,0-.05h.34v.05h-.34ZM26.26,18.91c.21-.03.3.06.25.28-.08-.09-.16-.18-.25-.28ZM24.91,12.03s.09.02.13.03c-.18.25-.34.48-.5.71-.04-.19.21-.69.37-.74ZM24.35,6.34c.07-.03.14-.04.21-.04.08,0,.18.02.24-.02.25-.18.5-.22.77-.02-.41-.02-.8.26-1.23.08ZM23.92,12.62s.12.05.13.1c.09.26.08.26.34.32-.05.08-.09.16-.16.3-.15-.17-.3-.31-.41-.47-.03-.04.07-.16.1-.25ZM22.82,12.02c-.08-.03-.17-.07-.24-.11-.13-.08-.28-.17-.22-.35.07-.22.16-.44.25-.65.08-.18.21-.35.28-.54.13-.36.29-.43.62-.26.04.02.09.07.13.07.27.02.27.22.32.42.05.18.13.36.22.59-.11.34-.11.83-.72.84-.11-.23.13-.33.2-.53-.28-.03-.27.39-.58.33.15-.19.31-.33.4-.5.09-.17.27-.31.26-.52-.02-.01-.04-.03-.06-.04-.25.24-.49.47-.74.71-.03-.02-.05-.04-.08-.06.21-.34.42-.68.62-1.03-.03-.02-.05-.04-.07-.06-.03.02-.09.04-.09.07,0,.15-.13.2-.22.29-.06.05-.09.13-.14.19-.06.07-.12.14-.2.19-.14.09-.27.32-.2.42.13.18.27.36.42.55-.04,0-.11.01-.16,0ZM23.34,7.22c.21-.09.23-.08.37.24-.21.02-.22-.21-.37-.24ZM23.68,9.19s.03.05.04.07c-.08.04-.16.07-.25.12,0-.2.11-.19.22-.19ZM23.67,6.21c.17.05.3.08.43.12-.17.12-.3.06-.43-.12ZM22.77,9.95c.13-.12.26-.24.38-.36.02.02.03.03.05.05-.1.15-.18.32-.38.37-.02-.02-.04-.04-.05-.06ZM22.82,10.13c-.11.1-.22.21-.33.31-.02-.02-.05-.05-.07-.07.17-.04.11-.34.4-.24ZM22.62,12.51c-.1.19-.2.23-.28.12-.06-.09-.12-.17-.17-.26-.02-.04-.02-.1-.03-.15.09.02.18.05.18.09,0,.21.16.2.3.21ZM22.25,13.64s-.09-.06-.13-.1c-.04-.04-.07-.08-.11-.12.01-.01.03-.03.04-.04.15.09.3.13.46.02-.06-.09-.12-.16-.19-.26h.42c-.08.15-.12.27-.2.36-.11.14-.24.26-.37.39-.02.02-.09-.02-.14-.03.03-.03.07-.05.1-.08.04-.04.08-.09.12-.13ZM21.93,11.41c-.22-.16-.19-.47.06-.56.11.13.17.27.13.44-.02.07,0,.15.01.22,0,.08,0,.16-.01.24,0,.03-.05.08-.08.08-.03,0-.09-.04-.09-.07-.01-.11,0-.23,0-.37ZM21.54,14.14h.36c.03.22-.19.13-.27.23-.03-.09-.06-.16-.09-.23ZM21.5,12.95s.11-.05.13-.03c.12.08.23.18.37.3-.16.03-.26.08-.31-.09-.01-.03-.08-.05-.11-.08-.03-.03-.05-.07-.08-.1ZM21.27,14.67c.02-.14.04-.22.06-.35.03,0,.11,0,.14.04.03.03.01.12-.02.17-.04.05-.1.08-.18.14ZM21.13,13.89s.02-.07.02-.11c.07.04.15.08.26.14-.17.09-.24.06-.29-.04ZM20.12,14.15c.13.1.24.18.35.26.07.05.13.1.2.13.14.04.28.07.45.11-.1.21-.17.27-.34.14-.18-.14-.37-.28-.58-.35-.17-.06-.13-.12-.08-.27ZM20.83,12.84c.09-.06.17-.08.2.06.03.1.05.2.08.31-.15.02-.17,0-.28-.36ZM21.05,14.27s-.03.03-.04.04c-.29-.02-.33-.07-.21-.3.09.09.17.17.25.26ZM20.52,13.21c-.14-.12-.28-.24-.43-.37.13-.05.28-.11.3.04.03.21.1.29.3.26.04.27.04.28-.21.3-.04,0-.07.01-.11.02,0,0,0,0,0,0,0,0,0,0,0,0,.01.22-.15.41-.27.37.06-.1.11-.21.17-.32.02-.03.07-.03.1-.05,0,0,0,0,0,0,0,0,0,0,0,0,.02-.07.05-.14.07-.21.02-.02.04-.03.06-.04ZM19.99,11.65c-.2.1-.25-.02-.32-.1.01-.02.02-.05.04-.07.08.05.17.1.29.17ZM20.16,12.66c-.09.02-.18.04-.27.06q-.13-.42-.26-.5c-.02.13-.06.26-.04.37.02.11.11.2.16.3.04.1.07.21.1.32-.15.03-.29-.14-.63-.79.1-.07.19-.18.31-.21.16-.04.34-.03.51-.03.01,0,.04.04.04.06.03.14.05.29.08.44ZM20.82,12.72c-.14-.04-.26-.04-.3-.1-.12-.16-.22-.35-.34-.54.08-.05.17-.09.28-.16.12.26.22.5.36.8ZM21.14,12.37s-.08.02-.11,0c-.04-.03-.09-.08-.09-.12.02-.18,0-.31-.22-.36,0-.02-.01-.04-.02-.07.05-.03.1-.06.14-.09.1-.07.16-.08.19.07.02.15.08.29.12.43.01.04,0,.1-.01.13ZM21.24,13.39s.06-.03.09-.04c.05.1.23.15.06.33-.05-.1-.1-.2-.15-.3ZM21.88,12.43c.05.13,0,.21-.09.22-.1-.09-.17-.15-.22-.22-.03-.03-.04-.08-.05-.13-.04-.12-.06-.25-.1-.37-.04-.13-.12-.25-.14-.38-.04-.23.2-.12.31-.21,0,.1-.01.21,0,.31.01.1.04.21.08.31.07.16.16.31.22.47ZM21.55,9.22c-.13-.03-.17-.11-.17-.23,0-.09-.01-.18,0-.26,0-.05.02-.09.03-.13.04.02.08.04.13.05.06,0,.12,0,.17-.03.03-.02.03-.08.06-.11.19-.23.38-.46.57-.69.03-.04.02-.1.03-.16-.02-.01-.04-.02-.06-.03-.22.24-.44.49-.66.73-.02-.01-.04-.03-.07-.04.12-.25.34-.44.47-.74-.19.05-.32.09-.46.13.13-.21.15-.23.34-.19.11.02.19,0,.25-.1.05-.09.11-.18.17-.27.02.02.04.05.06.07.04.04.09.07.12.1-.02.08-.05.15-.07.21.02,0,.04,0,.06.01.05-.04.1-.1.15-.12.31-.1.55.03.65.33.03.1.07.2.14.28.22.28.23.74-.02.99-.18.17-.38.31-.58.46-.04.03-.11.03-.17.04.02-.07.03-.15.07-.2.18-.22.38-.43.56-.65.02-.03,0-.09,0-.14-.03,0-.09,0-.1.02-.18.26-.52.35-.64.67-.06.17-.18.14-.32.08.05-.08.08-.16.14-.19.37-.23.56-.62.79-.96.01-.02.02-.08,0-.08-.03-.01-.07-.02-.1-.01-.04.02-.06.06-.09.09-.21.22-.45.42-.64.66-.15.19-.45.3-.38.62-.14.02-.25.04-.32-.11-.02-.04-.08-.08-.13-.09ZM22.39,6.63s-.02-.05-.03-.07c.09-.06.14-.22.35-.11-.13.07-.22.13-.32.18ZM21.84,7.01c0-.28.08-.33.33-.24,0,.02.02.04.03.06-.11.06-.23.12-.36.18ZM20.64,8.18c.16-.1.34-.18.51-.27.02.02.04.04.06.06-.22.18-.19.42-.19.65,0,.04-.03.08-.05.12-.09.18-.07.23.07.29.12.33.24.62.55.8-.07.03-.15.06-.17.04-.13-.13-.25-.27-.37-.41-.22-.27-.38-.57-.35-.94,0-.05-.06-.1-.07-.15-.01-.06-.02-.17,0-.19ZM20.64,7.48c.15.04.25.07.37.11-.09.15-.17.13-.37-.11ZM17,7.89s-.03.03-.04.05c-.05-.03-.1-.05-.14-.09-.23-.2-.32-.53-.65-.63.2-.11.37-.05.44.13.03.07.06.14.1.19.09.12.2.23.3.34ZM17.12,7.13c.07.24.21.41.41.56.03.02.04.08.05.12-.03.02-.05.04-.08.06-.2-.23-.4-.45-.63-.71.05-.03.1-.08.15-.11.02,0,.08.04.09.07ZM17.7,6.87c.03.27.16.47.35.66.09.09.17.21.25.31-.02.02-.04.03-.06.05-.44-.22-.62-.69-1-.96.07-.07.1-.13.15-.17.13-.1.29-.05.31.11ZM18.08,4.68c.41-.24.82-.47,1.22-.73.42-.27.81-.58,1.22-.87.14-.1.31-.17.45-.27.05-.03.06-.12.09-.18-.02,0-.03-.01-.05-.02-.06.02-.11.05-.17.07,0-.02-.02-.04-.03-.06.09-.06.18-.11.29-.18.06.21.14.18.28.09.15-.09.33-.12.51-.15.28-.04.57-.04.86-.08.23-.03.45-.1.68-.14.08-.01.17.02.24,0,.17-.04.32-.12.49-.14.4-.05.73-.36,1.16-.3.01,0,.02,0,.04-.01.25-.06.49-.14.74-.19.23-.05.47-.04.7-.01.25.03.51,0,.76.02.49.03.99.06,1.48.1.08,0,.19.02.25.07.13.12.25.24.42.31.2.07.38.18.57.27.21.09.43.16.63.26.37.2.72.43,1.08.64.31.17.62.34.94.49.11.05.23.08.32.11.04-.09.05-.17.09-.19.04-.02.11.02.17.04-.03.07-.07.14-.12.25.41.22.84.44,1.26.66.18-.16.27-.16.37,0-.09,0-.19.02-.28.03,0,.02,0,.04,0,.06.17.1.35.19.52.31.23.15.45.33.69.48.34.22.7.43,1.05.63.11.06.23.09.35.13,0-.02.02-.04.03-.06-.03-.08-.05-.19-.11-.23-.18-.14-.39-.25-.57-.39-.14-.1-.25-.24-.37-.36.01-.01.03-.03.04-.04.1.06.2.1.29.17.24.17.46.36.71.53.21.14.44.26.66.39.21.13.41.28.62.4.08.04.19.02.29.03,0-.02,0-.04.01-.06-.03-.03-.06-.06-.09-.08-.15-.11-.3-.22-.44-.34-.14-.11-.26-.23-.4-.34-.11-.09-.23-.17-.34-.26-.31-.22-.61-.45-.92-.66-.12-.09-.27-.14-.4-.22-.11-.07-.21-.15-.32-.23-.05-.04-.09-.09-.14-.14.02-.02.03-.03.05-.05.13.09.27.19.41.28.03.02.07.02.11.03.17.09.35.16.5.27.24.18.47.38.71.57.11.09.24.16.36.24.14.09.31.16.43.28.14.13.25.2.41.04.02.02.04.03.05.05.12.16.21.33.35.47.11.11.24.19.19.37,0,.02.02.07.04.08.17.06.18.2.17.34,0,.13-.04.26-.06.4,0,.03-.03.09-.02.1.03.02.08.04.12.04.05,0,.1-.04.15-.07.12.13.32.22.22.44-.08.18-.1.39-.28.52-.05.03-.11.1-.11.15-.01.28-.16.47-.33.66-.14.16-.23.36-.36.54-.1.14-.21.26-.3.4-.17.26-.17.29-.1.54,0,0,0,0,0,0h0c.07-.03.15-.05.22-.08,0-.02-.01-.04-.02-.06-.06-.01-.12-.03-.23-.05.07-.03.11-.06.13-.06.24.07.39-.06.51-.23.15-.21.37-.37.39-.66,0-.03.06-.07.1-.08.14-.05.32-.32.26-.43-.12-.22.09-.3.17-.43.07-.12.17-.04.2.06.04.16-.01.29-.12.42-.04.05-.06.12-.09.18-.03.07-.06.16-.1.22-.08.1-.2.18-.26.29-.09.15-.28.29-.14.46-.13.09-.26.17-.37.27-.12.12-.22.26-.34.38-.05.06-.16.09-.18.15-.04.11-.1.14-.19.14-.04,0-.1.01-.12.04-.14.19-.27.39-.42.6-.24,0-.45.17-.65.35-.09.07-.16.14-.27.07.08-.09.15-.17.23-.25.05-.05.12-.09.18-.13.13-.09.26-.18.38-.29.08-.08.11-.21.19-.28.12-.1.26-.16.39-.24.14-.08.22-.2.18-.37,0,0,0,0,0,0,0,0,0,0,0,0-.17-.02-.33-.12-.49.05-.16.18-.33.34-.5.52.04.03.08.07.13.11-.05.01-.07.03-.09.03-.31,0-.52.18-.71.41-.08.1-.22.17-.33.24-.16.1-.33.17-.49.27-.15.1-.28.23-.43.35-.03.02-.08.02-.12.04-.14.05-.28.09-.42.14,0,.02,0,.03.01.05.06.03.12.05.18.08-.3.19-2.7-.14-2.82-.33.27-.04.56-.09.85-.13,0,.01,0,.03,0,.04-.06.03-.12.06-.19.1.24.15.67.13.88,0,.12-.07.23-.21.42-.12-.05.06-.09.1-.14.14-.12.11-.1.23.06.25.17.01.35,0,.51-.06.17-.06.31-.17.47-.27.24-.15.48-.31.73-.46.09-.06.17-.13.26-.16.22-.07.37-.2.41-.35.24-.19.45-.34.64-.5.04-.04.06-.1.09-.16.06-.1.12-.28.17-.28.21,0,.29-.16.41-.27.14-.14.25-.31.4-.5-.12-.02-.2-.06-.25-.04-.11.05-.22.12-.31.19-.13.1-.24.22-.37.32-.2.16-.21.16-.07.33-.14.06-.28.1-.42.17-.08.04-.13.13-.2.19-.11.1-.23.2-.34.3-.09.08-.18.17-.28.24-.18.12-.4.19-.54.34-.12.14-.22.23-.41.21-.03,0-.05.05-.09.06-.15.05-.27.22-.46.11.02-.08.04-.15.06-.22.29.08.68-.19.64-.42.16-.06.35-.1.48-.2.17-.14.39-.21.5-.42.04-.08.11-.15.18-.21.22-.18.45-.36.66-.54.03-.03.04-.11.02-.15-.02-.04-.09-.08-.13-.07-.14.04-.32.06-.42.15-.2.19-.37.42-.55.63-.03.03-.08.08-.11.07-.2-.03-.29.11-.4.23-.08.09-.17.15-.27.23-.08.07-.16.13-.25.19-.06.04-.12.08-.17.11-.14.09-.34.14-.41.26-.08.14-.15.17-.28.18-.13.01-.25.05-.37.08,0-.01,0-.02-.01-.05.21-.12.43-.23.63-.37.25-.18.48-.38.72-.57.09-.08.15-.24.25-.25.27-.05.42-.24.59-.41.11-.11.18-.26.29-.36.22-.2.46-.38.71-.58-.08-.06-.12-.09-.15-.11.11-.07.23-.11.31-.2.1-.12.11-.33.34-.32.03,0,.06-.05.08-.08.1-.13.19-.26.28-.39-.04-.04-.07-.08-.12-.14.09,0,.17.01.21-.02.08-.06.15-.13.21-.21.01-.02-.05-.12-.07-.12-.08,0-.2.01-.23.07-.12.16-.21.34-.32.52-.01.02-.03.05-.05.05-.22.03-.26.23-.36.38-.21-.05-.49.16-.48.38,0,.19-.11.23-.23.22-.16,0-.23.08-.28.2-.02.03-.01.08-.02.12.04,0,.08,0,.12-.01.06-.01.11-.04.16-.05,0,.02.01.04.02.06-.1.05-.2.1-.31.14-.06.02-.13.01-.19.01,0,.06.01.12.02.2-.28-.03-.45.17-.65.32-.21.16-.28.54-.66.45-.01,0-.03.02-.05.03-.29.19-.57.41-.87.57-.41.22-.85.39-1.26.6-.14.07-.41.07-.26.39-.25-.04-.47-.08-.7-.12.07-.1.08-.17-.06-.2-.13-.03-.25-.06-.38-.1-.07-.03-.12-.09-.21-.15.25-.07.34-.05.49.07.29.24.39.25.71.07.07-.04.14-.07.21-.07.25,0,.46-.1.67-.23.34-.21.69-.41,1.03-.62.07-.04.11-.12.19-.22.19,0,.38-.1.53-.27.12-.14.22-.31.33-.46.02-.02.06-.05.08-.04.24.06.36-.1.5-.25.1-.11.24-.2.17-.39.27,0,.44-.14.54-.37.03-.05.09-.09.12-.14.04-.07.06-.15.09-.22-.09,0-.17,0-.26.02-.03,0-.06.04-.09.06-.18.13-.39.22-.51.43-.03.05-.1.08-.1.12,0,.05.04.1.07.15-.35.07-.64.24-.86.54.06.03.11.06.15.09,0,.02-.01.04-.02.06-.51-.04-.8.35-1.18.59,0,.03.01.08.02.13-.15.03-.3.02-.42.08-.23.1-.44.24-.67.34-.22.1-.44.17-.67.25,0-.02-.02-.03-.03-.05.11-.07.22-.13.33-.19-.03-.05-.06-.09-.09-.14.09,0,.15.05.2.03.36-.09.69-.26,1.01-.45.17-.1.22-.36.47-.36.02,0,.05-.05.04-.07,0-.03-.04-.06-.07-.07-.04-.01-.08,0-.12,0,0-.02-.01-.05-.02-.07.52.14.79-.21,1.14-.53-.25,0-.49-.07-.63.02-.26.17-.61.23-.76.56,0,.02-.05.03-.08.04-.11.06-.22.1-.33.17-.16.09-.3.21-.47.3-.33.18-.66.35-.99.51-.08.04-.2,0-.31,0,0-.02,0-.04,0-.06.1-.05.2-.08.3-.14.31-.17.64-.3.91-.52.19-.15.37-.28.6-.35.16-.05.44-.38.44-.51.33-.08.6-.26.82-.5.13-.14.24-.28.41-.38.17-.1.32-.26.5-.41-.33-.19-.51.07-.72.16-.15.07-.27.19-.17.41-.07.01-.11.02-.16.03-.1.01-.22,0-.29.04-.23.17-.45.35-.67.54-.06.05-.1.13-.16.17-.16.1-.34.17-.48.29-.23.18-.43.38-.72.46-.07.02-.15.01-.22.02,0-.02-.02-.04-.02-.07.12-.08.23-.19.37-.23.22-.07.35-.2.45-.4.22-.03.9-.51.92-.66-.02-.03-.04-.07-.07-.11.41-.08.7-.3.75-.57-.18-.03-.34-.06-.51.07-.27.21-.39.63-.83.6-.25.28-.67.35-.86.7-.02.03-.06.07-.08.07-.22-.03-.36.1-.51.22-.03.02-.07.03-.1.04-.26.09-.54.14-.78.27-.21.12-.42.16-.64.17-.06,0-.13.01-.18.04-.15.09-.15.2-.02.32.15.14.31.1.48.05.06-.02.11-.05.17-.07.23-.08.47-.16.71-.24.17-.06.33-.14.5-.2.04-.01.09.02.14.04,0,.03,0,.05,0,.08-.54.2-1.08.4-1.68.61.18.04.26.23.44.12.13-.08.22-.15.25.07,0,.05.08.09.12.14.04.06.08.13.12.19-.01.01-.03.03-.04.04-.04-.02-.08-.03-.12-.05-.13-.06-.25-.14-.38-.18-.36-.1-.65-.31-.94-.54-.07-.05-.16-.08-.24-.11-.01,0-.02-.02-.03-.04.02-.04.05-.09.08-.15-.35-.31-.69-.61-1.03-.92-.12-.11-.2-.27-.32-.39-.35-.37-.7-.75-.93-1.21-.1-.2-.1-.46-.29-.62-.02-.02,0-.07,0-.11h0s0,0,0,0c0,0,0,0,0,0-.09-.1-.18-.2-.26-.3-.1-.13-.19-.27-.28-.4.02-.02.04-.04.06-.07.05.03.1.06.14.1.03.03.04.08.07.11.23.18.58.17.81-.01.22-.17.45-.32.7-.44.11-.06.24-.1.21-.27,0-.03.04-.09.06-.09.17,0,.26-.17.4-.22.13-.05.16-.11.15-.23,0-.14.01-.25.2-.23.04,0,.11-.04.14-.08.07-.1.12-.21.18-.32-.29-.19-.69.09-.78.56-.28.09-.48.28-.62.51-.1.16-.43.31-.66.26.28-.2.68-.28.7-.69.3-.08.4-.25.24-.42.17-.12.41-.18.46-.43,0-.04.01-.1-.01-.13-.01-.02-.09-.02-.12,0-.09.06-.19.13-.26.21-.1.12-.16.3-.28.37-.2.12-.35.28-.47.47-.09.14-.19.13-.32.1.08-.13.15-.25.22-.36,0-.01.03-.02.05-.03.2-.02.27-.19.37-.32.12-.15.09-.39.3-.49.02-.01,0-.12,0-.17,0-.02-.09-.03-.11-.02-.11.09-.21.19-.3.29-.06.07-.08.18-.15.21-.24.12-.4.3-.52.54-.03.07-.14.11-.22.15-.01,0-.07-.06-.07-.06.04-.08.08-.16.14-.23.14-.17.38-.25.43-.5.01-.05.03-.1.05-.15-.06,0-.14-.03-.19,0-.08.04-.15.11-.21.18-.07.09-.12.2-.17.3-.02,0-.04,0-.06,0,.02-.13.02-.27.07-.38.07-.14.18-.25.31-.43-.15-.05-.27-.13-.37-.11-.14.03-.14.17-.11.3,0,.03-.02.07-.03.1-.03.06-.08.12-.09.19-.02.12-.07.17-.18.14,0-.14.03-.27,0-.38-.07-.15-.07-.23.11-.27.04,0,.06-.1.09-.15-.04-.02-.08-.05-.13-.06-.14-.03-.25.03-.29.15-.02.06.04.16.07.27-.22.06-.02.3-.14.46-.04-.2-.14-.32-.39-.3.07-.09.12-.15.16-.2,0-.02,0-.04-.01-.06-.11,0-.23.02-.37.02.08.17.26.28.08.43-.11,0-.21-.02-.31-.03.14-.07.18-.14.09-.28-.12-.2-.23-.06-.32,0-.12.08-.03.15.03.24.1.14.16.32.24.48-.02,0-.03.02-.05.03-.13-.17-.34-.26-.38-.51,0-.06-.09-.12-.15-.14-.04-.01-.13.05-.14.1-.02.05.02.12.05.18.03.05.1.1.1.15-.01.15.08.23.17.32.04.04.05.11.08.16-.02.01-.04.02-.06.04-.05-.04-.11-.08-.15-.13-.21-.31-.43-.61-.62-.93-.08-.14-.17-.14-.27-.07-.1.07-.12.17-.03.29.13.19.24.39.36.59-.01.01-.02.02-.04.03-.05-.04-.12-.07-.15-.13-.14-.25-.39-.44-.45-.75-.04-.18-.22-.34-.34-.5-.02-.03-.1-.05-.11-.03-.04.03-.08.1-.07.13.04.15.11.3.17.45.05.11.11.22.16.33-.03.02-.06.03-.09.05-.21-.32-.41-.65-.64-1.01-.02.08-.03.11-.04.14,0,.04,0,.07,0,.1-.21.06-.21.06-.38-.09-.06-.05-.15-.04-.23-.06,0,.08-.03.17,0,.24.02.08.08.15.14.22.03.04.09.05.14.07.01-.05.02-.1.03-.17.03,0,.08,0,.14,0-.05.12-.13.22-.14.33-.01.11.03.24.06.36-.02,0-.03,0-.04,0-.2-.17-.4-.34-.61-.5-.04-.03-.1-.03-.16-.04,0,.04-.03.1-.02.12.24.26.25.68.62.86-.07.01-.14.01-.18-.02-.23-.18-.46-.38-.69-.56-.08-.06-.23-.12-.27-.09-.11.09.02.16.08.22,0,0,0,.01,0,.02.16.22.32.44.48.66.02.03.04.06.09.14-.08-.04-.12-.04-.15-.06-.18-.14-.36-.29-.55-.42-.12-.09-.26-.2-.44,0,.28.32.55.64.82.96-.07.03-.1.03-.12.02-.19-.17-.35-.37-.59-.47-.03-.01-.04-.07-.07-.08-.11-.06-.22-.14-.34-.17-.1-.03-.14.05-.08.14.08.11.17.21.26.32.12.15.23.3.35.45-.02.02-.03.04-.05.06-.08-.05-.18-.09-.25-.16-.16-.15-.31-.31-.48-.45-.05-.04-.16-.01-.23.01-.02,0-.03.14,0,.19.13.18.27.35.41.52.04.06.09.11.13.17-.01.02-.03.04-.05.05-.07-.05-.15-.1-.22-.16-.22-.19-.43-.38-.66-.56-.05-.04-.15-.02-.22-.03,0,.07,0,.16.03.21.15.21.32.42.48.62-.46-.24-.78-.68-1.25-.94,0,.03-.04.07-.03.1.06.14.14.27.21.41.03.05.08.08.1.13.12.29.4.49.7.47,0,0,.01.02.02.03-.05.04-.09.09-.15.11-.06.02-.16.02-.2-.02-.16-.14-.31-.29-.47-.44-.14-.13-.29-.26-.43-.39-.05-.05-.13-.16-.11-.2.06-.11.14-.25.25-.29.14-.06.28-.14.26-.28-.06-.37-.16-.73-.42-1.02-.13-.15-.07-.44.1-.54ZM26.93,7.14s0,.06.01.09c-.1.02-.2.03-.3.04,0-.03,0-.06-.01-.09.1-.02.2-.03.3-.05ZM32,12.09c-.06.17-.3.27-.43.2.14-.07.27-.12.43-.2ZM17.79,4.18c.14-.08.21-.32.44-.21-.13.1-.21.32-.44.21ZM16.72,4.5c.19-.05.36-.1.56-.16-.12.22-.33.26-.56.16ZM10.03,3.97s0-.1.04-.13c.06-.06.13-.1.19-.14v.32c-.06-.01-.14-.03-.23-.04ZM8.94,4.08c.12.01.23.02.37.03,0,.04,0,.09,0,.13-.11.03-.19.05-.28.07-.03-.08-.06-.16-.09-.24Z"/>
      <polygon class="cls-1" points=".78 3.14 .77 3.14 .77 3.14 .78 3.14"/>
      <path class="cls-1" d="M19.24.34s-.09,0-.13,0c-.9,0-1.8,0-2.69,0-.05,0-.11.02-.16.04-.09.02-.18.08-.27.07-.18-.02-.35-.09-.53-.09-.38-.01-.77,0-1.15,0-.25,0-.49-.01-.74,0-.16.01-.31.08-.47.09-.22.02-.44,0-.66.02-.28.02-.55.06-.83.09-.12.02-.23.05-.35.08-.03,0-.06,0-.09,0-.09-.02-.19-.06-.28-.06-.34-.01-.68-.03-1.02-.01-.31,0-.62.06-.93.08-.15.01-.38.07-.45-.01-.14-.15-.31-.11-.45-.17-.01,0-.03.01-.05.02.02.05.04.1.06.15-.26.09-.54.03-.68-.18.32-.04.63-.09.93-.12.19-.02.38-.01.57,0,.19.01.39-.05.57.08.04.03.15-.03.23-.06.09-.03.18-.11.28-.11.32-.02.64-.02.97-.02.23,0,.48-.06.63.17.07-.07.11-.16.16-.17.35-.02.69-.07,1.04-.1.74-.06,1.48-.02,2.22-.02.58,0,1.16,0,1.73,0,.63,0,1.25,0,1.88,0,.22,0,.44.06.66.09.02,0,.04.04.06.05-.02.03-.04.07-.07.08Z"/>
      <path class="cls-1" d="M6.18.75c-.28,0-.55.08-.85.05-.52-.06-1.05-.08-1.56.09-.1.03-.22,0-.31.02-.25.08-.51.14-.76.22-.2.06-.39.06-.59.08-.08,0-.17.04-.25.07-.15.05-.3.11-.46.15-.16.03-.33.04-.52.06-.03-.07-.03-.14.11-.18.16-.05.31-.14.47-.19.17-.06.37-.15.53-.11.27.07.46-.13.69-.16.11-.01.24-.06.36-.07.34-.04.68-.07,1.02-.11.03,0,.05-.03.08-.04.22-.06.43-.16.65-.17.72-.02,1.44-.01,2.16,0,.06,0,.12.02.2.04-.03.04-.04.07-.05.07-.31.08-.62.2-.93.21Z"/>
      <path class="cls-1" d="M12.9,12.4c.02-.05.05-.09.08-.14.02.06.05.12.05.18,0,.04-.04.09-.06.13-.08.16-.03.42.12.53.07-.13.13-.27.2-.41.03,0,.05.02.08.02-.04.13-.07.26-.1.39.02,0,.04.01.06.02.02-.05.04-.12.08-.16.04-.04.11-.06.16-.07.03,0,.1.05.09.07-.02.17.11.34-.05.5-.03.04-.04.16,0,.19.2.24-.09.4-.04.61-.03,0-.07,0-.1,0-.04-.23-.08-.47-.11-.7,0-.06,0-.13,0-.19-.01-.04-.06-.09-.09-.1-.02,0-.07.04-.1.07-.13.14,0,.27.04.39.04.1.1.18,0,.26-.06.05-.16.11-.22.09-.1-.04-.18-.12-.17-.28,0-.2-.05-.4-.07-.61,0-.07-.02-.14,0-.2.05-.2.12-.4.19-.6Z"/>
      <path class="cls-1" d="M23.31,15.58c-.21,0-.23-.19-.23-.35-.21.01-.27-.12-.31-.27-.01-.05-.04-.14-.06-.14-.16,0-.16-.12-.17-.22,0-.11-.03-.21-.03-.31,0-.02.05-.06.07-.07.03,0,.08.03.08.05.05.15.09.3.14.45.24.04.37.2.36.43.15.05.32.09.32.28,0,.06-.11.16-.17.16Z"/>
      <path class="cls-1" d="M15.36,5.64c.21-.06.42-.12.63-.17.27-.06.54-.11.78-.16.12,0,.21,0,.3,0,.03,0,.05.05.07.07-.02.02-.04.05-.07.06-.13.04-.27.07-.4.1-.36.1-.72.21-1.07.31-.06.02-.14.03-.2.01-.05-.01-.09-.08-.12-.13,0-.02.05-.09.08-.1Z"/>
      <path class="cls-1" d="M11.21,7.49s-.01-.04-.02-.06c.03-.04.06-.11.1-.13.28-.12.44-.37.66-.54.19-.15.37-.29.55-.45.09-.09.25-.11.38-.15.02.03.03.06.04.08-.08.07-.15.17-.25.21-.26.12-.42.33-.62.52-.13.12-.25.26-.39.35-.14.08-.3.11-.46.17Z"/>
      <path class="cls-1" d="M6.48,3.22c.08.13.04.24-.08.27-.06.02-.18-.06-.22-.13-.05-.1-.08-.23-.08-.34-.01-.26,0-.52,0-.78.2.04.24.1.21.23-.05.2-.11.4.06.58.05.05.07.11.11.17Z"/>
      <path class="cls-1" d="M11.05,8.26c-.11-.02-.2-.08-.3-.13,0,0-.01-.05,0-.07.12-.16.24-.32.39-.51.05.24.15.03.26.06-.07.17-.13.33-.21.49-.03.06-.1.17-.14.16Z"/>
      <path class="cls-1" d="M23.24.68s.09.1.08.13c-.04.14-.1.28-.16.45-.09-.07-.18-.14-.29-.21.09-.14.15-.25.23-.35.02-.03.11-.05.14-.03Z"/>
      <path class="cls-1" d="M20.1,18.07s-.06.04-.09.03c-.2-.04-.38-.23-.44-.52.19.13.35.24.5.35.03.02.04.09.04.14Z"/>
      <path class="cls-1" d="M23.22,14.81c-.05-.14-.12-.26-.13-.39-.01-.11.12-.16.2-.1.15.11.14.34-.07.49Z"/>
      <path class="cls-1" d="M47.84,12.57c-.09.04-.2.13-.27.11-.09-.03-.15-.15-.22-.24.35-.12.35-.12.49.13Z"/>
      <polygon class="cls-1" points="47.35 12.44 47.34 12.45 47.34 12.44 47.35 12.44 47.35 12.44"/>
      <path class="cls-1" d="M11.18,2.84s.07-.01.08,0c.1.1.18.21.12.35-.02.06-.14.11-.2.1-.1-.01-.14-.09-.05-.19.03-.03.03-.09.05-.14-.01,0-.02,0-.03,0,.01-.04.02-.08.04-.11Z"/>
      <path class="cls-1" d="M13.66,10.84s-.07.09-.11.13c-.08-.09-.16-.18-.28-.31.09-.07.14-.15.18-.15.17.03.17.2.21.32Z"/>
      <path class="cls-1" d="M18.04,2.2s.07.08.08.13c.03.16-.01.31-.21.41,0-.15,0-.3,0-.45,0-.03.08-.06.12-.09Z"/>
      <path class="cls-1" d="M23.73,14.9c-.16.25-.27.24-.42,0,.2-.23.22-.23.42,0Z"/>
      <path class="cls-1" d="M7.29,3.48c-.12.03-.14-.07-.12-.17-.04-.12.03-.2.13-.18.07.02.13.13.19.2-.07.05-.12.14-.2.16Z"/>
      <path class="cls-1" d="M11.6,9.43s-.05.08-.08.09c-.03,0-.1-.02-.11-.04-.02-.15-.02-.29-.03-.44.04,0,.08-.01.12-.01.03.14.07.27.1.41Z"/>
      <path class="cls-1" d="M13.38,12.37c.07.02.14.05.21.07.05.02.1.04.17.07-.05.07-.08.13-.11.17-.11-.03-.19-.05-.31-.09.01-.05.03-.14.04-.22Z"/>
      <path class="cls-1" d="M19.07,9.36c-.13-.11-.14-.48-.03-.64.05.08.09.15.11.2-.03.16-.06.29-.08.44Z"/>
      <path class="cls-1" d="M4.73,3.32c-.14.13-.19-.04-.27-.11,0-.03,0-.06,0-.08.1-.03.2-.05.3-.08,0,.09.03.23-.02.27Z"/>
      <path class="cls-1" d="M6.83,3.19s-.14.07-.16.05c-.11-.11-.09-.24,0-.37.2.05.22.18.17.32Z"/>
      <path class="cls-1" d="M19.05,2.48s-.13,0-.16-.03c-.08-.09,0-.25.16-.36.09.14.07.27,0,.39Z"/>
      <path class="cls-1" d="M19.96,1.95c.13-.02.13.09.13.18,0,.05-.06.09-.09.14-.06-.04-.12-.09-.22-.16.09-.08.13-.15.19-.16Z"/>
      <path class="cls-1" d="M2.64,3.32c-.2.11-.27-.02-.34-.11-.01-.02.06-.14.1-.15.2-.03.11.2.24.26Z"/>
      <path class="cls-1" d="M11.37,8.49s.05-.09.07-.13c.02.04.05.08.07.13.01.03,0,.06,0,.09,0,.03,0,.05,0,.07-.02.05-.06.09-.09.13-.02-.04-.06-.08-.06-.13,0-.05,0-.11,0-.17Z"/>
      <path class="cls-1" d="M14.11,11.07c-.05-.05-.1-.09-.17-.15.06-.08.09-.13.12-.18.05.07.12.13.15.21,0,.02-.07.08-.1.12Z"/>
      <path class="cls-1" d="M3.98,3.24c.01-.11.03-.21.05-.37.1.1.16.15.27.25-.14.05-.23.08-.32.12Z"/>
      <path class="cls-1" d="M15.4,10.93s-.08.11-.12.16c-.05-.07-.09-.15-.15-.24.04-.05.07-.08.1-.11.06.06.14.12.18.19Z"/>
      <path class="cls-1" d="M12.7,10.2s-.1-.1-.17-.17c.06-.07.09-.12.13-.16.05.06.12.12.15.2.01.02-.07.09-.11.13Z"/>
      <path class="cls-1" d="M14.5,10.43c.05.14.09.27.15.45-.1-.03-.2-.05-.21-.08-.01-.12-.1-.25.05-.37Z"/>
      <path class="cls-1" d="M12.13,9.38c-.07.08-.1.12-.14.16-.05-.08-.11-.16-.15-.24,0-.01.07-.09.08-.09.07.04.13.1.21.17Z"/>
      <path class="cls-1" d="M15.7,3.04s-.07.07-.11.11c-.04-.05-.09-.1-.15-.17.07-.06.11-.11.15-.15.04.07.09.14.11.21Z"/>
      <path class="cls-1" d="M8.36,3.35c-.05-.05-.1-.1-.16-.17.05-.06.08-.1.11-.13.05.07.1.13.14.2,0,.02-.06.07-.09.1Z"/>
      <path class="cls-1" d="M14.59,3.25c-.13-.17-.13-.21.02-.34.05.06.09.12.14.19-.06.06-.1.1-.16.15Z"/>
      <path class="cls-1" d="M21.54,16.49s-.06.07-.1.1c-.05-.06-.1-.13-.19-.26.06-.03.15-.08.16-.07.06.06.1.14.13.22Z"/>
      <path class="cls-1" d="M9,3.56c-.05,0-.12.02-.15,0-.09-.08-.08-.17,0-.25.03,0,.05-.01.08-.02.02.09.05.18.07.27Z"/>
      <path class="cls-1" d="M14.32,12.63c-.05.06-.1.17-.14.16-.07,0-.13-.09-.19-.13.01-.03.03-.05.04-.08.1.02.19.03.29.05Z"/>
      <path class="cls-1" d="M18.09,9.56c0,.11,0,.22,0,.32,0,0-.02.02-.03.02-.02,0-.05,0-.07,0,0-.11,0-.23,0-.34,0,0,.05,0,.08,0Z"/>
      <path class="cls-1" d="M22.05,15.67c-.05-.05-.11-.1-.15-.17-.01-.02.03-.08.06-.16.08.11.14.17.18.24,0,.01-.06.06-.09.09Z"/>
      <path class="cls-1" d="M21.11,16.2c-.09-.07-.12-.16.01-.32.05.13.08.23.12.32-.04,0-.1.02-.13,0Z"/>
      <path class="cls-1" d="M7.82,3.07s-.07.09-.09.08c-.05,0-.1-.05-.15-.08-.01-.03-.03-.06-.04-.1.05-.02.11-.07.15-.05.06.03.1.09.15.14Z"/>
      <path class="cls-1" d="M16.29,10.94c-.04-.09-.08-.19-.12-.28.03,0,.08-.03.1-.02.09.07.18.15.02.3Z"/>
      <path class="cls-1" d="M13.73,3.13s-.05.07-.1.14c-.07-.07-.11-.11-.15-.16.04-.03.09-.09.12-.09.05,0,.1.06.13.1Z"/>
      <path class="cls-1" d="M18.98,18.52s-.08.02-.1,0c-.08-.08-.16-.18-.23-.27.02-.02.03-.03.05-.05.09.08.19.15.27.23.01.01,0,.05,0,.08Z"/>
      <path class="cls-1" d="M18.58,9.2c-.02.08-.06.15-.08.23-.03-.05-.06-.1-.1-.16.04-.06.07-.11.11-.16.03.03.08.07.07.09Z"/>
      <path class="cls-1" d="M19.08,13.34s-.05.06-.08.09c-.04-.05-.1-.09-.13-.14-.02-.03.02-.09.04-.14.03.02.06.03.09.05.03.04.07.09.08.14Z"/>
      <path class="cls-1" d="M17.13,2.66s-.02.04-.02.07c-.06-.02-.15-.02-.17-.05-.02-.06,0-.14,0-.21.02,0,.04,0,.06,0,.04.07.08.13.12.2Z"/>
      <path class="cls-1" d="M.59,2.85c.2.03.2.15.19.28-.14-.04-.2-.13-.19-.28Z"/>
      <polygon class="cls-1" points=".78 3.14 .77 3.14 .77 3.13 .78 3.14"/>
      <path class="cls-1" d="M17.7,10.3v-.3s.04,0,.07,0v.31s-.04,0-.07,0Z"/>
      <path class="cls-1" d="M2.18,2.87s.1-.08.14-.12c.02.03.07.08.06.09-.02.05-.07.08-.13.15-.04-.06-.08-.11-.07-.12Z"/>
      <path class="cls-1" d="M25.26,12.59s.09,0,.13,0c0,.07-.02.13-.03.2-.03,0-.06,0-.08,0,0-.07-.02-.14-.02-.21Z"/>
      <path class="cls-1" d="M30.65,6.76s.05.14.03.16c-.12.13-.21.32-.45.24-.02,0-.04.01-.07.02.04.06.06.1.08.13-.07.07-.17.12-.18.18-.04.22-.2.31-.35.41-.14.09-.32.14-.45.24-.14.11-.35.15-.4.37.26.09.5.02.66-.18.06-.07.13-.13.21-.19.16-.13.33-.23.47-.37.21-.22.38-.48.71-.53.03,0,.05-.03.07-.06.14-.16.27-.32.42-.47.07-.07.17-.11.27-.15.02-.01.08.01.09.03.01.03,0,.09-.01.12-.14.13-.28.26-.43.39-.09.08-.2.13-.19.28,0,.04-.05.09-.1.11-.21.11-.33.36-.59.4-.02,0-.03.02-.04.04-.15.35-.47.45-.73.54-.07.11-.12.17-.15.23-.02.05-.04.11-.03.15,0,.04.08.1.1.09.08-.02.18-.05.21-.11.13-.25.36-.36.6-.46.06-.02.11-.08.16-.12.23-.23.41-.53.77-.49.03-.1.03-.19.08-.24.16-.15.34-.27.5-.41.11-.09.21-.1.35-.02-.04.07-.07.13-.11.19-.2.29-.54.45-.77.72-.26.31-.62.52-.94.77-.02.01-.05.02-.07.02-.19-.05-.28.04-.35.2-.03.05-.09.09-.14.12-.37.21-.74.43-1.12.6-.2.09-.43.11-.65.15-.04,0-.13-.06-.14-.11-.01-.05.03-.15.07-.17.17-.07.35-.12.53-.17.14-.04.28-.06.41-.12.1-.05.17-.1.27-.02.02.02.08-.01.13-.02-.02-.04-.03-.11-.06-.12-.12-.05-.26-.09-.38-.13-.12-.04-.25-.06-.35-.12-.24-.14-.38-.14-.61.08.22.07.5-.09.65.2-.09.17-.26.22-.43.26-.09.02-.19.02-.27.06-.15.07-.34-.02-.34-.18,0-.16-.03-.27-.21-.3-.05,0-.14-.1-.13-.15,0-.06.07-.15.13-.18.12-.06.25-.11.38-.12.27-.02.47-.17.71-.27.1-.04.23-.04.34-.04.04,0,.09.02.17.04-.12-.26-.12-.25.1-.42.17-.12.32-.26.48-.4.04-.04.07-.1.09-.16.05-.14.18-.15.29-.21.2-.11.37-.25.56-.36.05-.03.14-.03.18,0Z"/>
      <path class="cls-1" d="M29.16,10.75c.17-.05.33-.09.5-.13.2-.04.42-.04.6-.13.33-.16.7-.2.98-.48.07-.07.19-.11.29-.15.13-.05.27-.08.4-.12.02,0,.03-.05.04-.08.03-.06.05-.13.1-.16.23-.16.46-.31.7-.47,0-.03-.02-.11.02-.14.14-.12.28-.29.44-.31.22-.03.31-.1.42-.29.11-.2.33-.34.59-.39.05,0,.12-.06.12-.1,0-.23.19-.31.32-.44.13-.13.28-.12.47-.07-.15.17-.22.35-.42.45-.18.1-.28.32-.43.48-.05.05-.11.09-.17.14-.06.06-.12.11-.17.17-.05.06-.07.14-.12.19-.15.17-.32.28-.55.29-.03,0-.07.06-.1.09-.13.15-.22.34-.38.43-.23.14-.47.24-.67.44-.18.17-.42.26-.64.39-.07.04-.18.04-.24.09-.24.23-.57.28-.86.4-.15.06-.32.09-.48.14-.17.06-.33.13-.5.18-.05.01-.12-.02-.17-.05-.06-.04-.1-.09-.15-.15-.09-.1-.06-.19.06-.23Z"/>
      <path class="cls-1" d="M28.97,10.3c.19-.06.38-.1.56-.17.24-.09.48-.2.71-.31.17-.08.33-.17.48-.26.13-.08.26-.15.39-.24.14-.1.34-.09.45-.29.08-.15.27-.27.44-.33.13-.05.19-.15.28-.22.16-.14.34-.28.54-.35.15-.06.27-.11.34-.26.04-.09.1-.19.18-.25.1-.08.22-.13.34-.19.05-.02.11-.02.17-.03-.02.05-.02.12-.05.16-.21.23-.41.46-.64.67-.16.15-.27.39-.55.37-.02,0-.05.04-.07.06-.12.15-.23.31-.36.44-.11.11-.26.18-.39.28-.09.07-.18.13-.28.2-.13.09-.28.15-.4.25-.29.26-.6.49-1.02.48-.02,0-.05.02-.06.03-.23.21-.53.23-.82.3-.08.02-.17.04-.24.08-.11.06-.37-.07-.38-.22,0,0,0-.05.03-.06.11-.05.22-.1.33-.13Z"/>
      <path class="cls-1" d="M26.68,7.83s.06-.1.1-.1c.23-.01.44-.05.61-.22.01-.01.03-.01.05-.02.32-.13.63-.25.96-.38-.03-.03-.06-.07-.14-.15.24-.13.45-.25.67-.36.03-.02.11,0,.12.03.02.03,0,.1-.02.13-.08.09-.18.17-.27.25-.08.07-.16.15-.24.22-.17.16-.32.35-.52.46-.22.11-.44.2-.61.44.07,0,.13.02.17,0,.19-.1.37-.2.55-.31.16-.1.33-.18.48-.33.27-.28.6-.51.89-.79.17-.16.39-.28.59-.42.02.02.04.03.06.05,0,.06.01.14-.02.18-.19.24-.41.46-.6.71-.19.24-.46.39-.68.6-.25.23-.56.39-.87.53-.27.13-.55.26-.86.24-.04,0-.08-.04-.12-.07.04-.02.07-.05.11-.07.04-.01.08-.01.12-.02,0-.01,0-.03,0-.04-.07-.02-.14-.04-.22-.06,0-.06,0-.11.01-.14-.13-.06-.24-.11-.34-.16,0-.07-.02-.14,0-.2Z"/>
      <path class="cls-1" d="M28.72,9.87c.25-.08.51-.14.73-.26.42-.23.82-.5,1.23-.76.2-.12.4-.09.58.13-.16.09-.3.18-.44.26-.15.08-.31.15-.44.25-.13.11-.25.22-.41.3-.42.22-.89.29-1.33.44-.09.03-.23-.08-.34-.13,0,0,.01-.11.04-.12.12-.05.25-.08.37-.12Z"/>
      <path class="cls-1" d="M35.66,9.06c.08-.28.37-.25.56-.39.03-.02.09,0,.14.02,0,.29-.16.44-.38.53-.16.06-.31.1-.29.32,0,.03-.04.08-.07.11-.14.11-.29.22-.43.34-.14.12-.48.15-.68.04.2-.2.39-.39.58-.58,0,0,.01,0,.02,0,.3.04.32-.31.54-.37Z"/>
      <path class="cls-1" d="M38.73,8.31c.14-.08.23,0,.35.1-.15.15-.29.3-.46.48.05.14,0,.27-.17.44-.15.15-.3.3-.44.46-.12.14-.23.28-.36.41-.03.03-.12.04-.16.02-.25-.12-.26-.21-.03-.38.12-.09.28-.16.36-.28.19-.28.39-.55.69-.73-.02-.22.07-.44.22-.52Z"/>
      <path class="cls-1" d="M32.14,8.18c-.14.04-.23.24-.35.36-.06.06-.15.12-.23.14-.1.03-.2.03-.3.03-.07,0-.14-.04-.21-.07,0,0,0-.09.02-.11.16-.13.29-.32.54-.31.05,0,.14-.04.14-.06,0-.15.11-.22.22-.28.09-.05.17-.11.26-.17.1-.06.19-.11.27-.16.12.03.18.05.25.07-.04.06-.07.13-.12.17-.16.14-.25.32-.49.39Z"/>
      <path class="cls-1" d="M38.8,9.45c.02-.29.21-.52.44-.74.03-.03.12-.03.16,0,.03.02.06.11.04.14-.07.13-.15.27-.25.38-.11.12-.32.17-.21.4,0,0-.01.02-.02.03-.1.28-.35.34-.58.43-.04.01-.09-.02-.14-.03.08-.13.13-.26.21-.35.08-.09.19-.16.33-.26Z"/>
      <path class="cls-1" d="M35.46,8.4c.13-.07.25-.25.48-.1-.17.17-.31.32-.47.45-.04.04-.13.02-.2.02,0-.05,0-.12.03-.16.04-.08.09-.17.15-.2Z"/>
      <path class="cls-1" d="M37.2,8.55c.12,0,.19.11.09.19-.15.14-.33.24-.5.35-.03.02-.09-.02-.13-.03.01-.15.43-.51.54-.51Z"/>
      <path class="cls-1" d="M36,8.12s-.1-.03-.13-.05c0-.07,0-.09.01-.1.13-.13.27-.26.41-.39.02-.02.11,0,.13.03.02.03.02.11,0,.14-.13.13-.27.26-.42.37Z"/>
      <path class="cls-1" d="M27.63,4.65s.08.03.14.06c-.04.06-.08.12-.14.17-.06.06-.13.12-.2.17-.05.03-.11.05-.17.05-.02,0-.05-.08-.06-.12-.01-.19.12-.31.41-.32Z"/>
      <path class="cls-1" d="M34.72,8.42s.09,0,.1.03c.02.03.02.1,0,.12-.06.05-.13.08-.19.12-.05.03-.1.06-.14.1-.06.05-.13.11-.24.21-.05-.1-.09-.19-.09-.2.19-.12.29-.37.56-.38Z"/>
      <path class="cls-1" d="M35.34,7.69s.05.02.08.02c.01.05.05.13.03.16-.1.13-.22.25-.35.37-.03.03-.11.01-.16,0-.02,0-.04-.08-.03-.09.14-.15.29-.3.43-.45Z"/>
      <path class="cls-1" d="M36.35,8.41c.15-.13.31-.25.48-.39.05.23-.16.51-.37.56-.04,0-.12,0-.13-.02-.02-.05-.02-.13.01-.15Z"/>
      <path class="cls-1" d="M39.35,7.61s0,.1,0,.14c-.02.05-.08.1-.08.14,0,.14-.08.16-.19.16-.05-.02-.13-.03-.14-.07-.01-.05,0-.12.04-.16.06-.08.14-.14.23-.2.04-.02.1-.01.15-.02Z"/>
      <path class="cls-1" d="M37.69,7.95s.09-.02.14-.03c0,.05.02.1,0,.13-.09.12-.2.24-.31.35-.04.04-.11.04-.17.05-.01-.02-.03-.05-.04-.07.12-.15.25-.3.38-.44Z"/>
      <path class="cls-1" d="M38.66,7.77s.04.03.06.04c-.09.14-.18.28-.28.41-.02.02-.08.03-.12.02-.02,0-.04-.06-.04-.09,0-.09.28-.36.39-.38Z"/>
      <path class="cls-1" d="M39.34,8.46c.06-.11.11-.21.17-.3.02-.02.09-.03.12-.01.03.01.07.07.06.1-.03.1-.08.21-.13.3-.02.03-.1.03-.14.02-.03-.01-.05-.07-.08-.11Z"/>
      <path class="cls-1" d="M30.82,6.62s-.09-.06-.17-.12c.13-.09.22-.15.31-.22.02.04.08.09.07.1-.06.08-.13.16-.21.23Z"/>
      <path class="cls-1" d="M29.5,6.11c0,.06-.01.14-.05.17-.07.06-.16.09-.24.12,0,0-.05-.06-.05-.06.07-.1.15-.2.24-.32.05.05.1.07.1.09Z"/>
      <path class="cls-1" d="M32.95,7.39s-.08-.02-.09-.05c0-.03,0-.09.03-.11.08-.07.16-.12.29-.21,0,.1.02.19,0,.22-.06.07-.14.11-.22.15Z"/>
      <path class="cls-1" d="M23.69,4.54s.07.03.07.05c0,.11,0,.23,0,.38-.16-.1-.22-.3-.16-.38.02-.03.06-.05.09-.05Z"/>
      <path class="cls-1" d="M24.58,4.99c-.07.05-.13.13-.16.12-.05-.02-.14-.1-.13-.13.02-.06.09-.11.14-.17.04.05.08.1.15.18Z"/>
      <path class="cls-1" d="M25.68,4.76s-.07.09-.12.13c-.06-.06-.12-.12-.19-.19.04-.03.08-.06.14-.11.07.06.13.1.16.16Z"/>
      <path class="cls-1" d="M24.9,4.67c.06.03.11.08.16.13-.04.04-.07.11-.11.11-.05,0-.1-.06-.17-.11.06-.07.11-.14.12-.13Z"/>
      <path class="cls-1" d="M39.19,7.26c.07-.05.12-.1.12-.1.06.05.11.11.16.16-.03.02-.08.07-.09.06-.06-.02-.11-.07-.19-.13Z"/>
      <path class="cls-1" d="M42.42,23c.16-.05.31-.16.46-.25.26-.16.45-.37.39-.71,0-.05.05-.13.1-.16.13-.08.13-.16.09-.3-.05-.16-.08-.34-.09-.51-.03-.41-.24-.67-.65-.8-.12-.04-.25-.07-.37-.1,0,.03-.01.05-.02.08.05.02.1.04.19.08-.16.1-.27.08-.36-.04-.31.1-.38.37-.5.61-.18.34-.3.71-.27,1.09.01.24.11.48.17.72,0,.02.02.04.03.04.29.06.52.36.84.26ZM42.48,21.25s-.08-.09-.07-.13c.01-.04.07-.1.11-.11.24-.05.62.29.62.55,0,.05.02.11,0,.15-.05.07-.12.12-.17.18-.04-.05-.11-.09-.11-.13.01-.28-.16-.4-.37-.51ZM42.32,22.77c.07-.05.15-.09.22-.14.02.03.04.06.07.1-.07.04-.15.08-.22.11,0,0-.04-.05-.06-.07Z"/>
      <path class="cls-1" d="M44.13,16.9v-.66c0-.59-.05-1.19.11-1.77.03-.1.04-.17-.06-.25-.04-.04-.04-.15-.03-.22.01-.14.06-.28.05-.41-.02-.39-.06-.78-.08-1.17,0-.06.02-.13.04-.24.05.06.09.09.09.11,0,.12,0,.24.02.36.02.12.07.24.08.37.02.16,0,.33.01.49.03.37.08.74.1,1.11.02.42,0,.85,0,1.27,0,.05,0,.1-.02.15-.03.14-.09.29-.08.43.01.19-.06.32-.18.44-.02,0-.04,0-.07,0Z"/>
      <path class="cls-1" d="M43.44,8.43s.13-.02.14,0c.09.23.19.45.24.69.08.4.13.81.21,1.22.03.18.08.35.13.53-.03.12-.06.23-.1.34,0,.03-.05.05-.08.07-.02-.03-.07-.06-.07-.09,0-.22-.04-.42-.09-.64-.09-.37-.1-.77-.14-1.16,0-.07,0-.15-.02-.22-.07-.19-.16-.37-.22-.56-.02-.05,0-.12.01-.18Z"/>
      <path class="cls-1" d="M43.99,18.38c0-.19,0-.37,0-.56-.01,0-.03,0-.04,0,.05-.23.11-.46.17-.69.01-.04.08-.1.11-.09.04,0,.1.05.12.1.03.06.04.14.03.2-.03.24-.06.48-.11.72-.02.12-.07.23-.12.35-.02.05-.05.1-.07.15-.03-.05-.08-.11-.08-.16Z"/>
      <path class="cls-1" d="M42.63,6.61c-.14-.16-.22-.39-.45-.47,0,0,0-.02-.01-.03-.08-.12-.16-.24-.23-.35-.04-.06-.08-.12-.12-.19.02-.02.03-.03.05-.05.04.03.1.05.13.09.1.1.19.21.28.33.15.19.3.38.45.58.02.02,0,.07-.02.1,0,.01-.07.01-.08,0Z"/>
      <path class="cls-1" d="M43.95,19.14c.15.17.25.29.12.47-.03.04-.01.11-.03.16-.04.12-.08.24-.14.39-.12-.13-.12-.13-.09-.72,0-.09.08-.18.14-.3Z"/>
      <path class="cls-1" d="M40.31,21.13c.08-.02.16.01.15.13-.02.11.07.27-.11.28-.05,0-.11-.14-.19-.24.07-.08.1-.17.15-.18Z"/>
      <path class="cls-1" d="M22.22,8.42c.01.08.04.14.02.16-.12.18-.25.36-.39.53-.01.01-.11-.02-.14-.05-.02-.03-.03-.11,0-.14.16-.16.32-.32.52-.5Z"/>
      <path class="cls-1" d="M22.27,8.25c.13-.14.27-.28.42-.4.04-.04.11-.04.17-.06.01.02.03.05.04.07-.17.17-.35.35-.52.52-.02.02-.08,0-.13,0,0-.05,0-.1.03-.13Z"/>
    </g>
  </g>
</svg>