<?xml version="1.0" encoding="UTF-8"?>
<svg id="Layer_2" xmlns="http://www.w3.org/2000/svg" viewBox="0 0 52.95 22.89">
  <defs>
    <style>
      .cls-1 {
        fill: #2c489e;
      }
    </style>
  </defs>
  <g id="Layer_1-2" data-name="Layer_1">
    <g>
      <path class="cls-1" d="M21.38,16.9c-.06.07-.12.14-.18.22-.12.15-.24.29-.35.44-.16.21-.3.43-.46.63-.19.25-.39.48-.57.73-.21.3-.45.57-.71.82-.28.26-.57.5-.9.69-.3.18-.61.34-.93.48-.3.13-.61.25-.93.32-.25.06-.5.15-.76.14-.24,0-.48.03-.71.02-.36-.01-.7-.11-1.04-.2-.17-.05-.34-.14-.5-.22-.24-.12-.48-.25-.71-.4-.14-.1-.27-.23-.39-.35-.17-.18-.35-.35-.5-.54-.27-.35-.49-.72-.61-1.15-.07-.27-.13-.54-.15-.82-.02-.28,0-.56.03-.84.02-.24.04-.48.09-.72.08-.38.16-.75.27-1.12.1-.34.23-.68.36-1.02.19-.47.47-.9.74-1.33.29-.46.64-.87,1.08-1.21.15-.11.28-.24.44-.33.28-.16.56-.31.87-.41.38-.12.76-.2,1.16-.2.47,0,.93.04,1.38.15.28.07.56.16.81.29.35.18.69.4,1.02.61.08.05.15.06.24.02.19-.1.39-.19.58-.29.39-.19.79-.39,1.18-.58.13-.07.15-.12.04-.22-.2-.2-.41-.39-.61-.58-.22-.21-.45-.41-.65-.63-.3-.32-.59-.64-.82-1.02-.13-.22-.3-.42-.42-.64-.22-.43-.42-.87-.61-1.31-.25-.59-.43-1.2-.49-1.83-.04-.38-.05-.76-.07-1.15,0-.13.02-.16.15-.18.07-.01.15-.03.14-.11,0-.04-.09-.06-.14-.09,0,0-.01,0-.02,0-.08,0-.12-.05-.11-.13,0-.06,0-.12-.02-.18-.02-.08-.06-.1-.13-.06-.14.08-.29.17-.43.24-.14.07-.27.19-.46.12-.02,0-.05,0-.08,0-.11.01-.14.06-.14.17,0,.04-.03.09-.06.12-.04.04-.1.06-.14.09-.2.12-.4.24-.59.37-.05.04-.12.11-.12.17,0,.33-.02.66,0,.99.02.32.08.63.13.95.04.21.09.42.16.62.08.24.17.47.26.71.11.28.21.57.35.84.19.37.42.72.64,1.08.07.12.16.23.24.36.05.09.03.14-.07.16-.09.02-.18.04-.27.06-.18.04-.37.07-.55.1-.26.05-.52.11-.78.16-.15.03-.31.03-.45.08-.26.08-.51.18-.76.28-.2.08-.4.17-.59.27-.28.15-.55.31-.82.48-.31.2-.62.39-.9.62-.35.28-.67.59-.99.89-.11.1-.22.21-.33.31-.02.02-.08.01-.09,0-.07-.13-.18-.09-.28-.07-.02,0-.06.03-.06.05,0,.02.01.06.04.07.05.03.1.05.16.06.07.02.09.06.04.12-.06.07-.11.15-.16.22-.18.27-.37.53-.53.81-.14.24-.26.49-.37.75-.1.23-.21.46-.28.7-.09.32-.16.65-.21.97-.05.28-.07.57-.08.86,0,.25.01.51.04.76.03.27.07.54.14.8.06.25.16.5.26.74.13.29.26.59.43.85.19.28.43.53.67.78.12.12.28.2.41.31.24.21.53.36.81.51.42.22.86.39,1.32.49.51.11,1.02.2,1.54.25.41.05.83.03,1.24-.04.4-.08.79-.19,1.18-.3.08-.02.16-.07.24-.11.32-.16.65-.29.94-.48.42-.26.83-.55,1.2-.89.43-.39.78-.84,1.09-1.33.3-.47.45-1,.63-1.52.13-.37.24-.74.36-1.11.02-.07.04-.15.06-.22,0,0-.01,0-.02-.01-.02.01-.04.02-.06.04Z"/>
      <path class="cls-1" d="M50.83,4.5c-.1-.24-.25-.44-.49-.56-.23-.12-.47-.19-.73-.22-.19-.02-.38-.04-.58-.03-.21,0-.42.03-.62.06-.26.04-.51.09-.77.16-.2.05-.38.14-.57.21-.1.04-.21.06-.31.11-.17.08-.34.16-.51.25-.28.15-.56.3-.83.45-.15.08-.29.17-.43.26-.1.07-.21.14-.3.22-.12.1-.23.22-.35.32-.17.14-.36.27-.54.41-.24.19-.47.39-.7.58-.02.02-.05.04-.09.06-.04-.17.02-.31.06-.44.14-.43.3-.86.45-1.29.18-.5.36-.99.55-1.48.04-.1.09-.2.15-.31.1.1.19.1.28.06.03,0,.05-.06.05-.08,0-.03-.04-.06-.07-.07-.04-.01-.09,0-.14,0-.08,0-.1-.04-.08-.11.09-.26.17-.52.27-.78.14-.38.29-.76.42-1.14.12-.33.23-.66.34-.99.01-.04,0-.09.01-.13-.05,0-.09,0-.14.02-.01,0-.02.01-.04.02-.33.17-.66.33-.99.5-.31.16-.63.33-.94.48-.13.06-.19.17-.22.3-.05.2-.11.39-.17.59-.04.14-.11.26-.14.4-.06.29-.12.58-.25.86-.01.03-.02.06-.02.09-.06.24-.12.49-.19.72-.09.3-.2.59-.3.89-.06.16-.12.32-.17.49-.09.29-.18.59-.28.88-.05.16-.13.31-.19.46-.07.18-.14.36-.21.55-.03.09-.06.19-.09.28-.12.28-.24.57-.36.85-.07.17-.14.35-.22.52-.12.27-.21.56-.36.81-.09.15-.14.31-.21.46-.12.26-.23.52-.34.78-.1.24-.21.48-.31.71-.06.14-.12.27-.18.41-.11.23-.22.47-.34.7-.1.2-.2.41-.3.61-.06.12-.1.24-.15.36-.02.06-.04.13-.06.22.06-.03.08-.04.1-.05.28-.24.56-.47.84-.71.07-.06.14-.12.25-.12.06,0,.12-.01.18-.03.08-.02.1-.07.05-.13-.05-.06-.04-.12,0-.17.04-.05.08-.09.12-.14.19-.23.38-.46.57-.69.11-.14.23-.27.34-.42.14-.19.27-.39.41-.58.07-.1.16-.18.24-.26.01-.02.05-.02.07-.02.01,0,.02.04.02.06,0,.15-.03.3-.03.44,0,.5.1.97.36,1.4.07.11.14.21.21.33-.05.02-.1.03-.14.05-.03.01-.05.05-.05.07,0,.03.03.09.05.09.08,0,.17,0,.25-.01.05-.01.08-.02.11.01.25.21.51.41.82.51.31.1.63.21.95.26.29.05.6.03.9.03.36,0,.71-.09,1.05-.2.35-.11.68-.26.99-.44.14-.08.27-.16.45-.14.08.01.14-.04.14-.14,0-.04.02-.1.05-.12.16-.14.33-.28.49-.42.23-.21.47-.42.7-.64.1-.1.19-.21.28-.32,0-.02-.02-.03-.03-.05-.12.05-.24.09-.35.15-.38.22-.78.39-1.2.5-.18.05-.36.08-.54.11-.21.04-.42.07-.63.1-.05,0-.11,0-.16,0-.14,0-.28.07-.41-.03-.02-.02-.06,0-.1,0-.09,0-.19,0-.27-.02-.17-.06-.34-.14-.51-.22-.12-.06-.24-.13-.33-.23-.13-.14-.25-.3-.34-.46-.3-.52-.42-1.08-.4-1.67.01-.34.07-.69.12-1.03.02-.14.07-.27.12-.4.09-.24.17-.5.29-.72.17-.3.35-.6.57-.87.4-.49.89-.88,1.46-1.15.13-.06.26-.12.39-.17.35-.1.7-.17,1.07-.15.29.02.56.08.82.19.16.07.32.17.43.32.16.24.26.5.33.78.05.2.02.4,0,.59-.03.29-.17.54-.31.79-.12.22-.27.43-.4.65-.03.05-.04.1-.05.15.06-.02.12-.02.17-.06.2-.13.39-.28.59-.42.2-.15.41-.29.61-.45.32-.25.54-.59.74-.94.2-.33.32-.69.37-1.08.05-.41.04-.81-.11-1.19Z"/>
      <path class="cls-1" d="M34.72,9.61c.16-.23.32-.47.44-.72.15-.32.28-.66.39-1,.12-.38.14-.79.1-1.19-.03-.29-.08-.59-.16-.87-.08-.27-.2-.54-.33-.8-.11-.22-.25-.43-.41-.63-.13-.17-.3-.31-.46-.46-.31-.28-.65-.5-1.04-.64-.05-.02-.11-.06-.14-.11-.08-.12-.21-.16-.35-.11-.07.02-.15.02-.22.02-.06,0-.11-.03-.17-.03-.14,0-.28,0-.42,0-.14,0-.29,0-.43,0-.09,0-.18,0-.26,0-.13,0-.25-.03-.38.04-.05.03-.13.01-.18-.01-.17-.08-.27-.07-.43.05-.05.04-.12.1-.16.01-.08-.14-.19-.11-.3-.09-.04,0-.09.08-.09.12,0,.09-.04.12-.11.14-.08.02-.17.03-.24.06-.28.12-.57.23-.84.38-.29.16-.57.33-.85.52-.39.27-.76.57-1.14.85-.1.07-.18.16-.28.25,0,.01.02.02.02.03.15-.08.3-.15.44-.23.5-.28,1.02-.5,1.56-.66.5-.14,1.01-.17,1.52-.1.61.08,1.19.23,1.74.5.13.06.26.12.38.2.24.16.48.32.7.5.16.14.3.32.44.49.21.27.37.56.46.89.14.54.11,1.07-.07,1.59-.12.33-.23.67-.36.99-.06.16-.15.3-.23.45-.13.25-.24.51-.38.75-.12.2-.28.38-.4.59-.14.25-.34.42-.57.58-.09.06-.26.07-.34,0-.28-.24-.56-.47-.84-.71-.1-.09-.2-.18-.29-.28-.19-.21-.36-.44-.55-.65-.24-.26-.47-.53-.73-.77-.46-.44-1.01-.55-1.62-.46-.3.05-.6.07-.89.19-.16.07-.34.11-.51.18-.44.19-.84.43-1.23.72-.26.2-.51.41-.74.65-.04.05-.08.1-.12.15-.21.25-.43.5-.58.8-.15.29-.28.59-.37.9-.02.07-.05.11-.13.11-.03,0-.07,0-.1.02-.04.02-.08.05-.12.08.03.04.06.08.1.11.02.01.04.01.07.02.06,0,.09.04.08.11,0,.04,0,.09-.02.13-.06.31-.12.62-.17.93,0,.02,0,.05,0,.08.03,0,.06,0,.08-.02.21-.14.42-.28.62-.43.27-.2.53-.41.8-.61.14-.1.26-.23.45-.22.02,0,.08-.05.07-.08,0-.03-.04-.07-.08-.08-.12-.05-.13-.06-.09-.18.05-.15.09-.31.15-.46.08-.23.16-.45.26-.67.12-.26.31-.48.52-.68.32-.32.71-.52,1.16-.58.29-.04.55.03.78.22.22.18.38.4.56.62.24.31.5.61.8.88.17.15.33.3.5.45.26.24.5.52.83.68.15.07.31.14.47.18.35.08.67-.05.99-.18.1-.04.2-.06.31-.09.07-.01.12-.03.12-.12,0-.03.01-.06.03-.08.13-.14.26-.27.39-.4.31-.28.63-.55.93-.84.26-.25.51-.53.76-.8.14-.15.27-.32.4-.49.16-.22.33-.44.48-.67Z"/>
      <path class="cls-1" d="M9.17,9.97c.04-.28.06-.56-.01-.83-.07-.26-.17-.5-.34-.71-.08-.1-.04-.17.08-.2.12-.03.24-.05.35-.09.34-.1.68-.2,1.02-.32.32-.11.61-.29.88-.51.21-.18.43-.35.6-.58.19-.26.32-.56.42-.86.04-.12.07-.24.08-.36,0-.18,0-.36-.01-.54-.02-.24-.07-.48-.19-.69-.06-.12-.13-.24-.21-.35-.08-.12-.17-.23-.27-.34-.11-.12-.24-.22-.37-.32-.06-.05-.07-.09-.01-.15.07-.08.04-.17-.06-.18-.07,0-.16,0-.22.04-.08.06-.14.04-.21,0-.08-.04-.16-.07-.25-.1-.1-.03-.2-.05-.29-.07-.32-.09-.64-.16-.98-.16-.26,0-.53.01-.79.02-.16,0-.32-.01-.48.01-.27.03-.54.09-.8.14-.15.03-.31.04-.46.08-.1.03-.18.04-.28,0-.16-.08-.29-.01-.35.15,0,.03-.03.05-.06.06-.16.07-.33.14-.49.21-.31.15-.62.3-.92.48-.43.25-.81.57-1.18.9-.03.03-.06.07-.11.12.07,0,.1,0,.13,0,.49-.14.98-.29,1.47-.42.38-.1.76-.2,1.15-.27.37-.07.75-.1,1.12-.14.35-.04.7-.03,1.03.04.51.11.99.32,1.35.72.14.15.26.33.35.51.07.13.13.29.15.44.02.29,0,.57-.1.85-.15.43-.46.67-.84.83-.36.15-.76.15-1.14.11-.36-.04-.72-.08-1.08-.11-.05,0-.11,0-.15.04-.39.26-.79.52-1.17.79-.09.06-.18.14-.29.22.07.03.1.05.14.06.33.11.65.23.92.48.44.41.71.89.71,1.5,0,.26-.02.52-.07.77-.05.22-.13.44-.24.63-.2.33-.52.53-.9.6-.4.07-.8.1-1.2.15-.07,0-.15,0-.22.04-.04.02-.06.09-.09.13.04.02.09.05.13.05.03,0,.08,0,.1-.03.1-.08.19-.07.29-.01.05.03.11.05.17.06.19,0,.39,0,.58,0,.08,0,.17,0,.25,0,.09,0,.19,0,.28,0,.11,0,.21.02.3-.07.05-.05.13-.06.2-.08.02,0,.08.03.08.05.02.1.09.11.17.1.02,0,.06-.03.07-.04,0-.02-.02-.06-.04-.08-.03-.02-.06-.03-.11-.06.07-.04.12-.08.18-.11.22-.12.46-.22.66-.36.41-.29.78-.62,1.06-1.05.24-.36.46-.73.53-1.18Z"/>
      <path class="cls-1" d="M37.1,6.34c.02-.23.03-.45.02-.68,0-.21-.05-.42-.07-.64-.04-.37-.18-.72-.33-1.05-.07-.15-.16-.29-.24-.44-.04-.07-.06-.14-.09-.22.09,0,.16,0,.22-.02.03,0,.08-.06.08-.09,0-.03-.05-.07-.08-.08-.15-.04-.16-.03-.24.11,0,.01-.02.02-.05.04-.02-.03-.03-.05-.05-.08-.08-.1-.15-.2-.24-.29-.24-.26-.52-.47-.83-.65-.5-.29-1.05-.43-1.6-.54-.28-.05-.56-.08-.84-.11-.25-.02-.51-.04-.76-.03-.4,0-.79.03-1.19.05-.27.01-.54.04-.81.07-.21.02-.43.07-.64.1-.3.05-.6.1-.89.15-.24.05-.48.1-.71.16-.12.03-.23.07-.34.11,0,.01,0,.03.01.04.02,0,.04,0,.06,0,.19-.04.38-.09.57-.12.32-.07.64-.14.97-.19.36-.06.72-.11,1.08-.15.31-.04.63-.07.94-.09.36-.02.73-.04,1.09-.04.26,0,.53.03.79.06.55.05,1.08.16,1.6.33.4.13.77.32,1.1.59.13.11.23.24.34.36.03.04.05.08-.02.1-.02,0-.05,0-.07.02-.03.03-.05.07-.08.1.03.02.07.06.1.06.08,0,.16-.02.24-.02.03,0,.07.01.08.03.2.29.4.58.52.92.15.42.25.86.29,1.31.03.34.01.68-.03,1.02-.06.42-.14.83-.28,1.24-.15.46-.32.91-.55,1.34-.15.29-.31.58-.48.86-.16.26-.34.52-.52.77-.16.22-.33.42-.5.63-.03.04-.09.06-.13.08-.02-.04-.04-.08-.06-.13,0,0,0-.01,0-.02-.03-.03-.05-.07-.08-.1-.03.02-.06.04-.08.08-.13.28-.25.57-.37.86,0,.01,0,.05.01.05.02,0,.05,0,.08,0,.25-.12.51-.24.76-.36.04-.02.08-.06.14-.1-.08-.03-.14-.05-.19-.07-.1-.04-.1-.09-.04-.17.28-.37.56-.73.83-1.11.16-.23.3-.48.44-.73.11-.19.19-.4.3-.6.19-.35.37-.72.48-1.11.08-.25.16-.51.22-.76.06-.28.09-.56.12-.85Z"/>
      <path class="cls-1" d="M3.31,2.07s.01.03.02.04c.03,0,.07-.02.1-.03.47-.25.96-.45,1.47-.58.43-.11.85-.22,1.29-.3.57-.1,1.14-.08,1.72-.1.08,0,.16,0,.24.01.15,0,.31,0,.46.02.45.06.91.14,1.35.26.37.11.73.22,1.07.4.22.12.45.21.64.37.23.19.43.42.64.64.05.05.03.1-.05.11-.04,0-.07.02-.1.05-.06.04-.05.13.02.14.07.01.16.02.23-.02.08-.04.1-.02.14.04.16.26.25.54.34.82.03.1.04.2.04.3,0,.18,0,.36,0,.54,0,.42-.05.83-.14,1.24-.07.34-.22.64-.42.92-.18.26-.41.47-.68.65-.27.19-.55.36-.86.47-.16.06-.2.03-.18-.12,0-.04-.01-.08-.02-.12-.04.01-.09.02-.12.04-.22.2-.43.4-.64.6-.05.05-.03.09.03.09.08,0,.16,0,.24,0,.21,0,.41,0,.62-.01.04,0,.07-.03.11-.04-.02-.03-.04-.07-.06-.1-.11-.12-.11-.13.03-.22.01,0,.02-.01.04-.02.33-.17.65-.35.96-.58.21-.15.4-.31.54-.53.14-.23.27-.46.39-.7.01-.03.02-.06.03-.09.05-.25.1-.49.14-.74.07-.46.11-.93.05-1.4-.02-.17-.05-.34-.1-.51-.04-.13-.13-.24-.18-.37-.19-.52-.57-.88-.99-1.2-.27-.21-.58-.36-.9-.49-.39-.15-.78-.29-1.19-.39-.61-.15-1.23-.19-1.86-.21-.27,0-.55,0-.83.02-.23.01-.46.03-.69.07-.33.06-.67.13-.99.21-.31.08-.61.16-.91.27-.29.11-.58.24-.86.37-.07.03-.13.09-.19.13Z"/>
      <path class="cls-1" d="M37.52,12.53c.18-.18.36-.36.54-.54.03-.03.06-.08.1-.13-.05-.01-.07-.02-.09-.03q-.25-.02-.17-.26s0-.02,0-.03c.18-.41.35-.83.53-1.24.16-.38.34-.75.5-1.14.13-.3.24-.6.35-.9.16-.42.32-.84.47-1.26.05-.14.09-.29.14-.44.06-.17.13-.33.19-.5.16-.48.32-.95.48-1.43.16-.48.32-.95.47-1.43.09-.28.15-.57.23-.85.13-.45.27-.91.4-1.36,0-.02,0-.04,0-.06-.01,0-.02,0-.03-.01-.03.06-.07.11-.08.17-.06.21-.12.42-.18.62-.11.38-.22.76-.34,1.13-.04.14-.09.28-.29.27-.03,0-.07.07-.09.11,0,.01.05.07.08.08.11.03.14.07.1.17-.04.12-.08.25-.12.37-.15.47-.3.94-.45,1.41-.1.31-.2.61-.31.92-.14.38-.28.76-.43,1.14-.1.28-.2.55-.3.83-.09.23-.18.46-.27.69-.08.21-.15.43-.24.64-.13.3-.26.6-.4.9-.15.33-.3.67-.46,1-.06.12-.13.23-.2.37-.05-.06-.08-.1-.11-.14-.07-.09-.13-.08-.17.02-.01.03-.02.06-.02.09,0,.25-.02.5-.02.75,0,.04.02.09.03.13.04-.02.09-.04.13-.06,0,0,.01-.01.02-.02Z"/>
      <path class="cls-1" d="M52.21,3.91c-.08-.21-.19-.42-.31-.61-.1-.16-.22-.32-.37-.43-.25-.18-.52-.32-.83-.39-.43-.1-.86-.1-1.29-.1-.23,0-.46.01-.69.04-.29.04-.57.1-.86.15-.04,0-.06.05-.1.07.04,0,.08.02.13.03.02,0,.04,0,.06-.01.2-.04.39-.09.59-.11.34-.04.68-.05.98-.07.19.01.34.02.49.03.38.02.74.09,1.09.24.15.06.29.16.42.25.1.07.09.1,0,.19-.02.02-.04.08-.03.11.01.03.05.06.09.07.04.01.09,0,.13,0,.06.02.13.04.16.09.17.24.27.51.33.79.06.31.09.64.02.96-.07.29-.13.58-.28.85-.05.09-.09.18-.15.27-.11.17-.22.34-.35.5-.06.07-.12.05-.15-.03,0-.02,0-.04-.01-.06-.03-.09-.09-.1-.15-.03-.02.03-.04.06-.06.08-.15.21-.21.46-.28.7-.01.04-.03.09-.03.13,0,.08.03.1.1.06.25-.12.49-.24.74-.37.05-.02.08-.07.13-.11-.05-.02-.1-.06-.15-.07-.09-.03-.12-.06-.07-.15.06-.11.14-.2.19-.31.15-.29.32-.57.45-.86.14-.34.22-.7.2-1.08-.01-.28-.05-.55-.15-.81Z"/>
      <path class="cls-1" d="M47.81,10.96s.02.07.04.11c.03-.02.08-.03.1-.06.2-.23.39-.46.59-.69.02-.02.03-.07.02-.09-.01-.02-.06-.04-.09-.04-.07,0-.14,0-.2.01-.23.03-.47.06-.7.09-.05,0-.09.05-.13.08.03.04.07.07.1.11,0,0,.02.01.03.02.07.05.07.1,0,.14-.1.06-.19.12-.3.15-.2.07-.4.12-.6.17-.28.06-.56.1-.84.07-.25-.02-.47-.11-.61-.32-.08-.12-.14-.24-.19-.37-.18-.51-.26-1.04-.17-1.58.05-.32.12-.63.25-.93.11-.27.26-.51.43-.75.25-.36.58-.63.9-.92.07-.07.14-.14.22-.21,0-.01-.02-.02-.02-.03-.03,0-.06.01-.08.03-.13.09-.28.17-.39.28-.22.22-.43.45-.62.7-.18.23-.35.48-.47.75-.11.25-.23.51-.27.8-.04.3-.12.59-.08.9.03.23.05.45.1.67.04.17.1.34.17.51.04.1.1.2.17.28.24.27.56.35.89.35.37,0,.73-.1,1.08-.21.18-.06.36-.12.54-.18.08-.02.13,0,.13.09,0,.02,0,.05,0,.07Z"/>
      <path class="cls-1" d="M22.77,11.34c-.07,0-.12,0-.18.01-.09,0-.14-.03-.12-.12.02-.08.04-.17.07-.24.14-.33.35-.62.56-.9.2-.26.44-.5.67-.74.25-.26.55-.44.86-.6.39-.2.8-.36,1.24-.41.29-.03.59-.07.88-.08.28,0,.56,0,.84.04.26.03.52.07.77.14.26.08.52.19.76.31.23.11.47.24.67.4.2.16.38.37.55.57.13.15.24.31.37.48,0-.01,0-.02,0-.02,0-.02-.01-.04-.02-.06-.13-.19-.25-.39-.39-.57-.29-.39-.68-.68-1.11-.89-.34-.17-.71-.3-1.09-.38-.4-.08-.81-.11-1.22-.11-.28,0-.56.02-.84.07-.36.06-.71.14-1.05.26-.37.13-.7.34-1.02.59-.46.37-.85.79-1.16,1.29-.16.27-.31.55-.46.82-.08.15-.11.16-.22.02,0,0,0-.01-.01-.02-.03-.02-.07-.04-.1-.05-.01.04-.04.07-.04.11.02.27.04.54.06.81,0,.04.03.07.04.11.03-.02.07-.03.1-.06.19-.22.37-.44.55-.67.02-.02.02-.05.04-.09Z"/>
      <path class="cls-1" d="M22.33,9.95s.01-.02.02-.03c0-.03-.01-.07-.03-.1-.13-.24-.26-.48-.4-.72-.02-.03-.06-.04-.08-.06-.02.03-.05.06-.06.1-.04.14-.1.16-.21.07-.19-.16-.37-.31-.55-.48-.15-.14-.29-.28-.41-.44-.21-.26-.42-.53-.62-.81-.1-.13-.17-.28-.26-.42-.07-.11-.15-.23-.21-.35-.14-.29-.26-.59-.39-.88-.19-.43-.35-.86-.46-1.31-.08-.32-.13-.64-.19-.97-.02-.11-.05-.23-.01-.32.04-.12.04-.21,0-.32,0-.02,0-.05,0-.07,0-.24-.01-.48-.02-.71,0-.03,0-.06-.01-.1-.03.02-.04.04-.04.05,0,.24-.02.49-.02.73,0,.08,0,.15-.09.2-.08.05-.08.12.01.16.08.03.1.09.11.16.06.37.11.75.2,1.12.07.32.16.65.29.95.23.55.48,1.1.76,1.63.22.42.49.82.8,1.19.24.28.5.55.77.79.15.13.29.28.45.43-.07.04-.12.06-.17.09-.03.02-.06.04-.09.07.03.03.06.06.09.07.2.08.4.15.6.22.08.03.17.04.26.07Z"/>
      <path class="cls-1" d="M47.94,1.56c-.1.08-.2.15-.29.24-.03.02-.06.09-.04.11.03.03.08.05.12.05.08,0,.17,0,.25,0,.03,0,.06,0,.08-.01.02-.01.04-.04.06-.06-.02-.02-.04-.04-.06-.04-.05-.02-.11-.02-.19-.04.04-.04.06-.07.08-.1.05-.06.11-.12.16-.18.07-.08.09-.18.03-.28-.06-.1-.15-.16-.27-.16-.11,0-.2.07-.26.16-.01.02,0,.06,0,.07.02.01.06.01.08,0,.03-.01.05-.04.07-.06.06-.05.19-.05.24,0,.06.07.04.14,0,.2-.02.03-.04.06-.07.08Z"/>
      <path class="cls-1" d="M31.42,9.21c-.09.07-.18.13-.27.2-.03.03-.05.07-.07.11.04.02.08.04.12.05.06.01.13.02.19.01.08,0,.17,0,.26-.07-.11-.03-.2-.05-.31-.08.04-.04.06-.07.08-.09.07-.08.15-.15.2-.24.09-.14.03-.28-.12-.35-.14-.07-.34-.01-.39.11-.01.03,0,.06,0,.1.03,0,.06-.01.09-.02.02-.01.04-.04.06-.05.07-.05.19-.04.24.02.07.07.04.15-.02.21-.02.03-.05.05-.08.08Z"/>
      <path class="cls-1" d="M40.07,1.34c.06.08.14.13.23.12.27,0,.38-.17.28-.4-.01-.03,0-.08.01-.12,0-.05.04-.1.03-.14-.02-.09-.09-.16-.19-.17-.11-.02-.22-.02-.3.08-.01.02-.02.05-.02.07.03,0,.06.02.08.02.04-.01.08-.05.13-.06.08-.02.14,0,.16.08.02.08-.04.11-.1.13-.03,0-.06.01-.09.02-.02.01-.04.04-.05.06,0,0,.03.03.05.04.05.02.1.04.15.06.06.04.09.1.04.15-.05.06-.13.11-.22.07-.05-.02-.09-.06-.14-.08-.02,0-.05,0-.07,0,0,.02,0,.05,0,.06Z"/>
      <path class="cls-1" d="M46.86,6.69c0-.06-.03-.12-.1-.09-.09.05-.16.12-.24.19-.01.01-.01.05,0,.06,0,.01.04.02.06.02.13-.02.13-.02.13.12,0,.04,0,.07,0,.11,0,.16-.02.19-.18.23-.02,0-.03.02-.05.03.08.07.41.08.52.02,0,0,0-.02-.01-.03-.16-.06-.16-.19-.15-.32,0-.11,0-.23,0-.34Z"/>
      <path class="cls-1" d="M3.27.82c.01.13.03.26.02.39,0,.04-.09.08-.14.12,0,0,0,.01-.02.05.14.01.27.02.4.03.03,0,.06-.03.09-.05-.03-.02-.05-.05-.08-.06-.09-.02-.11-.07-.11-.15,0-.15,0-.29,0-.44,0-.04-.04-.08-.06-.12-.03.02-.07.03-.1.05-.04.02-.07.05-.11.08-.02.02-.03.04-.06.09.06-.01.08-.02.11-.02.02,0,.06.01.07.02Z"/>
      <path class="cls-1" d="M13.98,15c.1-.09.15-.19.14-.32-.01-.09-.08-.15-.16-.17-.11-.03-.21-.02-.3.06-.03.03-.04.08-.06.11.04-.01.07-.03.11-.04,0,0,.02-.01.02-.02.09-.05.17-.01.24.04.07.05.06.13,0,.18-.08.09-.17.17-.25.26-.04.05-.08.09-.13.14,0,.01.01.03.02.04.14.01.29.03.43.04,0-.02,0-.03,0-.05-.06,0-.12-.02-.17-.03-.08-.01-.1-.04-.05-.1.04-.05.1-.09.15-.14Z"/>
      <path class="cls-1" d="M26.74,1.42s0,.06,0,.09c.01.13,0,.23-.16.25,0,0,0,.01,0,.02.12.07.37.07.45-.02-.19.01-.15-.13-.17-.23,0-.03,0-.06,0-.09,0-.11.01-.22,0-.34,0-.03-.06-.09-.07-.09-.09.04-.18.09-.24.21q.19.02.19.2Z"/>
      <path class="cls-1" d="M19.47,3.98s.05-.01.07-.02c.11-.04.12-.03.13.09,0,.08,0,.16,0,.23,0,.12-.03.15-.15.18-.02,0-.04.02-.06.03.15.08.44.07.5-.01-.02,0-.03-.03-.05-.03-.12,0-.14-.07-.13-.17,0-.15.01-.3,0-.45,0-.03-.03-.09-.06-.1-.05-.02-.23.16-.24.24Z"/>
      <path class="cls-1" d="M3.68,8.38c-.06,0-.11-.01-.17-.03-.1-.03-.1-.07-.03-.14.06-.06.13-.11.19-.17.08-.07.12-.22.08-.3-.08-.16-.36-.19-.48-.05-.02.02-.02.05-.03.08.06-.01.09-.04.13-.06.08-.05.15-.05.22.02.07.07.07.15.02.22-.03.05-.09.09-.13.14-.07.06-.15.12-.21.19-.06.06-.04.1.04.1.12,0,.25,0,.37,0,0,0,0,0,0-.01Z"/>
      <path class="cls-1" d="M33.49,3.3s.08,0,.11-.02c.04-.03.06-.08.09-.12-.04-.03-.08-.06-.12-.08-.01,0-.03,0-.05,0,0,0-.02,0-.03,0-.09,0-.15.05-.15.13,0,.09.07.1.15.09Z"/>
      <path class="cls-1" d="M48.56,3.15s-.09.03-.1.06c0,.03.02.1.04.11.06.02.13.04.19.03.04,0,.09-.06.1-.1,0-.06-.04-.09-.11-.09-.02,0-.05,0-.07,0h0s-.04,0-.05,0Z"/>
      <path class="cls-1" d="M50.22,12.88s0,.01-.01.02c-.01,0-.03,0-.04,0-.07,0-.12.04-.13.11,0,.07.06.1.13.1.04,0,.09,0,.13-.01.07,0,.1-.07.06-.12-.03-.04-.09-.06-.14-.09Z"/>
      <path class="cls-1" d="M29.32,3.27c.07.02.12,0,.13-.07,0-.07-.02-.13-.1-.13-.04,0-.08,0-.12,0,0,0-.01-.01-.02-.02-.03.03-.09.07-.08.09.01.05.05.09.1.12.03.02.07,0,.11.01Z"/>
      <path class="cls-1" d="M38.19,13.07c.11,0,.18,0,.18-.1,0-.12-.09-.11-.17-.11-.09,0-.16.05-.15.12,0,.11.1.08.14.09Z"/>
      <path class="cls-1" d="M49.62,12.89c-.08,0-.18.06-.17.12,0,.09.08.1.15.1.11,0,.17-.03.16-.1,0-.08-.06-.11-.14-.12Z"/>
      <path class="cls-1" d="M52.01,12.9c-.06.02-.14.07-.15.12-.02.08.06.11.12.11.11,0,.18-.05.19-.11,0-.05-.09-.14-.15-.12Z"/>
      <path class="cls-1" d="M49.19,3.38s.01-.02.02-.03c.08.01.17,0,.17-.09,0-.07-.07-.11-.14-.11-.1,0-.19.06-.17.13.01.04.08.07.13.1Z"/>
      <path class="cls-1" d="M48.01,3.36c.09,0,.17,0,.17-.1,0-.1-.08-.1-.16-.1-.07,0-.15,0-.15.1,0,.09.06.11.13.1Z"/>
      <path class="cls-1" d="M5.44,2.98c.02.12.12.08.19.1.07,0,.12-.02.11-.1,0-.1-.08-.11-.15-.11-.09,0-.16.05-.15.11Z"/>
      <path class="cls-1" d="M52.3,3.18s-.05,0-.07-.01c-.08,0-.16,0-.16.1,0,.07.07.11.16.11.02,0,.05,0,.07-.01.03-.02.09-.06.08-.08,0-.04-.05-.07-.08-.1Z"/>
      <path class="cls-1" d="M41.91,3.3s.09.01.13.01c.08,0,.13-.04.12-.11,0-.04-.07-.07-.11-.1,0,0-.01.01-.02.02-.04,0-.08,0-.12.02-.03.01-.08.05-.07.07,0,.03.04.07.07.09Z"/>
      <path class="cls-1" d="M49.87,3.37s.09-.06.11-.1c.02-.06-.03-.09-.09-.09-.03,0-.05,0-.08,0,0,0-.01-.01-.02-.02-.04.04-.08.08-.11.12.03.03.06.07.09.09.03.02.08.03.11.02Z"/>
      <path class="cls-1" d="M48.92,12.93s-.06.08-.05.1c.03.04.08.07.12.11.06-.03.12-.04.14-.07.02-.02.02-.11,0-.11-.07-.02-.14-.03-.22-.03Z"/>
      <path class="cls-1" d="M48.48,12.92s-.1-.01-.15,0c-.03,0-.07.04-.07.07,0,.03.03.07.05.1.02.02.06.01.1.02,0,0,0,0,0,0,.02,0,.04,0,.05,0,.04-.02.07-.06.11-.08-.03-.03-.06-.08-.09-.09Z"/>
      <path class="cls-1" d="M51.42,12.91c-.1,0-.17.05-.17.11,0,.07.08.11.19.1.06,0,.12-.03.11-.11,0-.07-.05-.11-.13-.1Z"/>
      <path class="cls-1" d="M52.61,12.88c-.07.06-.12.1-.17.15.04.04.08.1.12.11.07.02.19-.06.17-.1-.02-.05-.07-.09-.13-.16Z"/>
      <path class="cls-1" d="M37.67,12.87s-.04,0-.06,0c0,0,0,0,0,0-.04,0-.08,0-.12.03-.02.01-.04.05-.04.07s.02.07.04.07c.07,0,.14.02.2,0,.03,0,.06-.06.06-.1,0-.02-.05-.05-.08-.07Z"/>
      <path class="cls-1" d="M44.96,3.15s-.07.06-.11.09c.04.04.07.07.11.11.08-.03.14-.05.2-.08,0,0,0-.07-.01-.08-.06-.02-.13-.05-.19-.04Z"/>
      <path class="cls-1" d="M47.79,12.9s-.02,0-.03,0c-.06,0-.11.04-.09.11.01.04.06.07.09.11,0,0,.02-.01.02-.02,0,0,.02,0,.03,0,.07,0,.16,0,.15-.11-.01-.1-.1-.08-.17-.08Z"/>
      <path class="cls-1" d="M46.8,3.33c.07,0,.17.02.17-.09,0-.09-.09-.09-.17-.09-.07,0-.14,0-.14.1,0,.09.07.09.13.08Z"/>
      <path class="cls-1" d="M12.89,3.12c.07,0,.12-.01.13-.08,0-.08-.06-.09-.12-.09-.01,0-.03,0-.06,0,0,0-.02,0-.04,0-.03.03-.06.06-.09.09.03.03.06.05.1.07.02.01.05,0,.08,0Z"/>
      <path class="cls-1" d="M50.58,3.26c0-.1-.1-.09-.16-.09-.06,0-.12.02-.12.09,0,.1.08.09.15.1.07,0,.14-.01.14-.1Z"/>
      <path class="cls-1" d="M50.91,12.96c-.06-.02-.12-.04-.18-.03-.03,0-.09.07-.08.09.01.04.06.07.1.12.07-.04.13-.07.18-.1,0,0,0-.07-.02-.08Z"/>
      <path class="cls-1" d="M11.52,3.03c0,.09.07.09.13.09.07,0,.15,0,.15-.1,0-.08-.06-.08-.13-.08-.06,0-.14,0-.15.1Z"/>
      <path class="cls-1" d="M37.82,3.27s.07-.05.1-.07c-.03-.03-.07-.06-.1-.09-.01,0-.04,0-.06,0h0s-.04,0-.05,0c-.03.02-.07.05-.1.08.03.03.06.06.1.08.03.01.08.01.11,0Z"/>
      <path class="cls-1" d="M41.36,3.12s-.08.03-.12.06c-.01.01-.01.07,0,.08.04.02.09.05.13.04.05,0,.1-.04.15-.07,0,0-.01-.07-.04-.09-.03-.02-.07-.02-.13-.03Z"/>
      <path class="cls-1" d="M41.23,12.86s-.01.02-.02.02c-.02,0-.05,0-.06,0-.03.03-.06.06-.08.1.03.03.06.07.1.08.1.02.22-.05.19-.1-.02-.05-.09-.07-.13-.11Z"/>
      <path class="cls-1" d="M28.65,3.26s.01-.01.02-.02c.02,0,.05,0,.07-.01.03-.03.06-.06.09-.09-.03-.03-.06-.06-.1-.08-.02-.01-.05,0-.08,0-.05.01-.13.02-.11.1.01.04.07.07.11.1Z"/>
      <path class="cls-1" d="M15.87,3.13s.08.01.12,0c.03-.01.06-.04.09-.07-.02-.03-.04-.07-.07-.09-.02-.02-.06,0-.06,0-.04,0-.06,0-.07,0-.04.02-.07.04-.11.07.03.03.06.07.1.09Z"/>
      <path class="cls-1" d="M47.4,3.34c.09,0,.17,0,.16-.09,0-.09-.09-.09-.15-.09-.06,0-.14,0-.14.09,0,.09.08.08.12.09Z"/>
      <path class="cls-1" d="M37.02,12.87c-.08,0-.16,0-.16.1,0,.03.09.07.14.08.06,0,.14,0,.15-.09,0-.08-.07-.09-.13-.09Z"/>
      <path class="cls-1" d="M51.02,3.38c.05-.04.14-.07.15-.11.02-.09-.08-.07-.14-.09,0,0,0,0,0,0-.04,0-.09,0-.12.03-.02.02-.02.08,0,.1.02.03.07.04.12.08Z"/>
      <path class="cls-1" d="M38.98,3.29c.06,0,.14.02.14-.07,0-.1-.08-.08-.14-.09-.02,0-.05-.01-.06,0-.03.03-.06.06-.09.09.03.03.06.06.1.08.01,0,.03,0,.05,0Z"/>
      <path class="cls-1" d="M35.91,12.89c-.07,0-.15-.01-.23,0-.01,0-.04.06-.03.07.02.03.05.05.09.07.01,0,.04,0,.06,0,0,0,0,0,0,.01.04-.02.09-.04.13-.08,0,0-.01-.08-.03-.08Z"/>
      <path class="cls-1" d="M34.49,12.88s-.06.04-.06.07c0,.02.03.06.06.07.02.01.06,0,.06.01.04,0,.07,0,.08,0,.04-.02.07-.05.1-.08-.03-.02-.06-.06-.09-.07-.05-.01-.1,0-.15,0Z"/>
      <path class="cls-1" d="M4.85,2.96s.09.08.15.13c.05-.05.12-.08.12-.12,0-.07-.05-.1-.12-.1-.07,0-.16,0-.15.09Z"/>
      <path class="cls-1" d="M46.21,3.33s.05,0,.07,0c.03-.01.06-.03.09-.05-.03-.03-.04-.07-.08-.1-.02-.02-.06-.01-.09-.02,0,0-.01-.01-.02-.02-.04.03-.1.07-.1.1,0,.07.06.1.13.09Z"/>
      <path class="cls-1" d="M40.54,12.9s-.05.06-.07.09c.03.02.07.06.1.07.02,0,.05,0,.07-.01.04-.03.08-.07.12-.1-.04-.03-.08-.05-.11-.07-.05,0-.09,0-.1.02Z"/>
      <path class="cls-1" d="M.6,2.92c0,.08.09.1.15.09.05,0,.09-.05.13-.08-.03-.03-.06-.07-.1-.12-.08.04-.18.07-.18.12Z"/>
      <path class="cls-1" d="M26.86,12.85s-.07-.02-.13-.05c-.04.03-.12.07-.12.1,0,.08.08.08.15.08.03,0,.06,0,.08,0,.02,0,.06-.03.06-.05,0-.02-.02-.06-.04-.08Z"/>
      <path class="cls-1" d="M15.33,3.16c.06-.05.13-.08.13-.11,0-.09-.09-.09-.15-.1-.06,0-.13.02-.12.09,0,.04.08.07.14.12Z"/>
      <path class="cls-1" d="M19.56,3.17c.06,0,.14,0,.14-.08,0-.09-.08-.09-.13-.09-.07,0-.14,0-.14.08,0,.08.08.09.14.09Z"/>
      <path class="cls-1" d="M33.95,12.87s0,0,0,0c-.03.03-.06.06-.09.09.03.03.06.06.11.11.07-.05.15-.08.17-.13.03-.05-.07-.09-.18-.07Z"/>
      <path class="cls-1" d="M39.99,12.89c-.06,0-.14,0-.13.09,0,.07.07.07.12.07.02,0,.04,0,.06,0,.04-.02.07-.05.11-.07-.03-.03-.06-.06-.09-.08-.02-.01-.05,0-.07-.01Z"/>
      <path class="cls-1" d="M23.14,3.19s.08.02.11,0c.04-.02.07-.06.1-.09-.04-.03-.08-.06-.13-.09,0,0,0,.01-.01.02-.02,0-.04,0-.06,0-.03.02-.06.04-.09.06.03.03.05.07.08.09Z"/>
      <path class="cls-1" d="M40.16,3.3c.07,0,.16.02.16-.08,0-.04-.09-.07-.15-.12-.06.05-.12.08-.13.11-.01.08.07.08.12.09Z"/>
      <path class="cls-1" d="M25.14,3.17s.03-.11-.02-.13c-.03-.01-.06-.01-.1-.02-.03,0-.07.01-.1.04-.02.02-.01.06-.01.1.08,0,.16.03.24.01Z"/>
      <path class="cls-1" d="M28.56,12.83c-.06,0-.14.01-.14.1,0,.03.04.06.07.09.07-.06.2.02.2-.11,0-.09-.08-.08-.14-.08Z"/>
      <path class="cls-1" d="M4.25,2.96s.09.07.14.08c.05,0,.12,0,.12-.08,0-.08-.06-.09-.14-.09-.06,0-.13.01-.13.09Z"/>
      <path class="cls-1" d="M39.51,3.29c.05,0,.11,0,.16-.02.02,0,.05-.05.05-.07,0-.02-.04-.05-.06-.06-.02,0-.05,0-.08,0-.02,0-.06,0-.08.01-.03.02-.06.06-.06.09,0,.02.04.06.07.06Z"/>
      <path class="cls-1" d="M35.28,12.88s-.05-.01-.07-.02c-.03,0-.05,0-.07,0-.05.01-.1.03-.09.1.02.06.06.09.13.06.03-.01.07-.01.1-.03.02-.01.06-.04.06-.05,0-.03-.03-.06-.06-.07Z"/>
      <path class="cls-1" d="M21.39,3.17s.06,0,.08-.01c.03-.02.06-.05.06-.08,0-.02-.05-.05-.07-.07-.02-.01-.05,0-.07,0,0,0,0-.01-.01-.02-.04.03-.12.06-.12.09,0,.08.07.1.14.09Z"/>
      <path class="cls-1" d="M24.43,3.19c.07,0,.14-.02.14-.1,0-.03-.08-.06-.14-.1-.06.04-.14.07-.14.1,0,.08.07.09.14.09Z"/>
      <path class="cls-1" d="M1.38,2.85c-.05,0-.11.02-.17.04.02.04.03.08.06.11.01.01.05,0,.08.01.03,0,.06,0,.09-.01.02-.02.05-.07.05-.07-.03-.03-.07-.07-.11-.08Z"/>
      <path class="cls-1" d="M3.75,2.86s-.11.05-.11.08c-.01.08.07.08.13.09.06,0,.14,0,.14-.08,0-.1-.09-.1-.15-.09Z"/>
      <path class="cls-1" d="M34.12,3.26c.06,0,.16.03.16-.08,0-.11-.1-.05-.14-.07-.03,0-.05,0-.07,0-.03.02-.06.04-.09.06.03.03.05.06.09.08.01,0,.04,0,.06,0Z"/>
      <path class="cls-1" d="M14.03,3.11s.05,0,.07,0c.02,0,.04,0,.05,0,.03-.02.06-.04.09-.06-.02-.03-.04-.07-.07-.08-.04-.02-.09-.02-.14-.01-.03,0-.07.05-.07.07,0,.03.04.06.07.08Z"/>
      <path class="cls-1" d="M37.17,3.11c-.06,0-.15-.02-.15.08,0,.03.07.07.1.1.08-.03.16-.01.17-.11,0-.07-.06-.08-.12-.08Z"/>
      <path class="cls-1" d="M3.17,3.03c.06,0,.13-.02.11-.09,0-.04-.07-.06-.1-.09,0,0-.01.01-.02.02-.02,0-.04,0-.05,0-.04.02-.07.05-.1.08.04.03.07.06.11.08.01,0,.03,0,.05,0Z"/>
      <path class="cls-1" d="M38.38,3.29s.12.01.12-.07c0-.09-.09-.09-.16-.09-.04,0-.11.05-.11.08,0,.08.07.09.14.08Z"/>
      <path class="cls-1" d="M27.45,3.21c.06,0,.14,0,.14-.09,0-.03-.06-.06-.11-.11-.06.05-.14.08-.15.13-.01.07.07.07.13.07Z"/>
      <path class="cls-1" d="M45.53,3.31s.05,0,.09.01c.02,0,.06,0,.09-.02.02-.02.04-.06.04-.08-.03-.08-.11-.07-.18-.06-.04,0-.07.04-.09.07,0,.01.03.06.06.08Z"/>
      <path class="cls-1" d="M1.92,2.83s-.08.07-.12.11c.05.03.1.07.16.08.05.01.11-.01.12-.08,0-.09-.07-.08-.15-.11Z"/>
      <path class="cls-1" d="M25.54,12.79c-.06.05-.12.08-.13.12,0,.08.07.08.13.08.06,0,.14,0,.13-.08,0-.04-.08-.07-.14-.12Z"/>
      <path class="cls-1" d="M29.04,12.94c0,.1.1.08.16.07.04,0,.08-.06.11-.09-.03-.03-.06-.06-.08-.08-.1.01-.2,0-.19.1Z"/>
      <path class="cls-1" d="M35.48,3.18s-.07-.07-.1-.1c-.09.02-.16.04-.16.12,0,.02.07.07.11.07.06,0,.15.02.15-.08Z"/>
      <path class="cls-1" d="M32.09,12.87s-.05.04-.05.06c0,.03.03.06.05.07.02.01.06,0,.09,0h0s.05,0,.06,0c.03-.02.06-.05.09-.07-.03-.02-.06-.05-.09-.06-.05,0-.1,0-.15,0Z"/>
      <path class="cls-1" d="M2.57,2.86s0,0,0,.01c-.01,0-.03,0-.04,0-.04.02-.08.04-.11.06.03.03.06.06.1.08,0,0,.02.01.03,0,.04,0,.09-.01.13-.03.02-.01.03-.08.02-.09-.03-.03-.08-.03-.11-.05Z"/>
      <path class="cls-1" d="M36.37,12.84s-.08.08-.11.11c.04.03.07.08.11.09.06,0,.16.02.16-.08,0-.03-.09-.07-.15-.11Z"/>
      <path class="cls-1" d="M34.73,3.29c.06-.05.14-.08.14-.12,0-.07-.07-.09-.14-.08-.06,0-.13,0-.12.08,0,.04.07.07.12.12Z"/>
      <path class="cls-1" d="M0,2.92s.07.07.12.11c.06-.05.1-.09.14-.12-.04-.03-.08-.07-.12-.08-.06,0-.15,0-.14.09Z"/>
      <path class="cls-1" d="M26.72,3.13c-.01.07.05.09.11.08.07,0,.15,0,.16-.08,0-.03-.08-.06-.13-.1-.05.04-.12.07-.13.11Z"/>
      <path class="cls-1" d="M33.42,12.85s0,.01-.01.02c-.02,0-.04,0-.05,0-.04.03-.07.06-.1.09.04.02.07.05.11.06.01,0,.03,0,.05,0,.05,0,.12-.02.11-.09,0-.03-.07-.05-.11-.08Z"/>
      <path class="cls-1" d="M21.32,12.77c-.06.04-.14.07-.14.11,0,.08.08.06.13.07.07.01.14,0,.15-.08,0-.02-.08-.06-.14-.1Z"/>
      <path class="cls-1" d="M14.73,3.12s.04,0,.06,0c.03-.02.07-.05.06-.06,0-.03-.04-.06-.07-.07-.02-.01-.05,0-.07,0,0,0-.01-.02-.02-.02-.04.03-.12.06-.12.09,0,.08.08.09.15.08Z"/>
      <path class="cls-1" d="M20.2,3.16s.07-.05.11-.08c-.04-.03-.07-.06-.12-.1-.06.05-.14.08-.14.11,0,.1.1.08.16.08Z"/>
      <path class="cls-1" d="M28.04,12.85s-.05,0-.07,0c0,0,0-.01-.01-.02-.05.03-.14.07-.13.09,0,.08.09.07.15.07.02,0,.05,0,.07,0,.02-.02.06-.05.06-.07,0-.02-.03-.05-.06-.06Z"/>
      <path class="cls-1" d="M27.35,12.81c-.06.04-.1.06-.14.09.04.03.07.06.11.09,0,0,.01,0,.02,0,.06,0,.15.03.15-.07,0-.03-.08-.07-.14-.11Z"/>
      <path class="cls-1" d="M28.16,3.2s.04-.05.05-.08c0-.02-.04-.04-.06-.05-.02,0-.05,0-.07,0h0s-.06,0-.08,0c-.02,0-.06.03-.06.05,0,.03.02.07.04.08.06,0,.12,0,.18,0Z"/>
      <path class="cls-1" d="M52.84,3.15c-.06.05-.11.09-.15.12.04.03.07.07.11.07.06,0,.14,0,.15-.09,0-.03-.06-.06-.11-.11Z"/>
      <path class="cls-1" d="M22.13,3.1s-.09-.07-.14-.12c-.05.05-.09.08-.13.11.05.03.1.07.16.08.03,0,.08-.04.12-.07Z"/>
      <path class="cls-1" d="M25.03,12.84s-.05,0-.08-.01c-.02,0-.05,0-.06,0-.03.02-.06.06-.09.09.04.02.07.05.11.05.04,0,.09,0,.13-.02.02,0,.04-.04.04-.06,0-.02-.02-.05-.05-.06Z"/>
      <path class="cls-1" d="M22.53,3.17s.04,0,.07.01c.06,0,.14,0,.13-.08,0-.03-.08-.06-.13-.08-.02,0-.05,0-.07.01-.02.01-.06.04-.06.05,0,.03.03.06.06.08Z"/>
      <path class="cls-1" d="M20.79,3.16s.09-.06.13-.09c-.04-.03-.08-.06-.14-.1-.05.04-.12.07-.12.1,0,.08.08.1.13.09Z"/>
      <path class="cls-1" d="M14.17,12.79c-.08,0-.16,0-.24,0,0,.03,0,.08.02.1.02.02.07.02.1.03.04,0,.08,0,.1-.03.02-.02.01-.06.02-.1Z"/>
      <path class="cls-1" d="M13.49,3.12s.07,0,.1,0c.06-.01.07-.05.04-.1-.04-.06-.22-.06-.25,0-.01.02,0,.07.03.1.02.02.06,0,.08.01Z"/>
      <path class="cls-1" d="M18.97,3.14s.08-.05.12-.07c-.04-.03-.07-.06-.11-.09-.08.02-.16.03-.16.11,0,.02.09.06.14.06Z"/>
      <path class="cls-1" d="M26.02,12.9s.07.07.13.12c.06-.05.1-.08.13-.11-.05-.03-.1-.07-.15-.08-.03,0-.08.04-.11.07Z"/>
      <path class="cls-1" d="M32.85,12.87s-.05,0-.07,0c0,0,0-.01-.01-.02-.04.03-.11.06-.11.09,0,.08.07.07.13.07.02,0,.04,0,.06,0,.03-.02.05-.04.08-.06-.02-.02-.05-.05-.07-.07Z"/>
      <path class="cls-1" d="M16.96,12.86c0,.09.08.08.14.07.04,0,.08-.04.12-.06-.06-.04-.11-.08-.19-.13-.04.05-.08.09-.07.12Z"/>
      <path class="cls-1" d="M25.64,3.2s.01.01.02.02c.03-.03.08-.06.1-.09,0,0-.04-.08-.05-.07-.07.01-.13.04-.2.06.01.03.02.06.05.08.02.02.06.01.09.02Z"/>
      <path class="cls-1" d="M14.53,12.84s.09.05.13.07c0,0,0,0,0,0,.06.02.12,0,.12-.07,0-.03-.06-.07-.11-.12-.06.04-.11.08-.15.11Z"/>
      <path class="cls-1" d="M18.31,12.79c-.05,0-.11.04-.16.06.05.04.11.08.18.13.04-.04.08-.07.08-.09,0-.07-.04-.1-.1-.09Z"/>
      <path class="cls-1" d="M20.71,12.77c-.05.04-.12.07-.12.1,0,.09.08.07.13.08.05,0,.12,0,.11-.07,0-.04-.07-.06-.12-.11Z"/>
      <path class="cls-1" d="M19.49,12.8s-.01-.01-.02-.02c-.04.03-.1.07-.1.1,0,.07.07.07.13.06.02,0,.04,0,.06-.01.03-.01.05-.04.07-.05-.02-.02-.05-.05-.08-.07-.02-.01-.05,0-.07,0Z"/>
      <path class="cls-1" d="M21.91,12.78s-.08.08-.11.11c.05.03.09.06.15.08.05.01.12-.01.1-.07-.01-.04-.08-.07-.14-.11Z"/>
      <path class="cls-1" d="M17.68,12.79s-.02,0-.02,0c-.04.02-.07.04-.11.06.03.02.06.06.1.07.03.01.08,0,.11,0,.03,0,.06-.05.06-.07,0-.02-.04-.04-.06-.06-.02,0-.04,0-.07,0Z"/>
      <path class="cls-1" d="M16.35,12.85c-.01.08.06.08.12.08.06,0,.13.01.13-.07,0-.03-.07-.06-.12-.1-.06.04-.12.06-.13.09Z"/>
      <path class="cls-1" d="M26.38,3.12s-.07-.06-.12-.09c-.06.04-.1.07-.14.09.04.03.07.06.11.07.06.01.14.02.15-.07Z"/>
      <path class="cls-1" d="M23.93,3.09c-.02-.08-.11-.06-.16-.05-.03,0-.06.05-.09.08.04.03.08.05.11.08.07-.02.16,0,.14-.11Z"/>
      <path class="cls-1" d="M15.73,12.85s.07.05.12.09c.06-.04.14-.07.14-.09-.01-.09-.1-.07-.16-.08-.06,0-.11.02-.1.08Z"/>
      <path class="cls-1" d="M20.05,12.82s-.05.04-.08.06c.03.02.05.05.08.06.02.01.05,0,.07.01,0,0,.01.01.02.02.04-.03.07-.06.11-.09-.04-.02-.08-.05-.12-.07-.02,0-.05,0-.07,0Z"/>
      <path class="cls-1" d="M12.97,12.84s-.08-.07-.14-.11c-.05.04-.08.06-.12.08.03.02.07.06.1.07.06.01.14.05.15-.05Z"/>
      <path class="cls-1" d="M9.69,12.81s.09.06.14.06c.04,0,.07-.04.11-.06-.04-.03-.07-.06-.13-.1-.05.04-.09.07-.13.1Z"/>
      <path class="cls-1" d="M18.91,12.76c-.05.04-.09.07-.13.11.04.02.09.06.13.06.03,0,.07-.04.11-.06-.03-.03-.07-.06-.11-.11Z"/>
      <path class="cls-1" d="M15.28,12.91s.08-.04.12-.06c-.03-.03-.07-.05-.11-.09-.06.03-.1.06-.14.08.05.03.09.07.14.07Z"/>
      <path class="cls-1" d="M9.09,12.81s.08.06.12.06c.04,0,.08-.04.12-.06-.04-.02-.07-.05-.12-.08-.05.03-.08.06-.12.09Z"/>
      <path class="cls-1" d="M7.28,12.8c.05.02.1.05.15.06.03,0,.06-.04.09-.06-.04-.03-.08-.06-.13-.1-.04.04-.07.07-.1.1Z"/>
      <path class="cls-1" d="M8.5,12.79s.09.06.14.07c.03,0,.06-.03.1-.05-.04-.03-.07-.06-.12-.1-.05.03-.09.05-.12.07Z"/>
      <path class="cls-1" d="M7.92,12.81s.06.06.09.05c.03,0,.06-.04.1-.06-.03-.02-.05-.05-.1-.08-.04.04-.07.06-.09.09Z"/>
      <path class="cls-1" d="M3.06,12.74s0,0-.02.05c.08,0,.15.02.21.02,0,0,.01-.04,0-.05-.02-.05-.14-.06-.2-.02Z"/>
      <path class="cls-1" d="M3.67,12.77s.06.05.1.07c.04-.03.07-.05.1-.07-.04-.02-.07-.05-.11-.05-.03,0-.07.03-.1.04Z"/>
      <path class="cls-1" d="M2.47,12.76s.08.04.12.05c.02,0,.04-.03.06-.04-.03-.02-.06-.05-.1-.08-.03.03-.06.05-.08.07Z"/>
      <path class="cls-1" d="M1.86,12.73s0,.05,0,.07c.05,0,.11-.01.16-.02,0,0,0-.06,0-.06-.05,0-.11,0-.16,0Z"/>
      <path class="cls-1" d="M1.28,12.72s0,.03,0,.05c.05,0,.11.01.16.02,0-.02,0-.03,0-.05-.04-.05-.1-.05-.16-.03Z"/>
      <path class="cls-1" d="M.83,12.76s0-.02,0-.04h-.19c.07.08.13.08.19.04Z"/>
      <path class="cls-1" d="M12.51,15.27c-.04.17-.06.34-.09.51,0,.05-.03.1-.04.15,0,.07,0,.13,0,.2,0,.13-.03.26-.03.39,0,.26.04.53.04.79,0,.18.05.35.1.52.03.12.06.24.11.35.13.3.32.57.56.79.14.13.29.25.45.34.15.09.33.13.5.18.27.08.55.14.84.11.12,0,.25-.03.37-.05.17-.02.35-.02.52-.06.25-.06.5-.15.74-.24.16-.06.32-.13.46-.22.26-.16.52-.33.77-.51.11-.08.21-.18.32-.27.08-.06.15-.12.23-.18.07-.05.12-.03.15.05.02.05.05.1.08.15.03-.02.04-.03.05-.05.01-.03.02-.05.04-.08,0,0,.01-.02.02-.02.11-.23.21-.46.31-.7,0-.02,0-.03,0-.05,0-.02,0-.04,0-.05,0-.01,0-.02,0-.03-.02,0-.04,0-.06,0h0s-.04,0-.06,0c0,0,0,0-.01,0-.12.03-.24.08-.36.13-.06.02-.11.06-.17.1-.06.04-.11.08-.17.11-.09.04-.16.08-.21.19.06.01.12.02.17.03.08.02.13.06.08.14-.06.11-.13.2-.25.25-.02,0-.03.02-.04.03-.05.04-.09.09-.14.13-.12.09-.25.17-.38.26-.11.08-.23.16-.35.22-.13.07-.27.12-.4.18-.1.04-.18.11-.28.14-.21.06-.44.08-.64.19,0,0-.02,0-.03,0-.18.02-.35.06-.53.07-.18.01-.37.01-.54,0-.21-.02-.43-.06-.63-.13-.22-.08-.43-.18-.63-.3-.3-.19-.5-.48-.67-.78-.09-.16-.12-.35-.16-.53-.04-.17-.06-.35-.08-.52,0-.04,0-.08-.01-.12,0-.11-.02-.21-.02-.32,0-.04,0-.08,0-.12,0-.05,0-.1,0-.15.03-.28.06-.55.08-.82,0-.07.02-.14.03-.21,0-.05.01-.11.02-.17.01-.04.02-.07.03-.11.01-.06.02-.13.03-.19.1-.32.21-.63.31-.94,0,0,0-.02.01-.03,0,0,0,0,0,0,.03-.07.07-.14.09-.21.03-.09.07-.18.11-.26,0,0,0-.01.01-.02,0,0,0-.02.01-.03,0-.02.02-.03.02-.04.13-.22.28-.43.45-.63.07-.09.15-.18.23-.26.11-.12.22-.23.33-.34.09-.08.19-.14.29-.21.1-.07.2-.14.3-.19.12-.07.25-.13.37-.18.13-.06.26-.12.4-.17.12-.04.25-.05.38-.07.1-.01.19-.02.29-.03.09,0,.19.01.28.02.2.02.41.02.61.06.15.03.29.1.43.15.28.1.54.24.77.44.05.04.11.07.17.11,0,0,.01-.02.02-.03-.03-.03-.05-.07-.08-.1.01-.01.02-.02.03-.04-.03-.01-.06-.01-.09-.03-.09-.07-.18-.14-.27-.2-.06-.05-.11-.1-.19-.12-.01,0-.02-.01-.03-.02-.12-.07-.25-.13-.38-.18-.01,0-.03-.02-.04-.03-.03,0-.05-.01-.08-.02-.06-.02-.12-.04-.18-.05-.15-.04-.3-.06-.45-.08-.05,0-.09-.02-.14-.02-.12-.02-.25,0-.37,0-.07,0-.14,0-.21.01-.1.01-.2.02-.3.04-.09.02-.18.06-.27.09-.09.03-.18.05-.27.09-.17.08-.34.17-.5.25-.01,0-.03.02-.04.03-.02.01-.04.02-.06.03,0,0,0,0,0,0-.11-.02-.17.04-.21.13,0,0-.01.02-.02.03,0,0-.01,0-.02.01,0,0,0,0-.01,0-.12.03-.2.13-.28.2-.15.14-.29.28-.43.42-.06.07-.11.11-.21.1-.05,0-.12.04-.16.08-.01.01.04.09.06.13.01.03.02.08,0,.11-.07.14-.16.27-.24.41-.09.19-.18.38-.26.58-.07.16-.13.33-.18.5-.07.23-.12.47-.17.7Z"/>
      <path class="cls-1" d="M3.67,11.95s.03.04.06.05c.28.05.57.09.85.14.03,0,.06-.02.09-.03,0-.03-.01-.07-.03-.09-.07-.1-.03-.2.08-.26.11-.05.21-.11.31-.18.2-.14.34-.33.46-.53.06-.1.14-.2.16-.31.03-.16.03-.32.03-.48,0-.37-.17-.68-.38-.96-.14-.19-.33-.35-.59-.43-.22-.07-.44-.1-.67-.09-.03,0-.07.02-.1.03,0,.01,0,.02,0,.03.04,0,.08.03.12.02.29-.04.55.08.79.2.25.12.41.34.56.58.17.26.14.55.15.83,0,.27-.11.52-.3.73-.08.09-.16.18-.25.25-.11.1-.23.18-.39.19-.08,0-.1-.04-.07-.1.04-.08,0-.15-.02-.21-.07.03-.14.06-.2.09-.01,0-.03,0-.04.02-.08.07-.16.15-.24.21-.11.08-.23.14-.34.22-.01,0-.03.03-.03.04-.01,0-.02.02-.03.02,0,0,.01,0,.02,0,0,0,0,0,0,.01Z"/>
    </g>
  </g>
</svg>