<?xml version="1.0" encoding="UTF-8"?>
<svg id="Layer_2" xmlns="http://www.w3.org/2000/svg" viewBox="0 0 51.21 31.39">
  <defs>
    <style>
      .cls-1 {
        fill: #2c489e;
      }
    </style>
  </defs>
  <g id="Layer_1-2" data-name="Layer_1">
    <g>
      <path class="cls-1" d="M51.19,27.68c-.06-.2-.26-.22-.44-.21-.57.04-1.13.11-1.69.12-8.43.21-16.85.45-25.28.61-4.85.1-9.7.23-14.55.42-1.32.05-2.64,0-4.11,0,.6-.73,1.1-1.31.68-2.12-.43-.83-1.21-.89-2.01-.85-.18,0-.88.11-1.18.43-.9,1.1-.73,2.09.44,2.78.61.36,1.27.45,1.94.48,9.69.48,19.39.95,29.08,1.42,4,.19,8,.39,11.99.58.41.02.81.09,1.2-.24,1.21-1.04,2.45-2.03,3.69-3.04.13-.11.32-.2.26-.4Z"/>
      <path class="cls-1" d="M2.62,19.39c1.23-.58,2.5-.96,3.88-.96,1.53,0,2.12.54,2.21,2.08.12,1.96.24,3.93.31,5.9.03.72.3,1.03,1.03.99.88-.04,1.77-.06,2.66-.03.81.03,1.04-.33.98-1.1-.06-.81-.2-3.79-.24-4.46-.04-.67-.14-1.34-.14-2.01,0-2.17-1.58-2.86-2.99-3.06-3.37-.48-6.6.3-9.83,1.09-.31.08-.63.25-.42.68.33.7,1.82,1.22,2.55.87Z"/>
      <path class="cls-1" d="M15.84,20.59c2.32.27,4.17-.77,5.72-2.27.86-.84,1.5-.82,2.4-.32.5.28.97.58,1.4.96.81.73,1.53,1.49,1.54,2.67,0,1.34-.92,1.93-2.13,1.34-.31-.15-.61-.36-.9-.55-.77-.52-1.61-.89-2.51-1.12-1.79-.47-3.62.07-4.48,1.39-.84,1.29-.58,2.72-.37,4.12.04.28.3.37.57.37,1.14-.02,2.27-.03,3.4-.05.5,0,.68-.29.63-.76-.03-.32-.04-.64-.03-.96,0-.56-.16-1.22.45-1.54.61-.31,1.25-.08,1.81.25.3.18.59.4.85.63.77.67,1.67,1.08,2.65,1.28,1.65.33,3.11-.05,4.17-1.44.99-1.3.58-2.62-.14-3.87-1.43-2.5-3.81-3.73-6.44-4.48-1.01-.29-.67-.57-.28-1.07.33-.42.69-.31,1.14-.21,1.92.45,3.84.95,5.84.94.62,0,.88.25.91.88.07,1.09.23,2.18.33,3.27.05.51.29.76.82.76,1.02,0,2.05.02,3.07.08.72.04,1.02-.14.86-.96-.22-1.11-.31-2.24-.44-3.37-.04-.32-.12-.6.39-.67,1.69-.23,3.32-.67,4.87-1.38.43-.2.65-.1.71.4.1.87.22,1.74.38,2.6.1.52-.03.79-.56.9-1.1.24-2.02.85-2.89,1.53-2.31,1.82-2.08,4.73.43,6.14,1.11.63,2.32.88,3.56.88,2.69,0,4.76-2.2,4.62-4.88-.04-.71-.05-1.42-.19-2.12-.1-.55.06-.69.57-.7.45-.01,1.1.18,1.03-.66-.06-.68-.51-.9-1.12-.78-.76.15-.89-.3-.96-.89-.09-.77-.67-4.34-.75-4.94-.11-.85.72-.89,1.61-1.68,2.46-2.19,3.18-5.99.9-8.56-1.36-1.53-3.4-2.15-5.26-1.47-1.9.7-2.88,2.16-2.86,4.37.02,2.46.67,4.83.98,7.25.09.67.05.99-.65,1.28-3.07,1.28-11.29,2.52-16.86-.5-.41-.16-.62.15-.8.5-.38.72-.8,1.42-1.21,2.12-.21.36-.44.6-.93.51-1.79-.32-6.1-.06-7.24,2.16-.71,1.39-.17,2.43,1.39,2.61ZM47,3.13c1.03.05,1.25.91,1.43,1.71.44,1.96-.41,3.57-1.51,5.08-.27.37-.54.26-.59-.23-.16-1.47-.32-2.94-.49-4.47-.03-.98.55-2.13,1.16-2.1ZM43.41,20.19c.14,1.02.27,2.03.39,2.98,0,1.2-.63,1.61-1.56,1-.85-.56-1.29-1.39-1.09-2.45.19-1.01.94-1.55,1.76-1.99.4-.21.46.19.49.47ZM17.69,17.72c.97-.59,2.05-.59,3.15-.56-.76.9-1.83,1.15-2.85,1.47-.24.08-.52,0-.65-.25-.18-.35.12-.53.35-.66Z"/>
    </g>
  </g>
</svg>