<?xml version="1.0" encoding="UTF-8"?>
<svg id="Layer_2" xmlns="http://www.w3.org/2000/svg" viewBox="0 0 39.63 45.72">
  <defs>
    <style>
      .cls-1 {
        fill: #2c489e;
      }
    </style>
  </defs>
  <g id="Layer_1-2" data-name="Layer_1">
    <g>
      <polygon class="cls-1" points="25.67 31.93 25.67 31.93 25.67 31.93 25.67 31.93"/>
      <path class="cls-1" d="M39.59,38.26c-.02-.05-.07-.12-.05-.15.05-.09,0-.13-.08-.18.1-.06.04-.12,0-.17-.04-.05-.11-.1-.11-.15,0-.14-.11-.25-.13-.38-.05-.32-.27-.58-.29-.92-.01-.22-.14-.43-.22-.64-.07-.18-.16-.36-.23-.55-.1-.27-.21-.54-.27-.82-.05-.23-.25-.4-.2-.65,0-.02-.02-.03-.03-.05-.02-.03-.04-.06-.04-.1-.04-.19-.07-.37-.1-.51-.07-.04-.1-.07-.14-.1-.04-.02-.1-.07-.14-.06-.06.03-.14.08-.15.13-.03.14-.04.29-.05.41-.04-.02-.11-.07-.19-.08-.22-.01-.43-.01-.65,0-.14,0-.28.04-.42.04-.16,0-.32-.03-.48-.04-.37,0-.73,0-1.1,0-.15,0-.3,0-.45,0-.09,0-.18.03-.27.03-.14,0-.28,0-.41,0-.36,0-.72,0-1.08,0-.24,0-.49-.02-.73-.02-.29,0-.57,0-.86,0-.14,0-.29,0-.43,0-.27,0-.55-.02-.82-.03-.26,0-.53,0-.79,0-.31,0-.61,0-.91,0-.12,0-.24.03-.36.03-.15,0-.3-.03-.45-.04-.11,0-.21,0-.31,0,.03-.18.14-.23.3-.23.29.01.58,0,.87,0,.1,0,.21-.03.31-.03.23,0,.45.03.68.03.28,0,.56,0,.85,0,.09,0,.19,0,.28-.01.02,0,.03,0,.05,0,.13.01.25.03.38.03.15,0,.29-.03.44-.03.19,0,.37.03.56.03.21,0,3.06.02,3.26.01.04,0,.07,0,.11,0,.18,0,.35,0,.53.01.16,0,.32-.07.44.03.11-.01.2-.03.29-.03.11,0,.21.02.32.02.18,0,.36.02.54.02.13,0,.26,0,.39-.01.04,0,.1-.08.11-.12,0-.04-.05-.12-.09-.13-.13-.03-.27-.05-.41-.05-.23,0-.46-.04-.69,0-.19.04-.4.03-.59,0-.22-.04-.43-.02-.62.08-.03-.03-.05-.07-.09-.08-.12-.02-.25-.05-.37-.05-.43-.01-3.5-.07-3.93-.08-.31,0-.62-.03-.93-.04-.19,0-.37,0-.56,0-.14,0-.28.01-.42,0-.19,0-.38-.02-.57-.02-.3,0-.59.03-.89.04-.05,0-.12-.05-.15-.1-.04-.07-.03-.16-.06-.24-.05-.15-.1-.29-.16-.44-.06-.13-.12-.25-.19-.38-.05-.1-.09-.21-.16-.3-.21-.29-.43-.57-.64-.85-.04-.05-.1-.09-.15-.14-.15-.17-.3-.35-.46-.53-.1-.12-.21-.24-.31-.36-.01-.01-.01-.03-.02-.05-.06-.08-.1-.18-.18-.23-.2-.11-.3-.31-.43-.47-.16-.2-.3-.41-.45-.62-.03-.03-.08-.07-.07-.1.02-.21-.2-.31-.22-.5,0-.07-.05-.13-.08-.2-.03-.03-.08-.07-.11-.11-.05-.08-.1-.16-.14-.24-.09-.21-.16-.43-.24-.64-.06-.17-.02-.36-.15-.51,0-.01,0-.03,0-.05,0-.15,0-.29,0-.44,0-.04,0-.09-.03-.12-.13-.19-.06-.39-.05-.6-.02-.03-.06-.06-.07-.1-.02-.18-.02-.35-.03-.53,0-.15,0-.3-.03-.44-.01-.07,0-.1.03-.16.04-.06.06-.14.07-.22,0-.09-.02-.18-.02-.28,0-.07,0-.15.01-.22,0-.07.01-.14.02-.21.03-.27.05-.54.08-.8.01-.1.05-.21.07-.31.02-.1.02-.2.04-.3.03-.12.08-.23.12-.34.07-.19-.05-.44.16-.6.01,0,0-.05,0-.07,0-.03-.01-.07,0-.1.06-.16.02-.34.15-.48.02-.02.02-.06.02-.08.05-.16.1-.33.15-.49.08-.24.17-.47.26-.71.02-.06.06-.11.1-.16.02-.02.05-.04.05-.07.03-.14.06-.28.09-.42.02-.06.05-.11.08-.17.02-.11.05-.21.09-.32.03-.07.1-.14.09-.21,0-.11.05-.17.1-.25.06-.1.13-.2.17-.31.09-.24.18-.48.26-.72.04-.1.06-.21.12-.29.08-.12.03-.31.22-.35,0-.05-.02-.1,0-.13.06-.15.11-.3.19-.44.13-.22.26-.44.34-.68.04-.1.08-.21.13-.3.11-.2.24-.38.28-.61,0-.04.04-.09.06-.13.08-.12.16-.23.2-.37.07-.24.18-.46.28-.69.11-.24.24-.46.36-.69.05-.09.12-.18.16-.27.1-.21.17-.43.27-.64.13-.28.28-.56.41-.84.04-.09.06-.2.1-.29.07-.16.16-.32.24-.48,0-.01,0-.03,0-.05,0-.05.01-.11.03-.16.06-.15.12-.3.17-.45.06-.2.1-.41.15-.61.02-.07.04-.14.06-.22.02-.12.03-.24.06-.36.04-.15.09-.3.13-.44,0-.01,0-.03,0-.05,0-.1,0-.2.01-.3,0-.09.02-.19.02-.28-.01-.15-.04-.29-.06-.44-.01-.09,0-.18-.02-.26,0-.08-.03-.15-.04-.22-.04-.44-.16-.85-.35-1.24-.09-.18-.19-.35-.3-.51-.1-.15-.23-.29-.35-.43-.13-.16-.27-.31-.41-.46-.07-.07-.07-.23-.23-.21,0,0-.02-.07-.03-.1,0-.04-.02-.07-.02-.11-.01,0-.03,0-.04,0,0,.03-.02.07-.03.1-.01,0-.02,0-.03.01-.02-.04-.04-.09-.07-.12-.02-.03-.05-.07-.07-.07-.12.02-.15-.03-.12-.14-.05,0-.1.01-.14,0-.3-.14-.6-.29-.9-.42-.18-.08-.36-.15-.54-.2-.1-.03-.22-.02-.32-.04-.4-.08-.79-.18-1.18-.25-.41-.07-.82-.11-1.23-.15-.24-.03-.48-.03-.73-.04-.27,0-.55,0-.82,0-.07,0-.14,0-.21-.01-.22,0-.44.04-.67.01-.23-.03-.47-.01-.71,0-.26,0-.53.03-.79.04-.4.02-.81.02-1.22.06-.47.05-.93.15-1.4.22-.14.02-.28.06-.42.09-.13.03-.26.03-.39.07-.21.06-.41.15-.61.23-.1.04-.2.09-.3.14-.12.06-.23.12-.34.19-.16.1-.31.21-.46.33-.11.09-.21.2-.31.29-.1.09-.21.17-.29.28-.17.23-.31.48-.47.72-.11.16-.24.31-.23.52,0,.01-.02.02-.03.04-.11.21-.26.4-.33.62-.11.36-.18.74-.26,1.11-.04.16-.07.33-.1.49,0,.03,0,.07,0,.1,0,.06,0,.11,0,.17,0,.15.02.3.03.45.01.16.06.32.04.47-.02.21.06.35.27.36.2.01.24-.04.18-.23,0,0,0,0,0-.01-.05-.23-.19-.46-.07-.71.03-.06,0-.15,0-.23,0-.03.01-.05.03-.11.05.07.07.12.11.15.03.03.08.07.12.07.07,0,.15-.16.12-.25-.02-.06-.02-.17-.16-.13-.07.02-.14.02-.21.03,0-.07-.04-.15-.03-.21.06-.34.04-.68.17-1.01.03-.07.04-.15.06-.23.03-.08.06-.15.1-.22,0-.01.05-.01.07-.01.02,0,.03.03.04.04-.03.03-.05.06-.08.09.1.13.14.13.26.03-.02-.04-.05-.07-.07-.11.01,0,.02,0,.04.02.07-.1.16-.2.22-.31.01-.02-.04-.09-.06-.13-.03.03-.08.06-.1.09-.03.05-.05.12-.08.2-.08-.1-.12-.16-.07-.26.11-.23.2-.46.31-.69.06-.12.13-.24.22-.35.11-.14.27-.24.34-.4.13-.29.4-.39.62-.56.13-.1.29-.18.44-.26.15-.09.31-.17.46-.25.16-.09.32-.21.52-.1,0,0,.02,0,.04,0,.2-.04.41-.09.61-.14.16-.04.32-.08.49-.11.15-.03.3-.06.44-.08.02,0,.06-.02.07,0,.1.07.19.01.28,0,.04,0,.08-.01.12-.02.2-.01.4-.02.6-.03,0,0,0,0,.01,0,.2-.02.39-.04.59-.05.36-.01.73-.01,1.09-.02.22,0,.45-.01.67,0,.21,0,.43.02.64.03.1,0,.21,0,.31,0,.21.01.42.02.63.03.36.02.72.03,1.08.06.29.03.57.17.88.12,0,0,0,0,.01,0,.22.05.44.1.66.15.07.02.15,0,.22.02.19.06.36.15.55.21.25.08.5.14.73.29.09.06.2.1.3.15.12.05.24.1.35.16.14.09.28.18.4.3.13.12.23.28.36.41.24.23.45.48.56.79.02.05,0,.11.03.15.05.1.11.2.17.29.08.11.1.24.11.37,0,.15,0,.32.05.46.05.15.1.28.09.44-.02.38-.03.76-.05,1.14,0,.09-.05.18-.06.27,0,.08-.01.13-.12.11-.03,0-.07.06-.11.09.04.01.08.02.12.03.01,0,.03,0,.07,0,0,.07.01.13,0,.18-.04.14-.09.28-.14.43,0,.01,0,.03.01.05.09.13-.01.22-.06.33-.07.15-.15.29-.21.44-.04.1-.07.22-.1.32-.02.05-.02.11-.04.18,0,0-.06.01-.08.04-.04.08-.05.18-.1.24-.11.13-.02.32-.18.45-.11.1-.15.29-.22.44-.13.29-.26.58-.4.87-.07.15-.15.29-.22.44-.08.17-.17.35-.24.53-.1.25-.31.45-.35.74,0,.06-.04.11-.06.17-.04.08-.09.15-.13.22-.07.12-.13.24-.19.36-.11.26-.21.52-.33.77-.06.13-.13.25-.19.38-.04.09-.08.19-.12.29-.05.12-.11.23-.16.35-.08.19-.15.38-.24.57-.1.21-.24.42-.3.64-.06.26-.2.47-.28.72-.05.16-.11.31-.17.46-.06.15-.1.3-.16.48-.02.02-.07.07-.1.14-.04.11-.07.22-.1.33,0,.03-.02.08-.01.09.06.08,0,.13-.03.18-.01.02-.04.04-.05.07-.07.18-.03.39-.17.54,0,0,0,.02-.01.04-.01.07-.02.15-.04.22-.09.29-.18.59-.26.88-.06.22-.1.44-.15.66-.03.12-.14.24-.05.38,0,0-.01.03-.02.05-.05.17-.12.34-.12.51,0,.13-.03.25-.06.37-.03.1-.02.21-.03.31,0,.02,0,.03,0,.05.04.09.02.28-.04.36-.1.14-.05.33.1.39.08.03.07.06.02.11-.06.07-.13.15-.15.23-.05.16,0,.25.15.29-.04.05-.1.11-.11.17-.03.11-.04.23-.04.34,0,.03.04.08.07.1.03.02.1.02.12.05.03.04.03.1.03.15,0,.01-.02.04-.03.03-.02,0-.04-.01-.06-.03-.02-.03-.03-.06-.06-.12-.08.15-.05.28-.02.4.03.1.09.19.08.31-.02.15.08.31,0,.46,0,.01.01.04.02.06.08.16.17.32.24.49.05.13.05.27.09.41.03.12.04.27.12.36.23.28.32.65.56.92.03.03.03.08.05.11.02.04.04.09.07.13.12.15.29.27.36.44.11.27.34.44.5.66.12.17.28.31.42.47.14.15.25.33.41.46.1.08.17.18.24.28.23.33.45.66.68.99.05.08.09.17.14.25-.07.05-.12.08-.17.12-.14-.18-.34-.3-.45-.51.06.03.09.09.13.13.03.02.07.03.11.04,0,0,.04-.05.03-.07-.08-.13-.17-.25-.26-.37-.02-.02-.1,0-.13.02-.09.08-.01.14.04.2-.04,0-.09,0-.12-.03-.07-.05-.13-.1-.19-.15-.08-.06-.15-.12-.23-.18-.13-.06-.25-.13-.38-.19-.3-.14-.57-.35-.9-.43-.26-.06-.47-.24-.73-.29-.05,0-.09-.04-.14-.06-.14-.04-.27-.06-.41-.1-.32-.09-.63-.19-.95-.27-.1-.03-.21-.03-.31-.05.02-.07.18-.08.08-.17-.06-.05-.14-.15-.24-.06-.13.12.06.12.1.21-.08,0-.15,0-.22-.01-.13-.01-.26-.03-.39-.04-.3-.02-.6-.03-.91-.04-.08,0-.16.02-.24.02-.11,0-.23-.03-.34-.02-.37.04-.74.08-1.11.13-.34.05-.68.1-1,.2-.43.13-.88.24-1.28.47-.03.02-.07.04-.1.05-.38.07-.68.3-1.03.44-.11.04-.2.14-.31.18-.19.06-.32.18-.43.34-.04.05-.11.1-.16.1-.12,0-.18.06-.26.13-.12.11-.23.22-.36.32-.06.05-.14.08-.22.1-.07.02-.12,0-.1-.1.03-.25.18-.43.3-.63.06-.11.14-.21.21-.32.05.01.08.05.04.12-.02.04-.07.08-.08.13-.02.05-.02.1-.03.16.05,0,.1,0,.15-.01.03,0,.05-.03.07-.05.12-.14.24-.28.36-.43.05-.06.08-.14.11-.21.01-.03.01-.08,0-.09-.02-.02-.07-.02-.09,0-.03.02-.05.05-.08.08-.03.03-.07.06-.11.08-.02,0-.07,0-.09-.02-.01,0,0-.06,0-.08.04-.06.08-.13.13-.19.11-.12.28-.19.29-.38,0-.01.02-.02.04-.03.12-.09.25-.19.37-.28.07-.06.12-.12.19-.18.13-.11.27-.22.41-.33.12-.1.24-.22.38-.29.09-.05.14-.08.1-.17.48-.34.8-.82,1.16-1.26.06.14-.06.17-.1.23-.02.03-.02.07-.02.1,0,.01.05.04.06.04.03-.01.05-.04.07-.07.04-.05.08-.12.13-.16.16-.1.31-.21.39-.38.05-.1.1-.2.16-.3.03-.04.07-.08.12-.1.09-.05.18-.09.26-.14.05-.03.09-.07.04-.13-.05-.08-.09-.03-.14,0-.07.04-.14.07-.21.1-.04.02-.09.02-.13.05-.17.13-.22.37-.43.45,0,0-.01.01-.01.02.02.13-.12.12-.18.19,0-.03.01-.05.03-.07.08-.11.17-.21.24-.33.06-.11.09-.25.17-.34.1-.11.13-.24.16-.38.03-.13.05-.27.12-.38.05-.09.02-.14-.01-.19.05-.1.07-.21.12-.31.04-.08-.01-.16.01-.2.12-.16.04-.33.02-.48-.03-.14-.04-.24.08-.29-.01-.09-.03-.16-.04-.24,0-.09.01-.17,0-.26-.02-.22-.04-.44-.07-.66-.01-.11-.06-.23-.04-.34.03-.18,0-.34-.03-.5-.04-.26-.1-.51-.14-.77-.01-.09.01-.18.02-.29-.1-.07-.12-.24-.03-.39-.14-.15-.15-.17-.13-.25.06.04.17.07.19.13.04.12.11.14.22.11v.15c.05,0,.09-.02.1-.02-.02-.13-.03-.25-.06-.36-.02-.07-.09-.13-.15-.18-.01,0-.08.06-.12.06-.07,0-.16,0-.2-.04-.07-.07.03-.08.07-.11.01-.01.02-.03.03-.05-.15-.01-.17-.03-.17-.15.06,0,.11,0,.16,0,.15,0,.26-.13.19-.26-.02-.04-.07-.05-.11-.08-.02.04-.05.09-.07.14,0,.03,0,.06,0,.1-.07-.02-.13-.04-.18-.06-.03-.01-.07-.03-.07-.06-.02-.07-.04-.15-.05-.22-.01-.07-.01-.14-.03-.2-.02-.08-.05-.16-.08-.24-.02-.07-.03-.15-.05-.22-.09-.3-.19-.59-.28-.89.01,0,.02,0,.03.01.02-.05.06-.1.07-.15,0-.03-.04-.1-.06-.1-.15,0-.15-.08-.1-.17-.05-.06-.11-.11-.13-.18-.09-.25-.18-.51-.24-.77-.03-.13-.08-.23-.16-.33-.05-.06,0-.17.07-.16.13.02.16-.1.24-.14.02,0,.02-.08.01-.12,0-.05-.01-.09-.04-.13-.03-.04-.07-.07-.1-.11-.04.05-.08.1-.1.15-.01.03.01.07.03.11-.04,0-.06,0-.09,0-.19,0-.22-.02-.28-.2-.03-.09-.07-.18-.1-.27-.13-.31-.26-.63-.38-.94-.01-.03.01-.08.03-.15.05.06.08.09.12.13,0-.05,0-.07,0-.09,0-.02,0-.05,0-.06.05-.03.1-.04.14-.07.06-.05.05-.18-.01-.23-.05-.04-.1-.08-.15,0-.08.1-.15.21-.23.32-.1-.08,0-.16.05-.2.13-.09.05-.13-.03-.19-.04.05-.07.09-.11.14-.06-.08-.06-.14.04-.18.02,0,.05-.03.05-.04,0-.02-.02-.04-.04-.06-.02-.01-.05-.01-.05-.01-.02-.07-.04-.1-.05-.14-.04.03-.07.06-.11.1-.05-.07,0-.17.19-.25,0,.02.01.05.03.07.04.05.07.09.11.13.01,0,.08-.02.08-.03,0-.05-.02-.11-.05-.15-.03-.05-.08-.09-.11-.13.02-.03.04-.05.06-.08-.13-.09-.24-.18-.28-.34,0-.04-.03-.08-.05-.1-.05-.04-.1-.08-.15-.08-.06,0-.11.05-.18.09.08.09.14.15.19.21.08.1.3.13.15.33,0,0,0,.02,0,.02-.02.05-.04.09-.06.14-.01,0-.02,0-.04-.01-.17-.36-.35-.71-.5-1.04.03-.05.06-.09.05-.11-.02-.04-.05-.1-.08-.1-.09,0-.11-.04-.13-.11-.03-.07-.07-.13-.1-.21-.03-.07-.05-.15-.08-.22-.03-.06-.08-.11-.12-.18-.1-.21-.2-.43-.3-.64-.03-.07-.04-.11.02-.17.07-.07.05-.13-.04-.18-.04-.02-.07-.04-.1-.07.05-.07.09-.12.14-.2.04.09.06.17.09.24.02.04.06.08.1.1.01,0,.07-.02.07-.04,0-.04,0-.1-.02-.13-.08-.07-.07-.13,0-.18-.06-.07-.09-.18-.16-.2-.07-.02-.16.05-.24.08,0,0-.02,0-.03,0-.05.01-.1.02-.17.04-.09-.23-.2-.48-.3-.73-.09-.24-.17-.49-.25-.74-.03-.08-.05-.16-.08-.24-.06-.16-.14-.31-.18-.48-.08-.27-.14-.56-.2-.83-.02-.08-.01-.17-.06-.24-.05-.08-.12-.15-.24-.13-.05.01-.14,0-.15.03-.02.06-.02.14,0,.2.02.1.1.19.09.28-.01.15.02.28.06.42.08.29.14.57.3.84.13.21.18.47.26.71.02.06.01.12.05.17.13.17.11.42.3.57,0,0,0,.02,0,.02,0,.09.09.33.13.4.08.13.17.26.19.41.02.11.04.22.08.32.05.13.12.25.19.37.05.09.11.17.15.26.05.13.08.27.14.39.14.28.29.56.43.84.13.28.25.56.37.84.07.16.16.32.23.49.1.22.24.43.31.66.07.19.11.39.22.58.14.24.24.5.34.76.08.2.16.41.24.61.09.25.16.51.25.76.06.18.15.34.21.52.04.12.05.25.07.37,0,.05,0,.1.02.14.02.06.06.12.08.18.02.06.03.13.05.2.02.07.05.14.07.21.04.16.06.32.1.47.04.17.1.34.15.5.01.04.03.09.04.13.05.22.09.43.14.65.02.1.03.21.05.31,0,.04,0,.08.01.12.04.19.1.38.13.57.04.33.08.66.1.98.01.29.06.58.01.88-.05.28-.02.57-.07.85-.04.2.05.42-.13.59,0,0-.01.04,0,.05.06.08-.02.11-.04.16-.03.05-.07.11-.06.15.03.13-.06.21-.1.3-.01.03-.03.06-.04.09-.03.14-.09.26-.22.34-.04.02-.06.08-.09.12-.1.15-.12.35-.28.47-.03.02-.04.08-.06.12-.01.03-.02.06-.05.09-.14.17-.29.33-.44.5-.05.06-.08.13-.13.18-.14.13-.29.25-.43.37-.22.19-.43.39-.65.59-.08.07-.17.11-.25.17-.18.13-.37.26-.5.45-.03.04-.04.09-.08.13-.13.13-.26.24-.39.37-.03.03-.05.09-.08.13-.06.08-.11.16-.17.23-.06.07-.15.11-.18.19-.05.13-.14.21-.24.28-.03.02-.06.07-.07.11-.03.16-.05.31-.15.45-.04.06-.07.14-.09.21-.04.11-.07.23-.1.36.01.02.04.06.06.1.09.15.03.25-.15.24-.06,0-.11,0-.17,0-.15,0-.3,0-.45,0-.17,0-.34-.02-.5-.01-.16,0-.31.04-.47.06-.03,0-.06,0-.09,0-.26,0-.51-.01-.77-.02-.15,0-.29-.01-.44-.01-.08,0-.18-.02-.25.01-.12.06-.23.04-.35.03-.2-.02-.39-.11-.6-.06-.09.02-.19.04-.29.04-.21,0-.42-.01-.63-.02-.2,0-.41.01-.61.01-.22,0-.45-.01-.67-.02-.04,0-.07.02-.11.02-.04,0-.08,0-.12,0-.2,0-.4,0-.61,0-.11,0-.22.1-.33-.02,0,0-.02,0-.04,0-.17,0-.34.01-.51,0-.3,0-.6-.01-.9-.02-.18,0-.37-.01-.55,0-.2.02-.41-.07-.59.1-.05-.04-.09-.08-.14-.12-.13-.11-.31-.05-.35.11-.03.13-.06.26-.08.39-.05.26-.12.51-.24.75-.01.03-.02.07,0,.09.06.11-.02.2-.05.29-.01.04-.05.08-.06.13-.03.13-.04.26-.08.39-.07.3-.15.59-.23.89-.08.3-.15.6-.22.91-.05.21-.19.41-.13.64,0,.04-.03.09-.05.14,0,.02-.04.04-.04.06-.03.25-.07.51-.09.76-.01.16,0,.33.02.5.02.14.05.28.09.42.05.19.12.37.21.55.09.18.1.4.15.6.02.07.04.15.07.22.04.1.12.18.05.3-.01.02.02.07.03.11.05.14.11.27.15.42.04.15.02.32.08.48.06.15.09.32.12.49.04.19.08.39.12.58.02.1.02.2.05.3.07.26.14.52.21.77.04.16.08.32.13.47.05.19.14.37.15.56,0,.21.15.35.19.53,0,.03.07.05.11.05.16,0,.33,0,.49,0,.25,0,.5-.02.76-.03.22,0,.44-.02.66-.03.16,0,.32,0,.48,0,.08,0,.16.02.24.02.21-.01.42-.04.63-.06.04,0,.08,0,.13,0,.12.01.25.04.37.04.34,0,.67-.02,1.01-.02.23,0,.46.01.69.01.16,0,.31-.03.47-.03.26,0,.52.03.78.04.06,0,.13.01.19,0,.17,0,.34-.02.51-.02.22,0,.44.01.65.01.18,0,.37,0,.55,0,.19,0,.36.12.56.06.06-.02.12-.05.15-.09.02-.02.16,0,.31.01.31.01.62.03.93.04.44,0,.89,0,1.33,0,.29,0,.57.02.86.03.1,0,.19-.02.29-.02.2,0,.39.02.59.02.17,0,.33-.01.5-.01.12,0,.24.01.35.02.23.02.46.05.68.05.51,0,1.02-.05,1.53-.02.27.02.54-.03.81.01.22.03.45,0,.68,0,.27,0,.54-.03.81-.03.29,0,.58,0,.88,0,.1,0,.19.03.29.03.25,0,.5,0,.74,0,.16,0,.32.02.48.02.31,0,.62,0,.92,0,.26,0,.51-.02.77.02.22.04.46-.01.69-.01.43,0,.86.01,1.29.02.27,0,.54,0,.81,0,.19,0,.38-.03.58-.02.38,0,.76.02,1.13.03.03,0,.07,0,.1,0,.32-.01.63-.03.95-.03.17,0,.34.03.51.03.18,0,.36-.02.54-.02.22,0,.45.04.67.04.68.01,1.36.02,2.04.02.25,0,.51-.02.76-.02.23,0,.47.02.71.01.45-.01.89-.04,1.34-.06.21,0,.42,0,.63-.01.04,0,.08-.03.11-.05.08-.04.15-.09.23-.14.05-.03.1-.06.15-.09-.05-.05-.08-.08-.09-.09.06-.09.13-.15.16-.23.04-.13.04-.27.06-.4.02-.11.03-.23.05-.34.02-.11.04-.23.06-.34,0-.02,0-.05,0-.07.13-.14.09-.33.13-.5.04-.16.04-.33.07-.49.06-.31.13-.62.19-.92.02-.12.02-.25.05-.38.02-.11.08-.21.1-.31.04-.21.07-.42.11-.63.04-.21.09-.43.14-.64.04-.17.07-.35.11-.52.08-.37.16-.74.24-1.12,0-.04-.02-.08-.04-.13ZM11.73,4s-.03-.02-.05-.04c.05-.1.09-.21.15-.31,0-.02.06-.04.07-.03.02.02.06.07.05.09-.07.1-.14.19-.21.29ZM25.92,12.36s.05-.04.08-.06c.02.03.05.07.04.09-.02.07-.06.14-.1.21-.02,0-.03,0-.05,0,0-.04-.02-.08-.01-.11,0-.04.02-.08.04-.12ZM24.46,15.88h.02c-.02.07-.04.14-.07.2-.03-.02-.06-.03-.09-.05.06-.07.1-.11.14-.16ZM23.95,16.9s.03.02.05.03c-.03.06-.06.11-.08.17-.02-.01-.04-.02-.06-.03.03-.05.06-.11.09-.16ZM22.84,20.02s.09-.04.14-.06c.01.01.02.02.03.03-.03.06-.05.12-.09.17,0,.01-.09,0-.09,0,0-.05-.01-.11,0-.14ZM22.71,21.18s0,.07,0,.08c-.09.07-.11-.03-.18-.06.07-.09.13-.09.18-.02ZM22.51,21.39h.17v.15s-.02.01-.03.02c-.04-.05-.08-.1-.14-.17ZM23.15,27.36s-.05-.05-.08-.07c.04-.03.07-.06.11-.09.01.01.02.02.04.03-.02.04-.05.08-.07.12ZM11.64,7.67c-.02-.11-.03-.18-.05-.25.01,0,.03-.01.04-.02.03.05.08.11.1.16,0,.02-.04.05-.09.11ZM12.7,10.55c.07.05.14.1.21.16q-.1.06-.21-.16ZM12.92,11.05s-.06-.05-.05-.06c.02-.04.06-.08.1-.14.04.05.08.1.07.1-.03.04-.08.07-.12.1ZM15.47,16.49s-.08-.07-.1-.12c-.01-.02,0-.06.02-.09.01-.02.05-.02.08-.02,0,.03,0,.06,0,.08,0,.04.02.08.02.12,0,0-.01.01-.02.02ZM16.66,20.31s-.05,0-.08,0v-.18s.07,0,.11,0c-.01.06-.02.12-.03.18ZM16.75,20.99c-.02-.08-.03-.15-.04-.23q.11.05.04.23ZM26.38,33.18s0,.07,0,.1c-.77.05-1.52-.06-2.28-.12-.74-.06-1.48-.09-2.23-.26.04-.02.06-.04.08-.04.12.01.23,0,.34-.03.12-.04.26-.01.39,0,.29,0,.59.01.88.03.2.01.4.05.6.07.38.02.76.03,1.14.06.13,0,.25.04.38.04.19,0,.37.01.56,0,.11,0,.17.03.14.15ZM12.81,32.21c.11-.07.21-.17.3-.26.29-.27.61-.5.98-.67.09-.04.17-.11.26-.17-.02-.04-.04-.08-.06-.13.05,0,.09,0,.1.02.06.1.12.06.19,0,0,0,.02-.02.03-.02.21.03.32-.16.48-.22.17-.07.33-.16.5-.22.28-.1.57-.19.85-.29.16-.06.32-.12.47-.17.15-.05.3-.08.46-.12.06-.02.13-.05.19-.05.11,0,.21-.12.34-.05.02.01.06,0,.09,0,.21-.02.42-.05.63-.08.05,0,.09-.03.14-.05.18-.04.35-.02.52.03.07.02.14.01.21,0,.17-.01.35-.07.5-.03.26.07.53.03.79.13.17.06.37.05.55.09.27.05.53.11.8.18.29.07.59.15.88.22.02,0,.04,0,.06.02.29.15.58.31.88.45.23.12.47.21.7.33.2.1.4.21.59.34.15.1.27.24.41.36.02.02.02.05.02.08.23.09.41.25.57.47-.08,0-.13.02-.18.02-.3,0-.59-.01-.89-.02-.12,0-.23-.04-.35-.04-.21,0-.42.02-.63.02-.09,0-.19,0-.29-.02-.22-.02-.44-.07-.65-.04-.18.03-.34-.02-.5-.02-.31,0-.62,0-.93,0-.12,0-.24,0-.36,0-.09,0-.18,0-.27,0-.24,0-.48.01-.72.02-.15,0-.3,0-.44.01-.31,0-.62.01-.92,0-.08,0-.15-.03-.14-.14,0-.07-.02-.15-.03-.22,0-.02-.02-.05,0-.06.1-.14-.03-.27,0-.4,0-.03-.06-.09-.1-.12,0-.01-.07,0-.07.02-.01.08-.02.16-.02.24,0,.12,0,.23.01.35,0,.11.03.21.05.33-.11.06-.24.04-.38.03-.29-.01-.57,0-.86,0-.02,0-.04,0-.06,0-.55,0-1.09,0-1.64-.01-.29,0-.59,0-.88,0-.45,0-.89,0-1.34,0-.02,0-.03,0-.06-.01,0-.12-.01-.23-.03-.35,0-.04-.05-.07-.08-.11-.03.04-.09.07-.09.11,0,.11,0,.23.01.38-.17.14-.41-.11-.62.05-.04-.09-.03-.14.05-.19ZM2.82,32.98c.1,0,.17.01.23.01.22,0,.44-.04.66,0,.14.02.27.02.41.01.21-.01.42.02.63.03.15,0,.31,0,.46,0,.17,0,.33.02.5.02.24,0,.49-.02.73-.01.19,0,.38.03.57.04.08,0,.16-.02.24-.02.23,0,.46,0,.7.01.34,0,.68.02,1.02.03.16,0,.31-.02.47-.02.2,0,.39.02.59.02.12,0,.24-.03.36-.03.16,0,.33.01.49.01.32,0,.63-.02.95-.03.25,0,.5.01.74-.02.15-.02.29,0,.44,0,.26,0,.51,0,.77,0,.3,0,.6.01.89,0,.36,0,.71-.03,1.07-.04.24,0,.48,0,.72,0,.36,0,.73.02,1.08-.08.07-.02.16,0,.25.02-.06.03-.11.08-.17.09-.16.04-.33.05-.48.11-.23.09-.47.1-.71.14-.2.03-.4.03-.6.03-.22,0-.43-.01-.65,0-.14,0-.28.04-.41.05-.14,0-.28,0-.42,0-.11,0-.23,0-.34,0-.08,0-.16,0-.24,0-.43,0-.86,0-1.29,0-.26,0-.53.02-.79.03-.2,0-.4.04-.59.04-.19,0-.37-.03-.56-.04-.07,0-.15,0-.22,0-.29,0-.58-.02-.86-.03-.25,0-.5,0-.75,0-.28,0-.55.02-.83.02-.3,0-.61-.02-.91-.02-.23,0-.46.02-.69.01-.16,0-.32-.02-.48-.03-.12,0-.25,0-.38,0-.19,0-.37-.03-.56-.04-.13,0-.26,0-.39,0-.08,0-.16.01-.24.01-.18,0-.35.01-.52.01-.14,0-.29-.01-.43-.01-.22,0-.44,0-.66,0-.16,0-.33-.02-.49-.03-.04,0-.08,0-.11,0-.14.01-.14.01-.22-.13.34-.2.73-.05,1.04-.17ZM21.48,45.31s-.08-.01-.12-.02c-.11,0-.22,0-.33-.02-.03,0-.05-.02-.07-.04,0,0,0-.04.01-.04.02,0,.05,0,.08,0,.13.02.25.04.38.06.02,0,.04.02.05.02,0,0,0,.02,0,.02ZM32.55,38.12c.1-.04.18-.12.29,0h-.29ZM38.65,37.81c-.19.04-.39.03-.59.04-.1,0-.19.02-.29.02-.12,0-.25,0-.37.01-.13,0-.26,0-.39.01-.06,0-.13,0-.19,0-.2,0-.4.02-.6.02-.22,0-.45-.02-.67-.02-.28,0-.55,0-.83-.01-.3,0-.59,0-.89,0-.19,0-.38.02-.57.02-.17,0-.34-.01-.51-.02-.34,0-.68,0-1.03,0-.25,0-.49,0-.73.02-.43.02-.85.04-1.28.06-.24,0-.48.02-.72.03-.22,0-.45,0-.67,0-.25,0-.51.02-.76.02-.31,0-.62-.04-.94-.04-.22,0-.44.02-.66.04-.03,0-.07-.01-.1-.01-.11,0-.21,0-.32,0-.12,0-.24,0-.35,0-.19,0-.38-.02-.58-.01-.45,0-.91.01-1.36.02-.19,0-.37.02-.56.02-.16,0-.32-.01-.48-.01-.26,0-.53.02-.79.02-.23,0-.45,0-.68,0-.33,0-.66,0-1,0-.11,0-.23-.01-.34-.01-.22,0-.44,0-.66,0-.21,0-.41,0-.62,0-.24,0-.48.03-.72.04-.17,0-.34,0-.51,0-.28,0-.57.01-.85.02-.18,0-.37-.02-.54,0-.26.04-.52-.04-.77.03-.04,0-.09,0-.12-.03-.09-.09-.19-.03-.29-.02-.12.01-.24.01-.36.02-.04,0-.08-.01-.11-.01-.37,0-.73,0-1.09.02-.21.01-.42.06-.63.08-.03,0-.06,0-.09,0-.11-.03-.23-.08-.34-.09-.24-.01-.48,0-.72-.01-.11,0-.23,0-.34,0-.08,0-.16.01-.26.02-.14-.09-.33-.05-.52-.05-.18,0-.36-.01-.54-.01-.18,0-.35,0-.53,0-.13,0-.26-.03-.39-.04-.15-.01-.29-.02-.44-.03-.38-.01-.76-.06-1.13-.03-.49.04-.97-.04-1.46,0-.22.02-.45-.03-.68-.03-.24,0-.48,0-.72,0-.4-.01-.81-.04-1.21-.05-.12,0-.24,0-.36,0-.2-.01-.4-.05-.59-.04-.32,0-.63.03-.95.06-.19.02-.32-.1-.29-.28.03-.15.05-.31.09-.46.07-.3.14-.59.21-.89.07-.29.13-.58.2-.87.05-.18.12-.35.17-.52.05-.15.07-.31.12-.46.03-.09.07-.18.09-.27.03-.11.03-.23.05-.35,0-.04.01-.08.02-.14.15.12.25.02.38,0,.15-.03.31-.05.46-.09.13-.03.27.02.42-.01.13-.04.28.02.42.04.03,0,.06.02.09.02.19,0,.4.05.56-.02.21-.07.37.03.56.02.28,0,.56,0,.84,0,.16,0,.33.01.49.01.17,0,.34-.01.51-.02.08,0,.17,0,.25,0,.21.01.42.04.62.05.04,0,.08-.04.13-.04.09,0,.18.02.28.04.2.02.39.05.59.07.09.01.18.02.27.02.02,0,.06,0,.07,0,.08-.09.15-.03.24-.01.09.02.19.03.28.02.29-.05.58-.05.87-.03.24.02.49-.01.74-.02.25,0,.5,0,.76,0,.21,0,.41-.04.62-.04.31-.01.62-.03.94-.03.37,0,.75.02,1.12.03.31,0,.63,0,.94,0,.38,0,.77.02,1.15.02.21,0,.42-.04.63-.05.11,0,.23,0,.34-.01.28-.05.57-.14.85-.17.25-.02.44-.15.66-.24.11-.05.2-.17.31-.21.19-.07.39-.12.59-.14.22-.02.45,0,.68,0,.11,0,.22,0,.33,0,.03,0,.08,0,.09.03.1.15.27.19.43.22.25.06.5.09.75.13.31.06.62.13.93.18.22.04.45.04.68.07.33.04.66.08.99.13.1.01.2.02.3.02.31,0,.61-.02.91-.01.22,0,.43.03.65.04.26,0,.51.01.77.02.31,0,.62.01.93.03.28.01.56.05.83.06.26.01.51,0,.77.01.27,0,.54.02.81.03.08,0,.15,0,.23,0,.13,0,.25,0,.38,0,.07,0,.14,0,.21,0,.21,0,.42.01.63,0,.18,0,.36-.02.55-.02.22,0,.45,0,.67,0,.19,0,.39,0,.58,0s.4,0,.6,0c.15,0,.3-.02.46-.03.24-.01.48-.03.71-.04.12,0,.23.01.35,0,.11,0,.23-.02.34-.03.36,0,.72,0,1.08-.02.01,0,.03,0,.04,0,.16-.09.21-.02.25.13.05.18.15.35.22.53.05.14.07.29.12.43.07.19.17.37.25.55.05.11.08.23.12.34.08.21.17.43.25.64.03.09.05.18.08.27.06.19.12.38.19.56.05.13.1.25.16.37.08.2,0,.37-.2.41Z"/>
      <path class="cls-1" d="M26.95,4.15s-.06-.13-.09-.13c-.05,0-.1.05-.15.08-.04.03-.08.07-.09.08,0,.08,0,.13,0,.18,0,.06.02.12.02.17,0,.29,0,.31.17.35-.02.08-.05.14-.06.21-.02.11-.03.23-.04.35,0,.04.02.08.04.11.09.09.1.19.02.28-.17.19-.14.42-.14.65,0,.12.1.17.19.08.1-.11.26-.21.18-.41-.01-.02,0-.06.01-.09.03-.06.06-.13.09-.19.07-.14,0-.24-.13-.25.04-.14.09-.28.12-.42.01-.06,0-.13,0-.19,0-.06,0-.14-.04-.19-.02-.03-.1-.01-.17-.02.03-.05.06-.1.09-.16.11-.17.01-.34-.01-.51Z"/>
      <path class="cls-1" d="M25.96,4.77c-.07.05-.15.11-.2.18-.04.05-.04.13-.05.2,0,.05,0,.12,0,.16-.03.08,0,.1.07.1.04,0,.08-.02.12-.02.07,0,.13,0,.22,0-.07.08-.16.13-.15.16.02.12-.06.17-.13.2-.12.06-.13.16-.14.26,0,.06-.02.12-.01.17,0,.06.02.13.03.19.06-.01.11-.03.17-.04.02,0,.03,0,.05-.02.1-.06.17-.14.18-.27,0-.11,0-.22.02-.34h.15s-.02.05-.03.07c-.06.11-.04.21.03.24.09.04.26-.04.28-.14.03-.15.05-.3.06-.45,0-.05-.02-.12-.06-.15-.02-.02-.09.02-.14.04-.06.03-.24-.01-.25-.07-.02-.11-.02-.23-.04-.34,0-.05-.04-.1-.07-.14-.01-.02-.07-.01-.09,0Z"/>
      <path class="cls-1" d="M26.42,3.91c-.04-.07-.06-.16-.1-.23-.02-.04-.08-.09-.11-.08-.05.02-.11.07-.12.11-.02.1-.01.21-.02.32,0,.07,0,.15,0,.22,0,.05.01.11.04.15.02.02.08,0,.13,0,.03,0,.05,0,.08-.01-.01.05-.04.08-.07.11-.02.02-.06.06-.05.08.04.12-.05.25.03.38.03.05.01.14.1.13.08-.02.2-.06.22-.12.05-.14.08-.3,0-.45-.04-.08-.1-.16-.15-.23.14-.14.29-.28.43-.43.02-.02.02-.07.01-.1-.04-.13-.09-.26-.15-.39-.01-.03-.05-.07-.08-.07-.09-.02-.26.18-.24.27.03.11.08.21.11.32,0,.02,0,.05,0,.07-.02-.02-.05-.03-.06-.05Z"/>
      <path class="cls-1" d="M23.07,12.85s0,.08-.01.12c-.03.09.02.18.09.16.08-.04.19-.04.23-.16.02-.06.09-.15.14-.16.14-.01.26-.09.33-.17.15-.18.27-.4.39-.61.05-.09.09-.19.12-.29.01-.04,0-.1,0-.14,0-.01-.07-.03-.08-.02-.09.08-.18.17-.25.27-.04.06-.04.16-.08.24-.1.2-.2.39-.3.59,0,0,0,.01-.02.04-.05-.07-.07-.12-.02-.19.07-.11.12-.23.18-.34.04-.07,0-.14-.06-.12-.1.03-.21.09-.26.17-.11.17-.18.37-.27.56-.05,0-.09.03-.1.07Z"/>
      <path class="cls-1" d="M25.94,6.78s-.11-.07-.12-.06c-.14.11-.29.21-.3.44,0,.11.01.2.1.23.06.02.14-.03.24-.06.1.05.15.04.23-.1.04-.06.07-.15.12-.17.2-.09.24-.26.27-.44.02-.1.05-.19.06-.29,0-.06-.03-.12-.05-.17-.04.02-.09.03-.13.05-.04.02-.08.05-.11.08-.03.04-.07.08-.08.12-.04.17-.07.34-.11.5-.02.07-.07.12-.11.19-.01,0-.03,0-.04-.02.01-.04.02-.09.03-.13,0-.06.02-.13,0-.18Z"/>
      <path class="cls-1" d="M22.09,14.24c-.06.08-.09.18-.11.28-.01.04,0,.12.03.15.05.05.12.03.16-.04.06-.1.13-.21.2-.32.02.04.05.08.08.14.09-.05.18-.1.26-.16.07-.06.12-.14.17-.21.02-.03.05-.06.06-.09.07-.14.13-.28.19-.42.02-.04.02-.09.02-.13,0-.01-.06-.03-.07-.03-.06.07-.12.15-.19.23-.05.02-.11.05-.14.09-.1.18-.19.37-.28.56-.11-.05-.1-.11-.08-.19,0-.02,0-.07-.01-.08-.02-.01-.06,0-.08,0-.08.07-.16.13-.21.21Z"/>
      <path class="cls-1" d="M24.97,10.76s.1.07.16-.01c.1-.14.2-.27.3-.4.08-.11.16-.22.23-.33.08-.14.15-.28.21-.43.05-.1.08-.21.13-.33,0-.02-.02-.05-.04-.06-.01,0-.05,0-.07,0-.08.05-.15.11-.22.17-.01.01-.02.03-.03.05-.02.05-.03.11-.05.16-.06.14-.13.26-.18.4-.05.13-.09.26-.23.34-.03.01-.05.05-.07.07-.05.08-.11.15-.15.24-.02.04-.03.11,0,.14Z"/>
      <path class="cls-1" d="M21.83,28.32s-.06-.08-.09-.12c-.05-.05-.1-.08-.18-.04-.05.02-.12,0-.18,0,0,0-.02-.02-.02-.03.12-.07.17-.17.12-.29-.02-.06-.05-.11-.08-.17-.07-.13-.13-.13-.2,0-.02.04-.02.09-.02.13,0,.07.02.15.04.22-.02,0-.03.02-.05.03-.04-.06-.09-.11-.13-.17-.06-.09-.12-.1-.19-.01-.02.03-.02.07-.05.09-.11.1-.02.18.04.25.08.09.19.11.27.03.09-.09.14-.03.2.01.12.08.24.16.36.24,0,0,.02.01.02.01.05,0,.11,0,.15-.04.02-.01,0-.09-.02-.13Z"/>
      <path class="cls-1" d="M24.42,12.13s.06-.02.08-.05c.11-.12.23-.23.31-.36.1-.16.16-.34.24-.51.04-.09.1-.16.14-.25.02-.04,0-.1,0-.15-.04.02-.09.03-.13.05-.07.06-.12.15-.2.2-.16.11-.24.26-.3.43-.02.05-.04.09-.06.14-.07.12-.14.24-.2.37-.04.08,0,.15.11.15Z"/>
      <path class="cls-1" d="M26.19,9.94s-.08,0-.11.03c-.11.1-.21.2-.31.31-.05.05-.1.1-.13.15-.11.21-.21.43-.31.65-.03.07-.09.13-.12.19-.01.02,0,.06.01.1.04-.02.06-.03.08-.05.18-.2.43-.34.55-.6.11-.23.23-.46.34-.69.01-.03,0-.07,0-.1Z"/>
      <path class="cls-1" d="M25.03,9.66s.1,0,.13-.03c.1-.08.19-.17.28-.27.08-.08.17-.15.21-.24.08-.17.14-.36.2-.54.01-.04,0-.09,0-.14-.05.02-.1.04-.13.07-.09.08-.17.17-.26.26-.06.07-.13.14-.17.22-.1.21-.19.42-.29.64,0,.01.01.03.02.05Z"/>
      <path class="cls-1" d="M24.17,12.45c-.06.11-.13.2-.15.34-.02.14-.15.27-.22.4-.02.04-.04.1-.03.13.02.04.07.06.12.09.03-.02.07-.03.08-.05.1-.13.22-.25.29-.39.05-.09.04-.2.17-.23.01,0,.02-.03.02-.04-.06-.14.06-.22.1-.33.02-.05,0-.1.02-.15-.04.01-.09.02-.13.05-.08.04-.15.09-.23.14-.02,0-.03.03-.03.05Z"/>
      <path class="cls-1" d="M20.87,22.7s.09.07.1.06c.05-.05.12-.11.13-.17.02-.14,0-.28,0-.42.21,0,.21,0,.15.14-.02.04,0,.1.01.17.09-.07.17-.1.22-.16.06-.07.11-.16.13-.25.02-.07,0-.14-.11-.1-.02,0-.09-.05-.09-.05.02-.06.06-.11.11-.2.04.07.05.1.07.13.01,0,.02,0,.03,0,.01-.06.03-.13.04-.19,0-.04,0-.08,0-.13-.05.02-.12.02-.14.06-.06.09-.12.19-.15.3-.04.15-.12.21-.26.19-.04,0-.09.02-.13.06-.03.03-.04.08-.07.12-.1.14-.03.29-.05.43Z"/>
      <path class="cls-1" d="M26.84,8.59s-.03-.06-.06-.07c-.02,0-.07,0-.09.02-.08.07-.15.14-.22.21-.08.08-.15.17-.15.31,0,.05-.03.09-.05.14-.08.15-.17.31-.26.46-.01.02,0,.06,0,.08.02.02.06.03.08.01.19-.14.36-.3.46-.51.03-.05.04-.12.07-.17.06-.13.13-.26.2-.4,0-.02,0-.04.02-.08Z"/>
      <path class="cls-1" d="M23.33,16.35s-.08-.08-.12-.07c-.05,0-.13.05-.13.08,0,.11-.07.15-.13.21-.05.05-.12.1-.15.16-.06.12-.09.25-.13.38-.03.09-.06.19-.11.28-.02.05-.08.08-.02.12.02.01.08-.02.11-.05.08-.07.17-.14.24-.23.08-.09.14-.19.2-.29.02-.04.03-.1.03-.15.02-.13.07-.25.17-.34.01-.01.01-.04.03-.09Z"/>
      <path class="cls-1" d="M27.52,6.45c.03-.12.06-.24.1-.36,0-.03.02-.06.02-.09,0-.01-.05-.03-.06-.03-.02.03-.04.06-.05.09,0,.02,0,.04,0,.03-.14.14-.3.24-.38.39-.09.16-.11.37-.15.56,0,.03.01.06.02.09.04,0,.08,0,.1-.03.1-.09.18-.2.33-.17,0-.06,0-.11,0-.15.02-.11.05-.22.08-.33Z"/>
      <path class="cls-1" d="M25.43,11.61s0-.08.01-.12c-.04,0-.1,0-.12.02-.13.12-.28.24-.38.39-.14.21-.24.45-.35.68-.01.03.01.07.02.12.05-.02.09-.03.11-.05.11-.12.24-.23.33-.37.14-.21.26-.44.38-.66Z"/>
      <path class="cls-1" d="M27.24,6.14s.07-.01.09-.04c.04-.05.07-.12.12-.15.21-.12.21-.33.22-.53,0-.01,0-.03,0-.04-.01-.06-.02-.11-.04-.17-.06.02-.13.03-.19.05-.02,0-.05.03-.06.04-.07.09-.17.18-.2.28-.03.15-.01.31,0,.46,0,.03.03.08.06.09Z"/>
      <path class="cls-1" d="M24.33,11.08s-.02.08,0,.1c.07.08.2.04.24-.05.02-.04.04-.08.06-.12.05-.1.09-.2.14-.29.09-.19.19-.37.28-.56.04-.08.04-.14-.03-.19-.1.07-.19.13-.28.19-.02.04-.04.08-.06.13-.11.27-.18.55-.36.79Z"/>
      <polygon class="cls-1" points="24.74 10.16 24.74 10.17 24.74 10.17 24.74 10.17 24.74 10.17 24.74 10.17 24.74 10.17 24.74 10.17 24.74 10.16"/>
      <path class="cls-1" d="M24.78,12.85s-.1-.02-.12,0c-.11.12-.24.23-.32.37-.13.21-.23.44-.33.67-.01.03.02.07.03.13.07-.05.1-.07.13-.1.1-.09.22-.16.28-.26.13-.22.23-.46.33-.69.01-.03.02-.1,0-.11Z"/>
      <path class="cls-1" d="M27.29,7.43c.02-.08.05-.15.09-.26-.05,0-.11-.02-.14,0-.08.07-.15.16-.23.24-.05.05-.12.1-.14.16-.07.19-.14.38-.19.57,0,.03.03.1.05.11.03.01.1-.02.12-.05.17-.24.35-.48.44-.78Z"/>
      <path class="cls-1" d="M23.73,11.73c.11.05.25-.02.29-.14.03-.07.07-.14.11-.21.03-.05.07-.1.09-.16.04-.16.06-.32.15-.46.05-.08.17-.17.01-.32-.12.18-.23.33-.33.5-.13.23-.24.46-.35.7-.01.02,0,.09.03.1Z"/>
      <path class="cls-1" d="M25.07,8.95s.06-.05.08-.09c.11-.19.27-.35.33-.57.04-.14.11-.27.16-.41,0-.03,0-.06-.01-.09-.03,0-.07,0-.1.02-.08.05-.15.11-.22.17-.03.03-.07.06-.07.1-.02.26-.16.48-.26.71-.03.07.01.17.09.16Z"/>
      <path class="cls-1" d="M27.29,4.53c-.15.17-.1.39-.1.59,0,.08.07.14.15.07.11-.09.19-.2.29-.3.01-.02.02-.05.02-.07,0-.08.01-.16.01-.24,0-.1-.07-.19-.16-.21-.07.05-.15.1-.21.16Z"/>
      <path class="cls-1" d="M14.96,29.26c-.26.19-.51.37-.77.57-.12.09-.22.19-.33.29-.01.01-.01.06,0,.08.01.02.05.02.08.01.02,0,.04-.02.07-.04.25-.17.5-.35.74-.52.16-.12.32-.25.48-.37.03-.03.05-.07.08-.13-.04-.01-.09-.04-.11-.03-.09.04-.17.09-.25.15Z"/>
      <path class="cls-1" d="M25.63,3.23s-.06-.04-.08-.05c-.04,0-.05,0-.07.01-.1.06-.21.13-.3.2-.02.01,0,.08,0,.11.05.09.11.18.17.27.01.02.04.05.05.05.08-.01.17-.02.24-.06.08-.05.18-.12.14-.23-.03-.1-.09-.2-.15-.29Z"/>
      <path class="cls-1" d="M20.05,25.08c.07.02.12,0,.13-.09,0-.04.08-.12.09-.12.1.05.17-.02.23-.07.06-.04.12-.11.13-.18.02-.12,0-.24,0-.36,0-.07-.05-.08-.11-.05-.14.06-.17.11-.13.27.04.13-.04.29-.19.35v-.33c-.14.11-.28.18-.22.37,0,.02,0,.05-.01.07-.03.08,0,.13.07.14Z"/>
      <path class="cls-1" d="M25.01,9.37s.05-.08.04-.12c0-.03-.05-.06-.07-.1-.09.08-.19.15-.25.25-.08.12-.12.26-.2.38-.11.16-.09.24.09.29,0,.04.02.08.02.12.04-.01.07-.02.1-.04.03-.12.04-.24.08-.36.05-.15.12-.29.19-.43Z"/>
      <path class="cls-1" d="M23.68,12.85c-.08.07-.15.15-.2.23-.12.21-.22.42-.32.64-.02.04.02.09.03.14.05-.01.11-.02.16-.04.03-.02.04-.06.06-.09.13-.16.24-.33.26-.54,0-.04.02-.07.04-.1.04-.07.09-.14.14-.22,0-.02-.01-.03-.02-.05-.05,0-.12,0-.15.03Z"/>
      <path class="cls-1" d="M23.7,15.42s0-.13-.02-.14c-.04-.02-.13-.01-.15.02-.1.12-.22.24-.28.39-.05.14-.09.28-.18.4-.02.03-.02.07-.03.11,0,0,.02.02.03.03.17-.07.31-.19.41-.33.1-.14.16-.31.22-.47Z"/>
      <path class="cls-1" d="M22.51,16.96s-.05,0-.07.01c-.04.03-.06.07-.1.1-.13.11-.24.24-.29.4-.05.16-.1.32-.14.49,0,.02.01.06.03.07.02,0,.06,0,.08-.02.12-.09.2-.2.25-.36.06-.2.2-.38.24-.6,0-.02.02-.04.03-.06-.01-.01-.02-.04-.03-.04Z"/>
      <path class="cls-1" d="M25.37,2.7c-.05-.07-.11-.12-.19-.07-.08.05-.14.12-.19.17.03.14.06.21.18.22.13.01.24-.01.3-.15.04-.08.07-.19.21-.14.01,0,.06-.02.06-.04.02-.05.05-.14.03-.16-.08-.06-.11-.19-.24-.18-.01,0-.03.02-.04.03-.07.07-.1.15-.04.25.01.02,0,.05,0,.08-.02,0-.06-.01-.07-.03Z"/>
      <path class="cls-1" d="M25.77,3.96c-.09.07-.18.13-.27.2-.02.01-.02.06,0,.09.02.08.07.17.08.25.01.11.05.15.16.1.06-.03.14-.05.19-.09.05-.04.09-.09.12-.13-.03-.14-.05-.26-.09-.37-.02-.07-.09-.11-.17-.05Z"/>
      <path class="cls-1" d="M26.87,6.86s-.04-.07-.07-.09c-.01,0-.06,0-.07.02-.16.17-.28.35-.31.59,0,.08-.05.15-.07.23-.01.05-.01.11-.01.16.06-.02.13-.02.16-.06.16-.2.29-.43.34-.69.01-.05.02-.1.04-.17Z"/>
      <path class="cls-1" d="M26.2,7.26c-.07.05-.15.1-.19.17-.11.2-.2.41-.3.62.03.05.05.1.08.11.04.01.1,0,.12-.02.07-.06.15-.13.19-.22.08-.2.14-.41.21-.62,0-.01-.01-.05-.03-.05-.03,0-.06,0-.08,0Z"/>
      <path class="cls-1" d="M25.39,4.4c-.09.01-.18.03-.21.13-.04.17-.09.34-.14.52.03.06.05.12.08.19.06-.03.14-.05.18-.09.05-.05.08-.13.11-.2.03-.07.06-.14.06-.2,0-.1-.01-.21-.02-.31,0-.01-.04-.03-.06-.03Z"/>
      <path class="cls-1" d="M26.21,8.74c.1-.24.2-.48.29-.73,0-.02,0-.07,0-.08-.03-.01-.08-.01-.09,0-.08.1-.18.19-.23.31-.09.23-.14.47-.31.66-.02.02-.04.08-.02.1.01.03.06.03.11.06.05-.04.11-.07.14-.12.05-.06.09-.13.12-.2Z"/>
      <path class="cls-1" d="M22.72,14.87s-.03.04-.05.07c-.01-.02-.03-.04-.05-.06-.02-.02-.04-.02-.07-.05.01.09.02.14.03.2.01.06.04.13.1.07.11-.1.21-.23.31-.34.03-.03.04-.08.06-.12.07-.14.15-.29.21-.44.01-.03,0-.07-.02-.1,0-.01-.06-.01-.07,0-.08.08-.15.15-.22.24-.13.16-.2.34-.24.54Z"/>
      <path class="cls-1" d="M26.94,3.99s0,.02.01.02c.12.03.17.1.16.23,0,.02.04.07.07.08.1.01.18,0,.25-.1.11-.14.08-.26.02-.4-.03-.06-.07-.16-.12-.16-.06,0-.13.06-.19.11-.07.07-.13.15-.21.23Z"/>
      <path class="cls-1" d="M22.79,16.26c.06-.12.12-.25.18-.37.01-.02,0-.06,0-.09-.03,0-.08,0-.1.02-.13.12-.25.24-.39.38.05.03.08.05.12.08-.08.11-.14.21-.21.31-.06.08-.08.16.02.2.09.04.15-.03.19-.11.07-.14.13-.28.2-.42Z"/>
      <path class="cls-1" d="M25.41,6.13c-.27.13-.23.41-.3.63-.01.03.06.1.11.14.02.01.08-.03.11-.05.2-.16.19-.4.25-.64-.02-.03-.03-.08-.06-.11-.02-.01-.07.02-.11.03Z"/>
      <path class="cls-1" d="M26.29,2.63c-.13-.02-.26-.05-.35.08.11.19.23.38.34.57.26-.13.29-.27.14-.56-.02-.04-.08-.09-.12-.1Z"/>
      <path class="cls-1" d="M21.71,19.53s.01-.1.02-.14c.02-.08.03-.16.05-.27,0,0,0-.02-.02-.02-.03,0-.06,0-.08.02-.04.04-.07.12-.11.13-.13.03-.14.13-.17.22-.04.14-.03.29-.11.42-.01.02,0,.07.02.1,0,.02.06.03.08.01.15-.13.33-.23.32-.47Z"/>
      <path class="cls-1" d="M20.81,17.49c-.11.19-.2.39-.29.59-.02.04-.01.11.01.14.02.02.09.02.13,0,.08-.04.16-.08.19-.2.02-.11.11-.21.15-.32.04-.1.04-.21.07-.34-.02,0-.07-.02-.1,0-.06.03-.12.08-.15.13Z"/>
      <path class="cls-1" d="M22.7,12.04s-.05.05-.07.09c-.12.21-.24.42-.36.63-.03.06-.06.12-.07.19,0,.03.03.07.05.12.03-.02.05-.03.06-.04.06-.08.13-.15.18-.24.04-.06.05-.13.09-.19.09-.15.19-.28.28-.43.02-.04-.02-.11-.03-.16-.04.01-.09.02-.13.04Z"/>
      <path class="cls-1" d="M20.23,21.82c.09-.05.13-.13.13-.24.01-.15.04-.16.17-.07.06-.05.2-.04.14-.17-.03-.06-.11-.09-.16-.14-.01,0-.02.02-.03.03,0-.03,0-.07,0-.09-.02-.02-.08-.05-.09-.04-.07.08-.15.16-.19.26-.05.11-.08.23-.1.35,0,.04,0,.1.03.13.02.02.08,0,.12-.01Z"/>
      <path class="cls-1" d="M23.21,12.07c.05-.02.13-.03.16-.07.11-.19.22-.39.32-.59.04-.08.07-.16.1-.25-.02-.03-.05-.07-.07-.07-.04,0-.1.02-.11.06-.14.26-.28.52-.41.78-.02.04,0,.1.01.15Z"/>
      <path class="cls-1" d="M24.46,2.26c0,.07.23.26.3.26.16,0,.3-.08.3-.18,0-.15-.14-.31-.28-.31-.11,0-.32.15-.32.23Z"/>
      <path class="cls-1" d="M23.55,14.45s.05-.08.07-.12c.11-.23.23-.45.34-.68.01-.02,0-.07-.02-.1-.01-.01-.07,0-.09.01-.09.08-.18.17-.27.25,0,0-.02.02-.02.03.05.12-.07.16-.1.24-.02.05-.05.1-.07.15-.02.07.05.18.12.17.01.01.02.02.04.04Z"/>
      <path class="cls-1" d="M24.55,9.25s.09-.07.11-.12c.07-.11.13-.22.18-.34.05-.12.08-.25.13-.4-.02-.01-.08-.06-.1-.05-.08.07-.18.14-.22.23-.09.19-.14.4-.21.61,0,.02,0,.06.02.08.02.01.06.01.08,0Z"/>
      <path class="cls-1" d="M22.37,18.79s-.07-.1-.09-.09c-.06.02-.13.05-.18.09-.05.04-.06.13-.1.16-.08.06-.09.13-.08.21.01.08,0,.15-.05.22-.02.02.01.08.02.12.04-.01.08-.02.11-.04.03-.02.04-.06.07-.07.26-.13.14-.43.31-.61Z"/>
      <path class="cls-1" d="M21.36,17.12c-.1.15-.09.34-.2.48-.02.03,0,.09,0,.13.01,0,.03,0,.04,0,.07-.06.14-.11.21-.17.2-.19.19-.47.29-.71,0,0-.06-.05-.07-.05-.09.1-.2.19-.27.31Z"/>
      <path class="cls-1" d="M17.59,25.12c.09-.02.21-.21.2-.31,0-.08-.02-.17-.02-.25,0-.07,0-.15,0-.22,0-.04-.04-.08-.06-.12-.02,0-.04.02-.07.02-.06.09-.17.19-.16.27.03.18.08.35.04.54,0,.02.05.07.07.07Z"/>
      <path class="cls-1" d="M27.11,3.08s-.11-.12-.13-.11c-.06.03-.12.09-.14.15-.06.17.07.31.14.45.01.02.06.03.09.04.04-.02.08-.03.11-.05.14-.07.16-.14.07-.27-.05-.07-.08-.15-.13-.22Z"/>
      <path class="cls-1" d="M24.01,10.56c.06-.02.11-.08.15-.14.04-.06.07-.13.1-.2.06-.14.11-.28.16-.42-.01-.09-.06-.13-.13-.08-.07.05-.13.11-.16.19-.09.18-.15.36-.23.54-.03.06.04.14.12.11Z"/>
      <path class="cls-1" d="M21.66,17.65c-.08.23-.16.45-.23.68,0,.02.02.05.04.11.09-.07.19-.1.22-.17.07-.19.12-.39.17-.59.01-.05,0-.11,0-.17-.06.02-.12.05-.17.08-.02.01-.03.04-.04.06Z"/>
      <path class="cls-1" d="M15.75,28.4s-.03.02-.04.03c-.11.13-.21.25-.34.41.04.01.08.03.1.02.07-.03.14-.06.2-.1.22-.2.42-.41.63-.62.02-.03.02-.08.03-.12-.04.01-.1,0-.12.03-.14.13-.25.3-.45.35Z"/>
      <path class="cls-1" d="M26.6,9.52c-.1.17-.19.34-.28.52-.04.07-.07.15-.1.23-.01.04,0,.08,0,.12.04,0,.12,0,.13-.02.16-.28.31-.57.47-.85-.1-.08-.18-.06-.22,0Z"/>
      <path class="cls-1" d="M25.04,7.93s.04-.1.08-.12c.18-.12.16-.34.23-.5,0-.08-.03-.12-.11-.1-.1.02-.3.28-.3.38,0,.08-.03.16-.04.24,0,.04,0,.1.02.12.03.02.09.01.12-.01Z"/>
      <path class="cls-1" d="M22,17.17c.06-.14.21-.24.17-.42,0-.01,0-.02.01-.03.05-.1.1-.2.14-.31.01-.03,0-.07-.01-.11-.04.01-.08,0-.11.03-.11.1-.22.19-.21.36,0,.06-.05.12-.08.18-.03.09-.06.18-.09.28.02.03.04.08.06.08.04,0,.1-.03.11-.06Z"/>
      <path class="cls-1" d="M17.34,26.22c.13-.06.2-.15.23-.27.02-.07.04-.16.15-.12.01,0,.05-.02.05-.04,0-.02-.01-.06-.03-.06-.12-.03-.08-.12-.06-.18.02-.07.04-.14-.04-.16-.03,0-.1.05-.13.09-.08.13-.16.27-.22.37.01.13.02.24.03.36Z"/>
      <path class="cls-1" d="M23.36,15.03c.05-.08.07-.17.11-.27,0,0-.02-.04-.03-.04-.03,0-.08,0-.09.03-.09.16-.31.2-.33.42-.01.13-.09.25-.14.38,0,.02,0,.06.01.09.03-.02.06-.04.08-.06.05-.06.09-.12.13-.18.09-.12.18-.24.26-.37Z"/>
      <path class="cls-1" d="M20.36,20.95c.14-.09.21-.19.2-.33,0-.02,0-.05.02-.07.1-.13.1-.28.11-.43,0-.03-.02-.07-.04-.08-.02,0-.07.01-.09.03-.12.14-.2.3-.13.45-.07.1-.14.18-.17.27-.01.04.06.1.1.16Z"/>
      <path class="cls-1" d="M19.91,22.67c-.04.06-.03.15-.04.22.01,0,.03.01.04.02.08-.05.16-.08.23-.14.03-.02.02-.08.02-.12,0-.04-.01-.09,0-.13.04-.13.08-.25.11-.38,0-.03-.01-.08-.04-.09-.03-.01-.08,0-.1.02-.04.06-.09.12-.11.19-.04.14-.05.29-.13.42Z"/>
      <path class="cls-1" d="M24.19,14.26s0-.07-.01-.09c-.02-.02-.07-.03-.09-.01-.09.08-.2.15-.27.26-.09.14-.15.31-.24.51.06,0,.11,0,.14-.02.22-.17.38-.38.46-.64Z"/>
      <path class="cls-1" d="M25.94,3.44c.06.01.13-.03.19-.07.02-.01.03-.08.02-.11-.08-.16-.17-.32-.26-.48-.01,0-.03,0-.04,0-.03.07-.07.13-.1.2-.08.19.02.42.2.45Z"/>
      <path class="cls-1" d="M21.7,27.97c.04-.1.07-.17.1-.24.01-.02.02-.06.04-.07.09-.06.07-.12.03-.21-.03-.06-.05-.12-.08-.18-.01-.02-.04-.04-.07-.05-.07-.02-.26.13-.24.2.03.15.08.3.12.44.01.03.05.05.1.11Z"/>
      <path class="cls-1" d="M20.53,21.93c-.02.06-.05.17-.07.27,0,.04.03.09.04.14.05-.02.11-.02.14-.06.13-.18.17-.4.19-.62,0-.03-.06-.09-.09-.09-.1,0-.23.2-.21.35Z"/>
      <path class="cls-1" d="M25.03,13.15c.1-.08.19-.18.22-.32,0-.05.04-.09.06-.13.05-.11.1-.21.15-.34-.04-.02-.09-.06-.12-.05-.05.02-.1.06-.13.11-.08.15-.15.31-.22.46-.03.06-.07.12-.09.18-.01.03,0,.08,0,.12.04,0,.09,0,.11-.03Z"/>
      <path class="cls-1" d="M22.15,15.15c-.01.05-.05.1-.08.15-.03.04-.08.09-.07.13,0,.03.07.08.11.08.04,0,.1-.04.13-.07.06-.09.12-.19.17-.3.05-.12.09-.26.14-.41-.02,0-.06-.02-.08-.01-.18.09-.28.24-.32.44Z"/>
      <path class="cls-1" d="M20.71,22.9c0-.09,0-.16-.01-.23,0-.07-.01-.14-.02-.22-.25.17-.26.19-.24.45,0,.04-.03.08-.04.11-.01.05-.05.11-.03.14.02.04.1.07.14.06.05-.01.1-.06.13-.11.04-.07.06-.15.08-.21Z"/>
      <path class="cls-1" d="M21.39,20.72s.03-.06.03-.09c.01-.06.02-.12.03-.18.02-.07.05-.13.06-.19,0-.03-.02-.06-.04-.12-.12.11-.25.19-.31.3-.05.12-.02.27-.1.39-.02.03,0,.07.02.11.03,0,.08,0,.1-.03.07-.06.14-.13.21-.21Z"/>
      <path class="cls-1" d="M22.51,18.17c.19-.09.16-.3.27-.45-.03-.03-.05-.06-.08-.06-.05,0-.11,0-.13.04-.07.07-.14.15-.18.23-.06.12-.11.25-.16.38-.01.03,0,.06,0,.08.03,0,.06,0,.08-.03.07-.06.12-.16.2-.2Z"/>
      <path class="cls-1" d="M19.93,23.13c-.04.14-.03.29-.03.43-.01,0-.03.02-.04.03.06.05.12.12.19.13.08,0,.09-.07.09-.16,0-.14.04-.28.06-.42,0-.05,0-.11-.01-.17,0,0-.04-.03-.05-.02-.07.06-.18.1-.2.18Z"/>
      <path class="cls-1" d="M21.11,16.95c.08-.05.16-.11.2-.18.06-.11.09-.24.13-.37,0-.03,0-.08-.02-.09-.02-.02-.07,0-.1,0-.04.02-.08.05-.1.09-.09.15-.18.3-.27.44.03.12.08.16.16.1Z"/>
      <path class="cls-1" d="M19.86,19.34c-.05.02-.12.06-.14.1-.06.14-.13.28-.24.39-.02.02,0,.08,0,.12,0,.02.04.03.06.04.1-.07.28-.02.29-.17,0-.15.11-.24.14-.36,0-.04.01-.07.02-.11-.04,0-.09-.02-.12,0Z"/>
      <path class="cls-1" d="M20.99,21.4c-.02.1-.03.21-.04.31,0,.04.02.08.05.11.01.01.07,0,.09-.03.06-.05.11-.12.16-.18.02-.02.03-.05.03-.08,0-.06.01-.11.01-.17,0-.09.09-.18,0-.28-.1.09-.2.17-.29.26-.01.01-.02.04-.02.06Z"/>
      <path class="cls-1" d="M22.12,28.24c.06-.06.13-.13.08-.23-.04-.07-.09-.13-.14-.2-.02-.03-.05-.05-.07-.06-.1,0-.27.23-.24.3,0,0,0,0,0,.01.05.06.09.13.14.19.07.08.15.04.21-.02Z"/>
      <path class="cls-1" d="M21.28,24.03s.1-.04.13-.08c.11-.1.15-.21.16-.37,0-.22.02-.22-.17-.15-.11.04-.2.1-.17.24.01.06,0,.13.01.19,0,0-.02,0-.02,0,.02.05.04.1.06.15Z"/>
      <path class="cls-1" d="M20.83,25.15c0,.05.04.11.05.16.03-.03.06-.07.09-.1.01-.01.02-.02.03-.04.14-.16.15-.26.04-.45,0,0,.02-.02.02-.03,0-.04,0-.09,0-.13-.04.02-.08.03-.11.05-.02.02-.03.06-.05.07-.14.06-.12.18-.1.29,0,.06,0,.12.01.17Z"/>
      <path class="cls-1" d="M21.63,25.4c.05-.06.04-.33-.02-.38-.01-.01-.03-.02-.05-.02-.11-.02-.25.11-.25.21.01.1.02.2.04.29.01.09.07.12.14.06.05-.05.09-.11.14-.16Z"/>
      <path class="cls-1" d="M20.85,24.49c.09-.11.25-.18.2-.36-.03-.11-.03-.2.03-.29,0-.02-.02-.07-.04-.08-.02-.01-.06,0-.08.01-.14.08-.23.32-.18.48,0,.03.01.06,0,.09-.05.08,0,.12.07.16Z"/>
      <path class="cls-1" d="M21.06,18.21c-.14.09-.25.32-.21.48.01.04.06.09.1.1.03,0,.08-.03.1-.07.03-.04.04-.09.06-.14.05-.13.09-.26.13-.39.01-.04,0-.09,0-.14-.01,0-.03,0-.04,0-.05.05-.08.12-.14.16Z"/>
      <path class="cls-1" d="M21.32,24.81c.05,0,.12-.03.16-.07.1-.1.14-.23.1-.37-.01-.05-.02-.12-.05-.13-.05-.01-.12,0-.17.03-.07.05-.13.12-.11.23.01.06,0,.12.01.18,0,0-.02,0-.03.01.02.05.05.13.08.13Z"/>
      <path class="cls-1" d="M22.3,15.95s.04.08.07.09c.03,0,.08-.03.09-.06.1-.19.19-.39.28-.59.01-.03-.01-.07-.03-.13-.06.04-.09.05-.11.08-.1.14-.19.28-.28.43-.03.05-.03.12-.03.17Z"/>
      <path class="cls-1" d="M22.66,28.06c-.05-.06-.1-.05-.14,0-.09.11,0,.42.13.48.01,0,.03,0,.04,0,.1-.05.21-.1.31-.16,0-.01,0-.03-.01-.04-.06-.04-.13-.06-.19-.11-.05-.05-.09-.12-.13-.18Z"/>
      <path class="cls-1" d="M28.01,6.25c.01-.18.05-.37.07-.55,0-.01,0-.04-.01-.04-.01,0-.04-.01-.05,0-.1.1-.22.19-.24.34-.01.08-.01.17-.01.25-.01,0-.02.02-.03.02.04.05.08.13.13.13.09.01.13-.05.14-.15Z"/>
      <path class="cls-1" d="M22.04,18.35s0-.09-.02-.15c-.1.09-.16.14-.22.2-.04.04-.06.09-.09.14-.03.06-.05.11-.08.17-.02.04-.04.08-.05.13,0,.04.01.08.02.12.04-.01.1-.01.12-.04.1-.13.19-.26.27-.4.03-.05.04-.11.04-.17Z"/>
      <path class="cls-1" d="M21.82,20.69s-.08,0-.1.02c-.07.07-.14.14-.2.22-.02.02-.02.06-.03.09-.01.1-.02.21-.04.34.05-.01.09-.02.12-.04.2-.13.23-.35.27-.56,0-.02-.02-.07-.04-.07Z"/>
      <path class="cls-1" d="M21.94,19.79c-.07.04-.16.09-.2.16-.07.14-.1.29-.15.43,0,.02.02.06.03.07.02,0,.06,0,.08-.01.05-.05.11-.1.14-.16.08-.13.14-.27.23-.43-.06-.03-.12-.07-.14-.06Z"/>
      <path class="cls-1" d="M11.99,7.42s-.02.05,0,.07c.01.02.05.06.06.05.1-.04.11.04.14.1.04.07.06.15.1.22.02.03.06.04.09.06,0-.04.01-.08,0-.12-.02-.1-.06-.2-.06-.29,0-.09,0-.16-.07-.18-.02-.09-.03-.16-.05-.23,0-.03-.04-.04-.06-.07-.02.03-.06.05-.06.08,0,.1.02.21.03.32,0,0-.01,0-.02,0-.02,0-.06,0-.07,0Z"/>
      <path class="cls-1" d="M21.57,22.5s-.06.01-.07.03c-.07.08-.14.16-.2.25-.04.06-.06.13-.08.17,0,.06,0,.1.02.14,0,.03.02.07.03.07.03,0,.06,0,.09-.02.18-.13.25-.32.27-.53,0-.03-.03-.07-.06-.1Z"/>
      <path class="cls-1" d="M17.94,24.96c-.04.15-.06.29-.09.44,0,0,.01,0,.02,0,0,.04,0,.08.01.11.02.04.05.08.07.11.04-.03.11-.06.11-.1.03-.18.04-.37.05-.56,0-.04-.04-.08-.06-.12-.04.04-.11.07-.12.11Z"/>
      <path class="cls-1" d="M20.71,26.29s.11-.02.12-.06c.03-.07.05-.15.05-.23,0-.08-.04-.15-.06-.23-.02-.13-.05-.15-.17-.08-.09.05-.08.13-.07.21.01.09.04.18.06.28,0,0-.02.01-.02.02.03.03.06.09.09.09Z"/>
      <path class="cls-1" d="M21.45,15.86c.06.04.14.08.18-.02.07-.14.14-.28.2-.42.02-.05,0-.12-.01-.19-.09.04-.14.06-.21.09,0,.03.02.07.02.08-.07.11-.13.21-.2.3-.05.07-.04.12.02.16Z"/>
      <path class="cls-1" d="M21.62,29.54s.11.01.16,0c.03-.01.06-.07.06-.1-.02-.17-.08-.33-.19-.47-.02-.02-.06-.04-.09-.04-.01,0-.03.04-.04.06-.02.04-.03.08-.05.12.01,0,.02,0,.03,0,0,.07.03.14.02.2-.02.1.03.18.1.23Z"/>
      <path class="cls-1" d="M21.54,25.8s-.04.04-.05.05c-.09.11-.04.35.08.41.02.01.06,0,.08,0,.06-.05.12-.1.15-.17.02-.03-.02-.09-.03-.14,0-.02,0-.04,0-.06.01,0,.02-.01.03-.02-.03-.05-.06-.12-.11-.15-.02-.01-.09.05-.13.08Z"/>
      <path class="cls-1" d="M26.64,2.35s-.08,0-.1.02c-.15.14-.04.28.02.41.03.06.07.11.16.09.09-.03.15-.06.14-.16,0-.02,0-.05-.01-.06-.07-.1-.14-.2-.21-.3Z"/>
      <path class="cls-1" d="M21.16,25.88c.1-.06.13-.14.09-.25-.02-.05-.03-.1-.04-.15,0-.07,0-.16-.09-.15-.09.01-.16.07-.17.13,0,.14,0,.23.02.32.02.13.08.16.19.09Z"/>
      <path class="cls-1" d="M20.6,25.64c.05-.06.1-.12.13-.16-.03-.08-.06-.13-.07-.18-.01-.09,0-.17-.01-.26,0-.07-.06-.09-.11-.04-.04.04-.06.1-.07.16-.02.1-.02.2-.03.27.02.08.02.13.04.17,0,.02.02.05.03.06.03,0,.07,0,.09,0Z"/>
      <path class="cls-1" d="M22.32,26.63s-.09.06-.1.1c-.02.08-.03.17,0,.25.02.06.1.1.16.15.05-.03.09-.05.11-.07.07-.1.06-.33-.02-.41-.03-.03-.1-.03-.14-.02Z"/>
      <path class="cls-1" d="M27.04,8.89s.07-.08.09-.12c.1-.22.19-.44.28-.65,0-.01.01-.02.02-.04-.02-.01-.03-.04-.05-.04-.03,0-.06.02-.08.04-.03.04-.03.1-.06.13-.17.17-.2.42-.31.62-.01.02.02.06.02.09.03-.01.07-.01.09-.03Z"/>
      <path class="cls-1" d="M22.2,27.31s.04-.05.04-.08c0-.1-.14-.25-.24-.27-.07-.01-.22.1-.19.16.05.12.13.24.2.37.08-.07.14-.12.19-.18Z"/>
      <path class="cls-1" d="M19.33,21.94c-.16.11-.24.27-.31.48.04.03.09.1.14.1.05,0,.13-.05.15-.1.05-.13.08-.28.11-.42,0-.02,0-.05-.02-.06-.02-.01-.05-.02-.07,0Z"/>
      <path class="cls-1" d="M21.06,27.52s.08-.02.11-.04c.04-.02.09-.04.13-.07.02,0,.03,0,.05-.01-.06-.12-.11-.24-.18-.36-.02-.03-.12-.06-.13-.05-.04.05-.07.12-.08.18,0,.06,0,.13.02.2.01.05.04.11.07.15Z"/>
      <path class="cls-1" d="M27.66,7.47s.02-.05.02-.07c.05-.17.11-.34.17-.54-.02-.01-.03-.13-.13-.05-.06.05-.12.12-.12.19,0,.15-.06.27-.11.4-.01.04.02.1.03.15.04-.03.09-.05.13-.09Z"/>
      <path class="cls-1" d="M20.26,19.06c0,.07,0,.15.1.13.08-.01.17-.04.19-.14.01-.07.02-.13.04-.2.02-.07.05-.14-.03-.18-.08-.03-.17,0-.2.08-.04.1-.06.2-.09.31Z"/>
      <path class="cls-1" d="M22.75,29.43s.07-.05.1-.07c.1-.08.11-.19.02-.28-.05-.05-.09-.1-.13-.15-.06-.08-.12-.06-.19-.02-.08.05-.05.1-.01.16.02.03.04.07.06.11.05.08.09.17.15.26Z"/>
      <path class="cls-1" d="M23.42,10.9c.19-.14.23-.37.34-.56,0,0-.07-.05-.08-.05-.11.11-.3.14-.29.34,0,.02-.03.05-.04.08-.02.04-.03.07-.05.12.02.03.03.07.05.08.02.01.06,0,.08-.01Z"/>
      <path class="cls-1" d="M20.66,21.14c.03.05.06.11.08.16.05-.04.09-.07.14-.11.01-.01.02-.04.02-.06.03-.12.06-.24.08-.37,0-.04-.02-.09-.03-.13-.04.01-.1.02-.12.05-.07.15-.12.3-.18.46Z"/>
      <path class="cls-1" d="M20.8,19.2c-.15.1-.27.23-.26.48.02.01.06.07.11.08.09.02.13-.05.15-.13.02-.08.05-.15.07-.23.01-.04.03-.09.03-.13,0-.07-.03-.11-.1-.06Z"/>
      <path class="cls-1" d="M12.72,2.89s-.08.08-.13.13c.05.06.1.14.18.05.08-.09.14-.2.2-.3.03-.05.08-.09.1-.14.03-.06.05-.12.06-.18,0,0-.06-.05-.06-.04-.04.04-.08.09-.11.14-.02.02-.04.05-.06.08-.06.07-.21.07-.15.22,0,0-.02.03-.04.05Z"/>
      <path class="cls-1" d="M21.74,26.38s-.06.07-.09.12c-.06.08-.01.3.07.33.13.05.15-.06.2-.14,0-.01.02-.03.03-.04.08-.1-.03-.29-.21-.27Z"/>
      <path class="cls-1" d="M16.92,17.42s-.11.02-.12.04c-.03.09-.06.19-.04.28.01.11.06.21.11.3,0,.02.1.01.1,0,.02-.07.04-.15.03-.22-.01-.1-.05-.2-.07-.31.01,0,.03-.01.04-.02-.02-.03-.04-.08-.06-.08Z"/>
      <path class="cls-1" d="M24.94,1.91s.04.07.07.08c.08.03.12.09.11.18,0,.02.06.07.08.06.07-.02.14-.05.19-.09.06-.04.06-.09,0-.14-.06-.06-.12-.13-.19-.18-.04-.03-.1-.03-.15-.02-.04.01-.08.07-.12.11Z"/>
      <path class="cls-1" d="M25.34,1.63c.03.1.07.2.13.29.02.03.1.05.15.04.05-.02.09-.07.16-.14-.1-.11-.17-.22-.27-.3-.06-.05-.19.04-.17.11Z"/>
      <path class="cls-1" d="M21.43,14.76c-.06.07-.1.14-.15.22-.12.17-.12.18.04.35.13-.15.21-.32.27-.5,0-.03-.02-.09-.05-.1-.02-.01-.08.01-.1.04Z"/>
      <path class="cls-1" d="M22.59,29.42c0-.06-.02-.14-.07-.17-.05-.04-.15-.07-.2-.05-.09.04,0,.1.02.15.03.05.06.09-.01.15-.08.07-.05.18.04.24.08.05.15,0,.17-.06.02-.05-.02-.12-.03-.17.02-.02.08-.05.08-.08Z"/>
      <path class="cls-1" d="M21.77,16.04s-.06.12-.1.21c.05.04.09.09.15.11.03.01.09-.03.11-.06.06-.12.11-.25.16-.38,0-.02-.01-.07-.03-.09-.01-.01-.06,0-.08.02-.07.06-.14.11-.2.18Z"/>
      <path class="cls-1" d="M22.45,28.78c.07-.04.13-.09.05-.18-.05-.07-.08-.15-.13-.22-.02-.03-.05-.04-.06-.06-.02,0-.03,0-.04.01-.15.07-.18.2-.07.32.03.03.06.05.08.08.04.07.09.1.17.05Z"/>
      <path class="cls-1" d="M22.95,28.59c-.05.06-.11.12-.12.2,0,.04.06.09.1.13.01.02.04.02.05.03.11.07.19.07.3-.04-.08-.11-.16-.21-.24-.31-.02-.02-.08-.03-.1-.01Z"/>
      <path class="cls-1" d="M25.86,2.1c-.11.08-.11.26,0,.4.09.11.15,0,.22-.03.02-.01.04-.02.11-.04-.08-.12-.15-.22-.22-.32-.01-.02-.08-.02-.1,0Z"/>
      <polygon class="cls-1" points="22.46 27.52 22.46 27.52 22.47 27.52 22.47 27.52 22.47 27.52 22.46 27.52"/>
      <path class="cls-1" d="M22.17,27.64c-.07.07,0,.12.03.17,0,.01,0,.03,0,.05.01.08.07.12.14.09.07-.03.16-.08.18-.14.02-.05-.05-.14-.09-.22,0,0,.01-.03.03-.06-.13-.05-.21.04-.29.11Z"/>
      <path class="cls-1" d="M25.94,10.95c-.06.08-.11.16-.15.25-.07.14-.13.28-.19.43-.01.04,0,.08,0,.12.04-.02.09-.03.11-.07.12-.21.24-.43.36-.64,0-.01.01-.03.02-.06-.02-.02-.03-.05-.05-.05-.03,0-.07,0-.09.03Z"/>
      <path class="cls-1" d="M28.04,4.84s-.07,0-.08.02c-.11.14-.17.31-.1.48.02.04.08.07.13.1.03-.04.06-.09.09-.13,0-.01,0-.03,0-.05h-.01c0-.11.02-.22.02-.32,0-.03-.02-.08-.04-.1Z"/>
      <path class="cls-1" d="M23.54,16.65c.04-.05.06-.12.08-.18.05-.13.1-.26.15-.41-.01-.01-.04-.05-.06-.05-.04,0-.08.03-.1.07-.08.17-.16.33-.23.51-.02.04.02.09.03.14.04-.03.1-.04.13-.08Z"/>
      <path class="cls-1" d="M20.26,25.78c.02-.12.03-.24.03-.36,0-.04-.06-.08-.09-.12-.05.06-.13.12-.15.19-.02.08.02.17.03.25-.01,0-.03.01-.04.02.03.04.07.09.1.14.04-.04.11-.07.12-.11Z"/>
      <path class="cls-1" d="M23.96,15.55c.03-.06.07-.11.1-.17.07-.15.15-.31.21-.46.01-.03,0-.07,0-.11-.04.01-.09.01-.11.03-.1.19-.2.39-.29.59-.01.03.02.08.03.12.02,0,.04,0,.06,0Z"/>
      <path class="cls-1" d="M18.12,24.08s-.07-.1-.08-.09c-.05.03-.13.07-.13.11,0,.13.01.27.03.4,0,.03.03.08.05.08.03,0,.08-.02.09-.05.04-.08.06-.17.08-.23-.01-.1-.01-.16-.03-.22Z"/>
      <path class="cls-1" d="M20.83,26.87s.13-.01.18-.04c.08-.04.03-.1,0-.15,0-.02.01-.05,0-.07-.02-.06-.05-.13-.09-.18-.02-.02-.11,0-.13.03-.03.04-.04.1-.05.15,0,.03,0,.06.01.08-.01,0-.02.01-.04.02.04.05.06.13.11.16Z"/>
      <path class="cls-1" d="M19.43,23.69c0,.09-.02.17-.06.25-.04.09,0,.13.05.18.2-.13.27-.44.15-.66-.13.07-.14.09-.15.23Z"/>
      <path class="cls-1" d="M22.65,18.88c.1-.03.13-.12.15-.2.03-.13.06-.26.09-.42-.06.03-.14.04-.17.09-.07.14-.13.3-.18.45-.02.07.04.11.11.08Z"/>
      <path class="cls-1" d="M24.34,2.01c.09-.03.17-.11.22-.19.03-.06-.08-.17-.15-.16-.15,0-.26.08-.26.17,0,.11.1.22.19.18Z"/>
      <path class="cls-1" d="M22.18,29.21s.04-.08.03-.12c0-.06-.04-.12-.06-.18.01,0,.02-.01.03-.02-.02-.04-.05-.08-.07-.12-.02-.03-.04-.06-.07-.09-.03-.03-.06-.05-.1-.07-.03.04-.09.1-.07.13.05.14.12.28.2.42.01.03.07.03.11.04Z"/>
      <path class="cls-1" d="M21.05,19.67c-.06.14-.11.29-.17.45.03.04.05.09.08.13.05-.04.12-.06.13-.11.05-.14.08-.28.1-.42,0-.03-.02-.08-.03-.08-.04,0-.1,0-.11.03Z"/>
      <path class="cls-1" d="M23.46,30.2c.08,0,.17-.07.22-.13.04-.06-.07-.25-.16-.27-.06-.01-.14.02-.21.04.03.09.08.15.06.2-.02.09.02.17.08.16Z"/>
      <path class="cls-1" d="M19.94,20.57c-.04.06-.06.12-.09.19-.02.06,0,.13-.03.18-.04.09,0,.16.07.16.05,0,.14-.07.15-.12.02-.11,0-.24,0-.36.01,0,.02,0,.03,0-.02-.02-.04-.06-.06-.07-.02,0-.07,0-.08.02Z"/>
      <path class="cls-1" d="M17.55,21.81s-.01-.07-.02-.1c0-.04-.03-.08-.03-.12,0-.14-.01-.27-.09-.4-.11.05-.15.11-.13.23.03.14.04.29.16.38.03.02.07.01.11.01Z"/>
      <path class="cls-1" d="M14.71,1.1c-.05.02-.1.06-.14.1-.02.02-.02.07,0,.1,0,.02.06.04.08.03.08-.03.15-.07.22-.11,0-.01,0-.02,0-.03.04.01.1.04.13.03.06-.03.12-.09.17-.14-.05-.03-.11-.08-.16-.07-.1.01-.2.05-.29.09Z"/>
      <path class="cls-1" d="M24.92,3.81c.03.09.12.16.19.24.06-.04.11-.05.13-.08.02-.03.02-.08,0-.12-.02-.08-.06-.15-.09-.22-.03-.07-.09-.13-.15-.05-.05.06-.1.16-.08.22Z"/>
      <path class="cls-1" d="M19.22,22.84s-.1.06-.11.1c-.03.16-.05.32-.07.48,0,.03.03.06.05.09.03-.02.08-.04.09-.07.04-.14.07-.28.11-.46-.02-.04-.05-.09-.07-.14Z"/>
      <path class="cls-1" d="M21.16,28.46s-.09.1-.08.12c.06.11.13.21.2.31.16-.11.18-.31.07-.42-.06-.06-.13-.06-.2,0Z"/>
      <path class="cls-1" d="M12.37,5.75s-.07.04-.07.07c-.05.15-.14.31,0,.47.02.03.04.05.06.08.03-.03.08-.05.08-.08.02-.08.01-.16.02-.23,0-.07,0-.14-.01-.21,0-.03-.04-.06-.07-.09Z"/>
      <path class="cls-1" d="M20.57,23.42c-.07.09-.15.17-.21.27-.02.04,0,.1.01.15-.01,0-.02,0-.03,0,.02.04.03.09.06.1.03.01.08,0,.11-.02.05-.04.12-.12.11-.13-.08-.11-.02-.2,0-.3,0-.02-.04-.05-.06-.08Z"/>
      <path class="cls-1" d="M24.67,13.72c-.1.14-.2.29-.28.44-.02.03.02.08.03.13.05-.02.08-.03.09-.05.09-.15.19-.29.27-.44,0-.02-.02-.07-.04-.09-.01-.01-.06,0-.07,0Z"/>
      <path class="cls-1" d="M23.4,29.12c-.13,0-.2.13-.14.21.04.07.09.13.15.18.03.02.11.02.14,0,.03-.02.05-.1.04-.13-.03-.08-.08-.15-.13-.21-.02-.02-.05-.03-.06-.04Z"/>
      <path class="cls-1" d="M20.24,26.08c-.06.05-.08.33-.02.39.02.02.04.02.05.03.13,0,.24-.08.22-.16-.02-.08-.06-.16-.1-.23-.04-.07-.09-.06-.15-.02Z"/>
      <path class="cls-1" d="M20.85,23.59c.18-.1.23-.19.21-.3,0-.04,0-.09,0-.13,0-.04-.02-.08-.04-.1-.01-.01-.07,0-.09.03-.03.04-.04.09-.07.13-.08.11-.09.26,0,.37Z"/>
      <path class="cls-1" d="M22.3,20.22c-.05.06-.1.11-.13.17-.06.11-.12.22-.17.33-.01.03.02.08.03.12.03-.01.06-.02.08-.04.19-.13.17-.35.22-.54,0,0,0-.01-.04-.04Z"/>
      <path class="cls-1" d="M22.18,26.03c-.1.02-.2.2-.17.3.03.06.08.11.13.19.06-.07.15-.11.16-.17.01-.09-.02-.19-.05-.28,0-.02-.06-.04-.08-.04Z"/>
      <path class="cls-1" d="M16.67,16.7c-.16.17-.18.25-.1.41.02.03.02.06.04.09.03.04.07.08.1.11.02-.05.06-.1.07-.16,0-.08-.01-.16-.03-.24-.02-.07-.05-.13-.08-.22Z"/>
      <path class="cls-1" d="M22.05,25.42s-.02,0-.03,0c-.05.06-.14.11-.15.17-.01.09.03.18.06.27,0,.01.06.02.08.01.13-.05.18-.36.07-.45,0,0-.02-.01-.03-.01Z"/>
      <path class="cls-1" d="M17.87,23.19c0,.12,0,.24,0,.35,0,.03.02.07.05.09.01.01.06,0,.07-.02.14-.12.11-.44-.06-.57-.03.05-.06.1-.06.14Z"/>
      <path class="cls-1" d="M20.65,16.85c-.09.06-.16.15-.23.23-.01.02,0,.07.02.09.12.13.16.13.26-.03.04-.06.05-.13.07-.19,0-.09-.05-.14-.12-.09Z"/>
      <path class="cls-1" d="M20.46,27.15c.08-.03.18-.21.16-.29-.03-.12-.09-.15-.2-.09-.03.02-.07.04-.1.05,0,.09,0,.16.01.23,0,.08.04.13.13.1Z"/>
      <path class="cls-1" d="M19.77,26.17c.07-.04.05-.09,0-.14-.01-.02,0-.05,0-.07,0,0,0,0,0,0,0-.02,0-.04,0-.06-.03-.06-.01-.15-.12-.14-.1.01-.1.08-.1.16,0,.04-.02.08-.01.11.01.06.03.14.07.19.02.02.11-.02.17-.04Z"/>
      <path class="cls-1" d="M17.56,23.16s.1-.07.11-.12c.02-.06,0-.13,0-.2h-.01c0-.08,0-.15,0-.23,0-.02-.05-.04-.08-.06-.04.07-.09.14-.1.21-.01.09,0,.18.02.27,0,.05.04.09.07.13Z"/>
      <path class="cls-1" d="M21.27,26.09c-.05.05-.12.1-.14.16-.02.04,0,.11.02.17.02.07.03.16.14.13.11-.03.12-.1.1-.2,0-.03-.02-.05-.02-.08.01,0,.02-.02.04-.02-.04-.05-.09-.1-.13-.15Z"/>
      <path class="cls-1" d="M12.02,6.7s.03-.01.05-.03c.12-.08.05-.18.03-.27-.02-.05-.08-.14-.11-.14-.09.02-.14.09-.13.19,0,.04.04.09.02.11-.09.14.02.13.13.14Z"/>
      <path class="cls-1" d="M21.97,22.15c-.08.11-.16.22-.22.35-.03.07.07.19.14.2.1,0,.15-.08.1-.16-.05-.09-.06-.16.03-.23.03-.02.03-.08.03-.11,0-.01-.08-.04-.08-.04Z"/>
      <path class="cls-1" d="M21.94,25.1s.08-.1.09-.16c.01-.08,0-.16-.01-.23-.01-.04-.07-.1-.11-.1-.06,0-.13.17-.11.23,0,.03.01.07.02.1,0,0-.02,0-.03,0,.03.05.06.11.09.15,0,.01.06,0,.07,0Z"/>
      <path class="cls-1" d="M27.9,4.12c-.1,0-.17.13-.14.22.02.05.01.11.03.17.01.05.03.1.06.15,0,0,.07,0,.08,0,.03-.04.07-.1.07-.15,0-.1-.02-.2-.04-.3,0-.03-.04-.06-.06-.08Z"/>
      <path class="cls-1" d="M17.63,23.49c-.02.18-.04.35-.05.53,0,0,.09.02.1.01.04-.05.06-.11.08-.17.05-.15,0-.29-.1-.38,0,0-.02,0-.02,0Z"/>
      <path class="cls-1" d="M13.48,1.86s-.05.09-.06.14c0,.02.02.06.03.05.04,0,.09-.01.13-.03.05-.03.09-.08.14-.1.12-.05.19-.13.21-.3-.08.03-.13.04-.18.07-.09.05-.19.1-.27.17Z"/>
      <path class="cls-1" d="M27.67,3.34c-.05.07-.08.1-.1.14-.04.13,0,.24.1.32.03.03.09.02.14.04.01-.05.03-.11.03-.16,0-.07-.04-.13-.06-.2-.02-.04-.06-.08-.11-.15Z"/>
      <path class="cls-1" d="M20.09,24.24s.08-.03.09-.06c.02-.05.03-.11.04-.15,0-.07-.01-.12-.03-.18,0-.02-.05-.05-.07-.05-.1,0-.23.26-.18.34.03.04.09.08.14.09Z"/>
      <path class="cls-1" d="M21.95,23.08s-.05-.07-.08-.08c-.03,0-.09.03-.1.05-.01.13-.02.27-.01.4,0,.03.04.07.05.07.04-.01.08-.04.09-.07.02-.08.03-.16.05-.25,0,0-.01,0-.02,0,0-.04.02-.09,0-.12Z"/>
      <path class="cls-1" d="M23.91,29.94s.06-.05.09-.08c-.01-.03-.02-.05-.03-.06-.06-.07-.11-.15-.18-.21-.03-.03-.09-.02-.14-.03,0,.05-.04.12-.02.15.04.08.1.15.16.21.02.02.08.03.11.02Z"/>
      <path class="cls-1" d="M19.85,26.94s.07-.11.1-.15c-.02-.1-.03-.17-.06-.24-.02-.04-.06-.06-.1-.08-.02.04-.06.08-.07.12-.02.08-.02.17-.02.25,0,.04.03.09.06.13,0,.01.07,0,.09-.03Z"/>
      <path class="cls-1" d="M21.16,19.12s.02,0,.03.01c0,.03-.01.07,0,.1.02.03.05.06.08.06.02,0,.06-.03.06-.06.04-.14.08-.27.11-.41,0-.03,0-.07,0-.1-.04.01-.09.02-.11.05-.07.11-.12.23-.18.35Z"/>
      <path class="cls-1" d="M22.1,21.32s-.08-.04-.1-.03c-.04.02-.07.07-.08.11-.03.11-.05.22-.06.33,0,.04.02.08.03.13.04-.02.11-.03.12-.06.03-.09.03-.19.04-.28-.01,0-.02,0-.04-.01.02-.01.04-.02.05-.04.02-.05.03-.1.03-.15Z"/>
      <path class="cls-1" d="M14.86,12.57s-.06.05-.08.07c-.08.11,0,.33.13.38.04.01.1,0,.12-.01.02-.02,0-.08,0-.12,0-.03-.01-.07-.03-.1-.04-.07-.09-.14-.14-.22Z"/>
      <path class="cls-1" d="M19.84,21.62s-.1.01-.13.05c-.08.09-.09.2-.05.31.01.04.07.06.12.08.01,0,.06-.03.07-.05.02-.09.04-.18.06-.3-.01-.01-.03-.07-.06-.08Z"/>
      <path class="cls-1" d="M21.56,27.03s.04-.04.06-.06c-.03-.1-.06-.18-.09-.26,0-.02-.06-.05-.07-.04-.06.04-.14.09-.16.15-.01.05.04.14.09.18.04.03.11.03.17.03Z"/>
      <path class="cls-1" d="M22.53,27.27c-.09.07-.07.16-.06.26.04.02.07.04.1.06.08.07.12.05.17-.04.06-.1-.01-.17-.05-.25-.04-.08-.1-.08-.17-.03Z"/>
      <path class="cls-1" d="M24.15,9.5c.07-.17.14-.33.2-.49,0-.02-.01-.05-.02-.08-.02,0-.05,0-.06.02-.06.07-.12.13-.17.2-.1.15-.09.23.05.34Z"/>
      <path class="cls-1" d="M16.92,19.59s.08,0,.1-.02c.07-.06.03-.33-.06-.37-.07-.03-.14-.06-.22-.09-.02,0-.06,0-.09.01.01.03.02.08.04.09.07.04.14.06.23.09-.03.05-.07.09-.07.12,0,.06.03.11.06.16Z"/>
      <path class="cls-1" d="M23.14,17.27c-.05.11-.1.23-.15.35-.01.03-.02.07-.02.11.05,0,.12,0,.13-.03.07-.12.13-.25.2-.38-.04-.04-.06-.08-.09-.09-.02,0-.06.03-.07.05Z"/>
      <path class="cls-1" d="M22.65,13.04c-.03.07-.06.15-.1.22-.02.05-.1.09-.02.15.07.06.13.02.17-.04.06-.1.1-.2.15-.3-.05-.04-.1-.08-.16-.14-.02.04-.03.08-.05.11Z"/>
      <path class="cls-1" d="M21.79,24.17s0,.06-.01.09c0,.07.03.11.09.07.04-.03.07-.1.08-.16.01-.05,0-.11,0-.16,0-.07,0-.14,0-.24-.22.16-.23.18-.15.4Z"/>
      <path class="cls-1" d="M20.68,27.66c.1,0,.15-.03.15-.12,0-.1-.1-.2-.2-.2-.08,0-.14.03-.14.13,0,.11.08.19.2.19Z"/>
      <path class="cls-1" d="M24.71,1.36s-.11.13-.1.15c.05.08.13.15.21.19.02.01.11-.07.14-.13.03-.06-.13-.21-.25-.22Z"/>
      <path class="cls-1" d="M16.53,17.96s-.08.08-.07.11c.04.13.09.25.16.42.05-.08.11-.13.1-.16-.02-.11-.06-.22-.11-.33,0-.02-.08-.05-.09-.04Z"/>
      <path class="cls-1" d="M16.27,17.63c.06.06.12.1.18-.04.05-.12,0-.21-.04-.31,0-.03-.08-.06-.09-.05-.03.03-.07.07-.07.11,0,.09.01.19.02.29Z"/>
      <path class="cls-1" d="M22.91,30s.09-.06.1-.1c.01-.11-.1-.26-.2-.26-.04.04-.14.14-.12.15.06.08.14.15.23.21Z"/>
      <path class="cls-1" d="M22.44,19.77s.04-.08.05-.13c.02-.06.03-.12.05-.18.02-.06.04-.12-.07-.17-.07.14-.14.27-.2.41,0,.02.02.08.04.09.04,0,.1,0,.13-.02Z"/>
      <path class="cls-1" d="M20.28,18.02s-.09.02-.13.05c-.04.04-.07.09-.1.14-.04.08.01.13.07.17.03.02.09.02.1,0,.05-.07.09-.16.15-.25-.03-.05-.06-.1-.09-.11Z"/>
      <path class="cls-1" d="M25.48,5.2s-.08.1-.1.15c-.01.03.01.08.02.12-.01,0-.02.01-.03.02.04.05.08.09.11.14.04-.04.1-.07.11-.11.02-.07,0-.14,0-.22,0-.06-.02-.14-.1-.11Z"/>
      <path class="cls-1" d="M17.24,18.77s-.07.05-.08.08c-.02.08-.02.16-.02.28.01.02.04.08.07.12.01.01.07.01.08,0,.02-.03.05-.08.05-.12,0-.09,0-.18-.02-.26,0-.04-.05-.06-.07-.1Z"/>
      <path class="cls-1" d="M24.8,3c-.07-.03-.17.11-.14.23.01.05.1.14.14.13.06,0,.11-.08.19-.15-.08-.09-.12-.17-.19-.2Z"/>
      <path class="cls-1" d="M16.33,16.18c-.06.09-.06.19.01.28.03.04.1.08.13.07.04-.02.07-.08.09-.12-.04-.09-.06-.17-.09-.24-.04-.09-.1-.06-.14,0Z"/>
      <path class="cls-1" d="M24.06,30.1c.08.08.17.15.26.21.03.02.09-.02.14-.03,0-.02,0-.03,0-.05-.1-.09-.19-.2-.31-.26-.06-.04-.15.08-.1.13Z"/>
      <path class="cls-1" d="M19.08,25.15s.07-.03.07-.06c.03-.09.05-.19.06-.28,0-.03-.06-.07-.09-.11-.03.03-.07.05-.09.09-.03.07-.05.15-.07.22-.02.07.03.14.11.14Z"/>
      <path class="cls-1" d="M13.56,11.37c.05.05.09.12.15.15.02.01.11-.03.13-.07.02-.04,0-.12-.02-.16-.04-.06-.11-.1-.17-.15-.02.07-.05.14-.08.23Z"/>
      <path class="cls-1" d="M19.45,24.4c-.02.07-.02.15-.04.25.01.03.04.07.06.11.04-.03.1-.05.12-.09.03-.08.04-.17.03-.26,0-.04-.04-.07-.07-.11-.04.03-.09.06-.1.09Z"/>
      <path class="cls-1" d="M22.94,27.85s-.11.01-.11.03c0,.06,0,.12.02.18,0,.01,0,.03,0,.04.04.04.09.09.14.13.04-.06.08-.11.13-.19-.07-.07-.12-.13-.18-.18Z"/>
      <path class="cls-1" d="M24.59,7.84c-.04.1-.06.2-.08.3,0,.03.02.09.04.09.03,0,.1,0,.11-.03.04-.1.07-.22.11-.35-.02-.03-.04-.06-.06-.1-.04.03-.1.05-.11.09Z"/>
      <path class="cls-1" d="M25.09,1.22s-.07.06-.07.1c0,.11.08.22.2.25.04-.05.1-.09.12-.15.02-.05-.18-.21-.25-.19Z"/>
      <path class="cls-1" d="M17.72,21.93s.08.02.1,0c.12-.12.1-.33-.04-.46-.09.1-.12.36-.06.45Z"/>
      <path class="cls-1" d="M24.28,1.31c.09-.01.18-.07.27-.11,0-.02,0-.05,0-.07-.09-.03-.18-.08-.27-.1-.03,0-.11.06-.1.07.02.07.07.21.1.2Z"/>
      <path class="cls-1" d="M14.61,12.38s.09-.09.16-.17c-.09-.08-.15-.18-.22-.19-.15-.02-.03.14-.09.19.05.06.1.12.14.17Z"/>
      <path class="cls-1" d="M17.96,22.38c0-.06-.02-.13-.1-.11-.08.01-.08.07-.06.14.01.07,0,.13.02.2.01.05.05.09.07.13.03-.04.06-.08.09-.12,0-.01,0-.03,0-.06,0-.05-.01-.11-.02-.17Z"/>
      <path class="cls-1" d="M22.9,12.91c.07-.13.13-.26.19-.4,0-.01-.04-.07-.05-.07-.06.03-.12.06-.16.11-.02.02,0,.07,0,.11q-.16.1.02.25Z"/>
      <path class="cls-1" d="M26.24,1.93s-.04.08-.06.13c0,0,.02.01.03.02,0,.01-.01.03-.01.04.02.05.03.12.07.14s.11,0,.15-.03c.12-.08,0-.14-.03-.19-.03-.04-.1-.06-.15-.1Z"/>
      <path class="cls-1" d="M17.66,20.8s-.07.07-.07.1c0,.08.02.17.03.25,0,.04.02.07.04.11.04-.03.08-.04.1-.08.02-.02.01-.06.01-.1-.01-.06-.01-.13-.03-.19-.01-.04-.06-.06-.09-.09Z"/>
      <path class="cls-1" d="M19.4,21.11c-.02.05-.01.12,0,.18,0,.03.03.07.05.1.03-.02.08-.03.09-.05.03-.07.05-.14.08-.24-.03-.03-.06-.07-.08-.11-.04.04-.1.07-.12.12Z"/>
      <path class="cls-1" d="M19.05,24.34s.09-.06.1-.1c.03-.07.03-.15.04-.25-.01-.02-.04-.06-.06-.09-.03.03-.08.04-.09.08-.03.08-.05.16-.06.24,0,.04.04.08.06.12Z"/>
      <path class="cls-1" d="M20.69,29s.07.08.13.15c.07-.07.16-.14.16-.16-.04-.07-.1-.12-.16-.17-.05.06-.11.11-.13.18Z"/>
      <path class="cls-1" d="M14.13,11.05c-.04-.09-.09-.17-.14-.25-.01-.02-.06-.03-.09-.03-.02,0-.04.05-.06.08.04.08.06.16.11.23.02.03.09.04.14.05.01,0,.05-.06.04-.08Z"/>
      <path class="cls-1" d="M24.51,29.86s-.08-.04-.12-.07c0,.05-.03.12,0,.16.05.08.12.15.2.24.09-.07.1-.14.03-.21-.03-.04-.07-.09-.11-.12Z"/>
      <path class="cls-1" d="M17.5,20.1s-.05.1-.08.15c.02.06.04.12.07.16.02.03.06.05.09.07.03-.04.07-.08.07-.11,0-.07-.01-.14-.03-.21-.02-.05-.05-.12-.12-.05Z"/>
      <path class="cls-1" d="M13.08,10.29s.07.01.11,0c.02,0,.05-.04.04-.06-.01-.11-.01-.24-.13-.32-.1.1-.11.32-.02.38Z"/>
      <path class="cls-1" d="M12.52,7.36s.03.1.05.15c0,.02,0,.07.02.07.03.01.07.02.1,0,.02,0,.05-.05.04-.07-.02-.09-.04-.18-.07-.27-.01-.03-.05-.05-.07-.06-.08,0-.11.08-.07.17Z"/>
      <path class="cls-1" d="M25.36,31s.05.02.08,0c0,0,.01-.04.01-.06,0-.03,0-.06-.02-.09-.05-.16-.19-.23-.3-.13.04.06.07.11.1.15.04.04.08.08.13.12Z"/>
      <path class="cls-1" d="M17.56,22c-.03-.06-.08-.1-.14-.03-.09.11-.06.26.05.36.11-.09.15-.22.09-.33Z"/>
      <path class="cls-1" d="M19.15,25.5s-.08.02-.09.04c-.05.07-.01.27.07.35.1-.09.13-.2.1-.32,0-.03-.04-.07-.07-.07Z"/>
      <path class="cls-1" d="M23.62,28.98s-.06.08-.05.09c.06.06.13.11.2.17.11-.02.16-.08.12-.16-.04-.07-.2-.14-.28-.1Z"/>
      <path class="cls-1" d="M23.32,28.43c-.05-.04-.14.04-.12.11.03.07.07.13.13.18.02.02.08,0,.12,0,.03-.01.04-.05.07-.07-.07-.08-.12-.16-.19-.21Z"/>
      <path class="cls-1" d="M16.05,15.65c.03.07.05.14.09.21.01.03.05.04.08.06.02-.03.06-.08.05-.1-.03-.11-.08-.21-.13-.33-.09.04-.13.08-.09.16Z"/>
      <path class="cls-1" d="M19.56,25.49s.06-.06.09-.1c0-.01,0-.04,0-.06,0,0,0,0,0,0,0-.07,0-.13-.02-.2,0-.03-.04-.05-.07-.06-.01,0-.06.03-.06.05-.01.09-.03.19-.02.28,0,.03.05.06.08.1Z"/>
      <path class="cls-1" d="M12.85,8.22s.09-.04.13-.06c-.01-.02-.02-.04-.04-.05-.04-.08-.08-.16-.13-.24-.01-.02-.06-.03-.07-.02-.02.02-.05.05-.05.08,0,.07.02.14.05.2.02.04.07.09.1.09Z"/>
      <path class="cls-1" d="M12.94,9.7s.05-.07.08-.11c-.03-.07-.04-.14-.08-.19-.03-.03-.09-.04-.14-.05-.01.05-.03.1-.03.15,0,.04.04.08.07.12.03.03.06.06.09.09Z"/>
      <path class="cls-1" d="M21.82,13.8s.06.07.08.11c.06-.06.12-.11.21-.2-.07-.06-.11-.11-.16-.12-.07-.01-.15.1-.13.2Z"/>
      <path class="cls-1" d="M23.16,29.67s.06-.05.1-.07c-.06-.07-.12-.15-.18-.22-.03.03-.07.07-.09.08,0,.13.09.23.17.22Z"/>
      <path class="cls-1" d="M13.7,10.25s-.07-.01-.1-.02c0,.03,0,.07,0,.1,0,.04,0,.09.03.12.04.05.1.09.16.12,0,0,.04-.05.07-.08-.05-.09-.1-.17-.15-.25Z"/>
      <path class="cls-1" d="M16.06,16.55c-.06.08-.04.16,0,.23.02.04.06.07.09.1.03-.04.06-.07.08-.1-.03-.09-.04-.16-.07-.23-.03-.06-.07-.06-.11,0Z"/>
      <path class="cls-1" d="M12.43,6.65s-.05.02-.07.04c-.05.08-.08.16.02.23.03.02.08.07.09.06.04-.02.05-.06.08-.09-.02-.08-.03-.13-.06-.19,0-.02-.04-.05-.06-.05Z"/>
      <path class="cls-1" d="M14.4,11.76s.03-.04.06-.08c-.05-.09-.1-.17-.16-.26,0,0-.09.05-.09.05.03.09.07.19.12.27,0,.01.06.02.07.01Z"/>
      <path class="cls-1" d="M17.01,18.31c-.07.08-.05.23.06.31.1-.08.12-.17.09-.28-.03-.09-.09-.1-.15-.03Z"/>
      <path class="cls-1" d="M12.27,5.22c-.06.03-.12.07-.08.16.01.03.01.06.02.09,0,.05.02.09.03.16.12-.1.16-.32.09-.4-.01-.01-.05-.02-.06-.01Z"/>
      <path class="cls-1" d="M17.78,26.48c.08-.03.11-.29.04-.36-.09.07-.16.2-.15.29,0,.07.04.11.11.08Z"/>
      <path class="cls-1" d="M13.3,9.22c-.03-.08-.06-.16-.1-.23-.01-.02-.06-.04-.08-.04-.02,0-.05.05-.05.08.01.08.03.16.06.23.01.03.07.06.09.05.03-.01.05-.06.07-.09Z"/>
      <path class="cls-1" d="M17.35,19.48c-.02.09-.05.18-.05.27,0,.03.07.07.11.1.03-.04.08-.08.08-.11,0-.09-.04-.17-.06-.25h-.07Z"/>
      <path class="cls-1" d="M11.92,5.27s.1,0,.13-.02c.05-.03.08-.29.02-.4-.07.14-.12.26-.18.38,0,.01.02.03.02.04Z"/>
      <path class="cls-1" d="M15.78,14.67s.01-.08,0-.12c0-.05-.02-.09-.04-.13-.02-.03-.04-.06-.07-.09-.03.02-.06.03-.06.04,0,.09.01.19.04.28,0,.02.08.01.13.02Z"/>
      <path class="cls-1" d="M13.88,11.93c.01.06.01.11.04.14.02.03.07.05.11.08.02-.05.05-.1.06-.16,0-.02-.01-.06-.03-.08-.03-.03-.07-.06-.1-.09-.03.04-.05.07-.07.1Z"/>
      <path class="cls-1" d="M27.35,2.9s-.04.03-.05.05c-.03.08.1.25.21.25,0-.03.04-.08.03-.11-.02-.05-.06-.1-.1-.14-.02-.02-.06-.03-.09-.04Z"/>
      <path class="cls-1" d="M12.79,8.96c-.02-.07-.08-.12-.13-.18-.03.04-.06.08-.11.15.05.06.09.11.12.16.04-.04.13-.1.12-.12Z"/>
      <path class="cls-1" d="M15.32,13.92c.04.08.1.14.17.24.04-.07.08-.11.07-.13-.04-.08-.1-.15-.14-.22-.03.04-.1.09-.09.11Z"/>
      <path class="cls-1" d="M15.4,15.08c.16-.1.16-.19,0-.31-.04.05-.09.1-.13.16.05.06.09.1.13.15Z"/>
      <path class="cls-1" d="M25.11,30.46c-.06-.05-.11-.11-.18-.15s-.14.03-.12.09c.03.11.19.15.3.05Z"/>
      <path class="cls-1" d="M24.49,30.5c.09.09.15.14.21.19.02.01.06.02.08,0,.02,0,.04-.05.03-.06-.04-.07-.09-.13-.15-.18-.02-.02-.09.02-.18.04Z"/>
      <path class="cls-1" d="M19.53,22.75s.05.09.07.14c.02-.04.06-.07.08-.11.01-.03.01-.06.02-.12-.02-.02-.05-.07-.09-.11-.02.04-.04.08-.06.13-.01.03-.03.06-.02.08Z"/>
      <path class="cls-1" d="M15.09,13.3c-.09.13.04.17.11.24.09-.09.1-.19.02-.25-.03-.02-.12-.02-.13,0Z"/>
      <path class="cls-1" d="M20.12,19.76c-.09.07-.07.14.06.25.1-.07.13-.2.06-.26-.02-.02-.09-.01-.12,0Z"/>
      <path class="cls-1" d="M15.54,15.39c.01.07.05.15.07.22.12-.08.15-.16.08-.26-.02-.02-.06-.05-.08-.04-.03.02-.08.06-.08.09Z"/>
      <path class="cls-1" d="M20.27,27.96s.08-.09.07-.11c-.02-.05-.07-.09-.11-.13-.03.04-.1.07-.1.11,0,.05.05.09.08.14.02,0,.04,0,.06,0Z"/>
      <path class="cls-1" d="M13.33,9.72c.02.06.05.11.08.17.01.02.05.05.06.05.03-.02.05-.05.07-.07-.03-.08-.05-.15-.08-.21-.01-.02-.07-.02-.1-.03,0,.03-.02.07-.01.1Z"/>
      <path class="cls-1" d="M13.1,8.71c-.02-.06-.03-.12-.05-.17-.02-.04-.04-.08-.06-.13-.02.01-.04.02-.06.04-.01.02-.04.05-.04.07.02.06.03.13.07.18.02.02.09,0,.14.01Z"/>
      <path class="cls-1" d="M12.15,4.29s-.13.12-.05.19c.12.11.12-.09.19-.09,0-.02,0-.04,0-.05-.05-.02-.14-.06-.15-.05Z"/>
      <path class="cls-1" d="M12.42,8.18s0,.1,0,.15c0,0,0,.02,0,.02.01.03.02.06.04.1.04-.04.07-.07.11-.11-.03-.07-.05-.12-.08-.17,0,0-.07,0-.07,0Z"/>
      <path class="cls-1" d="M23.9,29.42c.05.05.1.11.15.16,0,0,.06-.05.12-.1-.08-.05-.14-.08-.2-.11-.01,0-.05.03-.07.05Z"/>
      <path class="cls-1" d="M15.88,14.92s0,.08,0,.11c0,0,0,.02,0,.03.02.04.04.08.06.12.03-.04.06-.08.1-.13-.04-.05-.06-.1-.09-.13,0-.01-.06,0-.06,0Z"/>
      <path class="cls-1" d="M24.52,8.58c.04-.05.09-.1.12-.16,0,0-.04-.05-.09-.11-.05.08-.09.13-.1.19,0,.02.04.05.07.08Z"/>
      <path class="cls-1" d="M20.91,16.09s.03.05.06.1c.04-.07.09-.11.09-.15,0-.04-.05-.08-.08-.12-.03.06-.06.11-.07.17Z"/>
      <path class="cls-1" d="M19.41,27.01c.13-.07.07-.14.02-.21-.01-.02-.09-.02-.1,0-.09.1.04.14.08.21Z"/>
      <path class="cls-1" d="M19.56,20.41s.09.04.14.07c.04-.03.07-.05.09-.07-.04-.03-.08-.08-.13-.08-.03,0-.07.05-.11.08Z"/>
      <path class="cls-1" d="M24.05,30.32c-.06-.06-.11-.1-.16-.13,0,0-.05.04-.08.06.04.04.08.09.13.12.01,0,.05-.02.1-.05Z"/>
      <path class="cls-1" d="M24.92,6.91s-.06-.06-.09-.1c-.02.03-.07.06-.06.09.01.04.04.09.08.11.02.01.07-.02.11-.03-.01-.02-.02-.04-.04-.06Z"/>
      <path class="cls-1" d="M16.86,18.78s-.04-.05-.07-.1c-.03.05-.07.07-.07.1,0,.03.04.05.06.08.03-.03.07-.05.08-.08Z"/>
      <path class="cls-1" d="M25.04,30.85s-.08-.06-.1-.05c-.07.05-.04.11.01.16,0,0,.01,0,.02.01.07-.02.11-.05.07-.12Z"/>
      <polygon class="cls-1" points="24.98 30.98 24.98 30.98 24.98 30.98 24.98 30.98 24.98 30.98 24.98 30.98"/>
      <path class="cls-1" d="M12.31,4.82s.04,0,.07,0c0-.06,0-.11.01-.17-.02,0-.07,0-.07,0,0,.06,0,.11-.01.17Z"/>
      <path class="cls-1" d="M36.89,37.16c.06.03.14.02.21.01.02,0,.05-.06.05-.09,0-.12-.16-.33-.28-.39-.04-.02-.1-.07-.1-.12,0-.11.02-.21.02-.32,0-.07-.02-.16-.07-.19-.05-.03-.14-.02-.21-.01-.02,0-.04.05-.04.08,0,.07,0,.15.02.21.04.11.05.25.21.29-.03.13.08.47.18.52Z"/>
      <path class="cls-1" d="M36.67,34.6s.08-.03.13-.07c.02-.01,0-.08-.01-.1-.1-.12-.18-.25-.23-.4,0-.03-.03-.06-.06-.09-.08-.08-.2-.06-.25.04-.12.24.1.61.41.62Z"/>
      <path class="cls-1" d="M1.74,35.52s.02-.06.03-.09c.02-.11.03-.22.06-.33.04-.14.09-.28.14-.44-.02-.03-.04-.08-.08-.1-.02-.01-.09,0-.11.03-.04.05-.06.12-.08.18-.02.05-.01.11-.03.16-.03.11-.07.23-.1.34-.02.06-.03.12-.03.18,0,.05.04.1.08.12.02.01.08-.03.11-.06Z"/>
      <path class="cls-1" d="M35.18,34.49c.07.02.17.02.23-.01.08-.04.04-.12.02-.19-.04-.09-.06-.18-.11-.25-.04-.06-.11-.11-.17-.16-.11.02-.16.07-.15.14,0,.06,0,.13.03.19.05.1.04.25.16.29Z"/>
      <path class="cls-1" d="M2.71,35.52c-.13.04-.24.2-.22.33,0,.03,0,.06,0,.09-.05.13,0,.2.18.19.02-.01.08-.04.09-.08.04-.13.07-.26.1-.39.01-.09-.08-.16-.15-.14Z"/>
      <path class="cls-1" d="M37.18,36.47c.06.04.16.04.24.05.11,0,.16-.07.12-.18-.06-.18-.18-.27-.35-.27-.1,0-.16.11-.12.19.03.07.05.17.11.2Z"/>
      <path class="cls-1" d="M36.84,35.24c.12,0,.2-.06.18-.14-.03-.09-.06-.18-.1-.25-.03-.05-.1-.1-.15-.1-.05,0-.13.04-.16.09-.11.19.02.39.24.4Z"/>
      <path class="cls-1" d="M35.4,34.84c0,.1,0,.21.03.32.02.1.09.15.19.13.1-.02.15-.1.16-.25-.03-.06-.05-.15-.11-.23-.03-.04-.11-.06-.17-.06-.03,0-.1.05-.1.08Z"/>
      <path class="cls-1" d="M3.04,35.07c.01-.06-.03-.13-.06-.19,0-.01-.08-.01-.1,0-.11.08-.19.2-.21.34,0,.03,0,.08.01.09.08.05.16.09.24.13.12-.03.15-.06.12-.1-.07-.1-.02-.18,0-.27Z"/>
      <path class="cls-1" d="M37.16,34.89c0,.09.03.2.09.28.07.09.17.03.26,0,.03,0,.05-.06.07-.08-.01-.05-.02-.08-.03-.12,0-.03-.02-.06-.03-.1-.01-.12-.08-.18-.19-.13-.07.03-.17.09-.17.14Z"/>
      <path class="cls-1" d="M33.86,34.29c-.08-.12-.16-.23-.26-.33-.03-.03-.12,0-.18.02-.02,0-.04.07-.02.1.04.1.08.19.14.28.04.05.1.08.16.12.09-.02.2-.13.17-.18Z"/>
      <path class="cls-1" d="M36.23,36.42c.05-.1,0-.28-.08-.36-.09-.08-.24-.09-.37,0,.07.13.13.27.22.38.06.09.19.07.23-.01Z"/>
      <path class="cls-1" d="M2.6,36.27c-.11-.02-.22,0-.28.11-.05.11-.09.22-.13.35.19,0,.32-.08.44-.18.04-.04.07-.12.07-.17,0-.04-.06-.1-.11-.11Z"/>
      <path class="cls-1" d="M37.26,34.49c.08-.07.07-.14,0-.22-.07-.08-.12-.17-.19-.25-.03-.03-.08-.07-.12-.06-.04,0-.07.06-.12.12.08.14.15.26.22.38.05.09.13.09.2.03Z"/>
      <path class="cls-1" d="M34.73,34.5c.09,0,.15-.04.12-.13-.05-.15-.11-.29-.18-.43-.02-.03-.1-.03-.15-.05-.01.05-.04.1-.03.15.02.1.08.2.08.3,0,.14.1.13.17.15Z"/>
      <path class="cls-1" d="M15.2,35.11c-.1.12-.04.42.1.5.1.06.21,0,.21-.13-.04-.11-.07-.24-.12-.35-.04-.08-.14-.08-.19-.01Z"/>
      <path class="cls-1" d="M2.16,35.61c-.1-.06-.15.02-.19.09-.05.09-.08.19-.11.29,0,.11.03.18.14.19.11.01.12-.07.13-.15.01-.06.04-.11.07-.16.05-.08.04-.22-.04-.27Z"/>
      <path class="cls-1" d="M15.49,34.41s-.04-.08-.06-.13c-.06.03-.15.05-.18.11-.09.13-.01.41.13.48.03.01.08.02.1,0,.02-.02.05-.08.04-.1-.09-.11-.05-.23-.02-.36Z"/>
      <path class="cls-1" d="M1.78,34.09s.11.04.14.08c.08.08.14.04.19-.02.04-.05.06-.12.08-.18,0-.12-.06-.16-.16-.14-.06.01-.13.02-.19,0-.1-.02-.16.04-.18.12,0,.03.06.09.1.12Z"/>
      <path class="cls-1" d="M35.99,35c.04.17.11.24.22.24.16,0,.19-.06.11-.2-.02-.03-.02-.06-.02-.1-.02-.1-.13-.2-.21-.18-.09.02-.13.12-.1.24Z"/>
      <path class="cls-1" d="M1.92,36.34s-.11.05-.13.1c-.05.11-.08.22-.1.33-.02.09.04.13.13.11.13-.04.22-.19.22-.42-.02-.02-.06-.09-.11-.12Z"/>
      <path class="cls-1" d="M16.95,34.32c-.07-.02-.09.03-.1.09,0,.08-.01.17-.02.25,0,0,0,0,.01,0,0,.04,0,.09.01.12.02.08.06.15.16.14.1-.02.08-.12.07-.17-.03-.1-.02-.18.01-.28.03-.11-.08-.13-.15-.15Z"/>
      <path class="cls-1" d="M15.89,35.55s.06-.03.08-.05c.09-.1.07-.34-.03-.42-.04-.03-.1-.04-.15-.03-.02,0-.04.07-.04.11,0,.07,0,.15-.02.22-.03.1.03.18.16.18Z"/>
      <path class="cls-1" d="M36.03,35.67c0-.12-.09-.24-.2-.25-.1,0-.22.12-.22.23,0,.11.05.13.29.14.11.03.13-.04.14-.13Z"/>
      <path class="cls-1" d="M13.71,35.07s-.09.06-.1.1c-.02.06,0,.12,0,.22,0,.02,0,.08.02.12.02.04.07.08.11.09.03,0,.1-.02.11-.04.02-.13.04-.26.03-.39,0-.04-.1-.09-.16-.1Z"/>
      <path class="cls-1" d="M35.9,34.52c.1.02.17-.03.14-.14-.02-.08-.05-.16-.1-.22-.03-.04-.12-.09-.16-.07-.05.02-.08.09-.12.14.03.19.08.26.24.29Z"/>
      <path class="cls-1" d="M2.98,34.78s.11-.02.12-.05c.03-.1.05-.2.07-.34-.02-.03-.05-.1-.1-.13-.03-.01-.1.05-.14.08-.1.08-.05.21-.07.31,0,.04.06.1.11.12Z"/>
      <path class="cls-1" d="M2.33,34.91s-.12.03-.13.07c-.05.11-.08.24-.12.38.03.03.05.08.08.09.05,0,.15,0,.16-.04.05-.12.08-.25.1-.38,0-.03-.05-.11-.09-.11Z"/>
      <path class="cls-1" d="M11.76,37.01c-.1.01-.21,0-.2.12,0,.09.03.19.07.28.02.05.08.08.12.12.04-.04.09-.08.11-.13.02-.08.02-.17.03-.26,0-.11-.04-.15-.13-.14Z"/>
      <path class="cls-1" d="M34.35,34.34c-.03-.08-.1-.14-.12-.22-.02-.07-.02-.15-.11-.16-.1,0-.09.08-.1.15,0,0-.01.01-.01.02-.04.13.1.36.22.36.11,0,.16-.05.12-.16Z"/>
      <path class="cls-1" d="M34.92,36.01c-.12,0-.12,0-.14.25.03.07,0,.19.12.22.09.02.21-.11.21-.22,0-.13-.1-.26-.2-.25Z"/>
      <path class="cls-1" d="M15.94,34.3c-.05.01-.11.06-.14.11-.03.05-.02.12-.04.18,0,0,0,0,.01,0,0,.02,0,.04,0,.06.01.04.03.08.04.12.04-.02.08-.02.11-.05.05-.04.11-.08.13-.13.03-.07.03-.16.01-.24,0-.03-.09-.08-.13-.07Z"/>
      <path class="cls-1" d="M16.45,34.31c-.06.05-.13.14-.13.22,0,.09.11.17.03.28.05.02.12.08.14.07.04-.04.1-.12.09-.16-.02-.07-.02-.11.03-.15.01-.01.01-.04.01-.05,0-.11-.11-.24-.16-.2Z"/>
      <path class="cls-1" d="M35.62,36.35c0-.07-.04-.15-.05-.22-.01-.09-.04-.15-.15-.1,0-.01-.01-.02-.02-.03-.05.03-.14.08-.13.1.03.12.09.23.14.34.02.03.1.07.11.06.04-.04.08-.1.09-.15Z"/>
      <path class="cls-1" d="M35,35.22s.09.01.12-.01c.1-.07.05-.17.04-.27,0,0,0-.02,0-.02-.06-.05-.13-.12-.19-.13-.04,0-.1.09-.17.16.08.1.13.19.21.27Z"/>
      <path class="cls-1" d="M17.4,34.26c-.04.07-.1.16-.08.21.04.11,0,.19-.02.29-.02.09.03.11.11.13.02-.03.07-.06.08-.09.03-.12.06-.24.07-.37,0-.06-.05-.12-.08-.17,0-.01-.07,0-.08,0Z"/>
      <path class="cls-1" d="M16.42,35.04s-.08.08-.11.14c-.02.05-.04.11-.02.15.04.08.1.14.15.21.05-.03.1-.06.14-.11.02-.02.01-.06.01-.08,0-.08.01-.15-.02-.2-.03-.05-.1-.11-.15-.11Z"/>
      <path class="cls-1" d="M34.39,35.08c.04.08.11.16.21.13.04-.01.06-.08.08-.11-.01-.07-.02-.13-.03-.17-.03-.1-.18-.19-.26-.15-.09.04-.1.12,0,.31Z"/>
      <path class="cls-1" d="M11.3,37c-.09-.01-.1.07-.11.14,0,.1-.02.21-.01.31,0,.05.04.1.07.15.05-.04.12-.07.14-.12.03-.07.01-.15.02-.25,0-.01-.01-.05,0-.09.01-.08-.01-.14-.09-.15Z"/>
      <path class="cls-1" d="M16.03,35.97c0-.12-.08-.24-.18-.26-.12-.02-.08.1-.11.16,0,.02-.03.03-.02.04,0,.06,0,.15.03.17.06.04.15.06.22.05.04,0,.06-.09.1-.14,0,0-.02-.01-.02-.02,0,0,0,0,0-.01Z"/>
      <path class="cls-1" d="M14.32,35.11s-.08-.05-.12-.04c-.03,0-.06.07-.06.11-.01.09-.03.19-.02.28,0,.07.03.15.14.16.08-.03.1-.1.1-.19,0-.03,0-.06,0-.09,0-.08-.01-.15-.04-.22Z"/>
      <path class="cls-1" d="M33.95,34.71s-.02,0-.04,0c-.02.02-.07.05-.09.08-.06.1.07.36.19.37.03,0,.07-.02.09-.04.1-.11,0-.37-.14-.41Z"/>
      <path class="cls-1" d="M4.69,34.32c-.1.1-.03.22-.02.33,0,.02.07.05.11.06.03,0,.08-.03.09-.06.03-.08.03-.17.06-.29-.02-.03-.05-.09-.08-.15-.06.04-.12.07-.17.12Z"/>
      <path class="cls-1" d="M3.84,35.55c-.12-.02-.15.09-.19.16-.03.06-.04.14-.03.21,0,.02.08.06.12.06.1,0,.2-.13.2-.26-.02-.05.03-.15-.1-.17Z"/>
      <path class="cls-1" d="M37.23,37.57c0-.13-.1-.12-.17-.14-.03,0-.08.06-.14.11h-.1c.11.09.2.17.29.24.02.02.05.03.08.05.06.04.12.04.15-.03.01-.03-.01-.09-.03-.13-.02-.04-.07-.07-.07-.1Z"/>
      <path class="cls-1" d="M3.71,34.06c.12-.02.29-.18.26-.26-.03-.06-.12-.11-.2-.14-.04-.02-.12,0-.14.04-.03.06-.04.14-.02.2.01.06.06.11.09.16Z"/>
      <path class="cls-1" d="M36.98,35.76c.08.04.18.08.25-.02.05-.06-.02-.21-.11-.26-.03-.02-.08-.02-.15-.04-.04.02-.1.05-.16.09.04.07.08.14.12.2,0,.01.03.01.05.02Z"/>
      <path class="cls-1" d="M37.75,37.01c-.03-.08-.05-.15-.09-.2-.06-.09-.3-.09-.29,0,0,.09.06.18.11.27.04.07.11.07.18.03.03-.02.06-.06.09-.09Z"/>
      <path class="cls-1" d="M34.37,36.01c-.06,0-.13.02-.09.12.04.09.07.18.13.25.06.08.2.04.22-.05.02-.11-.14-.32-.26-.32Z"/>
      <path class="cls-1" d="M34.92,35.76s.04-.05.04-.08c0-.07-.19-.24-.29-.24-.02.02-.08.05-.1.09-.05.13.04.19.14.22.06.02.14.02.21.01Z"/>
      <path class="cls-1" d="M36.54,37.04c-.05-.1-.08-.19-.14-.26-.02-.02-.09-.03-.12-.02-.09.04-.18.12-.11.22.06.07.17.11.26.15.02,0,.06-.05.1-.09Z"/>
      <path class="cls-1" d="M35.79,36.78c-.06-.03-.14-.07-.18-.05-.05.03-.06.12-.08.17.02.07.04.14.07.2.03.06.1.09.14.02.05-.07.08-.16.1-.24,0-.03-.02-.09-.05-.1Z"/>
      <path class="cls-1" d="M11.79,36.87c.04-.07.06-.14.09-.21,0,0-.01,0-.02,0,0-.04,0-.09-.02-.12-.03-.04-.08-.08-.13-.11-.02,0-.08.04-.09.07-.05.1,0,.31.08.39.02.02.08.01.09,0Z"/>
      <path class="cls-1" d="M35.77,37.35s-.03.06-.02.07c.04.09.09.17.15.25.03.04.1.06.15.06.02,0,.04-.08.08-.15-.07-.08-.14-.18-.23-.25-.02-.02-.09,0-.13.03Z"/>
      <path class="cls-1" d="M37.69,36.19c0,.13.2.32.37.32.01-.02.05-.08.04-.1-.07-.1-.15-.2-.24-.29-.07-.06-.16-.01-.16.06Z"/>
      <path class="cls-1" d="M33.07,34.06c-.05.05-.1.13-.1.21-.02.11.08.21.17.21.11,0,.12-.07.13-.14,0-.09-.17-.3-.2-.27Z"/>
      <path class="cls-1" d="M7.01,34.16c-.09-.02-.19.09-.19.19,0,.05-.01.1-.02.17.06.01.12.03.17.03.11,0,.16-.08.14-.18,0-.08.01-.18-.1-.2Z"/>
      <path class="cls-1" d="M33.79,36.32c-.04.11.03.21.11.22.09.01.19-.07.23-.19-.06-.06-.12-.12-.18-.19-.06.06-.14.1-.16.17Z"/>
      <path class="cls-1" d="M32.47,34.05s-.17.18-.15.22c.04.06.12.11.2.18.07-.06.15-.09.16-.15.02-.08-.14-.25-.21-.25Z"/>
      <path class="cls-1" d="M36.38,37.46c-.03.07-.16.2.06.22,0,0,.01.01.02.02.04.07.1.09.16.05.04-.03.05-.1.08-.16-.04-.06-.05-.13-.09-.15-.07-.03-.18-.08-.22.02Z"/>
      <path class="cls-1" d="M37.45,35.56c0,.15.08.23.23.23.02-.03.09-.08.1-.13.02-.11-.08-.22-.17-.21-.07,0-.17,0-.16.12Z"/>
      <path class="cls-1" d="M3.71,34.39s-.05-.1-.09-.12c-.03,0-.1.04-.11.08-.04.12-.06.24-.08.36.22.03.31-.14.29-.33Z"/>
      <path class="cls-1" d="M4.03,34.93c-.06.06-.11.12-.16.19-.02.03-.03.09,0,.12.02.04.07.06.13.1.04-.05.08-.08.1-.12.03-.07.04-.14.05-.21,0-.03,0-.06,0-.1-.04,0-.09,0-.11.01Z"/>
      <path class="cls-1" d="M3.5,34.88c-.13.02-.27.27-.21.39.01.03.11.05.12.05.08-.11.15-.23.23-.37-.06-.03-.1-.07-.14-.07Z"/>
      <path class="cls-1" d="M37.66,37.47s-.07.05-.08.09c0,.02.02.07.04.09.03.04.07.08.11.1.04.02.1.05.14.04.03,0,.05-.07.06-.09,0-.18-.14-.29-.28-.23Z"/>
      <path class="cls-1" d="M3.22,35.61s-.1.04-.11.08c-.03.08-.04.17-.05.26,0,.03.03.07.05.11.06-.03.12-.04.13-.06,0-.1.13-.18.07-.3-.02-.04-.06-.09-.09-.09Z"/>
      <path class="cls-1" d="M36.45,35.79c.13,0,.13-.02.09-.2-.02-.1-.08-.15-.17-.15-.12,0-.07.09-.08.14-.03.14.02.21.16.21Z"/>
      <path class="cls-1" d="M1.39,36.36s-.07.06-.08.1c-.03.08-.05.16-.04.23,0,.05.07.1.1.14.04-.03.09-.06.11-.1.02-.06.02-.12.03-.2,0-.02,0-.05-.01-.07-.03-.04-.06-.07-.1-.1Z"/>
      <path class="cls-1" d="M4.54,34.93c-.08,0-.19.15-.16.25.01.05.09.08.14.11.1-.02.19-.11.17-.2-.01-.08-.05-.16-.15-.16Z"/>
      <path class="cls-1" d="M38.36,37.45c-.05.01-.09.08-.13.13.02.12.12.22.23.21.03,0,.08-.05.09-.09.02-.1-.11-.27-.19-.25Z"/>
      <path class="cls-1" d="M2.41,34.76c.06-.07.11-.15.18-.26-.07-.06-.11-.13-.17-.14-.08-.02-.1.05-.1.12,0,.06-.03.12-.04.18,0,.03,0,.08.03.1.02.02.08.02.1,0Z"/>
      <path class="cls-1" d="M13.75,35.81c-.13,0-.16.07-.16.17,0,.09.02.2.13.19.05,0,.12-.12.13-.19,0-.06,0-.17-.1-.18Z"/>
      <path class="cls-1" d="M38.23,36.88s-.03-.03-.04-.05c-.06-.12-.11-.13-.21-.04.01.06.03.1.04.15,0,.1.08.13.16.14.04,0,.07-.02.11-.03-.02-.06-.04-.12-.06-.18Z"/>
      <path class="cls-1" d="M14.72,35.13s-.05.09-.07.13c-.01.03-.02.07-.01.11.01.06.04.11.07.16.05-.03.11-.06.16-.1.02-.02.01-.06.02-.11,0-.03-.01-.08-.04-.11-.03-.04-.08-.06-.12-.09Z"/>
      <path class="cls-1" d="M35.41,35.7c0-.1-.1-.23-.17-.21-.06.02-.15.1-.15.15,0,.09.08.15.18.16.08,0,.14-.02.14-.1Z"/>
      <path class="cls-1" d="M31.87,34.15c-.07,0-.16.1-.15.22,0,.11.12.09.2.11.03,0,.1-.06.11-.1.01-.1-.08-.23-.16-.23Z"/>
      <path class="cls-1" d="M14.22,35.81s-.11.03-.11.04c0,.09.03.18.05.27,0,0,.01,0,.02,0,.11.03.18-.03.18-.15,0-.09-.04-.17-.14-.18Z"/>
      <path class="cls-1" d="M17.02,33.81c-.1-.02-.1.08-.11.15,0,0,0,.02,0,.03,0,.05,0,.11.02.15.02.02.1.03.12.01.04-.03.07-.09.12-.15-.06-.07-.09-.16-.15-.18Z"/>
      <path class="cls-1" d="M1.52,35.83s-.07.08-.09.13c-.02.05-.02.11-.03.17,0,.03,0,.06,0,.08.02.02.06.03.07.02.06-.05.11-.11.15-.16-.01-.07,0-.11-.02-.13-.02-.04-.06-.07-.1-.11Z"/>
      <path class="cls-1" d="M10.77,37.08s-.07.08-.11.15c.06.08.09.17.14.18.1.02.13-.08.13-.16,0-.08-.1-.19-.16-.16Z"/>
      <path class="cls-1" d="M12.75,35.45c-.09-.02-.14.05-.14.14,0,.09.04.14.18.14.02-.03.09-.09.08-.14,0-.05-.07-.13-.12-.14Z"/>
      <path class="cls-1" d="M2.77,33.79c-.05-.05-.1-.12-.12-.11-.06.02-.16.07-.16.1.01.08.07.15.11.22.05-.06.1-.13.17-.21Z"/>
      <path class="cls-1" d="M6.33,34.31s-.04.11-.06.19c.1.1.17.08.21-.05,0-.03.02-.07.02-.1,0-.05-.02-.09-.03-.14-.05.03-.11.06-.14.1Z"/>
      <path class="cls-1" d="M10.17,37.4c-.01.09.09.23.14.21.05-.02.08-.08.15-.14-.08-.07-.15-.13-.21-.18-.03.04-.08.07-.08.11Z"/>
      <path class="cls-1" d="M16.38,34.08s.07.1.12.11c.03,0,.08-.05.15-.1-.07-.09-.12-.17-.17-.24-.03.07-.08.15-.09.22Z"/>
      <path class="cls-1" d="M12.09,37.2s.09.11.1.11c.07-.04.12-.1.2-.17-.08-.06-.16-.13-.17-.12-.06.05-.11.11-.13.18Z"/>
      <path class="cls-1" d="M4.98,35.15s.06.13.1.13c.09,0,.13-.07.14-.19-.02-.02-.05-.06-.09-.07-.1-.02-.16.05-.16.13Z"/>
      <path class="cls-1" d="M17.48,33.74c-.15,0-.1.14-.14.24.02.02.04.06.07.06.07.02.16-.08.16-.2,0-.04-.06-.11-.09-.11Z"/>
      <path class="cls-1" d="M16.79,35.28c.05.06.08.09.12.13.05-.05.14-.09.14-.14,0-.05-.07-.11-.12-.16-.04.05-.08.1-.14.17Z"/>
      <path class="cls-1" d="M4.21,35.71c.16.09.23-.06.34-.11-.14-.17-.23-.13-.34.11Z"/>
      <path class="cls-1" d="M4.93,34.14c.05-.08.11-.13.12-.19,0-.03-.06-.08-.1-.12-.05.06-.11.11-.15.18,0,0,.06.07.13.13Z"/>
      <path class="cls-1" d="M35.29,36.77s-.09.06-.14.1c.05.05.1.11.16.16.03-.04.07-.08.12-.14-.06-.06-.1-.12-.14-.12Z"/>
      <path class="cls-1" d="M12.2,36.73c.09,0,.13-.06.14-.18-.02-.02-.06-.08-.09-.08-.11,0-.12.1-.12.19,0,.02.04.07.07.07Z"/>
      <path class="cls-1" d="M12.79,36.02c0-.05-.06-.1-.09-.14-.03.04-.06.09-.1.15.04.07.07.17.11.17.11,0,.09-.11.08-.17Z"/>
      <path class="cls-1" d="M17.84,33.74c.05.06.08.1.12.14.04-.05.1-.09.11-.14,0-.03-.05-.08-.08-.13-.04.04-.08.08-.14.13Z"/>
      <path class="cls-1" d="M13.2,35.9c-.11-.02-.06.08-.07.13,0,0,0,0,0,.01,0,.04-.01.09,0,.12,0,.01.08.02.1,0,.03-.02.05-.06.09-.12-.04-.06-.07-.14-.12-.15Z"/>
      <path class="cls-1" d="M13.19,35.66s.08-.03.09-.06c.07-.14-.06-.15-.17-.2,0,.05,0,.11,0,.16,0,.04.04.08.07.09Z"/>
      <path class="cls-1" d="M5.81,34.3c0,.08,0,.16,0,.24h.06c.03-.05.07-.11.09-.16,0-.04-.03-.09-.05-.13-.03.02-.1.03-.1.05Z"/>
      <path class="cls-1" d="M5.53,35.05s.07.06.08.05c.05-.04.1-.09.13-.14,0-.01-.04-.06-.09-.13-.05.09-.09.15-.12.22Z"/>
      <path class="cls-1" d="M12.25,36.22s.11-.07.11-.1c0-.05-.06-.09-.1-.13-.03.04-.07.08-.12.15.04.04.09.1.1.09Z"/>
      <path class="cls-1" d="M7.56,33.88s.06.08.08.08c.07-.02.13-.06.19-.09-.03-.03-.07-.06-.12-.1-.06.04-.1.08-.15.11Z"/>
      <path class="cls-1" d="M6.04,34.94s.08.07.11.06c.08-.02.15-.07.16-.21-.1.04-.18.07-.26.1,0,.01,0,.03-.01.04Z"/>
      <path class="cls-1" d="M14.24,34.73s.08.08.13.11c0,0,.04-.05.09-.09-.05-.04-.09-.08-.12-.08-.03,0-.06.04-.09.07Z"/>
      <path class="cls-1" d="M14.72,36.1s.05,0,.07,0c.02-.05.03-.11.05-.16-.04,0-.09,0-.13.01,0,.05,0,.1.01.15Z"/>
      <path class="cls-1" d="M12.6,36.52s.05.08.08.08c.03,0,.07-.04.13-.08-.05-.04-.08-.08-.1-.07-.04,0-.07.04-.11.06Z"/>
      <path class="cls-1" d="M5.27,34.38c-.06.05-.09.1.03.2.02-.08.03-.14.05-.19-.02,0-.06-.02-.07,0Z"/>
      <path class="cls-1" d="M15.96,33.95s.06-.05.06-.07c0-.03-.03-.05-.06-.1-.04.05-.08.08-.08.1.02.03.05.05.08.08Z"/>
      <path class="cls-1" d="M16.38,35.74s-.05.06-.06.1c0,.01.03.04.06.07.03-.05.06-.08.07-.11,0-.01-.05-.04-.07-.06Z"/>
      <path class="cls-1" d="M11.84,36.2s-.04-.04-.06-.06c-.02.03-.06.05-.06.08,0,.02.03.05.07.09.03-.05.05-.08.05-.11Z"/>
      <path class="cls-1" d="M19.24,32.12c0,.14.06.17.22.15,0-.03,0-.05,0-.07,0-.21-.04-.42,0-.61.02-.13.03-.25-.02-.36-.02-.04-.07-.06-.11-.09-.02.03-.06.07-.07.1,0,.08.03.18,0,.25-.09.21-.02.42,0,.63Z"/>
      <path class="cls-1" d="M19.75,31.43c0,.1.02.2.02.29,0,.16-.01.31,0,.47,0,.03.05.08.08.08.03,0,.08-.04.08-.07.01-.05,0-.11,0-.16,0-.21-.03-.44.03-.63.04-.13-.02-.21-.02-.3,0-.08-.11-.13-.16-.09-.07.07-.07.22,0,.29,0,.05-.03.09-.03.13Z"/>
      <path class="cls-1" d="M23.72,31.82c0,.08.03.15.03.23,0,.11.07.17.17.14,0-.1,0-.19,0-.28,0-.1,0-.21-.01-.31,0-.11-.01-.22-.01-.32,0-.04,0-.09.03-.11.05-.05.06-.11,0-.13-.03-.02-.09.02-.13.05-.04.02-.07.06-.09.09,0,.12,0,.25,0,.38,0,.1,0,.19.02.29Z"/>
      <path class="cls-1" d="M24.28,32.21c.03-.06.1-.11.1-.17.01-.22,0-.45,0-.71-.02-.04-.04-.12-.07-.2,0-.01-.08-.01-.1,0-.02.03-.03.08-.03.12,0,.26.01.53.03.79,0,.05.05.11.07.16Z"/>
      <path class="cls-1" d="M21.16,30.52c-.02.08,0,.17.03.26.03.11.1.13.15.04.06-.09.07-.2.09-.28-.01-.09-.04-.16-.03-.22.01-.14-.04-.22-.17-.26-.03,0-.07-.02-.09,0-.02.02-.02.06-.02.09.03.12.08.24.04.38Z"/>
      <path class="cls-1" d="M14.69,31.92c-.01.06-.03.12-.03.18,0,.05.02.1.05.13.02.02.06.02.1.04,0-.03.02-.07.01-.1-.07-.13-.01-.26-.01-.38,0-.21.03-.42.04-.63,0-.03-.05-.06-.08-.1-.02.04-.05.08-.06.12,0,.02.03.06.02.08-.02.22-.05.43-.08.65.01,0,.02,0,.03,0Z"/>
      <path class="cls-1" d="M14.33,32.27s.08-.09.08-.13c0-.19,0-.38,0-.58,0,0,.02,0,.03,0,0-.05,0-.11-.03-.16-.02-.04-.07-.07-.11-.1-.02.04-.05.08-.06.12,0,.08.02.16.02.24,0,.17-.03.33-.03.5,0,.04.06.07.1.11Z"/>
      <path class="cls-1" d="M15.23,32.29s.04-.09.04-.13c-.01-.18-.06-.36-.03-.53.02-.11.02-.21.02-.32,0-.04-.04-.07-.07-.11-.03.04-.08.07-.08.11,0,.2,0,.39,0,.59h-.03c.02.1.02.19.05.29.01.04.07.06.1.1Z"/>
      <path class="cls-1" d="M15.59,31.57c-.02.17-.04.34-.04.51,0,.04.02.09.05.13.01.02.08.02.09,0,.03-.04.06-.1.06-.15,0-.16,0-.32-.01-.48-.01-.1-.05-.2-.07-.3-.02,0-.03,0-.05,0-.04.07-.13.13-.03.22.01,0,0,.04,0,.06Z"/>
      <path class="cls-1" d="M17.24,32.11s.04.08.06.12c.04-.02.1-.03.12-.07.03-.04.05-.09.05-.14,0-.11-.02-.22-.03-.34,0-.05,0-.1-.03-.13-.02-.04-.07-.06-.11-.09-.02.04-.06.08-.07.12,0,.14,0,.29,0,.43h0s0,.06,0,.09Z"/>
      <path class="cls-1" d="M20.46,31.16c.08-.12.04-.4-.06-.5-.02-.02-.07-.05-.1-.04-.03.01-.07.06-.07.09,0,.13,0,.26,0,.38-.01,0-.02.01-.03.02.04.05.07.11.11.16.05-.04.12-.06.15-.11Z"/>
      <path class="cls-1" d="M20.37,31.42s-.09-.03-.1-.02c-.03.03-.04.08-.04.12,0,.19.01.38.02.56-.01,0-.02,0-.04.01.03.05.05.1.09.14,0,0,.08-.03.08-.05.02-.17.02-.33.03-.5,0-.05,0-.1,0-.14,0-.04-.02-.09-.05-.13Z"/>
      <path class="cls-1" d="M21.71,31.71s.06.06.07.05c.06-.03.13-.07.16-.13.02-.03-.02-.11-.05-.16-.03-.05-.08-.07-.04-.15.04-.07-.11-.24-.22-.24-.05,0-.09.02-.06.11.07.17.14.33.13.52Z"/>
      <path class="cls-1" d="M23.25,31.88c0,.06-.01.13,0,.19.02.05.07.08.1.12.03-.04.08-.07.09-.11.01-.16.01-.31.01-.47,0-.08-.11-.2-.15-.17-.04.04-.07.12-.08.18,0,.09.02.17.03.26,0,0,0,0,0,0Z"/>
      <path class="cls-1" d="M16.52,32.03c.02.18.08.24.25.21.04,0,.07-.03.1-.05-.04-.03-.07-.06-.11-.09-.03-.02-.1-.04-.1-.07-.02-.14-.03-.28-.04-.42,0,0,0,0,.01,0,0-.02.01-.04,0-.06-.01-.03-.04-.07-.06-.1-.03.03-.06.05-.09.08-.01.02,0,.05,0,.07.01.14.03.28.04.43Z"/>
      <path class="cls-1" d="M22.71,32.1s.06.09.1.1c.02,0,.08-.04.09-.07.04-.14.08-.28.11-.43,0-.03-.05-.11-.08-.11-.05,0-.13.04-.15.08-.04.09-.05.2-.07.3,0,0,0,0,.01,0,0,.04-.02.09,0,.12Z"/>
      <path class="cls-1" d="M16.13,32.22s.06-.07.06-.11c.01-.12.02-.25.02-.4,0-.04-.02-.1-.04-.17-.01-.04-.05-.07-.07-.1-.03.04-.09.08-.09.12,0,.19,0,.37.02.56,0,.04.07.08.1.11Z"/>
      <path class="cls-1" d="M20.82,32.23s.04-.09.06-.13c0-.03,0-.06,0-.09.01-.18.03-.35.03-.53,0-.05-.03-.1-.06-.15-.01-.02-.06-.02-.09-.01-.02,0-.03.05-.02.08,0,.08.03.16.03.24,0,.13-.02.27-.03.37,0,.05,0,.08,0,.1.02.04.06.07.09.11Z"/>
      <path class="cls-1" d="M18.41,32.27c.07,0,.09-.04.08-.11-.02-.09-.03-.18-.04-.27,0,0,.02,0,.03,0-.02-.08-.03-.16-.06-.24,0-.03-.04-.06-.07-.06-.02,0-.07.03-.07.05-.02.09-.04.18-.03.27,0,.1.02.19.05.28.01.04.07.08.11.08Z"/>
      <path class="cls-1" d="M25.3,32.27s.06-.06.05-.08c-.02-.14-.06-.27-.09-.41.08-.06.09-.13-.03-.17-.02,0-.03-.03-.05-.04-.03-.01-.06-.02-.09-.01-.01,0-.03.05-.02.07.04.19.07.38.12.56,0,.03.07.06.12.07Z"/>
      <path class="cls-1" d="M24.77,32.22s.05-.05.05-.08c0-.09,0-.18,0-.27h0c0-.11,0-.23,0-.34,0-.03-.05-.06-.07-.09-.03.03-.08.06-.08.1,0,.2.01.4.02.6,0,.03.05.05.08.08Z"/>
      <path class="cls-1" d="M13.82,32.12s.04.06.06.09c.02-.03.06-.05.06-.08.02-.1.02-.2.04-.35-.02-.05-.05-.14-.1-.22-.01-.02-.08-.02-.12,0-.02,0-.05.08-.03.09.11.14.11.3.08.46Z"/>
      <path class="cls-1" d="M21.17,31.24c0,.11.1.22.19.22.06,0,.14-.13.14-.25,0-.07-.04-.11-.13-.1-.09,0-.19.02-.19.14Z"/>
      <path class="cls-1" d="M21.32,31.56s-.07-.04-.11-.06c-.02.05-.04.1-.05.14,0,.06,0,.13.02.19.02.05.07.09.1.13.04-.04.08-.08.11-.13.01-.02,0-.06-.02-.09.01,0,.02,0,.03-.01-.03-.06-.05-.12-.09-.17Z"/>
      <path class="cls-1" d="M17.88,32.24c.13,0,.09-.12.1-.23-.01-.02-.04-.07-.06-.12-.04.07-.1.13-.12.2-.02.05-.02.16.08.15Z"/>
      <path class="cls-1" d="M25.58,32.05c.03.08.09.15.13.22,0,0,.05,0,.05-.02.03-.07.09-.14,0-.21-.03-.03-.06-.07-.09-.1-.06.01-.12.04-.1.11Z"/>
      <path class="cls-1" d="M20.98,30.17s-.01-.09-.02-.13c-.05.02-.12.03-.13.06-.02.07-.02.16-.03.24.02,0,.04.01.05.02.04-.06.1-.12.13-.18Z"/>
      <path class="cls-1" d="M21.91,30.61s-.04-.1-.06-.14c-.02,0-.04,0-.05,0-.03.04-.09.08-.08.1.02.05.07.1.11.14.03-.03.09-.07.09-.1Z"/>
      <path class="cls-1" d="M21.71,32.1s.09.07.14.08c.02,0,.08-.06.08-.07-.03-.05-.07-.09-.13-.15-.04.06-.07.1-.09.14Z"/>
      <path class="cls-1" d="M13.12,32.3s-.01-.07-.02-.11c-.05.02-.1.03-.15.05,0,.02,0,.05.01.07.05,0,.1,0,.16-.01Z"/>
      <path class="cls-1" d="M24.02,32.3s.08-.05.12-.07c-.02-.02-.04-.04-.08-.08-.04.04-.07.07-.09.11,0,0,.04.05.05.05Z"/>
    </g>
  </g>
</svg>