<?xml version="1.0" encoding="UTF-8"?>
<svg id="Layer_2" xmlns="http://www.w3.org/2000/svg" viewBox="0 0 42.82 42.25">
  <defs>
    <style>
      .cls-1 {
        fill: #2c489e;
      }
    </style>
  </defs>
  <g id="Layer_1-2" data-name="Layer_1">
    <g>
      <path class="cls-1" d="M42.41,23.37c-.06,0-.13-.02-.19,0-.17.03-.34.1-.51.09-.33-.02-.66-.07-.99-.12-.35-.05-.69-.1-1.04-.15-.16-.02-.32-.02-.48-.04-.13-.02-.27-.04-.4-.06-.06,0-.12,0-.18-.03-.47-.16-.96-.2-1.44-.24-.12-.01-.24.02-.26.18,0,.03-.02.05-.03.07-.4-.4-.79-.79-1.18-1.18-.01-.01-.01-.03-.02-.04-.09-.11-.17-.24-.27-.34-.2-.19-.23-.31-.05-.52.11-.14.24-.27.35-.4.08-.09.14-.19.22-.27.15-.16.31-.31.46-.48.22-.24.43-.49.66-.75.01.04.02.06.02.08,0,.27.1.35.37.3.12-.02.23-.04.35-.06.23-.03.46-.07.7-.1.28-.03.57-.04.85-.06.22-.02.44-.05.67-.06.39,0,.78,0,1.17,0,.13,0,.27-.04.4-.02.18.02.36.08.54.13.05-.1.21-.17.37-.2.06,0,.11-.05.15-.09.09-.09.1-.2.07-.33-.06-.28-.34-.47-.61-.38-.24.09-.48.2-.73.26-.28.06-.57.07-.85.11-.04,0-.09,0-.13,0-.35.04-.71.1-1.06.13-.26.02-.52,0-.78.03-.34.02-.68.06-1.02.08-.05,0-.14-.03-.14-.05,0-.05.02-.12.05-.17.1-.12.21-.23.32-.34.2-.22.43-.41.59-.65.17-.27.4-.45.63-.65.17-.15.23-.35.11-.53-.03-.04-.08-.09-.12-.09-.41,0-.74-.28-1.15-.31-.24-.02-.47-.2-.7-.31-.08-.03-.16-.05-.21-.06-.18-.1-.34-.17-.49-.26-.04-.03-.08-.07-.13-.11.11-.03.18-.03.24-.06.22-.09.44-.2.67-.29.3-.11.61-.18.91-.3.33-.12.65-.28.98-.41.34-.13.67-.26,1.01-.38.12-.04.25-.12.37-.11.25.02.45-.08.64-.23.12-.1.14-.23.07-.35-.06-.11-.15-.21-.31-.13-.27.13-.56.24-.84.35-.23.09-.47.17-.71.26-.14.05-.28.08-.41.13-.22.09-.42.21-.64.3-.27.12-.54.23-.82.32-.36.13-.73.25-1.09.36-.29.09-.34.23-.16.47,0,0,0,.02-.01.06-.27-.06-.55-.09-.8-.2-.23-.1-.45-.22-.69-.28-.17-.04-.33-.14-.49-.21-.27-.12-.61-.15-.71-.51,0-.01-.03-.02-.04-.03.04-.03.08-.04.08-.06.07-.25.18-.51.19-.77.02-.43.07-.85.18-1.26.03-.1.06-.14.18-.14.11,0,.25-.02.34-.09.47-.35.92-.71,1.38-1.07.08-.06.15-.13.23-.19.2-.13.4-.25.6-.39.19-.12.36-.26.55-.38.31-.19.68-.28.91-.6.07-.09.18-.15.27-.23,0-.02-.02-.03-.03-.05-.06.02-.11.04-.18.07-.01-.03-.03-.07-.06-.14.13,0,.24,0,.38,0-.02-.06-.09-.15-.08-.22.03-.17-.05-.15-.16-.11-.06.02-.13.04-.19.07-.11.06-.22.14-.34.21-.06-.07-.11-.01-.16.07-.06.08-.11.17-.19.23-.26.19-.53.36-.79.55-.2.15-.4.31-.6.47-.09.07-.17.14-.26.2-.2.12-.44.2-.6.36-.26.25-.57.42-.87.6-.05.03-.11.04-.2.08,0-.23,0-.42.02-.61.02-.25.07-.51.1-.76.03-.24.06-.48.09-.71.03-.21.08-.42.08-.63,0-.19-.07-.23-.27-.19-.15.03-.29.06-.44.09-.29.06-.59.11-.88.17-.26.05-.53.08-.79.14-.27.06-.53.16-.82.16-.18,0-.36.06-.54.09-.32.05-.64.1-.96.16-.33.06-.65.14-.98.2-.14.02-.26-.03-.31-.19-.07-.23-.16-.45-.24-.67-.02-.06-.04-.13-.08-.24-.02.08-.02.12-.04.15-.02.03-.05.04-.08.06-.02,0-.04-.02-.06-.02.19-.17.16-.33.02-.49,0,0,0-.01,0-.02-.01-.29-.14-.53-.26-.78-.08-.15-.12-.31-.18-.46-.09-.22-.18-.43-.26-.64-.08-.22-.14-.44-.21-.66-.03-.08-.05-.16-.07-.23-.03-.11-.08-.23-.08-.34,0-.15.01-.26-.16-.27,0-.08.04-.2.02-.21-.11-.04-.06-.13-.07-.2-.04-.13-.07-.26-.13-.37-.09-.15-.19-.16-.33-.06-.11.08-.2.19-.3.29-.1.09-.18.25-.29.27-.15.03-.21.13-.29.22-.08.09-.14.2-.23.28-.14.11-.3.2-.44.31-.26.2-.51.41-.76.62-.1.09-.19.19-.29.29-.04.02-.09.05-.13.09-.17.16-.34.32-.51.48-.28.25-.56.49-.84.73-.16.14-.31.31-.55.15-.12-.08-.23-.18-.34-.28-.14-.13-.28-.27-.43-.39-.18-.14-.37-.25-.55-.4-.35-.3-.69-.62-1.04-.93-.25-.22-.57-.35-.76-.65-.08-.12-.23-.19-.34-.29-.11-.1-.24-.18-.33-.29-.09-.11-.24-.12-.32-.25-.07-.11-.22-.18-.32-.28-.22-.2-.35-.16-.43.12-.07.26-.15.52-.24.78-.1.29-.2.59-.31.88-.09.25-.2.5-.3.75-.02,0-.04,0-.06,0-.1-.16-.22-.31-.25-.52,0-.06-.04-.12-.07-.18-.06-.11-.18-.21-.19-.33-.03-.32-.17-.61-.28-.91-.06-.15-.16-.29-.22-.44-.08-.22-.15-.44-.23-.66-.03-.09-.1-.18-.14-.27-.08-.19-.12-.39-.22-.57-.1-.19-.17-.38-.2-.59-.02-.14-.1-.28-.18-.4-.08-.11-.22-.18-.33-.09-.12.09-.04.24,0,.35.09.23.19.46.28.7.07.17.11.36.21.5.14.21.28.42.33.68.03.17.05.34.2.46.02.02.02.07.04.11.1.28.21.56.31.83.07.19.16.36.24.55.06.15.11.31.17.46.08.19.17.37.26.55.02.04.06.08.1.1.16.08.18.14.12.31-.11.35-.21.71-.32,1.06-.01.04-.02.09-.03.13-.09.26-.17.52-.28.77-.05.11-.05.32-.26.3-.69-.08-1.38-.17-2.06-.27-.18-.03-.35-.11-.53-.14-.28-.05-.57-.08-.85-.13-.45-.08-.89-.15-1.34-.24-.33-.07-.64-.17-.97-.23-.13-.03-.28.01-.42.04-.03,0-.08.13-.06.15.17.22.03.54.24.76.07.08.03.25.05.37.07.36.03.75.25,1.08.02.03.02.06.02.1.06.34.12.68.18,1.02.05.28.07.57.13.85.07.4.15.79.23,1.18.04.2-.11.39-.3.45-.33.09-.65.21-.96.33-.37.14-.7.38-1.11.42-.14.01-.21.02-.3-.12-.07-.1-.24-.14-.37-.19-.11-.04-.26-.03-.33-.1-.16-.16-.35-.22-.56-.27-.15-.03-.32-.02-.44-.11-.29-.21-.63-.3-.94-.44-.27-.12-.57-.19-.85-.3-.12-.04-.22-.14-.33-.16-.39-.07-.68-.31-.92-.6-.18-.22-.69-.33-.95-.18-.03.02-.08.09-.07.12.06.22.14.43.21.64,0,.02.03.04.05.04.19.07.37.17.57.19.41.06.82.1,1.2.25.28.11.55.23.83.34.14.05.29.08.43.12.18.06.35.12.53.18.1.04.21.06.32.11.26.11.52.24.78.35.18.08.36.16.56.25-.13.15-.28.22-.45.27-.26.07-.53.14-.77.25-.39.18-.76.39-1.2.44-.03,0-.06.01-.08.03-.11.07-.19.17-.2.31,0,.15.11.16.21.2.04.02.09.05.12.08.23.25.45.5.67.76.24.28.45.58.71.85.23.24.35.57.64.77.09.06.15.15.21.23.13.16.23.34.37.5.27.31.56.6.84.91.1.11.08.22-.03.33-.1.1-.19.21-.28.31-.13.16-.26.32-.4.47-.13.14-.27.27-.4.41-.21.24-.41.5-.63.74-.04.04-.16.07-.19.04-.13-.12-.28-.13-.44-.11-.24.03-.47.08-.71.1-.5.04-1.01.07-1.51.11-.32.02-.64.02-.96.07-.4.07-.79.08-1.19-.02-.21-.05-.44-.06-.56.19-.07.14-.19.3-.07.45.11.15.28.28.47.26.22-.02.45-.07.66-.16.16-.07.34-.08.5-.13.05-.01.13-.02.16,0,.16.11.31.05.48,0,.23-.08.47-.14.71-.19.26-.05.51-.09.77-.13.29-.04.58-.07.87-.13.23-.04.49.05.7-.14,0,.06,0,.11-.03.14-.1.11-.2.22-.3.33-.33.36-.58.79-1.03,1.04-.12.07-.21.18-.29.29-.06.07-.09.17-.1.26-.02.16.1.21.23.26.25.09.51.16.76.24.2.07.4.15.6.22.07.02.14.03.21.06.4.17.79.34,1.19.5.25.1.51.18.77.27.18.06.37.11.55.19.41.19.81.42,1.26.52.07.02.16.14.16.2-.02.3-.06.6-.11.9-.02.12-.1.24-.12.37-.06.4-.1.79-.15,1.17-.14.04-.27.06-.37.12-.31.2-.63.38-.91.64-.3.29-.67.5-1,.75-.08.06-.16.11-.24.17-.12.08-.26.15-.37.24-.16.13-.27.31-.45.4-.29.16-.61.26-.92.38-.21.08-.46.12-.51.39-.03.15-.03.32,0,.48.02.09.13.18.23.22.23.1.44,0,.61-.16.25-.23.48-.47.74-.69.26-.22.54-.42.81-.64.16-.12.31-.25.46-.38.12-.12.25-.24.34-.38.16-.26.55-.2.66-.51,0-.02.04-.02.06-.03.09-.06.18-.12.26-.18.14-.1.28-.2.45-.32.02.08.04.13.04.18,0,.17,0,.35-.03.52-.04.35-.1.69-.15,1.04-.04.21-.08.42-.13.63-.03.11-.07.22-.1.33-.02.05-.05.1-.04.15.03.16.25.31.41.27.15-.03.31-.06.46-.09.09-.02.18-.01.26-.04.28-.09.54-.23.83-.29.25-.05.51-.03.76-.02.17,0,.2.07.1.2-.18.24-.28.54-.52.76-.24.22-.4.53-.61.79-.18.22-.37.46-.61.62-.33.22-.57.51-.78.83-.03.05-.08.09-.13.11-.19.08-.29.24-.39.41-.07.12-.02.37.07.45.1.08.31.06.44,0,.15-.07.18-.23.28-.33.3-.32.6-.63.8-1.03,0-.02.03-.03.04-.05.13-.16.28-.32.37-.5.16-.31.39-.55.62-.8.13-.14.24-.3.36-.46.04-.05.08-.11.12-.16.14-.15.31-.29.4-.46.08-.15.3-.31.05-.56.27-.06.49-.12.71-.16.24-.04.48-.05.72-.1.18-.04.34-.12.52-.16.21-.05.42-.08.63-.11.1-.01.21-.01.25.13.03.11.1.21.14.32.11.29.23.58.33.87.09.23.18.46.25.7.02.07-.04.17-.09.25-.08.12-.2.23-.26.35-.13.26-.25.53-.36.8-.1.25-.21.49-.3.74-.07.2-.12.4-.26.57-.12.15-.18.34-.26.52-.07.15-.14.31-.22.46-.07.14-.2.26-.23.4-.04.22-.15.39-.29.54-.19.2-.35.39-.37.7-.01.19.02.34.15.44.14.11.32.08.46,0,.24-.14.39-.35.42-.63.02-.25.1-.47.24-.68.04-.06.06-.12.09-.19-.09-.02-.15-.03-.19-.04-.01-.1-.03-.18-.04-.31.12.08.19.14.27.19.09-.09,0-.28.19-.33,0,0,0-.07-.01-.09-.09-.1-.02-.18.03-.27.09-.17.21-.33.24-.51.06-.33.27-.57.39-.86.11-.27.23-.54.35-.81.07-.16.13-.31.21-.49.07.08.14.12.16.18.12.29.23.59.35.88.11.27.24.53.35.8.09.23.14.47.22.7.04.11.1.22.19.28.1.06.24.05.33-.07.04-.06.1-.1.15-.15.23-.18.46-.35.68-.54.31-.28.6-.57.92-.85.14-.12.32-.2.52-.33-.02.22-.02.38-.04.54-.03.15-.1.3-.12.45-.02.16-.01.33-.02.5,0,.11.02.24-.02.32-.19.37-.18.77-.23,1.16-.03.26-.12.49-.2.73-.09.26-.32.48-.27.79,0,.02,0,.04-.01.05-.14.18-.14.39-.15.6-.02.29.11.51.39.57.17.04.38.08.52-.09.08-.1.14-.21.18-.33.06-.16.1-.33.13-.5.01-.07-.02-.15-.03-.23-.02-.08-.06-.15-.06-.23,0-.13.03-.26.01-.38-.07-.49.06-.96.12-1.43.03-.24.14-.47.04-.72-.02-.05,0-.11,0-.16.04-.24.09-.49.13-.73.03-.2.04-.41.08-.61.04-.18,0-.31-.15-.41-.11-.08-.08-.14,0-.21.12-.09.24-.17.35-.26.24-.18.48-.36.71-.55.2-.16.4-.34.6-.49.15-.11.26-.09.4.04.12.11.26.2.39.3.06.05.14.08.19.14.13.17.29.29.49.39.16.07.29.21.42.33.08.07.17.16.03.28-.01.01-.01.04,0,.06.04.24.07.49.12.73.06.33.12.65.18.98,0,.04,0,.09,0,.13,0,.12.01.24.02.36,0,.13.02.26.02.39,0,.4,0,.81,0,1.21,0,.25.08.51.02.75-.09.36-.03.68.13,1,.08.16.31.31.45.28.31-.05.47-.19.5-.43,0-.04.04-.08.05-.12.02-.07.07-.15.06-.21-.08-.4-.18-.8-.27-1.2-.08-.36-.16-.71-.25-1.07-.01-.05-.02-.11-.05-.16-.17-.25-.21-.53-.17-.83,0-.04-.03-.09-.05-.14-.04-.12-.1-.23-.13-.35-.05-.23-.08-.47-.1-.71-.01-.13,0-.25,0-.4.14.04.25.05.33.11.35.28.69.57,1.03.85.06.05.14.1.2.15.19.14.36.3.49.5.21.32.49.39.74.08.08-.1.09-.25.12-.38.1-.5.22-.99.29-1.49.07-.49.41-.88.45-1.37,0-.01,0-.02,0-.03.09-.23.18-.45.26-.68.04-.11.06-.24.11-.35.07-.19.02-.41.21-.57.07-.06.09-.18.11-.28.05-.31.04-.3.34-.24.42.08.85.13,1.27.2.31.05.62.1.93.16.09.02.17.05.27.09-.18.25-.16.28-.02.51.19.32.39.63.7.85.02.01.02.04.03.06.15.22.3.43.44.65.12.18.21.38.33.55.1.14.22.25.33.39.1.13.21.26.28.41.18.36.33.73.51,1.09.02.05.09.08.14.11.08.05.16.11.25.14.12.04.27.09.38.06.33-.1.5-.64.28-.9-.22-.27-.48-.51-.73-.76-.15-.14-.32-.26-.45-.43-.29-.38-.62-.72-.94-1.08-.14-.16-.25-.35-.4-.49-.31-.26-.42-.63-.65-.96.16-.03.3-.04.45-.02.16.02.33.07.49.09.11.02.23.01.35.03.18.03.35.07.53.11.06.01.12.04.18.07.14.06.28.15.43.18.08.02.2-.03.27-.08.19-.14.08-.32.03-.49-.06-.2-.12-.4-.17-.61-.03-.13-.02-.26-.05-.39-.04-.22-.11-.43-.14-.64-.04-.22-.05-.45-.07-.7.09.04.16.06.21.1.23.2.46.4.69.6.17.15.34.29.5.44.13.13.25.27.37.4.06.06.12.11.18.17.11.11.21.24.33.34.24.21.51.38.64.69.01.04.04.07.07.09.24.19.5.38.73.58.17.15.35.18.55.08.18-.09.32-.24.34-.45.02-.22.03-.44-.21-.58-.16-.09-.31-.2-.47-.27-.29-.13-.59-.22-.81-.48-.14-.16-.34-.28-.51-.41-.37-.28-.75-.57-1.12-.85-.35-.26-.69-.53-1.05-.79-.09-.07-.21-.13-.32-.12-.08,0-.15.12-.22.19-.07-.09-.11-.21-.1-.35,0-.11-.03-.22-.05-.33-.03-.12-.08-.24-.1-.36-.06-.31-.08-.63-.16-.94-.06-.24-.1-.43.07-.66.14-.19.32-.24.5-.3.22-.07.45-.11.66-.2.31-.13.61-.29.92-.43.12-.06.21,0,.22.13.02.22.13.33.34.37.06,0,.14,0,.17.04.12.12.27.16.43.2.43.12.82.34,1.17.65.24.21.56.36.87.48.3.12.6.22.87.42.31.23.63.43,1.03.49.28.05.6-.2.6-.48,0-.28-.23-.42-.42-.51-.24-.11-.47-.27-.75-.26-.09,0-.19,0-.27-.03-.46-.18-.92-.37-1.38-.56-.1-.04-.2-.09-.31-.13-.21-.08-.42-.15-.62-.24-.35-.15-.7-.3-1.05-.46-.12-.05-.22-.14-.35-.23.11-.07.17-.12.24-.15.21-.09.43-.16.63-.27.4-.21.82-.34,1.27-.42.2-.03.42.02.59-.14.11-.1.28-.16.29-.34,0-.18-.1-.3-.25-.41-.32-.25-.63-.51-.93-.79-.18-.17-.35-.36-.51-.55-.14-.16-.3-.31-.35-.56.25.01.48.02.7.04.08,0,.15.06.23.07.19.02.38.02.56.05.2.04.4.12.6.16.28.06.56.08.83.14.14.03.28.11.42.14.41.1.82.16,1.22.3.21.07.4.12.62.09.19-.03.41-.23.41-.4,0-.3-.12-.47-.38-.51ZM37.35,24.01c.22.25.42.51.63.77.12.15.26.29.36.45.11.18.02.34-.17.42-.17.07-.36.12-.5.26-.08.08-.23.11-.34.16-.53.21-1.07.39-1.58.63-.37.18-.78.27-1.15.44-.23.1-.44.24-.67.34-.15.07-.3.11-.46.15-.26.06-.36.18-.32.44.09.54.19,1.07.29,1.61.02.12.02.25.05.37.12.48.24.96.23,1.46,0,.06.05.11.06.17.03.18.06.37.09.55.01.09.04.18.06.28.03.18.06.36.08.55.02.12-.04.18-.16.16-.37-.05-.75-.1-1.12-.16-.08-.01-.15-.04-.23-.05-.48-.08-.96-.15-1.44-.23-.21-.04-.41-.1-.62-.14-.23-.05-.47-.09-.7-.13-.27-.05-.53-.12-.8-.15-.18-.02-.37,0-.55,0-.04,0-.11.06-.12.11-.08.26-.27.48-.3.78-.02.2-.15.38-.21.58-.07.24-.11.49-.18.73-.14.47-.29.94-.46,1.41-.09.25-.21.49-.3.74-.07.19-.13.38-.19.57-.08.24-.25.28-.47.12-.36-.26-.73-.51-1.09-.77-.21-.15-.39-.34-.59-.51-.08-.07-.19-.12-.27-.19-.26-.22-.5-.45-.77-.66-.21-.17-.43-.31-.65-.47-.1-.07-.2-.14-.29-.22-.19-.14-.37-.31-.58-.43-.07-.04-.21,0-.29.05-.26.16-.51.34-.76.52-.18.14-.34.29-.51.44-.44.38-.87.76-1.31,1.13-.31.26-.65.49-.97.74-.15.11-.29.23-.44.33-.09.06-.2.11-.3.14-.04.01-.13-.03-.14-.06-.04-.18-.21-.31-.19-.53,0-.08-.08-.16-.12-.25-.15-.37-.3-.73-.44-1.1-.09-.24-.17-.48-.27-.72-.04-.11-.12-.2-.18-.3-.01-.02-.02-.05-.03-.07-.05-.15-.09-.3-.15-.45-.15-.37-.31-.73-.47-1.1-.07-.16-.15-.32-.23-.48-.08-.14-.22-.12-.35-.1-.22.04-.44.08-.66.12-.06.01-.12.03-.18.01-.34-.08-.63.09-.94.17-.41.12-.82.23-1.25.17-.23-.04-.44.07-.65.14-.14.05-.29.08-.44.1-.26.04-.52.06-.78.09-.13.02-.26.04-.39.08-.13.03-.19.02-.18-.14.03-.3.07-.61.06-.91-.02-.41.12-.78.17-1.17.03-.28.06-.56.11-.84.04-.22.1-.44.19-.65.1-.23.04-.45.04-.67,0-.4.04-.79.18-1.16.04-.12-.03-.25-.17-.31-.3-.12-.6-.25-.91-.35-.26-.08-.49-.22-.76-.27-.19-.04-.36-.18-.54-.27-.03-.02-.07-.03-.1-.04-.09-.04-.19-.07-.29-.12-.08-.04-.15-.09-.23-.13-.22-.09-.45-.17-.68-.26-.47-.2-.94-.4-1.41-.6-.11-.05-.23-.09-.3-.17-.04-.04-.03-.19.02-.25.23-.29.49-.56.73-.84.11-.12.2-.25.31-.37.2-.21.42-.41.62-.63.18-.19.33-.43.54-.58.25-.18.33-.49.56-.69.22-.2.41-.43.61-.64.03-.04.06-.08.1-.12.07-.09.07-.15-.01-.25-.24-.29-.45-.61-.71-.88-.2-.21-.38-.44-.57-.66-.14-.17-.28-.35-.43-.53-.09-.1-.19-.19-.27-.3-.2-.24-.38-.49-.58-.73-.19-.22-.41-.43-.6-.65-.15-.18-.29-.37-.41-.56-.02-.03.06-.15.12-.2.06-.05.15-.06.23-.08.3-.1.6-.19.9-.3.14-.05.26-.13.39-.19.18-.08.35-.18.54-.21.35-.06.61-.3.93-.41.15-.05.29-.09.44-.13.09-.03.19-.04.28-.08.34-.14.67-.29,1.01-.44.07-.03.14-.03.21-.05.25-.06.34-.23.28-.48-.04-.16-.04-.32-.07-.48-.02-.11-.09-.23-.08-.34.03-.35-.08-.66-.18-.98-.02-.07,0-.14-.02-.21-.05-.27-.12-.53-.16-.8-.04-.26-.05-.52-.08-.78,0-.06-.05-.12-.07-.15,0-.11.02-.21,0-.3-.06-.27-.15-.53-.19-.8-.02-.12.02-.27.08-.39.02-.06.13-.12.2-.11.17,0,.35.04.52.07.39.06.77.13,1.16.2.43.08.87.15,1.3.23.24.04.48.07.72.12.4.07.81.15,1.21.23.22.04.44.09.67.13.11.02.19-.02.23-.12.12-.37.24-.74.35-1.1.04-.12.09-.24.13-.36.08-.26.16-.52.25-.78.07-.19.16-.36.24-.54.04-.09.09-.18.09-.27,0-.27.12-.52.19-.77.1-.36.19-.72.3-1.08.03-.1.1-.19.15-.28.06-.11.15-.14.25-.07.17.12.33.25.49.38.14.11.27.21.4.32.09.07.17.16.25.24.03.03.05.07.08.08.46.22.78.62,1.17.91.36.27.68.6,1.02.9.29.26.58.52.88.78.14.13.29.13.42.01.24-.22.49-.43.78-.58.15-.08.25-.23.39-.34.21-.17.43-.31.64-.48.27-.23.53-.47.8-.7.19-.16.4-.29.57-.47.21-.22.48-.32.71-.5.09-.08.18-.17.28-.24.1-.08.21-.15.31-.22.09.25.17.49.27.72.02.05.09.08.13.11.01.06.02.12.04.18.06.17.12.34.18.51.07.2.13.39.19.59.14.47.27.93.42,1.4.06.2.16.4.23.6.14.41.28.82.41,1.24.04.13.21.24.35.21.33-.07.65-.15.98-.21.13-.02.27.02.39,0,.33-.07.65-.16.98-.24.28-.07.57-.12.85-.18.07-.02.13-.06.2-.07.23-.02.45,0,.68-.08.22-.07.47-.06.7-.12.17-.04.33-.09.51-.07.12,0,.19.04.17.18-.02.15,0,.3,0,.45-.01.11-.07.21-.09.32-.09.54-.19,1.08-.27,1.61-.07.44-.11.89-.17,1.34-.02.16-.07.31-.1.47-.03.19-.12.39-.08.57.06.23-.07.4-.09.6-.02.23.03.34.25.41.26.09.51.19.76.28.44.15.88.3,1.32.46.18.06.35.16.52.24.16.07.33.13.5.19.2.07.4.14.59.22.37.15.73.3,1.1.45.23.1.27.19.12.39-.28.38-.56.75-.85,1.12-.17.22-.37.41-.56.62-.03.03-.04.08-.07.11-.04.05-.08.09-.13.13-.02.01-.04.01-.06.03-.1.11-.21.21-.3.32-.17.22-.32.45-.51.66-.27.29-.49.62-.8.88-.23.18-.27.3-.04.55.22.23.41.48.63.71.31.33.63.64.95.96.08.08.14.18.22.27.18.2.38.4.56.61Z"/>
      <path class="cls-1" d="M32.73,38.55c.01-.19-.13-.29-.23-.42-.19-.26-.56-.37-.64-.72,0-.01-.01-.02-.02-.03-.16-.23-.33-.45-.48-.68-.1-.15-.22-.29-.28-.45-.13-.35-.36-.63-.57-.93-.09-.13-.18-.25-.25-.39-.17-.33-.32-.67-.57-.96-.12-.14-.2-.31-.29-.47-.08-.15-.16-.3-.24-.46-.08-.04-.15-.09-.23-.11-.11-.03-.26.09-.24.19.05.24.11.47.32.65.12.11.19.27.27.41.12.2.22.41.34.6.13.21.29.4.41.61.2.34.39.69.58,1.04.13.23.25.47.36.72.09.2.14.41.21.61.08.21.18.42.26.63.05.14.08.29.14.43.04.09.13.16.16.25.05.21.22.29.38.36.08.03.21.03.28-.02.14-.09.24-.22.37-.33.12-.1.14-.28.05-.41-.03-.05-.09-.1-.08-.15Z"/>
      <path class="cls-1" d="M39.76,31.09c-.17-.07-.33-.16-.47-.28-.13-.12-.26-.13-.41-.12-.1,0-.2-.03-.3-.05-.04-.01-.08-.06-.12-.06-.28,0-.47-.2-.69-.32-.37-.22-.73-.45-1.08-.69-.18-.12-.34-.26-.52-.37-.15-.09-.38-.09-.36-.33-.1.02-.19.06-.23.03-.37-.2-.72-.41-1.09-.61-.16-.09-.31-.18-.48-.24-.07-.03-.16.02-.24.04.02.08.03.18.08.23.09.1.2.2.32.24.4.14.67.46,1.02.68.23.15.47.28.71.42.23.13.48.25.71.4.25.16.48.34.72.51.12.08.25.13.36.22.35.29.69.59,1.03.9.03.02.05.06.07.09.23.36.75.5,1.13.3.14-.08.29-.43.24-.57-.07-.18-.2-.32-.39-.4Z"/>
      <path class="cls-1" d="M22.23,40.29c0-.22.03-.46-.03-.67-.13-.39-.09-.79-.13-1.18-.02-.19-.01-.38-.02-.57,0-.1-.02-.19-.02-.29,0-.25,0-.51,0-.76,0-.38,0-.76,0-1.15,0-.17,0-.35-.03-.51-.02-.11-.12-.2-.26-.19-.15.02-.09.13-.09.21,0,.03,0,.06,0,.08,0,.24-.03.49-.02.73.02.29-.02.57.03.87.04.24-.03.5-.04.75,0,.07.03.14.03.21-.02.32-.05.63-.08.95-.04.49-.09.97-.13,1.46-.02.3-.04.6-.06.9,0,.04,0,.1-.03.13-.13.18-.13.38-.06.58.08.26.18.47.53.4.07-.01.13-.02.2-.03.01.01.03.02.04.03.07-.15.16-.3.21-.46.07-.23.06-.47,0-.72-.05-.25-.02-.52-.02-.78Z"/>
      <path class="cls-1" d="M30.01,38.91c-.07-.16-.13-.33-.24-.47-.16-.21-.34-.4-.44-.66-.17-.42-.36-.83-.54-1.25-.08-.17-.14-.35-.22-.52-.1-.22-.2-.44-.3-.66-.04-.08-.1-.16-.13-.25-.04-.12-.11-.18-.22-.15-.12.04-.15.14-.11.26.02.06.02.13.05.19.1.26.19.52.3.77.13.29.3.56.41.85.11.29.15.61.25.91.11.36.17.72.14,1.09,0,.11.03.24.1.33.17.22.25.47.27.74,0,.08.05.17.07.22.14.08.25.17.37.21.15.04.3.13.48.03.24-.13.26-.5.16-.76-.12-.3-.25-.6-.38-.9Z"/>
      <path class="cls-1" d="M1.08,21.13s0,.03.01.05c.06,0,.13.02.19.02.07,0,.14-.03.21-.04.06-.01.11-.04.17-.05.13-.02.29-.1.38-.05.12.05.22.07.33.04.15-.04.28-.05.42.01.03.01.07,0,.1,0,.24-.02.48-.04.71-.06.04,0,.07.01.11.02.32.06.64.14.96.03.21-.07.41-.08.62-.03.19.04.38.02.57.02.18,0,.39-.06.54.01.31.14.6.04.89,0,.07,0,.17-.1.18-.16,0-.07-.07-.19-.13-.21-.16-.05-.34-.07-.51-.08-.14,0-.27.02-.41.03-.33,0-.67,0-1,0-.26,0-.51,0-.77-.02-.21,0-.41-.04-.62-.04-.26,0-.53.03-.78,0-.25-.04-.48-.02-.73.02-.22.04-.45.02-.68,0-.22-.02-.43-.11-.65-.05-.03,0-.08,0-.11-.02-.27-.14-.53-.22-.8,0-.05.04-.11.06-.16.08-.11.04-.17.19-.1.28.21.25.66.51,1.05.25Z"/>
      <path class="cls-1" d="M13.52,35.27c.11-.14.23-.28.3-.44.16-.38.4-.71.62-1.04.14-.21.25-.43.33-.67.06-.17-.08-.31-.22-.24-.23.13-.4.32-.51.56-.08.16-.17.32-.25.49-.03.06-.07.13-.1.19-.07.14-.14.28-.22.41-.12.21-.24.4-.36.61-.08.13-.12.28-.22.4-.33.42-.65.84-.86,1.34-.13.31-.37.55-.61.79-.11.11-.2.24-.3.35-.07.08-.13.17-.21.22-.27.17-.31.52-.07.74.23.2.42.2.58-.05.19-.28.34-.57.5-.87.05-.1.03-.24.08-.33.16-.28.33-.55.5-.82.19-.3.41-.58.56-.89.13-.26.27-.51.44-.74Z"/>
      <path class="cls-1" d="M4.82,30.83s.04-.04.07-.05c.46-.25.91-.5,1.37-.76.04-.02.07-.05.11-.08.28-.2.54-.4.83-.58.37-.23.75-.44,1.13-.66.29-.17.57-.34.86-.51.08-.05.17-.08.25-.12.14-.14.17-.26.07-.31-.07-.04-.19-.03-.26,0-.26.13-.52.28-.78.42-.14.07-.28.14-.41.22-.51.31-1.02.63-1.53.93-.21.12-.43.21-.65.32-.26.13-.52.27-.79.4-.2.1-.41.2-.61.3-.08.04-.15.12-.24.15-.29.1-.59.19-.89.28-.13.04-.41.39-.4.52,0,.03.02.07.05.09.09.08.17.16.27.22.13.07.28.1.42,0,.2-.15.41-.29.61-.43.03-.02.06-.06.1-.06.2,0,.32-.14.43-.27Z"/>
      <path class="cls-1" d="M42.06,20.95c-.15-.04-.25.03-.38.09-.12.05-.26.1-.38.09-.23,0-.46-.04-.69-.09-.3-.06-.6-.13-.9-.02-.07.02-.16.02-.23.01-.37,0-.74-.02-1.11-.03-.27,0-.54-.01-.81-.03-.09,0-.17-.06-.26-.06-.29,0-.57.03-.86.05-.19.01-.38.03-.57.06-.05,0-.13.09-.12.13.01.06.08.14.13.15.27.05.54.08.81.1.19.02.38.01.57,0,.21,0,.42-.03.63-.02.32,0,.64.04.96.05.21,0,.43-.02.63,0,.53.06,1.06.17,1.6.1.1-.01.21.03.31.06.05.01.1.04.16.04.22.03.44.05.67.07.39.02.61-.17.6-.49,0-.05-.02-.1-.04-.18-.14-.04-.28-.09-.43-.11-.1-.01-.21.05-.3.02Z"/>
      <path class="cls-1" d="M4.87,28.17c.14-.06.29-.08.44-.13.06-.02.11-.05.17-.08.34-.15.68-.3,1.02-.44.12-.05.25-.11.37-.17.17-.07.34-.15.51-.21.13-.05.26-.17.2-.26-.04-.06-.16-.12-.23-.11-.3.07-.59.16-.88.27-.18.06-.33.17-.51.24-.27.1-.55.19-.82.28-.16.05-.32.09-.47.15-.31.12-.61.28-.93.38-.32.1-.65.1-.97.23-.16.06-.35.05-.52.09-.1.02-.19.07-.29.11-.09.19-.18.36-.25.53-.01.04.06.15.12.18.15.08.32.16.5.09.09-.04.17-.13.26-.17.37-.18.74-.35,1.12-.52.38-.17.76-.32,1.15-.48Z"/>
      <path class="cls-1" d="M37.62,11.94c-.07.02-.12.03-.17.05-.22.1-.44.21-.66.32-.34.17-.68.33-1.02.51-.13.07-.25.2-.39.23-.25.05-.45.19-.62.34-.25.2-.52.35-.79.5-.12.07-.2.13-.13.28.05.11.19.12.32.05.17-.1.35-.18.53-.28.4-.21.79-.4,1.18-.62.16-.09.31-.19.48-.27.23-.11.46-.21.68-.33.27-.14.52-.32.79-.46.25-.13.5-.23.76-.35.06-.03.12-.08.18-.11.33-.17.66-.34.97-.52.1-.06.18-.17.23-.27.06-.14-.04-.29-.19-.28-.06,0-.11.06-.17.09-.31.18-.61.37-.93.53-.26.14-.53.24-.79.38-.1.06-.28.03-.28.21Z"/>
      <path class="cls-1" d="M.27,18.59s.09.06.14.07c.18.05.33.13.54.03.18-.09.41-.11.61-.08.15.02.31.08.46.09.17.01.34,0,.51.01.26.02.51.06.77.09.38.04.77.09,1.15.13.16.02.31.04.47.06.3.04.6.08.89.14.11.02.22.08.28-.07.05-.13-.06-.19-.14-.27-.13-.13-.29-.06-.43-.08-.37-.05-.74-.11-1.11-.17-.12-.02-.23-.05-.35-.06-.24-.03-.49-.05-.73-.08-.16-.02-.32-.09-.48-.09-.13,0-.24.02-.35-.07-.05-.04-.16-.05-.21-.01-.16.11-.28.11-.43,0-.12-.09-.27-.14-.4-.2,0-.01.01-.03.02-.04-.07-.05-.13-.12-.2-.14-.19-.05-.38-.09-.57-.13-.16-.04-.46.04-.5.16-.05.13-.08.27-.1.41-.02.13.04.24.16.3Z"/>
      <path class="cls-1" d="M3.17,10.44c.15.08.24.2.3.36.04.12.12.24.28.25.04,0,.08.03.12.05.2.11.38.24.59.32.44.16.85.37,1.24.63.09.06.16.16.26.21.36.21.73.41,1.09.62.4.23.79.47,1.19.7.06.03.13.05.18.08.11.06.21.12.32.18.13.07.26.14.4.19.03.01.12-.02.13-.04.02-.06.03-.15,0-.19-.05-.07-.14-.13-.22-.17-.13-.08-.29-.11-.39-.21-.15-.15-.32-.24-.51-.31-.06-.02-.12-.04-.17-.07-.31-.23-.62-.44-.98-.58-.11-.04-.19-.15-.29-.2-.35-.18-.69-.35-1.05-.5-.12-.05-.25-.2-.41-.08,0,0-.02-.01-.04-.03.02-.03.04-.05.06-.07-.17-.17-.32-.36-.51-.5-.17-.13-.39-.2-.58-.31-.21-.12-.42-.24-.63-.38-.12-.08-.21-.19-.33-.27-.06-.04-.15-.05-.22-.06-.04,0-.1.02-.12.06-.02.03,0,.1.03.13.08.08.16.16.26.21Z"/>
      <path class="cls-1" d="M9.1,4.95c.2.28.47.51.71.77.18.19.37.37.53.57.12.14.21.31.31.44.03.03.05.05.06.06.26.36.51.74.79,1.09.24.3.52.57.79.85.03.03.11.02.15,0,.03-.01.05-.09.03-.12-.1-.18-.22-.36-.32-.54-.05-.08-.08-.18-.14-.26-.24-.3-.5-.59-.74-.89-.09-.11-.16-.24-.24-.34-.16-.19-.34-.36-.49-.56-.12-.15-.2-.33-.31-.49-.09-.13-.18-.25-.27-.37-.05-.06-.1-.12-.15-.18-.15-.18-.33-.33-.42-.57-.07-.18-.21-.35-.35-.5-.09-.1-.27-.08-.36,0-.08.08-.12.34-.06.41.19.19.33.41.48.63Z"/>
      <path class="cls-1" d="M21.38.76c.01.28.06.56.06.84,0,.27-.02.54-.03.82,0,.25,0,.51,0,.76,0,.09-.01.19,0,.28.02.23.04.46.06.69,0,.07,0,.15-.01.22-.01.12-.04.24-.05.36-.03.37.06.75-.03,1.12,0,.04.02.08.03.13.02.06.04.12.05.18.02.25.03.51.05.76,0,.04.01.09.04.12.04.04.1.1.14.09.05,0,.11-.07.12-.12.02-.18.06-.37.02-.54-.07-.26-.01-.5.03-.75.02-.1-.03-.21-.04-.32.02-.17.05-.35.04-.52-.02-.36-.22-.71-.1-1.09.05-.15.05-.33.04-.49,0-.15-.09-.3,0-.45.01-.02,0-.05-.01-.08-.01-.08-.03-.16-.04-.24,0-.07-.01-.14-.02-.21,0-.02,0-.05,0-.07.02-.06.06-.13.06-.19,0-.31,0-.61,0-.92,0-.11,0-.21,0-.3.04-.07.08-.13.1-.19,0-.02-.02-.07-.05-.09-.04-.04-.09-.06-.13-.09,0-.01.02-.02.03-.04.04.01.08.02.13.04-.06-.15-.11-.28-.18-.45-.09.08-.31-.03-.24.24-.16.15-.07.33-.06.5Z"/>
      <path class="cls-1" d="M29.19,7.78c-.08.12-.13.26-.2.39-.15.28-.31.56-.45.84-.02.04,0,.13.04.15.07.05.16.11.23,0,.08-.12.13-.25.21-.38.1-.18.19-.38.33-.52.25-.25.39-.55.55-.85.02-.03,0-.09-.01-.13.07-.07.16-.13.22-.23.12-.19.2-.41.35-.6.11-.13.16-.31.26-.46.22-.35.45-.69.67-1.03.08-.13.15-.26.22-.39-.02-.01-.04-.03-.05-.04.04-.03.09-.05.11-.09.06-.09.1-.19.15-.28.04-.07.11-.14.11-.2,0-.16.06-.26.22-.31-.01-.05-.02-.1-.02-.12.1-.08.17-.14.26-.21-.03-.08-.07-.17-.11-.27-.08.06-.17.1-.23.17-.13.16-.25.34-.37.51-.04.07-.05.17-.08.26,0,0-.04,0-.07,0,0,.03,0,.06,0,.08.03.1.07.2.1.3-.02,0-.03.01-.05.02-.03-.1-.06-.2-.09-.3-.02,0-.03,0-.04,0-.08.15-.16.31-.24.46,0,0,.02.02.03.03-.11.12-.24.24-.33.37-.1.14-.15.31-.24.47-.1.18-.2.35-.31.52-.09.14-.21.26-.29.4-.14.24-.27.5-.41.74-.14.23-.3.46-.44.69Z"/>
      <path class="cls-1" d="M4.38,8.38c.26.19.44.48.76.61.22.09.41.25.6.38.21.14.41.3.61.45.39.29.73.65,1.17.9.5.28.95.64,1.42.96.14-.15.12-.31-.07-.45-.15-.11-.31-.2-.46-.3-.31-.19-.51-.51-.83-.69-.34-.19-.61-.51-.96-.68-.44-.21-.74-.57-1.12-.85-.25-.18-.44-.44-.67-.64-.09-.08-.22-.12-.34-.16-.04-.01-.13.04-.15.09-.05.12-.09.28.04.37Z"/>
      <path class="cls-1" d="M10.95,2.78s.04-.02.07-.03c.13.22.27.44.4.67.05.09.07.21.13.31.2.34.41.67.61,1.01.17.28.32.57.49.85.04.07.1.12.13.19.12.23.23.47.34.7.19.39.49.72.65,1.14.07.17.19.32.29.48.17.29.33.58.51.87.03.04.11.05.17.08.02-.05.06-.12.05-.16-.05-.14-.12-.28-.19-.41-.15-.28-.33-.54-.44-.83-.12-.3-.37-.53-.47-.85-.08-.27-.3-.5-.46-.75-.21-.35-.4-.71-.62-1.05-.12-.19-.26-.37-.31-.6-.01-.05-.05-.08-.07-.13-.11-.23-.35-.41-.33-.7,0-.03-.02-.08-.05-.11-.1-.11-.22-.21-.29-.34-.13-.22-.24-.46-.33-.7-.06-.14-.16-.12-.26-.11-.11.02-.17.1-.13.21.03.1.08.19.12.29Z"/>
      <path class="cls-1" d="M31.8,7.57c-.2.26-.4.53-.6.79-.08.1-.06.21.02.29.04.03.16.02.21-.01.09-.06.17-.14.23-.23.09-.14.15-.3.23-.46.21.04.7-.52.65-.72.08-.08.14-.14.2-.2.2-.24.4-.48.59-.72.14-.17.27-.33.4-.5.11-.14.2-.28.31-.42-.09-.02-.15-.04-.21-.06,0-.02.01-.04.02-.06.08.03.16.05.26.08.1-.13.23-.26.31-.42.05-.08.07-.23.02-.3-.08-.11-.2-.03-.3.03-.03.02-.05.05-.07.08,0,.01,0,.03.01.04.04-.02.08-.04.11-.06,0,.03,0,.05.01.08-.05.02-.11.06-.13.05-.12-.08-.13.05-.17.09-.12.15-.22.31-.34.46-.13.16-.28.3-.4.47-.05.07-.08.15-.19.18-.07.02-.13.09-.17.15-.18.25-.34.52-.52.77-.15.21-.32.41-.48.62Z"/>
      <path class="cls-1" d="M23.72,5.79c.19-.1.17-.28.19-.45.02-.16.06-.32.08-.48.01-.06.03-.13.03-.19,0-.19-.03-.39-.03-.58,0-.23.03-.45.05-.68,0-.12-.03-.3.03-.35.13-.12.1-.18,0-.26.04-.03.1-.06.1-.09.04-.25.07-.5.11-.75-.04-.02-.07-.04-.13-.07.07-.03.14-.05.14-.07.03-.14.07-.28.06-.42-.02-.18.01-.34.07-.51.04-.14.03-.29.04-.44,0-.03-.02-.07-.04-.09-.03-.03-.07-.06-.1-.09-.03.04-.09.07-.1.12-.04.2-.06.41-.11.61-.02.1-.03.18.09.22,0,0,0,.02,0,.07-.05,0-.09-.02-.1-.02-.03.08-.08.14-.09.22-.05.3-.08.6-.13.9-.02.16-.06.32-.08.47-.05.3-.09.6-.15.9-.06.32-.14.64-.2.96-.04.21-.09.41-.09.62,0,.14.06.28.12.41.04.09.14.09.23.04Z"/>
      <path class="cls-1" d="M18.61,1.04c.06.27.03.55.08.84.07.35.08.72.17,1.07.07.28.07.58.11.88.03.2.06.39.09.59.04.29.07.58.11.88.02.12.12.18.21.15.06-.02.13-.13.12-.2,0-.25-.04-.5-.06-.75,0-.03,0-.07-.02-.08-.1-.08-.08-.18-.08-.28,0-.09-.05-.17-.06-.27-.03-.24-.06-.48-.09-.73-.02-.17-.02-.33-.04-.5,0-.04-.05-.07-.08-.11.04-.02.09-.05.13-.07-.04-.13-.12-.25-.11-.36.02-.37-.17-.7-.15-1.07.01-.23-.1-.47-.08-.72,0-.04-.01-.09-.03-.13-.06-.13-.23-.21-.33-.17-.15.06-.13.17-.09.3.07.24.13.49.19.74Z"/>
      <path class="cls-1" d="M27.7,6.86s.11-.02.14-.05c.05-.06.08-.14.12-.22-.06,0-.1-.02-.15-.02.04-.05.06-.09.1-.14.02.04.04.06.06.09.04-.12.06-.22.09-.31.12-.3.24-.59.37-.88.08-.19.18-.38.26-.57.09-.21.22-.41.27-.62.04-.2.11-.37.18-.55.13-.34.27-.67.4-1.01.02-.05-.01-.11-.02-.17.2-.1.12-.34.23-.49,0-.01-.01-.05-.02-.07-.04.02-.08.04-.12.06,0-.01-.01-.02-.02-.03.03-.03.07-.07.1-.1-.01-.02-.02-.03-.03-.05-.04.03-.1.06-.12.1-.1.17-.2.35-.3.53-.07.12-.14.23-.19.35-.11.27-.2.54-.3.81-.15.41-.29.81-.44,1.22-.04.1-.08.21-.12.31-.04.11-.08.23-.13.35-.11.3-.2.62-.34.9-.07.15-.12.29-.12.44,0,.05.05.12.09.14Z"/>
    </g>
  </g>
</svg>