<?xml version="1.0" encoding="UTF-8"?>
<svg id="Layer_2" xmlns="http://www.w3.org/2000/svg" viewBox="0 0 52.78 11.68">
  <defs>
    <style>
      .cls-1 {
        fill: #2c489e;
      }
    </style>
  </defs>
  <g id="Layer_1-2" data-name="Layer_1">
    <g>
      <path class="cls-1" d="M51.76,4.12c-1.53-.62-3.14-.77-4.76-.73-.48.01-.72-.18-.89-.6-.23-.56-.44-1.17-.82-1.61-.41-.47-.97-.88-1.54-1.11-.65-.26-1.17.22-1.02.91.15.66.48,1.28.75,1.92.09.21.22.41.37.67-.52.11-.93.19-1.34.29-.48.11-.74-.05-.96-.53-.36-.8-.81-1.56-1.27-2.31-.34-.55-1.06-.85-1.46-.6-.52.33-.56.87-.43,1.41.15.61.33,1.22.57,1.8.46,1.1.49,1.09-.71,1.37-.02,0-.04.01-.06.02-.37.1-.6,0-.7-.41-.13-.53-.27-1.06-.49-1.56-.38-.89-.8-1.77-1.75-2.22-.58-.26-1.12,0-1.23.63-.04.22-.07.48,0,.69.38,1.12.78,2.24,1.22,3.34.12.31.25.53-.12.72-.56.29-1.12.57-1.68.86-.46.24-.75.07-.96-.37-.26-.53-.53-1.05-.8-1.57-.24-.45-.48-.89-.73-1.33-.05.03-.11.05-.16.08.08,1.13.6,2.12,1.1,3.1.23.44.37.73-.22,1.05-.8.44-1.56.98-2.29,1.54-.67.52-1.27,1.14-1.91,1.71.04.05.08.1.12.15.16-.07.34-.13.49-.22,1.35-.84,2.71-1.68,4.05-2.54.4-.26.64-.18.98.14.49.47,1.02.96,1.62,1.25,1.17.57,2.6.02,2.8-1.38.02-.14.08-.27.13-.41,2.37,1.59,3.43,1.42,4.54-.76.84.4,1.68.83,2.68.6,1.14-.27,1.55-1.26,1.55-2.36.12.02.22.24.27.27,1.6.77,3.29.79,4.99.46.62-.12,1.09-.66,1.09-1.15,0-.51-.43-.98-1.02-1.22ZM34.63,1.95c.07-.15,0-.59.29-.6.28-.01.47.24.57.43.51,1.02,1,2.06,1.44,3.11.07.16-.11.56-.28.66-.16.09-.6.02-.69-.13-.65-1.03-1.21-2.1-1.33-3.47ZM36.49,9.2c-.26.45-.82.47-1.31.29-.78-.28-1.33-.82-1.81-1.61.77-.39,1.46-.76,2.17-1.1.3-.14,1.25.5,1.28.97.03.48-.08,1.04-.33,1.45ZM36.72,6.64c-.06-.1-.36-.26.03-.41.4-.15.38.09.43.21.1.2.17.77.21,1-.05.02-.56-.59-.67-.79ZM38.99,1.52c-.04-.12.04-.37.14-.41.11-.05.34,0,.45.11.74.7,1.09,1.62,1.36,2.57.04.14.02.48-.44.65-.47.17-.57-.34-.64-.51-.32-.79-.6-1.59-.86-2.4ZM41.28,7.76c-.32.63-.8.94-1.44.88-1.29-.12-1.85-.74-1.9-2.15-.19-.58.2-.76.71-.95.79-.3,1.21-.46,1.78.37.1.15.28.32.48.57.36.46.65.72.37,1.27ZM41.63,6.34c-.31-.39-.76-.95-1.06-1.31.4-.06.78-.27.92-.16.18.13.25.9.14,1.48ZM43.33,1.18c-.1-.37.22-.43.32-.47.11-.05.3-.02.4.05.79.56,1.16,1.41,1.47,2.29.03.08-.11.3-.19.32-.23.03-.61.08-.69-.04-.48-.69-.89-1.43-1.31-2.14ZM45.62,6.69c-.26.56-.81.93-1.42.81-.5-.11-.96-.37-1.44-.57-.61-.25-.47-.8-.52-1.29-.11-1.04-.11-1.05.94-1.25.23-.04.46-.06.6-.08,1.84-.27,2.35,1.25,1.83,2.37ZM49.79,6.07c-1.11-.06-1.74-.31-2.57-.59-.59-.2-1.12-.62-1.14-1.15-.01-.38.47-.25.84-.24,1.63.04,2.85.08,4.51.66.23.08.8.25.79.61-.01.36-1.32.76-2.43.71Z"/>
      <path class="cls-1" d="M20.73,7.77c-.4-.32-.59-.52-.27-1.06.47-.79.84-1.65,1.2-2.5.13-.31.11-.69.15-1.04-.06-.01-.12-.03-.18-.04-.1.15-.2.3-.29.46-.51.96-1,1.93-1.53,2.88-.1.18-.41.43-.53.39-.67-.21-1.3-.51-2.01-.8.31-.47.61-.85.83-1.28.4-.76.8-1.52,1.09-2.33.1-.27-.06-.78-.28-.98-.19-.17-.67-.16-.96-.05-.8.31-1.41.87-1.84,1.63-.29.51-.62,1-.96,1.48-.49.69-.6.7-1.41.17.12-.19.25-.37.35-.57.42-.79.89-1.56,1.21-2.39.21-.54-.13-.97-.7-.88-.46.07-.98.31-1.3.64-.69.7-1.27,1.5-1.88,2.28-.44.55-.77.59-1.38.1.16-.28.33-.57.5-.86.26-.46.56-.9.74-1.38.1-.28.11-.75-.06-.93-.17-.18-.65-.23-.92-.13-.43.17-.87.44-1.18.78-.6.64-1.1,1.37-1.67,2.03-.15.17-.42.34-.64.33-.8,0-1.6-.08-2.39-.12-1.25-.05-2.47.03-3.64.51-.89.37-1.04,1.18-.27,1.74.78.57,1.65,1.03,2.66,1.03.82,0,1.63-.04,2.45-.08.36-.02.61.03.83.39.42.72,1.11.99,1.94.86.57-.09,1.14-.21,1.75-.32,1.02,2.24,2.62,1.48,4.17.81.79,1.83,2.07,2.3,3.44,1.27.55-.41,1.03-.92,1.51-1.41.25-.26.33-.62.69-.36,1.1.8,2.37,1.71,3.44,2.54.42.33.79.73,1.18,1.1.05-.05.1-.1.14-.15-.22-.32-.38-.71-.66-.96-1.08-.96-2.17-1.9-3.3-2.81ZM6.11,6.3s-.9.08-1.69.01c-.96-.08-2.06-.07-2.86-.59-.23-.15-.44-.48-.65-.73.26-.17.5-.45.79-.5,1.64-.33,3.28-.38,4.96.02-.16.95-.54,1.79-.54,1.79ZM12,4.02c.64-1.03,1.48-1.87,2.48-2.54.18-.06.24-.04.24.15-.22.45-.42.92-.66,1.35-.23.4-.56,1.12-.89,1.43-.24.22-.52.03-.86.08-.34.06-.48-.21-.3-.48ZM10.55,1.08c.18,0,.14.23.12.26-.49.82-.95,1.66-1.53,2.41-.13.17-.68.03-1.18.03.69-1.21,1.41-2.14,2.58-2.7ZM8.39,4.64c-.4.33-1.04.91-1.42,1.23,0-.51.09-1.1.42-1.31.24-.15.66-.02,1,.09ZM9.23,7.23c-.23.05-.78.17-1.13.21-.14-.03-.41-.02-.61-.14-.21-.13-.4-.36-.5-.59-.03-.06.28-.28.45-.42.55-.48,1.11-.95,1.64-1.45.28-.26.96-.16,1.68.14.08.03-.11.28-.22.59-.24.64-.39,1.48-1.3,1.66ZM10.74,6.72c-.09-.06.3-1.4.52-1.62.13-.13.57.02.82,0,.04.08.18.03.22.12-.33.3-1.22,1.21-1.55,1.51ZM14.51,6.52c-.14,1.48-.83,2.06-2.48,2.04-.09,0-.31.03-.46-.05-.23-.14-.51-.34-.59-.57-.07-.23,0-.62.17-.78.55-.54,1.16-1.03,1.76-1.51.49-.39.98-.08,1.41.13.15.07.2.49.18.74ZM15.78,4.71c.45-1.03,1.11-1.92,2-2.62.19-.15.48-.15.72-.22.26.19.11.55,0,.74-.53.95-1.1,1.87-1.69,2.79-.09.15-.32.21-.39.26-.83-.08-.94-.28-.64-.95ZM15.24,6.14c.09-.09.44.14.63.14.03.06.23.05.26.11-.2.21-1.09,1.24-1.29,1.45-.09-.06.26-1.55.4-1.7ZM18.83,7.88c-.6.88-1.3,1.66-2.43,1.86-.78.14-1.37-.39-1.32-1.37.06-.09.18-.34.37-.54.31-.34.63-.67.99-.95.16-.12.45-.18.64-.13.54.16,1.35.5,1.86.75.12.06-.04.29-.1.38Z"/>
    </g>
  </g>
</svg>