<?xml version="1.0" encoding="UTF-8"?>
<svg id="Layer_2" xmlns="http://www.w3.org/2000/svg" viewBox="0 0 48.69 29.1">
  <defs>
    <style>
      .cls-1 {
        fill: #2c489e;
      }
    </style>
  </defs>
  <g id="Layer_1-2" data-name="Layer_1">
    <g>
      <path class="cls-1" d="M47.77,8.3c-.29-.02-.57-.04-.85-.06,0,.01,0,.03,0,.04.2.07.77.1.85.02Z"/>
      <path class="cls-1" d="M34,3.69c-.16-.1-.32-.19-.48-.29,0,.02-.02.03-.03.05.16.1.31.2.47.29.01-.02.02-.03.04-.05Z"/>
      <path class="cls-1" d="M41.15,6.6c.08.1.15.19.24.29,0-.17-.09-.28-.24-.29Z"/>
      <path class="cls-1" d="M48.63,9c-.05-.21-.14-.39-.3-.54-.17-.15-.25-.17-.45-.05-.1.05-.22.08-.27.2-.01.02-.08.03-.1.03-.11.16-.22.32-.33.47-.02.02-.08.03-.12.02-.15,0-.3-.02-.46-.03-.16-.01-.19-.05-.13-.19.09-.22.21-.43.33-.65-.06-.06-.48-.1-.63-.02.12.02.23.03.33.05-.12.19-.24.37-.34.55-.11.19-.12.21-.33.18-.1-.01-.13-.06-.1-.15.04-.11.09-.22.14-.32.07-.12.15-.24.24-.37-.06-.02-.1-.04-.15-.04-.65-.05-1.3-.1-1.95-.15-.08,0-.13-.03-.16-.12-.08-.27-.2-.51-.39-.72-.24-.27-.52-.45-.9-.28,0,0,0,0-.01,0-.34.13-.69.24-.91.56-.08.11-.15.23-.24.33-.07.08-.16.19-.25.2-.11.02-.24-.03-.34-.08-.05-.02-.05-.12-.08-.2.1-.02.16-.07.09-.18.08-.04.18-.05.09-.17.05-.02.09-.04.12-.05,0,0-.02-.01-.02-.02.08-.1.16-.19.26-.32,0-.13-.16-.33-.32-.35.07.09.14.19.21.28-.07-.03-.12-.07-.16-.12-.1-.13-.2-.24-.37-.28-.09-.02-.12-.08-.12-.17,0-.25,0-.5,0-.75,0-.09.04-.12.12-.12.2,0,.22-.03.26-.23.01-.08.02-.16.02-.23,0-.08-.03-.12-.12-.11-.07,0-.14.01-.21.02,0,0,0-.02,0-.03.05-.01.11-.02.2-.04-.06-.02-.09-.04-.1-.03-.12.05-.15-.02-.16-.12,0-.1-.01-.19-.01-.29,0-.1-.05-.14-.15-.13-.23.03-.46.04-.69.06-.47.04-.94.08-1.41.11-.08,0-.17.02-.22-.11.7-.02,1.38-.04,2.06-.16,0-.07-.01-.12-.01-.18,0-.28,0-.56,0-.84,0-.12.03-.24-.1-.27.02-.08.05-.15.05-.21-.03-.31-.16-.6-.33-.86-.05-.08-.1-.11-.19-.06-.06.03-.12.05-.18-.02-.33-.37-.72-.57-1.23-.48-.02,0-.04-.03-.07-.06-.23.11-.43.28-.6.51.05.02.09.03.12.05,0,.01,0,.02,0,.03-.15.01-.3.02-.45.03,0,.02-.01.04-.02.06-.06-.06-.11-.14-.18-.19-.18-.12-.37-.26-.57-.34-.34-.13-.72-.09-.99.12-.56.44-.74,1.06-.71,1.76.01.3,0,.6,0,.89-.02,0-.03-.01-.05-.02-.08.03-.16.06-.24.09-.05.02-.1.06-.16.05-.68-.04-1.36-.08-2.04-.12-.53-.04-1.06.01-1.57-.16-.33-.11-.67-.13-1.01-.02-.04.01-.1-.01-.15-.02-.32-.06-.63-.14-.95-.17-.39-.04-.79-.04-1.18-.06-1.13-.06-2.25-.13-3.38-.19-1.27-.07-2.54-.14-3.81-.21-.04,0-.09-.02-.13-.02,0-.01,0-.03,0-.04.14-.01.27-.04.41-.04.5,0,.99,0,1.49.01,1.4.05,2.81.1,4.21.15.52.02,1.04,0,1.56.05.64.05,1.28.13,1.92.19.18.02.36-.02.54,0,.14.01.28.07.42.09.09.01.22.03.27-.01.1-.11.22-.07.33-.08.13,0,.26,0,.39.02.09.01.19-.04.29.05.04.04.17-.03.26-.04.25,0,.49,0,.73,0,0,.01,0,.03,0,.04-.29.02-.58.04-.87.06-.22.02-.33.09-.38.29.12,0,.24,0,.36,0,.08,0,.15-.05.23-.05.36,0,.71.03,1.09.04-.05-.03-.08-.05-.1-.06,0-.01,0-.03,0-.04h.58c-.95-.57-1.98-.53-3-.59.05-.04.09-.06.14-.06.17,0,.34.01.51.02.37,0,.73,0,1.1,0,0,0,0,0,0,0-.57-.03-1.15-.05-1.75-.08.07-.12.12-.2.17-.28.04-.06.11-.12.12-.18,0-.18.15-.18.25-.25.03-.02.04-.08.06-.12.02-.08.06-.15.02-.25-.03-.08.02-.2.03-.3,0,0,0-.02,0-.03-.09-.08.02-.18-.02-.28-.03-.09.02-.21.02-.32,0-.02-.02-.04-.03-.07-.1-.17-.27-.17-.43-.17-.34,0-.68.01-1.01.02-.03,0-.07,0-.1,0-.21-.06-.27,0-.21.24-.17-.16-.37-.16-.56-.16-.21,0-.42,0-.63-.01-.16,0-.32-.04-.48-.06-.14-.02-.2.02-.2.16,0,.36.02.72,0,1.08,0,.17.05.27.21.32.05.02.1.06.13.1.06.09.1.19.16.29.02.04.04.07.05.11-.04,0-.08.03-.11.03-.27,0-.54-.02-.81-.03-1.1-.04-2.21-.08-3.31-.13-.54-.02-1.06.02-1.57.21-.03.01-.07.01-.11.01-.25,0-.51-.02-.76-.02-.54,0-1.08-.07-1.62.01-.19.03-.19.02-.2-.18,0-.5-.01-.99-.02-1.49,0-.05-.02-.11-.03-.16-.05.06-.09.1-.14.17-.21-.57-.47-1.07-1.07-1.28.02-.04.03-.08.05-.11-.35-.06-.59.14-.82.33-.08-.03-.14-.07-.21-.08-.18-.03-.27.16-.44.2-.06.01-.11.17-.02.28.05.06.08.15.12.22-.02.01-.03.02-.05.03-.03-.04-.06-.07-.08-.11-.17-.27-.37-.5-.66-.65-.24-.12-.48-.2-.73-.03-.38.26-.59.63-.71,1.05-.13.46-.16.94-.14,1.42,0,.04,0,.08-.03.12-.06.1-.13.2-.18.3-.05.12-.12.2-.26.2-.1,0-.15.06-.17.15-.04.14-.14.18-.29.16-.14-.02-.28,0-.42,0,0,.01,0,.02,0,.04h.58s-.08.05-.12.05c-.22-.01-.43-.02-.65-.05-.28-.03-.29-.02-.28.25,0,.26,0,.52,0,.78-.06,0-.11,0-.15,0-.82-.04-1.64-.08-2.46-.13-.5-.03-.9.16-1.25.5-.41.42-.81.84-1.23,1.24-.14.13-.29.27-.47.34-1.01.38-2.03.73-3.05,1.09-.67.24-1.33.48-2,.72-.12.04-.23.13-.36.15-.48.08-.95.14-1.43.21-.15.02-.25.1-.3.24-.08.2-.16.4-.24.61-.03.08-.04.17-.03.26.04.55.09,1.11.14,1.66.15,1.79.3,3.58.47,5.36.06.61.28,1.12.88,1.42.54.27,1.17.15,1.53-.33.22-.29.32-.62.29-.98-.07-.89-.15-1.78-.23-2.68-.11-1.32-.21-2.64-.33-3.96-.02-.24.01-.43.19-.6.05-.05.09-.13.08-.19-.03-.16.05-.21.18-.25,1.49-.5,2.97-1.02,4.46-1.52.29-.1.54-.24.76-.46.47-.47.96-.93,1.44-1.39.13-.12.28-.18.46-.16.76.05,1.52.1,2.28.15.12,0,.29-.02.36.05.07.07.04.24.05.37.01.15.06.2.21.22.09,0,.17.01.26.02,0,.04,0,.06.01.08q0,.21-.2.25t-.23.27s0,.09,0,.14c0,.32,0,.33.34.33.12,0,.16.05.16.17,0,.17,0,.34.02.51,0,.06.03.13.07.17.16.2.36.22.63.06,0,.03,0,.06.01.09.24-.05.32-.16.32-.38,0-.11,0-.22,0-.34.09,0,.16,0,.23.02.29.03.58.06.87.1.89.1,1.79.21,2.68.3.14.01.17.07.17.19,0,.54.02,1.08.03,1.61,0,.27.08.35.35.4.23.04.45.08.68.12-.09.31-.04.43.22.61.21.14.41.29.61.43.08.06.11.14.11.25,0,.51,0,1.01,0,1.52,0,.41,0,.83,0,1.24,0,.24-.06.49-.08.73-.03.24-.07.48-.06.72,0,.24-.15.46-.07.71,0,.02-.03.05-.03.07-.01.15-.02.3-.03.45,0,.02.02.03.02.05,0,.03.01.06,0,.08-.06.08-.05.16,0,.25.01.02-.01.06-.01.09,0,.06,0,.12,0,.18,0,.04,0,.08,0,.12,0,.15,0,.29-.01.44,0,0,0,0,0,.01,0,.07,0,.14,0,.2,0,.03,0,.05,0,.08.02.15.06.3.06.45,0,.09-.04.18.04.26.01.01,0,.05,0,.08,0,.07.01.14.02.21,0,.03.01.07.02.1.02.16.03.33.08.48.03.08.03.15.06.22.05.15.07.31.13.45.03.09.1.17.14.27.09.23.17.47.25.71.06.18.18.31.37.36.48.14.97.3,1.45.44.2.06.4.11.6.16,0,0,0,.28,0,.29-.48-.12-.96-.25-1.46-.38.02,1.73.05,3.19.07,4.9-.01-.01-.03-.02-.04-.04-.08.03-.18.03-.23.09-.12.12-.07.26.09.32.68.23,1.37.47,2.05.7.11.04.22.12.33.12.22,0,.45,0,.66-.05.51-.12,1.01-.27,1.52-.42.06-.02.12-.07.14-.12.03-.07.02-.15.02-.22,0-.05-.02-.1-.03-.14-.02-.07-.06-.13-.06-.2-.02-1.52-.03-3.03-.04-4.55,0-.39,0-.39.38-.48.11-.03.14-.08.11-.19-.03-.1-.05-.21-.05-.31,0-.14.05-.28.04-.42-.04-.87-.12-1.74-.14-2.61-.03-1.06-.03-2.11-.04-3.17,0-.04,0-.09,0-.14.08.02.13.03.19.04.63.15,1.26.29,1.89.44.27.07.52.04.78-.06.2-.08.4-.16.6-.24,0,0,.01.02.02.03-.12.08-.24.16-.36.24.37-.17.68-.42.94-.72.29-.34.35-.76.35-1.19,0-.76-.01-1.51-.02-2.27,0-.05,0-.1,0-.16.09.01.16.02.23.03.22.03.44.06.66.09.22.03.45.09.67.08.21-.01.39.13.61.05.07-.03.18.06.3.06.14,0,.28.05.42.1.19.06.39.02.59.07.31.09.65.1.97.15.19.03.37.04.56.07-.05-.04-.11-.04-.17-.06-.05-.01-.1-.04-.15-.06,0-.02.02-.04.02-.05.14.07.28.16.42.19.31.08.63.13.95.04.05-.02.1-.06.15-.09-.37.01-.57-.09-.7-.37.04,0,.07-.02.1-.02.19.02.37.05.51.18.17.15.33.1.52.05.2-.05.36-.26.6-.17.12-.11.25-.15.4-.06.13-.12.27.09.4,0,.11.11.23.04.35.03.18,0,.34-.06.47-.19.29-.3.59-.6.78-.97.01-.03.05-.06.07-.06.08,0,.16,0,.23.01.21.02.41.03.62.05,0-.01,0-.03,0-.04-.11-.03-.23-.07-.34-.09-.09-.02-.2,0-.27-.06-.11-.07-.19-.18-.3-.29.24-.03.41,0,.57.14.16.13.35.22.54.31.29.14.57.09.84-.05.3-.16.52-.4.69-.69.05-.09.1-.11.2-.09.9.1,1.8.2,2.7.29.42.04.85.07,1.27.13.18.02.34,0,.46-.12.13-.14.26-.29.33-.45.19-.4.21-.83.1-1.26ZM30.98,1.81s.03.06.03.06c-.14.1-.18.33-.46.32.15-.14.29-.26.42-.38ZM29.77,1.76h.58c-.19.01-.38.01-.58.01h0ZM30.21,1.95c-.07.11,0,.26.18.36-.14.01-.26.02-.38.03-.03-.08.14-.16-.02-.2-.07-.02-.14,0-.22,0,.07-.16.27-.24.44-.19ZM29.97,2.99s0,.03,0,.05c-.08,0-.16,0-.24.01,0-.02,0-.04,0-.06h.24ZM29.94,3.13s0,.05,0,.07c-.08,0-.15,0-.23.01,0-.02,0-.04,0-.07.07,0,.15-.01.22-.02ZM29.93,3.31s0,.03,0,.05h-.22s0-.03,0-.05h.23ZM25.21,2.98c.4,0,.8.02,1.2.04.56.02,1.13.05,1.69.06.14,0,.23.03.23.21-1.41-.17-2.83-.11-4.24-.31.39,0,.76,0,1.13,0ZM1.92,16.68c-.09.11-.26.17-.4.12-.14-.05-.24-.14-.25-.3-.08-.91-.16-1.82-.24-2.73-.02-.19.13-.43.29-.48.15-.05.34,0,.44.18.06.11.08.25.12.37,0,0-.01,0-.02,0,.02.23.04.46.06.69.02.24.03.48.05.72.02.23.05.46.07.69.01.25.07.51-.12.74ZM14.14,8.45c-.18-.15-.21-.39-.08-.57.17.14.21.37.08.57ZM17.55,1.74c-.03-.11-.07-.22-.1-.33,0,0,.02-.01.03-.02.04.11.08.22.12.33-.02,0-.04.01-.06.02ZM18.76,3.51c-.18-.01-.36-.02-.55-.04,0,0,0-.02,0-.02h.55s0,.04,0,.06ZM19.43,3.15c-.38.02-.77.04-1.15.06-.04,0-.1-.01-.13-.04-.12-.13-.23-.28-.35-.43.14-.03.26-.04.33.09.17.3.42.36.73.3.18-.03.37-.03.58-.04-.1-.12-.18-.23-.26-.34.24.05.33.11.47.34-.08.02-.15.05-.23.06ZM20.55,7.01c-.05-.05-.11-.1-.16-.16.02-.02.03-.03.05-.05.05.05.11.1.16.15-.02.02-.03.03-.05.05ZM26.91,15.37s-.06-.05-.09-.08c-.08-.06-.1-.15-.06-.28.2.2.4.41.62.63-.17-.1-.32-.19-.46-.27ZM27.62,15.62s-.05,0-.07-.02c-.25-.14-.42-.35-.61-.54.1-.02.19-.05.28-.05.07,0,.15.01.2.05.12.1.22.22.32.34.03.04.04.09.06.14-.06.02-.12.05-.19.07ZM29.68,16.23c-.06.06-.13.12-.2.17-.03-.06-.05-.1-.07-.14.05-.04.1-.1.16-.13.03-.02.07,0,.11,0,0,.03,0,.08,0,.1ZM29.58,15.78c-.05.1-.11.15-.24.12-.31-.07-.63-.11-.94-.18-.11-.03-.23-.09-.31-.17-.41-.4-.82-.81-1.22-1.22-.03-.03-.05-.08-.05-.12-.01-.79-.02-1.58-.03-2.36,0-.03,0-.06.01-.09.02,0,.04,0,.06,0,0,.08,0,.15,0,.23-.06.55-.01,1.08.16,1.6.17.5.43.94.85,1.27.16.12.33.2.54.14.17-.05.24-.18.14-.33-.01-.02-.03-.04-.04-.05-.72-.71-.88-1.58-.76-2.54,0-.05.02-.09.03-.14,0-.01.01-.02.02-.04.18,0,.37.03.55.02.32-.02.63-.07.95-.09.12,0,.25,0,.37.03.03,0,.07.07.08.1.02.18.03.36.03.54,0,.79.01,1.58.02,2.36,0,.32-.07.62-.22.91ZM37.76,2.83c.04.08.08.17.13.25-.02,0-.04.02-.05.03-.11-.05-.08-.17-.07-.28ZM32.78,7.12l-.65,2.46.4-2.44c.09-.14.26-.02.26-.02ZM32.42,7.08l-.65,2.46.4-2.44c.09-.14.26-.02.26-.02ZM30.7,9.42l.4-2.44c.09-.14.26-.02.26-.02l-.65,2.46ZM31.06,9.46l.4-2.44c.09-.14.26-.02.26-.02l-.66,2.46ZM31.81,7.06c.09-.14.26-.02.26-.02l-.65,2.46.4-2.44ZM32.62,12.32c-.28-.04-.55-.08-.83-.12,0-.02,0-.03,0-.05h.16c.23.05.45.09.67.14,0,0,0,.02,0,.03ZM32.48,9.62l.4-2.44c.09-.14.26-.02.26-.02l-.65,2.46ZM32.83,9.65l.4-2.44c.09-.14.26-.02.26-.02l-.65,2.46ZM33.18,9.69l.4-2.44c.09-.14.26-.02.26-.02l-.65,2.46ZM33.54,9.73l.4-2.44c.09-.14.26-.02.26-.02l-.65,2.46ZM33.89,9.77l.4-2.44c.09-.14.26-.02.26-.02l-.65,2.46ZM34.6,9.85l.39-2.44c.09-.14.26-.02.26-.02l-.65,2.46ZM35.35,7.45c.09-.14.26-.02.26-.02l-.65,2.46.39-2.44ZM34.25,9.81l.4-2.44c.09-.14.26-.02.26-.02l-.65,2.46ZM35.46,12.44c-.19-.03-.38-.08-.56-.07-.14.01-.21-.05-.31-.12-.05-.04-.15-.02-.22-.03,0-.01,0-.03,0-.04.33.03.66.06.98.1.05,0,.09.07.13.1,0,.02-.01.03-.02.05ZM35.31,9.93l.4-2.44c.09-.14.26-.02.26-.02l-.65,2.46ZM35.67,9.96l.39-2.44c.09-.14.26-.02.26-.02l-.65,2.46ZM36.02,10l.39-2.44c.09-.14.26-.02.26-.02l-.65,2.46ZM37.4,9.95s-.07.05-.11.05c-.02,0-.06-.06-.06-.09.06-.29.12-.58.19-.87.02,0,.03,0,.05,0,.07.31,0,.6-.07.9ZM37.87,6.84c-.35-.02-.7-.04-1.05-.07-1.07-.09-2.14-.19-3.21-.29-.24-.02-.48-.05-.72-.08,0-.01,0-.03,0-.04,1.71.13,3.41.22,5.12.38,0,.02,0,.05,0,.07-.05.01-.1.04-.14.04ZM38.82,7.52s-.04-.01-.06-.02c-.03-.02-.07-.04-.1-.06.04-.03.08-.09.13-.1.11-.01.22,0,.35,0-.02.04-.05.09-.07.13-.09.17-.09.17-.25.05ZM38.91,10.68c.11-.02.2-.02.26.1-.11,0-.21.05-.26-.1ZM40.4,4.57s0,.03,0,.05c-.13.01-.25.02-.38.03,0-.01,0-.02,0-.04.13-.01.26-.03.38-.04ZM39.41,6.46s0-.03-.01-.05c.12-.03.23-.06.35-.09,0,.01,0,.02,0,.04-.12.03-.23.07-.35.1ZM40.39,6.54c-.28.04-.52.15-.73.35-.04.04-.09.08-.14.11.16-.33.41-.52.78-.55.27-.02.47.09.59.34-.03-.03-.07-.06-.09-.1-.09-.17-.24-.18-.41-.16ZM40.58,6.59c.06.08.13.17.19.25-.01,0-.02.02-.03.03-.07-.08-.13-.16-.2-.25.01,0,.03-.02.04-.03ZM41.29,9.31c-.1-.29-.09-.57.1-.83-.03.28-.06.55-.1.83ZM47.28,9.34s.03,0,.05,0c-.01.1-.02.21-.03.31-.02,0-.03,0-.05,0-.05-.11-.03-.21.03-.31ZM43.1,8.28c-.06-.02-.1-.03-.17-.05.12-.14.25-.23.42-.23.2,0,.4,0,.59.02.34.03.68.08,1.01.11.27.03.53.04.82.07-.14.25-.27.47-.4.69-.02.03-.09.04-.13.04-.45-.04-.9-.09-1.35-.13-.33-.03-.66-.06-.99-.1-.08,0-.16-.04-.24-.06.03-.26.15-.36.45-.36ZM47.47,10.77c-.2-.02-.41-.04-.61-.06-1.21-.14-2.42-.27-3.63-.41-.17-.02-.28-.09-.39-.26.09,0,.14-.02.2-.02.69.08,1.38.16,2.06.25.12.01.21.05.35,0,.14-.05.32.05.48.09.07.02.14.07.19-.03,0-.01.04-.02.06-.01.32.05.63.1.95.14.18.02.24.19.36.27,0,.01,0,.02-.01.04Z"/>
    </g>
  </g>
</svg>